<svg width="300" height="301" viewBox="0 0 300 301" fill="none" xmlns="http://www.w3.org/2000/svg">
<rect x="1" y="1.60864" width="298" height="298" fill="#05060B" stroke="#F6DBA8" stroke-width="2"/>
<path d="M59.02 243.627H56.47L54.37 238.137H45.4L43.3 243.627H40.78L48.49 223.827H51.34L59.02 243.627ZM46.27 235.887H53.5L49.87 226.137L46.27 235.887ZM75.2247 225.867L75.7647 227.997C75.7447 227.997 75.7147 227.997 75.6747 227.997C75.6347 227.997 75.5947 227.997 75.5547 227.997C74.5747 227.997 73.8147 228.197 73.2747 228.597C72.7547 228.977 72.4947 229.597 72.4947 230.457L71.0247 229.707C71.0247 228.927 71.2047 228.247 71.5647 227.667C71.9247 227.087 72.4147 226.647 73.0347 226.347C73.6547 226.027 74.3347 225.867 75.0747 225.867C75.0947 225.867 75.1147 225.867 75.1347 225.867C75.1747 225.867 75.2047 225.867 75.2247 225.867ZM70.6647 241.707C72.0847 241.707 73.1947 242.037 73.9947 242.697C74.7947 243.337 75.1947 244.197 75.1947 245.277C75.1947 246.257 74.8647 247.107 74.2047 247.827C73.5647 248.547 72.6947 249.097 71.5947 249.477C70.5147 249.877 69.2947 250.077 67.9347 250.077C65.5747 250.077 63.8047 249.677 62.6247 248.877C61.4647 248.077 60.8847 247.117 60.8847 245.997C60.8847 245.197 61.1447 244.477 61.6647 243.837C62.2047 243.217 63.1047 242.867 64.3647 242.787L64.1547 243.237C63.4747 243.057 62.8947 242.757 62.4147 242.337C61.9547 241.897 61.7247 241.267 61.7247 240.447C61.7247 239.627 62.0247 238.927 62.6247 238.347C63.2447 237.747 64.1547 237.377 65.3547 237.237L66.9447 238.047H66.6447C65.6647 238.147 64.9647 238.397 64.5447 238.797C64.1447 239.177 63.9447 239.597 63.9447 240.057C63.9447 240.617 64.1447 241.037 64.5447 241.317C64.9647 241.577 65.5447 241.707 66.2847 241.707H70.6647ZM67.9047 248.067C69.0647 248.067 70.0147 247.947 70.7547 247.707C71.5147 247.467 72.0747 247.157 72.4347 246.777C72.7947 246.397 72.9747 245.987 72.9747 245.547C72.9747 245.007 72.7547 244.577 72.3147 244.257C71.8947 243.937 71.1247 243.777 70.0047 243.777H65.3847C64.7447 243.777 64.2047 243.937 63.7647 244.257C63.3247 244.597 63.1047 245.057 63.1047 245.637C63.1047 246.377 63.5247 246.967 64.3647 247.407C65.2247 247.847 66.4047 248.067 67.9047 248.067ZM67.6947 228.327C68.8947 228.327 69.9547 228.547 70.8747 228.987C71.8147 229.407 72.5447 229.997 73.0647 230.757C73.5847 231.517 73.8447 232.397 73.8447 233.397C73.8447 234.377 73.5847 235.257 73.0647 236.037C72.5447 236.797 71.8147 237.397 70.8747 237.837C69.9547 238.257 68.8947 238.467 67.6947 238.467C65.7147 238.467 64.1947 237.997 63.1347 237.057C62.0747 236.097 61.5447 234.877 61.5447 233.397C61.5447 232.397 61.8047 231.517 62.3247 230.757C62.8647 229.997 63.5947 229.407 64.5147 228.987C65.4347 228.547 66.4947 228.327 67.6947 228.327ZM67.6947 230.277C66.6547 230.277 65.7847 230.567 65.0847 231.147C64.3847 231.707 64.0347 232.457 64.0347 233.397C64.0347 234.317 64.3847 235.067 65.0847 235.647C65.7847 236.227 66.6547 236.517 67.6947 236.517C68.7347 236.517 69.6047 236.227 70.3047 235.647C71.0047 235.067 71.3547 234.317 71.3547 233.397C71.3547 232.457 71.0047 231.707 70.3047 231.147C69.6047 230.567 68.7347 230.277 67.6947 230.277ZM78.5615 243.627V228.627H80.5115L80.8415 231.087C81.2615 230.167 81.8715 229.477 82.6715 229.017C83.4915 228.557 84.4815 228.327 85.6415 228.327C85.9015 228.327 86.1815 228.347 86.4815 228.387C86.8015 228.427 87.0715 228.507 87.2915 228.627L86.8715 230.817C86.6515 230.737 86.4115 230.677 86.1515 230.637C85.8915 230.597 85.5215 230.577 85.0415 230.577C84.4215 230.577 83.7915 230.757 83.1515 231.117C82.5315 231.477 82.0115 232.027 81.5915 232.767C81.1715 233.487 80.9615 234.407 80.9615 235.527V243.627H78.5615ZM96.5488 228.327C97.9688 228.327 99.2188 228.637 100.299 229.257C101.399 229.877 102.259 230.777 102.879 231.957C103.499 233.117 103.809 234.507 103.809 236.127C103.809 237.747 103.499 239.147 102.879 240.327C102.259 241.487 101.399 242.377 100.299 242.997C99.2188 243.617 97.9688 243.927 96.5488 243.927C95.1488 243.927 93.8988 243.617 92.7988 242.997C91.6988 242.377 90.8388 241.487 90.2188 240.327C89.5988 239.147 89.2888 237.747 89.2888 236.127C89.2888 234.507 89.5988 233.117 90.2188 231.957C90.8388 230.777 91.6988 229.877 92.7988 229.257C93.8988 228.637 95.1488 228.327 96.5488 228.327ZM96.5488 230.397C95.5288 230.397 94.6588 230.627 93.9388 231.087C93.2188 231.547 92.6588 232.207 92.2588 233.067C91.8788 233.907 91.6888 234.927 91.6888 236.127C91.6888 237.307 91.8788 238.327 92.2588 239.187C92.6588 240.047 93.2188 240.707 93.9388 241.167C94.6588 241.627 95.5288 241.857 96.5488 241.857C97.5688 241.857 98.4388 241.627 99.1588 241.167C99.8788 240.707 100.429 240.047 100.809 239.187C101.209 238.327 101.409 237.307 101.409 236.127C101.409 234.927 101.209 233.907 100.809 233.067C100.429 232.207 99.8788 231.547 99.1588 231.087C98.4388 230.627 97.5688 230.397 96.5488 230.397ZM132.101 223.827V226.077H125.201V243.627H122.801V226.077H115.901V223.827H132.101ZM138.796 243.927C137.376 243.927 136.106 243.617 134.986 242.997C133.886 242.377 133.026 241.487 132.406 240.327C131.786 239.147 131.476 237.747 131.476 236.127C131.476 234.507 131.786 233.117 132.406 231.957C133.026 230.777 133.876 229.877 134.956 229.257C136.036 228.637 137.266 228.327 138.646 228.327C140.046 228.327 141.236 228.627 142.216 229.227C143.216 229.827 143.976 230.647 144.496 231.687C145.016 232.707 145.276 233.857 145.276 235.137C145.276 235.477 145.266 235.787 145.246 236.067C145.226 236.347 145.196 236.597 145.156 236.817H133.036V234.687H144.106L142.876 234.927C142.876 233.487 142.476 232.377 141.676 231.597C140.896 230.817 139.866 230.427 138.586 230.427C137.606 230.427 136.756 230.657 136.036 231.117C135.336 231.557 134.786 232.207 134.386 233.067C134.006 233.907 133.816 234.927 133.816 236.127C133.816 237.307 134.016 238.327 134.416 239.187C134.816 240.047 135.376 240.707 136.096 241.167C136.836 241.607 137.716 241.827 138.736 241.827C139.836 241.827 140.726 241.617 141.406 241.197C142.106 240.777 142.666 240.207 143.086 239.487L144.976 240.597C144.596 241.277 144.106 241.867 143.506 242.367C142.926 242.867 142.236 243.257 141.436 243.537C140.656 243.797 139.776 243.927 138.796 243.927ZM156.051 228.327C157.091 228.327 158.001 228.487 158.781 228.807C159.581 229.127 160.271 229.587 160.851 230.187C161.431 230.787 161.901 231.497 162.261 232.317L159.981 233.397C159.661 232.437 159.171 231.707 158.511 231.207C157.871 230.687 157.031 230.427 155.991 230.427C154.991 230.427 154.131 230.657 153.411 231.117C152.691 231.557 152.141 232.207 151.761 233.067C151.381 233.907 151.191 234.927 151.191 236.127C151.191 237.307 151.381 238.327 151.761 239.187C152.141 240.047 152.691 240.707 153.411 241.167C154.131 241.607 154.991 241.827 155.991 241.827C156.771 241.827 157.441 241.707 158.001 241.467C158.581 241.227 159.051 240.877 159.411 240.417C159.791 239.957 160.051 239.397 160.191 238.737L162.411 239.517C162.071 240.437 161.601 241.227 161.001 241.887C160.421 242.547 159.711 243.057 158.871 243.417C158.051 243.757 157.111 243.927 156.051 243.927C154.651 243.927 153.401 243.617 152.301 242.997C151.201 242.377 150.341 241.487 149.721 240.327C149.101 239.147 148.791 237.747 148.791 236.127C148.791 234.507 149.101 233.117 149.721 231.957C150.341 230.777 151.201 229.877 152.301 229.257C153.401 228.637 154.651 228.327 156.051 228.327ZM166.628 243.627V221.727H169.028V230.877C169.548 229.977 170.238 229.327 171.098 228.927C171.958 228.527 172.898 228.327 173.918 228.327C174.998 228.327 175.978 228.537 176.858 228.957C177.738 229.357 178.438 229.977 178.958 230.817C179.498 231.657 179.768 232.727 179.768 234.027V243.627H177.368V234.867C177.368 233.207 177.008 232.057 176.288 231.417C175.588 230.757 174.718 230.427 173.678 230.427C172.958 230.427 172.238 230.597 171.518 230.937C170.798 231.277 170.198 231.837 169.718 232.617C169.258 233.377 169.028 234.397 169.028 235.677V243.627H166.628Z" fill="#F6DBA8"/>
</svg>
