<svg width="190" height="57" viewBox="0 0 190 57" fill="none" xmlns="http://www.w3.org/2000/svg">
<path fill-rule="evenodd" clip-rule="evenodd" d="M117.867 44.5769C106.867 52.6818 90.8667 57 77.0667 57C57.7333 57 40.4 49.8916 27.2 38.0664C26.2 37.1364 27.0667 35.8741 28.3333 36.6049C42.5333 44.8427 60.0667 49.7587 78.2 49.7587C90.4 49.7587 103.867 47.2343 116.267 41.986C118.133 41.2552 119.667 43.2483 117.867 44.5769Z" fill="#F5DAA6"/>
<path fill-rule="evenodd" clip-rule="evenodd" d="M122.467 39.3286C121.067 37.5349 113.133 38.465 109.6 38.9301C108.533 39.0629 108.333 38.1329 109.333 37.4685C115.667 33.0175 126 34.3461 127.2 35.8077C128.4 37.2692 126.867 47.6329 120.933 52.5489C120 53.2797 119.133 52.8811 119.533 51.8846C120.867 48.5629 123.867 41.1888 122.467 39.3286Z" fill="#F5DAA6"/>
<path fill-rule="evenodd" clip-rule="evenodd" d="M109.8 6.24475V1.92657C109.8 1.26223 110.267 0.863628 110.867 0.863628H130.2C130.8 0.863628 131.333 1.32867 131.333 1.92657V5.58041C131.333 6.17832 130.8 6.97552 129.867 8.30419L119.867 22.521C123.6 22.4545 127.533 22.986 130.867 24.8461C131.6 25.2447 131.8 25.9091 131.867 26.507V31.0909C131.867 31.7552 131.2 32.486 130.467 32.0874C124.533 28.965 116.6 28.6329 110.067 32.1538C109.4 32.486 108.667 31.8217 108.667 31.1573V26.7727C108.667 26.1084 108.667 24.9126 109.4 23.8496L121 7.30769H110.933C110.333 7.30769 109.8 6.84265 109.8 6.24475ZM39.3333 33.0175H33.4667C32.9333 32.951 32.4667 32.5524 32.4 32.021V1.99301C32.4 1.3951 32.9333 0.930066 33.5333 0.930066H39C39.6 0.930066 40 1.3951 40.0667 1.92657V5.84614H40.2C41.6 2.05943 44.3333 0.26573 47.9333 0.26573C51.6 0.26573 53.9333 2.05943 55.5333 5.84614C56.9333 2.05943 60.2 0.26573 63.6667 0.26573C66.1333 0.26573 68.8 1.26223 70.4667 3.58741C72.3333 6.11188 71.9333 9.76574 71.9333 13.021V32.021C71.9333 32.6189 71.4 33.0839 70.8 33.0839H65C64.4 33.0175 63.9333 32.5524 63.9333 32.021V16.0769C63.9333 14.8147 64.0667 11.6259 63.8 10.4301C63.3333 8.43705 62.0667 7.83915 60.3333 7.83915C58.9333 7.83915 57.4 8.76923 56.8 10.2972C56.2 11.8252 56.2667 14.3496 56.2667 16.0769V32.021C56.2667 32.6189 55.7333 33.0839 55.1333 33.0839H49.2667C48.6667 33.0175 48.2 32.5524 48.2 32.021V16.0769C48.2 12.7552 48.7333 7.77271 44.6 7.77271C40.4 7.77271 40.5333 12.5559 40.5333 16.0769V32.021C40.4667 32.5524 40 33.0175 39.3333 33.0175ZM148 0.26573C156.733 0.26573 161.467 7.70629 161.467 17.2063C161.467 26.3741 156.267 33.6818 148 33.6818C139.467 33.6818 134.8 26.2413 134.8 16.9406C134.733 7.57342 139.467 0.26573 148 0.26573ZM148 6.44404C143.667 6.44404 143.4 12.3566 143.4 16.0105C143.4 19.6643 143.333 27.5035 147.933 27.5035C152.467 27.5035 152.733 21.1923 152.733 17.3392C152.733 14.8147 152.6 11.7587 151.867 9.36714C151.2 7.24126 149.867 6.44404 148 6.44404ZM172.733 33.0175H166.867C166.267 32.951 165.8 32.486 165.8 31.9545V1.86013C165.867 1.32866 166.333 0.863628 166.933 0.863628H172.4C172.933 0.863628 173.333 1.26224 173.467 1.72728V6.31119H173.6C175.267 2.19231 177.533 0.26573 181.6 0.26573C184.2 0.26573 186.8 1.19579 188.467 3.7867C190 6.17831 190 10.2308 190 13.1538V32.0874C189.933 32.6189 189.467 33.0175 188.867 33.0175H183C182.467 32.951 182 32.5524 181.933 32.0874V15.7447C181.933 12.4231 182.333 7.63986 178.267 7.63986C176.867 7.63986 175.533 8.56993 174.867 10.0315C174.067 11.8916 173.933 13.6853 173.933 15.7447V31.9545C173.867 32.5524 173.333 33.0175 172.733 33.0175ZM94.4 18.6678C94.4 20.9266 94.4667 22.8531 93.3333 24.9126C92.4 26.5734 90.9333 27.5699 89.2667 27.5699C87 27.5699 85.6667 25.8427 85.6667 23.3182C85.6667 18.3357 90.1333 17.4056 94.4 17.4056V18.6678ZM100.333 32.951C99.9333 33.2832 99.4 33.3496 98.9333 33.0839C97 31.4895 96.6 30.6923 95.5333 29.1643C92.3333 32.4196 90 33.4161 85.8667 33.4161C80.9333 33.4161 77.0667 30.3601 77.0667 24.3147C77.0667 19.5315 79.6667 16.3426 83.3333 14.7482C86.5333 13.3531 91 13.0874 94.4 12.6888V11.958C94.4 10.5629 94.5333 8.9021 93.6667 7.7063C92.9333 6.64336 91.6 6.17831 90.4 6.17831C88.1333 6.17831 86.1333 7.3077 85.6667 9.6993C85.5333 10.2308 85.2 10.7622 84.6667 10.7622L79 10.1643C78.5333 10.0315 78 9.6993 78.1333 8.96853C79.4667 2.05944 85.6667 0 91.2667 0C94.1333 0 97.8667 0.730765 100.133 2.92307C103 5.58041 102.733 9.16783 102.733 13.021V22.1224C102.733 24.8461 103.867 26.042 104.933 27.5699C105.333 28.1014 105.4 28.7657 104.933 29.0979C103.667 30.0944 101.533 31.9545 100.333 32.951ZM17.4 18.6678C17.4 20.9266 17.4667 22.8531 16.3333 24.9126C15.4 26.5734 13.9333 27.5699 12.2667 27.5699C10 27.5699 8.66667 25.8427 8.66667 23.3182C8.66667 18.3357 13.1333 17.4056 17.4 17.4056V18.6678ZM23.2667 32.951C22.8667 33.2832 22.3333 33.3496 21.8667 33.0839C19.9333 31.4895 19.5333 30.6923 18.4667 29.1643C15.2667 32.4196 12.9333 33.4161 8.8 33.4161C3.86666 33.4161 0 30.3601 0 24.3147C0 19.5315 2.6 16.3426 6.26666 14.7482C9.46666 13.3531 13.9333 13.0874 17.3333 12.6888V11.958C17.3333 10.5629 17.4667 8.9021 16.6 7.7063C15.8667 6.64336 14.5333 6.17831 13.3333 6.17831C11.0667 6.17831 9.06666 7.3077 8.6 9.6993C8.46666 10.2308 8.13333 10.7622 7.6 10.7622L1.93333 10.1643C1.46666 10.0315 0.933337 9.6993 1.06667 8.96853C2.4 2.05944 8.6 0 14.2 0C17.0667 0 20.8 0.730765 23.0667 2.92307C25.9333 5.58041 25.6667 9.16783 25.6667 13.021V22.1224C25.6667 24.8461 26.8 26.042 27.8667 27.5699C28.2667 28.1014 28.3333 28.7657 27.8667 29.0979C26.6 30.0944 24.4667 31.9545 23.2667 32.951Z" fill="#F5DAA6"/>
</svg>
