<svg width="630" height="301" viewBox="0 0 630 301" fill="none" xmlns="http://www.w3.org/2000/svg">
<rect x="1" y="1.60864" width="628" height="298" fill="#05060B" stroke="#F6DBA8" stroke-width="2"/>
<path d="M59.02 208.175H56.47L54.37 202.685H45.4L43.3 208.175H40.78L48.49 188.375H51.34L59.02 208.175ZM46.27 200.435H53.5L49.87 190.685L46.27 200.435ZM62.5947 208.175V193.175H64.5447L64.8747 195.635C65.2947 194.715 65.9047 194.025 66.7047 193.565C67.5247 193.105 68.5147 192.875 69.6747 192.875C69.9347 192.875 70.2147 192.895 70.5147 192.935C70.8347 192.975 71.1047 193.055 71.3247 193.175L70.9047 195.365C70.6847 195.285 70.4447 195.225 70.1847 195.185C69.9247 195.145 69.5547 195.125 69.0747 195.125C68.4547 195.125 67.8247 195.305 67.1847 195.665C66.5647 196.025 66.0447 196.575 65.6247 197.315C65.2047 198.035 64.9947 198.955 64.9947 200.075V208.175H62.5947ZM77.4726 188.915V204.035C77.4726 204.775 77.6826 205.325 78.1026 205.685C78.5226 206.045 79.0626 206.225 79.7226 206.225C80.3026 206.225 80.8026 206.125 81.2226 205.925C81.6426 205.725 82.0226 205.455 82.3626 205.115L83.2026 207.125C82.7426 207.545 82.1926 207.875 81.5526 208.115C80.9326 208.355 80.2126 208.475 79.3926 208.475C78.6326 208.475 77.9226 208.345 77.2626 208.085C76.6026 207.805 76.0726 207.375 75.6726 206.795C75.2926 206.195 75.0926 205.415 75.0726 204.455V189.575L77.4726 188.915ZM82.9326 193.175V195.245H72.0726V193.175H82.9326ZM87.7009 190.295C87.1609 190.295 86.7209 190.135 86.3809 189.815C86.0609 189.475 85.9009 189.035 85.9009 188.495C85.9009 187.955 86.0609 187.525 86.3809 187.205C86.7209 186.865 87.1609 186.695 87.7009 186.695C88.2409 186.695 88.6709 186.865 88.9909 187.205C89.3309 187.525 89.5009 187.955 89.5009 188.495C89.5009 189.035 89.3309 189.475 88.9909 189.815C88.6709 190.135 88.2409 190.295 87.7009 190.295ZM88.9009 193.175V208.175H86.5009V193.175H88.9009ZM100.56 186.125C101.08 186.125 101.57 186.185 102.03 186.305C102.49 186.425 102.85 186.595 103.11 186.815L102.48 188.765C102.24 188.605 101.98 188.495 101.7 188.435C101.42 188.355 101.11 188.315 100.77 188.315C99.9097 188.315 99.2397 188.525 98.7597 188.945C98.2797 189.345 98.0397 189.995 98.0397 190.895V193.175V193.955V208.175H95.6397V190.655C95.6397 189.995 95.7397 189.385 95.9397 188.825C96.1397 188.265 96.4397 187.785 96.8397 187.385C97.2597 186.985 97.7797 186.675 98.3997 186.455C99.0197 186.235 99.7397 186.125 100.56 186.125ZM103.05 193.175V195.245H92.6397V193.175H103.05ZM107.46 190.295C106.92 190.295 106.48 190.135 106.14 189.815C105.82 189.475 105.66 189.035 105.66 188.495C105.66 187.955 105.82 187.525 106.14 187.205C106.48 186.865 106.92 186.695 107.46 186.695C108 186.695 108.43 186.865 108.75 187.205C109.09 187.525 109.26 187.955 109.26 188.495C109.26 189.035 109.09 189.475 108.75 189.815C108.43 190.135 108 190.295 107.46 190.295ZM108.66 193.175V208.175H106.26V193.175H108.66ZM120.455 192.875C121.495 192.875 122.405 193.035 123.185 193.355C123.985 193.675 124.675 194.135 125.255 194.735C125.835 195.335 126.305 196.045 126.665 196.865L124.385 197.945C124.065 196.985 123.575 196.255 122.915 195.755C122.275 195.235 121.435 194.975 120.395 194.975C119.395 194.975 118.535 195.205 117.815 195.665C117.095 196.105 116.545 196.755 116.165 197.615C115.785 198.455 115.595 199.475 115.595 200.675C115.595 201.855 115.785 202.875 116.165 203.735C116.545 204.595 117.095 205.255 117.815 205.715C118.535 206.155 119.395 206.375 120.395 206.375C121.175 206.375 121.845 206.255 122.405 206.015C122.985 205.775 123.455 205.425 123.815 204.965C124.195 204.505 124.455 203.945 124.595 203.285L126.815 204.065C126.475 204.985 126.005 205.775 125.405 206.435C124.825 207.095 124.115 207.605 123.275 207.965C122.455 208.305 121.515 208.475 120.455 208.475C119.055 208.475 117.805 208.165 116.705 207.545C115.605 206.925 114.745 206.035 114.125 204.875C113.505 203.695 113.195 202.295 113.195 200.675C113.195 199.055 113.505 197.665 114.125 196.505C114.745 195.325 115.605 194.425 116.705 193.805C117.805 193.185 119.055 192.875 120.455 192.875ZM132.232 190.295C131.692 190.295 131.252 190.135 130.912 189.815C130.592 189.475 130.432 189.035 130.432 188.495C130.432 187.955 130.592 187.525 130.912 187.205C131.252 186.865 131.692 186.695 132.232 186.695C132.772 186.695 133.202 186.865 133.522 187.205C133.862 187.525 134.032 187.955 134.032 188.495C134.032 189.035 133.862 189.475 133.522 189.815C133.202 190.135 132.772 190.295 132.232 190.295ZM133.432 193.175V208.175H131.032V193.175H133.432ZM147.761 198.485C147.761 197.365 147.461 196.505 146.861 195.905C146.261 195.285 145.411 194.975 144.311 194.975C143.271 194.975 142.391 195.205 141.671 195.665C140.951 196.105 140.421 196.825 140.081 197.825L138.131 196.625C138.531 195.505 139.271 194.605 140.351 193.925C141.431 193.225 142.771 192.875 144.371 192.875C145.451 192.875 146.431 193.065 147.311 193.445C148.191 193.805 148.881 194.365 149.381 195.125C149.901 195.865 150.161 196.825 150.161 198.005V205.265C150.161 205.985 150.541 206.345 151.301 206.345C151.681 206.345 152.051 206.295 152.411 206.195L152.291 208.085C151.891 208.285 151.371 208.385 150.731 208.385C150.151 208.385 149.631 208.275 149.171 208.055C148.711 207.835 148.351 207.505 148.091 207.065C147.831 206.605 147.701 206.035 147.701 205.355V205.055L148.301 205.145C148.061 205.925 147.651 206.565 147.071 207.065C146.491 207.545 145.841 207.905 145.121 208.145C144.401 208.365 143.691 208.475 142.991 208.475C142.111 208.475 141.291 208.325 140.531 208.025C139.771 207.725 139.161 207.275 138.701 206.675C138.261 206.055 138.041 205.295 138.041 204.395C138.041 203.275 138.411 202.355 139.151 201.635C139.911 200.895 140.961 200.395 142.301 200.135L148.241 198.965V200.945L143.411 201.935C142.431 202.135 141.701 202.415 141.221 202.775C140.741 203.135 140.501 203.635 140.501 204.275C140.501 204.895 140.741 205.405 141.221 205.805C141.721 206.185 142.421 206.375 143.321 206.375C143.901 206.375 144.451 206.305 144.971 206.165C145.511 206.005 145.991 205.775 146.411 205.475C146.831 205.155 147.161 204.765 147.401 204.305C147.641 203.825 147.761 203.265 147.761 202.625V198.485ZM158.273 186.275V204.365C158.273 205.125 158.413 205.655 158.693 205.955C158.973 206.235 159.423 206.375 160.043 206.375C160.443 206.375 160.773 206.345 161.033 206.285C161.293 206.225 161.643 206.115 162.083 205.955L161.693 208.055C161.373 208.195 161.023 208.295 160.643 208.355C160.263 208.435 159.873 208.475 159.473 208.475C158.253 208.475 157.343 208.145 156.743 207.485C156.163 206.825 155.873 205.815 155.873 204.455V186.275H158.273ZM175.533 190.295C174.993 190.295 174.553 190.135 174.213 189.815C173.893 189.475 173.733 189.035 173.733 188.495C173.733 187.955 173.893 187.525 174.213 187.205C174.553 186.865 174.993 186.695 175.533 186.695C176.073 186.695 176.503 186.865 176.823 187.205C177.163 187.525 177.333 187.955 177.333 188.495C177.333 189.035 177.163 189.475 176.823 189.815C176.503 190.135 176.073 190.295 175.533 190.295ZM176.733 193.175V208.175H174.333V193.175H176.733ZM182.302 208.175V193.175H184.402L184.612 196.535L184.222 196.205C184.542 195.405 184.972 194.765 185.512 194.285C186.052 193.785 186.672 193.425 187.372 193.205C188.092 192.985 188.832 192.875 189.592 192.875C190.672 192.875 191.652 193.085 192.532 193.505C193.412 193.905 194.112 194.525 194.632 195.365C195.172 196.205 195.442 197.275 195.442 198.575V208.175H193.042V199.415C193.042 197.755 192.682 196.605 191.962 195.965C191.262 195.305 190.392 194.975 189.352 194.975C188.632 194.975 187.912 195.145 187.192 195.485C186.472 195.825 185.872 196.375 185.392 197.135C184.932 197.895 184.702 198.915 184.702 200.195V208.175H182.302ZM204.211 188.915V204.035C204.211 204.775 204.421 205.325 204.841 205.685C205.261 206.045 205.801 206.225 206.461 206.225C207.041 206.225 207.541 206.125 207.961 205.925C208.381 205.725 208.761 205.455 209.101 205.115L209.941 207.125C209.481 207.545 208.931 207.875 208.291 208.115C207.671 208.355 206.951 208.475 206.131 208.475C205.371 208.475 204.661 208.345 204.001 208.085C203.341 207.805 202.811 207.375 202.411 206.795C202.031 206.195 201.831 205.415 201.811 204.455V189.575L204.211 188.915ZM209.671 193.175V195.245H198.811V193.175H209.671ZM219.509 208.475C218.089 208.475 216.819 208.165 215.699 207.545C214.599 206.925 213.739 206.035 213.119 204.875C212.499 203.695 212.189 202.295 212.189 200.675C212.189 199.055 212.499 197.665 213.119 196.505C213.739 195.325 214.589 194.425 215.669 193.805C216.749 193.185 217.979 192.875 219.359 192.875C220.759 192.875 221.949 193.175 222.929 193.775C223.929 194.375 224.689 195.195 225.209 196.235C225.729 197.255 225.989 198.405 225.989 199.685C225.989 200.025 225.979 200.335 225.959 200.615C225.939 200.895 225.909 201.145 225.869 201.365H213.749V199.235H224.819L223.589 199.475C223.589 198.035 223.189 196.925 222.389 196.145C221.609 195.365 220.579 194.975 219.299 194.975C218.319 194.975 217.469 195.205 216.749 195.665C216.049 196.105 215.499 196.755 215.099 197.615C214.719 198.455 214.529 199.475 214.529 200.675C214.529 201.855 214.729 202.875 215.129 203.735C215.529 204.595 216.089 205.255 216.809 205.715C217.549 206.155 218.429 206.375 219.449 206.375C220.549 206.375 221.439 206.165 222.119 205.745C222.819 205.325 223.379 204.755 223.799 204.035L225.689 205.145C225.309 205.825 224.819 206.415 224.219 206.915C223.639 207.415 222.949 207.805 222.149 208.085C221.369 208.345 220.489 208.475 219.509 208.475ZM232.834 186.275V204.365C232.834 205.125 232.974 205.655 233.254 205.955C233.534 206.235 233.984 206.375 234.604 206.375C235.004 206.375 235.334 206.345 235.594 206.285C235.854 206.225 236.204 206.115 236.644 205.955L236.254 208.055C235.934 208.195 235.584 208.295 235.204 208.355C234.824 208.435 234.434 208.475 234.034 208.475C232.814 208.475 231.904 208.145 231.304 207.485C230.724 206.825 230.434 205.815 230.434 204.455V186.275H232.834ZM242.004 186.275V204.365C242.004 205.125 242.144 205.655 242.424 205.955C242.704 206.235 243.154 206.375 243.774 206.375C244.174 206.375 244.504 206.345 244.764 206.285C245.024 206.225 245.374 206.115 245.814 205.955L245.424 208.055C245.104 208.195 244.754 208.295 244.374 208.355C243.994 208.435 243.604 208.475 243.204 208.475C241.984 208.475 241.074 208.145 240.474 207.485C239.894 206.825 239.604 205.815 239.604 204.455V186.275H242.004ZM250.094 190.295C249.554 190.295 249.114 190.135 248.774 189.815C248.454 189.475 248.294 189.035 248.294 188.495C248.294 187.955 248.454 187.525 248.774 187.205C249.114 186.865 249.554 186.695 250.094 186.695C250.634 186.695 251.064 186.865 251.384 187.205C251.724 187.525 251.894 187.955 251.894 188.495C251.894 189.035 251.724 189.475 251.384 189.815C251.064 190.135 250.634 190.295 250.094 190.295ZM251.294 193.175V208.175H248.894V193.175H251.294ZM269.492 190.415L270.032 192.545C270.012 192.545 269.982 192.545 269.942 192.545C269.902 192.545 269.862 192.545 269.822 192.545C268.842 192.545 268.082 192.745 267.542 193.145C267.022 193.525 266.762 194.145 266.762 195.005L265.292 194.255C265.292 193.475 265.472 192.795 265.832 192.215C266.192 191.635 266.682 191.195 267.302 190.895C267.922 190.575 268.602 190.415 269.342 190.415C269.362 190.415 269.382 190.415 269.402 190.415C269.442 190.415 269.472 190.415 269.492 190.415ZM264.932 206.255C266.352 206.255 267.462 206.585 268.262 207.245C269.062 207.885 269.462 208.745 269.462 209.825C269.462 210.805 269.132 211.655 268.472 212.375C267.832 213.095 266.962 213.645 265.862 214.025C264.782 214.425 263.562 214.625 262.202 214.625C259.842 214.625 258.072 214.225 256.892 213.425C255.732 212.625 255.152 211.665 255.152 210.545C255.152 209.745 255.412 209.025 255.932 208.385C256.472 207.765 257.372 207.415 258.632 207.335L258.422 207.785C257.742 207.605 257.162 207.305 256.682 206.885C256.222 206.445 255.992 205.815 255.992 204.995C255.992 204.175 256.292 203.475 256.892 202.895C257.512 202.295 258.422 201.925 259.622 201.785L261.212 202.595H260.912C259.932 202.695 259.232 202.945 258.812 203.345C258.412 203.725 258.212 204.145 258.212 204.605C258.212 205.165 258.412 205.585 258.812 205.865C259.232 206.125 259.812 206.255 260.552 206.255H264.932ZM262.172 212.615C263.332 212.615 264.282 212.495 265.022 212.255C265.782 212.015 266.342 211.705 266.702 211.325C267.062 210.945 267.242 210.535 267.242 210.095C267.242 209.555 267.022 209.125 266.582 208.805C266.162 208.485 265.392 208.325 264.272 208.325H259.652C259.012 208.325 258.472 208.485 258.032 208.805C257.592 209.145 257.372 209.605 257.372 210.185C257.372 210.925 257.792 211.515 258.632 211.955C259.492 212.395 260.672 212.615 262.172 212.615ZM261.962 192.875C263.162 192.875 264.222 193.095 265.142 193.535C266.082 193.955 266.812 194.545 267.332 195.305C267.852 196.065 268.112 196.945 268.112 197.945C268.112 198.925 267.852 199.805 267.332 200.585C266.812 201.345 266.082 201.945 265.142 202.385C264.222 202.805 263.162 203.015 261.962 203.015C259.982 203.015 258.462 202.545 257.402 201.605C256.342 200.645 255.812 199.425 255.812 197.945C255.812 196.945 256.072 196.065 256.592 195.305C257.132 194.545 257.862 193.955 258.782 193.535C259.702 193.095 260.762 192.875 261.962 192.875ZM261.962 194.825C260.922 194.825 260.052 195.115 259.352 195.695C258.652 196.255 258.302 197.005 258.302 197.945C258.302 198.865 258.652 199.615 259.352 200.195C260.052 200.775 260.922 201.065 261.962 201.065C263.002 201.065 263.872 200.775 264.572 200.195C265.272 199.615 265.622 198.865 265.622 197.945C265.622 197.005 265.272 196.255 264.572 195.695C263.872 195.115 263.002 194.825 261.962 194.825ZM279.099 208.475C277.679 208.475 276.409 208.165 275.289 207.545C274.189 206.925 273.329 206.035 272.709 204.875C272.089 203.695 271.779 202.295 271.779 200.675C271.779 199.055 272.089 197.665 272.709 196.505C273.329 195.325 274.179 194.425 275.259 193.805C276.339 193.185 277.569 192.875 278.949 192.875C280.349 192.875 281.539 193.175 282.519 193.775C283.519 194.375 284.279 195.195 284.799 196.235C285.319 197.255 285.579 198.405 285.579 199.685C285.579 200.025 285.569 200.335 285.549 200.615C285.529 200.895 285.499 201.145 285.459 201.365H273.339V199.235H284.409L283.179 199.475C283.179 198.035 282.779 196.925 281.979 196.145C281.199 195.365 280.169 194.975 278.889 194.975C277.909 194.975 277.059 195.205 276.339 195.665C275.639 196.105 275.089 196.755 274.689 197.615C274.309 198.455 274.119 199.475 274.119 200.675C274.119 201.855 274.319 202.875 274.719 203.735C275.119 204.595 275.679 205.255 276.399 205.715C277.139 206.155 278.019 206.375 279.039 206.375C280.139 206.375 281.029 206.165 281.709 205.745C282.409 205.325 282.969 204.755 283.389 204.035L285.279 205.145C284.899 205.825 284.409 206.415 283.809 206.915C283.229 207.415 282.539 207.805 281.739 208.085C280.959 208.345 280.079 208.475 279.099 208.475ZM290.144 208.175V193.175H292.244L292.454 196.535L292.064 196.205C292.384 195.405 292.814 194.765 293.354 194.285C293.894 193.785 294.514 193.425 295.214 193.205C295.934 192.985 296.674 192.875 297.434 192.875C298.514 192.875 299.494 193.085 300.374 193.505C301.254 193.905 301.954 194.525 302.474 195.365C303.014 196.205 303.284 197.275 303.284 198.575V208.175H300.884V199.415C300.884 197.755 300.524 196.605 299.804 195.965C299.104 195.305 298.234 194.975 297.194 194.975C296.474 194.975 295.754 195.145 295.034 195.485C294.314 195.825 293.714 196.375 293.234 197.135C292.774 197.895 292.544 198.915 292.544 200.195V208.175H290.144ZM314.928 192.875C315.968 192.875 316.878 193.035 317.658 193.355C318.458 193.675 319.148 194.135 319.728 194.735C320.308 195.335 320.778 196.045 321.138 196.865L318.858 197.945C318.538 196.985 318.048 196.255 317.388 195.755C316.748 195.235 315.908 194.975 314.868 194.975C313.868 194.975 313.008 195.205 312.288 195.665C311.568 196.105 311.018 196.755 310.638 197.615C310.258 198.455 310.068 199.475 310.068 200.675C310.068 201.855 310.258 202.875 310.638 203.735C311.018 204.595 311.568 205.255 312.288 205.715C313.008 206.155 313.868 206.375 314.868 206.375C315.648 206.375 316.318 206.255 316.878 206.015C317.458 205.775 317.928 205.425 318.288 204.965C318.668 204.505 318.928 203.945 319.068 203.285L321.288 204.065C320.948 204.985 320.478 205.775 319.878 206.435C319.298 207.095 318.588 207.605 317.748 207.965C316.928 208.305 315.988 208.475 314.928 208.475C313.528 208.475 312.278 208.165 311.178 207.545C310.078 206.925 309.218 206.035 308.598 204.875C307.978 203.695 307.668 202.295 307.668 200.675C307.668 199.055 307.978 197.665 308.598 196.505C309.218 195.325 310.078 194.425 311.178 193.805C312.278 193.185 313.528 192.875 314.928 192.875ZM331.775 208.475C330.355 208.475 329.085 208.165 327.965 207.545C326.865 206.925 326.005 206.035 325.385 204.875C324.765 203.695 324.455 202.295 324.455 200.675C324.455 199.055 324.765 197.665 325.385 196.505C326.005 195.325 326.855 194.425 327.935 193.805C329.015 193.185 330.245 192.875 331.625 192.875C333.025 192.875 334.215 193.175 335.195 193.775C336.195 194.375 336.955 195.195 337.475 196.235C337.995 197.255 338.255 198.405 338.255 199.685C338.255 200.025 338.245 200.335 338.225 200.615C338.205 200.895 338.175 201.145 338.135 201.365H326.015V199.235H337.085L335.855 199.475C335.855 198.035 335.455 196.925 334.655 196.145C333.875 195.365 332.845 194.975 331.565 194.975C330.585 194.975 329.735 195.205 329.015 195.665C328.315 196.105 327.765 196.755 327.365 197.615C326.985 198.455 326.795 199.475 326.795 200.675C326.795 201.855 326.995 202.875 327.395 203.735C327.795 204.595 328.355 205.255 329.075 205.715C329.815 206.155 330.695 206.375 331.715 206.375C332.815 206.375 333.705 206.165 334.385 205.745C335.085 205.325 335.645 204.755 336.065 204.035L337.955 205.145C337.575 205.825 337.085 206.415 336.485 206.915C335.905 207.415 335.215 207.805 334.415 208.085C333.635 208.345 332.755 208.475 331.775 208.475ZM47.74 250.475C46.42 250.475 45.29 250.245 44.35 249.785C43.41 249.325 42.69 248.695 42.19 247.895C41.69 247.095 41.44 246.175 41.44 245.135C41.44 244.495 41.52 243.895 41.68 243.335C41.86 242.755 42.14 242.205 42.52 241.685C42.9 241.165 43.41 240.675 44.05 240.215C44.71 239.755 45.52 239.325 46.48 238.925L47.74 238.295C48.5 237.875 49.13 237.485 49.63 237.125C50.13 236.745 50.5 236.335 50.74 235.895C51 235.455 51.13 234.935 51.13 234.335C51.13 233.635 50.91 233.095 50.47 232.715C50.05 232.315 49.47 232.115 48.73 232.115C47.87 232.115 47.23 232.355 46.81 232.835C46.41 233.295 46.21 233.835 46.21 234.455C46.21 234.835 46.26 235.205 46.36 235.565C46.46 235.905 46.67 236.335 46.99 236.855C47.33 237.375 47.83 238.065 48.49 238.925C49.15 239.785 50.04 240.915 51.16 242.315C52.3 243.715 53.24 244.845 53.98 245.705C54.72 246.545 55.35 247.185 55.87 247.625C56.39 248.045 56.87 248.325 57.31 248.465C57.77 248.605 58.27 248.675 58.81 248.675L58.21 250.475C57.63 250.475 57.08 250.405 56.56 250.265C56.06 250.125 55.5 249.825 54.88 249.365C54.28 248.905 53.55 248.215 52.69 247.295C51.85 246.375 50.8 245.145 49.54 243.605C48.46 242.265 47.56 241.135 46.84 240.215C46.12 239.295 45.55 238.515 45.13 237.875C44.71 237.235 44.41 236.655 44.23 236.135C44.05 235.595 43.96 235.045 43.96 234.485C43.96 233.765 44.13 233.065 44.47 232.385C44.83 231.705 45.37 231.155 46.09 230.735C46.81 230.295 47.74 230.075 48.88 230.075C49.74 230.075 50.49 230.235 51.13 230.555C51.77 230.875 52.27 231.335 52.63 231.935C53.01 232.535 53.2 233.245 53.2 234.065C53.2 234.765 53.08 235.435 52.84 236.075C52.62 236.695 52.19 237.315 51.55 237.935C50.93 238.535 50 239.165 48.76 239.825L47.74 240.215C46.7 240.695 45.89 241.165 45.31 241.625C44.73 242.065 44.32 242.545 44.08 243.065C43.84 243.585 43.72 244.205 43.72 244.925C43.72 245.665 43.91 246.305 44.29 246.845C44.67 247.385 45.18 247.805 45.82 248.105C46.46 248.385 47.18 248.525 47.98 248.525C49.08 248.525 50.01 248.325 50.77 247.925C51.53 247.525 52.23 246.955 52.87 246.215L53.26 245.855C53.78 245.035 54.18 244.105 54.46 243.065C54.76 242.025 54.86 240.865 54.76 239.585L56.8 239.765C56.88 241.045 56.74 242.305 56.38 243.545C56.04 244.785 55.49 245.905 54.73 246.905L54.28 247.535C53.52 248.435 52.6 249.155 51.52 249.695C50.44 250.215 49.18 250.475 47.74 250.475ZM71.706 250.175V235.175H73.806L73.956 237.515C74.496 236.595 75.196 235.925 76.056 235.505C76.936 235.085 77.836 234.875 78.756 234.875C79.816 234.875 80.816 235.115 81.756 235.595C82.696 236.075 83.416 236.815 83.916 237.815C84.236 237.135 84.686 236.585 85.266 236.165C85.846 235.725 86.476 235.405 87.156 235.205C87.856 234.985 88.516 234.875 89.136 234.875C90.096 234.875 91.006 235.075 91.866 235.475C92.746 235.875 93.466 236.495 94.026 237.335C94.586 238.175 94.866 239.255 94.866 240.575V250.175H92.466V240.815C92.466 239.455 92.126 238.475 91.446 237.875C90.766 237.275 89.926 236.975 88.926 236.975C88.146 236.975 87.416 237.165 86.736 237.545C86.056 237.925 85.506 238.485 85.086 239.225C84.686 239.965 84.486 240.875 84.486 241.955V250.175H82.086V240.815C82.086 239.455 81.746 238.475 81.066 237.875C80.386 237.275 79.546 236.975 78.546 236.975C77.886 236.975 77.206 237.155 76.506 237.515C75.826 237.855 75.256 238.405 74.796 239.165C74.336 239.925 74.106 240.925 74.106 242.165V250.175H71.706ZM109.06 240.485C109.06 239.365 108.76 238.505 108.16 237.905C107.56 237.285 106.71 236.975 105.61 236.975C104.57 236.975 103.69 237.205 102.97 237.665C102.25 238.105 101.72 238.825 101.38 239.825L99.4298 238.625C99.8298 237.505 100.57 236.605 101.65 235.925C102.73 235.225 104.07 234.875 105.67 234.875C106.75 234.875 107.73 235.065 108.61 235.445C109.49 235.805 110.18 236.365 110.68 237.125C111.2 237.865 111.46 238.825 111.46 240.005V247.265C111.46 247.985 111.84 248.345 112.6 248.345C112.98 248.345 113.35 248.295 113.71 248.195L113.59 250.085C113.19 250.285 112.67 250.385 112.03 250.385C111.45 250.385 110.93 250.275 110.47 250.055C110.01 249.835 109.65 249.505 109.39 249.065C109.13 248.605 109 248.035 109 247.355V247.055L109.6 247.145C109.36 247.925 108.95 248.565 108.37 249.065C107.79 249.545 107.14 249.905 106.42 250.145C105.7 250.365 104.99 250.475 104.29 250.475C103.41 250.475 102.59 250.325 101.83 250.025C101.07 249.725 100.46 249.275 99.9998 248.675C99.5598 248.055 99.3398 247.295 99.3398 246.395C99.3398 245.275 99.7098 244.355 100.45 243.635C101.21 242.895 102.26 242.395 103.6 242.135L109.54 240.965V242.945L104.71 243.935C103.73 244.135 103 244.415 102.52 244.775C102.04 245.135 101.8 245.635 101.8 246.275C101.8 246.895 102.04 247.405 102.52 247.805C103.02 248.185 103.72 248.375 104.62 248.375C105.2 248.375 105.75 248.305 106.27 248.165C106.81 248.005 107.29 247.775 107.71 247.475C108.13 247.155 108.46 246.765 108.7 246.305C108.94 245.825 109.06 245.265 109.06 244.625V240.485ZM123.502 234.875C124.542 234.875 125.452 235.035 126.232 235.355C127.032 235.675 127.722 236.135 128.302 236.735C128.882 237.335 129.352 238.045 129.712 238.865L127.432 239.945C127.112 238.985 126.622 238.255 125.962 237.755C125.322 237.235 124.482 236.975 123.442 236.975C122.442 236.975 121.582 237.205 120.862 237.665C120.142 238.105 119.592 238.755 119.212 239.615C118.832 240.455 118.642 241.475 118.642 242.675C118.642 243.855 118.832 244.875 119.212 245.735C119.592 246.595 120.142 247.255 120.862 247.715C121.582 248.155 122.442 248.375 123.442 248.375C124.222 248.375 124.892 248.255 125.452 248.015C126.032 247.775 126.502 247.425 126.862 246.965C127.242 246.505 127.502 245.945 127.642 245.285L129.862 246.065C129.522 246.985 129.052 247.775 128.452 248.435C127.872 249.095 127.162 249.605 126.322 249.965C125.502 250.305 124.562 250.475 123.502 250.475C122.102 250.475 120.852 250.165 119.752 249.545C118.652 248.925 117.792 248.035 117.172 246.875C116.552 245.695 116.242 244.295 116.242 242.675C116.242 241.055 116.552 239.665 117.172 238.505C117.792 237.325 118.652 236.425 119.752 235.805C120.852 235.185 122.102 234.875 123.502 234.875ZM134.079 250.175V228.275H136.479V237.425C136.999 236.525 137.689 235.875 138.549 235.475C139.409 235.075 140.349 234.875 141.369 234.875C142.449 234.875 143.429 235.085 144.309 235.505C145.189 235.905 145.889 236.525 146.409 237.365C146.949 238.205 147.219 239.275 147.219 240.575V250.175H144.819V241.415C144.819 239.755 144.459 238.605 143.739 237.965C143.039 237.305 142.169 236.975 141.129 236.975C140.409 236.975 139.689 237.145 138.969 237.485C138.249 237.825 137.649 238.385 137.169 239.165C136.709 239.925 136.479 240.945 136.479 242.225V250.175H134.079ZM153.853 232.295C153.313 232.295 152.873 232.135 152.533 231.815C152.213 231.475 152.053 231.035 152.053 230.495C152.053 229.955 152.213 229.525 152.533 229.205C152.873 228.865 153.313 228.695 153.853 228.695C154.393 228.695 154.823 228.865 155.143 229.205C155.483 229.525 155.653 229.955 155.653 230.495C155.653 231.035 155.483 231.475 155.143 231.815C154.823 232.135 154.393 232.295 153.853 232.295ZM155.053 235.175V250.175H152.653V235.175H155.053ZM160.622 250.175V235.175H162.722L162.932 238.535L162.542 238.205C162.862 237.405 163.292 236.765 163.832 236.285C164.372 235.785 164.992 235.425 165.692 235.205C166.412 234.985 167.152 234.875 167.912 234.875C168.992 234.875 169.972 235.085 170.852 235.505C171.732 235.905 172.432 236.525 172.952 237.365C173.492 238.205 173.762 239.275 173.762 240.575V250.175H171.362V241.415C171.362 239.755 171.002 238.605 170.282 237.965C169.582 237.305 168.712 236.975 167.672 236.975C166.952 236.975 166.232 237.145 165.512 237.485C164.792 237.825 164.192 238.375 163.712 239.135C163.252 239.895 163.022 240.915 163.022 242.195V250.175H160.622ZM185.466 250.475C184.046 250.475 182.776 250.165 181.656 249.545C180.556 248.925 179.696 248.035 179.076 246.875C178.456 245.695 178.146 244.295 178.146 242.675C178.146 241.055 178.456 239.665 179.076 238.505C179.696 237.325 180.546 236.425 181.626 235.805C182.706 235.185 183.936 234.875 185.316 234.875C186.716 234.875 187.906 235.175 188.886 235.775C189.886 236.375 190.646 237.195 191.166 238.235C191.686 239.255 191.946 240.405 191.946 241.685C191.946 242.025 191.936 242.335 191.916 242.615C191.896 242.895 191.866 243.145 191.826 243.365H179.706V241.235H190.776L189.546 241.475C189.546 240.035 189.146 238.925 188.346 238.145C187.566 237.365 186.536 236.975 185.256 236.975C184.276 236.975 183.426 237.205 182.706 237.665C182.006 238.105 181.456 238.755 181.056 239.615C180.676 240.455 180.486 241.475 180.486 242.675C180.486 243.855 180.686 244.875 181.086 245.735C181.486 246.595 182.046 247.255 182.766 247.715C183.506 248.155 184.386 248.375 185.406 248.375C186.506 248.375 187.396 248.165 188.076 247.745C188.776 247.325 189.336 246.755 189.756 246.035L191.646 247.145C191.266 247.825 190.776 248.415 190.176 248.915C189.596 249.415 188.906 249.805 188.106 250.085C187.326 250.345 186.446 250.475 185.466 250.475ZM209.015 228.275V246.365C209.015 247.125 209.155 247.655 209.435 247.955C209.715 248.235 210.165 248.375 210.785 248.375C211.185 248.375 211.515 248.345 211.775 248.285C212.035 248.225 212.385 248.115 212.825 247.955L212.435 250.055C212.115 250.195 211.765 250.295 211.385 250.355C211.005 250.435 210.615 250.475 210.215 250.475C208.995 250.475 208.085 250.145 207.485 249.485C206.905 248.825 206.615 247.815 206.615 246.455V228.275H209.015ZM222.175 250.475C220.755 250.475 219.485 250.165 218.365 249.545C217.265 248.925 216.405 248.035 215.785 246.875C215.165 245.695 214.855 244.295 214.855 242.675C214.855 241.055 215.165 239.665 215.785 238.505C216.405 237.325 217.255 236.425 218.335 235.805C219.415 235.185 220.645 234.875 222.025 234.875C223.425 234.875 224.615 235.175 225.595 235.775C226.595 236.375 227.355 237.195 227.875 238.235C228.395 239.255 228.655 240.405 228.655 241.685C228.655 242.025 228.645 242.335 228.625 242.615C228.605 242.895 228.575 243.145 228.535 243.365H216.415V241.235H227.485L226.255 241.475C226.255 240.035 225.855 238.925 225.055 238.145C224.275 237.365 223.245 236.975 221.965 236.975C220.985 236.975 220.135 237.205 219.415 237.665C218.715 238.105 218.165 238.755 217.765 239.615C217.385 240.455 217.195 241.475 217.195 242.675C217.195 243.855 217.395 244.875 217.795 245.735C218.195 246.595 218.755 247.255 219.475 247.715C220.215 248.155 221.095 248.375 222.115 248.375C223.215 248.375 224.105 248.165 224.785 247.745C225.485 247.325 226.045 246.755 226.465 246.035L228.355 247.145C227.975 247.825 227.485 248.415 226.885 248.915C226.305 249.415 225.615 249.805 224.815 250.085C224.035 250.345 223.155 250.475 222.175 250.475ZM241.98 240.485C241.98 239.365 241.68 238.505 241.08 237.905C240.48 237.285 239.63 236.975 238.53 236.975C237.49 236.975 236.61 237.205 235.89 237.665C235.17 238.105 234.64 238.825 234.3 239.825L232.35 238.625C232.75 237.505 233.49 236.605 234.57 235.925C235.65 235.225 236.99 234.875 238.59 234.875C239.67 234.875 240.65 235.065 241.53 235.445C242.41 235.805 243.1 236.365 243.6 237.125C244.12 237.865 244.38 238.825 244.38 240.005V247.265C244.38 247.985 244.76 248.345 245.52 248.345C245.9 248.345 246.27 248.295 246.63 248.195L246.51 250.085C246.11 250.285 245.59 250.385 244.95 250.385C244.37 250.385 243.85 250.275 243.39 250.055C242.93 249.835 242.57 249.505 242.31 249.065C242.05 248.605 241.92 248.035 241.92 247.355V247.055L242.52 247.145C242.28 247.925 241.87 248.565 241.29 249.065C240.71 249.545 240.06 249.905 239.34 250.145C238.62 250.365 237.91 250.475 237.21 250.475C236.33 250.475 235.51 250.325 234.75 250.025C233.99 249.725 233.38 249.275 232.92 248.675C232.48 248.055 232.26 247.295 232.26 246.395C232.26 245.275 232.63 244.355 233.37 243.635C234.13 242.895 235.18 242.395 236.52 242.135L242.46 240.965V242.945L237.63 243.935C236.65 244.135 235.92 244.415 235.44 244.775C234.96 245.135 234.72 245.635 234.72 246.275C234.72 246.895 234.96 247.405 235.44 247.805C235.94 248.185 236.64 248.375 237.54 248.375C238.12 248.375 238.67 248.305 239.19 248.165C239.73 248.005 240.21 247.775 240.63 247.475C241.05 247.155 241.38 246.765 241.62 246.305C241.86 245.825 241.98 245.265 241.98 244.625V240.485ZM250.212 250.175V235.175H252.162L252.492 237.635C252.912 236.715 253.522 236.025 254.322 235.565C255.142 235.105 256.132 234.875 257.292 234.875C257.552 234.875 257.832 234.895 258.132 234.935C258.452 234.975 258.722 235.055 258.942 235.175L258.522 237.365C258.302 237.285 258.062 237.225 257.802 237.185C257.542 237.145 257.172 237.125 256.692 237.125C256.072 237.125 255.442 237.305 254.802 237.665C254.182 238.025 253.662 238.575 253.242 239.315C252.822 240.035 252.612 240.955 252.612 242.075V250.175H250.212ZM262.458 250.175V235.175H264.558L264.768 238.535L264.378 238.205C264.698 237.405 265.128 236.765 265.668 236.285C266.208 235.785 266.828 235.425 267.528 235.205C268.248 234.985 268.988 234.875 269.748 234.875C270.828 234.875 271.808 235.085 272.688 235.505C273.568 235.905 274.268 236.525 274.788 237.365C275.328 238.205 275.598 239.275 275.598 240.575V250.175H273.198V241.415C273.198 239.755 272.838 238.605 272.118 237.965C271.418 237.305 270.548 236.975 269.508 236.975C268.788 236.975 268.068 237.145 267.348 237.485C266.628 237.825 266.028 238.375 265.548 239.135C265.088 239.895 264.858 240.915 264.858 242.195V250.175H262.458ZM282.232 232.295C281.692 232.295 281.252 232.135 280.912 231.815C280.592 231.475 280.432 231.035 280.432 230.495C280.432 229.955 280.592 229.525 280.912 229.205C281.252 228.865 281.692 228.695 282.232 228.695C282.772 228.695 283.202 228.865 283.522 229.205C283.862 229.525 284.032 229.955 284.032 230.495C284.032 231.035 283.862 231.475 283.522 231.815C283.202 232.135 282.772 232.295 282.232 232.295ZM283.432 235.175V250.175H281.032V235.175H283.432ZM289.001 250.175V235.175H291.101L291.311 238.535L290.921 238.205C291.241 237.405 291.671 236.765 292.211 236.285C292.751 235.785 293.371 235.425 294.071 235.205C294.791 234.985 295.531 234.875 296.291 234.875C297.371 234.875 298.351 235.085 299.231 235.505C300.111 235.905 300.811 236.525 301.331 237.365C301.871 238.205 302.141 239.275 302.141 240.575V250.175H299.741V241.415C299.741 239.755 299.381 238.605 298.661 237.965C297.961 237.305 297.091 236.975 296.051 236.975C295.331 236.975 294.611 237.145 293.891 237.485C293.171 237.825 292.571 238.375 292.091 239.135C291.631 239.895 291.401 240.915 291.401 242.195V250.175H289.001ZM320.205 232.415L320.745 234.545C320.725 234.545 320.695 234.545 320.655 234.545C320.615 234.545 320.575 234.545 320.535 234.545C319.555 234.545 318.795 234.745 318.255 235.145C317.735 235.525 317.475 236.145 317.475 237.005L316.005 236.255C316.005 235.475 316.185 234.795 316.545 234.215C316.905 233.635 317.395 233.195 318.015 232.895C318.635 232.575 319.315 232.415 320.055 232.415C320.075 232.415 320.095 232.415 320.115 232.415C320.155 232.415 320.185 232.415 320.205 232.415ZM315.645 248.255C317.065 248.255 318.175 248.585 318.975 249.245C319.775 249.885 320.175 250.745 320.175 251.825C320.175 252.805 319.845 253.655 319.185 254.375C318.545 255.095 317.675 255.645 316.575 256.025C315.495 256.425 314.275 256.625 312.915 256.625C310.555 256.625 308.785 256.225 307.605 255.425C306.445 254.625 305.865 253.665 305.865 252.545C305.865 251.745 306.125 251.025 306.645 250.385C307.185 249.765 308.085 249.415 309.345 249.335L309.135 249.785C308.455 249.605 307.875 249.305 307.395 248.885C306.935 248.445 306.705 247.815 306.705 246.995C306.705 246.175 307.005 245.475 307.605 244.895C308.225 244.295 309.135 243.925 310.335 243.785L311.925 244.595H311.625C310.645 244.695 309.945 244.945 309.525 245.345C309.125 245.725 308.925 246.145 308.925 246.605C308.925 247.165 309.125 247.585 309.525 247.865C309.945 248.125 310.525 248.255 311.265 248.255H315.645ZM312.885 254.615C314.045 254.615 314.995 254.495 315.735 254.255C316.495 254.015 317.055 253.705 317.415 253.325C317.775 252.945 317.955 252.535 317.955 252.095C317.955 251.555 317.735 251.125 317.295 250.805C316.875 250.485 316.105 250.325 314.985 250.325H310.365C309.725 250.325 309.185 250.485 308.745 250.805C308.305 251.145 308.085 251.605 308.085 252.185C308.085 252.925 308.505 253.515 309.345 253.955C310.205 254.395 311.385 254.615 312.885 254.615ZM312.675 234.875C313.875 234.875 314.935 235.095 315.855 235.535C316.795 235.955 317.525 236.545 318.045 237.305C318.565 238.065 318.825 238.945 318.825 239.945C318.825 240.925 318.565 241.805 318.045 242.585C317.525 243.345 316.795 243.945 315.855 244.385C314.935 244.805 313.875 245.015 312.675 245.015C310.695 245.015 309.175 244.545 308.115 243.605C307.055 242.645 306.525 241.425 306.525 239.945C306.525 238.945 306.785 238.065 307.305 237.305C307.845 236.545 308.575 235.955 309.495 235.535C310.415 235.095 311.475 234.875 312.675 234.875ZM312.675 236.825C311.635 236.825 310.765 237.115 310.065 237.695C309.365 238.255 309.015 239.005 309.015 239.945C309.015 240.865 309.365 241.615 310.065 242.195C310.765 242.775 311.635 243.065 312.675 243.065C313.715 243.065 314.585 242.775 315.285 242.195C315.985 241.615 316.335 240.865 316.335 239.945C316.335 239.005 315.985 238.255 315.285 237.695C314.585 237.115 313.715 236.825 312.675 236.825Z" fill="#F6DBA8"/>
</svg>
