<svg width="300" height="301" viewBox="0 0 300 301" fill="none" xmlns="http://www.w3.org/2000/svg">
<rect x="1" y="1.60864" width="298" height="298" fill="#05060B" stroke="#F6DBA8" stroke-width="2"/>
<path d="M43.24 243.627V223.827H50.29C52.63 223.827 54.34 224.317 55.42 225.297C56.5 226.277 57.04 227.607 57.04 229.287C57.04 230.287 56.75 231.197 56.17 232.017C55.59 232.817 54.77 233.327 53.71 233.547V233.577C54.89 233.797 55.82 234.337 56.5 235.197C57.2 236.037 57.55 236.997 57.55 238.077C57.55 239.757 56.92 241.107 55.66 242.127C54.4 243.127 52.6 243.627 50.26 243.627H43.24ZM45.64 241.377H50.83C52.25 241.377 53.3 241.087 53.98 240.507C54.68 239.927 55.03 239.117 55.03 238.077C55.03 237.017 54.68 236.207 53.98 235.647C53.3 235.067 52.25 234.777 50.83 234.777H45.64V241.377ZM45.64 232.527H50.32C53.12 232.527 54.52 231.447 54.52 229.287C54.52 227.147 53.12 226.077 50.32 226.077H45.64V232.527ZM63.5896 225.747C63.0496 225.747 62.6096 225.587 62.2696 225.267C61.9496 224.927 61.7896 224.487 61.7896 223.947C61.7896 223.407 61.9496 222.977 62.2696 222.657C62.6096 222.317 63.0496 222.147 63.5896 222.147C64.1296 222.147 64.5596 222.317 64.8796 222.657C65.2196 222.977 65.3896 223.407 65.3896 223.947C65.3896 224.487 65.2196 224.927 64.8796 225.267C64.5596 225.587 64.1296 225.747 63.5896 225.747ZM64.7896 228.627V243.627H62.3896V228.627H64.7896ZM76.5684 228.327C77.9884 228.327 79.2384 228.637 80.3184 229.257C81.4184 229.877 82.2784 230.777 82.8984 231.957C83.5184 233.117 83.8284 234.507 83.8284 236.127C83.8284 237.747 83.5184 239.147 82.8984 240.327C82.2784 241.487 81.4184 242.377 80.3184 242.997C79.2384 243.617 77.9884 243.927 76.5684 243.927C75.1684 243.927 73.9184 243.617 72.8184 242.997C71.7184 242.377 70.8584 241.487 70.2384 240.327C69.6184 239.147 69.3084 237.747 69.3084 236.127C69.3084 234.507 69.6184 233.117 70.2384 231.957C70.8584 230.777 71.7184 229.877 72.8184 229.257C73.9184 228.637 75.1684 228.327 76.5684 228.327ZM76.5684 230.397C75.5484 230.397 74.6784 230.627 73.9584 231.087C73.2384 231.547 72.6784 232.207 72.2784 233.067C71.8984 233.907 71.7084 234.927 71.7084 236.127C71.7084 237.307 71.8984 238.327 72.2784 239.187C72.6784 240.047 73.2384 240.707 73.9584 241.167C74.6784 241.627 75.5484 241.857 76.5684 241.857C77.5884 241.857 78.4584 241.627 79.1784 241.167C79.8984 240.707 80.4484 240.047 80.8284 239.187C81.2284 238.327 81.4284 237.307 81.4284 236.127C81.4284 234.927 81.2284 233.907 80.8284 233.067C80.4484 232.207 79.8984 231.547 79.1784 231.087C78.4584 230.627 77.5884 230.397 76.5684 230.397ZM91.623 224.367V239.487C91.623 240.227 91.833 240.777 92.253 241.137C92.673 241.497 93.213 241.677 93.873 241.677C94.453 241.677 94.953 241.577 95.373 241.377C95.793 241.177 96.173 240.907 96.513 240.567L97.353 242.577C96.893 242.997 96.343 243.327 95.703 243.567C95.083 243.807 94.363 243.927 93.543 243.927C92.783 243.927 92.073 243.797 91.413 243.537C90.753 243.257 90.223 242.827 89.823 242.247C89.443 241.647 89.243 240.867 89.223 239.907V225.027L91.623 224.367ZM97.083 228.627V230.697H86.223V228.627H97.083ZM106.921 243.927C105.501 243.927 104.231 243.617 103.111 242.997C102.011 242.377 101.151 241.487 100.531 240.327C99.9113 239.147 99.6013 237.747 99.6013 236.127C99.6013 234.507 99.9113 233.117 100.531 231.957C101.151 230.777 102.001 229.877 103.081 229.257C104.161 228.637 105.391 228.327 106.771 228.327C108.171 228.327 109.361 228.627 110.341 229.227C111.341 229.827 112.101 230.647 112.621 231.687C113.141 232.707 113.401 233.857 113.401 235.137C113.401 235.477 113.391 235.787 113.371 236.067C113.351 236.347 113.321 236.597 113.281 236.817H101.161V234.687H112.231L111.001 234.927C111.001 233.487 110.601 232.377 109.801 231.597C109.021 230.817 107.991 230.427 106.711 230.427C105.731 230.427 104.881 230.657 104.161 231.117C103.461 231.557 102.911 232.207 102.511 233.067C102.131 233.907 101.941 234.927 101.941 236.127C101.941 237.307 102.141 238.327 102.541 239.187C102.941 240.047 103.501 240.707 104.221 241.167C104.961 241.607 105.841 241.827 106.861 241.827C107.961 241.827 108.851 241.617 109.531 241.197C110.231 240.777 110.791 240.207 111.211 239.487L113.101 240.597C112.721 241.277 112.231 241.867 111.631 242.367C111.051 242.867 110.361 243.257 109.561 243.537C108.781 243.797 107.901 243.927 106.921 243.927ZM124.176 228.327C125.216 228.327 126.126 228.487 126.906 228.807C127.706 229.127 128.396 229.587 128.976 230.187C129.556 230.787 130.026 231.497 130.386 232.317L128.106 233.397C127.786 232.437 127.296 231.707 126.636 231.207C125.996 230.687 125.156 230.427 124.116 230.427C123.116 230.427 122.256 230.657 121.536 231.117C120.816 231.557 120.266 232.207 119.886 233.067C119.506 233.907 119.316 234.927 119.316 236.127C119.316 237.307 119.506 238.327 119.886 239.187C120.266 240.047 120.816 240.707 121.536 241.167C122.256 241.607 123.116 241.827 124.116 241.827C124.896 241.827 125.566 241.707 126.126 241.467C126.706 241.227 127.176 240.877 127.536 240.417C127.916 239.957 128.176 239.397 128.316 238.737L130.536 239.517C130.196 240.437 129.726 241.227 129.126 241.887C128.546 242.547 127.836 243.057 126.996 243.417C126.176 243.757 125.236 243.927 124.176 243.927C122.776 243.927 121.526 243.617 120.426 242.997C119.326 242.377 118.466 241.487 117.846 240.327C117.226 239.147 116.916 237.747 116.916 236.127C116.916 234.507 117.226 233.117 117.846 231.957C118.466 230.777 119.326 229.877 120.426 229.257C121.526 228.637 122.776 228.327 124.176 228.327ZM134.753 243.627V221.727H137.153V230.877C137.673 229.977 138.363 229.327 139.223 228.927C140.083 228.527 141.023 228.327 142.043 228.327C143.123 228.327 144.103 228.537 144.983 228.957C145.863 229.357 146.563 229.977 147.083 230.817C147.623 231.657 147.893 232.727 147.893 234.027V243.627H145.493V234.867C145.493 233.207 145.133 232.057 144.413 231.417C143.713 230.757 142.843 230.427 141.803 230.427C141.083 230.427 140.363 230.597 139.643 230.937C138.923 231.277 138.323 231.837 137.843 232.617C137.383 233.377 137.153 234.397 137.153 235.677V243.627H134.753Z" fill="#F6DBA8"/>
</svg>
