<svg width="300" height="301" viewBox="0 0 300 301" fill="none" xmlns="http://www.w3.org/2000/svg">
<rect x="1" y="1.60864" width="298" height="298" fill="#05060B" stroke="#F6DBA8" stroke-width="2"/>
<path d="M43.24 243.627V223.827H57.13V226.077H45.64V232.467H54.58V234.717H45.64V241.377H57.58V243.627H43.24ZM67.2142 243.927C65.9742 243.927 64.8342 243.617 63.7942 242.997C62.7542 242.377 61.9242 241.487 61.3042 240.327C60.6842 239.147 60.3742 237.747 60.3742 236.127C60.3742 234.467 60.7042 233.057 61.3642 231.897C62.0242 230.737 62.8942 229.857 63.9742 229.257C65.0542 228.637 66.2142 228.327 67.4542 228.327C68.6942 228.327 69.7642 228.647 70.6642 229.287C71.5842 229.927 72.1942 230.777 72.4942 231.837L72.1942 232.047V221.727H74.5942V243.627H72.4942L72.2842 239.997L72.6142 239.817C72.4742 240.697 72.1342 241.447 71.5942 242.067C71.0742 242.667 70.4242 243.127 69.6442 243.447C68.8842 243.767 68.0742 243.927 67.2142 243.927ZM67.4542 241.827C68.4142 241.827 69.2442 241.587 69.9442 241.107C70.6642 240.627 71.2142 239.947 71.5942 239.067C71.9942 238.167 72.1942 237.117 72.1942 235.917C72.1942 234.777 71.9942 233.797 71.5942 232.977C71.2142 232.157 70.6742 231.527 69.9742 231.087C69.2942 230.647 68.4942 230.427 67.5742 230.427C66.0542 230.427 64.8742 230.947 64.0342 231.987C63.1942 233.027 62.7742 234.407 62.7742 236.127C62.7742 237.847 63.1842 239.227 64.0042 240.267C64.8242 241.307 65.9742 241.827 67.4542 241.827ZM85.6028 243.927C84.6428 243.927 83.7328 243.747 82.8728 243.387C82.0328 243.027 81.3428 242.447 80.8028 241.647C80.2828 240.827 80.0228 239.767 80.0228 238.467V228.627H82.4228V237.837C82.4228 239.357 82.7528 240.407 83.4128 240.987C84.0728 241.547 85.0028 241.827 86.2028 241.827C86.7628 241.827 87.3128 241.737 87.8528 241.557C88.3928 241.357 88.8728 241.057 89.2928 240.657C89.7328 240.237 90.0728 239.707 90.3128 239.067C90.5728 238.427 90.7028 237.667 90.7028 236.787V228.627H93.1028V243.627H91.0028L90.8528 241.347C90.3328 242.247 89.6228 242.907 88.7228 243.327C87.8428 243.727 86.8028 243.927 85.6028 243.927ZM122.463 223.827V226.077H115.563V243.627H113.163V226.077H106.263V223.827H122.463ZM129.158 243.927C127.738 243.927 126.468 243.617 125.348 242.997C124.248 242.377 123.388 241.487 122.768 240.327C122.148 239.147 121.838 237.747 121.838 236.127C121.838 234.507 122.148 233.117 122.768 231.957C123.388 230.777 124.238 229.877 125.318 229.257C126.398 228.637 127.628 228.327 129.008 228.327C130.408 228.327 131.598 228.627 132.578 229.227C133.578 229.827 134.338 230.647 134.858 231.687C135.378 232.707 135.638 233.857 135.638 235.137C135.638 235.477 135.628 235.787 135.608 236.067C135.588 236.347 135.558 236.597 135.518 236.817H123.398V234.687H134.468L133.238 234.927C133.238 233.487 132.838 232.377 132.038 231.597C131.258 230.817 130.228 230.427 128.948 230.427C127.968 230.427 127.118 230.657 126.398 231.117C125.698 231.557 125.148 232.207 124.748 233.067C124.368 233.907 124.178 234.927 124.178 236.127C124.178 237.307 124.378 238.327 124.778 239.187C125.178 240.047 125.738 240.707 126.458 241.167C127.198 241.607 128.078 241.827 129.098 241.827C130.198 241.827 131.088 241.617 131.768 241.197C132.468 240.777 133.028 240.207 133.448 239.487L135.338 240.597C134.958 241.277 134.468 241.867 133.868 242.367C133.288 242.867 132.598 243.257 131.798 243.537C131.018 243.797 130.138 243.927 129.158 243.927ZM146.412 228.327C147.452 228.327 148.362 228.487 149.142 228.807C149.942 229.127 150.632 229.587 151.212 230.187C151.792 230.787 152.262 231.497 152.622 232.317L150.342 233.397C150.022 232.437 149.532 231.707 148.872 231.207C148.232 230.687 147.392 230.427 146.352 230.427C145.352 230.427 144.492 230.657 143.772 231.117C143.052 231.557 142.502 232.207 142.122 233.067C141.742 233.907 141.552 234.927 141.552 236.127C141.552 237.307 141.742 238.327 142.122 239.187C142.502 240.047 143.052 240.707 143.772 241.167C144.492 241.607 145.352 241.827 146.352 241.827C147.132 241.827 147.802 241.707 148.362 241.467C148.942 241.227 149.412 240.877 149.772 240.417C150.152 239.957 150.412 239.397 150.552 238.737L152.772 239.517C152.432 240.437 151.962 241.227 151.362 241.887C150.782 242.547 150.072 243.057 149.232 243.417C148.412 243.757 147.472 243.927 146.412 243.927C145.012 243.927 143.762 243.617 142.662 242.997C141.562 242.377 140.702 241.487 140.082 240.327C139.462 239.147 139.152 237.747 139.152 236.127C139.152 234.507 139.462 233.117 140.082 231.957C140.702 230.777 141.562 229.877 142.662 229.257C143.762 228.637 145.012 228.327 146.412 228.327ZM156.989 243.627V221.727H159.389V230.877C159.909 229.977 160.599 229.327 161.459 228.927C162.319 228.527 163.259 228.327 164.279 228.327C165.359 228.327 166.339 228.537 167.219 228.957C168.099 229.357 168.799 229.977 169.319 230.817C169.859 231.657 170.129 232.727 170.129 234.027V243.627H167.729V234.867C167.729 233.207 167.369 232.057 166.649 231.417C165.949 230.757 165.079 230.427 164.039 230.427C163.319 230.427 162.599 230.597 161.879 230.937C161.159 231.277 160.559 231.837 160.079 232.617C159.619 233.377 159.389 234.397 159.389 235.677V243.627H156.989Z" fill="#F6DBA8"/>
</svg>
