<svg width="301" height="140" viewBox="0 0 301 140" fill="none" xmlns="http://www.w3.org/2000/svg">
<g clip-path="url(#clip0_1318_1372)">
<path d="M119.354 49.757H118.863C117.913 49.757 117.144 49.0142 117.144 48.0964V47.6216C117.144 46.7038 116.375 45.9609 115.424 45.9609H103.138C102.188 45.9609 101.419 46.7038 101.419 47.6216V48.0964C101.419 49.0142 100.65 49.757 99.6995 49.757H99.2079C98.2577 49.757 97.4887 50.4999 97.4887 51.4177V51.8925C97.4887 52.8103 96.7196 53.5532 95.7694 53.5532H95.2778C94.3277 53.5532 93.5586 54.296 93.5586 55.2138V70.8799C93.5586 71.7977 94.3277 72.5405 95.2778 72.5405H95.7694C96.7196 72.5405 97.4887 73.2834 97.4887 74.2012V74.676C97.4887 75.5938 98.2577 76.3366 99.2079 76.3366H99.6995C100.65 76.3366 101.419 77.0795 101.419 77.9973V78.4721C101.419 79.3899 102.188 80.1327 103.138 80.1327H123.285C124.235 80.1327 125.004 79.3899 125.004 78.4721V74.2012C125.004 73.2834 124.235 72.5405 123.285 72.5405H107.068C106.118 72.5405 105.349 71.7977 105.349 70.8799V70.4051C105.349 69.4873 104.58 68.7444 103.63 68.7444H103.138C102.188 68.7444 101.419 68.0015 101.419 67.0838V59.0122C101.419 58.0944 102.188 57.3515 103.138 57.3515H103.63C104.58 57.3515 105.349 56.6087 105.349 55.6909V55.2161C105.349 54.2983 106.118 53.5554 107.068 53.5554H111.49C112.44 53.5554 113.209 54.2983 113.209 55.2161V55.6909C113.209 56.6087 113.978 57.3515 114.928 57.3515H115.42C116.37 57.3515 117.139 58.0944 117.139 59.0122V59.487C117.139 60.4048 116.37 61.1476 115.42 61.1476H110.998C110.048 61.1476 109.279 61.8905 109.279 62.8083V67.0792C109.279 67.997 110.048 68.7399 110.998 68.7399H123.282C124.232 68.7399 125.001 67.997 125.001 67.0792V55.2161C125.001 54.2983 124.232 53.5554 123.282 53.5554H122.791C121.84 53.5554 121.071 52.8126 121.071 51.8948V51.42C121.071 50.5022 120.302 49.7593 119.352 49.7593L119.354 49.757Z" fill="#F6DBA8"/>
<path d="M190.114 49.757H189.622C188.672 49.757 187.903 49.0142 187.903 48.0964V47.6216C187.903 46.7038 187.134 45.9609 186.184 45.9609H173.9C172.95 45.9609 172.18 46.7038 172.18 47.6216V48.0964C172.18 49.0142 171.411 49.757 170.461 49.757H169.97C169.019 49.757 168.25 50.4999 168.25 51.4177V51.8925C168.25 52.8103 167.481 53.5532 166.531 53.5532H166.04C165.089 53.5532 164.32 54.296 164.32 55.2138V70.8799C164.32 71.7977 165.089 72.5405 166.04 72.5405H166.531C167.481 72.5405 168.25 73.2834 168.25 74.2012V74.676C168.25 75.5938 169.019 76.3366 169.97 76.3366H170.461C171.411 76.3366 172.18 77.0795 172.18 77.9973V78.4721C172.18 79.3899 172.95 80.1327 173.9 80.1327H186.184C187.134 80.1327 187.903 79.3899 187.903 78.4721V77.9973C187.903 77.0795 188.672 76.3366 189.622 76.3366C190.572 76.3366 191.342 75.5938 191.342 74.676V74.2012C191.342 73.2834 192.111 72.5405 193.061 72.5405H193.552C194.503 72.5405 195.272 71.7977 195.272 70.8799V66.609C195.272 65.6912 194.503 64.9483 193.552 64.9483H189.131C188.181 64.9483 187.411 65.6912 187.411 66.609V67.0838C187.411 68.0015 186.642 68.7444 185.692 68.7444H185.201C184.251 68.7444 183.481 69.4873 183.481 70.4051V70.8799C183.481 71.7977 182.712 72.5405 181.762 72.5405H177.832C176.882 72.5405 176.113 71.7977 176.113 70.8799V70.4051C176.113 69.4873 175.344 68.7444 174.394 68.7444H173.902C172.952 68.7444 172.183 68.0015 172.183 67.0838V59.0122C172.183 58.0944 172.952 57.3515 173.902 57.3515H174.394C175.344 57.3515 176.113 56.6087 176.113 55.6909V55.2161C176.113 54.2983 176.882 53.5554 177.832 53.5554H182.254C183.204 53.5554 183.973 54.2983 183.973 55.2161V55.6909C183.973 56.6087 184.742 57.3515 185.692 57.3515H186.184C187.134 57.3515 187.903 58.0944 187.903 59.0122V59.487C187.903 60.4048 188.672 61.1476 189.622 61.1476H194.044C194.994 61.1476 195.763 60.4048 195.763 59.487V55.2161C195.763 54.2983 194.994 53.5554 194.044 53.5554H193.552C192.602 53.5554 191.833 52.8126 191.833 51.8948V51.42C191.833 50.5022 191.064 49.7593 190.114 49.7593V49.757Z" fill="#F6DBA8"/>
<path d="M152.522 53.5554V67.0815C152.522 67.9993 151.753 68.7421 150.802 68.7421H150.311C149.361 68.7421 148.592 69.485 148.592 70.4028V70.8776C148.592 71.7954 147.823 72.5382 146.872 72.5382H142.451C141.501 72.5382 140.732 71.7954 140.732 70.8776V70.4028C140.732 69.485 139.963 68.7421 139.012 68.7421H138.521C137.571 68.7421 136.802 67.9993 136.802 67.0815V47.6216C136.802 46.7038 136.032 45.9609 135.082 45.9609H130.661C129.71 45.9609 128.941 46.7038 128.941 47.6216V70.8799C128.941 71.7977 129.71 72.5405 130.661 72.5405H131.152C132.102 72.5405 132.871 73.2834 132.871 74.2012V74.676C132.871 75.5938 133.641 76.3366 134.591 76.3366H135.082C136.032 76.3366 136.802 77.0795 136.802 77.9973V78.4721C136.802 79.3899 137.571 80.1327 138.521 80.1327H150.805C151.755 80.1327 152.524 79.3899 152.524 78.4721V77.9973C152.524 77.0795 153.293 76.3366 154.243 76.3366H154.735C155.685 76.3366 156.454 75.5938 156.454 74.676V74.2012C156.454 73.2834 157.223 72.5405 158.173 72.5405H158.665C159.615 72.5405 160.384 71.7977 160.384 70.8799V47.6216C160.384 46.7038 159.615 45.9609 158.665 45.9609H154.243C153.293 45.9609 152.524 46.7038 152.524 47.6216V53.5554H152.522Z" fill="#F6DBA8"/>
<path d="M199.695 64.948V78.4741C199.695 79.3919 200.464 80.1347 201.415 80.1347H205.836C206.786 80.1347 207.555 79.3919 207.555 78.4741V59.0142C207.555 58.0964 206.786 57.3535 205.836 57.3535H201.415C200.464 57.3535 199.695 58.0964 199.695 59.0142V64.948Z" fill="#F6DBA8"/>
<path d="M205.839 45.9609H201.415C200.465 45.9609 199.695 46.7044 199.695 47.6216V51.8948C199.695 52.8119 200.465 53.5554 201.415 53.5554H205.839C206.788 53.5554 207.558 52.8119 207.558 51.8948V47.6216C207.558 46.7044 206.788 45.9609 205.839 45.9609Z" fill="#F6DBA8"/>
<path d="M97.6259 85.7663V86.1593H94.0486V88.8104H97.0261V89.1943H94.0486V91.9295H97.6235V92.3226H93.5547V85.7617H97.6259V85.7663Z" fill="#F6DBA8"/>
<path d="M99.4328 87.7152V90.6639C99.4328 91.0955 99.5363 91.4363 99.7409 91.6817C99.9456 91.927 100.258 92.0497 100.679 92.0497C100.99 92.0497 101.281 91.9724 101.552 91.8202C101.822 91.668 102.065 91.4545 102.279 91.1819V87.7129H102.735V92.3268H102.483C102.394 92.3268 102.349 92.2859 102.347 92.2064L102.305 91.5204C102.083 91.7862 101.827 91.9997 101.538 92.161C101.249 92.3223 100.924 92.4018 100.569 92.4018C100.303 92.4018 100.07 92.3609 99.8726 92.2814C99.6727 92.2019 99.5081 92.086 99.3764 91.9338C99.2447 91.7816 99.1459 91.5999 99.0777 91.3863C99.0095 91.1728 98.9766 90.932 98.9766 90.6639V87.7152H99.4328Z" fill="#F6DBA8"/>
<path d="M104.519 92.3282V87.7143H104.759C104.813 87.7143 104.853 87.7256 104.876 87.7461C104.9 87.7688 104.914 87.8051 104.916 87.8574L104.954 88.832C105.107 88.4571 105.311 88.1641 105.568 87.9528C105.824 87.7415 106.139 87.6348 106.513 87.6348C106.657 87.6348 106.791 87.6484 106.911 87.6779C107.033 87.7075 107.148 87.7506 107.256 87.8051L107.193 88.1118C107.184 88.1618 107.151 88.1868 107.096 88.1868C107.078 88.1868 107.049 88.18 107.014 88.1686C106.979 88.1573 106.934 88.1414 106.882 88.1277C106.831 88.1118 106.765 88.0982 106.687 88.0868C106.61 88.0755 106.523 88.0687 106.424 88.0687C106.062 88.0687 105.765 88.1777 105.532 88.3935C105.3 88.6094 105.111 88.9229 104.968 89.3295V92.3282H104.512H104.519Z" fill="#F6DBA8"/>
<path d="M110.286 87.6406C110.629 87.6406 110.935 87.6974 111.205 87.8087C111.476 87.9223 111.704 88.0813 111.89 88.2881C112.076 88.4948 112.217 88.7447 112.315 89.0378C112.414 89.3308 112.461 89.6557 112.461 90.0192C112.461 90.3826 112.412 90.7075 112.315 90.9983C112.217 91.2891 112.076 91.5367 111.89 91.7457C111.704 91.9524 111.476 92.1114 111.205 92.2228C110.935 92.3341 110.629 92.3886 110.286 92.3886C109.942 92.3886 109.637 92.3341 109.366 92.2228C109.096 92.1114 108.867 91.9524 108.679 91.7457C108.491 91.539 108.35 91.2891 108.251 90.9983C108.153 90.7075 108.105 90.3826 108.105 90.0192C108.105 89.6557 108.155 89.3308 108.251 89.0378C108.348 88.7447 108.491 88.4971 108.679 88.2881C108.867 88.0813 109.096 87.9201 109.366 87.8087C109.637 87.6951 109.942 87.6406 110.286 87.6406ZM110.286 92.041C110.57 92.041 110.82 91.9933 111.031 91.9002C111.245 91.807 111.422 91.6707 111.565 91.4935C111.709 91.3163 111.814 91.1051 111.885 90.8552C111.956 90.6053 111.991 90.3281 111.991 90.0192C111.991 89.7102 111.956 89.4353 111.885 89.1854C111.814 88.9355 111.709 88.722 111.565 88.5425C111.422 88.3653 111.245 88.229 111.031 88.1313C110.82 88.0359 110.57 87.9882 110.286 87.9882C110.001 87.9882 109.752 88.0359 109.54 88.1313C109.326 88.2267 109.15 88.363 109.006 88.5425C108.863 88.7197 108.757 88.9333 108.684 89.1854C108.611 89.4353 108.576 89.7147 108.576 90.0192C108.576 90.3236 108.611 90.6075 108.684 90.8552C108.757 91.1051 108.863 91.3163 109.006 91.4935C109.15 91.6707 109.326 91.8048 109.54 91.9002C109.752 91.9956 110.001 92.041 110.286 92.041Z" fill="#F6DBA8"/>
<path d="M113.959 93.9593V87.7143H114.209C114.251 87.7143 114.284 87.7234 114.31 87.7393C114.336 87.7574 114.35 87.787 114.352 87.8301L114.394 88.5435C114.606 88.2663 114.853 88.0437 115.135 87.8801C115.418 87.7165 115.735 87.6348 116.088 87.6348C116.676 87.6348 117.134 87.8301 117.461 88.2232C117.788 88.6162 117.951 89.2046 117.951 89.9906C117.951 90.3268 117.906 90.6426 117.814 90.9334C117.722 91.2264 117.588 91.4786 117.414 91.6944C117.238 91.9102 117.022 92.0783 116.763 92.201C116.504 92.3237 116.208 92.3873 115.871 92.3873C115.535 92.3873 115.262 92.3305 115.027 92.2146C114.79 92.101 114.585 91.9307 114.413 91.7035V93.9571H113.957L113.959 93.9593ZM115.961 87.9914C115.643 87.9914 115.356 88.0709 115.1 88.23C114.841 88.389 114.616 88.6116 114.416 88.8956V91.315C114.599 91.5808 114.801 91.7671 115.022 91.8761C115.246 91.9852 115.498 92.0374 115.784 92.0374C116.071 92.0374 116.314 91.9875 116.523 91.8898C116.735 91.7921 116.911 91.6512 117.055 91.4695C117.198 91.2878 117.304 91.0719 117.377 90.8198C117.45 90.5676 117.485 90.2905 117.485 89.9883C117.485 89.3022 117.356 88.7979 117.094 88.4753C116.833 88.1527 116.457 87.9914 115.963 87.9914H115.961Z" fill="#F6DBA8"/>
<path d="M121.302 87.6393C121.57 87.6393 121.819 87.6847 122.048 87.7733C122.276 87.8619 122.476 87.9937 122.643 88.1641C122.81 88.3367 122.941 88.5457 123.035 88.7979C123.129 89.0478 123.177 89.3363 123.177 89.6612C123.177 89.7293 123.167 89.7748 123.146 89.7998C123.125 89.8247 123.092 89.8361 123.047 89.8361H119.602V89.9247C119.602 90.27 119.644 90.5744 119.726 90.8379C119.809 91.1015 119.929 91.3218 120.081 91.499C120.234 91.6762 120.42 91.8103 120.639 91.9011C120.858 91.9897 121.1 92.0352 121.368 92.0352C121.608 92.0352 121.815 92.0102 121.991 91.9579C122.168 91.9079 122.316 91.8489 122.436 91.7853C122.556 91.7217 122.652 91.6649 122.72 91.6126C122.791 91.5626 122.843 91.5354 122.873 91.5354C122.915 91.5354 122.946 91.5513 122.97 91.5808L123.094 91.7285C123.017 91.8216 122.915 91.9079 122.788 91.9875C122.661 92.067 122.52 92.1374 122.365 92.1942C122.21 92.251 122.043 92.2964 121.867 92.3305C121.688 92.3646 121.511 92.3805 121.33 92.3805C121.003 92.3805 120.707 92.3259 120.437 92.2169C120.168 92.1079 119.938 91.9466 119.745 91.7376C119.552 91.5286 119.404 91.2696 119.298 90.9652C119.192 90.6607 119.141 90.3132 119.141 89.9202C119.141 89.5885 119.19 89.2841 119.286 89.0046C119.383 88.7252 119.524 88.4844 119.71 88.2822C119.896 88.08 120.119 87.921 120.387 87.8074C120.655 87.6938 120.959 87.6348 121.297 87.6348L121.302 87.6393ZM121.309 87.9687C121.062 87.9687 120.843 88.0051 120.648 88.08C120.453 88.155 120.284 88.2618 120.143 88.4004C120.001 88.5389 119.886 88.707 119.797 88.9001C119.71 89.0955 119.651 89.3136 119.623 89.5544H122.767C122.767 89.3068 122.732 89.0864 122.661 88.8888C122.591 88.6934 122.492 88.5253 122.365 88.3913C122.238 88.255 122.083 88.1505 121.904 88.0778C121.725 88.0051 121.528 87.9687 121.309 87.9687Z" fill="#F6DBA8"/>
<path d="M127.706 92.3266C127.61 92.3266 127.551 92.2834 127.527 92.1971L127.459 91.6087C127.327 91.7314 127.198 91.8427 127.069 91.9427C126.939 92.0426 126.803 92.1244 126.664 92.1926C126.523 92.2607 126.37 92.313 126.208 92.347C126.046 92.3811 125.864 92.3993 125.669 92.3993C125.507 92.3993 125.347 92.3766 125.194 92.3289C125.041 92.2834 124.905 92.2107 124.787 92.1153C124.67 92.0199 124.573 91.8972 124.503 91.7473C124.43 91.5974 124.395 91.4179 124.395 91.2066C124.395 91.0112 124.451 90.8318 124.566 90.6637C124.681 90.4955 124.863 90.3524 125.107 90.2275C125.352 90.1048 125.667 90.0049 126.053 89.9299C126.438 89.8549 126.902 89.8117 127.443 89.8004V89.3188C127.443 88.8917 127.346 88.5646 127.158 88.3328C126.97 88.1011 126.685 87.9875 126.311 87.9875C126.081 87.9875 125.886 88.0193 125.723 88.0807C125.561 88.142 125.425 88.2102 125.314 88.2851C125.201 88.3601 125.112 88.4283 125.041 88.4896C124.971 88.5509 124.912 88.5827 124.863 88.5827C124.799 88.5827 124.75 88.5555 124.719 88.4987L124.637 88.3646C124.886 88.1238 125.149 87.9421 125.425 87.8171C125.7 87.6945 126.013 87.6309 126.361 87.6309C126.617 87.6309 126.841 87.6695 127.033 87.749C127.226 87.8285 127.384 87.9398 127.511 88.0875C127.638 88.2351 127.732 88.4123 127.795 88.6213C127.859 88.8303 127.892 89.0621 127.892 89.3188V92.3243H127.708L127.706 92.3266ZM125.787 92.0812C125.973 92.0812 126.142 92.0631 126.297 92.0222C126.452 91.9836 126.596 91.929 126.73 91.8609C126.862 91.7905 126.986 91.7087 127.102 91.6133C127.217 91.5178 127.33 91.4133 127.443 91.302V90.1003C126.989 90.1116 126.596 90.1457 126.269 90.2002C125.942 90.2547 125.672 90.3274 125.458 90.4206C125.244 90.5137 125.088 90.6228 124.987 90.7523C124.886 90.8817 124.837 91.0271 124.837 91.1907C124.837 91.3452 124.863 91.4792 124.917 91.5928C124.968 91.7064 125.039 91.7995 125.126 91.87C125.213 91.9404 125.314 91.9949 125.429 92.029C125.545 92.0631 125.665 92.079 125.789 92.079L125.787 92.0812Z" fill="#F6DBA8"/>
<path d="M129.608 92.3276V87.7136H129.857C129.939 87.7136 129.989 87.7523 130.001 87.8295L130.043 88.5247C130.259 88.2589 130.513 88.0453 130.803 87.8817C131.092 87.7205 131.414 87.6387 131.769 87.6387C132.033 87.6387 132.263 87.6796 132.463 87.7591C132.663 87.8386 132.828 87.9544 132.959 88.1067C133.091 88.2589 133.19 88.4406 133.258 88.6541C133.326 88.8677 133.359 89.1085 133.359 89.3766V92.3253H132.903V89.3766C132.903 88.9449 132.799 88.6042 132.595 88.3588C132.39 88.1135 132.077 87.9908 131.654 87.9908C131.341 87.9908 131.05 88.068 130.781 88.2248C130.513 88.3815 130.273 88.5951 130.062 88.8677V92.3276H129.605H129.608Z" fill="#F6DBA8"/>
<path d="M142.78 91.2225C142.813 91.2225 142.839 91.2339 142.863 91.2543L143.055 91.4542C142.914 91.5996 142.761 91.7291 142.595 91.845C142.428 91.9608 142.246 92.0608 142.049 92.1426C141.851 92.2243 141.635 92.288 141.4 92.3334C141.165 92.3788 140.906 92.4015 140.624 92.4015C140.153 92.4015 139.723 92.322 139.33 92.163C138.937 92.004 138.601 91.7791 138.321 91.486C138.041 91.193 137.822 90.8408 137.665 90.4274C137.507 90.0139 137.43 89.5528 137.43 89.0462C137.43 88.5396 137.51 88.0943 137.672 87.6831C137.834 87.2719 138.06 86.9198 138.354 86.6245C138.648 86.3291 138.996 86.0997 139.405 85.9384C139.812 85.7771 140.264 85.6953 140.758 85.6953C141.005 85.6953 141.23 85.7135 141.435 85.7476C141.64 85.7839 141.83 85.8339 142.009 85.8998C142.188 85.9657 142.355 86.0497 142.51 86.1474C142.667 86.2473 142.82 86.3609 142.971 86.4904L142.823 86.6994C142.797 86.7358 142.757 86.754 142.703 86.754C142.674 86.754 142.637 86.738 142.592 86.7062C142.547 86.6744 142.491 86.6335 142.423 86.5858C142.355 86.5381 142.27 86.4859 142.174 86.4291C142.075 86.3723 141.959 86.32 141.825 86.2723C141.691 86.2246 141.536 86.1837 141.36 86.1519C141.183 86.1201 140.983 86.1042 140.76 86.1042C140.346 86.1042 139.967 86.1724 139.622 86.311C139.276 86.4495 138.98 86.6449 138.728 86.8993C138.476 87.1538 138.283 87.4627 138.145 87.8262C138.006 88.1897 137.935 88.5963 137.935 89.0484C137.935 89.5005 138.004 89.9253 138.142 90.2911C138.279 90.6568 138.469 90.9635 138.714 91.2157C138.956 91.4678 139.245 91.6609 139.575 91.795C139.904 91.929 140.266 91.9972 140.652 91.9972C140.894 91.9972 141.113 91.9813 141.303 91.9517C141.494 91.9199 141.668 91.8745 141.828 91.8132C141.988 91.7518 142.136 91.6746 142.275 91.586C142.411 91.4974 142.547 91.3906 142.682 91.2702C142.698 91.2588 142.712 91.2475 142.726 91.2407C142.74 91.2339 142.757 91.2293 142.776 91.2293L142.78 91.2225Z" fill="#F6DBA8"/>
<path d="M144.581 92.3282V87.7143H144.821C144.875 87.7143 144.915 87.7256 144.939 87.7461C144.962 87.7688 144.976 87.8051 144.979 87.8574L145.016 88.832C145.169 88.4571 145.374 88.1641 145.63 87.9528C145.887 87.7415 146.202 87.6348 146.576 87.6348C146.719 87.6348 146.853 87.6484 146.973 87.6779C147.095 87.7075 147.211 87.7506 147.319 87.8051L147.255 88.1118C147.246 88.1618 147.213 88.1868 147.159 88.1868C147.14 88.1868 147.112 88.18 147.077 88.1686C147.041 88.1573 146.997 88.1414 146.945 88.1277C146.893 88.1118 146.827 88.0982 146.75 88.0868C146.672 88.0755 146.585 88.0687 146.486 88.0687C146.124 88.0687 145.828 88.1777 145.595 88.3935C145.362 88.6094 145.174 88.9229 145.03 89.3295V92.3282H144.574H144.581Z" fill="#F6DBA8"/>
<path d="M150.035 93.8103C150.016 93.8535 149.99 93.8898 149.96 93.9171C149.929 93.9443 149.884 93.958 149.828 93.958H149.501L150.341 92.1542L148.32 87.7129H148.699C148.746 87.7129 148.784 87.7243 148.812 87.747C148.84 87.7697 148.859 87.7947 148.873 87.8242L150.482 91.4136C150.501 91.459 150.517 91.5067 150.531 91.5544C150.545 91.6021 150.559 91.6521 150.571 91.6998C150.588 91.6498 150.604 91.6021 150.62 91.5544C150.637 91.5067 150.656 91.459 150.675 91.4136L152.264 87.8242C152.281 87.7901 152.302 87.7629 152.333 87.7424C152.361 87.722 152.394 87.7129 152.429 87.7129H152.78L150.035 93.8103Z" fill="#F6DBA8"/>
<path d="M154.022 93.9593V87.7143H154.271C154.314 87.7143 154.346 87.7234 154.372 87.7393C154.398 87.7574 154.412 87.787 154.415 87.8301L154.457 88.5435C154.669 88.2663 154.916 88.0437 155.198 87.8801C155.48 87.7165 155.798 87.6348 156.15 87.6348C156.738 87.6348 157.197 87.8301 157.524 88.2232C157.851 88.6162 158.013 89.2046 158.013 89.9906C158.013 90.3268 157.968 90.6426 157.877 90.9334C157.785 91.2241 157.651 91.4786 157.477 91.6944C157.3 91.9102 157.084 92.0783 156.825 92.201C156.567 92.3237 156.27 92.3873 155.934 92.3873C155.598 92.3873 155.325 92.3305 155.09 92.2146C154.852 92.101 154.647 91.9307 154.476 91.7035V93.9571H154.02L154.022 93.9593ZM156.023 87.9914C155.706 87.9914 155.419 88.0709 155.163 88.23C154.904 88.389 154.678 88.6116 154.478 88.8956V91.315C154.662 91.5808 154.864 91.7671 155.085 91.8761C155.308 91.9852 155.56 92.0374 155.847 92.0374C156.134 92.0374 156.376 91.9875 156.585 91.8898C156.797 91.7921 156.974 91.6512 157.117 91.4695C157.26 91.2878 157.366 91.0719 157.439 90.8198C157.512 90.5676 157.547 90.2905 157.547 89.9883C157.547 89.3022 157.418 88.7979 157.157 88.4753C156.896 88.1527 156.52 87.9914 156.026 87.9914H156.023Z" fill="#F6DBA8"/>
<path d="M160.744 92.4001C160.422 92.4001 160.17 92.3138 159.989 92.1412C159.81 91.9685 159.721 91.7004 159.721 91.3392V88.186H159.034C158.999 88.186 158.971 88.177 158.947 88.1588C158.923 88.1406 158.914 88.1133 158.914 88.0793V87.9066L159.73 87.8521L159.843 86.2005C159.845 86.1733 159.857 86.1483 159.878 86.1256C159.9 86.1028 159.928 86.0938 159.961 86.0938H160.175V87.8566H161.678V88.186H160.175V91.3165C160.175 91.4437 160.191 91.5528 160.226 91.6437C160.259 91.7345 160.306 91.8095 160.365 91.8686C160.424 91.9276 160.495 91.9708 160.575 91.9981C160.654 92.0253 160.742 92.0389 160.833 92.0389C160.948 92.0389 161.047 92.023 161.132 91.9912C161.214 91.9594 161.287 91.9231 161.348 91.8845C161.409 91.8458 161.459 91.8095 161.496 91.7777C161.534 91.7459 161.565 91.73 161.588 91.73C161.614 91.73 161.64 91.7459 161.666 91.7754L161.79 91.9708C161.668 92.1003 161.515 92.2048 161.327 92.2843C161.139 92.3638 160.946 92.4024 160.744 92.4024V92.4001Z" fill="#F6DBA8"/>
<path d="M164.833 87.6406C165.176 87.6406 165.482 87.6974 165.752 87.8087C166.023 87.9223 166.251 88.0813 166.437 88.2881C166.622 88.4948 166.764 88.7447 166.862 89.0378C166.961 89.3308 167.008 89.6557 167.008 90.0192C167.008 90.3826 166.959 90.7075 166.862 90.9983C166.764 91.2891 166.622 91.5367 166.437 91.7457C166.251 91.9524 166.023 92.1114 165.752 92.2228C165.482 92.3341 165.176 92.3886 164.833 92.3886C164.489 92.3886 164.183 92.3341 163.913 92.2228C163.643 92.1114 163.414 91.9524 163.226 91.7457C163.038 91.539 162.897 91.2891 162.798 90.9983C162.699 90.7075 162.652 90.3826 162.652 90.0192C162.652 89.6557 162.702 89.3308 162.798 89.0378C162.897 88.7447 163.038 88.4971 163.226 88.2881C163.414 88.0813 163.643 87.9201 163.913 87.8087C164.183 87.6951 164.489 87.6406 164.833 87.6406ZM164.833 92.041C165.117 92.041 165.366 91.9933 165.578 91.9002C165.79 91.807 165.969 91.6707 166.11 91.4935C166.251 91.3163 166.359 91.1051 166.43 90.8552C166.5 90.6053 166.535 90.3281 166.535 90.0192C166.535 89.7102 166.5 89.4353 166.43 89.1854C166.359 88.9355 166.253 88.722 166.11 88.5425C165.966 88.3653 165.79 88.229 165.578 88.1313C165.364 88.0359 165.117 87.9882 164.833 87.9882C164.548 87.9882 164.299 88.0359 164.087 88.1313C163.873 88.2267 163.697 88.363 163.553 88.5425C163.41 88.7197 163.304 88.9333 163.231 89.1854C163.158 89.4353 163.123 89.7147 163.123 90.0192C163.123 90.3236 163.158 90.6075 163.231 90.8552C163.304 91.1051 163.41 91.3163 163.553 91.4935C163.697 91.6707 163.873 91.8048 164.087 91.9002C164.301 91.9956 164.548 92.041 164.833 92.041Z" fill="#F6DBA8"/>
<path d="M171.924 92.3284H171.43V85.7676H171.924V92.3284Z" fill="#F6DBA8"/>
<path d="M174.071 92.3276V87.7136H174.32C174.403 87.7136 174.452 87.7523 174.464 87.8295L174.506 88.5247C174.725 88.2589 174.977 88.0453 175.266 87.8817C175.555 87.7205 175.877 87.6387 176.233 87.6387C176.496 87.6387 176.726 87.6796 176.926 87.7591C177.126 87.8386 177.291 87.9544 177.423 88.1067C177.554 88.2589 177.653 88.4406 177.719 88.6541C177.787 88.8677 177.82 89.1085 177.82 89.3766V92.3253H177.364V89.3766C177.364 88.9449 177.26 88.6042 177.056 88.3588C176.851 88.1135 176.538 87.9908 176.115 87.9908C175.802 87.9908 175.51 88.068 175.242 88.2248C174.974 88.3815 174.734 88.5951 174.523 88.8677V92.3276H174.066H174.071Z" fill="#F6DBA8"/>
<path d="M180.249 86.1221C180.249 86.1766 180.237 86.2289 180.214 86.2766C180.19 86.3243 180.157 86.3675 180.12 86.4038C180.082 86.4402 180.037 86.4697 179.986 86.4924C179.934 86.5151 179.88 86.5242 179.823 86.5242C179.767 86.5242 179.71 86.5129 179.661 86.4924C179.609 86.4697 179.565 86.4424 179.527 86.4038C179.489 86.3652 179.459 86.3243 179.435 86.2766C179.412 86.2289 179.402 86.1766 179.402 86.1221C179.402 86.0676 179.414 86.0131 179.435 85.9631C179.456 85.9131 179.487 85.8677 179.527 85.8313C179.567 85.795 179.609 85.7655 179.661 85.7427C179.713 85.72 179.767 85.7109 179.823 85.7109C179.88 85.7109 179.936 85.7223 179.986 85.7427C180.037 85.7655 180.082 85.7927 180.12 85.8313C180.157 85.8677 180.19 85.9131 180.214 85.9631C180.237 86.0131 180.249 86.0676 180.249 86.1221ZM180.047 87.7124V92.3263H179.59V87.7124H180.047Z" fill="#F6DBA8"/>
<path d="M183.253 92.4001C182.931 92.4001 182.679 92.3138 182.501 92.1412C182.322 91.9685 182.233 91.7004 182.233 91.3392V88.186H181.546C181.51 88.186 181.482 88.177 181.459 88.1588C181.435 88.1406 181.426 88.1133 181.426 88.0793V87.9066L182.242 87.8521L182.355 86.2005C182.357 86.1733 182.369 86.1483 182.39 86.1256C182.411 86.1028 182.439 86.0938 182.472 86.0938H182.686V87.8566H184.189V88.186H182.686V91.3165C182.686 91.4437 182.703 91.5528 182.736 91.6437C182.769 91.7345 182.816 91.8095 182.875 91.8686C182.933 91.9276 183.004 91.9708 183.084 91.9981C183.164 92.0253 183.251 92.0389 183.343 92.0389C183.458 92.0389 183.557 92.023 183.641 91.9912C183.724 91.9594 183.797 91.9231 183.858 91.8845C183.919 91.8458 183.968 91.8095 184.006 91.7777C184.043 91.7459 184.074 91.73 184.098 91.73C184.123 91.73 184.149 91.7459 184.175 91.7754L184.3 91.9708C184.178 92.1003 184.025 92.2048 183.837 92.2843C183.648 92.3638 183.456 92.4024 183.253 92.4024V92.4001Z" fill="#F6DBA8"/>
<path d="M186.351 86.1221C186.351 86.1766 186.339 86.2289 186.315 86.2766C186.292 86.3243 186.259 86.3675 186.221 86.4038C186.184 86.4402 186.139 86.4697 186.087 86.4924C186.035 86.5151 185.981 86.5242 185.925 86.5242C185.868 86.5242 185.812 86.5129 185.763 86.4924C185.711 86.4697 185.666 86.4424 185.629 86.4038C185.591 86.3652 185.56 86.3243 185.537 86.2766C185.513 86.2289 185.504 86.1766 185.504 86.1221C185.504 86.0676 185.516 86.0131 185.537 85.9631C185.558 85.9131 185.589 85.8677 185.629 85.8313C185.669 85.795 185.711 85.7655 185.763 85.7427C185.814 85.72 185.868 85.7109 185.925 85.7109C185.981 85.7109 186.038 85.7223 186.087 85.7427C186.139 85.7655 186.184 85.7927 186.221 85.8313C186.259 85.8677 186.292 85.9131 186.315 85.9631C186.339 86.0131 186.351 86.0676 186.351 86.1221ZM186.148 87.7124V92.3263H185.692V87.7124H186.148Z" fill="#F6DBA8"/>
<path d="M190.968 92.3266C190.871 92.3266 190.813 92.2834 190.789 92.1971L190.721 91.6087C190.589 91.7314 190.46 91.8427 190.33 91.9427C190.201 92.0426 190.065 92.1244 189.926 92.1926C189.785 92.2607 189.632 92.313 189.47 92.347C189.307 92.3811 189.126 92.3993 188.931 92.3993C188.769 92.3993 188.609 92.3766 188.456 92.3289C188.303 92.2834 188.167 92.2107 188.049 92.1153C187.931 92.0199 187.835 91.8972 187.764 91.7473C187.694 91.5974 187.656 91.4179 187.656 91.2066C187.656 91.0112 187.713 90.8318 187.828 90.6637C187.943 90.4955 188.124 90.3524 188.369 90.2275C188.613 90.1048 188.929 90.0049 189.314 89.9299C189.7 89.8549 190.163 89.8117 190.704 89.8004V89.3188C190.704 88.8917 190.608 88.5646 190.42 88.3328C190.229 88.1034 189.947 87.9875 189.573 87.9875C189.343 87.9875 189.147 88.0193 188.985 88.0807C188.823 88.142 188.686 88.2102 188.574 88.2851C188.461 88.3601 188.371 88.4283 188.301 88.4896C188.23 88.5509 188.171 88.5827 188.124 88.5827C188.061 88.5827 188.011 88.5555 187.981 88.4987L187.898 88.3646C188.148 88.1238 188.411 87.9421 188.686 87.8171C188.962 87.6922 189.274 87.6309 189.622 87.6309C189.879 87.6309 190.102 87.6695 190.295 87.749C190.488 87.8285 190.646 87.9398 190.773 88.0875C190.9 88.2351 190.994 88.4123 191.057 88.6213C191.121 88.8303 191.154 89.0621 191.154 89.3188V92.3243H190.97L190.968 92.3266ZM189.049 92.0812C189.234 92.0812 189.404 92.0631 189.559 92.0222C189.714 91.9836 189.858 91.929 189.992 91.8609C190.123 91.7905 190.248 91.7087 190.363 91.6133C190.479 91.5178 190.591 91.4133 190.704 91.302V90.1003C190.25 90.1116 189.858 90.1457 189.531 90.2002C189.204 90.2547 188.933 90.3274 188.719 90.4206C188.505 90.5137 188.35 90.6228 188.249 90.7523C188.148 90.8817 188.098 91.0271 188.098 91.1907C188.098 91.3452 188.124 91.4792 188.178 91.5928C188.232 91.7064 188.301 91.7995 188.388 91.87C188.475 91.9427 188.576 91.9949 188.691 92.029C188.806 92.0631 188.926 92.079 189.051 92.079L189.049 92.0812Z" fill="#F6DBA8"/>
<path d="M194.113 92.4001C193.79 92.4001 193.539 92.3138 193.36 92.1412C193.181 91.9685 193.092 91.7004 193.092 91.3392V88.186H192.405C192.37 88.186 192.342 88.177 192.318 88.1588C192.295 88.1406 192.285 88.1133 192.285 88.0793V87.9066L193.101 87.8521L193.214 86.2005C193.217 86.1733 193.228 86.1483 193.249 86.1256C193.271 86.1028 193.299 86.0938 193.332 86.0938H193.546V87.8566H195.049V88.186H193.546V91.3165C193.546 91.4437 193.562 91.5528 193.595 91.6437C193.628 91.7345 193.675 91.8095 193.734 91.8686C193.793 91.9276 193.863 91.9708 193.943 91.9981C194.023 92.0253 194.11 92.0389 194.202 92.0389C194.317 92.0389 194.416 92.023 194.501 91.9912C194.583 91.9594 194.656 91.9231 194.717 91.8845C194.778 91.8458 194.828 91.8095 194.865 91.7777C194.903 91.7459 194.933 91.73 194.957 91.73C194.983 91.73 195.009 91.7459 195.035 91.7754L195.159 91.9708C195.037 92.1003 194.884 92.2048 194.696 92.2843C194.508 92.3638 194.315 92.4024 194.113 92.4024V92.4001Z" fill="#F6DBA8"/>
<path d="M197.214 86.1221C197.214 86.1766 197.202 86.2289 197.179 86.2766C197.155 86.3243 197.122 86.3675 197.085 86.4038C197.047 86.4402 197.002 86.4697 196.95 86.4924C196.899 86.5151 196.845 86.5242 196.788 86.5242C196.732 86.5242 196.675 86.5129 196.626 86.4924C196.574 86.4697 196.529 86.4424 196.492 86.4038C196.454 86.3652 196.424 86.3243 196.4 86.2766C196.377 86.2289 196.367 86.1766 196.367 86.1221C196.367 86.0676 196.379 86.0131 196.4 85.9631C196.421 85.9131 196.452 85.8677 196.492 85.8313C196.532 85.795 196.574 85.7655 196.626 85.7427C196.678 85.72 196.732 85.7109 196.788 85.7109C196.845 85.7109 196.901 85.7223 196.95 85.7427C197.002 85.7655 197.047 85.7927 197.085 85.8313C197.122 85.8677 197.155 85.9131 197.179 85.9631C197.202 86.0131 197.214 86.0676 197.214 86.1221ZM197.012 87.7124V92.3263H196.555V87.7124H197.012Z" fill="#F6DBA8"/>
<path d="M200.75 92.3268H200.348L198.332 87.7129H198.692C198.737 87.7129 198.772 87.7243 198.8 87.747C198.828 87.7697 198.847 87.7947 198.859 87.8242L200.432 91.4636C200.465 91.534 200.489 91.6021 200.505 91.668C200.522 91.7339 200.538 91.7975 200.552 91.8634C200.569 91.7975 200.585 91.7339 200.602 91.6658C200.618 91.5999 200.642 91.5317 200.672 91.4636L202.257 87.8242C202.274 87.7901 202.295 87.7629 202.321 87.7424C202.349 87.722 202.382 87.7129 202.42 87.7129H202.765L200.75 92.3268Z" fill="#F6DBA8"/>
<path d="M205.677 87.6393C205.945 87.6393 206.194 87.6847 206.423 87.7733C206.651 87.8619 206.851 87.9937 207.018 88.1641C207.187 88.3367 207.316 88.5457 207.41 88.7979C207.504 89.0501 207.552 89.3363 207.552 89.6612C207.552 89.7293 207.542 89.7748 207.521 89.7998C207.5 89.8247 207.467 89.8361 207.422 89.8361H203.977V89.9247C203.977 90.27 204.019 90.5744 204.101 90.8379C204.184 91.1015 204.304 91.3218 204.456 91.499C204.609 91.6762 204.795 91.8103 205.014 91.9011C205.23 91.9897 205.475 92.0352 205.743 92.0352C205.983 92.0352 206.192 92.0102 206.366 91.9579C206.543 91.9079 206.691 91.8489 206.811 91.7853C206.931 91.7217 207.027 91.6649 207.095 91.6126C207.166 91.5626 207.218 91.5354 207.248 91.5354C207.29 91.5354 207.321 91.5513 207.345 91.5808L207.469 91.7285C207.392 91.8216 207.29 91.9079 207.163 91.9875C207.036 92.067 206.895 92.1374 206.74 92.1942C206.585 92.251 206.418 92.2964 206.242 92.3305C206.063 92.3646 205.886 92.3805 205.705 92.3805C205.378 92.3805 205.082 92.3259 204.812 92.2169C204.543 92.1079 204.313 91.9466 204.12 91.7376C203.927 91.5286 203.779 91.2696 203.673 90.9652C203.567 90.6607 203.516 90.3132 203.516 89.9202C203.516 89.5885 203.565 89.2841 203.661 89.0046C203.76 88.7252 203.899 88.4844 204.085 88.2822C204.271 88.08 204.494 87.921 204.762 87.8074C205.03 87.6938 205.334 87.6348 205.672 87.6348L205.677 87.6393ZM205.684 87.9687C205.437 87.9687 205.218 88.0051 205.023 88.08C204.828 88.155 204.659 88.2618 204.518 88.4004C204.376 88.5389 204.261 88.707 204.172 88.9001C204.085 89.0955 204.026 89.3136 203.998 89.5544H207.142C207.142 89.3068 207.107 89.0864 207.036 88.8888C206.966 88.6934 206.867 88.5253 206.74 88.3913C206.613 88.255 206.458 88.1505 206.279 88.0778C206.1 88.0051 205.903 87.9687 205.684 87.9687Z" fill="#F6DBA8"/>
</g>
<defs>
<clipPath id="clip0_1318_1372">
<rect width="114" height="48" fill="white" transform="translate(93.5547 45.959)"/>
</clipPath>
</defs>
</svg>
