<svg width="26" height="26" viewBox="0 0 26 26" fill="none" xmlns="http://www.w3.org/2000/svg">
<path d="M24.9593 0.255127H1.97842C1.42575 0.255127 0.979248 0.70163 0.979248 1.25429V24.2352C0.979248 24.7878 1.42575 25.2343 1.97842 25.2343H24.9593C25.5119 25.2343 25.9584 24.7878 25.9584 24.2352V1.25429C25.9584 0.70163 25.5119 0.255127 24.9593 0.255127ZM22.0742 7.54593H20.079C18.5146 7.54593 18.2118 8.28906 18.2118 9.3819V11.7893H21.9462L21.4591 15.558H18.2118V25.2343H14.3181V15.5611H11.0615V11.7893H14.3181V9.01034C14.3181 5.7849 16.2884 4.02699 19.1672 4.02699C20.5473 4.02699 21.7307 4.13003 22.0773 4.17686V7.54593H22.0742Z" fill="white"/>
</svg>
