<svg width="220" height="42" viewBox="0 0 220 42" fill="none" xmlns="http://www.w3.org/2000/svg">
<path d="M113.261 20.3989C111.444 20.3989 110.135 20.9735 108.807 21.5589V34.8045C110.079 34.9214 110.808 34.9214 112.015 34.9214C116.375 34.9214 116.972 32.9954 116.972 30.3062V23.9799C116.972 21.994 116.289 20.3989 113.261 20.3989ZM84.3039 19.676C81.2787 19.676 80.5884 21.278 80.5884 23.262V24.3767H88.0155V23.262C88.0155 21.278 87.3251 19.676 84.3039 19.676ZM28.2086 33.4629C28.2086 35.0324 28.9763 35.8476 30.6707 35.8476C32.4883 35.8476 33.5646 35.276 34.8913 34.6887V31.5467H30.9171C29.0354 31.5467 28.2086 31.8845 28.2086 33.4629ZM141.429 20.3989C138.398 20.3989 137.349 21.994 137.349 23.9799V31.2274C137.349 33.2183 138.398 34.8183 141.429 34.8183C144.451 34.8183 145.509 33.2183 145.509 31.2274V23.9799C145.508 21.994 144.45 20.3989 141.429 20.3989ZM13.3584 41.5894H4.45077V20.7928H0V13.6268H4.45179V9.32286C4.45179 3.47594 6.96381 0 14.1038 0H20.0483V7.16795H16.3327C13.5529 7.16795 13.3696 8.16978 13.3696 10.0389L13.3584 13.6258H20.089L19.3019 20.7918H13.3584V41.5894ZM43.801 41.6435H36.377L36.0562 39.8323C32.6665 41.6435 29.6412 41.9371 27.6455 41.9371C22.2009 41.9371 19.303 38.4288 19.303 33.5768C19.303 27.8527 22.6846 25.8097 28.734 25.8097H34.8913V24.5722C34.8913 21.6502 34.5441 20.7928 29.8856 20.7928H22.2691L23.0135 13.6268H31.3387C41.5599 13.6268 43.801 16.7413 43.801 24.6301V41.6435ZM69.0465 21.3182C64.4267 20.5541 63.0999 20.3861 60.8771 20.3861C56.8845 20.3861 55.6779 21.2357 55.6779 24.5064V30.6931C55.6779 33.9638 56.8845 34.8173 60.8771 34.8173C63.0999 34.8173 64.4267 34.6464 69.0465 33.8793V40.8695C65 41.7446 62.3637 41.9745 60.1358 41.9745C50.5724 41.9745 46.7713 37.1235 46.7713 30.1156V25.0957C46.7713 18.0819 50.5724 13.2221 60.1358 13.2221C62.3637 13.2221 65 13.4529 69.0465 14.332V21.3182ZM96.9221 30.1156H80.5873V30.6931C80.5873 33.9638 81.795 34.8173 85.7865 34.8173C89.3748 34.8173 91.5651 34.6464 96.1767 33.8793V40.8695C91.729 41.7446 89.4115 41.9745 85.0483 41.9745C75.4839 41.9745 71.6807 37.1235 71.6807 30.1156V24.3758C71.6807 18.244 74.5023 13.2221 84.3029 13.2221C94.1036 13.2221 96.9221 18.1861 96.9221 24.3758V30.1156ZM125.878 30.2482C125.878 37.0213 123.871 41.9617 111.713 41.9617C107.323 41.9617 104.747 41.5895 99.9015 40.8705V2.15294L108.806 0.71994V14.2632C110.731 13.5737 113.221 13.2231 115.488 13.2231C124.393 13.2231 125.877 17.0742 125.877 23.2629V30.2482H125.878ZM154.423 30.3955C154.423 36.2385 151.922 41.9057 141.458 41.9057C130.99 41.9057 128.442 36.2385 128.442 30.3955V24.7539C128.442 18.908 130.99 13.2398 141.458 13.2398C151.922 13.2398 154.423 18.908 154.423 24.7539V30.3955ZM182.948 30.3955C182.948 36.2385 180.444 41.9057 169.983 41.9057C159.514 41.9057 156.966 36.2385 156.966 30.3955V24.7539C156.966 18.908 159.514 13.2398 169.983 13.2398C180.444 13.2398 182.948 18.908 182.948 24.7539V30.3955ZM212.222 41.5894H202.57L194.406 28.4449V41.5894H185.499V2.15196L194.406 0.718956V26.1073L202.57 13.6268H212.222L203.31 27.2467L212.222 41.5894ZM169.952 20.3989C166.927 20.3989 165.877 21.994 165.877 23.9799V31.2274C165.877 33.2183 166.927 34.8183 169.952 34.8183C172.973 34.8183 174.042 33.2183 174.042 31.2274V23.9799C174.042 21.994 172.973 20.3989 169.952 20.3989ZM217.306 36.6844C218.806 36.6844 220 37.864 220 39.3373C220 40.8332 218.805 42 217.294 42C215.792 42 214.573 40.8332 214.573 39.3373C214.573 37.864 215.792 36.6844 217.294 36.6844H217.306ZM217.294 37.097C216.086 37.097 215.097 38.0998 215.097 39.3373C215.097 40.5974 216.087 41.5875 217.306 41.5875C218.526 41.5993 219.5 40.5974 219.5 39.3491C219.5 38.1007 218.526 37.097 217.306 37.097H217.294ZM216.294 40.8813V37.921C216.55 37.8866 216.795 37.8523 217.161 37.8523C217.625 37.8523 217.929 37.9465 218.115 38.0752C218.295 38.2058 218.392 38.4052 218.392 38.6871C218.392 39.078 218.125 39.3128 217.796 39.408V39.4306C218.064 39.4787 218.247 39.7125 218.309 40.1476C218.38 40.6083 218.454 40.7841 218.502 40.8803H217.99C217.918 40.7841 217.843 40.514 217.782 40.124C217.711 39.7479 217.513 39.6064 217.122 39.6064H216.783V40.8813H216.294ZM216.782 39.243H217.137C217.538 39.243 217.879 39.1006 217.879 38.7343C217.879 38.475 217.685 38.2166 217.137 38.2166C216.977 38.2166 216.866 38.2284 216.782 38.2392V39.243Z" fill="#F5DAA6"/>
</svg>
