<svg width="300" height="301" viewBox="0 0 300 301" fill="none" xmlns="http://www.w3.org/2000/svg">
<rect x="1" y="1.60864" width="298" height="298" fill="#05060B" stroke="#F6DBA8" stroke-width="2"/>
<path d="M57.1 229.58H45.64V235.97H54.58V238.22H45.64V247.13H43.24V227.33H57.1V229.58ZM62.3005 229.25C61.7605 229.25 61.3205 229.09 60.9805 228.77C60.6605 228.43 60.5005 227.99 60.5005 227.45C60.5005 226.91 60.6605 226.48 60.9805 226.16C61.3205 225.82 61.7605 225.65 62.3005 225.65C62.8405 225.65 63.2705 225.82 63.5905 226.16C63.9305 226.48 64.1005 226.91 64.1005 227.45C64.1005 227.99 63.9305 228.43 63.5905 228.77C63.2705 229.09 62.8405 229.25 62.3005 229.25ZM63.5005 232.13V247.13H61.1005V232.13H63.5005ZM69.0693 247.13V232.13H71.1693L71.3793 235.49L70.9893 235.16C71.3093 234.36 71.7393 233.72 72.2793 233.24C72.8193 232.74 73.4393 232.38 74.1393 232.16C74.8593 231.94 75.5993 231.83 76.3593 231.83C77.4393 231.83 78.4193 232.04 79.2993 232.46C80.1793 232.86 80.8793 233.48 81.3993 234.32C81.9393 235.16 82.2093 236.23 82.2093 237.53V247.13H79.8093V238.37C79.8093 236.71 79.4493 235.56 78.7293 234.92C78.0293 234.26 77.1593 233.93 76.1193 233.93C75.3993 233.93 74.6793 234.1 73.9593 234.44C73.2393 234.78 72.6393 235.33 72.1593 236.09C71.6993 236.85 71.4693 237.87 71.4693 239.15V247.13H69.0693ZM111.418 227.33V229.58H104.518V247.13H102.118V229.58H95.2178V227.33H111.418ZM118.113 247.43C116.693 247.43 115.423 247.12 114.303 246.5C113.203 245.88 112.343 244.99 111.723 243.83C111.103 242.65 110.793 241.25 110.793 239.63C110.793 238.01 111.103 236.62 111.723 235.46C112.343 234.28 113.193 233.38 114.273 232.76C115.353 232.14 116.583 231.83 117.963 231.83C119.363 231.83 120.553 232.13 121.533 232.73C122.533 233.33 123.293 234.15 123.813 235.19C124.333 236.21 124.593 237.36 124.593 238.64C124.593 238.98 124.583 239.29 124.563 239.57C124.543 239.85 124.513 240.1 124.473 240.32H112.353V238.19H123.423L122.193 238.43C122.193 236.99 121.793 235.88 120.993 235.1C120.213 234.32 119.183 233.93 117.903 233.93C116.923 233.93 116.073 234.16 115.353 234.62C114.653 235.06 114.103 235.71 113.703 236.57C113.323 237.41 113.133 238.43 113.133 239.63C113.133 240.81 113.333 241.83 113.733 242.69C114.133 243.55 114.693 244.21 115.413 244.67C116.153 245.11 117.033 245.33 118.053 245.33C119.153 245.33 120.043 245.12 120.723 244.7C121.423 244.28 121.983 243.71 122.403 242.99L124.293 244.1C123.913 244.78 123.423 245.37 122.823 245.87C122.243 246.37 121.553 246.76 120.753 247.04C119.973 247.3 119.093 247.43 118.113 247.43ZM135.367 231.83C136.407 231.83 137.317 231.99 138.097 232.31C138.897 232.63 139.587 233.09 140.167 233.69C140.747 234.29 141.217 235 141.577 235.82L139.297 236.9C138.977 235.94 138.487 235.21 137.827 234.71C137.187 234.19 136.347 233.93 135.307 233.93C134.307 233.93 133.447 234.16 132.727 234.62C132.007 235.06 131.457 235.71 131.077 236.57C130.697 237.41 130.507 238.43 130.507 239.63C130.507 240.81 130.697 241.83 131.077 242.69C131.457 243.55 132.007 244.21 132.727 244.67C133.447 245.11 134.307 245.33 135.307 245.33C136.087 245.33 136.757 245.21 137.317 244.97C137.897 244.73 138.367 244.38 138.727 243.92C139.107 243.46 139.367 242.9 139.507 242.24L141.727 243.02C141.387 243.94 140.917 244.73 140.317 245.39C139.737 246.05 139.027 246.56 138.187 246.92C137.367 247.26 136.427 247.43 135.367 247.43C133.967 247.43 132.717 247.12 131.617 246.5C130.517 245.88 129.657 244.99 129.037 243.83C128.417 242.65 128.107 241.25 128.107 239.63C128.107 238.01 128.417 236.62 129.037 235.46C129.657 234.28 130.517 233.38 131.617 232.76C132.717 232.14 133.967 231.83 135.367 231.83ZM145.944 247.13V225.23H148.344V234.38C148.864 233.48 149.554 232.83 150.414 232.43C151.274 232.03 152.214 231.83 153.234 231.83C154.314 231.83 155.294 232.04 156.174 232.46C157.054 232.86 157.754 233.48 158.274 234.32C158.814 235.16 159.084 236.23 159.084 237.53V247.13H156.684V238.37C156.684 236.71 156.324 235.56 155.604 234.92C154.904 234.26 154.034 233.93 152.994 233.93C152.274 233.93 151.554 234.1 150.834 234.44C150.114 234.78 149.514 235.34 149.034 236.12C148.574 236.88 148.344 237.9 148.344 239.18V247.13H145.944Z" fill="#F6DBA8"/>
</svg>
