<svg width="410" height="190" viewBox="0 0 410 190" fill="none" xmlns="http://www.w3.org/2000/svg">
<path d="M199.851 94.1644C196.492 94.9397 193.403 95.3273 190.587 95.3273C189.527 95.3273 188.519 95.2756 187.563 95.1723C186.633 95.0947 185.625 94.9138 184.539 94.6296C183.454 94.3195 182.511 93.9318 181.71 93.4666C180.934 92.9756 180.288 92.3037 179.771 91.4509C179.255 90.5981 178.996 89.6161 178.996 88.5048V76.6042C178.996 75.1311 179.371 73.8907 180.12 72.8828C180.896 71.8491 181.929 71.0997 183.221 70.6345C184.514 70.1693 185.741 69.8463 186.904 69.6654C188.067 69.4845 189.294 69.394 190.587 69.394C193.688 69.394 196.582 69.6008 199.27 70.0143V72.9216C198.288 72.689 196.879 72.4822 195.045 72.3013C193.21 72.0946 191.75 71.9912 190.664 71.9912C185.366 71.9912 182.717 73.516 182.717 76.5654V88.4273C182.717 89.2801 182.963 90.0166 183.454 90.6369C183.971 91.2312 184.656 91.6835 185.508 91.9936C186.387 92.2779 187.24 92.4846 188.067 92.6138C188.92 92.7172 189.837 92.7689 190.819 92.7689C192.551 92.7689 194.398 92.5363 196.362 92.0711V83.2716H190.47V80.6357H199.851V94.1644Z" fill="#F6DBA8"/>
<path d="M222.335 82.4964V89.0088C222.335 90.1717 222.193 91.1537 221.909 91.9548C221.624 92.756 221.263 93.3762 220.823 93.8155C220.384 94.2549 219.751 94.5908 218.924 94.8234C218.123 95.056 217.347 95.1981 216.598 95.2498C215.874 95.3015 214.905 95.3273 213.691 95.3273C212.14 95.3273 210.926 95.2756 210.047 95.1723C209.194 95.0689 208.328 94.8234 207.45 94.4358C206.597 94.0223 205.977 93.3762 205.589 92.4975C205.227 91.6189 205.046 90.456 205.046 89.0088V82.4964C205.046 81.2559 205.188 80.2093 205.473 79.3564C205.783 78.5036 206.145 77.8446 206.558 77.3795C206.997 76.9143 207.631 76.5654 208.458 76.3328C209.285 76.0744 210.047 75.9193 210.745 75.8677C211.468 75.816 212.45 75.7901 213.691 75.7901C214.931 75.7901 215.9 75.816 216.598 75.8677C217.322 75.9193 218.097 76.0744 218.924 76.3328C219.751 76.5654 220.371 76.9143 220.785 77.3795C221.224 77.8446 221.586 78.5036 221.87 79.3564C222.18 80.2093 222.335 81.2559 222.335 82.4964ZM218.769 89.5127V81.9149C218.769 80.1834 218.42 79.1109 217.722 78.6975C217.024 78.284 215.681 78.0772 213.691 78.0772C211.701 78.0772 210.357 78.284 209.659 78.6975C208.961 79.1109 208.613 80.1834 208.613 81.9149V89.5127C208.613 90.3397 208.703 90.9987 208.884 91.4897C209.065 91.9807 209.401 92.3425 209.892 92.5751C210.383 92.7818 210.887 92.911 211.404 92.9627C211.92 93.0144 212.683 93.0402 213.691 93.0402C214.699 93.0402 215.461 93.0144 215.978 92.9627C216.495 92.911 216.999 92.7818 217.49 92.5751C217.981 92.3425 218.317 91.9807 218.498 91.4897C218.678 90.9987 218.769 90.3397 218.769 89.5127Z" fill="#F6DBA8"/>
<path d="M262.354 69.7817L254.252 94.9397H249.872L243.863 74.007L237.7 94.9397H233.319L225.45 69.7817H229.443L235.684 91.3734H235.762L242.003 69.7817H245.995L252.236 91.3734H252.314L258.555 69.7817H262.354Z" fill="#F6DBA8"/>
<path d="M279.564 86.334H266.966V89.1638C266.966 90.4818 267.431 91.4251 268.361 91.9936C269.291 92.5363 270.674 92.8077 272.509 92.8077C274.292 92.8077 276.398 92.4975 278.827 91.8773V94.552C276.502 95.0689 274.24 95.3273 272.044 95.3273C266.307 95.3273 263.438 93.415 263.438 89.5902V82.1862C263.438 79.8862 264.097 78.2452 265.415 77.2632C266.733 76.2811 268.839 75.7901 271.734 75.7901C274.447 75.7901 276.424 76.2682 277.665 77.2244C278.931 78.1548 279.564 79.8087 279.564 82.1862V86.334ZM276.075 84.0469V81.1008C276.075 79.9638 275.726 79.1885 275.029 78.775C274.331 78.3357 273.168 78.116 271.54 78.116C269.989 78.116 268.839 78.3227 268.09 78.7362C267.34 79.1497 266.966 79.9379 266.966 81.1008V84.0469H276.075Z" fill="#F6DBA8"/>
<path d="M302.363 81.1008V88.8149C302.363 89.952 302.195 90.934 301.859 91.761C301.524 92.588 301.097 93.2341 300.58 93.6992C300.089 94.1386 299.43 94.4874 298.603 94.7459C297.776 95.0043 297.001 95.1594 296.277 95.211C295.554 95.2886 294.675 95.3273 293.641 95.3273C292.298 95.3273 291.199 95.2627 290.346 95.1335C289.494 95.0043 288.641 94.7329 287.788 94.3195C286.935 93.906 286.302 93.247 285.889 92.3425C285.475 91.4121 285.268 90.2363 285.268 88.8149V67.8047H288.757V73.4255C288.757 73.9165 288.744 74.666 288.718 75.6738C288.718 76.6559 288.718 77.3924 288.718 77.8834C288.822 77.289 289.352 76.798 290.308 76.4104C291.29 75.9969 292.724 75.7901 294.611 75.7901C299.779 75.7901 302.363 77.5604 302.363 81.1008ZM298.797 89.3189V81.9537C298.797 80.3514 298.422 79.3435 297.673 78.93C296.924 78.4907 295.593 78.271 293.68 78.271C291.845 78.271 290.566 78.5166 289.843 79.0076C289.119 79.4986 288.757 80.4806 288.757 81.9537V89.3189C288.757 90.8953 289.106 91.9161 289.804 92.3812C290.527 92.8206 291.832 93.0402 293.719 93.0402C295.631 93.0402 296.949 92.8206 297.673 92.3812C298.422 91.9161 298.797 90.8953 298.797 89.3189Z" fill="#F6DBA8"/>
<path d="M186.873 119.533V123.097C186.873 123.623 186.795 124.076 186.64 124.459C186.485 124.841 186.288 125.139 186.049 125.354C185.822 125.557 185.517 125.718 185.135 125.838C184.753 125.957 184.395 126.029 184.061 126.052C183.727 126.088 183.321 126.106 182.843 126.106C182.222 126.106 181.715 126.076 181.321 126.017C180.927 125.957 180.533 125.832 180.139 125.641C179.745 125.449 179.452 125.145 179.261 124.727C179.07 124.297 178.975 123.754 178.975 123.097V113.391H180.586V115.987C180.586 116.214 180.58 116.561 180.569 117.026C180.569 117.48 180.569 117.82 180.569 118.047C180.616 117.772 180.861 117.546 181.303 117.366C181.757 117.175 182.419 117.08 183.291 117.08C185.679 117.08 186.873 117.898 186.873 119.533ZM185.225 123.33V119.927C185.225 119.187 185.052 118.722 184.706 118.531C184.359 118.328 183.744 118.226 182.861 118.226C182.013 118.226 181.422 118.34 181.088 118.566C180.754 118.793 180.586 119.247 180.586 119.927V123.33C180.586 124.059 180.748 124.53 181.07 124.745C181.404 124.948 182.007 125.05 182.879 125.05C183.762 125.05 184.371 124.948 184.706 124.745C185.052 124.53 185.225 124.059 185.225 123.33Z" fill="#F6DBA8"/>
<path d="M194.02 118.459H193.125C192.384 118.459 191.835 118.554 191.477 118.745C191.131 118.937 190.958 119.295 190.958 119.82V125.927H189.346V117.259H190.868V118.674C190.868 118.256 191.125 117.886 191.638 117.563C192.164 117.241 192.695 117.08 193.232 117.08H194.02V118.459Z" fill="#F6DBA8"/>
<path d="M202.752 121.951H196.932V123.259C196.932 123.868 197.147 124.303 197.577 124.566C198.006 124.817 198.645 124.942 199.493 124.942C200.317 124.942 201.29 124.799 202.412 124.512V125.748C201.338 125.987 200.293 126.106 199.278 126.106C196.627 126.106 195.302 125.223 195.302 123.456V120.035C195.302 118.972 195.607 118.214 196.216 117.76C196.824 117.307 197.798 117.08 199.135 117.08C200.388 117.08 201.302 117.301 201.875 117.743C202.46 118.172 202.752 118.937 202.752 120.035V121.951ZM201.141 120.895V119.533C201.141 119.008 200.979 118.65 200.657 118.459C200.335 118.256 199.797 118.154 199.045 118.154C198.329 118.154 197.798 118.25 197.451 118.441C197.105 118.632 196.932 118.996 196.932 119.533V120.895H201.141Z" fill="#F6DBA8"/>
<path d="M212.05 125.927H210.492V125.103C210.361 125.772 209.489 126.106 207.877 126.106C206.683 126.106 205.854 125.927 205.388 125.569C204.934 125.199 204.707 124.459 204.707 123.348C204.707 122.381 204.922 121.718 205.352 121.36C205.782 120.99 206.612 120.805 207.841 120.805H210.438V119.426C210.438 118.948 210.289 118.626 209.991 118.459C209.704 118.292 209.155 118.208 208.343 118.208C207.459 118.208 206.468 118.28 205.37 118.423V117.241C206.552 117.134 207.621 117.08 208.576 117.08C210.032 117.08 210.976 117.259 211.405 117.617C211.835 117.963 212.05 118.692 212.05 119.802V125.927ZM210.438 124.172V121.808H207.949C207.209 121.808 206.743 121.903 206.552 122.094C206.373 122.286 206.283 122.721 206.283 123.402C206.283 124.011 206.379 124.441 206.57 124.691C206.773 124.93 207.191 125.05 207.824 125.05H208.146C208.456 125.05 208.713 125.044 208.916 125.032C209.131 125.02 209.37 124.99 209.632 124.942C209.895 124.882 210.092 124.793 210.223 124.673C210.367 124.542 210.438 124.375 210.438 124.172Z" fill="#F6DBA8"/>
<path d="M222.618 125.927H220.612L216.654 121.181L220.308 117.259H222.278L218.517 121.181L222.618 125.927ZM216.457 125.927H214.845V113.391H216.457V125.927Z" fill="#F6DBA8"/>
<path d="M233.617 125.963C233.044 126.058 232.441 126.106 231.808 126.106C230.722 126.106 229.963 125.921 229.534 125.551C229.104 125.169 228.889 124.453 228.889 123.402V118.316H226.955V117.259H228.889V114.573H230.519V117.259H233.617V118.316H230.519V123.491C230.519 124.112 230.638 124.53 230.877 124.745C231.116 124.948 231.599 125.05 232.327 125.05C232.518 125.05 232.948 125.002 233.617 124.906V125.963Z" fill="#F6DBA8"/>
<path d="M242.846 125.927H241.234V119.677C241.234 119.462 241.216 119.283 241.181 119.139C241.145 118.996 241.067 118.853 240.948 118.71C240.84 118.554 240.649 118.441 240.375 118.369C240.112 118.286 239.778 118.244 239.372 118.244C238.381 118.244 237.736 118.351 237.438 118.566C237.139 118.781 236.99 119.151 236.99 119.677V125.927H235.378V113.391H236.99V118.316C237.157 117.492 238.106 117.08 239.837 117.08C240.984 117.08 241.772 117.289 242.201 117.707C242.631 118.113 242.846 118.734 242.846 119.569V125.927Z" fill="#F6DBA8"/>
<path d="M252.772 121.951H246.952V123.259C246.952 123.868 247.167 124.303 247.596 124.566C248.026 124.817 248.665 124.942 249.513 124.942C250.337 124.942 251.31 124.799 252.432 124.512V125.748C251.357 125.987 250.313 126.106 249.298 126.106C246.647 126.106 245.322 125.223 245.322 123.456V120.035C245.322 118.972 245.626 118.214 246.235 117.76C246.844 117.307 247.817 117.08 249.155 117.08C250.408 117.08 251.322 117.301 251.895 117.743C252.48 118.172 252.772 118.937 252.772 120.035V121.951ZM251.16 120.895V119.533C251.16 119.008 250.999 118.65 250.677 118.459C250.355 118.256 249.817 118.154 249.065 118.154C248.349 118.154 247.817 118.25 247.471 118.441C247.125 118.632 246.952 118.996 246.952 119.533V120.895H251.16Z" fill="#F6DBA8"/>
<path d="M260.968 125.927H259.356V113.391H260.968V125.927Z" fill="#F6DBA8"/>
<path d="M265.375 115.808H263.763V114.125H265.375V115.808ZM265.375 125.927H263.763V117.259H265.375V125.927Z" fill="#F6DBA8"/>
<path d="M281.316 125.927H279.704V119.677C279.704 119.462 279.686 119.283 279.651 119.139C279.615 118.996 279.537 118.853 279.418 118.71C279.31 118.554 279.119 118.441 278.845 118.369C278.582 118.286 278.248 118.244 277.842 118.244C276.899 118.244 276.29 118.346 276.015 118.548C275.752 118.751 275.621 119.128 275.621 119.677V125.927H274.009V119.677C274.009 119.462 273.991 119.283 273.955 119.139C273.92 118.996 273.842 118.853 273.723 118.71C273.615 118.554 273.43 118.441 273.167 118.369C272.905 118.286 272.571 118.244 272.165 118.244C271.209 118.244 270.571 118.346 270.248 118.548C269.938 118.74 269.783 119.116 269.783 119.677V125.927H268.171V117.259H269.783V118.316C269.95 117.492 270.923 117.08 272.702 117.08C274.147 117.08 275.048 117.474 275.406 118.262C275.526 117.856 275.86 117.557 276.409 117.366C276.97 117.175 277.627 117.08 278.379 117.08C279.489 117.08 280.254 117.289 280.671 117.707C281.101 118.113 281.316 118.734 281.316 119.569V125.927Z" fill="#F6DBA8"/>
<path d="M285.716 115.808H284.104V114.125H285.716V115.808ZM285.716 125.927H284.104V117.259H285.716V125.927Z" fill="#F6DBA8"/>
<path d="M293.955 125.963C293.382 126.058 292.779 126.106 292.147 126.106C291.06 126.106 290.302 125.921 289.872 125.551C289.442 125.169 289.227 124.453 289.227 123.402V118.316H287.293V117.259H289.227V114.573H290.857V117.259H293.955V118.316H290.857V123.491C290.857 124.112 290.977 124.53 291.215 124.745C291.454 124.948 291.938 125.05 292.666 125.05C292.857 125.05 293.287 125.002 293.955 124.906V125.963Z" fill="#F6DBA8"/>
<path d="M302.146 122.883V123.635C302.146 124.566 301.818 125.211 301.161 125.569C300.516 125.927 299.585 126.106 298.367 126.106C297.436 126.106 296.445 126.035 295.394 125.891V124.656C296.827 124.882 297.83 124.996 298.403 124.996C299.119 124.996 299.657 124.93 300.015 124.799C300.373 124.656 300.552 124.369 300.552 123.939V123.062C300.552 122.691 300.427 122.429 300.176 122.274C299.925 122.118 299.519 122.041 298.958 122.041H297.973C297.066 122.041 296.379 121.856 295.914 121.486C295.448 121.104 295.215 120.584 295.215 119.927V119.122C295.215 117.76 296.505 117.08 299.084 117.08C299.37 117.08 300.248 117.128 301.716 117.223V118.387C300.689 118.22 299.788 118.137 299.012 118.137C298.152 118.137 297.567 118.22 297.257 118.387C296.958 118.554 296.809 118.835 296.809 119.229V119.963C296.809 120.548 297.34 120.841 298.403 120.841H299.406C301.233 120.841 302.146 121.521 302.146 122.883Z" fill="#F6DBA8"/>
<rect x="179.219" y="103.793" width="123.756" height="2.27468" fill="#F6DBA8"/>
<path d="M168.536 67.7032L163.994 75.5705H154.909L150.367 67.7032L154.909 59.8359L163.994 59.8359L168.536 67.7032Z" fill="#F6DBA8"/>
<path d="M150.369 58.5673L147.782 63.0487H142.607L140.02 58.5673L142.607 54.0859L147.782 54.0859L150.369 58.5673Z" fill="#F6DBA8"/>
<path d="M149.145 75.0238L146.434 79.7194H141.012L138.301 75.0238L141.012 70.3281L146.434 70.3281L149.145 75.0238Z" fill="#F6DBA8"/>
<path d="M138.301 83.4559L133.992 90.9195H125.374L121.064 83.4559L125.374 75.9922L133.992 75.9922L138.301 83.4559Z" fill="#F6DBA8"/>
<path d="M159.4 94.9409L154.125 104.077H143.576L138.301 94.9409L143.576 85.8047L154.125 85.8047L159.4 94.9409Z" fill="#F6DBA8"/>
<path d="M149.145 115.159L146.257 120.161H140.48L137.592 115.159L140.48 110.156L146.257 110.156L149.145 115.159Z" fill="#F6DBA8"/>
<path d="M160.907 121.741L158.49 125.928H153.655L151.238 121.741L153.655 117.555L158.49 117.555L160.907 121.741Z" fill="#F6DBA8"/>
<path d="M136.806 106.071L132.439 113.634H123.706L119.34 106.071L123.706 98.5078L132.439 98.5078L136.806 106.071Z" fill="#F6DBA8"/>
<path d="M120.502 94.0201L117.133 99.8566H110.393L107.023 94.0201L110.393 88.1836L117.133 88.1836L120.502 94.0201Z" fill="#F6DBA8"/>
</svg>
