<svg width="193" height="64" viewBox="0 0 193 64" fill="none" xmlns="http://www.w3.org/2000/svg">
<path d="M23.7696 0H25.4859C31.4442 0.131589 37.3054 2.56599 41.5151 6.87553C39.9608 8.4875 38.374 10.0337 36.8521 11.6456C34.4882 9.47442 31.6385 7.79666 28.5298 7.20451C23.9315 6.21759 18.977 7.10581 15.1235 9.7705C10.9138 12.5668 8.06415 17.304 7.44889 22.3702C6.76886 27.3705 8.1613 32.6341 11.3672 36.516C14.4435 40.2992 19.1389 42.6678 23.9963 42.8323C28.5298 43.0955 33.2576 41.6809 36.5606 38.4569C39.1512 36.187 40.3494 32.7328 40.738 29.3773C35.3625 29.3773 29.987 29.4102 24.6115 29.3773V22.6004H47.2468C48.4126 29.8707 46.7287 38.0622 41.2885 43.2599C37.6616 46.9444 32.6424 49.1157 27.526 49.5433C22.5715 50.0368 17.455 49.0828 13.051 46.6484C7.77271 43.7863 3.563 38.9504 1.49053 33.2592C-0.452411 28.0285 -0.484793 22.107 1.32862 16.8434C2.98012 12.0404 6.15359 7.79666 10.2338 4.8359C14.152 1.90804 18.9122 0.296076 23.7696 0Z" fill="#F5DAA6"/>
<path d="M153.623 1.71044H160.553V48.6878C158.254 48.6878 155.922 48.7207 153.623 48.6549C153.655 33.0287 153.623 17.3695 153.623 1.71044Z" fill="#F5DAA6"/>
<path d="M62.6611 17.9947C66.9356 17.1722 71.5662 18.0934 75.0959 20.6922C78.3018 22.9951 80.5362 26.6138 81.2162 30.5614C82.0905 35.1342 80.9895 40.1346 78.0751 43.7533C74.934 47.7996 69.7852 49.9708 64.7659 49.6419C60.1676 49.3787 55.6989 47.043 52.9787 43.2269C49.9024 39.016 49.1576 33.2261 50.8415 28.2915C52.5254 22.9951 57.2856 18.9487 62.6611 17.9947ZM63.6326 24.2452C61.8839 24.7057 60.2648 25.7255 59.099 27.173C55.9579 30.9891 56.1522 37.2067 59.6171 40.7596C61.5925 42.7992 64.5716 43.7533 67.3241 43.194C69.8824 42.7334 72.1167 40.9899 73.3473 38.6871C75.4845 34.7723 74.8692 29.3771 71.5986 26.3177C69.4938 24.3438 66.4174 23.5214 63.6326 24.2452Z" fill="#F5DAA6"/>
<path d="M96.9863 17.9947C101.876 17.0406 107.219 18.4223 110.878 21.9094C116.837 27.3375 117.484 37.5028 112.4 43.7532C109.324 47.7009 104.337 49.8721 99.415 49.6419C94.7196 49.5103 90.0889 47.1417 87.304 43.2269C84.1629 38.9173 83.4829 32.9958 85.2639 27.9625C87.045 22.8306 91.708 18.9158 96.9863 17.9947ZM97.9578 24.2451C96.2092 24.7057 94.59 25.7255 93.4243 27.1401C90.3156 30.8904 90.4451 37.0093 93.7805 40.5951C95.7558 42.7334 98.8321 43.7861 101.682 43.194C104.208 42.7005 106.474 40.9899 107.705 38.6871C109.81 34.7394 109.194 29.3442 105.891 26.2848C103.787 24.3109 100.71 23.5214 97.9578 24.2451Z" fill="#F5DAA6"/>
<path d="M126.098 19.9027C129.822 17.534 134.776 16.8761 138.792 18.9157C140.055 19.475 141.091 20.429 142.095 21.383C142.127 20.4948 142.095 19.5737 142.127 18.6526C144.297 18.6855 146.466 18.6526 148.668 18.6855V47.7009C148.636 52.0762 147.535 56.7147 144.426 59.9058C141.026 63.4258 135.813 64.5114 131.117 63.7876C126.098 63.031 121.726 59.3136 119.783 54.6093C121.726 53.6553 123.766 52.8986 125.774 52.0104C126.908 54.708 129.207 57.0108 132.089 57.5372C134.971 58.0635 138.306 57.3398 140.184 54.9054C142.192 52.4052 142.192 48.9839 142.095 45.9244C140.605 47.4048 138.889 48.7207 136.817 49.2141C132.315 50.4971 127.361 48.9181 123.896 45.8257C120.399 42.7334 118.326 37.9633 118.52 33.2261C118.618 27.8638 121.597 22.6989 126.098 19.9027ZM132.801 24.1135C130.826 24.4425 128.98 25.561 127.717 27.1072C124.673 30.7917 124.673 36.6803 127.749 40.299C129.498 42.4373 132.315 43.6216 135.035 43.3255C137.594 43.0623 139.958 41.4175 141.221 39.1476C143.358 35.2986 143.002 30.0679 140.12 26.7124C138.338 24.6399 135.489 23.62 132.801 24.1135Z" fill="#F5DAA6"/>
<path d="M168.875 21.5805C172.761 17.896 178.752 16.6459 183.739 18.5868C188.466 20.3962 191.478 24.9689 193 29.6732C185.973 32.634 178.978 35.5618 171.951 38.5226C172.923 40.3977 174.412 42.1084 176.42 42.7992C179.237 43.8191 182.605 43.4572 184.969 41.5491C185.908 40.8254 186.653 39.8714 187.365 38.9503C189.146 40.1675 190.928 41.3518 192.709 42.569C190.183 46.4179 185.941 49.1155 181.375 49.5432C176.323 50.1682 170.948 48.1944 167.677 44.1809C162.301 37.8646 162.82 27.2717 168.875 21.5805ZM172.34 27.6665C171.239 29.2784 170.786 31.2523 170.818 33.1932C175.513 31.2194 180.209 29.2455 184.904 27.2388C184.127 25.3966 182.249 24.2781 180.338 23.982C177.262 23.4227 174.056 25.1005 172.34 27.6665Z" fill="#F5DAA6"/>
</svg>
