<svg width="164" height="33" viewBox="0 0 164 33" fill="none" xmlns="http://www.w3.org/2000/svg">
<path d="M42.7915 8.33656H45.8451L45.975 10.6755H46.2349C46.6247 9.63595 47.2094 8.98626 48.054 8.59644C48.8986 8.20663 49.8732 8.01172 50.9777 8.01172C52.407 8.01172 53.5764 8.2716 54.3561 8.79135C55.1357 9.3111 55.7204 10.2207 56.0453 11.5201C56.3701 12.8194 56.565 14.6386 56.565 17.0424C56.565 19.4463 56.3701 21.2654 56.0453 22.5648C55.7204 23.8642 55.1357 24.7738 54.3561 25.3585C53.5764 25.8783 52.4719 26.2031 51.0426 26.2031C49.8732 26.2031 48.8337 26.0082 48.054 25.6833C47.2744 25.3585 46.6897 24.7088 46.2999 23.8642H46.105V32.765H42.7266V8.33656H42.7915ZM52.0172 22.8897C52.4719 22.6298 52.7968 22.11 52.9917 21.2654C53.1216 20.4208 53.2516 19.0565 53.2516 17.1724C53.2516 15.2883 53.1866 13.9239 52.9917 13.0793C52.8618 12.2347 52.5369 11.715 52.0172 11.4551C51.5624 11.1952 50.7827 11.0653 49.6783 11.0653C48.8337 11.0653 48.119 11.1952 47.5993 11.4551C47.0795 11.715 46.7547 12.1697 46.5597 12.8194C46.3648 13.2742 46.2349 13.8589 46.2349 14.5086C46.1699 15.1583 46.1699 16.0029 46.1699 17.1074C46.1699 19.0565 46.2999 20.4208 46.4948 21.2005C46.7547 21.9151 47.0795 22.4349 47.5993 22.7597C48.119 23.0846 48.7687 23.2145 49.6783 23.2145C50.7827 23.2795 51.5624 23.1495 52.0172 22.8897Z" fill="#F6DBA8"/>
<path d="M59.6226 25.0962C58.843 24.3165 58.4531 22.9522 58.4531 21.0681C58.4531 19.7037 58.5831 18.6642 58.908 17.8846C59.2328 17.1049 59.6876 16.5852 60.4023 16.1954C61.1169 15.8705 62.0915 15.6756 63.3908 15.6756C64.5603 15.6756 66.2495 15.7406 68.4584 15.8056V14.896C68.4584 13.5966 68.3285 12.687 68.1336 12.1673C67.9387 11.6475 67.5489 11.3227 66.9641 11.1278C66.3794 10.9978 65.4049 10.8679 64.0405 10.8679C63.3908 10.8679 62.6112 10.9329 61.6367 10.9978C60.6621 11.0628 59.9475 11.1278 59.3628 11.2577V8.529C61.1169 8.20416 63.001 8.07422 65.08 8.07422C66.9641 8.07422 68.3935 8.26913 69.368 8.72391C70.3426 9.1787 70.9273 9.82839 71.2521 10.8029C71.577 11.7775 71.7069 13.1418 71.7069 14.961V25.9408H68.6534L68.5234 23.6668H68.3285C67.8737 24.7063 67.224 25.356 66.3145 25.6809C65.4049 26.0057 64.3654 26.2006 63.1959 26.2006C61.6367 26.2656 60.4023 25.8758 59.6226 25.0962ZM66.7692 23.212C67.289 23.0171 67.6788 22.6923 67.9387 22.1725C68.3285 21.4579 68.5234 20.3534 68.5234 18.9241V18.0795H64.3004C63.5858 18.0795 63.066 18.1444 62.7412 18.2744C62.4163 18.4043 62.1564 18.6642 62.0265 19.054C61.8965 19.4438 61.8316 20.0286 61.8316 20.8082C61.8316 21.5878 61.8965 22.1076 62.0265 22.4974C62.1564 22.8872 62.4813 23.1471 62.8711 23.277C63.3259 23.407 63.9756 23.4719 64.8851 23.4719C65.5998 23.4719 66.2495 23.342 66.7692 23.212Z" fill="#F6DBA8"/>
<path d="M85.2193 26.0095L81.2562 19.5776H81.0613L77.1632 26.0095H73.5898L79.1772 17.0438L73.7848 8.33789H77.553L81.3212 14.445H81.5161L85.2843 8.33789H88.8576L83.4652 16.9788L89.1175 25.9446H85.2193V26.0095Z" fill="#F6DBA8"/>
<path d="M106.79 26.0095L103.801 13.9902H103.542L100.553 26.0095H96.46L91.9121 8.33789H95.3555L98.539 21.9165H98.7988L102.112 8.33789H105.361L108.739 21.9165H108.999L112.118 8.33789H115.496L110.883 26.0095H106.79Z" fill="#F6DBA8"/>
<path d="M118.547 25.4874C117.572 24.9677 116.988 24.1231 116.728 22.9536C116.468 21.7842 116.338 19.8351 116.338 17.1713C116.338 14.5076 116.468 12.5585 116.728 11.3891C116.988 10.2196 117.637 9.37504 118.547 8.85529C119.521 8.33553 121.081 8.14062 123.29 8.14062C125.499 8.14062 127.058 8.4005 128.032 8.85529C129.007 9.37504 129.592 10.2196 129.851 11.3891C130.111 12.5585 130.241 14.5076 130.241 17.1713C130.241 19.8351 130.111 21.7842 129.851 22.9536C129.592 24.1231 128.942 24.9677 128.032 25.4874C127.058 26.0072 125.499 26.267 123.29 26.267C121.081 26.267 119.456 26.0072 118.547 25.4874ZM125.888 23.0186C126.343 22.7587 126.668 22.2389 126.798 21.4593C126.928 20.6797 126.993 19.2504 126.993 17.1713C126.993 15.0923 126.928 13.663 126.798 12.8834C126.668 12.1037 126.408 11.584 125.888 11.3241C125.434 11.0642 124.524 10.9343 123.29 10.9343C122.055 10.9343 121.211 11.0642 120.756 11.3241C120.301 11.584 119.976 12.1037 119.846 12.8834C119.716 13.663 119.651 15.0923 119.651 17.1713C119.651 19.2504 119.716 20.6147 119.846 21.4593C119.976 22.2389 120.236 22.7587 120.756 23.0186C121.211 23.2785 122.12 23.4084 123.29 23.4084C124.524 23.4084 125.369 23.2785 125.888 23.0186Z" fill="#F6DBA8"/>
<path d="M133.102 8.3341H136.155L136.285 11.5176H136.545C136.935 10.2182 137.519 9.30863 138.364 8.78888C139.209 8.26913 140.313 8.07422 141.677 8.07422V11.4526C140.313 11.4526 139.274 11.7125 138.494 12.1673C137.714 12.6221 137.195 13.3367 136.935 14.3113C136.61 15.2858 136.48 16.5852 136.48 18.2094V26.0057H133.102V8.3341Z" fill="#F6DBA8"/>
<path d="M143.43 26.0071V0.279297H146.808V26.0071H143.43Z" fill="#F6DBA8"/>
<path d="M151.746 25.4874C150.966 24.9676 150.382 24.058 150.057 22.7586C149.732 21.4593 149.537 19.6401 149.537 17.2363C149.537 14.8324 149.732 13.0133 150.057 11.7139C150.382 10.4145 150.966 9.50493 151.746 8.9202C152.526 8.40045 153.63 8.0756 155.059 8.0756C156.229 8.0756 157.268 8.27051 158.048 8.59536C158.828 8.9202 159.412 9.56989 159.802 10.4145H159.997V0.279297H163.376V26.0071H160.322L160.192 23.6682H159.997C159.607 24.7077 159.023 25.3574 158.178 25.7472C157.333 26.137 156.359 26.267 155.189 26.267C153.695 26.267 152.591 26.0071 151.746 25.4874ZM158.503 22.8236C158.958 22.5637 159.347 22.109 159.542 21.5242C159.737 21.0045 159.867 20.4198 159.932 19.7701C159.997 19.1204 159.997 18.2108 159.997 17.0414C159.997 15.1572 159.867 13.8579 159.607 13.0782C159.412 12.3636 159.023 11.8438 158.568 11.5839C158.048 11.2591 157.333 11.1292 156.424 11.1292C155.319 11.1292 154.54 11.2591 154.085 11.519C153.63 11.7788 153.305 12.2986 153.175 13.1432C153.045 13.9228 152.916 15.2872 152.916 17.2363C152.916 19.1204 152.98 20.5497 153.175 21.3293C153.305 22.1739 153.63 22.6937 154.15 22.9536C154.605 23.2134 155.384 23.3434 156.489 23.3434C157.398 23.2784 158.048 23.0835 158.503 22.8236Z" fill="#F6DBA8"/>
<path d="M89.9609 26.0073V22.6289H93.3393V26.0073H89.9609Z" fill="#F6DBA8"/>
<path d="M21.7136 12.6914V20.344L15.0762 24.1704V17.4548C15.0762 16.9082 15.3885 16.3615 15.8571 16.1273L21.7136 12.6914Z" fill="white"/>
<path d="M13.5134 0.669727L2.19067 7.2291C1.25361 7.77571 0.628906 8.79091 0.628906 9.96221V31.9049C0.628906 32.5296 1.25361 32.842 1.80023 32.6077L6.56361 30.0308C7.50068 29.4842 8.67198 29.5623 9.60904 30.0308L13.5915 32.2954C14.5285 32.842 15.778 32.842 16.7151 32.2954L28.0378 25.736C28.9749 25.1894 29.5996 24.1742 29.5996 23.0029V9.96221C29.5996 8.86899 28.9749 7.85384 28.0378 7.2291L16.637 0.669727C15.6999 0.123112 14.5285 0.123112 13.5134 0.669727ZM20.9318 20.8164L15.9341 23.7057C15.4656 24.0181 14.8409 24.0181 14.3724 23.7057L9.21859 20.8164C8.75006 20.5041 8.43768 20.0356 8.43768 19.489V13.5543C8.43768 13.0076 8.75006 12.461 9.21859 12.2267L14.2943 9.25938C14.7628 8.94707 15.3875 8.94707 15.8561 9.25938L20.9318 12.2267C21.4003 12.5391 21.7127 13.0076 21.7127 13.5543V19.4108C21.7127 20.0356 21.4784 20.5041 20.9318 20.8164Z" fill="#F6DBA8"/>
</svg>
