<svg width="119" height="24" viewBox="0 0 119 24" fill="none" xmlns="http://www.w3.org/2000/svg">
<path d="M30.6762 5.87697H32.8978L32.9924 7.57866H33.1814C33.4651 6.82236 33.8905 6.34966 34.505 6.06605C35.1195 5.78243 35.8285 5.64062 36.6321 5.64062C37.672 5.64062 38.5229 5.8297 39.0901 6.20786C39.6573 6.58601 40.0828 7.24778 40.3191 8.19316C40.5554 9.13855 40.6973 10.4621 40.6973 12.211C40.6973 13.96 40.5554 15.2835 40.3191 16.2289C40.0828 17.1743 39.6573 17.8361 39.0901 18.2615C38.5229 18.6397 37.7193 18.876 36.6794 18.876C35.8285 18.876 35.0722 18.7342 34.505 18.4979C33.9378 18.2615 33.5123 17.7888 33.2287 17.1743H33.0869V23.6502H30.6289V5.87697H30.6762ZM37.3884 16.4653C37.7193 16.2762 37.9556 15.898 38.0974 15.2835C38.192 14.669 38.2865 13.6764 38.2865 12.3056C38.2865 10.9348 38.2393 9.94212 38.0974 9.32763C38.0029 8.71312 37.7666 8.33497 37.3884 8.14589C37.0575 7.95682 36.4903 7.86228 35.6867 7.86228C35.0722 7.86228 34.5523 7.95682 34.1741 8.14589C33.7959 8.33497 33.5596 8.66586 33.4178 9.13855C33.276 9.46943 33.1814 9.89486 33.1814 10.3675C33.1342 10.8402 33.1342 11.4547 33.1342 12.2583C33.1342 13.6764 33.2287 14.669 33.3705 15.2363C33.5596 15.7562 33.7959 16.1344 34.1741 16.3707C34.5523 16.6071 35.0249 16.7016 35.6867 16.7016C36.4903 16.7489 37.0575 16.6544 37.3884 16.4653Z" fill="white"/>
<path d="M42.9212 18.0701C42.354 17.5029 42.0703 16.5102 42.0703 15.1394C42.0703 14.1467 42.1648 13.3904 42.4012 12.8232C42.6376 12.256 42.9685 11.8778 43.4884 11.5942C44.0084 11.3579 44.7174 11.216 45.6628 11.216C46.5137 11.216 47.7427 11.2633 49.3498 11.3106V10.6488C49.3498 9.70343 49.2553 9.04166 49.1135 8.66351C48.9717 8.28535 48.688 8.04901 48.2626 7.9072C47.8372 7.81266 47.1282 7.71812 46.1355 7.71812C45.6628 7.71812 45.0956 7.76539 44.3865 7.81266C43.6775 7.85993 43.1575 7.9072 42.7321 8.00174V6.01643C44.0084 5.78009 45.3792 5.68555 46.8918 5.68555C48.2626 5.68555 49.3025 5.82735 50.0116 6.15824C50.7206 6.48912 51.146 6.96182 51.3824 7.67085C51.6187 8.37989 51.7133 9.37255 51.7133 10.6961V18.6846H49.4916L49.3971 17.0302H49.2553C48.9244 17.7865 48.4517 18.2592 47.7899 18.4955C47.1282 18.7319 46.3719 18.8737 45.521 18.8737C44.3865 18.9209 43.4884 18.6373 42.9212 18.0701ZM48.1208 16.6993C48.499 16.5575 48.7826 16.3211 48.9717 15.943C49.2553 15.423 49.3971 14.6194 49.3971 13.5795V12.965H46.3246C45.8046 12.965 45.4265 13.0123 45.1901 13.1068C44.9538 13.2014 44.7647 13.3904 44.6702 13.674C44.5756 13.9577 44.5284 14.3831 44.5284 14.9503C44.5284 15.5175 44.5756 15.8957 44.6702 16.1793C44.7647 16.4629 45.001 16.652 45.2847 16.7465C45.6155 16.8411 46.0882 16.8884 46.75 16.8884C47.27 16.8884 47.7427 16.7938 48.1208 16.6993Z" fill="white"/>
<path d="M61.5452 18.7342L58.6618 14.0545H58.5199L55.6838 18.7342H53.084L57.1491 12.211L53.2258 5.87695H55.9674L58.709 10.3203H58.8508L61.5924 5.87695H64.1922L60.2689 12.1638L64.3813 18.6869H61.5452V18.7342Z" fill="white"/>
<path d="M77.2387 18.7342L75.0643 9.98938H74.8753L72.7009 18.7342H69.7229L66.4141 5.87695H68.9193L71.2355 15.7562H71.4246L73.8353 5.87695H76.1988L78.6568 15.7562H78.8459L81.1148 5.87695H83.5728L80.2167 18.7342H77.2387Z" fill="white"/>
<path d="M85.7927 18.3553C85.0837 17.9771 84.6582 17.3626 84.4692 16.5118C84.2801 15.6609 84.1855 14.2428 84.1855 12.3048C84.1855 10.3668 84.2801 8.94868 84.4692 8.09784C84.6582 7.24699 85.1309 6.63249 85.7927 6.25434C86.5017 5.87618 87.6362 5.73438 89.2434 5.73438C90.8505 5.73438 91.985 5.92345 92.694 6.25434C93.403 6.63249 93.8285 7.24699 94.0175 8.09784C94.2066 8.94868 94.3012 10.3668 94.3012 12.3048C94.3012 14.2428 94.2066 15.6609 94.0175 16.5118C93.8285 17.3626 93.3558 17.9771 92.694 18.3553C91.985 18.7334 90.8505 18.9225 89.2434 18.9225C87.6362 18.9225 86.4545 18.7334 85.7927 18.3553ZM91.1341 16.559C91.465 16.37 91.7014 15.9918 91.7959 15.4246C91.8904 14.8573 91.9377 13.8174 91.9377 12.3048C91.9377 10.7922 91.8904 9.75226 91.7959 9.18503C91.7014 8.6178 91.5123 8.23964 91.1341 8.05057C90.8032 7.86149 90.1415 7.76695 89.2434 7.76695C88.3452 7.76695 87.7307 7.86149 87.3999 8.05057C87.069 8.23964 86.8326 8.6178 86.7381 9.18503C86.6435 9.75226 86.5963 10.7922 86.5963 12.3048C86.5963 13.8174 86.6435 14.8101 86.7381 15.4246C86.8326 15.9918 87.0217 16.37 87.3999 16.559C87.7307 16.7481 88.3925 16.8426 89.2434 16.8426C90.1415 16.8426 90.756 16.7481 91.1341 16.559Z" fill="white"/>
<path d="M96.3828 5.87462H98.6045L98.699 8.19082H98.8881C99.1717 7.24543 99.5971 6.58366 100.212 6.20551C100.826 5.82735 101.63 5.68555 102.622 5.68555V8.14355C101.63 8.14355 100.873 8.33262 100.306 8.66351C99.7389 8.99439 99.3608 9.51435 99.1717 10.2234C98.9354 10.9324 98.8408 11.8778 98.8408 13.0595V18.7319H96.3828V5.87462Z" fill="white"/>
<path d="M103.896 18.7323V0.0136719H106.354V18.7323H103.896Z" fill="white"/>
<path d="M109.947 18.3541C109.38 17.976 108.954 17.3142 108.718 16.3688C108.482 15.4234 108.34 14.0999 108.34 12.3509C108.34 10.602 108.482 9.27844 108.718 8.33306C108.954 7.38767 109.38 6.7259 109.947 6.30048C110.514 5.92233 111.318 5.68598 112.358 5.68598C113.209 5.68598 113.965 5.82779 114.532 6.06413C115.099 6.30048 115.525 6.77317 115.808 7.38767H115.95V0.0136719H118.408V18.7323H116.187L116.092 17.0306H115.95C115.667 17.7869 115.241 18.2596 114.627 18.5432C114.012 18.8268 113.303 18.9214 112.452 18.9214C111.365 18.9214 110.561 18.7323 109.947 18.3541ZM114.863 16.4161C115.194 16.227 115.477 15.8961 115.619 15.4707C115.761 15.0926 115.856 14.6671 115.903 14.1944C115.95 13.7217 115.95 13.06 115.95 12.2091C115.95 10.8383 115.856 9.89294 115.667 9.32571C115.525 8.80575 115.241 8.42759 114.91 8.23852C114.532 8.00217 114.012 7.90763 113.35 7.90763C112.547 7.90763 111.98 8.00217 111.649 8.19125C111.318 8.38032 111.081 8.75848 110.987 9.37298C110.892 9.94021 110.798 10.9329 110.798 12.3509C110.798 13.7217 110.845 14.7617 110.987 15.3289C111.081 15.9434 111.318 16.3216 111.696 16.5106C112.027 16.6997 112.594 16.7942 113.398 16.7942C114.059 16.747 114.532 16.6052 114.863 16.4161Z" fill="white"/>
<path d="M64.9941 18.7334V16.2754H67.4521V18.7334H64.9941Z" fill="white"/>
<path d="M15.3409 9.04492V14.6127L10.5117 17.3966V12.5106C10.5117 12.1129 10.739 11.7152 11.0799 11.5447L15.3409 9.04492Z" fill="white"/>
<path d="M9.37429 0.298273L1.13628 5.07063C0.454511 5.46832 0 6.20695 0 7.05914V23.0239C0 23.4784 0.45451 23.7056 0.852209 23.5352L4.31787 21.6603C4.99965 21.2626 5.85185 21.3194 6.53362 21.6603L9.43114 23.3079C10.1129 23.7056 11.0219 23.7056 11.7037 23.3079L19.9417 18.5356C20.6235 18.1379 21.078 17.3993 21.078 16.5471V7.05914C21.078 6.26375 20.6235 5.52517 19.9417 5.07063L11.6469 0.298273C10.9651 -0.0994244 10.1129 -0.0994244 9.37429 0.298273ZM14.7716 14.9563L11.1355 17.0584C10.7946 17.2857 10.3401 17.2857 9.99926 17.0584L6.24954 14.9563C5.90865 14.729 5.68138 14.3882 5.68138 13.9905V9.67258C5.68138 9.27489 5.90865 8.8772 6.24954 8.70673L9.94245 6.54779C10.2833 6.32056 10.7378 6.32056 11.0787 6.54779L14.7716 8.70673C15.1125 8.934 15.3398 9.27489 15.3398 9.67258V13.9336C15.3398 14.3882 15.1693 14.729 14.7716 14.9563Z" fill="url(#paint0_radial_1330_3752)"/>
<defs>
<radialGradient id="paint0_radial_1330_3752" cx="0" cy="0" r="1" gradientUnits="userSpaceOnUse" gradientTransform="translate(0.886298 23.649) rotate(-53.2632) scale(25.4368 32.4025)">
<stop stop-color="#F55B18"/>
<stop offset="0.609901" stop-color="#6BBAF3"/>
<stop offset="1" stop-color="#282EC4"/>
</radialGradient>
</defs>
</svg>
