<svg width="2139" height="663" viewBox="0 0 2139 663" fill="none" xmlns="http://www.w3.org/2000/svg">
<g filter="url(#filter0_d)">
<path d="M2029.25 527.324C1987.63 522.91 1946.59 514.096 1906.83 501.025C1865.77 487.398 1826.88 469.19 1788.66 450.212L1787.74 449.757C1749.83 430.931 1712.07 412.176 1672.88 396.813C1633.4 381.304 1592.59 369.455 1550.94 361.418C1509.16 353.564 1466.84 348.857 1424.34 347.337C1403.11 346.543 1381.79 346.158 1360.56 346.725C1339.32 347.372 1318.12 349.113 1297.06 351.94C1254.97 357.851 1213.67 368.406 1173.9 383.412C1134.08 398.355 1095.93 417.107 1057.94 436.335C1053.7 438.478 1049.47 440.627 1045.23 442.776C1011.46 459.911 977.585 477.102 942.56 492.092C903.165 509.33 862.276 522.931 820.403 532.725C799.423 537.441 778.217 541.364 756.897 544.062C735.578 546.76 714.144 548.438 692.666 549.345C671.187 550.252 649.709 550.184 628.276 549.345C606.842 548.506 585.409 547.078 564.067 544.81C478.765 535.876 394.484 514.812 315.85 480.505C240.328 447.933 170.505 403.538 109 349.009V345.535C139.68 370.799 172.12 393.853 206.076 414.522C224.266 425.474 242.774 435.881 261.667 445.518C280.552 455.087 299.823 463.907 319.479 471.979C358.695 488.029 399.059 501.118 440.231 511.138C460.779 516.217 481.555 520.503 502.421 523.972C523.287 527.441 544.199 530.298 565.337 532.452C586.475 534.607 607.432 535.944 628.661 536.602C649.89 537.259 671.051 537.396 692.167 536.602C734.413 535.138 776.446 529.933 817.772 521.047C828.16 518.78 838.366 516.195 848.572 513.519C858.778 510.844 868.917 507.828 879.009 504.676C899.15 498.252 919.048 491.033 938.705 483.022C972.618 469.241 1005.6 453.212 1038.68 437.139C1043.91 434.594 1049.15 432.048 1054.4 429.51C1092.77 410.939 1131.58 392.777 1171.93 378.424C1192.04 371.129 1212.52 364.877 1233.28 359.695C1243.67 357.155 1254.03 355.001 1264.62 352.892C1275.22 350.783 1285.79 349.174 1296.38 347.654C1317.61 344.789 1338.97 343.033 1360.38 342.394C1381.77 341.804 1403.11 341.94 1424.48 342.643C1467.23 343.941 1509.83 348.336 1551.94 355.795C1594.12 363.362 1635.52 374.747 1675.64 389.806C1695.71 397.266 1715.42 405.565 1734.97 414.272C1754.53 422.979 1773.8 432.049 1793.08 441.119C1812.36 450.189 1831.64 458.919 1851.33 466.945C1870.94 474.957 1890.84 481.986 1911.02 488.033C1949.53 499.434 1989.19 506.512 2029.25 509.14V527.324Z" fill="#FAEED7"/>
<path d="M2029.25 490.031C2009.39 487.392 1989.61 484.202 1970.01 479.961C1949.07 475.411 1928.39 469.946 1907.98 463.567C1867.2 450.688 1827.83 434.317 1788.91 417.606C1749.99 400.894 1711.18 384.274 1671.22 370.828C1651.15 364.041 1631.03 358.213 1610.84 353.346C1607.44 352.454 1604.02 351.683 1600.6 350.912L1599.87 350.748C1599.35 350.631 1598.84 350.515 1598.32 350.397C1597.37 350.181 1596.42 349.963 1595.47 349.74L1587.76 347.972L1580.02 346.407L1564.51 343.346L1548.93 340.716C1548.03 340.568 1547.14 340.416 1546.25 340.263L1546.23 340.26C1544.53 339.968 1542.83 339.676 1541.12 339.424L1533.28 338.335L1517.63 336.068L1501.89 334.367C1501.09 334.281 1500.29 334.193 1499.49 334.105C1495.05 333.619 1490.6 333.133 1486.15 332.825C1485.43 332.767 1484.72 332.708 1484.01 332.649L1480.2 332.329C1471.67 331.609 1463.13 330.889 1454.55 330.558L1438.68 329.741C1435.14 329.606 1431.62 329.53 1428.1 329.455C1426.33 329.417 1424.56 329.379 1422.8 329.333L1406.92 328.971H1375.17L1359.29 329.537L1351.4 329.855L1343.51 330.444C1342.8 330.499 1342.09 330.553 1341.39 330.606C1340.7 330.657 1340 330.709 1339.31 330.759L1338.29 330.835C1334.77 331.092 1331.25 331.35 1327.74 331.669C1317.27 332.893 1306.81 334.118 1296.35 335.523C1286.21 336.888 1276.14 338.808 1266.1 340.723L1266.1 340.724L1265.19 340.897C1264.57 341.036 1263.95 341.174 1263.33 341.312C1262.06 341.593 1260.79 341.872 1259.53 342.151L1259.52 342.152L1259.5 342.157C1251.07 344.015 1242.71 345.857 1234.41 348.153C1214.02 353.387 1193.91 359.645 1174.15 366.905C1134.51 381.304 1096.11 398.808 1057.8 416.948C1038.64 425.95 1019.42 434.906 1000.08 443.659C996.878 445.053 993.688 446.47 990.498 447.887C983.986 450.778 977.472 453.67 970.866 456.379L956.169 462.569L941.2 468.329C901.488 484.136 860.489 496.494 818.656 505.266C797.768 509.733 776.607 512.862 755.423 515.424C751.925 515.939 748.387 516.211 744.842 516.483L744.84 516.483L744.838 516.483L744.834 516.484C743.072 516.619 741.308 516.755 739.546 516.92L723.67 518.213C716.563 518.666 709.457 518.938 702.35 519.211L702.332 519.211C698.785 519.347 695.238 519.483 691.69 519.641C649.05 520.507 606.402 518.348 564.067 513.179C521.752 508.176 479.83 500.274 438.598 489.529C397.433 478.59 357.115 464.684 317.96 447.922C278.784 431.343 240.927 411.809 204.716 389.489C171.452 368.98 139.486 346.443 109 322.008V318.617C174.355 367.936 245.32 409.872 321.112 440.348C360.183 456.137 400.275 469.273 441.115 479.666C481.936 489.894 523.41 497.311 565.246 501.864L580.941 503.565C584.325 503.902 587.719 504.135 591.109 504.367C592.968 504.495 594.826 504.622 596.681 504.767L612.444 505.878C612.559 505.885 612.674 505.892 612.788 505.9L612.911 505.908L613.074 505.919C613.348 505.939 613.621 505.959 613.894 505.981C614.314 506.015 614.734 506.05 615.155 506.086C616.87 506.231 618.592 506.377 620.315 506.377L628.207 506.649L644.084 507.17C645.837 507.216 647.59 507.289 649.343 507.362H649.375C652.871 507.508 656.364 507.654 659.847 507.578C663.397 507.555 666.944 507.584 670.489 507.614H670.559C677.501 507.67 684.437 507.727 691.373 507.397C695.217 507.214 699.06 507.065 702.903 506.916L702.907 506.916L702.91 506.916C709.563 506.658 716.213 506.4 722.854 505.969L738.548 504.653C740.234 504.5 741.92 504.37 743.606 504.241C747.157 503.967 750.706 503.694 754.243 503.202C775.087 500.867 795.908 497.964 816.479 493.77C857.74 485.539 898.238 473.867 937.548 458.873L952.313 453.25L966.987 447.309C973.67 444.68 980.279 441.84 986.894 438.998L986.897 438.996L986.907 438.992C989.986 437.669 993.066 436.345 996.155 435.042C1015.52 426.585 1034.78 417.991 1054.08 409.148C1073.38 400.305 1092.82 391.484 1112.42 383.39C1132.01 375.295 1151.79 367.721 1171.95 360.715C1192.12 353.709 1212.53 347.632 1233.19 342.575C1240.56 340.645 1247.99 339.086 1255.44 337.524L1255.44 337.524L1255.45 337.523L1255.47 337.518C1258.42 336.899 1261.38 336.28 1264.33 335.637L1280.02 332.803C1283.45 332.117 1286.91 331.618 1290.37 331.118C1292.18 330.857 1293.98 330.596 1295.79 330.308C1303.86 329.064 1311.93 328.162 1320 327.261L1320.12 327.247L1320.15 327.244C1322.62 326.968 1325.08 326.693 1327.54 326.408C1330.73 326.12 1333.93 325.881 1337.15 325.642C1339.23 325.487 1341.33 325.331 1343.42 325.161L1351.38 324.572L1375.22 323.551L1391.09 323.302L1406.97 323.098L1422.84 323.302C1424 323.322 1425.17 323.337 1426.33 323.351C1427.06 323.36 1427.78 323.368 1428.51 323.375L1428.62 323.377H1428.63C1431.99 323.414 1435.35 323.451 1438.72 323.551L1454.6 324.186C1462.52 324.407 1470.45 324.972 1478.39 325.537L1478.59 325.551C1481.18 325.735 1483.76 325.919 1486.35 326.091C1490.85 326.342 1495.35 326.79 1499.86 327.239L1499.86 327.239L1499.99 327.252L1500.06 327.259C1500.78 327.331 1501.5 327.403 1502.23 327.474L1518.1 329.016L1533.98 331.057L1541.87 332.054C1543.64 332.296 1545.39 332.578 1547.14 332.86L1548.08 333.012L1548.6 333.095L1549.13 333.179L1549.49 333.235L1549.77 333.279L1565.53 335.773L1589.05 340.194L1596.85 341.895C1599.28 342.469 1601.72 342.997 1604.16 343.526L1604.17 343.528L1604.21 343.537C1606.95 344.133 1609.7 344.728 1612.43 345.387C1633.07 350.285 1653.48 356.18 1673.9 362.574C1712.76 374.815 1750.51 390.275 1788.02 405.635L1793.06 407.697C1832.23 423.728 1871.44 439.305 1911.82 450.937C1931.98 456.742 1952.39 461.64 1972.94 465.608C1991.56 469.204 2010.39 471.683 2029.25 473.685V490.031Z" fill="#FAEED7"/>
<path d="M2029.25 452.682C2009.59 449.655 1990.03 446.066 1970.63 441.822C1949.93 437.106 1929.42 431.724 1909.12 425.678C1870.01 413.904 1831.8 399.816 1793.75 385.784L1789.41 384.183C1749.92 369.626 1710.43 355.296 1670.06 343.958C1629.72 332.517 1588.59 324.067 1547 318.676C1505.41 313.31 1463.53 310.629 1421.6 310.649H1405.86L1389.98 310.989C1388.12 311.038 1386.25 311.072 1384.38 311.106L1384.36 311.106C1380.98 311.168 1377.61 311.229 1374.24 311.375L1358.55 312.169C1353.31 312.373 1348.09 312.849 1342.87 313.348C1340.99 313.528 1339.1 313.685 1337.21 313.841L1337.18 313.844C1333.85 314.119 1330.53 314.395 1327.22 314.799C1316.81 316.069 1306.45 317.52 1296.06 318.994C1287.25 320.244 1278.52 321.935 1269.8 323.624L1265.12 324.526C1263.68 324.857 1262.23 325.186 1260.78 325.512L1258 326.14L1257.94 326.154C1250.12 327.915 1242.27 329.681 1234.53 331.782C1214.23 337.02 1194.16 343.051 1174.38 350.035C1134.71 363.844 1096.15 380.442 1057.6 397.312C1038.32 405.769 1018.99 414.204 999.398 422.095C979.802 429.986 960.183 437.831 940.179 444.77C900.283 459.184 859.277 470.317 817.568 478.056C815.719 478.377 813.874 478.727 812.027 479.077C808.662 479.715 805.293 480.354 801.895 480.822L786.132 483.09L778.262 484.246C776.596 484.462 774.931 484.631 773.259 484.802L773.255 484.802C772.858 484.843 772.46 484.883 772.062 484.925C771.491 484.984 770.919 485.044 770.347 485.108L754.47 486.808C750.395 487.298 746.306 487.558 742.225 487.818C741.014 487.895 739.803 487.973 738.594 488.056L722.718 489.053C720.064 489.257 717.41 489.393 714.779 489.393L690.942 490.006C648.559 490.268 606.21 487.571 564.203 481.933C522.181 476.434 480.564 468.193 439.618 457.263C398.773 446.199 358.732 432.358 319.774 415.837L305.168 409.692C300.941 407.904 296.834 405.962 292.684 404L292.68 403.998L290.766 403.094L276.409 396.291L269.219 392.958C266.998 391.901 264.736 390.725 262.602 389.614L262.143 389.376L234.064 374.887L206.485 359.286C172.904 339.567 140.366 318.128 109 295.056V291.801C141.352 314.338 174.794 335.271 209.206 354.525L236.945 369.445L265.182 383.253C265.399 383.362 265.615 383.47 265.831 383.579C266.086 383.707 266.34 383.835 266.595 383.963L266.598 383.965C268.473 384.91 270.337 385.848 272.258 386.7L279.425 390.033L293.805 396.45C295.539 397.202 297.26 397.981 298.982 398.76C302.036 400.14 305.089 401.521 308.207 402.754L322.813 408.626C361.713 424.244 401.568 437.369 442.136 447.921C482.721 458.372 523.943 466.173 565.541 471.276L581.145 473.113L585.024 473.589L620.247 476.446L628.094 476.809L643.766 477.512L651.614 477.897C654.222 478.124 656.83 478.124 659.439 478.124C663.311 478.141 667.184 478.189 671.056 478.237C677.639 478.318 684.223 478.4 690.806 478.328L706.478 477.875L714.303 477.671C716.934 477.625 719.542 477.512 722.151 477.308L737.777 476.265L738.494 476.218C738.869 476.194 739.243 476.17 739.617 476.146L739.646 476.144L739.689 476.142L739.716 476.14C744.286 475.847 748.851 475.554 753.382 475.018L768.986 473.43C769.853 473.339 770.723 473.256 771.593 473.172L771.604 473.171C773.326 473.005 775.051 472.84 776.765 472.614L784.522 471.526L800.036 469.258C804.022 468.734 807.994 467.994 811.953 467.257C813.13 467.037 814.306 466.818 815.481 466.605C817.088 466.314 818.699 466.031 820.311 465.749C823.842 465.13 827.378 464.51 830.881 463.794L853.857 458.873C855.343 458.531 856.815 458.159 858.284 457.787L858.289 457.786C859.351 457.517 860.412 457.248 861.477 456.991L876.651 453.182C881.444 451.984 886.157 450.604 890.903 449.214L890.914 449.211L890.919 449.21L890.928 449.207L890.93 449.206L890.932 449.206L890.936 449.205L891.756 448.965C893.465 448.464 895.176 447.985 896.886 447.506L896.889 447.505C900.216 446.574 903.536 445.644 906.816 444.566C909.498 443.706 912.183 442.862 914.868 442.018L914.874 442.016C922.176 439.719 929.474 437.424 936.686 434.838C956.554 428.172 976.173 420.735 995.656 412.889C1015.14 405.044 1034.51 396.972 1053.92 388.809C1055.11 388.308 1056.3 387.807 1057.49 387.306L1061.03 385.819L1061.03 385.818C1078.07 378.644 1095.13 371.466 1112.37 364.638C1132.01 356.86 1151.86 349.559 1171.93 342.915C1192.01 336.219 1212.32 330.354 1232.87 325.32C1240.29 323.413 1247.79 321.816 1255.29 320.218L1255.29 320.217L1255.3 320.216L1259.45 319.331C1260.91 319.018 1262.37 318.702 1263.83 318.381C1267.23 317.781 1270.63 317.142 1274.02 316.503L1274.04 316.501C1281.03 315.185 1288.01 313.87 1295.06 312.894C1336.86 306.137 1379.28 304.437 1421.44 304.142C1463.71 303.811 1505.96 306.197 1547.93 311.284C1589.93 316.442 1631.51 324.634 1672.33 335.796C1713.2 346.702 1753.16 360.556 1792.86 374.66L1795.14 375.471C1834.07 389.304 1872.9 403.104 1912.47 414.068C1932.59 419.76 1952.96 424.703 1973.42 428.829C1991.91 432.561 2010.56 435.588 2029.25 438.128V452.682Z" fill="#FAEED7"/>
<path d="M2029.25 415.241C1989.2 407.963 1949.3 398.794 1910.25 387.652C1881.41 379.423 1852.81 370.384 1824.26 361.361L1824.21 361.345L1823.99 361.277C1812.67 357.698 1801.36 354.122 1790.04 350.602C1750.1 338.176 1710.19 325.955 1669.36 316.885C1661.95 314.974 1654.54 313.53 1647.13 312.084L1647.13 312.083C1644.33 311.538 1641.54 310.993 1638.74 310.423L1623.39 307.384C1620.85 306.817 1618.26 306.432 1615.68 306.046L1607.94 304.845L1577 300.128L1545.89 296.772C1545.56 296.739 1545.22 296.705 1544.89 296.67C1544.72 296.651 1544.54 296.633 1544.37 296.614C1543.98 296.572 1543.59 296.529 1543.2 296.486C1542.4 296.397 1541.61 296.307 1540.81 296.216L1540.76 296.211C1537.29 295.816 1533.82 295.42 1530.33 295.208L1514.7 294.256C1510.93 294.034 1507.16 293.8 1503.39 293.567C1496.74 293.155 1490.09 292.743 1483.45 292.396L1436.45 291.716H1432.55L1389.48 292.986C1387.59 293.06 1385.69 293.11 1383.79 293.16H1383.78C1380.46 293.248 1377.14 293.336 1373.83 293.553L1358.23 294.596C1337.43 296.342 1316.7 298.654 1296.15 302.192L1288.42 303.439C1286.83 303.705 1285.25 304.015 1283.68 304.326L1283.67 304.326C1283.29 304.402 1282.9 304.478 1282.51 304.553C1281.93 304.668 1281.34 304.781 1280.75 304.89C1280 305.037 1279.24 305.182 1278.49 305.326C1277.74 305.471 1276.98 305.615 1276.23 305.759L1276.22 305.76C1272.6 306.45 1268.99 307.138 1265.4 307.906C1264.19 308.176 1262.99 308.445 1261.79 308.715L1261.6 308.758L1261.57 308.765C1252.66 310.76 1243.77 312.753 1234.96 315.094C1214.75 320.263 1194.72 326.091 1174.95 332.78C1135.8 345.826 1097.49 361.266 1059.06 376.756L1057.73 377.29C1018.86 392.958 979.621 408.128 939.476 420.871C919.517 427.401 899.104 432.934 878.692 438.171C858.166 442.978 837.527 447.491 816.661 450.62L801.011 453.069L785.316 454.973C777.145 456.087 768.947 456.76 760.754 457.432L760.752 457.432C758.438 457.622 756.125 457.812 753.813 458.012L745.92 458.647L738.004 459.009L722.128 459.712C716.798 460.03 711.536 460.03 706.251 460.03L690.375 460.166C648.221 459.835 606.139 456.6 564.43 450.484C481.034 438.536 399.49 416.068 321.747 383.616L307.164 377.63L292.739 371.213C290.083 369.996 287.418 368.793 284.753 367.589L284.749 367.587L284.709 367.57C277.807 364.453 270.902 361.336 264.139 357.971C260.619 356.221 257.084 354.495 253.547 352.769C247.647 349.89 241.743 347.009 235.901 344.004L208.14 329.152C174.199 310.289 141.188 289.915 109 268.317V265.035C142.071 286.272 175.945 306.261 210.658 324.572C247.603 344.082 285.573 361.589 324.401 377.018C401.952 408.031 483.036 429.356 565.813 440.507C567.051 440.672 568.289 440.839 569.527 441.006C578.627 442.233 587.719 443.459 596.863 444.157L620.201 446.334C621.93 446.486 623.67 446.577 625.412 446.668L626.505 446.725C627.005 446.752 627.504 446.78 628.003 446.81L643.608 447.717C645.472 447.807 647.337 447.937 649.201 448.068C652.53 448.301 655.86 448.534 659.189 448.534C662.796 448.596 666.402 448.684 670.008 448.771H670.025C676.821 448.936 683.614 449.101 690.398 449.101L706.002 448.919C707.605 448.884 709.207 448.867 710.807 448.849C714.412 448.809 718.009 448.769 721.606 448.534L744.99 447.377L752.747 446.742C755.068 446.544 757.39 446.357 759.712 446.169L759.737 446.167C767.776 445.517 775.813 444.867 783.796 443.795L799.31 441.799L814.71 439.532C835.304 436.448 855.671 432.049 875.948 427.514C896.156 422.526 916.115 416.857 936.142 410.848C956.169 404.84 975.81 397.924 995.406 390.691C1015 383.458 1034.48 375.907 1053.99 368.311C1058.74 366.46 1063.5 364.6 1068.25 362.739C1083.01 356.962 1097.79 351.176 1112.66 345.636C1132.32 338.244 1152.14 331.329 1172.13 324.889C1212.23 312.049 1253.22 302.196 1294.77 295.412C1315.52 291.897 1336.45 289.607 1357.41 287.929L1373.17 286.818C1376.59 286.567 1380.02 286.46 1383.44 286.353H1383.44C1385.27 286.296 1387.09 286.239 1388.91 286.161L1432.21 284.664H1436.14L1452.01 284.8L1483.54 285.118C1490.48 285.433 1497.42 285.828 1504.36 286.223L1504.42 286.225L1504.47 286.228L1504.57 286.234L1504.59 286.235C1508.06 286.433 1511.54 286.631 1515.02 286.818L1530.76 287.703C1534.07 287.903 1537.37 288.256 1540.67 288.609L1540.67 288.609C1542.61 288.816 1544.54 289.023 1546.48 289.199L1577.84 292.578L1609.05 297.113L1616.85 298.269C1619.46 298.632 1622.07 299.04 1624.63 299.584L1640.12 302.554C1643.2 303.17 1646.28 303.754 1649.37 304.339L1649.39 304.344C1656.64 305.719 1663.88 307.093 1671.04 308.858C1712.18 317.679 1752.55 329.492 1792.7 341.623C1802.25 344.51 1811.79 347.43 1821.33 350.348C1851.86 359.689 1882.34 369.015 1913.06 377.222C1951.44 387.539 1990.17 395.923 2029.25 402.375V415.241Z" fill="#FAEED7"/>
<path d="M2029.25 378.179C1989.54 369.974 1950 360.556 1911.02 349.99C1897.81 346.409 1884.61 342.781 1871.41 339.153L1871.29 339.12L1871.26 339.112L1871.25 339.109C1844.31 331.704 1817.37 324.3 1790.34 317.293C1709.89 295.888 1627.97 279.993 1544.93 274.96L1529.38 273.871C1526.04 273.696 1522.7 273.606 1519.36 273.515L1519.33 273.515C1517.49 273.464 1515.64 273.414 1513.79 273.35L1482.63 272.443C1472.24 272.397 1461.83 272.511 1451.44 272.692C1448.59 272.742 1445.74 272.768 1442.88 272.794C1435.34 272.862 1427.79 272.931 1420.26 273.44L1389.1 274.982C1387.16 275.101 1385.21 275.192 1383.26 275.282L1383.25 275.283C1380.01 275.433 1376.76 275.584 1373.54 275.867L1358.02 277.182C1337.36 279.245 1316.72 281.807 1296.31 285.481L1288.62 286.773L1280.98 288.27C1279.26 288.615 1277.53 288.95 1275.81 289.286C1272.44 289.941 1269.07 290.596 1265.71 291.331L1250.52 294.755C1247.32 295.472 1244.14 296.271 1240.95 297.071L1240.94 297.073C1239.09 297.537 1237.24 298.001 1235.39 298.451C1215.27 303.552 1195.29 309.221 1175.47 315.479C1155.64 321.737 1135.96 328.494 1116.38 335.546C1102.8 340.44 1089.27 345.509 1075.72 350.586L1075.71 350.59L1075.71 350.591C1069.74 352.827 1063.76 355.066 1057.78 357.291C1018.63 371.848 979.099 385.793 938.773 397.13C898.476 408.947 857.356 417.754 815.753 423.478C774.117 429.018 732.12 431.383 690.125 430.553C648.184 429.626 606.354 425.838 564.929 419.216C523.536 412.716 482.563 403.774 442.227 392.437L427.144 388.061C425.431 387.541 423.712 387.046 421.995 386.551L421.993 386.55C418.686 385.597 415.383 384.645 412.13 383.526L382.282 373.776L352.797 363.073C348.82 361.687 344.915 360.125 341.014 358.563C340.481 358.35 339.949 358.137 339.416 357.924C339.131 357.811 338.846 357.697 338.562 357.584L323.584 351.623C284.823 335.841 246.675 318.495 209.705 299.063C175.474 281.07 141.924 261.794 109 241.541V238.298C142.726 258.242 176.972 277.297 212.019 294.709C249.306 313.234 287.318 330.24 326.057 345.364L340.618 350.942C340.859 351.033 341.1 351.124 341.342 351.216C341.833 351.402 342.324 351.588 342.814 351.776C343.284 351.955 343.754 352.134 344.224 352.314L344.229 352.316C347.889 353.714 351.542 355.11 355.247 356.339L384.731 366.565L414.488 375.907C417.899 377.038 421.375 377.995 424.848 378.952C426.387 379.376 427.925 379.799 429.457 380.238L444.449 384.433C484.545 395.311 525.253 403.791 566.357 409.828C586.906 412.912 607.545 415.111 628.207 416.903L643.721 418.014C645.652 418.132 647.577 418.281 649.5 418.43C652.75 418.683 655.995 418.934 659.257 419.034C662.717 419.148 666.174 419.286 669.63 419.425C676.529 419.702 683.424 419.979 690.33 420.054C731.782 420.748 773.226 418.276 814.302 412.663L822.013 411.642L829.679 410.372L845.011 407.856C850.114 407.039 855.195 406.019 860.275 404.999C862.05 404.642 863.828 404.305 865.606 403.968C868.916 403.34 872.226 402.713 875.517 401.96C878.743 401.214 881.978 400.497 885.215 399.781C892.104 398.255 898.997 396.729 905.818 394.908L920.9 391.099L935.892 386.927C975.878 375.794 1015.14 362.03 1054.15 347.881C1059.54 345.939 1064.92 343.986 1070.31 342.032L1070.34 342.022C1084.57 336.864 1098.81 331.7 1113.12 326.703C1132.85 319.81 1152.72 313.234 1172.72 307.135C1212.78 294.805 1253.59 285.087 1294.9 278.043C1315.54 274.438 1336.34 271.921 1357.21 269.903L1372.86 268.543C1376.12 268.245 1379.38 268.08 1382.64 267.916C1384.59 267.817 1386.55 267.718 1388.51 267.59L1419.83 265.912C1429.1 265.248 1438.4 265.156 1447.7 265.064H1447.7C1448.87 265.052 1450.03 265.041 1451.2 265.028C1455.05 264.986 1458.9 264.923 1462.75 264.86C1469.36 264.751 1475.96 264.643 1482.56 264.643L1513.95 265.436C1515.84 265.494 1517.74 265.539 1519.63 265.585L1519.67 265.586C1522.99 265.666 1526.31 265.746 1529.62 265.89L1545.3 266.933C1628.99 271.649 1711.73 287.385 1792.52 308.518C1812.66 313.674 1832.73 319.05 1852.79 324.421L1852.8 324.423L1852.81 324.427C1873.05 329.847 1893.27 335.263 1913.54 340.444C1951.92 350.258 1990.45 359.21 2029.25 366.871V378.179Z" fill="#FAEED7"/>
<path d="M2029.25 340.999C1990.07 331.807 1951.07 321.999 1912.09 312.169C1871.81 302.011 1831.46 292.238 1790.88 283.644L1775.66 280.424L1768.07 278.837L1760.42 277.409L1729.87 271.649L1699.18 266.683L1691.52 265.459L1653.03 260.357C1649.91 260 1646.79 259.693 1643.67 259.385C1642.4 259.26 1641.13 259.135 1639.86 259.007C1639.1 258.93 1638.33 258.851 1637.56 258.77C1634.03 258.436 1630.5 258.073 1626.98 257.709L1626.94 257.706L1626.94 257.706C1620.18 257.01 1613.42 256.313 1606.65 255.822L1575.64 253.759L1567.91 253.26L1560.13 253.011L1544.62 252.535C1528.9 251.794 1513.18 251.877 1497.46 251.96C1492.46 251.987 1487.47 252.013 1482.47 252.013C1478.6 251.979 1474.73 252.136 1470.85 252.293C1469.55 252.345 1468.24 252.398 1466.94 252.444L1435.89 253.623L1428.13 253.94L1389.37 256.775C1387.57 256.917 1385.76 257.04 1383.96 257.163L1383.95 257.163C1380.58 257.393 1377.21 257.622 1373.88 257.976L1358.43 259.564C1337.86 262.035 1317.4 264.983 1297.04 268.634C1276.67 272.284 1256.44 276.57 1236.34 281.626C1216.25 286.682 1196.29 292.079 1176.44 298.02C1156.6 303.961 1136.93 310.287 1117.2 316.908C1100.67 322.454 1084.27 328.128 1067.81 333.823L1067.78 333.832C1064.6 334.932 1061.42 336.033 1058.23 337.133L1043.35 342.19L1028.52 347.042C1020.5 349.708 1012.41 352.21 1004.34 354.704C1003.18 355.064 1002.01 355.424 1000.85 355.784C1000.13 356.007 999.413 356.229 998.695 356.452C992.024 358.523 985.302 360.471 978.577 362.42C975.288 363.373 971.997 364.327 968.711 365.295L953.606 369.377C948.571 370.76 943.536 372.12 938.455 373.345L923.259 377.109C918.202 378.311 913.076 379.512 907.973 380.578C905.873 381.016 903.781 381.493 901.687 381.971L901.675 381.974C898.684 382.655 895.689 383.338 892.663 383.911L877.331 386.927C872.205 387.993 867.057 388.832 861.908 389.671L846.44 392.256L830.881 394.342C829.422 394.527 827.963 394.723 826.503 394.92C822.789 395.42 819.067 395.921 815.323 396.246C773.748 400.793 731.898 402.309 690.103 400.781C648.361 399.247 606.769 394.906 565.609 387.789C524.485 380.788 483.786 371.492 443.701 359.944C403.624 348.448 364.137 334.957 325.444 319.583C286.751 304.21 248.58 287.476 211.293 269.064C176.675 251.971 142.644 233.704 109 214.719V211.599C143.307 230.286 178.007 248.473 213.289 264.915C250.803 282.397 288.929 299.063 327.78 313.824C366.421 328.735 405.783 341.706 445.72 352.688C485.625 363.779 526.12 372.629 567.015 379.195L590.036 382.596C592.133 382.893 594.23 383.129 596.339 383.367L597.748 383.526L613.148 385.34C614.663 385.507 616.174 385.687 617.684 385.868L617.71 385.871C621.323 386.302 624.93 386.733 628.57 386.972C632.569 387.289 636.568 387.637 640.569 387.985L640.612 387.989L640.627 387.99L640.654 387.993C646.926 388.539 653.201 389.084 659.484 389.512L674.952 390.305C676.405 390.376 677.857 390.458 679.307 390.541L679.31 390.541C683.021 390.752 686.726 390.963 690.443 390.963C731.747 392.236 773.089 390.508 814.143 385.793C855.19 380.933 895.87 373.358 935.915 363.119C976.037 353.142 1015.52 340.489 1054.87 327.406C1062.08 325.008 1069.28 322.583 1076.5 320.156C1088.99 315.951 1101.51 311.74 1114.05 307.656C1133.83 301.217 1153.72 295.004 1173.74 289.199C1213.78 277.475 1254.42 267.945 1295.49 260.652C1316.02 256.933 1336.73 254.122 1357.46 251.854L1373.02 250.267C1376.32 249.906 1379.63 249.674 1382.93 249.442C1384.82 249.309 1386.71 249.177 1388.6 249.02L1427.54 246.186L1450.97 245.233L1466.57 244.621C1467.39 244.589 1468.2 244.556 1469.01 244.523C1473.41 244.345 1477.8 244.168 1482.2 244.168C1487.09 244.157 1491.98 244.123 1496.87 244.088C1512.82 243.976 1528.77 243.864 1544.71 244.576L1560.33 245.052L1568.16 245.279L1607.15 247.796C1613.85 248.219 1620.53 248.915 1627.2 249.611L1627.22 249.613C1630.91 249.997 1634.59 250.382 1638.29 250.721C1638.63 250.755 1638.98 250.79 1639.32 250.824L1639.82 250.873C1641.07 250.996 1642.32 251.116 1643.57 251.237L1643.57 251.237C1646.99 251.566 1650.42 251.896 1653.85 252.285L1669.34 254.326L1684.85 256.344L1692.59 257.364L1700.3 258.589L1731.16 263.532L1769.56 270.697L1792.54 275.481C1833.3 284.075 1873.76 293.802 1914.13 303.666C1952.49 313.037 1990.82 322.367 2029.25 331.17V340.999Z" fill="#FAEED7"/>
<path d="M2029.25 303.749C1950.56 282.984 1871.6 263.192 1791.34 250.018L1776.05 247.523C1774.25 247.259 1772.44 246.98 1770.64 246.702L1770.63 246.701C1767.33 246.191 1764.03 245.681 1760.72 245.256L1730.03 241.038C1726.27 240.615 1722.51 240.183 1718.75 239.751L1718.75 239.75C1701.99 237.824 1685.22 235.898 1668.38 234.712C1652.64 233.22 1636.86 232.418 1621.07 231.616C1616.23 231.37 1611.38 231.124 1606.53 230.857L1575.58 230.132C1573.59 230.106 1571.6 230.063 1569.62 230.02L1569.6 230.02L1569.59 230.019C1566.42 229.951 1563.25 229.882 1560.08 229.882H1544.59C1503.27 229.814 1461.97 232.286 1420.78 235.506L1389.93 238.453C1388.23 238.626 1386.52 238.787 1384.82 238.947C1381.38 239.27 1377.94 239.594 1374.51 240.018L1359.16 241.877C1338.59 244.644 1318.17 247.75 1297.92 251.65C1257.32 259.246 1217.24 269.132 1177.44 280.311C1142.33 290.17 1107.6 301.211 1072.77 312.282L1062.61 315.511C1061.33 315.916 1060.05 316.321 1058.78 316.726L1043.92 321.397L1028.97 325.932C1022.69 327.824 1016.36 329.59 1010.02 331.355L1010 331.36C1006.33 332.385 1002.65 333.409 998.99 334.458C989.01 337.315 978.963 339.945 968.847 342.394C967.86 342.633 966.873 342.872 965.886 343.111L965.856 343.118L965.851 343.12C956.734 345.329 947.615 347.538 938.478 349.582C897.837 358.752 856.647 365.289 815.163 369.15C773.64 372.69 731.923 373.364 690.307 371.168C648.74 368.924 607.361 364.008 566.425 356.452C484.571 341.578 404.69 317.497 327.259 287.703C288.566 272.715 250.326 256.593 212.722 239.111C177.751 222.854 143.232 205.635 109 187.967V184.934C143.858 202.349 178.937 219.263 214.559 235.052C252.413 251.831 290.584 267.794 329.323 282.306C406.867 311.216 486.499 334.344 567.9 348.289L583.164 350.761C584.003 350.891 584.842 351.024 585.68 351.158L586.804 351.338C590.687 351.959 594.567 352.579 598.473 353.028C601.956 353.466 605.41 353.944 608.859 354.42C615.585 355.349 622.293 356.276 629.16 356.906C633.481 357.302 637.76 357.737 642.023 358.171C648.007 358.78 653.96 359.386 659.96 359.876L675.383 360.896C680.509 361.259 685.657 361.622 690.806 361.758C731.985 363.699 773.248 362.79 814.302 359.037C855.319 355.004 896.048 348.439 936.255 339.378C976.513 330.422 1016.23 319.084 1055.74 306.863C1057.5 306.318 1059.26 305.773 1061.02 305.227L1069.17 302.702C1104.23 291.835 1139.43 280.927 1174.95 271.196C1215 260.221 1255.48 250.63 1296.42 243.306C1316.86 239.519 1337.45 236.549 1358.07 233.941L1373.56 232.082C1376.89 231.673 1380.21 231.368 1383.54 231.063H1383.54L1383.61 231.057L1383.7 231.048C1384.4 230.984 1385.09 230.921 1385.79 230.856C1386.13 230.824 1386.47 230.792 1386.81 230.759C1387.56 230.688 1388.3 230.616 1389.05 230.54L1420.05 227.57C1461.45 224.282 1502.95 222.014 1544.5 222.014H1560.08C1562.98 221.964 1565.88 222.048 1568.77 222.132H1568.8L1568.8 222.132C1571.09 222.198 1573.37 222.264 1575.64 222.264L1606.81 223.012C1612.07 223.311 1617.33 223.584 1622.6 223.857L1622.6 223.858C1638.08 224.66 1653.56 225.463 1669 226.935C1684.61 228.046 1700.17 229.828 1715.73 231.609L1715.89 231.627C1720.91 232.202 1725.94 232.777 1730.96 233.329L1761.83 237.615C1766.67 238.148 1771.49 238.942 1776.3 239.733L1777.21 239.882L1792.63 242.331C1833.57 249.247 1874.28 257.455 1914.7 266.819C1953.05 275.705 1991.21 285.326 2029.25 295.275V303.749Z" fill="#FAEED7"/>
<path d="M2029.25 266.715C1991.02 255.351 1952.44 245.462 1913.52 237.048L1883.21 230.631L1852.78 225.234C1845.78 223.905 1838.75 222.888 1831.71 221.872L1831.71 221.871L1831.7 221.87L1831.68 221.866C1828.53 221.411 1825.37 220.956 1822.23 220.473L1806.94 218.205C1803.67 217.74 1800.39 217.359 1797.12 216.979C1795.28 216.765 1793.44 216.551 1791.61 216.323C1787.74 215.889 1783.89 215.419 1780.04 214.95L1780 214.945C1773.63 214.168 1767.28 213.393 1760.9 212.786L1730.1 209.997C1723.61 209.437 1717.11 209.051 1710.6 208.664L1710.53 208.66L1710.52 208.659C1706.76 208.436 1703.01 208.213 1699.25 207.956L1683.83 207.027L1668.38 206.505L1652.94 205.961C1647.79 205.779 1642.64 205.598 1637.49 205.598L1606.56 205.394C1603.59 205.342 1600.62 205.402 1597.65 205.463C1595.47 205.508 1593.29 205.553 1591.11 205.553L1560.2 206.188C1557.03 206.271 1553.86 206.424 1550.69 206.576C1548.71 206.671 1546.73 206.767 1544.75 206.845L1513.86 208.296L1483.02 210.564C1481.05 210.72 1479.08 210.86 1477.11 210.999C1473.93 211.224 1470.76 211.449 1467.59 211.743L1452.19 213.239C1448.81 213.572 1445.45 213.891 1442.1 214.208C1435.19 214.863 1428.32 215.514 1421.42 216.278L1390.71 219.974C1388.57 220.249 1386.43 220.504 1384.29 220.76L1384.28 220.761C1381.31 221.115 1378.34 221.47 1375.37 221.878L1360.06 224.146C1339.7 227.23 1319.38 230.608 1299.17 234.622C1258.71 242.422 1218.51 252.058 1178.73 262.579C1145.74 271.306 1112.89 280.86 1079.92 290.451L1072.14 292.714C1067.95 293.932 1063.76 295.149 1059.57 296.365C1019.74 307.906 979.53 317.837 938.705 325.842C897.921 333.797 856.685 339.227 815.231 342.099C732.247 347.109 648.964 341.385 567.446 325.071C486 309.244 406.595 284.664 329.096 255.913C290.38 241.311 252.095 225.71 214.128 209.226C178.764 193.872 143.813 177.77 109 161.324V158.3C144.329 174.566 179.776 190.633 215.625 205.575C253.705 221.448 292.058 236.753 330.82 250.925C408.432 278.973 487.769 302.6 568.83 317.52C609.313 325.048 650.211 330.144 691.305 332.78C732.359 335.369 773.541 335.202 814.574 332.281C855.586 329.252 896.383 323.808 936.754 315.978C977.126 307.906 1017.02 297.77 1056.71 286.501C1062.19 284.945 1067.67 283.385 1073.16 281.824L1073.48 281.733C1107.61 272.018 1141.85 262.274 1176.28 253.351C1216.36 242.966 1256.71 233.715 1297.53 226.141C1317.9 222.287 1338.5 219.044 1358.91 216.096L1374.31 213.965C1377.94 213.484 1381.57 213.059 1385.21 212.635L1387.53 212.363C1387.95 212.314 1388.38 212.264 1388.8 212.214L1420.55 208.432C1426.72 207.781 1432.9 207.202 1439.07 206.623L1439.07 206.623C1443.21 206.236 1447.34 205.849 1451.47 205.439L1466.94 203.988C1470.37 203.67 1473.82 203.433 1477.28 203.196L1477.29 203.195C1479 203.077 1480.71 202.959 1482.43 202.832L1513.41 200.564L1544.46 199.158C1544.87 199.142 1545.28 199.125 1545.7 199.108C1546.11 199.091 1546.52 199.073 1546.93 199.055C1547.98 199.009 1549.04 198.96 1550.1 198.912C1553.39 198.761 1556.68 198.61 1559.97 198.524L1591.04 197.979C1596.21 197.821 1601.39 197.821 1606.58 197.821L1637.65 198.115C1642.03 198.096 1646.4 198.256 1650.78 198.415L1684.24 199.635L1699.73 200.61C1703.38 200.866 1707.04 201.091 1710.69 201.317L1710.72 201.318C1717.39 201.729 1724.07 202.141 1730.73 202.741L1761.69 205.598C1768.22 206.231 1774.74 207.037 1781.26 207.842L1781.27 207.843L1781.28 207.845C1785.04 208.309 1788.79 208.773 1792.54 209.203C1794.5 209.454 1796.46 209.688 1798.42 209.922L1798.43 209.923L1798.44 209.924C1801.62 210.303 1804.8 210.682 1807.96 211.131L1823.34 213.398C1826.61 213.911 1829.88 214.392 1833.15 214.872C1840.13 215.899 1847.09 216.922 1854.03 218.251L1884.6 223.738L1915.04 230.041C1953.49 238.511 1991.56 248.344 2029.25 259.54V266.715Z" fill="#FAEED7"/>
<path d="M2029.25 229.784C1991.56 217.322 1953.11 207.229 1914.15 199.567L1883.8 193.966L1853.3 189.544L1845.68 188.411C1844.08 188.196 1842.47 188.027 1840.86 187.858L1840.83 187.855C1840.28 187.797 1839.73 187.738 1839.17 187.678C1838.79 187.636 1838.4 187.594 1838.01 187.549L1822.68 185.848L1807.35 184.17C1804.03 183.802 1800.69 183.558 1797.36 183.314C1796.67 183.264 1795.99 183.214 1795.3 183.163C1794.19 183.08 1793.08 182.994 1791.97 182.901C1750.99 179.182 1709.8 178.23 1668.66 178.366L1637.79 178.797L1606.94 179.976C1596.65 180.248 1586.35 180.951 1576.1 181.654C1572.78 181.881 1569.45 182.081 1566.12 182.28L1566.1 182.281L1566.08 182.282L1566.07 182.282C1559.15 182.697 1552.21 183.112 1545.3 183.785C1463.19 190.293 1381.53 201.581 1300.73 217.593C1219.97 233.715 1140.31 254.757 1060.54 276.003C1020.45 286.524 979.983 295.223 939.158 302.101C898.269 308.981 856.996 313.342 815.572 315.162C732.697 318.654 649.686 310.491 568.626 293.712C487.565 276.932 408.501 252.149 330.865 224.101C292.081 209.974 253.638 194.918 215.398 179.386C179.731 164.899 144.32 149.8 109 134.531V131.691C144.794 146.773 180.727 161.721 216.782 175.985C255.066 191.132 293.578 205.847 332.453 219.588C410.224 246.888 489.312 270.878 569.986 286.909C650.661 302.94 733.105 310.219 815.141 305.956C856.153 303.837 897.004 299.294 937.48 292.351C977.965 285.435 1018.04 276.229 1057.91 266.026C1070.24 262.871 1082.58 259.675 1094.93 256.476C1122.52 249.329 1150.18 242.166 1177.89 235.415C1218.02 225.642 1258.39 216.709 1298.99 208.908C1380.21 193.44 1462.24 182.525 1544.68 176.212C1552.78 175.463 1560.89 175.022 1569 174.582L1569.03 174.58L1569.14 174.574L1569.25 174.569C1570.38 174.507 1571.52 174.445 1572.65 174.383C1573.64 174.328 1574.63 174.273 1575.62 174.216C1576.86 174.146 1578.09 174.073 1579.33 173.999C1580.11 173.952 1580.9 173.905 1581.68 173.857L1582.79 173.79L1582.83 173.787L1582.83 173.787C1590.75 173.307 1598.67 172.826 1606.6 172.652L1637.58 171.586L1668.59 171.291C1709.94 171.314 1751.33 172.448 1792.52 176.28C1794.41 176.447 1796.31 176.592 1798.2 176.737L1798.21 176.738C1801.47 176.987 1804.72 177.237 1807.96 177.595L1838.78 181.132L1839.36 181.197C1839.86 181.253 1840.36 181.308 1840.86 181.362L1840.9 181.367L1840.91 181.368C1842.78 181.572 1844.64 181.776 1846.5 182.039L1854.16 183.195L1884.85 187.73L1915.35 193.49C1953.9 201.244 1991.94 211.35 2029.25 223.751V229.784Z" fill="#FAEED7"/>
<path d="M2029.25 192.661C2011.4 186.01 1993.23 180.248 1974.8 175.395C1954.93 170.165 1934.9 165.796 1914.7 162.289C1874.19 155.417 1833.28 151.221 1792.22 149.728C1710.12 146.417 1627.83 151.451 1546.16 161.065C1464.49 170.679 1383.31 184.465 1302.66 200.882C1262.33 208.999 1222.03 217.955 1181.98 227.139C1158.76 232.462 1135.56 237.968 1112.34 243.48L1112.33 243.484L1112.31 243.488L1112.3 243.491C1095.48 247.484 1078.64 251.481 1061.77 255.414C981.322 274.211 899.059 286.864 816.207 288.655C774.804 289.556 733.385 287.776 692.212 283.326C651.092 278.846 610.25 272.102 569.873 263.123C489.107 245.256 410.202 220.699 332.453 193.104C257.277 166.423 182.95 137.579 109 107.885V105.042L112.598 106.414C147.736 119.808 182.818 133.182 218.052 146.122C256.699 160.317 295.483 174.284 334.449 187.526C412.356 214.078 491.262 238.431 571.619 255.323C651.977 272.216 734.035 281.422 816.071 279.358C898.106 277.295 979.621 264.484 1059.52 245.551C1219.63 206.981 1381 170.135 1545.25 151.678C1627.33 142.698 1710.09 138.073 1792.72 142.086C1834.05 144.043 1875.21 148.747 1915.92 156.167C1954.6 163.105 1992.55 173.649 2029.25 187.658V192.661Z" fill="#FAEED7"/>
</g>
<rect x="109" y="105" width="200" height="445" fill="url(#paint0_linear)"/>
<rect x="2029" y="550" width="200" height="445" transform="rotate(-180 2029 550)" fill="url(#paint1_linear)"/>
<defs>
<filter id="filter0_d" x="0" y="0.0419922" width="2138.25" height="662.958" filterUnits="userSpaceOnUse" color-interpolation-filters="sRGB">
<feFlood flood-opacity="0" result="BackgroundImageFix"/>
<feColorMatrix in="SourceAlpha" type="matrix" values="0 0 0 0 0 0 0 0 0 0 0 0 0 0 0 0 0 0 127 0" result="hardAlpha"/>
<feMorphology radius="19" operator="dilate" in="SourceAlpha" result="effect1_dropShadow"/>
<feOffset dy="4"/>
<feGaussianBlur stdDeviation="45"/>
<feComposite in2="hardAlpha" operator="out"/>
<feColorMatrix type="matrix" values="0 0 0 0 0.792157 0 0 0 0 0.635294 0 0 0 0 0.164706 0 0 0 0.85 0"/>
<feBlend mode="normal" in2="BackgroundImageFix" result="effect1_dropShadow"/>
<feBlend mode="normal" in="SourceGraphic" in2="effect1_dropShadow" result="shape"/>
</filter>
<linearGradient id="paint0_linear" x1="109" y1="311.019" x2="309" y2="311.019" gradientUnits="userSpaceOnUse">
<stop stop-color="#05060B"/>
<stop offset="1" stop-color="#05060B" stop-opacity="0"/>
</linearGradient>
<linearGradient id="paint1_linear" x1="2029" y1="756.019" x2="2229" y2="756.019" gradientUnits="userSpaceOnUse">
<stop stop-color="#05060B"/>
<stop offset="1" stop-color="#05060B" stop-opacity="0"/>
</linearGradient>
</defs>
</svg>
