<svg width="142" height="56" viewBox="0 0 142 56" fill="none" xmlns="http://www.w3.org/2000/svg">
<path d="M0.000244141 0V3.83138H27.6403V0H0.000244141ZM31.5563 0V3.83138H70.9447C70.9447 3.83138 66.9214 0 61.5927 0H31.5563ZM78.6715 0V3.83138H102.501L101.086 0H78.6715ZM119.585 0L118.171 3.83138H141.784V0H119.585ZM0.000244141 7.45108V11.2825H27.6403V7.45108H0.000244141ZM31.5563 7.45654V11.2826H75.5153C75.5153 11.2826 75.0019 8.33378 74.1064 7.45654H31.5563ZM78.6715 7.45654V11.2826H105.113L103.804 7.45654H78.6715ZM116.756 7.45654L115.447 11.2826H141.784V7.45654H116.756ZM7.9433 14.9022V18.739H19.9135V14.9022H7.9433ZM39.4995 14.9022V18.739H51.4697V14.9022H39.4995ZM63.1126 14.9022V18.739H75.0827C75.0827 18.739 75.8427 16.7128 75.8427 14.9022H63.1126ZM86.6147 14.9022V18.739H107.837L106.423 14.9022H86.6147ZM114.149 14.9022L112.729 18.739H134.057V14.9022H114.149ZM7.9433 22.3588V26.1902H19.9135V22.3588H7.9433ZM39.4995 22.3588V26.1902H70.0738C70.0738 26.1902 72.6315 24.2243 73.4463 22.3588H39.4995ZM86.6147 22.3588V26.1902H98.5849V24.0575L99.3449 26.1902H121.272L122.087 24.0575V26.1902H134.057V22.3588H111.587L110.394 25.604L109.196 22.3588H86.6147ZM7.9433 29.8099V33.6413H19.9135V29.8099H7.9433ZM39.4995 29.8099V33.6413H73.4463C72.6314 31.782 70.0738 29.8099 70.0738 29.8099H39.4995ZM86.6147 29.8099V33.6413H98.5849V29.8099H86.6147ZM100.759 29.8099L102.207 33.6413H118.648L120.023 29.8099H100.759ZM122.087 29.8099V33.6413H134.057V29.8099H122.087ZM7.9433 37.261V41.0922H19.9135V37.261H7.9433ZM39.4995 37.261V41.0922H51.4697V37.261H39.4995ZM63.1126 37.261V41.0922H75.8426C75.8426 39.2841 75.0826 37.261 75.0826 37.261H63.1126ZM86.6147 37.261V41.0922H98.5849V37.261H86.6147ZM103.477 37.261L104.881 41.0922H115.902L117.317 37.261H103.477ZM122.087 37.261V41.0922H134.057V37.261H122.087ZM0.21651 44.7121V48.5489H27.8565V44.7121H0.21651ZM31.5563 44.7121V48.5489H74.1064C75.0019 47.6704 75.5153 44.7121 75.5153 44.7121H31.5563ZM78.8879 44.7121V48.5489H98.5849V44.7121H78.8879ZM106.201 44.7121L107.643 48.5489H113.251L114.604 44.7121H106.201ZM122.087 44.7121V48.5489H142V44.7121H122.087ZM0.21651 52.1686V56H27.8565V52.1686H0.21651ZM31.5563 52.1686V55.9945H61.5927C66.9214 55.9945 70.9447 52.1686 70.9447 52.1686H31.5563ZM78.8879 52.1686V56H98.5849V52.1686H78.8879ZM108.935 52.1686L110.322 55.9892L110.561 55.9945L111.97 52.1686H108.935ZM122.087 52.1686V56H142V52.1686H122.087Z" fill="#F5DAA6"/>
</svg>
