<svg width="300" height="139" viewBox="0 0 300 139" fill="none" xmlns="http://www.w3.org/2000/svg">
<g clip-path="url(#clip0_1465_496)">
<path d="M149.063 36.6025H144.203V37.613H144.737C160.552 37.613 163.717 48.0735 163.717 58.9252C163.717 78.0593 152.939 80.2284 147.134 80.2284H144.203V81.2419H149.134C162.362 81.2419 171.08 72.7342 171.08 58.9252C171.08 50.4827 166.241 36.6025 149.063 36.6025Z" fill="#F6DBA8"/>
<path d="M170.705 45.2953H177.293V37.6707H183.358V36.6543H165.021V37.6707H170.705V45.2953Z" fill="#F6DBA8"/>
<path d="M213.056 37.6707V36.6543H194.716V37.6707H200.791V57.836H177.846V58.8495H200.791V80.2802H194.716V81.2936H213.056V80.2802H207.372V37.6707H213.056Z" fill="#F6DBA8"/>
<path d="M197.071 102.569L191.337 86.25L190.119 90.2031L192.546 97.2113H187.983L187.855 97.5876H192.662L194.387 102.569H192.049V102.945H199.054V102.569H197.071Z" fill="#F6DBA8"/>
<path d="M125.429 86.7835H123.037V86.4131H130.265V86.7835H127.867V102.569H130.86C135.45 102.569 136.894 101.988 136.894 97.5462H137.276V102.945H123.04V102.569H125.431V86.7835H125.429Z" fill="#F6DBA8"/>
<path d="M166.77 98.0129H164.574V97.6336H171.253V98.0129H169.36V100.804C168.548 101.439 166.533 103.314 162.918 103.314C158.645 103.314 155.367 100.224 155.367 94.6674C155.367 89.852 158.882 86.0293 162.918 86.0293C165.558 86.0293 166.731 87.6236 167.514 87.6236C168.231 87.6236 168.349 87.0279 168.349 86.4501H168.741V91.4759H168.349C168.261 88.963 165.914 86.4116 162.918 86.4116C158.665 86.4116 158.09 91.5974 158.09 94.6703C158.09 97.7433 158.665 102.944 162.918 102.944C165.226 102.944 166.77 102.224 166.77 100.081V98.0129Z" fill="#F6DBA8"/>
<path d="M173.491 86.7835H171.103V86.4131H178.44C181.193 86.4131 184.189 87.0206 184.189 90.5647C184.189 93.4332 180.807 94.1858 179.059 94.3933V94.4377C181.818 94.6718 183.276 95.2675 183.631 98.3671L183.969 101.236C184.141 102.622 184.808 102.717 185.211 102.717C185.644 102.717 185.952 102.572 186.189 102.474L186.337 102.785C185.857 102.948 185.255 103.088 184.378 103.088C181.45 103.088 181.285 101.564 180.953 98.859L180.784 97.4544C180.618 95.9727 180.194 94.6303 177.483 94.6303H175.927V102.572H178.378V102.948H171.1V102.572H173.488V86.7865L173.491 86.7835ZM175.93 94.251H177.133C179.954 94.251 181.599 93.282 181.599 90.5647C181.599 88.683 180.956 86.7835 177.563 86.7835H175.93V94.251Z" fill="#F6DBA8"/>
<path d="M92.7354 37.5535H87.0547V36.54H99.5095L113.07 70.2684L126.363 36.54H138.628V37.5535H132.947V80.1629H138.628V81.1764H120.297V80.1629H126.363V39.9686H126.233L110.483 80.1629H109.899L93.894 40.7242H93.7636V74.906C93.7636 79.0843 94.3444 80.1659 97.7611 80.1659H100.342V81.1794H87.0547V80.1659H88.726C92.1516 80.1659 92.7354 79.0843 92.7354 74.906V37.5535Z" fill="#F6DBA8"/>
<path d="M213.055 86.7835V86.4131H208.512L203.575 98.9094L198.558 86.4131H195.918L202.411 102.569H202.624L208.453 87.6695H208.512V102.569H206.26V102.945H213.055V102.569H210.948V86.7835H213.055Z" fill="#F6DBA8"/>
<path d="M89.292 86.7855H87.0547V86.4121H94.2763V86.7855H91.8849V94.2501H101.139V86.7855H98.7479V86.4121H105.97V86.7855H103.735V102.559H105.97V102.936H98.7479V102.559H101.139V94.6264H91.8849V102.559H94.2763V102.936H87.0547V102.559H89.292V86.7855Z" fill="#F6DBA8"/>
<path d="M114.73 86.0215C119.027 86.0215 122.76 89.8471 122.76 94.6595C122.76 99.472 119.027 103.298 114.73 103.298C110.433 103.298 106.699 99.4749 106.699 94.6595C106.699 89.8442 110.433 86.0215 114.73 86.0215ZM114.73 102.921C119.255 102.921 119.865 97.7325 119.865 94.6566C119.865 91.5807 119.255 86.3949 114.73 86.3949C110.205 86.3949 109.594 91.5807 109.594 94.6566C109.594 97.7325 110.205 102.921 114.73 102.921Z" fill="#F6DBA8"/>
<path d="M145.961 86.0215C150.258 86.0215 153.992 89.8471 153.992 94.6595C153.992 99.472 150.255 103.298 145.961 103.298C141.667 103.298 137.928 99.4749 137.928 94.6595C137.928 89.8442 141.664 86.0215 145.961 86.0215ZM145.961 102.921C150.486 102.921 151.094 97.7325 151.094 94.6566C151.094 91.5807 150.486 86.3949 145.961 86.3949C141.436 86.3949 140.826 91.5807 140.826 94.6566C140.826 97.7325 141.436 102.921 145.961 102.921Z" fill="#F6DBA8"/>
</g>
<defs>
<clipPath id="clip0_1465_496">
<rect width="126" height="66.7753" fill="white" transform="translate(87.0547 36.5391)"/>
</clipPath>
</defs>
</svg>
