<svg width="300" height="301" viewBox="0 0 300 301" fill="none" xmlns="http://www.w3.org/2000/svg">
<rect x="1" y="1.60864" width="298" height="298" fill="#05060B" stroke="#F6DBA8" stroke-width="2"/>
<path d="M62.38 223.827V243.627H60.1V231.177L60.37 225.957H60.34L53.83 243.627H51.79L45.28 225.957H45.25L45.52 231.177V243.627H43.24V223.827H46.93L51.28 235.857L52.78 240.807H52.84L54.37 235.887L58.69 223.827H62.38ZM74.4311 243.927C73.0111 243.927 71.7411 243.617 70.6211 242.997C69.5211 242.377 68.6611 241.487 68.0411 240.327C67.4211 239.147 67.1111 237.747 67.1111 236.127C67.1111 234.507 67.4211 233.117 68.0411 231.957C68.6611 230.777 69.5111 229.877 70.5911 229.257C71.6711 228.637 72.9011 228.327 74.2811 228.327C75.6811 228.327 76.8711 228.627 77.8511 229.227C78.8511 229.827 79.6111 230.647 80.1311 231.687C80.6511 232.707 80.9111 233.857 80.9111 235.137C80.9111 235.477 80.9011 235.787 80.8811 236.067C80.8611 236.347 80.8311 236.597 80.7911 236.817H68.6711V234.687H79.7411L78.5111 234.927C78.5111 233.487 78.1111 232.377 77.3111 231.597C76.5311 230.817 75.5011 230.427 74.2211 230.427C73.2411 230.427 72.3911 230.657 71.6711 231.117C70.9711 231.557 70.4211 232.207 70.0211 233.067C69.6411 233.907 69.4511 234.927 69.4511 236.127C69.4511 237.307 69.6511 238.327 70.0511 239.187C70.4511 240.047 71.0111 240.707 71.7311 241.167C72.4711 241.607 73.3511 241.827 74.3711 241.827C75.4711 241.827 76.3611 241.617 77.0411 241.197C77.7411 240.777 78.3011 240.207 78.7211 239.487L80.6111 240.597C80.2311 241.277 79.7411 241.867 79.1411 242.367C78.5611 242.867 77.8711 243.257 77.0711 243.537C76.2911 243.797 75.4111 243.927 74.4311 243.927ZM91.3255 243.927C90.0855 243.927 88.9455 243.617 87.9055 242.997C86.8655 242.377 86.0355 241.487 85.4155 240.327C84.7955 239.147 84.4855 237.747 84.4855 236.127C84.4855 234.467 84.8155 233.057 85.4755 231.897C86.1355 230.737 87.0055 229.857 88.0855 229.257C89.1655 228.637 90.3255 228.327 91.5655 228.327C92.8055 228.327 93.8755 228.647 94.7755 229.287C95.6955 229.927 96.3055 230.777 96.6055 231.837L96.3055 232.047V221.727H98.7055V243.627H96.6055L96.3955 239.997L96.7255 239.817C96.5855 240.697 96.2455 241.447 95.7055 242.067C95.1855 242.667 94.5355 243.127 93.7555 243.447C92.9955 243.767 92.1855 243.927 91.3255 243.927ZM91.5655 241.827C92.5255 241.827 93.3555 241.587 94.0555 241.107C94.7755 240.627 95.3255 239.947 95.7055 239.067C96.1055 238.167 96.3055 237.117 96.3055 235.917C96.3055 234.777 96.1055 233.797 95.7055 232.977C95.3255 232.157 94.7855 231.527 94.0855 231.087C93.4055 230.647 92.6055 230.427 91.6855 230.427C90.1655 230.427 88.9855 230.947 88.1455 231.987C87.3055 233.027 86.8855 234.407 86.8855 236.127C86.8855 237.847 87.2955 239.227 88.1155 240.267C88.9355 241.307 90.0855 241.827 91.5655 241.827ZM128.058 223.827V226.077H121.158V243.627H118.758V226.077H111.858V223.827H128.058ZM134.753 243.927C133.333 243.927 132.063 243.617 130.943 242.997C129.843 242.377 128.983 241.487 128.363 240.327C127.743 239.147 127.433 237.747 127.433 236.127C127.433 234.507 127.743 233.117 128.363 231.957C128.983 230.777 129.833 229.877 130.913 229.257C131.993 228.637 133.223 228.327 134.603 228.327C136.003 228.327 137.193 228.627 138.173 229.227C139.173 229.827 139.933 230.647 140.453 231.687C140.973 232.707 141.233 233.857 141.233 235.137C141.233 235.477 141.223 235.787 141.203 236.067C141.183 236.347 141.153 236.597 141.113 236.817H128.993V234.687H140.063L138.833 234.927C138.833 233.487 138.433 232.377 137.633 231.597C136.853 230.817 135.823 230.427 134.543 230.427C133.563 230.427 132.713 230.657 131.993 231.117C131.293 231.557 130.743 232.207 130.343 233.067C129.963 233.907 129.773 234.927 129.773 236.127C129.773 237.307 129.973 238.327 130.373 239.187C130.773 240.047 131.333 240.707 132.053 241.167C132.793 241.607 133.673 241.827 134.693 241.827C135.793 241.827 136.683 241.617 137.363 241.197C138.063 240.777 138.623 240.207 139.043 239.487L140.933 240.597C140.553 241.277 140.063 241.867 139.463 242.367C138.883 242.867 138.193 243.257 137.393 243.537C136.613 243.797 135.733 243.927 134.753 243.927ZM152.008 228.327C153.048 228.327 153.958 228.487 154.738 228.807C155.538 229.127 156.228 229.587 156.808 230.187C157.388 230.787 157.858 231.497 158.218 232.317L155.938 233.397C155.618 232.437 155.128 231.707 154.468 231.207C153.828 230.687 152.988 230.427 151.948 230.427C150.948 230.427 150.088 230.657 149.368 231.117C148.648 231.557 148.098 232.207 147.718 233.067C147.338 233.907 147.148 234.927 147.148 236.127C147.148 237.307 147.338 238.327 147.718 239.187C148.098 240.047 148.648 240.707 149.368 241.167C150.088 241.607 150.948 241.827 151.948 241.827C152.728 241.827 153.398 241.707 153.958 241.467C154.538 241.227 155.008 240.877 155.368 240.417C155.748 239.957 156.008 239.397 156.148 238.737L158.368 239.517C158.028 240.437 157.558 241.227 156.958 241.887C156.378 242.547 155.668 243.057 154.828 243.417C154.008 243.757 153.068 243.927 152.008 243.927C150.608 243.927 149.358 243.617 148.258 242.997C147.158 242.377 146.298 241.487 145.678 240.327C145.058 239.147 144.748 237.747 144.748 236.127C144.748 234.507 145.058 233.117 145.678 231.957C146.298 230.777 147.158 229.877 148.258 229.257C149.358 228.637 150.608 228.327 152.008 228.327ZM162.585 243.627V221.727H164.985V230.877C165.505 229.977 166.195 229.327 167.055 228.927C167.915 228.527 168.855 228.327 169.875 228.327C170.955 228.327 171.935 228.537 172.815 228.957C173.695 229.357 174.395 229.977 174.915 230.817C175.455 231.657 175.725 232.727 175.725 234.027V243.627H173.325V234.867C173.325 233.207 172.965 232.057 172.245 231.417C171.545 230.757 170.675 230.427 169.635 230.427C168.915 230.427 168.195 230.597 167.475 230.937C166.755 231.277 166.155 231.837 165.675 232.617C165.215 233.377 164.985 234.397 164.985 235.677V243.627H162.585Z" fill="#F6DBA8"/>
</svg>
