<svg width="301" height="140" viewBox="0 0 301 140" fill="none" xmlns="http://www.w3.org/2000/svg">
<g clip-path="url(#clip0_1318_1382)">
<path d="M108.298 71.2871C109.03 71.2871 109.487 72.0192 109.121 72.605L104.225 80.4477C103.859 81.0335 102.945 81.0335 102.579 80.4477L97.6834 72.605C97.3177 72.0192 97.7748 71.2871 98.5061 71.2871H108.298Z" fill="#F6DBA8"/>
<path d="M113.912 69.5004C113.181 69.5004 112.724 68.7682 113.09 68.1825L117.986 60.3397C118.351 59.754 119.266 59.754 119.631 60.3397L124.527 68.1825C124.893 68.7682 124.436 69.5003 123.705 69.5004H113.912Z" fill="#F6DBA8"/>
<path d="M111.81 67.4698C111.445 68.0559 110.531 68.0569 110.164 67.4716L105.258 59.6342C104.892 59.0489 105.348 58.3162 106.079 58.3154L115.871 58.3047C116.603 58.3039 117.061 59.0355 116.696 59.6217L111.81 67.4698Z" fill="#F6DBA8"/>
<path d="M102.62 60.5379C102.985 59.9517 103.899 59.9507 104.265 60.5361L109.171 68.3735C109.538 68.9588 109.082 69.6914 108.35 69.6922L98.558 69.7029C97.8267 69.7038 97.3687 68.9721 97.7336 68.386L102.62 60.5379Z" fill="#F6DBA8"/>
<path d="M120.302 80.1085C119.937 80.6946 119.023 80.6956 118.656 80.1103L113.75 72.2729C113.384 71.6876 113.84 70.9549 114.571 70.9541L124.364 70.9434C125.095 70.9426 125.553 71.6742 125.188 72.2604L120.302 80.1085Z" fill="#F6DBA8"/>
<path d="M166.18 58.375H172.388L164.402 78.8527H158.305L150.375 58.375H156.867L161.473 73.48L166.18 58.375Z" fill="#F6DBA8"/>
<path d="M179.949 58.375H174.086V78.8527H179.949V58.375Z" fill="#F6DBA8"/>
<path d="M181.684 78.8521L189.231 68.4816L182.008 58.4121H189.089L192.782 64.3433L196.392 58.4121H203.274L196.012 68.391L203.554 78.8521H196.352L192.549 72.6953L188.703 78.8521H181.684Z" fill="#F6DBA8"/>
<path d="M145.582 68.7818C145.582 66.6128 145.15 64.9503 144.286 63.7945C143.422 62.6244 142.18 62.0393 140.56 62.0393C138.924 62.0393 137.674 62.6244 136.81 63.7945C135.946 64.9503 135.514 66.6128 135.514 68.7818C135.514 70.9509 135.946 72.6205 136.81 73.7906C137.674 74.9465 138.924 75.5244 140.56 75.5244C142.18 75.5244 143.422 74.9465 144.286 73.7906C145.15 72.6205 145.582 70.9509 145.582 68.7818ZM151.253 68.7818C151.253 70.3373 151.021 71.7785 150.558 73.1056C150.111 74.4327 149.44 75.5815 148.545 76.5518C147.65 77.5222 146.531 78.2856 145.189 78.8422C143.862 79.3987 142.319 79.677 140.56 79.677C138.832 79.677 137.304 79.3987 135.977 78.8422C134.65 78.2856 133.531 77.5222 132.621 76.5518C131.711 75.5815 131.016 74.4327 130.538 73.1056C130.075 71.7785 129.844 70.3373 129.844 68.7818C129.844 67.2264 130.075 65.7851 130.538 64.458C131.016 63.1309 131.711 61.9822 132.621 61.0118C133.531 60.0272 134.65 59.2638 135.977 58.7215C137.304 58.165 138.832 57.8867 140.56 57.8867C142.319 57.8867 143.862 58.165 145.189 58.7215C146.531 59.2638 147.65 60.0272 148.545 61.0118C149.44 61.9822 150.111 63.1309 150.558 64.458C151.021 65.7851 151.253 67.2264 151.253 68.7818Z" fill="#F6DBA8"/>
<path d="M147.203 61.6484L149.42 64.1343L134.241 75.7141L132.023 73.2282L147.203 61.6484Z" fill="#F6DBA8"/>
</g>
<defs>
<clipPath id="clip0_1318_1382">
<rect width="106" height="23" fill="white" transform="translate(97.5547 57.8887)"/>
</clipPath>
</defs>
</svg>
