<svg width="301" height="140" viewBox="0 0 301 140" fill="none" xmlns="http://www.w3.org/2000/svg">
<path d="M112.344 61.6435H115.291L115.416 63.9005H115.667C116.043 62.8974 116.607 62.2705 117.422 61.8943C118.237 61.5182 119.178 61.3301 120.243 61.3301C121.623 61.3301 122.751 61.5809 123.503 62.0824C124.256 62.5839 124.82 63.4617 125.133 64.7155C125.447 65.9694 125.635 67.7248 125.635 70.0445C125.635 72.3641 125.447 74.1195 125.133 75.3734C124.82 76.6273 124.256 77.505 123.503 78.0692C122.751 78.5707 121.685 78.8842 120.306 78.8842C119.178 78.8842 118.174 78.6961 117.422 78.3827C116.67 78.0692 116.106 77.4423 115.729 76.6273H115.541V85.2162H112.281V61.6435H112.344ZM121.246 75.6869C121.685 75.4361 121.999 74.9345 122.187 74.1195C122.312 73.3045 122.438 71.9879 122.438 70.1698C122.438 68.3517 122.375 67.0352 122.187 66.2202C122.061 65.4051 121.748 64.9036 121.246 64.6528C120.808 64.4021 120.055 64.2767 118.989 64.2767C118.174 64.2767 117.485 64.4021 116.983 64.6528C116.482 64.9036 116.168 65.3425 115.98 65.9694C115.792 66.4082 115.667 66.9725 115.667 67.5994C115.604 68.2263 115.604 69.0414 115.604 70.1071C115.604 71.9879 115.729 73.3045 115.917 74.0568C116.168 74.7465 116.482 75.248 116.983 75.5615C117.485 75.8749 118.112 76.0003 118.989 76.0003C120.055 76.063 120.808 75.9376 121.246 75.6869Z" fill="#F6DBA8"/>
<path d="M128.582 77.8202C127.829 77.0679 127.453 75.7513 127.453 73.9332C127.453 72.6166 127.579 71.6135 127.892 70.8612C128.205 70.1089 128.644 69.6074 129.334 69.2312C130.024 68.9177 130.964 68.7297 132.218 68.7297C133.346 68.7297 134.976 68.7923 137.108 68.855V67.9773C137.108 66.7235 136.983 65.8458 136.794 65.3442C136.606 64.8427 136.23 64.5292 135.666 64.3411C135.102 64.2157 134.161 64.0903 132.845 64.0903C132.218 64.0903 131.466 64.153 130.525 64.2157C129.585 64.2784 128.895 64.3411 128.331 64.4665V61.8334C130.024 61.5199 131.842 61.3945 133.848 61.3945C135.666 61.3945 137.045 61.5826 137.986 62.0215C138.926 62.4603 139.49 63.0873 139.804 64.0277C140.117 64.9681 140.243 66.2846 140.243 68.04V78.6352H137.296L137.171 76.4409H136.983C136.544 77.444 135.917 78.071 135.039 78.3844C134.161 78.6979 133.158 78.886 132.03 78.886C130.525 78.9487 129.334 78.5725 128.582 77.8202ZM135.478 76.0021C135.979 75.814 136.356 75.5005 136.606 74.999C136.983 74.3094 137.171 73.2436 137.171 71.8643V71.0493H133.096C132.406 71.0493 131.904 71.112 131.591 71.2374C131.277 71.3628 131.027 71.6135 130.901 71.9897C130.776 72.3659 130.713 72.9301 130.713 73.6824C130.713 74.4347 130.776 74.9363 130.901 75.3125C131.027 75.6886 131.34 75.9394 131.716 76.0648C132.155 76.1902 132.782 76.2529 133.66 76.2529C134.349 76.2529 134.976 76.1275 135.478 76.0021Z" fill="#F6DBA8"/>
<path d="M153.281 78.6971L149.456 72.4905H149.268L145.507 78.6971H142.059L147.45 70.0454L142.247 61.6445H145.883L149.519 67.5377H149.707L153.343 61.6445H156.792L151.588 69.9827L157.042 78.6344H153.281V78.6971Z" fill="#F6DBA8"/>
<path d="M174.095 78.6971L171.211 67.0989H170.96L168.076 78.6971H164.127L159.738 61.6445H163.061L166.133 74.7474H166.384L169.581 61.6445H172.716L175.976 74.7474H176.227L179.236 61.6445H182.496L178.045 78.6971H174.095Z" fill="#F6DBA8"/>
<path d="M185.444 78.1962C184.504 77.6946 183.939 76.8796 183.689 75.7511C183.438 74.6226 183.312 72.7418 183.312 70.1714C183.312 67.601 183.438 65.7202 183.689 64.5917C183.939 63.4632 184.566 62.6482 185.444 62.1467C186.384 61.6451 187.889 61.457 190.021 61.457C192.152 61.457 193.657 61.7078 194.597 62.1467C195.538 62.6482 196.102 63.4632 196.353 64.5917C196.603 65.7202 196.729 67.601 196.729 70.1714C196.729 72.7418 196.603 74.6226 196.353 75.7511C196.102 76.8796 195.475 77.6946 194.597 78.1962C193.657 78.6977 192.152 78.9485 190.021 78.9485C187.889 78.9485 186.322 78.6977 185.444 78.1962ZM192.528 75.8138C192.967 75.563 193.281 75.0615 193.406 74.3092C193.532 73.5568 193.594 72.1776 193.594 70.1714C193.594 68.1652 193.532 66.786 193.406 66.0336C193.281 65.2813 193.03 64.7798 192.528 64.529C192.09 64.2782 191.212 64.1528 190.021 64.1528C188.83 64.1528 188.014 64.2782 187.576 64.529C187.137 64.7798 186.823 65.2813 186.698 66.0336C186.573 66.786 186.51 68.1652 186.51 70.1714C186.51 72.1776 186.573 73.4942 186.698 74.3092C186.823 75.0615 187.074 75.563 187.576 75.8138C188.014 76.0646 188.892 76.19 190.021 76.19C191.212 76.19 192.027 76.0646 192.528 75.8138Z" fill="#F6DBA8"/>
<path d="M199.484 61.6453H202.431L202.556 64.7173H202.807C203.183 63.4634 203.748 62.5857 204.563 62.0842C205.378 61.5826 206.443 61.3945 207.76 61.3945V64.6546C206.443 64.6546 205.44 64.9054 204.688 65.3442C203.936 65.7831 203.434 66.4727 203.183 67.4131C202.87 68.3535 202.744 69.6074 202.744 71.1747V78.6979H199.484V61.6453Z" fill="#F6DBA8"/>
<path d="M209.453 78.6977V53.8711H212.713V78.6977H209.453Z" fill="#F6DBA8"/>
<path d="M217.479 78.1961C216.727 77.6946 216.163 76.8169 215.849 75.563C215.536 74.3091 215.348 72.5537 215.348 70.2341C215.348 67.9144 215.536 66.159 215.849 64.9051C216.163 63.6513 216.727 62.7735 217.479 62.2093C218.232 61.7078 219.297 61.3943 220.677 61.3943C221.805 61.3943 222.808 61.5824 223.56 61.8958C224.313 62.2093 224.877 62.8362 225.253 63.6513H225.441V53.8711H228.701V78.6977H225.755L225.629 76.4407H225.441C225.065 77.4438 224.501 78.0707 223.686 78.4469C222.871 78.823 221.93 78.9484 220.802 78.9484C219.36 78.9484 218.294 78.6977 217.479 78.1961ZM223.999 75.6257C224.438 75.3749 224.814 74.9361 225.002 74.3718C225.191 73.8703 225.316 73.306 225.379 72.6791C225.441 72.0522 225.441 71.1745 225.441 70.046C225.441 68.2279 225.316 66.974 225.065 66.2217C224.877 65.5321 224.501 65.0305 224.062 64.7797C223.56 64.4663 222.871 64.3409 221.993 64.3409C220.927 64.3409 220.175 64.4663 219.736 64.717C219.297 64.9678 218.984 65.4694 218.858 66.2844C218.733 67.0367 218.608 68.3533 218.608 70.2341C218.608 72.0522 218.67 73.4314 218.858 74.1837C218.984 74.9987 219.297 75.5003 219.799 75.7511C220.238 76.0018 220.99 76.1272 222.056 76.1272C222.934 76.0645 223.56 75.8765 223.999 75.6257Z" fill="#F6DBA8"/>
<path d="M157.855 78.6976V75.4375H161.116V78.6976H157.855Z" fill="#F6DBA8"/>
<path d="M91.9987 65.8516V73.2361L85.5938 76.9284V70.4481C85.5938 69.9206 85.8952 69.3931 86.3473 69.1671L91.9987 65.8516Z" fill="#F6DBA8"/>
<path d="M84.0855 54.2472L73.1594 60.5768C72.2552 61.1042 71.6523 62.0839 71.6523 63.2141V84.3882C71.6523 84.991 72.2552 85.2924 72.7826 85.0663L77.3792 82.5797C78.2834 82.0522 79.4137 82.1276 80.3179 82.5797L84.1609 84.765C85.0651 85.2924 86.2708 85.2924 87.175 84.765L98.1011 78.4353C99.0053 77.9079 99.6081 76.9283 99.6081 75.798V63.2141C99.6081 62.1592 99.0053 61.1796 98.1011 60.5768L87.0996 54.2472C86.1954 53.7197 85.0651 53.7197 84.0855 54.2472ZM91.244 73.6881L86.4214 76.4762C85.9693 76.7776 85.3665 76.7776 84.9144 76.4762L79.9411 73.6881C79.489 73.3867 79.1876 72.9346 79.1876 72.4072V66.6803C79.1876 66.1529 79.489 65.6254 79.9411 65.3993L84.839 62.5359C85.2912 62.2345 85.894 62.2345 86.3461 62.5359L91.244 65.3993C91.6961 65.7008 91.9976 66.1529 91.9976 66.6803V72.3318C91.9976 72.9346 91.7715 73.3867 91.244 73.6881Z" fill="#F6DBA8"/>
</svg>
