<svg width="301" height="139" viewBox="0 0 301 139" fill="none" xmlns="http://www.w3.org/2000/svg">
<path fill-rule="evenodd" clip-rule="evenodd" d="M101.569 58.1024V47.8847H95.8829V54.4972C95.5379 54.1038 95.1754 53.7226 94.7959 53.3547C91.0794 49.7523 86.0386 47.7285 80.7826 47.7285C76.863 47.7285 73.0315 48.8551 69.7725 50.9658C66.5134 53.0766 63.9734 56.0766 62.4734 59.5866C60.9734 63.0966 60.581 66.9589 61.3456 70.6852C62.1103 74.4114 63.9978 77.8341 66.7693 80.5205C69.0183 82.7004 71.7674 84.3161 74.7781 85.2439C74.0035 87.1113 73.342 89.0302 72.8006 90.9915C72.7896 91.02 72.7845 91.0503 72.7856 91.0807C72.7866 91.1111 72.7939 91.1411 72.8069 91.1688C72.8198 91.1965 72.8384 91.2215 72.8613 91.2422C72.8842 91.263 72.9112 91.2792 72.9406 91.2899C72.97 91.3006 73.0013 91.3056 73.0327 91.3045C73.0641 91.3035 73.0949 91.2965 73.1235 91.2839C73.1521 91.2713 73.1779 91.2534 73.1993 91.2311C73.2208 91.2089 73.2375 91.1828 73.2485 91.1543C74.2571 89.2656 75.3826 87.4506 76.6153 85.7173C76.7154 85.7381 76.8158 85.7583 76.9164 85.7777C80.7606 86.5189 84.7453 86.1384 88.3666 84.6846C91.2807 83.5145 93.8542 81.6916 95.8829 79.378V85.9904H126.084V80.4816H101.569V66.9885C101.79 66.9101 102.011 66.8331 102.234 66.7576C103.317 66.6189 103.733 67.3862 104.308 68.4475C105.146 69.9945 106.322 72.1661 110.398 73.0673C113.117 73.6685 115.972 73.4667 118.742 73.1563C119.414 73.0803 120.117 72.9913 120.811 72.8893C124.972 72.2837 128.358 72.3554 131.016 72.4552C131.524 72.4726 131.575 71.969 131.24 71.7954C125.612 68.9086 118.382 69.3014 116.834 69.3883H116.386C115.397 69.3883 114.416 69.1842 113.645 68.583L113.563 68.5157C113.174 68.1645 112.897 67.712 112.767 67.2125C112.637 66.713 112.658 66.1876 112.828 65.6993C112.997 65.2111 113.309 64.7808 113.725 64.4599C114.141 64.139 114.644 63.9413 115.173 63.8903C116.068 63.8903 116.209 63.9164 117.609 64.4959C118.653 64.9843 119.32 65.312 119.32 65.312C121.322 66.3973 121.848 65.9328 121.848 65.9328L123.272 64.9647C124.795 63.9706 124.36 63.3716 124.36 63.3716L124.112 62.8202C123.494 61.7654 123.319 59.9139 123.319 59.9139C123.265 58.2708 121.389 56.771 121.389 56.771L120.825 56.2392C120.341 55.7878 121.125 54.9109 121.859 54.5462C121.879 54.5357 121.894 54.52 121.905 54.5009C121.915 54.4819 121.919 54.4603 121.917 54.4389C121.915 54.4175 121.906 54.3971 121.893 54.3803C121.879 54.3636 121.86 54.3511 121.839 54.3444C120.251 53.8734 117.248 54.2597 116.075 54.4898C113.8 54.5461 111.538 54.8497 109.333 55.3949C106.643 56.1043 104.05 57.0132 101.569 58.1024ZM88.6353 55.5462C86.3109 54.0408 83.5782 53.2373 80.7826 53.2373C77.0354 53.2419 73.443 54.6868 70.7933 57.2551C68.1436 59.8234 66.6529 63.3055 66.6482 66.9376C66.6482 69.6473 67.4772 72.2961 69.0303 74.5491C70.5834 76.8021 72.7909 78.5582 75.3736 79.5951C75.9751 79.8366 76.5907 80.0366 77.2157 80.1946C81.2096 72.9883 86.9789 66.7782 94.0357 62.1754C93.974 62.0142 93.9092 61.854 93.8412 61.6947C92.7714 59.1913 90.9597 57.0516 88.6353 55.5462ZM94.5431 70.0684C89.3496 72.8118 84.6862 76.3898 80.748 80.6379C81.6809 80.6402 82.6162 80.5529 83.5401 80.3747C86.2819 79.8461 88.8005 78.5413 90.7772 76.6252C92.6398 74.8198 93.9426 72.5481 94.5431 70.0684Z" fill="#F6DBA8"/>
<path fill-rule="evenodd" clip-rule="evenodd" d="M154.807 65.1002C155.834 65.1077 156.84 64.8265 157.705 64.2906L158.771 65.2152L160.146 63.7415L159.143 62.9167C159.707 62.1169 160.007 61.1701 160.005 60.2013C160.005 57.4817 157.84 55.3112 154.834 55.3112C151.829 55.3112 149.637 57.4904 149.637 60.21C149.637 62.9297 151.796 65.1002 154.807 65.1002ZM156.111 62.9197L154.528 61.623L155.894 60.1362L157.497 61.5405C157.682 61.1228 157.772 60.6712 157.761 60.2165C157.761 58.5952 156.536 57.2451 154.807 57.2451C153.079 57.2451 151.881 58.5691 151.881 60.2165C151.881 61.864 153.108 63.1901 154.834 63.1901C155.275 63.1879 155.71 63.0957 156.111 62.9197Z" fill="#F6DBA8"/>
<path d="M161.637 57.6899V62.376C161.637 64.0387 162.579 65.0653 164.174 65.0653C165.242 65.0653 165.873 64.5118 166.362 63.9041V64.9416H168.48V57.6899H166.362V61.7292C166.362 62.7016 165.846 63.2008 165.038 63.2008C164.23 63.2008 163.755 62.7016 163.755 61.7292V57.6899H161.637Z" fill="#F6DBA8"/>
<path fill-rule="evenodd" clip-rule="evenodd" d="M169.927 62.8232C169.927 61.243 171.168 60.5137 172.937 60.5137C173.56 60.5116 174.178 60.6145 174.764 60.8176V60.6874C174.764 59.8365 174.22 59.3633 173.161 59.3633C172.454 59.3645 171.754 59.4979 171.099 59.7562L170.568 58.1891C171.48 57.7831 172.476 57.5841 173.479 57.6074C174.637 57.6074 175.472 57.9048 176.003 58.4192C176.533 58.9336 176.809 59.7562 176.809 60.7286V64.9416H174.762V64.1472C174.478 64.4519 174.129 64.6923 173.738 64.851C173.348 65.0097 172.926 65.0829 172.503 65.0653C171.087 65.0653 169.927 64.2904 169.927 62.8232ZM174.791 62.376V62.0114C174.368 61.8316 173.91 61.7399 173.448 61.7422C172.552 61.7422 171.983 62.0939 171.983 62.7689C171.983 63.3224 172.458 63.648 173.141 63.648C174.122 63.6393 174.791 63.1205 174.791 62.376Z" fill="#F6DBA8"/>
<path d="M180.742 57.6899H178.624V64.9416H180.742V60.8914C180.742 59.919 181.258 59.4176 182.066 59.4176C182.874 59.4176 183.349 59.919 183.349 60.8914V64.9416H185.467V60.2424C185.467 58.5798 184.534 57.5532 182.93 57.5532C181.862 57.5532 181.228 58.1088 180.742 58.7166V57.6899Z" fill="#F6DBA8"/>
<path d="M187.656 62.8776V59.446H186.76V57.69H187.656V55.8386H189.777V57.69H191.532V59.446H189.777V62.539C189.777 63.0121 189.985 63.2422 190.449 63.2422C190.815 63.245 191.177 63.1576 191.499 62.9883V64.6357C190.993 64.9244 190.413 65.0696 189.826 65.0546C188.532 65.0524 187.656 64.5532 187.656 62.8776Z" fill="#F6DBA8"/>
<path d="M193.034 57.6899V62.376C193.034 64.0387 193.97 65.0653 195.569 65.0653C196.639 65.0653 197.271 64.5118 197.759 63.9041V64.9416H199.877V57.6899H197.759V61.7292C197.759 62.7016 197.242 63.2008 196.433 63.2008C195.625 63.2008 195.153 62.7016 195.153 61.7292V57.6899H193.034Z" fill="#F6DBA8"/>
<path d="M201.767 57.6897H203.885V58.7164C204.373 58.1086 205.005 57.553 206.086 57.553C207.063 57.553 207.801 57.9719 208.191 58.7033C208.482 58.3405 208.856 58.0479 209.284 57.8484C209.711 57.6488 210.18 57.5477 210.654 57.553C212.222 57.553 213.176 58.4733 213.176 60.2162V64.9414H211.057V60.8912C211.057 59.9188 210.61 59.4174 209.817 59.4174C209.024 59.4174 208.534 59.9188 208.534 60.8912V64.9414H206.415V60.8912C206.415 59.9188 205.967 59.4174 205.175 59.4174C204.382 59.4174 203.894 59.9188 203.894 60.8912V64.9414H201.767V57.6897Z" fill="#F6DBA8"/>
<path d="M221.56 55.4735H219.415V64.9413H226.426V63.0378H221.56V55.4735Z" fill="#F6DBA8"/>
<path fill-rule="evenodd" clip-rule="evenodd" d="M227.317 61.3234C227.317 59.257 228.835 57.5532 231.01 57.5532C233.504 57.5532 234.646 59.4328 234.646 61.4861C234.646 61.6445 234.633 61.8302 234.62 62.0185L234.619 62.0266H229.42C229.63 62.9578 230.298 63.444 231.247 63.444C231.957 63.444 232.472 63.2269 233.059 62.7016L234.27 63.7413C233.905 64.1816 233.439 64.533 232.909 64.7674C232.379 65.0019 231.8 65.1128 231.218 65.0914C228.974 65.0914 227.317 63.5655 227.317 61.3234ZM232.584 60.7417C232.458 59.8235 231.912 59.2028 231.016 59.2028C230.121 59.2028 229.568 59.8105 229.4 60.7417H232.584Z" fill="#F6DBA8"/>
<path fill-rule="evenodd" clip-rule="evenodd" d="M238.786 60.5141C237.014 60.5141 235.774 61.2434 235.774 62.8235C235.774 64.2908 236.932 65.0657 238.338 65.0657C238.761 65.0833 239.183 65.0101 239.573 64.8514C239.964 64.6926 240.314 64.4523 240.597 64.1476V64.942H242.646V60.729C242.646 59.7566 242.369 58.934 241.838 58.4196C241.307 57.9051 240.472 57.6078 239.314 57.6078C238.315 57.5859 237.324 57.7848 236.417 58.1895L236.945 59.7566C237.6 59.4982 238.3 59.3648 239.007 59.3637C240.067 59.3637 240.611 59.8369 240.611 60.6878V60.818C240.025 60.6149 239.408 60.512 238.786 60.5141ZM240.638 62.0118V62.3764C240.638 63.1209 239.97 63.6397 238.987 63.6483C238.304 63.6483 237.83 63.3228 237.83 62.7693C237.83 62.0943 238.387 61.7426 239.294 61.7426C239.756 61.7401 240.214 61.8318 240.638 62.0118Z" fill="#F6DBA8"/>
<path fill-rule="evenodd" clip-rule="evenodd" d="M244.474 57.6898H246.593V58.7295C246.85 58.3623 247.197 58.0632 247.603 57.8592C248.01 57.6553 248.462 57.553 248.919 57.5617C250.662 57.5617 252.321 58.8858 252.321 61.3319C252.321 63.7781 250.691 65.0739 248.919 65.0739C248.471 65.0822 248.027 64.9883 247.623 64.7998C247.219 64.6113 246.866 64.3335 246.593 63.9887V67.0925H244.474V57.6898ZM250.203 61.2972C250.203 60.0947 249.365 59.296 248.378 59.296C247.39 59.296 246.564 60.0947 246.564 61.3233C246.564 62.5518 247.388 63.3223 248.378 63.3223C249.367 63.3223 250.203 62.5388 250.203 61.2972Z" fill="#F6DBA8"/>
<path d="M150.668 79.6988L149.401 81.1726C150.541 82.1499 152.01 82.6881 153.532 82.6854C155.637 82.6854 157.115 81.6306 157.115 79.7531C157.115 78.0774 156 77.3894 154.02 76.888C152.334 76.4712 151.915 76.2672 151.915 75.6464C151.915 75.1602 152.35 74.7956 153.172 74.7956C153.994 74.7956 154.844 75.1472 155.707 75.7267L156.826 74.1596C155.8 73.3617 154.518 72.9363 153.203 72.9571C151.21 72.9571 149.788 74.0923 149.788 75.8092C149.788 77.7128 151.058 78.2402 153.022 78.7264C154.652 79.1323 154.988 79.4014 154.988 79.9289C154.988 80.5106 154.457 80.847 153.579 80.847C152.46 80.847 151.546 80.402 150.668 79.6988Z" fill="#F6DBA8"/>
<path d="M159.045 80.4956V77.064H158.149V75.3081H159.045V73.4588H161.163V75.3081H162.919V77.064H161.163V80.1592C161.163 80.6324 161.371 80.8603 161.846 80.8603C162.211 80.8624 162.571 80.7743 162.892 80.6042V82.2516C162.386 82.5412 161.806 82.6864 161.219 82.6705C159.922 82.6705 159.045 82.1713 159.045 80.4956Z" fill="#F6DBA8"/>
<path d="M166.609 75.3078H164.48L164.491 82.54H166.609V79.8659C166.609 78.136 167.474 77.3134 168.88 77.3134H168.992V75.1732C167.729 75.119 167.042 75.7679 166.609 76.7664V75.3078Z" fill="#F6DBA8"/>
<path fill-rule="evenodd" clip-rule="evenodd" d="M169.52 80.4417C169.52 78.8615 170.76 78.1322 172.529 78.1322C173.151 78.1267 173.769 78.2274 174.354 78.4296V78.308C174.354 77.4572 173.812 76.984 172.753 76.984C172.045 76.9851 171.344 77.1185 170.689 77.3769L170.16 75.8098C171.069 75.4049 172.06 75.206 173.06 75.2281C174.215 75.2281 175.053 75.5254 175.581 76.0377C176.11 76.5499 176.39 77.3769 176.39 78.3493V82.5492H174.341V81.7657C174.058 82.0711 173.709 82.3121 173.319 82.4712C172.928 82.6304 172.507 82.7037 172.084 82.686C170.666 82.686 169.52 81.9024 169.52 80.4417ZM174.383 80.0075V79.6429C173.96 79.4617 173.502 79.3692 173.04 79.3716C172.144 79.3716 171.578 79.7232 171.578 80.4004C171.578 80.9539 172.05 81.2686 172.733 81.2686C173.705 81.2664 174.374 80.739 174.374 79.9967L174.383 80.0075Z" fill="#F6DBA8"/>
<path d="M178.478 77.064V80.4956C178.478 82.1713 179.373 82.6705 180.65 82.6705C181.236 82.6868 181.815 82.5416 182.32 82.2516V80.6042C182.001 80.7745 181.641 80.8626 181.277 80.8603C180.813 80.8603 180.605 80.6324 180.605 80.1592V77.064H182.351V75.3081H180.596V73.4588H178.478V75.3081H177.582V77.064H178.478Z" fill="#F6DBA8"/>
<path fill-rule="evenodd" clip-rule="evenodd" d="M183.35 78.9436C183.35 76.8751 184.868 75.1734 187.042 75.1734C189.537 75.1734 190.681 77.0509 190.681 79.1042C190.681 79.2442 190.67 79.4035 190.658 79.5655L190.652 79.6447H185.455C185.663 80.578 186.332 81.0642 187.28 81.0642C187.99 81.0642 188.507 80.8472 189.091 80.3197L190.303 81.3616C189.938 81.8018 189.472 82.1532 188.942 82.3877C188.412 82.6221 187.833 82.733 187.251 82.7116C185.007 82.7116 183.35 81.1857 183.35 78.9436ZM188.617 78.3619C188.491 77.4438 187.945 76.8208 187.049 76.8208C186.153 76.8208 185.6 77.4286 185.432 78.3619H188.617Z" fill="#F6DBA8"/>
<path fill-rule="evenodd" clip-rule="evenodd" d="M193.02 82.4427L192.295 83.9816C193.315 84.4933 194.449 84.757 195.598 84.75C197.049 84.75 198.121 84.4526 198.818 83.7776C199.445 83.1676 199.765 82.2278 199.765 80.9255V75.319H197.647V76.2654C197.357 75.9184 196.988 75.6402 196.57 75.4522C196.152 75.2641 195.696 75.171 195.235 75.1801C193.522 75.1801 191.919 76.3826 191.919 78.5575C191.919 80.7323 193.493 81.963 195.235 81.963C196.366 81.963 197.049 81.5159 197.676 80.7866V81.1317C197.676 82.4275 196.993 83.1047 195.542 83.1047C194.655 83.1109 193.783 82.882 193.02 82.4427ZM195.842 76.8796C196.874 76.8796 197.669 77.5699 197.669 78.5553L197.676 78.5509C197.676 79.5646 196.872 80.257 195.842 80.257C194.812 80.257 194.03 79.5928 194.03 78.5813C194.03 77.5699 194.81 76.8796 195.842 76.8796Z" fill="#F6DBA8"/>
<path d="M201.565 84.2592L202.275 82.7724C202.548 82.9395 202.86 83.0373 203.182 83.0567C203.342 83.0711 203.503 83.0321 203.637 82.946C203.772 82.86 203.872 82.7321 203.921 82.5835L200.994 75.3145H203.233L204.933 80.2459L206.563 75.3145H208.767L205.894 82.7311C205.323 84.2049 204.709 84.7584 203.431 84.7584C202.773 84.7649 202.126 84.5919 201.565 84.2592Z" fill="#F6DBA8"/>
</svg>
