<svg width="194" height="64" viewBox="0 0 194 64" fill="none" xmlns="http://www.w3.org/2000/svg">
<path d="M193.88 15.237C191.242 0.186464 145.731 -4.51035 92.2241 4.74598C69.7531 8.63534 49.4628 14.3719 33.6618 20.8257C36.089 20.8785 37.8891 21.4316 38.9829 22.5155C39.838 23.3662 40.2699 24.5336 40.2699 25.9882V27.4811H35.0232V26.1629C35.0232 25.0646 34.3604 24.3839 33.1864 24.3839C32.1998 24.3839 31.5921 24.8265 31.3959 25.6982C31.3302 26.0429 31.3374 26.3973 31.4172 26.739C31.9786 29.0192 39.7694 30.4354 40.6168 34.6435C40.7279 35.185 40.8787 36.3438 40.641 38.0019C40.155 41.3959 37.1538 42.7054 33.3333 42.7054C28.0005 42.7054 25.8342 40.1958 25.8342 36.7356L25.8381 35.0986H31.4626L31.4655 37.1378C31.4655 38.2842 32.3042 38.9169 33.4463 38.9169C34.5285 38.9169 35.1604 38.4839 35.3788 37.5987C35.4803 37.1916 35.5247 36.5915 35.3401 36.1326C34.2995 33.5384 27.0246 32.3268 26.1289 28.1321C25.9289 27.1893 25.9125 26.3866 26.0787 25.3718C26.1639 24.8687 26.3207 24.3803 26.5444 23.9211C9.01763 32.0656 -1.23523 41.0272 0.119451 48.7646C2.76021 63.8171 48.2705 68.5091 101.776 59.2528C125.297 55.1848 146.442 49.0949 162.535 42.2705C162.302 42.282 162.076 42.307 161.835 42.307C158.172 42.307 154.903 40.9437 154.564 37.2242C154.504 36.5474 154.493 36.2641 154.491 35.8782L154.493 27.3275C154.493 26.9588 154.536 26.3117 154.578 25.9776C155.012 22.383 157.872 20.9006 161.836 20.9006C164.904 20.9006 168.666 21.7753 169.079 25.9805C169.135 26.5086 169.129 27.0721 169.128 27.2574V28.0649H163.829V26.86C163.829 26.834 163.821 26.3837 163.763 26.1024C163.676 25.6733 163.308 24.6786 161.799 24.6786C160.308 24.6786 159.921 25.6752 159.825 26.1034C159.77 26.3386 159.744 26.6766 159.744 27.051V36.3438C159.739 36.6664 159.755 36.9189 159.788 37.1042C159.814 37.2502 160.082 38.5309 161.817 38.5309C163.54 38.5309 163.807 37.2502 163.831 37.1042C163.876 36.8527 163.882 36.5531 163.88 36.3438V33.4645H161.795V30.3634H169.168V35.8801C169.166 36.2555 169.161 36.533 169.097 37.2242C169.008 38.1997 168.699 39.0254 168.214 39.7311C185.281 31.6787 195.217 22.8621 193.88 15.237ZM55.1386 41.9114L52.4543 23.7886H52.3577L49.6049 41.9114H43.9475L47.7526 21.445H56.9831L60.765 41.9114H55.1386ZM82.35 41.9114L82.2254 24.139H82.1346L78.8058 41.9114H73.4963L70.184 24.139H70.0893L69.9685 41.9114H64.7073L65.1634 21.445H73.6258L76.0897 36.6482H76.2105L78.6812 21.445H87.1397L87.5939 41.9114H82.35ZM107.126 37.9453C106.559 41.9095 102.651 42.6027 99.8884 42.6027C95.3016 42.6027 92.4647 40.6547 92.4647 36.6904L92.4676 35.0736H98.0245L98.0284 37.0879C98.0284 38.1815 98.8043 38.8507 100.002 38.8507C101.071 38.8507 101.697 38.4244 101.915 37.5488C102.015 37.1407 102.057 36.5455 101.879 36.0961C100.855 33.5509 93.6368 32.3037 92.7594 28.1743C92.5584 27.2382 92.5439 26.4433 92.7092 25.439C93.3198 21.6956 96.9356 20.9179 99.8459 20.9179C102.449 20.9179 104.344 21.4824 105.48 22.6115C106.327 23.4545 106.756 24.6114 106.756 26.0506V27.5272H101.56V26.2244C101.56 25.1087 100.863 24.4635 99.7435 24.4635C98.7502 24.4635 98.1492 24.9023 97.952 25.7654C97.8881 26.1065 97.8966 26.4571 97.9772 26.7947C98.5337 29.0643 106.256 30.4517 107.101 34.6204C107.211 35.1523 107.36 36.2939 107.126 37.9453ZM126.371 36.0856C126.379 36.4696 126.341 37.2367 126.32 37.4335C126.003 40.8054 123.576 42.5192 119.124 42.5192C114.656 42.5192 112.226 40.8054 111.911 37.4335C111.876 36.9864 111.859 36.538 111.86 36.0894V21.4402H117.177V36.5512C117.171 36.8892 117.188 37.1388 117.222 37.3126C117.288 37.6486 117.624 38.7393 119.124 38.7393C120.62 38.7393 120.956 37.6476 121.027 37.3164C121.057 37.1378 121.075 36.8757 121.075 36.5503V21.4402H126.371V36.0856ZM149.276 41.7031H141.879L136.913 25.4918H136.83L137.105 41.7031H131.949V21.445H139.657L144.247 37.0178H144.354L144.083 21.445H149.276V41.7031Z" fill="#F5DAA6"/>
</svg>
