<svg width="301" height="140" viewBox="0 0 301 140" fill="none" xmlns="http://www.w3.org/2000/svg">
<g clip-path="url(#clip0_1318_1384)">
<path d="M157.376 71.5801C157.376 70.6066 156.791 70.2149 154.952 70.2149H145.778C143.448 70.2149 142.445 69.2533 142.445 67.544C142.445 65.8347 143.461 64.873 145.778 64.873H158.476V66.2977H146.435C144.583 66.2977 143.999 66.5355 143.999 67.544C143.999 68.4818 144.572 68.7903 146.423 68.7903H155.597C157.951 68.7903 158.929 69.8463 158.929 71.5801C158.929 73.3138 157.938 74.3699 155.597 74.3699H142.756V72.9453H154.94C156.792 72.9453 157.377 72.625 157.377 71.5801H157.376Z" fill="#F6DBA8"/>
<path d="M171 64.873H168.874L160.094 74.3692H162.088L169.236 66.6159C169.416 66.4208 169.67 66.3096 169.936 66.3096C170.203 66.3096 170.457 66.4208 170.637 66.6159L177.784 74.3692H179.779L170.999 64.873H171Z" fill="#F6DBA8"/>
<path d="M200.211 74.3692V64.873H201.704V68.8854H214.486V64.873H215.979V74.3692H214.486V70.3688H201.704V74.3692H200.211Z" fill="#F6DBA8"/>
<path d="M219.156 74.2879V64.791H220.65V74.2872H219.156V74.2879Z" fill="#F6DBA8"/>
<path d="M194.67 64.8737H181.781V66.2984H194.371C195.817 66.2984 196.354 66.6425 196.354 67.5803C196.354 68.5182 195.816 68.8623 194.371 68.8623H181.781V74.3699H183.275V70.2862H194.67C196.785 70.2862 197.908 69.384 197.908 67.5796C197.908 65.7752 196.785 64.873 194.67 64.873L194.67 64.8737Z" fill="#F6DBA8"/>
<path d="M86.3832 70.5586H79.707V77.1929H86.3832V70.5586Z" fill="#F6DBA8"/>
<path d="M120 61.8407V55.3379H116.065C112.923 55.3379 110.416 55.8379 108.538 56.8339C106.663 57.8319 105.069 59.1978 103.76 60.9315C103.151 61.7994 102.516 62.7324 101.862 63.7283C101.207 64.7263 100.533 65.7894 99.8329 66.9154C98.0003 70.1249 96.2781 72.6391 94.6622 74.4603C93.0484 76.2815 90.7146 77.1921 87.6588 77.1921H86.3828V83.8264H88.1824C92.5473 83.7411 95.8403 82.5703 98.0657 80.3141C100.291 78.06 102.32 75.3282 104.153 72.1188C105.376 69.9521 106.489 68.1085 107.491 66.5902C108.495 65.0739 109.651 63.8808 110.96 63.0129C111.853 62.531 112.465 62.3848 113.382 62.1673C114.298 61.9519 115.368 61.8421 116.589 61.8421H120V68.4757H126.676V61.8407H120Z" fill="#F6DBA8"/>
</g>
<defs>
<clipPath id="clip0_1318_1384">
<rect width="140.943" height="28.4885" fill="white" transform="translate(79.707 55.3379)"/>
</clipPath>
</defs>
</svg>
