<svg width="300" height="38" viewBox="0 0 300 38" fill="none" xmlns="http://www.w3.org/2000/svg">
<path d="M69.9338 14.0293H44.6019L43.697 14.7727V37.9071H50.6634V29.1735L51.2965 28.5233H69.9335C74.6378 28.5233 76.8093 27.2227 76.8093 23.878V18.5821C76.8095 15.33 74.6381 14.0293 69.9338 14.0293ZM69.9338 22.5769C69.9338 24.1563 68.9385 24.435 66.6767 24.435H51.3872L50.6634 23.7848V18.8606L51.2965 18.2102H66.6765C68.8479 18.2102 69.9334 18.489 69.9334 20.0683L69.9338 22.5769ZM89.6563 18.396L95.7178 27.5011L95.3559 28.3373H81.9663L78.5284 32.7041H98.4318L99.8794 33.5402L102.955 37.907H111.007L93.3656 13.7506L89.6563 18.396ZM169.542 33.2615V26.758L170.266 26.1075H183.746V22.0194H162.395V37.907H193.878V33.819H170.356L169.542 33.2615ZM162.395 14.0293H194.15V18.489H162.395V14.0293ZM127.021 18.3031H152.624C152.262 14.9584 150.181 14.0293 145.115 14.0293H126.749C120.959 14.0293 119.15 15.1443 119.15 19.6967V32.3323C119.15 36.7921 120.959 38 126.749 38H145.115C150.272 38 152.262 36.9779 152.443 33.5402H127.021L126.297 32.7969V18.8606L127.021 18.3031ZM26.5078 23.3203H7.96135L7.4185 22.67V18.582L7.96135 18.1175H33.0217L33.3835 17.2813C32.5692 15.0513 30.3075 13.9366 26.2363 13.9366H8.77551C2.98546 13.9366 1.17603 15.0514 1.17603 19.6038V22.2983C1.17603 26.7581 2.98546 27.9659 8.77551 27.9659H27.322L27.8648 28.5232V32.797L27.4125 33.4475H0.633171C0.633171 33.4475 0 33.819 0 33.912C0.452299 37.0709 2.53316 37.907 7.50893 37.907H26.5079C32.2979 37.907 34.1979 36.7921 34.1979 32.2396V28.9877C34.1978 24.5281 32.2979 23.3203 26.5078 23.3203ZM214.144 13.9364H203.649L203.106 15.0513L214.686 23.7849C216.858 22.484 219.3 21.1834 221.834 19.8826L214.144 13.9364ZM223.553 30.2885L233.776 37.907H244.27L244.723 36.8849L229.524 25.4571C227.533 27.0365 225.453 28.616 223.553 30.2885Z" fill="#F5DAA6"/>
<path d="M212.606 37.907H203.106L202.292 36.6061C208.715 30.1955 237.485 2.88019 300 0C300 0 247.618 1.85808 212.606 37.907Z" fill="#F5DAA6"/>
</svg>
