<svg width="1920" height="663" viewBox="0 0 1920 663" fill="none" xmlns="http://www.w3.org/2000/svg">
<g filter="url(#filter0_d)">
<path d="M1920 527.324C1878.38 522.91 1837.34 514.096 1797.57 501.025C1756.52 487.398 1717.62 469.19 1679.41 450.212L1678.49 449.757C1640.58 430.931 1602.82 412.176 1563.62 396.813C1524.15 381.304 1483.33 369.455 1441.69 361.418C1399.9 353.564 1357.58 348.857 1315.09 347.337C1293.86 346.543 1272.54 346.158 1251.31 346.725C1230.07 347.372 1208.87 349.113 1187.8 351.94C1145.72 357.851 1104.41 368.406 1064.65 383.412C1024.82 398.355 986.674 417.107 948.684 436.335C944.449 438.478 940.215 440.627 935.978 442.776C902.211 459.911 868.332 477.102 833.307 492.092C793.912 509.33 753.023 522.931 711.15 532.725C690.17 537.441 668.964 541.364 647.644 544.062C626.325 546.76 604.891 548.438 583.413 549.345C561.934 550.252 540.456 550.184 519.023 549.345C497.59 548.506 476.156 547.078 454.814 544.81C369.512 535.876 285.231 514.812 206.598 480.505C131.075 447.933 61.252 403.538 -0.25293 349.009V345.535C30.4271 370.799 62.8674 393.853 96.8235 414.522C115.013 425.474 133.521 435.881 152.414 445.518C171.299 455.087 190.57 463.907 210.226 471.979C249.442 488.029 289.806 501.118 330.978 511.138C351.526 516.217 372.302 520.503 393.168 523.972C414.034 527.441 434.946 530.298 456.084 532.452C477.222 534.607 498.179 535.944 519.408 536.602C540.637 537.259 561.798 537.396 582.914 536.602C625.16 535.138 667.193 529.933 708.519 521.047C718.907 518.78 729.113 516.195 739.319 513.519C749.526 510.844 759.664 507.828 769.757 504.676C789.897 498.252 809.795 491.033 829.452 483.022C863.365 469.241 896.348 453.212 929.423 437.139C934.66 434.594 939.9 432.048 945.146 429.51C983.521 410.939 1022.33 392.777 1062.68 378.424C1082.79 371.129 1103.27 364.877 1124.03 359.695C1134.41 357.155 1144.78 355.001 1155.37 352.892C1165.96 350.783 1176.53 349.174 1187.12 347.654C1208.35 344.789 1229.72 343.033 1251.13 342.394C1272.52 341.804 1293.86 341.94 1315.22 342.643C1357.98 343.941 1400.58 348.336 1442.69 355.795C1484.87 363.362 1526.27 374.747 1566.39 389.806C1586.46 397.266 1606.17 405.565 1625.72 414.272C1645.27 422.979 1664.55 432.049 1683.83 441.119C1703.11 450.189 1722.39 458.919 1742.07 466.945C1761.68 474.957 1781.58 481.986 1801.77 488.033C1840.28 499.434 1879.93 506.512 1920 509.14V527.324Z" fill="#FAEED7"/>
<path d="M1920 490.031C1900.14 487.392 1880.36 484.202 1860.76 479.961C1839.82 475.411 1819.14 469.946 1798.73 463.567C1757.95 450.688 1718.58 434.317 1679.66 417.606C1640.74 400.894 1601.93 384.274 1561.97 370.828C1541.9 364.041 1521.78 358.213 1501.59 353.346C1498.19 352.454 1494.77 351.683 1491.35 350.912L1490.61 350.748C1490.1 350.631 1489.58 350.515 1489.07 350.397C1488.11 350.181 1487.16 349.963 1486.21 349.74L1478.5 347.972L1470.77 346.407L1455.25 343.346L1439.67 340.716C1438.78 340.568 1437.89 340.416 1437 340.263L1436.98 340.26C1435.28 339.968 1433.58 339.676 1431.87 339.424L1424.02 338.335L1408.37 336.068L1392.63 334.367C1391.83 334.281 1391.03 334.193 1390.23 334.105C1385.79 333.619 1381.35 333.133 1376.89 332.825C1376.18 332.767 1375.47 332.708 1374.76 332.649L1370.95 332.329C1362.41 331.609 1353.88 330.889 1345.3 330.558L1329.42 329.741C1325.89 329.606 1322.36 329.53 1318.84 329.455C1317.08 329.417 1315.31 329.379 1313.55 329.333L1297.67 328.971H1265.92L1250.04 329.537L1242.15 329.855L1234.26 330.444C1233.55 330.499 1232.84 330.553 1232.14 330.606C1231.44 330.657 1230.75 330.709 1230.06 330.759L1229.03 330.835C1225.51 331.092 1222 331.35 1218.49 331.669C1208.01 332.893 1197.56 334.118 1187.1 335.523C1176.95 336.888 1166.89 338.808 1156.85 340.723L1156.85 340.724L1155.94 340.897C1155.32 341.036 1154.69 341.174 1154.07 341.312C1152.8 341.593 1151.54 341.872 1150.27 342.151L1150.27 342.152L1150.25 342.157C1141.82 344.015 1133.46 345.857 1125.16 348.153C1104.77 353.387 1084.66 359.645 1064.9 366.905C1025.25 381.304 986.855 398.808 948.548 416.948C929.383 425.95 910.172 434.906 890.825 443.659C887.625 445.053 884.435 446.47 881.245 447.887C874.733 450.778 868.219 453.67 861.613 456.379L846.916 462.569L831.947 468.329C792.236 484.136 751.236 496.494 709.403 505.266C688.515 509.733 667.354 512.862 646.17 515.424C642.672 515.939 639.134 516.211 635.589 516.483L635.587 516.483L635.585 516.483L635.581 516.484C633.819 516.619 632.055 516.755 630.294 516.92L614.417 518.213C607.311 518.666 600.204 518.938 593.097 519.211L593.079 519.211C589.532 519.347 585.985 519.483 582.438 519.641C539.797 520.507 497.149 518.348 454.814 513.179C412.499 508.176 370.577 500.274 329.345 489.529C288.18 478.59 247.862 464.684 208.707 447.922C169.531 431.343 131.674 411.809 95.4626 389.489C62.199 368.98 30.2335 346.443 -0.25293 322.008V318.617C65.1018 367.936 136.067 409.872 211.859 440.348C250.93 456.137 291.022 469.273 331.862 479.666C372.683 489.894 414.157 497.311 455.993 501.864L471.688 503.565C475.072 503.902 478.466 504.135 481.856 504.367C483.715 504.495 485.573 504.622 487.429 504.767L503.192 505.878C503.306 505.885 503.421 505.892 503.535 505.9L503.658 505.908L503.822 505.919C504.095 505.939 504.368 505.959 504.642 505.981C505.061 506.015 505.481 506.05 505.902 506.086C507.617 506.231 509.34 506.377 511.062 506.377L518.955 506.649L534.831 507.17C536.584 507.216 538.337 507.289 540.09 507.362H540.122C543.618 507.508 547.112 507.654 550.594 507.578C554.144 507.555 557.691 507.584 561.236 507.614H561.306C568.248 507.67 575.184 507.727 582.12 507.397C585.964 507.214 589.807 507.065 593.65 506.916L593.654 506.916L593.657 506.916C600.31 506.658 606.96 506.4 613.601 505.969L629.296 504.653C630.981 504.5 632.667 504.37 634.353 504.241C637.904 503.967 641.453 503.694 644.991 503.202C665.834 500.867 686.655 497.964 707.226 493.77C748.487 485.539 788.985 473.867 828.295 458.873L843.06 453.25L857.734 447.309C864.417 444.68 871.026 441.84 877.641 438.998L877.644 438.996L877.654 438.992C880.733 437.669 883.813 436.345 886.902 435.042C906.271 426.585 925.527 417.991 944.828 409.148C964.129 400.305 983.566 391.484 1003.16 383.39C1022.76 375.295 1042.54 367.721 1062.7 360.715C1082.86 353.709 1103.27 347.632 1123.94 342.575C1131.3 340.645 1138.74 339.086 1146.19 337.524L1146.19 337.524L1146.2 337.523L1146.22 337.518C1149.17 336.899 1152.13 336.28 1155.08 335.637L1170.77 332.803C1174.2 332.117 1177.66 331.618 1181.12 331.118C1182.92 330.857 1184.73 330.596 1186.53 330.308C1194.61 329.064 1202.68 328.162 1210.74 327.261L1210.87 327.247L1210.9 327.244C1213.36 326.968 1215.83 326.693 1218.29 326.408C1221.48 326.12 1224.68 325.881 1227.89 325.642C1229.98 325.487 1232.07 325.331 1234.16 325.161L1242.13 324.572L1265.96 323.551L1281.84 323.302L1297.72 323.098L1313.59 323.302C1314.75 323.322 1315.91 323.337 1317.08 323.351C1317.8 323.36 1318.53 323.368 1319.26 323.375L1319.37 323.377H1319.38C1322.73 323.414 1326.1 323.451 1329.47 323.551L1345.34 324.186C1353.27 324.407 1361.2 324.972 1369.14 325.537L1369.34 325.551C1371.93 325.735 1374.51 325.919 1377.1 326.091C1381.59 326.342 1386.09 326.79 1390.6 327.239L1390.61 327.239L1390.74 327.252L1390.81 327.259C1391.53 327.331 1392.25 327.403 1392.97 327.474L1408.85 329.016L1424.73 331.057L1432.62 332.054C1434.39 332.296 1436.14 332.578 1437.89 332.86L1438.83 333.012L1439.34 333.095L1439.88 333.179L1440.23 333.235L1440.51 333.279L1456.28 335.773L1479.8 340.194L1487.6 341.895C1490.03 342.469 1492.47 342.997 1494.9 343.526L1494.91 343.528L1494.95 343.537C1497.7 344.133 1500.45 344.728 1503.18 345.387C1523.82 350.285 1544.23 356.18 1564.64 362.574C1603.5 374.815 1641.26 390.275 1678.77 405.635L1683.81 407.697C1722.98 423.728 1762.19 439.305 1802.56 450.937C1822.73 456.742 1843.14 461.64 1863.69 465.608C1882.31 469.204 1901.14 471.683 1920 473.685V490.031Z" fill="#FAEED7"/>
<path d="M1920 452.682C1900.34 449.655 1880.78 446.066 1861.37 441.822C1840.67 437.106 1820.17 431.724 1799.86 425.678C1760.75 413.904 1722.55 399.816 1684.5 385.784L1680.16 384.183C1640.67 369.626 1601.18 355.296 1560.81 343.958C1520.47 332.517 1479.33 324.067 1437.75 318.676C1396.16 313.31 1354.27 310.629 1312.34 310.649H1296.6L1280.73 310.989C1278.86 311.038 1276.99 311.072 1275.13 311.106L1275.1 311.106C1271.73 311.168 1268.35 311.229 1264.99 311.375L1249.29 312.169C1244.05 312.373 1238.84 312.849 1233.62 313.348C1231.73 313.528 1229.85 313.685 1227.96 313.841L1227.93 313.844C1224.6 314.119 1221.28 314.395 1217.97 314.799C1207.56 316.069 1197.19 317.52 1186.81 318.994C1177.99 320.244 1169.26 321.935 1160.54 323.624L1155.87 324.526C1154.43 324.857 1152.98 325.186 1151.53 325.512L1148.75 326.14L1148.69 326.154C1140.87 327.915 1133.02 329.681 1125.27 331.782C1104.98 337.02 1084.9 343.051 1065.13 350.035C1025.46 363.844 986.901 380.442 948.343 397.312C929.065 405.769 909.741 414.204 890.145 422.095C870.549 429.986 850.93 437.831 830.926 444.77C791.03 459.184 750.024 470.317 708.315 478.056C706.466 478.377 704.621 478.727 702.774 479.077C699.409 479.715 696.04 480.354 692.643 480.822L676.879 483.09L669.009 484.246C667.343 484.462 665.678 484.631 664.006 484.802L664.002 484.802C663.605 484.843 663.207 484.883 662.809 484.925C662.238 484.984 661.667 485.044 661.094 485.108L645.217 486.808C641.142 487.298 637.053 487.558 632.972 487.818C631.761 487.895 630.55 487.972 629.341 488.056L613.465 489.053C610.811 489.257 608.157 489.393 605.526 489.393L581.689 490.006C539.306 490.268 496.957 487.571 454.95 481.933C412.928 476.434 371.311 468.193 330.365 457.263C289.52 446.199 249.479 432.358 210.521 415.837L195.915 409.692C191.688 407.904 187.581 405.962 183.431 404L183.427 403.998L181.513 403.094L167.156 396.291L159.966 392.958C157.745 391.901 155.484 390.725 153.349 389.614L152.89 389.376L124.811 374.887L97.2317 359.286C63.6507 339.567 31.1126 318.128 -0.25293 295.056V291.801C32.0991 314.338 65.5415 335.271 99.9533 354.525L127.692 369.445L155.929 383.253C156.146 383.362 156.362 383.47 156.578 383.579C156.833 383.707 157.088 383.835 157.342 383.963L157.345 383.965C159.22 384.91 161.084 385.848 163.005 386.7L170.172 390.033L184.552 396.45C186.286 397.202 188.008 397.981 189.729 398.76C192.783 400.14 195.836 401.521 198.954 402.754L213.56 408.626C252.46 424.244 292.315 437.369 332.883 447.921C373.468 458.372 414.69 466.173 456.288 471.276L471.892 473.113L475.771 473.589L510.994 476.446L518.841 476.809L534.513 477.512L542.361 477.897C544.969 478.124 547.577 478.124 550.186 478.124C554.058 478.141 557.931 478.189 561.803 478.237C568.387 478.318 574.97 478.4 581.553 478.328L597.225 477.875L605.05 477.671C607.681 477.625 610.289 477.512 612.898 477.308L628.524 476.265L629.241 476.218C629.616 476.194 629.99 476.17 630.364 476.146L630.393 476.144L630.436 476.142L630.464 476.14C635.033 475.847 639.598 475.554 644.129 475.018L659.733 473.43C660.6 473.339 661.47 473.256 662.34 473.172L662.352 473.171C664.073 473.005 665.798 472.84 667.512 472.614L675.269 471.526L690.783 469.258C694.769 468.734 698.741 467.994 702.7 467.257C703.877 467.037 705.053 466.818 706.228 466.605C707.835 466.314 709.446 466.031 711.058 465.749C714.589 465.13 718.125 464.51 721.628 463.794L744.604 458.873C746.091 458.531 747.562 458.159 749.032 457.787L749.036 457.786C750.098 457.517 751.159 457.248 752.224 456.991L767.398 453.182C772.191 451.984 776.904 450.604 781.65 449.214L781.661 449.211L781.666 449.21L781.675 449.207L781.677 449.206L781.679 449.206L781.683 449.205L782.503 448.965C784.212 448.464 785.923 447.985 787.633 447.506L787.636 447.505C790.963 446.574 794.283 445.644 797.563 444.566C800.245 443.706 802.93 442.862 805.615 442.018L805.621 442.016C812.923 439.719 820.221 437.424 827.433 434.838C847.302 428.172 866.92 420.735 886.403 412.889C905.885 405.044 925.255 396.972 944.669 388.809C945.86 388.308 947.05 387.807 948.241 387.306L951.774 385.819L951.776 385.818C968.82 378.644 985.873 371.466 1003.12 364.638C1022.76 356.86 1042.6 349.559 1062.68 342.915C1082.76 336.219 1103.07 330.354 1123.62 325.32C1131.03 323.413 1138.53 321.816 1146.04 320.218L1146.04 320.217L1146.05 320.216L1150.19 319.331C1151.65 319.018 1153.12 318.702 1154.58 318.381C1157.98 317.781 1161.38 317.142 1164.77 316.503L1164.79 316.501C1171.77 315.185 1178.76 313.87 1185.81 312.894C1227.61 306.137 1270.02 304.437 1312.19 304.142C1354.46 303.811 1396.71 306.197 1438.68 311.284C1480.68 316.442 1522.26 324.634 1563.08 335.796C1603.95 346.702 1643.91 360.556 1683.6 374.66L1685.89 375.471C1724.81 389.304 1763.65 403.104 1803.22 414.068C1823.34 419.76 1843.71 424.703 1864.16 428.829C1882.66 432.561 1901.31 435.588 1920 438.128V452.682Z" fill="#FAEED7"/>
<path d="M1920 415.241C1879.95 407.963 1840.05 398.794 1801 387.652C1772.16 379.423 1743.56 370.384 1715.01 361.361L1714.95 361.345L1714.74 361.277C1703.42 357.698 1692.11 354.122 1680.79 350.602C1640.85 338.176 1600.93 325.955 1560.11 316.885C1552.69 314.974 1545.29 313.53 1537.88 312.084L1537.87 312.083C1535.08 311.538 1532.29 310.993 1529.49 310.423L1514.13 307.384C1511.59 306.817 1509.01 306.432 1506.42 306.046L1498.69 304.845L1467.75 300.128L1436.63 296.772C1436.3 296.739 1435.97 296.705 1435.64 296.67C1435.46 296.651 1435.29 296.633 1435.12 296.614C1434.72 296.572 1434.33 296.529 1433.94 296.486C1433.15 296.397 1432.35 296.307 1431.56 296.216L1431.51 296.211C1428.04 295.816 1424.57 295.42 1421.08 295.208L1405.45 294.256C1401.68 294.034 1397.91 293.8 1394.13 293.567C1387.49 293.155 1380.84 292.743 1374.19 292.396L1327.2 291.716H1323.3L1280.23 292.986C1278.33 293.06 1276.43 293.11 1274.53 293.16H1274.53C1271.21 293.248 1267.88 293.336 1264.58 293.553L1248.97 294.596C1228.18 296.342 1207.45 298.654 1186.9 302.192L1179.16 303.439C1177.58 303.705 1176 304.015 1174.42 304.326L1174.42 304.326C1174.03 304.402 1173.65 304.478 1173.26 304.553C1172.67 304.668 1172.09 304.781 1171.5 304.89C1170.74 305.037 1169.99 305.182 1169.24 305.326C1168.48 305.471 1167.73 305.615 1166.97 305.759L1166.96 305.76C1163.35 306.45 1159.74 307.138 1156.14 307.906C1154.94 308.176 1153.74 308.445 1152.54 308.715L1152.35 308.758L1152.32 308.765C1143.41 310.76 1134.51 312.753 1125.71 315.094C1105.5 320.263 1085.47 326.091 1065.69 332.78C1026.54 345.826 988.235 361.266 949.806 376.756L948.48 377.29C909.605 392.958 870.368 408.128 830.223 420.871C810.264 427.401 789.852 432.934 769.439 438.171C748.913 442.978 728.274 447.491 707.408 450.62L691.758 453.069L676.063 454.973C667.893 456.087 659.694 456.76 651.501 457.432L651.499 457.432C649.185 457.622 646.872 457.812 644.56 458.012L636.667 458.647L628.751 459.009L612.875 459.712C607.545 460.03 602.283 460.03 596.998 460.03L581.122 460.166C538.968 459.835 496.886 456.6 455.177 450.484C371.781 438.536 290.237 416.068 212.494 383.616L197.911 377.63L183.486 371.213C180.83 369.996 178.165 368.793 175.5 367.589L175.496 367.587L175.456 367.57C168.554 364.453 161.649 361.336 154.886 357.971C151.366 356.221 147.831 354.495 144.294 352.769C138.395 349.89 132.49 347.009 126.648 344.004L98.8874 329.152C64.9463 310.289 31.9353 289.915 -0.25293 268.317V265.035C32.8182 286.272 66.6916 306.261 101.405 324.572C138.35 344.082 176.32 361.589 215.148 377.018C292.699 408.031 373.783 429.356 456.56 440.507C457.798 440.672 459.036 440.839 460.274 441.006C469.374 442.233 478.466 443.459 487.61 444.157L510.948 446.334C512.677 446.486 514.417 446.577 516.159 446.668L517.253 446.725C517.752 446.752 518.251 446.78 518.75 446.81L534.355 447.717C536.219 447.807 538.084 447.937 539.948 448.068C543.278 448.301 546.607 448.534 549.936 448.534C553.543 448.596 557.149 448.684 560.755 448.771H560.772C567.568 448.936 574.361 449.101 581.145 449.101L596.749 448.919C598.353 448.884 599.954 448.867 601.554 448.849C605.159 448.809 608.756 448.769 612.353 448.534L635.737 447.377L643.494 446.742C645.815 446.544 648.137 446.357 650.459 446.169L650.484 446.167C658.523 445.517 666.56 444.867 674.543 443.795L690.057 441.799L705.457 439.532C726.051 436.448 746.418 432.049 766.695 427.514C786.903 422.526 806.862 416.857 826.889 410.848C846.916 404.84 866.557 397.924 886.153 390.691C905.749 383.458 925.232 375.907 944.737 368.311C949.49 366.46 954.242 364.6 958.997 362.739C973.757 356.962 988.539 351.176 1003.41 345.636C1023.07 338.244 1042.89 331.329 1062.88 324.889C1102.97 312.049 1143.96 302.196 1185.51 295.412C1206.27 291.897 1227.2 289.607 1248.16 287.929L1263.92 286.818C1267.34 286.567 1270.76 286.46 1274.19 286.353H1274.19C1276.01 286.296 1277.84 286.239 1279.66 286.161L1322.96 284.664H1326.88L1342.76 284.8L1374.29 285.118C1381.23 285.433 1388.17 285.828 1395.11 286.223L1395.16 286.225L1395.22 286.228L1395.32 286.234L1395.33 286.235C1398.81 286.433 1402.29 286.631 1405.77 286.818L1421.51 287.703C1424.82 287.903 1428.12 288.256 1431.42 288.609L1431.42 288.609C1433.35 288.816 1435.29 289.023 1437.22 289.199L1468.59 292.578L1499.8 297.113L1507.6 298.269C1510.21 298.632 1512.82 299.04 1515.38 299.584L1530.87 302.555C1533.95 303.17 1537.03 303.754 1540.11 304.339L1540.14 304.344C1547.38 305.719 1554.63 307.093 1561.79 308.858C1602.93 317.678 1643.3 329.492 1683.44 341.623C1693 344.51 1702.54 347.43 1712.08 350.348C1742.6 359.689 1773.08 369.015 1803.81 377.222C1842.18 387.539 1880.91 395.923 1920 402.375V415.241Z" fill="#FAEED7"/>
<path d="M1920 378.179C1880.28 369.974 1840.75 360.556 1801.77 349.99C1788.56 346.409 1775.36 342.781 1762.16 339.153L1762.04 339.12L1762.01 339.112L1762 339.109C1735.05 331.704 1708.12 324.3 1681.09 317.293C1600.64 295.888 1518.72 279.993 1435.68 274.96L1420.12 273.871C1416.78 273.696 1413.45 273.606 1410.11 273.515L1410.08 273.515C1408.23 273.464 1406.39 273.414 1404.54 273.35L1373.38 272.443C1362.99 272.397 1352.58 272.511 1342.19 272.692C1339.34 272.742 1336.49 272.768 1333.63 272.794C1326.09 272.862 1318.54 272.931 1311.01 273.44L1279.84 274.982C1277.9 275.101 1275.96 275.192 1274.01 275.282L1274 275.283C1270.76 275.433 1267.51 275.584 1264.28 275.867L1248.77 277.182C1228.11 279.245 1207.47 281.807 1187.06 285.481L1179.37 286.773L1171.72 288.27C1170 288.615 1168.28 288.95 1166.56 289.286C1163.19 289.941 1159.82 290.596 1156.46 291.331L1141.26 294.755C1138.06 295.472 1134.88 296.271 1131.7 297.071L1131.69 297.073C1129.84 297.537 1127.99 298.001 1126.14 298.451C1106.02 303.552 1086.04 309.221 1066.21 315.479C1046.39 321.737 1026.7 328.494 1007.13 335.546C993.548 340.44 980.018 345.509 966.467 350.586L966.458 350.59L966.454 350.591C960.484 352.827 954.51 355.066 948.525 357.291C909.378 371.848 869.846 385.793 829.52 397.13C789.223 408.947 748.103 417.754 706.5 423.478C664.865 429.018 622.867 431.383 580.873 430.553C538.931 429.626 497.101 425.838 455.676 419.216C414.283 412.715 373.31 403.774 332.974 392.437L317.891 388.061C316.178 387.541 314.459 387.046 312.742 386.551L312.74 386.55C309.433 385.597 306.13 384.645 302.877 383.526L273.029 373.776L243.544 363.073C239.567 361.687 235.663 360.125 231.761 358.563C231.228 358.35 230.696 358.137 230.163 357.924C229.878 357.811 229.593 357.697 229.309 357.584L214.332 351.623C175.57 335.841 137.422 318.495 100.452 299.063C66.2213 281.07 32.6709 261.794 -0.25293 241.541V238.298C33.4735 258.242 67.7188 277.297 102.766 294.709C140.053 313.234 178.065 330.24 216.804 345.364L231.365 350.942C231.606 351.033 231.848 351.124 232.089 351.216C232.58 351.402 233.071 351.588 233.561 351.776C234.032 351.955 234.501 352.134 234.971 352.314L234.976 352.316C238.636 353.714 242.289 355.11 245.994 356.339L275.478 366.565L305.235 375.907C308.646 377.038 312.122 377.995 315.595 378.952C317.134 379.376 318.672 379.799 320.205 380.238L335.196 384.433C375.292 395.311 416 403.791 457.105 409.828C477.653 412.912 498.292 415.111 518.955 416.903L534.468 418.014C536.399 418.132 538.324 418.281 540.247 418.43C543.497 418.683 546.742 418.934 550.004 419.034C553.464 419.148 556.921 419.286 560.377 419.425C567.276 419.702 574.171 419.979 581.077 420.054C622.529 420.748 663.973 418.276 705.049 412.663L712.76 411.642L720.426 410.372L735.758 407.856C740.861 407.039 745.942 406.019 751.022 404.999C752.797 404.642 754.575 404.305 756.353 403.968C759.663 403.34 762.973 402.713 766.264 401.96C769.49 401.214 772.725 400.497 775.962 399.781C782.851 398.255 789.745 396.729 796.565 394.908L811.648 391.099L826.639 386.927C866.625 375.794 905.885 362.03 944.896 347.881C950.283 345.939 955.67 343.986 961.059 342.032L961.088 342.022C975.317 336.864 989.561 331.7 1003.87 326.703C1023.6 319.81 1043.47 313.234 1063.47 307.135C1103.52 294.805 1144.34 285.087 1185.65 278.043C1206.29 274.438 1227.09 271.921 1247.95 269.903L1263.6 268.543C1266.86 268.245 1270.12 268.08 1273.39 267.916C1275.34 267.817 1277.3 267.718 1279.25 267.59L1310.57 265.912C1319.85 265.248 1329.15 265.156 1338.45 265.064H1338.45C1339.61 265.052 1340.78 265.041 1341.94 265.028C1345.8 264.986 1349.65 264.923 1353.5 264.86C1360.1 264.751 1366.71 264.643 1373.31 264.643L1404.7 265.436C1406.59 265.494 1408.48 265.539 1410.38 265.585L1410.42 265.586C1413.74 265.666 1417.06 265.746 1420.37 265.89L1436.04 266.933C1519.74 271.649 1602.47 287.385 1683.26 308.518C1703.41 313.674 1723.48 319.05 1743.54 324.421L1743.55 324.423L1743.56 324.427C1763.8 329.847 1784.02 335.263 1804.29 340.444C1842.67 350.258 1881.19 359.21 1920 366.871V378.179Z" fill="#FAEED7"/>
<path d="M1920 340.999C1880.81 331.807 1841.81 321.999 1802.83 312.169C1762.55 302.011 1722.21 292.238 1681.63 283.644L1666.41 280.424L1658.81 278.837L1651.17 277.409L1620.62 271.649L1589.93 266.683L1582.27 265.459L1543.78 260.357C1540.66 260 1537.54 259.693 1534.41 259.385C1533.15 259.26 1531.88 259.135 1530.61 259.007C1529.84 258.93 1529.08 258.851 1528.31 258.77C1524.78 258.436 1521.25 258.073 1517.72 257.709L1517.69 257.706L1517.69 257.706C1510.93 257.01 1504.17 256.313 1497.4 255.822L1466.39 253.759L1458.66 253.26L1450.88 253.011L1435.36 252.535C1419.65 251.794 1403.93 251.877 1388.2 251.96C1383.21 251.987 1378.22 252.013 1373.22 252.013C1369.35 251.979 1365.48 252.136 1361.6 252.293C1360.29 252.345 1358.99 252.398 1357.68 252.444L1326.63 253.623L1318.88 253.94L1280.12 256.775C1278.31 256.917 1276.51 257.04 1274.7 257.163L1274.7 257.163C1271.33 257.393 1267.96 257.622 1264.62 257.976L1249.18 259.564C1228.61 262.035 1208.15 264.983 1187.78 268.634C1167.42 272.284 1147.18 276.57 1127.09 281.626C1106.99 286.682 1087.04 292.079 1067.19 298.02C1047.34 303.961 1027.68 310.287 1007.95 316.908C991.418 322.454 975.015 328.128 958.552 333.823L958.527 333.832C955.347 334.932 952.165 336.033 948.979 337.133L934.1 342.19L919.267 347.042C911.25 349.708 903.158 352.21 895.089 354.704C893.924 355.064 892.761 355.424 891.598 355.784C890.879 356.007 890.16 356.229 889.442 356.452C882.771 358.523 876.049 360.471 869.325 362.42C866.035 363.373 862.744 364.327 859.458 365.295L844.353 369.377C839.318 370.76 834.283 372.12 829.203 373.345L814.006 377.109C808.949 378.311 803.823 379.512 798.72 380.578C796.62 381.016 794.528 381.493 792.434 381.971L792.422 381.974C789.431 382.655 786.437 383.338 783.41 383.911L768.078 386.927C762.952 387.993 757.804 388.832 752.656 389.671L737.187 392.256L721.628 394.342C720.169 394.527 718.71 394.723 717.25 394.92C713.536 395.42 709.814 395.921 706.07 396.246C664.495 400.793 622.645 402.309 580.85 400.781C539.108 399.247 497.516 394.906 456.356 387.789C415.233 380.788 374.533 371.492 334.448 359.944C294.371 348.448 254.885 334.957 216.191 319.583C177.498 304.21 139.327 287.476 102.04 269.064C67.4225 251.971 33.3914 233.704 -0.25293 214.719V211.599C34.054 230.286 68.7541 248.473 104.036 264.915C141.55 282.397 179.676 299.063 218.528 313.824C257.168 328.735 296.53 341.706 336.467 352.688C376.372 363.779 416.868 372.629 457.762 379.195L480.783 382.596C482.88 382.893 484.977 383.129 487.086 383.367L488.495 383.526L503.895 385.34C505.41 385.507 506.921 385.687 508.431 385.868L508.457 385.871C512.07 386.302 515.677 386.733 519.318 386.972C523.316 387.289 527.315 387.637 531.316 387.985L531.359 387.989L531.374 387.99L531.401 387.993C537.673 388.539 543.948 389.084 550.231 389.512L565.699 390.305C567.152 390.376 568.604 390.458 570.054 390.541L570.057 390.541C573.768 390.752 577.473 390.963 581.19 390.963C622.494 392.236 663.836 390.508 704.89 385.793C745.937 380.933 786.617 373.358 826.662 363.119C866.784 353.142 906.271 340.489 945.622 327.406C952.825 325.008 960.032 322.583 967.243 320.156C979.741 315.951 992.255 311.74 1004.8 307.656C1024.57 301.217 1044.46 295.004 1064.49 289.199C1104.52 277.475 1145.17 267.945 1186.24 260.652C1206.77 256.933 1227.47 254.122 1248.2 251.854L1263.76 250.267C1267.07 249.906 1270.37 249.674 1273.68 249.442C1275.57 249.309 1277.46 249.177 1279.34 249.02L1318.29 246.186L1341.72 245.233L1357.32 244.621C1358.13 244.589 1358.95 244.556 1359.76 244.523C1364.16 244.345 1368.54 244.168 1372.95 244.168C1377.84 244.157 1382.73 244.123 1387.62 244.088C1403.57 243.976 1419.52 243.864 1435.45 244.576L1451.08 245.052L1458.91 245.279L1497.89 247.796C1504.6 248.219 1511.27 248.915 1517.95 249.611L1517.97 249.613C1521.65 249.997 1525.34 250.382 1529.03 250.721C1529.38 250.755 1529.73 250.79 1530.07 250.824L1530.57 250.873C1531.81 250.996 1533.06 251.116 1534.31 251.237L1534.32 251.237C1537.74 251.566 1541.17 251.896 1544.59 252.285L1560.08 254.326L1575.6 256.344L1583.33 257.364L1591.04 258.589L1621.91 263.532L1660.31 270.697L1683.29 275.481C1724.04 284.075 1764.5 293.802 1804.88 303.666C1843.23 313.037 1881.57 322.367 1920 331.17V340.999Z" fill="#FAEED7"/>
<path d="M1920 303.749C1841.31 282.984 1762.35 263.192 1682.08 250.018L1666.8 247.523C1664.99 247.259 1663.19 246.98 1661.39 246.702L1661.38 246.701C1658.08 246.191 1654.78 245.681 1651.46 245.256L1620.78 241.038C1617.02 240.615 1613.26 240.183 1609.5 239.751L1609.5 239.75C1592.74 237.824 1575.97 235.898 1559.13 234.712C1543.39 233.22 1527.61 232.418 1511.82 231.616C1506.97 231.37 1502.13 231.124 1497.28 230.857L1466.32 230.132C1464.34 230.106 1462.35 230.063 1460.37 230.02L1460.35 230.02L1460.34 230.019C1457.16 229.951 1453.99 229.882 1450.83 229.882H1435.34C1394.02 229.814 1352.72 232.286 1311.53 235.506L1280.68 238.453C1278.98 238.626 1277.27 238.787 1275.57 238.947C1272.12 239.27 1268.69 239.594 1265.26 240.018L1249.9 241.877C1229.33 244.644 1208.92 247.75 1188.67 251.65C1148.07 259.246 1107.99 269.132 1068.19 280.311C1033.08 290.17 998.346 301.211 963.514 312.282L953.352 315.511C952.076 315.916 950.799 316.321 949.523 316.726L934.667 321.397L919.72 325.932C913.439 327.824 907.104 329.59 900.772 331.355L900.752 331.36C897.075 332.385 893.4 333.409 889.737 334.458C879.757 337.315 869.71 339.945 859.594 342.394C858.607 342.633 857.62 342.872 856.633 343.111L856.603 343.118L856.598 343.12C847.481 345.329 838.362 347.538 829.225 349.582C788.584 358.752 747.394 365.288 705.91 369.15C664.387 372.69 622.67 373.364 581.054 371.168C539.487 368.924 498.108 364.008 457.172 356.452C375.318 341.578 295.437 317.497 218.006 287.703C179.313 272.715 141.073 256.593 103.469 239.111C68.4984 222.854 33.9793 205.635 -0.25293 187.967V184.934C34.6052 202.349 69.6844 219.263 105.306 235.052C143.16 251.831 181.331 267.794 220.07 282.306C297.615 311.216 377.246 334.344 458.647 348.289L473.911 350.761C474.75 350.891 475.589 351.024 476.427 351.158L477.551 351.338C481.434 351.959 485.314 352.579 489.22 353.028C492.703 353.466 496.157 353.944 499.606 354.42C506.332 355.349 513.04 356.276 519.907 356.906C524.229 357.302 528.507 357.737 532.77 358.171C538.754 358.78 544.707 359.386 550.707 359.876L566.13 360.896C571.256 361.259 576.404 361.622 581.553 361.758C622.732 363.699 663.995 362.79 705.049 359.037C746.066 355.004 786.795 348.439 827.002 339.378C867.26 330.422 906.974 319.084 946.483 306.863C948.245 306.318 950.006 305.773 951.768 305.227L959.918 302.702C994.982 291.835 1030.18 280.927 1065.69 271.196C1105.75 260.221 1146.23 250.63 1187.17 243.306C1207.61 239.519 1228.2 236.549 1248.82 233.941L1264.31 232.082C1267.63 231.673 1270.96 231.368 1274.28 231.063H1274.28L1274.36 231.057L1274.45 231.048C1275.14 230.984 1275.84 230.921 1276.53 230.856C1276.87 230.824 1277.22 230.792 1277.56 230.759C1278.3 230.688 1279.05 230.616 1279.8 230.54L1310.8 227.57C1352.19 224.282 1393.7 222.014 1435.25 222.014H1450.83C1453.73 221.964 1456.63 222.048 1459.52 222.132H1459.54L1459.55 222.132C1461.83 222.198 1464.11 222.264 1466.39 222.264L1497.55 223.012C1502.82 223.311 1508.08 223.584 1513.35 223.857L1513.35 223.858C1528.83 224.66 1544.31 225.463 1559.74 226.935C1575.36 228.046 1590.92 229.828 1606.48 231.609L1606.64 231.627C1611.66 232.202 1616.68 232.777 1621.71 233.329L1652.58 237.615C1657.42 238.148 1662.24 238.942 1667.04 239.733L1667.95 239.882L1683.38 242.331C1724.31 249.247 1765.03 257.455 1805.44 266.819C1843.79 275.705 1881.96 285.326 1920 295.275V303.749Z" fill="#FAEED7"/>
<path d="M1920 266.715C1881.77 255.351 1843.19 245.462 1804.26 237.048L1773.96 230.631L1743.52 225.234C1736.53 223.905 1729.5 222.888 1722.46 221.872L1722.46 221.871L1722.45 221.87L1722.42 221.866C1719.27 221.411 1716.12 220.956 1712.97 220.473L1697.69 218.205C1694.42 217.74 1691.14 217.359 1687.87 216.979C1686.03 216.765 1684.19 216.551 1682.35 216.323C1678.49 215.889 1674.63 215.419 1670.79 214.95L1670.75 214.945C1664.38 214.168 1658.03 213.393 1651.65 212.786L1620.85 209.997C1614.36 209.437 1607.86 209.051 1601.34 208.664L1601.28 208.66L1601.26 208.659C1597.51 208.436 1593.75 208.213 1590 207.956L1574.58 207.027L1559.13 206.505L1543.69 205.961C1538.54 205.779 1533.39 205.598 1528.24 205.598L1497.3 205.394C1494.33 205.342 1491.36 205.402 1488.39 205.463C1486.22 205.508 1484.04 205.553 1481.86 205.553L1450.95 206.188C1447.78 206.271 1444.61 206.424 1441.44 206.576C1439.46 206.671 1437.48 206.767 1435.5 206.845L1404.61 208.296L1373.76 210.564C1371.79 210.72 1369.82 210.86 1367.85 210.999C1364.68 211.224 1361.5 211.449 1358.34 211.743L1342.94 213.239C1339.56 213.572 1336.2 213.891 1332.85 214.208C1325.94 214.863 1319.07 215.514 1312.16 216.278L1281.45 219.974C1279.32 220.249 1277.18 220.504 1275.04 220.76L1275.03 220.761C1272.06 221.115 1269.09 221.47 1266.12 221.878L1250.81 224.146C1230.44 227.23 1210.12 230.608 1189.91 234.622C1149.45 242.422 1109.26 252.058 1069.48 262.579C1036.48 271.306 1003.64 280.86 970.671 290.451L962.889 292.714C958.701 293.932 954.51 295.149 950.317 296.365C910.489 307.906 870.277 317.837 829.452 325.842C788.668 333.797 747.432 339.227 705.979 342.099C622.995 347.109 539.711 341.385 458.193 325.071C376.747 309.244 297.342 284.664 219.843 255.913C181.127 241.311 142.842 225.71 104.875 209.226C69.5107 193.872 34.5598 177.77 -0.25293 161.324V158.3C35.0759 174.566 70.5229 190.633 106.372 205.575C144.453 221.448 182.805 236.753 221.567 250.925C299.18 278.973 378.516 302.6 459.577 317.52C500.06 325.048 540.959 330.144 582.052 332.78C623.106 335.369 664.289 335.202 705.321 332.281C746.333 329.252 787.13 323.808 827.501 315.978C867.873 307.906 907.768 297.77 947.459 286.501C952.938 284.945 958.42 283.385 963.904 281.824L964.225 281.733C998.36 272.018 1032.59 262.274 1067.03 253.351C1107.11 242.966 1147.46 233.715 1188.28 226.141C1208.65 222.287 1229.24 219.044 1249.65 216.096L1265.05 213.965C1268.68 213.484 1272.32 213.059 1275.95 212.635L1278.28 212.363C1278.7 212.314 1279.12 212.264 1279.54 212.214L1311.3 208.432C1317.47 207.781 1323.64 207.202 1329.82 206.623L1329.82 206.623C1333.95 206.236 1338.09 205.849 1342.21 205.439L1357.68 203.988C1361.12 203.67 1364.57 203.433 1368.02 203.196L1368.03 203.195C1369.75 203.077 1371.46 202.959 1373.17 202.832L1404.16 200.564L1435.2 199.158C1435.62 199.142 1436.03 199.125 1436.44 199.108C1436.85 199.091 1437.26 199.073 1437.67 199.055C1438.73 199.009 1439.79 198.96 1440.84 198.912C1444.14 198.761 1447.43 198.61 1450.72 198.524L1481.79 197.979C1486.96 197.821 1492.13 197.821 1497.33 197.821L1528.4 198.115C1532.77 198.096 1537.15 198.256 1541.52 198.415L1574.99 199.635L1590.48 200.61C1594.13 200.866 1597.79 201.091 1601.44 201.317L1601.46 201.318C1608.14 201.729 1614.82 202.141 1621.48 202.741L1652.44 205.598C1658.97 206.231 1665.49 207.037 1672.01 207.842L1672.01 207.843L1672.03 207.845C1675.78 208.309 1679.53 208.773 1683.29 209.203C1685.25 209.454 1687.21 209.688 1689.17 209.922L1689.18 209.923L1689.19 209.924C1692.37 210.303 1695.54 210.682 1698.71 211.131L1714.09 213.398C1717.36 213.911 1720.63 214.392 1723.9 214.872C1730.88 215.899 1737.83 216.922 1744.77 218.251L1775.35 223.738L1805.78 230.041C1844.24 238.511 1882.31 248.344 1920 259.54V266.715Z" fill="#FAEED7"/>
<path d="M1920 229.784C1882.3 217.322 1843.86 207.229 1804.9 199.567L1774.55 193.966L1744.05 189.544L1736.43 188.411C1734.83 188.196 1733.22 188.027 1731.6 187.858L1731.58 187.855C1731.02 187.797 1730.47 187.738 1729.92 187.678C1729.53 187.636 1729.15 187.594 1728.76 187.549L1713.43 185.848L1698.1 184.17C1694.78 183.802 1691.44 183.558 1688.1 183.314C1687.42 183.264 1686.73 183.214 1686.05 183.163C1684.94 183.08 1683.83 182.994 1682.72 182.901C1641.73 179.182 1600.55 178.23 1559.4 178.366L1528.54 178.797L1497.69 179.976C1487.39 180.248 1477.1 180.951 1466.84 181.654C1463.52 181.881 1460.2 182.081 1456.87 182.28L1456.85 182.281L1456.83 182.282L1456.82 182.283C1449.89 182.697 1442.96 183.112 1436.04 183.785C1353.93 190.293 1272.27 201.581 1191.48 217.593C1110.71 233.715 1031.06 254.757 951.292 276.003C911.193 286.524 870.731 295.223 829.905 302.101C789.016 308.981 747.743 313.342 706.319 315.162C623.444 318.654 540.433 310.491 459.373 293.712C378.312 276.932 299.248 252.149 221.612 224.101C182.828 209.974 144.385 194.918 106.145 179.386C70.4778 164.899 35.067 149.8 -0.25293 134.531V131.691C35.5409 146.773 71.4744 161.721 107.529 175.985C145.813 191.132 184.325 205.847 223.2 219.588C300.971 246.888 380.059 270.878 460.733 286.909C541.408 302.94 623.852 310.219 705.888 305.956C746.9 303.837 787.752 299.294 828.227 292.351C868.712 285.435 908.789 276.229 948.661 266.026C960.989 262.871 973.327 259.675 985.677 256.476C1013.27 249.329 1040.92 242.166 1068.64 235.415C1108.76 225.642 1149.13 216.709 1189.73 208.908C1270.96 193.44 1352.99 182.525 1435.43 176.212C1443.53 175.463 1451.64 175.022 1459.75 174.582L1459.78 174.58L1459.89 174.574L1460 174.569C1461.13 174.507 1462.26 174.445 1463.4 174.383C1464.39 174.328 1465.38 174.273 1466.37 174.216C1467.6 174.146 1468.84 174.073 1470.07 173.999C1470.86 173.952 1471.64 173.905 1472.43 173.857L1473.54 173.79L1473.58 173.787L1473.58 173.787C1481.5 173.307 1489.42 172.826 1497.35 172.652L1528.33 171.586L1559.34 171.291C1600.68 171.314 1642.07 172.448 1683.26 176.28C1685.16 176.447 1687.05 176.592 1688.95 176.737L1688.96 176.738C1692.22 176.987 1695.47 177.237 1698.71 177.595L1729.53 181.132L1730.1 181.197C1730.6 181.253 1731.1 181.308 1731.6 181.362L1731.65 181.367L1731.66 181.368C1733.52 181.572 1735.38 181.776 1737.24 182.039L1744.91 183.195L1775.6 187.73L1806.1 193.49C1844.65 201.244 1882.69 211.35 1920 223.751V229.784Z" fill="#FAEED7"/>
<path d="M1920 192.661C1902.15 186.01 1883.97 180.248 1865.55 175.395C1845.68 170.165 1825.64 165.796 1805.44 162.289C1764.94 155.417 1724.02 151.221 1682.97 149.728C1600.86 146.417 1518.58 151.451 1436.91 161.065C1355.23 170.679 1274.06 184.465 1193.41 200.882C1153.08 208.999 1112.78 217.956 1072.72 227.139C1049.51 232.462 1026.31 237.968 1003.09 243.48L1003.08 243.484L1003.06 243.488L1003.05 243.491C986.223 247.484 969.386 251.481 952.517 255.414C872.069 274.211 789.806 286.864 706.954 288.655C665.551 289.556 624.132 287.776 582.959 283.326C541.839 278.846 500.997 272.102 460.62 263.123C379.854 245.256 300.949 220.699 223.2 193.104C148.025 166.423 73.6975 137.579 -0.25293 107.885V105.042L3.34508 106.414C38.483 119.808 73.5655 133.182 108.799 146.122C147.446 160.317 186.23 174.284 225.196 187.526C303.103 214.078 382.009 238.431 462.366 255.323C542.724 272.216 624.782 281.422 706.818 279.358C788.854 277.295 870.368 264.484 950.271 245.551C1110.37 206.981 1271.75 170.135 1436 151.678C1518.08 142.698 1600.84 138.073 1683.47 142.086C1724.8 144.043 1765.96 148.747 1806.67 156.167C1845.35 163.105 1883.29 173.649 1920 187.658V192.661Z" fill="#FAEED7"/>
</g>
<defs>
<filter id="filter0_d" x="-109.253" y="0.0419922" width="2138.25" height="662.958" filterUnits="userSpaceOnUse" color-interpolation-filters="sRGB">
<feFlood flood-opacity="0" result="BackgroundImageFix"/>
<feColorMatrix in="SourceAlpha" type="matrix" values="0 0 0 0 0 0 0 0 0 0 0 0 0 0 0 0 0 0 127 0" result="hardAlpha"/>
<feMorphology radius="19" operator="dilate" in="SourceAlpha" result="effect1_dropShadow"/>
<feOffset dy="4"/>
<feGaussianBlur stdDeviation="45"/>
<feComposite in2="hardAlpha" operator="out"/>
<feColorMatrix type="matrix" values="0 0 0 0 0.792157 0 0 0 0 0.635294 0 0 0 0 0.164706 0 0 0 0.85 0"/>
<feBlend mode="normal" in2="BackgroundImageFix" result="effect1_dropShadow"/>
<feBlend mode="normal" in="SourceGraphic" in2="effect1_dropShadow" result="shape"/>
</filter>
</defs>
</svg>
