<svg width="992" height="529" viewBox="0 0 992 529" fill="none" xmlns="http://www.w3.org/2000/svg">
<g filter="url(#filter0_d)">
<path d="M1074 400.151C1044.78 397.066 1015.97 390.905 988.057 381.77C959.239 372.245 931.934 359.519 905.106 346.254L904.462 345.936C877.851 332.777 851.34 319.669 823.826 308.931C796.117 298.091 767.465 289.81 738.232 284.192C708.896 278.703 679.188 275.413 649.358 274.35C634.455 273.795 619.489 273.526 604.586 273.922C589.673 274.375 574.793 275.591 560.006 277.567C530.46 281.699 501.465 289.076 473.552 299.565C445.594 310.009 418.813 323.115 392.145 336.555C389.172 338.053 386.2 339.554 383.226 341.057C359.522 353.033 335.739 365.049 311.152 375.525C283.497 387.574 254.793 397.081 225.398 403.925C210.671 407.222 195.784 409.964 180.818 411.85C165.852 413.735 150.806 414.908 135.728 415.542C120.65 416.176 105.573 416.129 90.5267 415.542C75.4808 414.956 60.4349 413.957 45.4527 412.373C-14.4283 406.128 -73.5928 391.405 -128.793 367.427C-181.809 344.661 -230.824 313.631 -274 275.519V273.09C-252.463 290.749 -229.69 306.862 -205.853 321.309C-193.084 328.963 -180.092 336.238 -166.829 342.973C-153.572 349.661 -140.044 355.826 -126.245 361.468C-98.7163 372.686 -70.3815 381.835 -41.479 388.838C-27.0541 392.388 -12.4699 395.383 2.17792 397.808C16.8257 400.233 31.5054 402.23 46.3443 403.735C61.1832 405.241 75.8948 406.176 90.7973 406.636C105.7 407.095 120.555 407.19 135.378 406.636C165.034 405.612 194.541 401.974 223.551 395.764C230.843 394.179 238.008 392.372 245.173 390.502C252.338 388.632 259.454 386.524 266.54 384.321C280.678 379.831 294.646 374.786 308.445 369.186C332.252 359.554 355.406 348.351 378.624 337.117C382.301 335.338 385.979 333.558 389.661 331.784C416.6 318.805 443.842 306.11 472.167 296.078C486.286 290.979 500.662 286.61 515.234 282.987C522.526 281.212 529.803 279.707 537.238 278.233C544.673 276.759 552.093 275.634 559.528 274.572C574.431 272.569 589.428 271.342 604.459 270.895C619.473 270.483 634.455 270.578 649.453 271.07C679.464 271.977 709.368 275.049 738.932 280.262C768.542 285.551 797.606 293.508 825.769 304.034C839.859 309.248 853.695 315.048 867.419 321.134C881.144 327.22 894.677 333.559 908.21 339.899C921.744 346.238 935.277 352.339 949.097 357.95C962.864 363.549 976.833 368.462 991.003 372.689C1018.04 380.657 1045.87 385.604 1074 387.441V400.151Z" fill="#FAEED7"/>
<path d="M1074 374.085C1060.06 372.24 1046.17 370.011 1032.41 367.047C1017.71 363.866 1003.2 360.047 988.869 355.588C960.242 346.587 932.602 335.144 905.281 323.464C877.959 311.784 850.718 300.167 822.664 290.769C808.579 286.025 794.451 281.952 780.281 278.55C777.893 277.927 775.49 277.388 773.088 276.849L772.575 276.734C772.213 276.653 771.851 276.571 771.488 276.489C770.821 276.338 770.153 276.186 769.486 276.03L764.073 274.794L758.643 273.7L747.753 271.561L736.815 269.723C736.188 269.619 735.562 269.513 734.938 269.406L734.925 269.404C733.73 269.2 732.537 268.996 731.338 268.819L725.829 268.058L714.843 266.474L703.794 265.285C703.232 265.225 702.67 265.163 702.109 265.102C698.992 264.762 695.874 264.422 692.744 264.207C692.245 264.167 691.745 264.125 691.246 264.084L688.573 263.86C682.579 263.357 676.588 262.854 670.565 262.622L659.42 262.052C656.939 261.957 654.466 261.904 651.994 261.851C650.754 261.825 649.514 261.798 648.275 261.767L637.13 261.513H614.84L603.695 261.909L598.154 262.131L592.613 262.543C592.117 262.582 591.621 262.619 591.125 262.656C590.639 262.692 590.152 262.728 589.666 262.763L588.948 262.816C586.477 262.996 584.009 263.176 581.548 263.399C574.192 264.255 566.852 265.111 559.512 266.093C552.388 267.047 545.325 268.389 538.277 269.727L538.275 269.728L537.636 269.849C537.199 269.946 536.763 270.043 536.327 270.139C535.436 270.336 534.547 270.531 533.659 270.726L533.656 270.726L533.643 270.73C527.724 272.028 521.856 273.316 516.03 274.921C501.717 278.579 487.598 282.953 473.727 288.027C445.896 298.091 418.941 310.326 392.049 323.004C378.596 329.296 365.11 335.556 351.529 341.674C349.283 342.648 347.043 343.638 344.803 344.629C340.232 346.649 335.659 348.671 331.022 350.564L320.705 354.891L310.196 358.916C282.32 369.965 253.539 378.602 224.172 384.733C209.508 387.855 194.654 390.042 179.783 391.833C177.328 392.193 174.844 392.383 172.355 392.573L172.354 392.574L172.353 392.574L172.35 392.574C171.113 392.669 169.874 392.764 168.638 392.879L157.493 393.783C152.504 394.1 147.515 394.29 142.527 394.48L142.514 394.48C140.024 394.575 137.534 394.67 135.043 394.781C105.11 395.386 75.1714 393.877 45.4527 390.264C15.7479 386.768 -13.6807 381.245 -42.6254 373.735C-71.5227 366.089 -99.8256 356.369 -127.312 344.653C-154.813 333.065 -181.388 319.412 -206.809 303.812C-230.159 289.477 -252.599 273.726 -274 256.647V254.277C-228.122 288.748 -178.305 318.059 -125.099 339.36C-97.6716 350.395 -69.5274 359.576 -40.8581 366.841C-12.2025 373.99 16.9121 379.174 46.2806 382.356L57.2983 383.545C59.6738 383.78 62.056 383.943 64.4362 384.105C65.7412 384.194 67.0456 384.284 68.3479 384.385L79.4134 385.161C79.4938 385.166 79.5742 385.171 79.6547 385.176L79.741 385.182L79.8557 385.19C80.0474 385.204 80.2393 385.218 80.4313 385.233C80.7258 385.257 81.0207 385.282 81.3158 385.306C82.5203 385.408 83.7292 385.51 84.9381 385.51L90.4789 385.7L101.624 386.065C102.855 386.096 104.086 386.147 105.316 386.199H105.338C107.792 386.301 110.245 386.403 112.689 386.35C115.181 386.334 117.671 386.354 120.16 386.374H120.209C125.083 386.414 129.952 386.453 134.82 386.223C137.519 386.095 140.217 385.991 142.914 385.887L142.917 385.887L142.919 385.887C147.59 385.706 152.258 385.526 156.92 385.225L167.937 384.305C169.121 384.198 170.304 384.108 171.487 384.017C173.98 383.826 176.471 383.635 178.955 383.291C193.587 381.659 208.203 379.63 222.644 376.698C251.608 370.946 280.038 362.787 307.633 352.308L317.998 348.377L328.299 344.225C332.991 342.388 337.63 340.402 342.273 338.416L342.276 338.415L342.283 338.412C344.444 337.487 346.606 336.562 348.774 335.651C362.371 329.74 375.889 323.733 389.438 317.553C402.987 311.372 416.632 305.207 430.388 299.549C444.145 293.891 458.028 288.598 472.183 283.701C486.337 278.804 500.666 274.556 515.171 271.022C520.342 269.673 525.562 268.583 530.791 267.492L530.793 267.491L530.796 267.491L530.813 267.487C532.885 267.055 534.959 266.622 537.031 266.173L548.049 264.191C550.455 263.712 552.882 263.363 555.311 263.014C556.579 262.832 557.847 262.649 559.114 262.448C564.782 261.578 570.449 260.948 576.109 260.318L576.194 260.309L576.219 260.306C577.948 260.114 579.677 259.922 581.404 259.722C583.643 259.521 585.893 259.354 588.148 259.187C589.614 259.078 591.082 258.969 592.549 258.851L598.138 258.439L614.872 257.725L626.017 257.551L637.162 257.408L648.307 257.551C649.121 257.565 649.937 257.576 650.753 257.585C651.264 257.591 651.774 257.597 652.286 257.603L652.364 257.604H652.369C654.725 257.629 657.088 257.655 659.452 257.725L670.597 258.169C676.158 258.324 681.728 258.718 687.3 259.113L687.441 259.123C689.256 259.252 691.072 259.381 692.887 259.5C696.044 259.676 699.202 259.989 702.368 260.303L702.371 260.303L702.465 260.312L702.51 260.317C703.017 260.367 703.525 260.417 704.032 260.467L715.177 261.545L726.322 262.971L731.863 263.668C733.105 263.837 734.332 264.035 735.56 264.232L736.222 264.338L736.583 264.396L736.958 264.455L737.207 264.494L737.404 264.524L748.469 266.268L764.98 269.358L770.457 270.547C772.165 270.948 773.877 271.317 775.587 271.686L775.592 271.688L775.622 271.694C777.551 272.111 779.477 272.527 781.395 272.987C795.884 276.41 810.213 280.531 824.543 285C851.821 293.556 878.327 304.362 904.659 315.097L908.195 316.538C935.691 327.743 963.219 338.631 991.56 346.761C1005.71 350.818 1020.04 354.241 1034.47 357.015C1047.54 359.528 1060.76 361.261 1074 362.66V374.085Z" fill="#FAEED7"/>
<path d="M1074 347.98C1060.2 345.865 1046.46 343.356 1032.84 340.39C1018.31 337.093 1003.92 333.332 989.665 329.106C962.21 320.877 935.391 311.03 908.68 301.223L905.631 300.104C877.912 289.929 850.192 279.913 821.852 271.989C793.531 263.992 764.656 258.086 735.462 254.318C706.27 250.567 676.865 248.693 647.431 248.708H636.382L625.237 248.945C623.927 248.979 622.616 249.003 621.304 249.027L621.288 249.027C618.92 249.07 616.55 249.113 614.187 249.215L603.169 249.77C599.491 249.912 595.829 250.245 592.167 250.594C590.844 250.72 589.518 250.829 588.192 250.939L588.171 250.94C585.836 251.133 583.502 251.325 581.181 251.608C573.873 252.495 566.597 253.51 559.305 254.54C553.119 255.414 546.989 256.596 540.869 257.776L537.588 258.407C536.575 258.638 535.559 258.868 534.542 259.096L532.588 259.535L532.549 259.544C527.057 260.775 521.546 262.01 516.11 263.478C501.86 267.139 487.77 271.355 473.886 276.236C446.039 285.888 418.973 297.489 391.906 309.28C378.373 315.191 364.807 321.087 351.051 326.602C337.295 332.117 323.523 337.601 309.48 342.45C281.474 352.525 252.687 360.306 223.408 365.715C222.11 365.94 220.815 366.184 219.518 366.429C217.156 366.875 214.791 367.321 212.406 367.649L201.341 369.234L195.816 370.042C194.647 370.192 193.477 370.311 192.304 370.43L192.301 370.431C192.022 370.459 191.743 370.487 191.463 370.516C191.063 370.557 190.661 370.6 190.259 370.644L179.114 371.833C176.253 372.175 173.383 372.357 170.518 372.539C169.668 372.592 168.818 372.646 167.969 372.704L156.824 373.402C154.961 373.544 153.098 373.639 151.252 373.639L134.518 374.067C104.766 374.251 75.0367 372.366 45.5482 368.425C16.0494 364.581 -13.1653 358.821 -41.9089 351.182C-70.5817 343.449 -98.6903 333.775 -126.038 322.228L-136.292 317.933C-139.259 316.683 -142.142 315.326 -145.056 313.954L-145.058 313.953L-146.402 313.321L-156.48 308.567L-161.528 306.237C-163.087 305.498 -164.674 304.676 -166.173 303.9L-166.495 303.733L-186.206 293.606L-205.567 282.702C-229.14 268.919 -251.982 253.935 -274 237.809V235.534C-251.289 251.286 -227.813 265.917 -203.656 279.374L-184.184 289.802L-164.362 299.454C-164.21 299.53 -164.058 299.605 -163.906 299.681C-163.727 299.771 -163.548 299.86 -163.37 299.95L-163.368 299.951C-162.051 300.611 -160.743 301.267 -159.394 301.863L-154.363 304.192L-144.269 308.677C-143.052 309.203 -141.843 309.747 -140.634 310.292C-138.491 311.257 -136.347 312.222 -134.158 313.083L-123.905 317.188C-96.5979 328.104 -68.6202 337.277 -40.1416 344.653C-11.6511 351.957 17.2864 357.41 46.4877 360.977L57.4417 362.26L60.1642 362.593L84.8904 364.59L90.3993 364.844L101.401 365.335L106.91 365.604C108.741 365.763 110.572 365.763 112.403 365.763C115.121 365.775 117.84 365.808 120.558 365.842C125.18 365.898 129.801 365.955 134.422 365.905L145.424 365.589L150.917 365.446C152.764 365.414 154.595 365.335 156.426 365.192L167.396 364.463L167.899 364.431C168.162 364.414 168.425 364.397 168.688 364.38L168.708 364.379L168.738 364.377L168.757 364.376C171.965 364.171 175.17 363.967 178.35 363.592L189.304 362.482C189.913 362.418 190.523 362.36 191.134 362.302L191.142 362.301C192.351 362.185 193.561 362.069 194.765 361.912L200.21 361.151L211.101 359.566C213.899 359.2 216.687 358.683 219.467 358.167C220.293 358.014 221.119 357.861 221.943 357.712C223.071 357.508 224.202 357.311 225.334 357.113C227.813 356.681 230.295 356.247 232.754 355.747L248.883 352.308C249.926 352.069 250.959 351.808 251.991 351.548L251.994 351.547C252.739 351.36 253.484 351.172 254.232 350.992L264.884 348.33C268.249 347.492 271.557 346.528 274.889 345.557L274.896 345.554L274.9 345.553L274.907 345.551L274.908 345.551L274.909 345.551L274.912 345.55L275.488 345.382C276.687 345.032 277.889 344.697 279.089 344.363L279.091 344.362C281.426 343.711 283.757 343.061 286.059 342.307C287.942 341.707 289.827 341.117 291.712 340.526L291.716 340.525C296.842 338.92 301.965 337.316 307.028 335.509C320.975 330.849 334.748 325.651 348.424 320.167C362.101 314.684 375.698 309.042 389.327 303.337C390.162 302.987 390.998 302.637 391.834 302.286L394.314 301.247L394.316 301.246C406.281 296.232 418.251 291.215 430.357 286.442C444.145 281.006 458.076 275.903 472.167 271.26C486.262 266.579 500.523 262.48 514.948 258.962C520.153 257.629 525.418 256.513 530.686 255.395L530.688 255.395L530.692 255.394L533.602 254.776C534.629 254.557 535.655 254.336 536.681 254.112C539.069 253.692 541.452 253.246 543.835 252.799L543.846 252.797C548.752 251.878 553.656 250.959 558.605 250.277C587.948 245.554 617.722 244.365 647.32 244.159C676.995 243.928 706.654 245.596 736.114 249.151C765.602 252.757 794.788 258.482 823.444 266.283C852.135 273.906 880.189 283.59 908.051 293.447L909.654 294.014C936.98 303.683 964.241 313.328 992.022 320.992C1006.14 324.969 1020.44 328.424 1034.8 331.309C1047.79 333.917 1060.88 336.032 1074 337.808V347.98Z" fill="#FAEED7"/>
<path d="M1074 321.811C1045.88 316.725 1017.87 310.316 990.461 302.528C970.214 296.777 950.138 290.459 930.099 284.152L930.06 284.141L929.908 284.093C921.961 281.592 914.021 279.093 906.077 276.632C878.039 267.947 850.017 259.405 821.359 253.066C816.154 251.731 810.958 250.721 805.752 249.71L805.751 249.71C803.79 249.329 801.828 248.948 799.864 248.549L789.085 246.426C787.302 246.029 785.487 245.76 783.672 245.49L778.243 244.651L756.526 241.354L734.681 239.009C734.449 238.985 734.216 238.961 733.983 238.937C733.86 238.924 733.738 238.911 733.615 238.898C733.341 238.868 733.067 238.838 732.793 238.808C732.235 238.746 731.677 238.683 731.118 238.62L731.081 238.616C728.648 238.34 726.211 238.064 723.759 237.915L712.789 237.249C710.143 237.094 707.495 236.931 704.847 236.768C700.18 236.48 695.511 236.192 690.849 235.95L657.86 235.474H655.121L624.886 236.362C623.555 236.414 622.222 236.449 620.889 236.484H620.886C618.553 236.545 616.22 236.607 613.9 236.758L602.946 237.487C588.346 238.707 573.794 240.324 559.369 242.796L553.94 243.668C552.827 243.854 551.72 244.071 550.612 244.288L550.609 244.288C550.338 244.341 550.067 244.394 549.796 244.447C549.384 244.527 548.971 244.606 548.558 244.682C548.03 244.785 547.501 244.886 546.973 244.987C546.443 245.088 545.913 245.189 545.383 245.289L545.376 245.291C542.839 245.772 540.306 246.254 537.779 246.79C536.936 246.979 536.092 247.167 535.248 247.355L535.114 247.385L535.094 247.39C528.842 248.785 522.596 250.178 516.413 251.814C502.227 255.427 488.168 259.5 474.284 264.176C446.801 273.294 419.91 284.086 392.932 294.912L392.002 295.286C364.712 306.237 337.168 316.839 308.987 325.746C294.976 330.31 280.646 334.177 266.317 337.838C251.908 341.198 237.419 344.352 222.771 346.539L211.785 348.251L200.768 349.582C195.032 350.36 189.277 350.83 183.525 351.3L183.524 351.3C181.9 351.433 180.276 351.566 178.653 351.705L173.112 352.149L167.555 352.403L156.41 352.894C152.669 353.116 148.975 353.116 145.265 353.116L134.12 353.211C104.528 352.98 74.987 350.719 45.7075 346.444C-12.8353 338.093 -70.0785 322.389 -124.653 299.707L-134.891 295.523L-145.017 291.038C-146.881 290.187 -148.752 289.346 -150.623 288.505L-150.626 288.504L-150.654 288.492C-155.499 286.314 -160.346 284.135 -165.094 281.783C-167.565 280.559 -170.046 279.353 -172.529 278.147C-176.671 276.135 -180.815 274.121 -184.916 272.02L-204.404 261.64C-228.231 248.456 -251.404 234.216 -274 219.12V216.826C-250.784 231.669 -227.006 245.641 -202.637 258.439C-176.702 272.075 -150.048 284.312 -122.79 295.095C-68.3504 316.772 -11.4302 331.676 46.6786 339.471C47.5478 339.586 48.4167 339.703 49.2855 339.82C55.674 340.677 62.0562 341.534 68.4753 342.022L84.8586 343.544C86.0724 343.65 87.2933 343.713 88.5165 343.777L89.2841 343.817C89.6346 343.836 89.9851 343.855 90.3356 343.876L101.29 344.51C102.599 344.573 103.907 344.664 105.216 344.755C107.553 344.918 109.891 345.081 112.228 345.081C114.76 345.125 117.291 345.186 119.823 345.247H119.834C124.605 345.362 129.374 345.477 134.136 345.477L145.09 345.35C146.216 345.326 147.34 345.314 148.463 345.301C150.993 345.273 153.519 345.246 156.044 345.081L172.459 344.273L177.904 343.829C179.534 343.69 181.164 343.559 182.794 343.428L182.811 343.427C188.455 342.972 194.097 342.518 199.701 341.769L210.591 340.374L221.402 338.789C235.859 336.634 250.156 333.559 264.39 330.39C278.576 326.903 292.587 322.941 306.646 318.741C320.705 314.541 334.493 309.708 348.249 304.652C362.005 299.596 375.682 294.319 389.375 289.01C392.711 287.716 396.047 286.416 399.385 285.115C409.746 281.077 420.123 277.033 430.564 273.162C444.362 267.995 458.278 263.161 472.31 258.66C500.455 249.686 529.23 242.799 558.398 238.058C572.966 235.601 587.662 234.001 602.373 232.828L613.439 232.051C615.84 231.875 618.241 231.801 620.647 231.726H620.648C621.927 231.686 623.207 231.647 624.488 231.592L654.883 230.546H657.637L668.782 230.641L690.913 230.863C695.789 231.083 700.659 231.359 705.53 231.635L705.569 231.637L705.608 231.639L705.678 231.643L705.689 231.643C708.129 231.782 710.57 231.92 713.012 232.051L724.062 232.669C726.389 232.809 728.704 233.056 731.018 233.303L731.022 233.303C732.379 233.448 733.736 233.592 735.095 233.715L757.115 236.077L779.023 239.246L784.5 240.055C786.331 240.308 788.162 240.593 789.961 240.974L800.836 243.05C802.995 243.48 805.16 243.889 807.323 244.297L807.339 244.3C812.427 245.262 817.513 246.222 822.537 247.456C851.418 253.621 879.759 261.878 907.94 270.356C914.647 272.374 921.345 274.415 928.039 276.454C949.47 282.984 970.865 289.502 992.436 295.238C1019.37 302.449 1046.56 308.309 1074 312.818V321.811Z" fill="#FAEED7"/>
<path d="M1074 295.907C1046.12 290.172 1018.37 283.59 991.003 276.205C981.728 273.701 972.462 271.166 963.196 268.63L963.111 268.607L963.091 268.602L963.083 268.599C944.169 263.423 925.259 258.248 906.284 253.351C849.81 238.391 792.302 227.281 734.013 223.763L723.09 223.002C720.747 222.88 718.404 222.816 716.061 222.753L716.041 222.753C714.745 222.718 713.448 222.683 712.152 222.637L690.276 222.003C682.984 221.972 675.676 222.051 668.384 222.178C666.382 222.213 664.378 222.231 662.374 222.249C657.08 222.297 651.781 222.344 646.492 222.701L624.615 223.779C623.254 223.862 621.889 223.925 620.522 223.988L620.511 223.988C618.236 224.094 615.959 224.199 613.693 224.397L602.803 225.316C588.299 226.758 573.81 228.549 559.48 231.116L554.083 232.02L548.717 233.066C547.51 233.307 546.3 233.541 545.09 233.776C542.726 234.233 540.361 234.692 538.002 235.205L527.335 237.598C525.089 238.099 522.855 238.658 520.618 239.217L520.612 239.219C519.315 239.543 518.017 239.868 516.715 240.181C502.593 243.747 488.566 247.709 474.65 252.083C460.735 256.458 446.915 261.18 433.175 266.109C423.639 269.53 414.141 273.073 404.629 276.621L404.622 276.624L404.62 276.624C400.429 278.188 396.235 279.752 392.033 281.308C364.553 291.482 336.801 301.229 308.493 309.153C280.205 317.412 251.339 323.568 222.134 327.569C192.906 331.441 163.425 333.094 133.945 332.513C104.502 331.866 75.1381 329.218 46.0577 324.589C17.0002 320.046 -11.7619 313.796 -40.078 305.872L-50.6658 302.814C-51.8684 302.451 -53.0748 302.104 -54.2805 301.758L-54.2818 301.758C-56.6031 301.092 -58.9217 300.426 -61.2059 299.644L-82.1586 292.829L-102.857 285.349C-105.649 284.38 -108.389 283.288 -111.128 282.197C-111.502 282.048 -111.876 281.899 -112.25 281.75C-112.45 281.671 -112.65 281.591 -112.85 281.512L-123.364 277.346C-150.574 266.315 -177.354 254.191 -203.306 240.609C-227.336 228.033 -250.888 214.561 -274 200.405V198.138C-250.324 212.078 -226.284 225.396 -201.682 237.566C-175.507 250.514 -148.822 262.401 -121.628 272.971L-111.407 276.87C-111.237 276.934 -111.068 276.997 -110.898 277.061C-110.553 277.191 -110.209 277.322 -109.864 277.453C-109.534 277.578 -109.205 277.703 -108.875 277.829L-108.871 277.83C-106.302 278.807 -103.738 279.783 -101.137 280.642L-80.4391 287.79L-59.55 294.319C-57.1559 295.11 -54.7159 295.779 -52.2777 296.447C-51.1973 296.743 -50.1173 297.039 -49.0418 297.346L-38.5176 300.278C-10.3709 307.881 18.2058 313.808 47.0608 318.028C61.4857 320.183 75.9743 321.721 90.4789 322.973L101.369 323.749C102.725 323.832 104.076 323.936 105.426 324.04C107.707 324.217 109.985 324.393 112.276 324.462C114.704 324.542 117.131 324.639 119.557 324.736C124.4 324.929 129.24 325.123 134.088 325.176C163.187 325.66 192.281 323.933 221.115 320.009L226.529 319.296L231.91 318.408L242.673 316.649C246.255 316.079 249.822 315.365 253.388 314.652C254.634 314.403 255.883 314.167 257.131 313.932C259.454 313.493 261.778 313.055 264.088 312.529C266.352 312.007 268.624 311.506 270.896 311.005C275.732 309.939 280.571 308.872 285.359 307.6L295.947 304.937L306.471 302.021C334.541 294.24 362.101 284.62 389.486 274.731C393.267 273.373 397.049 272.008 400.832 270.642L400.853 270.635C410.841 267.03 420.841 263.421 430.882 259.928C444.734 255.11 458.681 250.514 472.724 246.251C500.841 237.633 529.492 230.841 558.493 225.918C572.982 223.398 587.582 221.639 602.23 220.228L613.216 219.278C615.504 219.07 617.793 218.954 620.082 218.839C621.455 218.77 622.828 218.701 624.202 218.612L646.189 217.439C652.697 216.974 659.23 216.91 665.755 216.846H665.756C666.574 216.838 667.391 216.83 668.209 216.821C670.914 216.792 673.618 216.748 676.323 216.703C680.958 216.627 685.593 216.552 690.228 216.552L712.264 217.106C713.591 217.147 714.921 217.178 716.25 217.21L716.276 217.211C718.607 217.267 720.94 217.323 723.266 217.423L734.267 218.152C793.018 221.449 851.1 232.447 907.812 247.218C921.954 250.822 936.045 254.579 950.124 258.333L950.131 258.335L950.138 258.337C964.347 262.126 978.545 265.911 992.77 269.532C1019.71 276.392 1046.76 282.649 1074 288.004V295.907Z" fill="#FAEED7"/>
<path d="M1074 269.92C1046.49 263.496 1019.11 256.64 991.751 249.77C963.474 242.67 935.15 235.839 906.666 229.833L895.983 227.582L890.649 226.473L885.284 225.474L863.837 221.449L842.295 217.978L836.914 217.122L809.895 213.556C807.705 213.307 805.515 213.092 803.322 212.877C802.432 212.79 801.543 212.702 800.652 212.613C800.114 212.559 799.575 212.504 799.036 212.447C796.559 212.214 794.082 211.96 791.605 211.705L791.583 211.704L791.579 211.703C786.835 211.217 782.089 210.73 777.335 210.387L755.571 208.945L750.141 208.596L744.68 208.422L733.79 208.089C722.757 207.572 711.724 207.629 700.684 207.687C697.178 207.706 693.672 207.724 690.165 207.724C687.447 207.701 684.73 207.81 682.006 207.92C681.091 207.957 680.175 207.993 679.259 208.025L657.462 208.849L652.017 209.071L624.807 211.052C623.541 211.152 622.274 211.238 621.007 211.324L621.004 211.324C618.638 211.484 616.275 211.645 613.932 211.892L603.09 213.002C588.649 214.729 574.288 216.789 559.99 219.341C545.692 221.893 531.491 224.888 517.384 228.422C503.277 231.956 489.266 235.728 475.335 239.88C461.404 244.033 447.6 248.454 433.748 253.082C422.144 256.959 410.629 260.925 399.072 264.905L399.055 264.911C396.823 265.68 394.589 266.449 392.352 267.219L381.907 270.753L371.495 274.144C365.867 276.007 360.186 277.756 354.521 279.5C353.704 279.751 352.888 280.003 352.071 280.254C351.567 280.41 351.062 280.565 350.558 280.721C345.875 282.169 341.156 283.53 336.435 284.892C334.126 285.559 331.816 286.225 329.51 286.902L318.906 289.755C315.371 290.722 311.837 291.672 308.27 292.528L297.603 295.159C294.052 295.999 290.454 296.839 286.872 297.584C285.398 297.89 283.929 298.224 282.459 298.557L282.451 298.559C280.351 299.036 278.249 299.513 276.125 299.914L265.361 302.021C261.763 302.766 258.149 303.353 254.535 303.939L243.676 305.746L232.754 307.204C231.73 307.333 230.706 307.471 229.681 307.608C227.073 307.957 224.461 308.307 221.832 308.535C192.647 311.713 163.268 312.772 133.929 311.705C104.626 310.632 75.429 307.598 46.5355 302.624C17.667 297.73 -10.9038 291.233 -39.043 283.162C-67.1764 275.127 -94.8958 265.697 -122.058 254.952C-149.22 244.207 -176.016 232.511 -202.191 219.642C-226.492 207.695 -250.382 194.927 -274 181.658V179.477C-249.917 192.538 -225.558 205.25 -200.79 216.742C-174.456 228.961 -147.692 240.609 -120.418 250.927C-93.2927 261.349 -65.6608 270.415 -37.6259 278.09C-9.61255 285.842 18.8148 292.028 47.5226 296.617L63.683 298.994C65.155 299.202 66.627 299.367 68.1078 299.533L69.0963 299.644L79.907 300.912C80.9707 301.029 82.0316 301.155 83.0917 301.281L83.1099 301.283C85.6461 301.585 88.178 301.886 90.7337 302.053C93.5409 302.275 96.3481 302.518 99.1562 302.761L99.1865 302.764L99.1972 302.765L99.2162 302.767C103.619 303.148 108.024 303.529 112.435 303.828L123.293 304.383C124.313 304.432 125.332 304.489 126.351 304.547L126.353 304.547C128.957 304.695 131.558 304.842 134.168 304.842C163.163 305.732 192.185 304.524 221.004 301.229C249.819 297.832 278.376 292.537 306.487 285.381C334.652 278.407 362.372 269.564 389.995 260.42C395.052 258.744 400.111 257.049 405.174 255.353C413.947 252.413 422.731 249.47 431.535 246.616C445.418 242.115 459.382 237.773 473.44 233.715C501.543 225.521 530.075 218.86 558.907 213.762C573.316 211.163 587.853 209.198 602.405 207.613L613.327 206.504C615.647 206.252 617.967 206.09 620.287 205.927C621.613 205.835 622.939 205.742 624.265 205.632L651.603 203.651L668.05 202.986L679.004 202.558C679.575 202.535 680.145 202.512 680.715 202.489C683.803 202.365 686.883 202.241 689.974 202.241C693.406 202.233 696.839 202.209 700.272 202.185C711.47 202.107 722.667 202.029 733.854 202.526L744.824 202.859L750.316 203.017L777.686 204.776C782.392 205.072 787.078 205.559 791.765 206.046L791.777 206.046C794.365 206.315 796.953 206.584 799.546 206.821C799.788 206.845 800.031 206.869 800.273 206.893L800.621 206.928C801.497 207.013 802.374 207.098 803.252 207.182L803.255 207.182C805.656 207.412 808.062 207.642 810.468 207.914L821.343 209.341L832.233 210.751L837.662 211.464L843.076 212.32L864.745 215.775L891.7 220.783L907.828 224.127C936.44 230.134 964.844 236.933 993.184 243.827C1020.11 250.376 1047.02 256.898 1074 263.051V269.92Z" fill="#FAEED7"/>
<path d="M1074 243.885C1018.76 229.371 963.333 215.537 906.984 206.33L896.253 204.586C894.988 204.401 893.722 204.207 892.456 204.012L892.449 204.011C890.133 203.655 887.815 203.298 885.49 203.001L863.948 200.054C861.31 199.758 858.671 199.456 856.033 199.154L856.03 199.153C844.263 197.807 832.495 196.46 820.674 195.632C809.624 194.589 798.546 194.029 787.461 193.468C784.06 193.296 780.658 193.124 777.255 192.938L755.523 192.431C754.128 192.412 752.734 192.382 751.341 192.352L751.328 192.352L751.321 192.352C749.093 192.304 746.868 192.256 744.648 192.256H733.774C704.765 192.209 675.771 193.936 646.858 196.187L625.205 198.247C624.007 198.368 622.81 198.48 621.613 198.592C619.197 198.818 616.784 199.044 614.378 199.34L603.599 200.64C589.158 202.574 574.829 204.745 560.611 207.471C532.111 212.78 503.978 219.69 476.035 227.503C451.391 234.394 427.007 242.111 402.556 249.849L395.422 252.106C394.526 252.389 393.63 252.672 392.734 252.955L382.305 256.22L371.813 259.389C367.404 260.712 362.956 261.946 358.511 263.18L358.497 263.183C355.916 263.899 353.336 264.615 350.765 265.348C343.759 267.345 336.706 269.184 329.605 270.895C328.912 271.062 328.219 271.229 327.526 271.397L327.505 271.402L327.502 271.403C321.102 272.947 314.7 274.491 308.286 275.919C279.757 282.329 250.841 286.897 221.72 289.596C192.571 292.07 163.286 292.542 134.072 291.007C104.893 289.438 75.8447 286.002 47.1084 280.721C-10.3525 270.325 -66.4282 253.494 -120.784 232.669C-147.947 222.194 -174.79 210.926 -201.188 198.707C-225.737 187.343 -249.969 175.309 -274 162.959V160.84C-249.53 173.012 -224.905 184.834 -199.899 195.87C-173.326 207.597 -146.53 218.755 -119.336 228.897C-64.8998 249.104 -8.99915 265.269 48.1433 275.016L58.8585 276.743C59.4477 276.835 60.0365 276.927 60.6251 277.021L61.4139 277.146C64.1401 277.581 66.8636 278.014 69.6056 278.328C72.0504 278.634 74.4749 278.968 76.8961 279.301C81.618 279.95 86.3271 280.598 91.1475 281.038C94.1812 281.315 97.1846 281.619 100.177 281.923C104.378 282.348 108.557 282.772 112.769 283.114L123.596 283.827C127.194 284.081 130.808 284.335 134.422 284.43C163.329 285.787 192.296 285.151 221.115 282.528C249.909 279.709 278.501 275.12 306.726 268.787C334.986 262.527 362.865 254.603 390.6 246.061C391.837 245.68 393.073 245.299 394.31 244.918L400.031 243.153C424.646 235.557 449.352 227.933 474.284 221.132C502.402 213.461 530.822 206.757 559.56 201.638C573.905 198.992 588.362 196.916 602.835 195.093L613.709 193.794C616.045 193.508 618.381 193.295 620.712 193.082H620.713L620.764 193.077L620.828 193.071C621.317 193.026 621.804 192.982 622.292 192.937C622.532 192.914 622.772 192.892 623.012 192.869C623.536 192.819 624.06 192.769 624.583 192.716L646.348 190.64C675.405 188.342 704.542 186.757 733.71 186.757H744.648C746.683 186.721 748.717 186.78 750.748 186.839H750.763L750.768 186.839C752.371 186.885 753.972 186.931 755.57 186.931L777.447 187.454C781.14 187.663 784.836 187.854 788.532 188.045L788.537 188.045C799.401 188.606 810.27 189.167 821.103 190.196C832.064 190.973 842.989 192.218 853.911 193.463L854.023 193.476C857.549 193.878 861.074 194.28 864.601 194.665L886.27 197.661C889.67 198.033 893.056 198.588 896.428 199.141L897.065 199.245L907.892 200.957C936.63 205.791 965.21 211.528 993.582 218.073C1020.5 224.284 1047.3 231.008 1074 237.962V243.885Z" fill="#FAEED7"/>
<path d="M1074 218C1047.16 210.057 1020.08 203.145 992.754 197.264L971.483 192.779L950.116 189.007C945.207 188.078 940.267 187.368 935.329 186.657L935.326 186.657L935.318 186.656L935.303 186.654C933.091 186.335 930.879 186.017 928.67 185.679L917.938 184.094C915.644 183.77 913.343 183.503 911.043 183.237C909.753 183.088 908.463 182.939 907.175 182.779C904.459 182.475 901.756 182.147 899.058 181.819L899.028 181.816C894.557 181.273 890.1 180.731 885.618 180.307L863.996 178.357C859.443 177.966 854.877 177.696 850.307 177.426L850.261 177.423L850.249 177.422C847.615 177.266 844.979 177.11 842.343 176.931L831.516 176.281L820.674 175.917L809.831 175.536C806.217 175.41 802.603 175.283 798.989 175.283L777.272 175.14C775.187 175.104 773.101 175.146 771.016 175.189C769.487 175.22 767.958 175.251 766.429 175.251L744.728 175.695C742.503 175.753 740.279 175.86 738.054 175.967C736.665 176.033 735.275 176.1 733.885 176.155L712.2 177.169L690.547 178.754C689.164 178.863 687.781 178.96 686.399 179.058C684.169 179.215 681.941 179.372 679.72 179.578L668.909 180.624C666.535 180.856 664.177 181.079 661.826 181.301C656.972 181.759 652.152 182.214 647.304 182.747L625.746 185.331C624.247 185.523 622.745 185.701 621.242 185.88L621.237 185.881C619.151 186.129 617.064 186.377 614.983 186.662L604.236 188.247C589.938 190.402 575.672 192.763 561.486 195.569C533.082 201.02 504.869 207.756 476.943 215.11C453.779 221.209 430.725 227.887 407.58 234.59L402.117 236.172C399.177 237.023 396.235 237.874 393.291 238.723C365.333 246.79 337.104 253.732 308.445 259.326C279.815 264.887 250.868 268.682 221.768 270.689C163.514 274.191 105.05 270.19 47.825 258.787C-9.34937 247.725 -65.0908 230.546 -119.495 210.45C-146.673 200.244 -173.548 189.34 -200.201 177.819C-225.027 167.087 -249.562 155.833 -274 144.338V142.224C-249.199 153.593 -224.316 164.823 -199.15 175.267C-172.418 186.361 -145.495 197.058 -118.285 206.964C-63.8011 226.568 -8.10748 243.082 48.7962 253.51C77.2152 258.771 105.926 262.333 134.773 264.176C163.593 265.985 192.502 265.869 221.306 263.827C250.096 261.71 278.736 257.905 307.076 252.432C335.416 246.79 363.422 239.706 391.285 231.829C395.132 230.742 398.98 229.652 402.83 228.561L403.055 228.497C427.017 221.706 451.05 214.896 475.223 208.659C503.357 201.401 531.681 194.935 560.34 189.641C574.638 186.947 589.094 184.681 603.424 182.621L614.235 181.131C616.781 180.794 619.335 180.498 621.886 180.201L623.517 180.011C623.814 179.977 624.11 179.942 624.406 179.907L646.699 177.264C651.028 176.808 655.363 176.404 659.697 175.999L659.699 175.999C662.601 175.729 665.501 175.458 668.4 175.172L679.258 174.158C681.672 173.935 684.094 173.77 686.517 173.604L686.524 173.603C687.726 173.521 688.93 173.439 690.133 173.349L711.882 171.765L733.678 170.782C733.968 170.771 734.257 170.759 734.547 170.747C734.835 170.735 735.123 170.722 735.411 170.71C736.153 170.677 736.895 170.644 737.637 170.61C739.948 170.504 742.258 170.399 744.569 170.338L766.381 169.958C770.011 169.847 773.641 169.847 777.287 169.847L799.1 170.053C802.171 170.04 805.242 170.151 808.314 170.262L831.803 171.115L842.677 171.796C845.243 171.976 847.809 172.133 850.375 172.29L850.391 172.291C855.078 172.579 859.764 172.866 864.442 173.286L886.175 175.283C890.759 175.725 895.336 176.288 899.911 176.852L899.916 176.852L899.927 176.853C902.561 177.178 905.195 177.502 907.828 177.803C909.205 177.978 910.582 178.141 911.958 178.305L911.966 178.306L911.974 178.307C914.204 178.572 916.433 178.837 918.655 179.15L929.45 180.735C931.748 181.093 934.044 181.429 936.336 181.765C941.236 182.482 946.121 183.198 950.992 184.126L972.454 187.961L993.821 192.367C1020.82 198.287 1047.54 205.16 1074 212.985V218Z" fill="#FAEED7"/>
<path d="M1074 192.188C1047.54 183.477 1020.55 176.423 993.2 171.067L971.897 167.153L950.482 164.062L945.133 163.27C944.009 163.12 942.88 163.002 941.747 162.883L941.728 162.881C941.341 162.841 940.953 162.8 940.565 162.758C940.294 162.729 940.022 162.699 939.751 162.668L928.988 161.479L918.225 160.306C915.896 160.049 913.554 159.878 911.211 159.708C910.73 159.673 910.249 159.638 909.768 159.602C908.988 159.544 908.209 159.484 907.431 159.419C878.66 156.82 849.747 156.154 820.865 156.249L799.196 156.55L777.542 157.374C770.314 157.564 763.086 158.056 755.889 158.547C753.557 158.706 751.222 158.845 748.886 158.985L748.871 158.986L748.856 158.986L748.853 158.987C743.99 159.276 739.121 159.567 734.267 160.037C676.627 164.585 619.303 172.475 562.585 183.667C505.888 194.935 449.972 209.642 393.976 224.492C365.826 231.845 337.422 237.926 308.764 242.733C280.06 247.541 251.086 250.59 222.007 251.862C163.83 254.302 105.557 248.597 48.653 236.869C-8.25076 225.141 -63.7533 207.819 -118.253 188.215C-145.479 178.342 -172.466 167.818 -199.31 156.962C-224.348 146.836 -249.206 136.283 -274 125.611V123.626C-248.873 134.168 -223.648 144.615 -198.338 154.585C-171.463 165.172 -144.428 175.457 -117.138 185.061C-62.5433 204.143 -7.02481 220.91 49.6082 232.115C106.241 243.319 164.116 248.407 221.704 245.427C250.495 243.946 279.172 240.771 307.585 235.918C336.005 231.085 364.139 224.65 392.129 217.518C400.783 215.314 409.444 213.08 418.114 210.844C437.485 205.848 456.897 200.842 476.354 196.123C504.519 189.293 532.86 183.049 561.359 177.597C618.379 166.785 675.962 159.156 733.837 154.743C739.521 154.22 745.214 153.912 750.909 153.604L750.929 153.603L751.005 153.599L751.082 153.595C751.878 153.552 752.674 153.509 753.47 153.465C754.165 153.427 754.86 153.388 755.555 153.349C756.422 153.3 757.289 153.249 758.156 153.197C758.707 153.164 759.258 153.131 759.808 153.098L760.588 153.051L760.616 153.049L760.618 153.049C766.175 152.713 771.735 152.377 777.304 152.255L799.052 151.51L820.817 151.304C849.842 151.32 878.899 152.113 907.812 154.791C909.142 154.908 910.474 155.009 911.806 155.111L911.811 155.111C914.097 155.286 916.382 155.46 918.655 155.71L940.293 158.183L940.694 158.228C941.046 158.267 941.396 158.305 941.747 158.343L941.778 158.347L941.784 158.347C943.095 158.49 944.4 158.633 945.706 158.817L951.087 159.625L972.629 162.794L994.044 166.82C1021.11 172.24 1047.81 179.303 1074 187.971V192.188Z" fill="#FAEED7"/>
<path d="M1074 166.24C1061.47 161.592 1048.71 157.565 1035.77 154.173C1021.83 150.517 1007.76 147.464 993.582 145.013C965.148 140.209 936.427 137.276 907.605 136.233C849.969 133.919 792.206 137.437 734.872 144.157C677.539 150.876 620.556 160.512 563.939 171.986C535.63 177.66 507.337 183.92 479.22 190.339C462.921 194.059 446.639 197.907 430.338 201.76L430.327 201.763L430.315 201.766L430.307 201.768C418.497 204.559 406.678 207.352 394.836 210.101C338.362 223.24 280.614 232.083 222.453 233.335C193.388 233.965 164.313 232.721 135.41 229.611C106.544 226.479 77.873 221.765 49.5286 215.49C-7.16809 203.001 -62.5592 185.838 -117.138 166.55C-169.911 147.901 -222.087 127.741 -274 106.987V105L-271.474 105.959C-246.808 115.321 -222.18 124.668 -197.447 133.713C-170.316 143.634 -143.09 153.396 -115.737 162.652C-61.0466 181.21 -5.65555 198.231 50.7545 210.038C107.165 221.845 164.769 228.279 222.357 226.837C279.945 225.395 337.168 216.441 393.259 203.207C505.65 176.249 618.932 150.496 734.235 137.596C791.856 131.32 849.953 128.087 907.956 130.892C936.972 132.26 965.864 135.547 994.442 140.734C1021.6 145.583 1048.23 152.952 1074 162.744V166.24Z" fill="#FAEED7"/>
</g>
<defs>
<filter id="filter0_d" x="-383" y="0" width="1566" height="529" filterUnits="userSpaceOnUse" color-interpolation-filters="sRGB">
<feFlood flood-opacity="0" result="BackgroundImageFix"/>
<feColorMatrix in="SourceAlpha" type="matrix" values="0 0 0 0 0 0 0 0 0 0 0 0 0 0 0 0 0 0 127 0" result="hardAlpha"/>
<feMorphology radius="19" operator="dilate" in="SourceAlpha" result="effect1_dropShadow"/>
<feOffset dy="4"/>
<feGaussianBlur stdDeviation="45"/>
<feComposite in2="hardAlpha" operator="out"/>
<feColorMatrix type="matrix" values="0 0 0 0 0.792157 0 0 0 0 0.635294 0 0 0 0 0.164706 0 0 0 0.85 0"/>
<feBlend mode="normal" in2="BackgroundImageFix" result="effect1_dropShadow"/>
<feBlend mode="normal" in="SourceGraphic" in2="effect1_dropShadow" result="shape"/>
</filter>
</defs>
</svg>
