<svg width="231" height="32" viewBox="0 0 231 32" fill="none" xmlns="http://www.w3.org/2000/svg">
<path d="M197.42 12.6942V32H203.224V19.1295H224.45V32H230.254V12.6942H197.42ZM202.561 6.43526H224.947C228.098 5.81818 230.337 2.82094 231 4.42033e-09H196.508C197.171 2.82094 199.493 5.73003 202.561 6.43526ZM179.759 32C182.661 30.6777 184.236 28.3857 184.9 25.741H158.782V0.0881543H152.895V32H179.759ZM109.365 6.34711H130.093C133.244 5.37741 135.814 2.82094 136.478 0.0881543H103.644V18.9532H130.508V25.5647H109.448C106.131 26.5344 103.312 28.9146 101.902 32H136.312V12.6942H109.448L109.365 6.34711ZM58.2893 6.43526H80.6762C83.8269 5.81818 86.1485 2.82094 86.7289 4.42033e-09H52.1536C52.8169 2.82094 55.1385 5.73003 58.2893 6.43526ZM58.2893 19.0413H80.6762C83.8269 18.4242 86.1485 15.427 86.7289 12.6061H52.1536C52.8169 15.427 55.1385 18.3361 58.2893 19.0413ZM58.2893 32H80.6762C83.8269 31.3829 86.1485 28.3857 86.7289 25.5647H52.1536C52.8169 28.3857 55.1385 31.3829 58.2893 32Z" fill="#F5DAA6"/>
<path d="M0.000244141 0.0881543C0.663561 2.90909 2.98517 5.73003 6.05301 6.43526H15.5053L16.0028 6.61157V31.9118H21.8897V6.61157L22.3872 6.43526H31.8394C34.9902 5.55372 37.2289 2.90909 37.8922 0.0881543V0L0.000244141 0.0881543Z" fill="#F5DAA6"/>
</svg>
