<svg width="300" height="301" viewBox="0 0 300 301" fill="none" xmlns="http://www.w3.org/2000/svg">
<rect x="1" y="1.60864" width="298" height="298" fill="#05060B" stroke="#F6DBA8" stroke-width="2"/>
<path d="M58.6 227.33L51.1 247.13H48.37L40.84 227.33H43.42L48.46 241.01L49.72 244.94L50.98 241.04L56.02 227.33H58.6ZM69.216 237.44C69.216 236.32 68.916 235.46 68.316 234.86C67.716 234.24 66.866 233.93 65.766 233.93C64.726 233.93 63.846 234.16 63.126 234.62C62.406 235.06 61.876 235.78 61.536 236.78L59.586 235.58C59.986 234.46 60.726 233.56 61.806 232.88C62.886 232.18 64.226 231.83 65.826 231.83C66.906 231.83 67.886 232.02 68.766 232.4C69.646 232.76 70.336 233.32 70.836 234.08C71.356 234.82 71.616 235.78 71.616 236.96V244.22C71.616 244.94 71.996 245.3 72.756 245.3C73.136 245.3 73.506 245.25 73.866 245.15L73.746 247.04C73.346 247.24 72.826 247.34 72.186 247.34C71.606 247.34 71.086 247.23 70.626 247.01C70.166 246.79 69.806 246.46 69.546 246.02C69.286 245.56 69.156 244.99 69.156 244.31V244.01L69.756 244.1C69.516 244.88 69.106 245.52 68.526 246.02C67.946 246.5 67.296 246.86 66.576 247.1C65.856 247.32 65.146 247.43 64.446 247.43C63.566 247.43 62.746 247.28 61.986 246.98C61.226 246.68 60.616 246.23 60.156 245.63C59.716 245.01 59.496 244.25 59.496 243.35C59.496 242.23 59.866 241.31 60.606 240.59C61.366 239.85 62.416 239.35 63.756 239.09L69.696 237.92V239.9L64.866 240.89C63.886 241.09 63.156 241.37 62.676 241.73C62.196 242.09 61.956 242.59 61.956 243.23C61.956 243.85 62.196 244.36 62.676 244.76C63.176 245.14 63.876 245.33 64.776 245.33C65.356 245.33 65.906 245.26 66.426 245.12C66.966 244.96 67.446 244.73 67.866 244.43C68.286 244.11 68.616 243.72 68.856 243.26C69.096 242.78 69.216 242.22 69.216 241.58V237.44ZM77.4482 247.13V232.13H79.3982L79.7282 234.59C80.1482 233.67 80.7582 232.98 81.5582 232.52C82.3782 232.06 83.3682 231.83 84.5282 231.83C84.7882 231.83 85.0682 231.85 85.3682 231.89C85.6882 231.93 85.9582 232.01 86.1782 232.13L85.7582 234.32C85.5382 234.24 85.2982 234.18 85.0382 234.14C84.7782 234.1 84.4082 234.08 83.9282 234.08C83.3082 234.08 82.6782 234.26 82.0382 234.62C81.4182 234.98 80.8982 235.53 80.4782 236.27C80.0582 236.99 79.8482 237.91 79.8482 239.03V247.13H77.4482ZM90.8943 229.25C90.3543 229.25 89.9143 229.09 89.5743 228.77C89.2543 228.43 89.0943 227.99 89.0943 227.45C89.0943 226.91 89.2543 226.48 89.5743 226.16C89.9143 225.82 90.3543 225.65 90.8943 225.65C91.4343 225.65 91.8643 225.82 92.1843 226.16C92.5243 226.48 92.6943 226.91 92.6943 227.45C92.6943 227.99 92.5243 228.43 92.1843 228.77C91.8643 229.09 91.4343 229.25 90.8943 229.25ZM92.0943 232.13V247.13H89.6943V232.13H92.0943ZM106.423 237.44C106.423 236.32 106.123 235.46 105.523 234.86C104.923 234.24 104.073 233.93 102.973 233.93C101.933 233.93 101.053 234.16 100.333 234.62C99.613 235.06 99.083 235.78 98.743 236.78L96.793 235.58C97.193 234.46 97.933 233.56 99.013 232.88C100.093 232.18 101.433 231.83 103.033 231.83C104.113 231.83 105.093 232.02 105.973 232.4C106.853 232.76 107.543 233.32 108.043 234.08C108.563 234.82 108.823 235.78 108.823 236.96V244.22C108.823 244.94 109.203 245.3 109.963 245.3C110.343 245.3 110.713 245.25 111.073 245.15L110.953 247.04C110.553 247.24 110.033 247.34 109.393 247.34C108.813 247.34 108.293 247.23 107.833 247.01C107.373 246.79 107.013 246.46 106.753 246.02C106.493 245.56 106.363 244.99 106.363 244.31V244.01L106.963 244.1C106.723 244.88 106.313 245.52 105.733 246.02C105.153 246.5 104.503 246.86 103.783 247.1C103.063 247.32 102.353 247.43 101.653 247.43C100.773 247.43 99.953 247.28 99.193 246.98C98.433 246.68 97.823 246.23 97.363 245.63C96.923 245.01 96.703 244.25 96.703 243.35C96.703 242.23 97.073 241.31 97.813 240.59C98.573 239.85 99.623 239.35 100.963 239.09L106.903 237.92V239.9L102.073 240.89C101.093 241.09 100.363 241.37 99.883 241.73C99.403 242.09 99.163 242.59 99.163 243.23C99.163 243.85 99.403 244.36 99.883 244.76C100.383 245.14 101.083 245.33 101.983 245.33C102.563 245.33 103.113 245.26 103.633 245.12C104.173 244.96 104.653 244.73 105.073 244.43C105.493 244.11 105.823 243.72 106.063 243.26C106.303 242.78 106.423 242.22 106.423 241.58V237.44ZM122.005 247.43C121.165 247.43 120.385 247.28 119.665 246.98C118.945 246.68 118.325 246.26 117.805 245.72C117.285 245.18 116.895 244.57 116.635 243.89L116.965 243.47L116.755 247.13H114.655V225.23H117.055V235.52L116.755 235.07C117.155 234.13 117.825 233.36 118.765 232.76C119.725 232.14 120.815 231.83 122.035 231.83C123.275 231.83 124.415 232.14 125.455 232.76C126.495 233.38 127.325 234.27 127.945 235.43C128.565 236.59 128.875 237.99 128.875 239.63C128.875 241.25 128.555 242.65 127.915 243.83C127.295 244.99 126.465 245.88 125.425 246.5C124.385 247.12 123.245 247.43 122.005 247.43ZM121.765 245.33C123.245 245.33 124.395 244.81 125.215 243.77C126.055 242.73 126.475 241.35 126.475 239.63C126.475 237.91 126.065 236.53 125.245 235.49C124.425 234.45 123.275 233.93 121.795 233.93C120.855 233.93 120.025 234.17 119.305 234.65C118.605 235.13 118.055 235.8 117.655 236.66C117.255 237.52 117.055 238.53 117.055 239.69C117.055 240.83 117.245 241.83 117.625 242.69C118.025 243.53 118.575 244.18 119.275 244.64C119.995 245.1 120.825 245.33 121.765 245.33ZM135.744 225.23V243.32C135.744 244.08 135.884 244.61 136.164 244.91C136.444 245.19 136.894 245.33 137.514 245.33C137.914 245.33 138.244 245.3 138.504 245.24C138.764 245.18 139.114 245.07 139.554 244.91L139.164 247.01C138.844 247.15 138.494 247.25 138.114 247.31C137.734 247.39 137.344 247.43 136.944 247.43C135.724 247.43 134.814 247.1 134.214 246.44C133.634 245.78 133.344 244.77 133.344 243.41V225.23H135.744ZM148.904 247.43C147.484 247.43 146.214 247.12 145.094 246.5C143.994 245.88 143.134 244.99 142.514 243.83C141.894 242.65 141.584 241.25 141.584 239.63C141.584 238.01 141.894 236.62 142.514 235.46C143.134 234.28 143.984 233.38 145.064 232.76C146.144 232.14 147.374 231.83 148.754 231.83C150.154 231.83 151.344 232.13 152.324 232.73C153.324 233.33 154.084 234.15 154.604 235.19C155.124 236.21 155.384 237.36 155.384 238.64C155.384 238.98 155.374 239.29 155.354 239.57C155.334 239.85 155.304 240.1 155.264 240.32H143.144V238.19H154.214L152.984 238.43C152.984 236.99 152.584 235.88 151.784 235.1C151.004 234.32 149.974 233.93 148.694 233.93C147.714 233.93 146.864 234.16 146.144 234.62C145.444 235.06 144.894 235.71 144.494 236.57C144.114 237.41 143.924 238.43 143.924 239.63C143.924 240.81 144.124 241.83 144.524 242.69C144.924 243.55 145.484 244.21 146.204 244.67C146.944 245.11 147.824 245.33 148.844 245.33C149.944 245.33 150.834 245.12 151.514 244.7C152.214 244.28 152.774 243.71 153.194 242.99L155.084 244.1C154.704 244.78 154.214 245.37 153.614 245.87C153.034 246.37 152.344 246.76 151.544 247.04C150.764 247.3 149.884 247.43 148.904 247.43ZM165.348 247.43C163.888 247.43 162.538 247.12 161.298 246.5C160.078 245.88 159.138 245 158.478 243.86L160.518 242.39C160.958 243.31 161.598 244.03 162.438 244.55C163.298 245.07 164.328 245.33 165.528 245.33C166.588 245.33 167.418 245.13 168.018 244.73C168.618 244.31 168.918 243.77 168.918 243.11C168.918 242.69 168.778 242.31 168.498 241.97C168.238 241.61 167.728 241.35 166.968 241.19L163.368 240.44C161.908 240.14 160.858 239.64 160.218 238.94C159.598 238.24 159.288 237.37 159.288 236.33C159.288 235.51 159.518 234.76 159.978 234.08C160.458 233.4 161.128 232.86 161.988 232.46C162.868 232.04 163.898 231.83 165.078 231.83C166.558 231.83 167.808 232.12 168.828 232.7C169.848 233.28 170.608 234.1 171.108 235.16L169.098 236.48C168.758 235.6 168.208 234.96 167.448 234.56C166.688 234.14 165.898 233.93 165.078 233.93C164.358 233.93 163.738 234.03 163.218 234.23C162.718 234.43 162.328 234.71 162.048 235.07C161.788 235.41 161.658 235.8 161.658 236.24C161.658 236.68 161.808 237.09 162.108 237.47C162.408 237.83 162.968 238.09 163.788 238.25L167.538 239.03C168.938 239.31 169.918 239.77 170.478 240.41C171.038 241.05 171.318 241.83 171.318 242.75C171.318 243.69 171.068 244.52 170.568 245.24C170.068 245.94 169.368 246.48 168.468 246.86C167.568 247.24 166.528 247.43 165.348 247.43Z" fill="#F6DBA8"/>
</svg>
