<svg width="200" height="41" viewBox="0 0 200 41" fill="none" xmlns="http://www.w3.org/2000/svg">
<path d="M12.3433 20.3627C12.299 21.1354 12.5632 21.8941 13.0779 22.4721C13.5926 23.0501 14.3157 23.4002 15.0883 23.4453H15.2475C15.8166 23.4447 16.373 23.2774 16.8481 22.9643C17.3231 22.6511 17.6961 22.2056 17.921 21.6829C18.1458 21.1602 18.2127 20.583 18.1133 20.0228C18.014 19.4625 17.7528 18.9435 17.3619 18.53C16.971 18.1165 16.4676 17.8264 15.9138 17.6957C15.36 17.565 14.78 17.5992 14.2454 17.7943C13.7109 17.9894 13.2452 18.3367 12.9057 18.7934C12.5663 19.2501 12.368 19.7962 12.3354 20.3643L12.3433 20.3627Z" fill="#F6DBA8"/>
<path d="M1.47797 19.624C1.2922 19.6136 1.10753 19.6585 0.94728 19.753C0.787031 19.8475 0.658399 19.9874 0.577642 20.155C0.496885 20.3227 0.467627 20.5104 0.493565 20.6947C0.519503 20.8789 0.599474 21.0513 0.72337 21.1901C0.847266 21.3289 1.00953 21.4279 1.18965 21.4745C1.36977 21.5211 1.55966 21.5133 1.73533 21.452C1.911 21.3907 2.06456 21.2787 2.17661 21.1302C2.28866 20.9817 2.35416 20.8033 2.36484 20.6175C2.37215 20.494 2.35498 20.3702 2.31432 20.2533C2.27366 20.1364 2.2103 20.0287 2.12789 19.9364C2.04548 19.8441 1.94564 19.769 1.8341 19.7153C1.72257 19.6617 1.60154 19.6307 1.47797 19.624Z" fill="#F6DBA8"/>
<path d="M12.1586 3.45171C12.3241 3.36674 12.4607 3.23474 12.5513 3.0723C12.6419 2.90987 12.6824 2.72426 12.6677 2.53886C12.653 2.35345 12.5838 2.17652 12.4688 2.03036C12.3538 1.88419 12.1981 1.77531 12.0214 1.71742C11.8447 1.65954 11.6547 1.65523 11.4755 1.70505C11.2963 1.75487 11.1359 1.85659 11.0144 1.9974C10.8929 2.13821 10.8158 2.31182 10.7927 2.49637C10.7696 2.68092 10.8017 2.86817 10.8848 3.03454C10.9407 3.1459 11.0181 3.2451 11.1125 3.32642C11.2069 3.40774 11.3165 3.46957 11.4349 3.50835C11.5533 3.54713 11.6782 3.56209 11.8024 3.55237C11.9266 3.54265 12.0477 3.50843 12.1586 3.45171Z" fill="#F6DBA8"/>
<path d="M15.1154 8.60734C15.3723 8.47772 15.5851 8.27484 15.7267 8.02433C15.8684 7.77383 15.9326 7.48694 15.9112 7.19995C15.8899 6.91296 15.7839 6.63875 15.6067 6.41198C15.4295 6.18521 15.1891 6.01606 14.9158 5.92592C14.6425 5.83579 14.3486 5.82871 14.0712 5.90557C13.7939 5.98244 13.5456 6.13981 13.3577 6.35778C13.1698 6.57575 13.0507 6.84455 13.0156 7.13017C12.9804 7.4158 13.0307 7.70544 13.1601 7.96248C13.2461 8.13326 13.3649 8.28541 13.5097 8.41026C13.6546 8.5351 13.8226 8.63018 14.0041 8.69007C14.1857 8.74995 14.3773 8.77347 14.568 8.75927C14.7587 8.74508 14.9447 8.69345 15.1154 8.60734Z" fill="#F6DBA8"/>
<path d="M5.16556 12.1532C5.36375 12.2836 5.59615 12.3522 5.83334 12.3504C6.07054 12.3486 6.30187 12.2765 6.49808 12.1432C6.69428 12.0099 6.84654 11.8214 6.93558 11.6016C7.02463 11.3817 7.04646 11.1404 6.99831 10.9081C6.95017 10.6758 6.83421 10.4631 6.66511 10.2967C6.496 10.1304 6.28136 10.018 6.04834 9.97364C5.81531 9.92932 5.57438 9.95512 5.35602 10.0478C5.13766 10.1404 4.95169 10.2958 4.82164 10.4941C4.64746 10.7598 4.58585 11.0838 4.65033 11.3948C4.71482 11.7059 4.90013 11.9787 5.16556 12.1532Z" fill="#F6DBA8"/>
<path d="M6.93771 19.0937C6.6504 19.0775 6.36474 19.1469 6.11682 19.293C5.86891 19.4391 5.66988 19.6554 5.54488 19.9146C5.41989 20.1738 5.37454 20.4642 5.41458 20.7492C5.45462 21.0342 5.57824 21.3009 5.76982 21.5156C5.96141 21.7303 6.21234 21.8834 6.49092 21.9556C6.7695 22.0277 7.06321 22.0156 7.33493 21.9209C7.60664 21.8261 7.84417 21.6529 8.01748 21.4232C8.19079 21.1935 8.29211 20.9175 8.30862 20.6302C8.33036 20.2448 8.19818 19.8664 7.94113 19.5783C7.68408 19.2902 7.32318 19.1159 6.93771 19.0937Z" fill="#F6DBA8"/>
<path d="M5.32479 28.878C5.11319 28.9849 4.93805 29.1522 4.8215 29.3587C4.70496 29.5651 4.65224 29.8015 4.67001 30.0379C4.68778 30.2743 4.77525 30.5002 4.92135 30.6869C5.06745 30.8736 5.26563 31.0128 5.49084 31.0869C5.71604 31.161 5.95816 31.1667 6.18659 31.1032C6.41502 31.0397 6.6195 30.91 6.77418 30.7303C6.92887 30.5506 7.02681 30.3291 7.05564 30.0938C7.08446 29.8585 7.04287 29.6199 6.93612 29.4082C6.86519 29.2675 6.76723 29.1422 6.64784 29.0394C6.52845 28.9366 6.38998 28.8584 6.24033 28.8092C6.09069 28.7599 5.93281 28.7407 5.77571 28.7525C5.61862 28.7643 5.46539 28.8069 5.32479 28.878Z" fill="#F6DBA8"/>
<path d="M10.982 16.086C11.2654 16.2717 11.5975 16.3693 11.9363 16.3663C12.2751 16.3633 12.6054 16.2598 12.8854 16.0691C13.1655 15.8784 13.3827 15.6089 13.5096 15.2947C13.6365 14.9806 13.6674 14.6358 13.5984 14.3041C13.5294 13.9724 13.3635 13.6686 13.1219 13.4311C12.8802 13.1936 12.5735 13.0331 12.2406 12.9699C11.9078 12.9067 11.5636 12.9436 11.2517 13.076C10.9398 13.2084 10.6742 13.4303 10.4884 13.7136C10.3648 13.9017 10.2795 14.1124 10.2374 14.3335C10.1953 14.5546 10.1972 14.7818 10.2431 15.0022C10.2889 15.2226 10.3778 15.4317 10.5046 15.6177C10.6314 15.8037 10.7936 15.9628 10.982 16.086Z" fill="#F6DBA8"/>
<path d="M28.9296 8.4927C29.1708 8.65009 29.4534 8.73241 29.7414 8.72926C30.0295 8.7261 30.3102 8.63762 30.548 8.47498C30.7858 8.31234 30.97 8.08286 31.0774 7.81554C31.1848 7.54821 31.2105 7.25505 31.1513 6.97312C31.0921 6.69118 30.9507 6.43311 30.7448 6.23155C30.539 6.02999 30.278 5.89397 29.9949 5.8407C29.7118 5.78742 29.4192 5.81928 29.1542 5.93224C28.8892 6.04521 28.6636 6.2342 28.506 6.47534C28.4011 6.63552 28.3288 6.81484 28.2932 7.00301C28.2577 7.19119 28.2597 7.38452 28.2991 7.57193C28.3384 7.75934 28.4143 7.93715 28.5225 8.09515C28.6307 8.25315 28.769 8.38825 28.9296 8.4927Z" fill="#F6DBA8"/>
<path d="M31.9166 3.35299C32.0725 3.45522 32.2553 3.50889 32.4418 3.50722C32.6283 3.50554 32.8101 3.44859 32.9641 3.34357C33.1182 3.23855 33.2377 3.09018 33.3075 2.91724C33.3772 2.7443 33.3941 2.55455 33.356 2.372C33.3179 2.18946 33.2265 2.02232 33.0934 1.89174C32.9602 1.76115 32.7914 1.67299 32.6081 1.63841C32.4249 1.60382 32.2355 1.62437 32.0639 1.69745C31.8924 1.77053 31.7463 1.89286 31.6443 2.04895C31.5076 2.25803 31.4596 2.5128 31.5106 2.75731C31.5617 3.00181 31.7077 3.21606 31.9166 3.35299Z" fill="#F6DBA8"/>
<path d="M29.1588 17.5891C28.7767 17.5671 28.394 17.6207 28.0326 17.7466C27.6711 17.8726 27.3381 18.0685 27.0523 18.3231C26.4753 18.8375 26.1262 19.56 26.0819 20.3317C26.0375 21.1034 26.3016 21.8612 26.8159 22.4382C27.3302 23.0152 28.0527 23.3643 28.8245 23.4087C28.8802 23.4087 28.9375 23.4087 28.9932 23.4087C29.5554 23.4084 30.1055 23.2455 30.5772 22.9396C31.0489 22.6337 31.422 22.1979 31.6516 21.6848C31.8811 21.1716 31.9574 20.603 31.871 20.0475C31.7847 19.492 31.5395 18.9733 31.165 18.554C30.9114 18.268 30.6034 18.0354 30.259 17.8698C29.9145 17.7041 29.5405 17.6087 29.1588 17.5891Z" fill="#F6DBA8"/>
<path d="M16.0723 15.8838C16.3142 16.3671 16.6862 16.7732 17.1464 17.0565C17.6066 17.3397 18.1368 17.4889 18.6772 17.4872C19.1754 17.4873 19.6654 17.3597 20.1003 17.1166C20.5352 16.8735 20.9005 16.5231 21.1615 16.0986C21.4224 15.6742 21.5702 15.1899 21.5907 14.6921C21.6113 14.1943 21.5039 13.6996 21.2789 13.255C21.0353 12.774 20.6626 12.3703 20.2026 12.089C19.7425 11.8078 19.2132 11.6602 18.674 11.6628C18.1773 11.6637 17.6891 11.7914 17.2556 12.0339C16.8221 12.2764 16.4578 12.6256 16.1972 13.0485C15.9366 13.4713 15.7883 13.9537 15.7664 14.4499C15.7446 14.9461 15.8499 15.4397 16.0723 15.8838Z" fill="#F6DBA8"/>
<path d="M38.9208 12.15C39.1324 12.0432 39.3076 11.8761 39.4243 11.6697C39.541 11.4634 39.5939 11.2271 39.5763 10.9907C39.5587 10.7543 39.4714 10.5284 39.3255 10.3416C39.1795 10.1548 38.9815 10.0154 38.7564 9.94113C38.5313 9.86683 38.2892 9.86093 38.0607 9.92418C37.8323 9.98743 37.6277 10.117 37.4728 10.2965C37.318 10.476 37.2198 10.6973 37.1907 10.9326C37.1616 11.1678 37.203 11.4064 37.3094 11.6182C37.4527 11.9023 37.7029 12.1179 38.0051 12.2176C38.3072 12.3173 38.6365 12.293 38.9208 12.15Z" fill="#F6DBA8"/>
<path d="M31.5313 13.0783C31.2286 13.2307 30.978 13.4695 30.811 13.7643C30.6441 14.0592 30.5683 14.3969 30.5933 14.7349C30.6183 15.0728 30.743 15.3957 30.9515 15.6628C31.16 15.9299 31.4431 16.1291 31.7648 16.2353C32.0866 16.3415 32.4327 16.35 32.7592 16.2595C33.0858 16.1691 33.3782 15.9838 33.5994 15.7272C33.8207 15.4706 33.9609 15.1541 34.0023 14.8178C34.0437 14.4815 33.9844 14.1404 33.832 13.8378C33.731 13.6367 33.5913 13.4575 33.4209 13.3105C33.2505 13.1635 33.0528 13.0515 32.8391 12.9809C32.6254 12.9104 32.3999 12.8827 32.1755 12.8994C31.9511 12.9161 31.7322 12.9769 31.5313 13.0783Z" fill="#F6DBA8"/>
<path d="M22.0129 2.91353C22.2497 2.92702 22.4852 2.86997 22.6895 2.74961C22.8939 2.62926 23.058 2.45099 23.161 2.23737C23.264 2.02375 23.3014 1.78437 23.2683 1.54951C23.2353 1.31465 23.1334 1.09487 22.9754 0.917963C22.8174 0.741057 22.6105 0.614976 22.3809 0.555669C22.1513 0.496362 21.9092 0.506493 21.6853 0.584782C21.4614 0.663071 21.2658 0.805999 21.1232 0.995486C20.9806 1.18497 20.8973 1.41251 20.884 1.6493C20.8662 1.96662 20.9751 2.27803 21.1868 2.51509C21.3985 2.75215 21.6956 2.89546 22.0129 2.91353Z" fill="#F6DBA8"/>
<path d="M22.0002 10.4591C22.3384 10.4781 22.6746 10.3963 22.9664 10.2242C23.2582 10.0522 23.4924 9.79743 23.6395 9.49227C23.7865 9.1871 23.8398 8.84519 23.7926 8.50975C23.7454 8.17431 23.5998 7.8604 23.3742 7.60768C23.1486 7.35497 22.8532 7.17479 22.5253 7.08994C22.1973 7.00508 21.8516 7.01934 21.5317 7.13093C21.2119 7.24252 20.9323 7.44641 20.7283 7.71685C20.5243 7.98729 20.4051 8.31214 20.3857 8.65033C20.36 9.10425 20.5157 9.54979 20.8184 9.88897C21.1212 10.2282 21.5463 10.4332 22.0002 10.4591Z" fill="#F6DBA8"/>
<path d="M12.7175 27.9481C13.0201 27.7956 13.2706 27.5567 13.4375 27.2617C13.6043 26.9668 13.6799 26.6289 13.6547 26.291C13.6295 25.9531 13.5047 25.6302 13.296 25.3632C13.0873 25.0962 12.8041 24.8971 12.4822 24.7911C12.1604 24.6851 11.8143 24.6769 11.4878 24.7675C11.1613 24.8582 10.869 25.0437 10.6479 25.3005C10.4268 25.5573 10.2868 25.8739 10.2457 26.2103C10.2045 26.5467 10.264 26.8877 10.4167 27.1902C10.6214 27.5958 10.9787 27.9034 11.4102 28.0455C11.8416 28.1877 12.3119 28.1526 12.7175 27.9481Z" fill="#F6DBA8"/>
<path d="M23.1068 12.9589C22.7514 13.5012 22.5871 14.1464 22.6398 14.7926C22.6924 15.4388 22.9591 16.0489 23.3975 16.5265C23.836 17.004 24.4212 17.3217 25.0605 17.4293C25.6998 17.5368 26.3568 17.4281 26.9273 17.1203C27.4979 16.8125 27.9495 16.3232 28.2107 15.7298C28.4719 15.1365 28.5278 14.473 28.3695 13.8443C28.2111 13.2156 27.8477 12.6577 27.3366 12.2588C26.8255 11.86 26.196 11.643 25.5477 11.6421C25.0635 11.6418 24.5868 11.762 24.1607 11.9919C23.7346 12.2217 23.3724 12.5541 23.1068 12.9589Z" fill="#F6DBA8"/>
<path d="M28.1732 25.1442C27.9398 24.6813 27.5871 24.289 27.1514 24.0079C26.7158 23.7268 26.2131 23.567 25.6951 23.545C25.1771 23.5231 24.6626 23.6397 24.2047 23.8829C23.7468 24.1261 23.3622 24.4871 23.0903 24.9286C22.8185 25.3701 22.6694 25.8761 22.6584 26.3944C22.6475 26.9128 22.775 27.4247 23.0278 27.8773C23.2807 28.3299 23.6497 28.7068 24.0969 28.9692C24.544 29.2316 25.0531 29.37 25.5715 29.37C26.0276 29.3668 26.4768 29.2578 26.8835 29.0515C27.5716 28.7032 28.0936 28.0965 28.3353 27.3642C28.577 26.6319 28.5188 25.8336 28.1732 25.1442Z" fill="#F6DBA8"/>
<path d="M33.2652 24.9404C32.9819 24.7544 32.6499 24.6567 32.3111 24.6594C31.9722 24.6622 31.6418 24.7654 31.3616 24.9559C31.0814 25.1464 30.864 25.4158 30.7369 25.7299C30.6098 26.044 30.5786 26.3887 30.6474 26.7205C30.7163 27.0523 30.8819 27.3562 31.1234 27.5939C31.365 27.8315 31.6716 27.9922 32.0044 28.0556C32.3373 28.119 32.6815 28.0823 32.9935 27.95C33.3055 27.8178 33.5712 27.5961 33.7572 27.3128C34.0057 26.9327 34.0935 26.4696 34.0012 26.025C33.909 25.5803 33.6444 25.1903 33.2652 24.9404Z" fill="#F6DBA8"/>
<path d="M38.8443 20.5634C38.8606 20.2761 38.7912 19.9904 38.6451 19.7425C38.499 19.4946 38.2827 19.2955 38.0235 19.1705C37.7643 19.0455 37.4739 19.0002 37.1889 19.0402C36.9039 19.0803 36.6372 19.2039 36.4225 19.3955C36.2078 19.5871 36.0547 19.838 35.9825 20.1166C35.9104 20.3952 35.9225 20.6889 36.0172 20.9606C36.112 21.2323 36.2852 21.4698 36.5149 21.6431C36.7446 21.8164 37.0206 21.9178 37.3079 21.9343C37.6933 21.956 38.0717 21.8238 38.3598 21.5668C38.6479 21.3097 38.8222 20.9488 38.8443 20.5634Z" fill="#F6DBA8"/>
<path d="M42.8759 19.5268C42.6897 19.5161 42.5046 19.5608 42.3439 19.6553C42.1832 19.7498 42.0541 19.8899 41.973 20.0577C41.8919 20.2256 41.8624 20.4137 41.8882 20.5984C41.914 20.783 41.994 20.9558 42.118 21.095C42.242 21.2342 42.4046 21.3335 42.585 21.3803C42.7655 21.4271 42.9558 21.4193 43.1318 21.358C43.3079 21.2967 43.4618 21.1845 43.5741 21.0357C43.6864 20.8869 43.752 20.7081 43.7627 20.522C43.7767 20.2725 43.6911 20.0277 43.5249 19.8412C43.3587 19.6546 43.1253 19.5416 42.8759 19.5268Z" fill="#F6DBA8"/>
<path d="M39.08 28.8732C38.8817 28.7433 38.6493 28.6751 38.4122 28.6773C38.1751 28.6794 37.944 28.7518 37.7481 28.8853C37.5521 29.0188 37.4002 29.2074 37.3114 29.4272C37.2226 29.647 37.201 29.8883 37.2493 30.1204C37.2976 30.3525 37.4136 30.5651 37.5827 30.7313C37.7518 30.8975 37.9664 31.0098 38.1993 31.054C38.4322 31.0983 38.673 31.0725 38.8913 30.9799C39.1095 30.8873 39.2955 30.7321 39.4255 30.5339C39.5119 30.4022 39.5716 30.2547 39.601 30.1C39.6304 29.9452 39.629 29.7862 39.5969 29.6319C39.5648 29.4777 39.5026 29.3313 39.414 29.2011C39.3253 29.0709 39.2118 28.9595 39.08 28.8732Z" fill="#F6DBA8"/>
<path d="M12.3306 37.6734C12.1747 37.5712 11.9921 37.5174 11.8057 37.519C11.6193 37.5205 11.4375 37.5773 11.2834 37.6821C11.1292 37.7869 11.0096 37.9351 10.9397 38.1079C10.8698 38.2807 10.8526 38.4703 10.8905 38.6529C10.9283 38.8354 11.0194 39.0026 11.1523 39.1334C11.2852 39.2641 11.4538 39.3525 11.6369 39.3874C11.82 39.4224 12.0094 39.4022 12.181 39.3295C12.3527 39.2568 12.4989 39.1349 12.6013 38.9791C12.6693 38.8756 12.7162 38.7597 12.7394 38.6381C12.7626 38.5164 12.7616 38.3914 12.7364 38.2702C12.7113 38.1489 12.6625 38.0338 12.5929 37.9314C12.5232 37.829 12.4341 37.7414 12.3306 37.6734Z" fill="#F6DBA8"/>
<path d="M32.0869 37.5747C31.9205 37.6586 31.7826 37.79 31.6908 37.9523C31.599 38.1146 31.5574 38.3004 31.5712 38.4864C31.585 38.6723 31.6537 38.85 31.7685 38.9969C31.8833 39.1438 32.0391 39.2533 32.2162 39.3117C32.3932 39.37 32.5836 39.3746 32.7633 39.3247C32.9429 39.2748 33.1038 39.1728 33.2254 39.0316C33.3471 38.8903 33.4241 38.7161 33.4468 38.531C33.4695 38.346 33.4367 38.1583 33.3528 37.9919C33.2972 37.8812 33.2203 37.7827 33.1266 37.7018C33.0328 37.6209 32.924 37.5593 32.8064 37.5206C32.6888 37.4818 32.5648 37.4667 32.4413 37.476C32.3178 37.4852 32.1974 37.5188 32.0869 37.5747Z" fill="#F6DBA8"/>
<path d="M21.1388 28.0628C21.4942 27.5204 21.6585 26.8751 21.6058 26.2289C21.5531 25.5826 21.2863 24.9724 20.8478 24.4949C20.4092 24.0173 19.8239 23.6997 19.1845 23.5923C18.5451 23.4848 17.8881 23.5937 17.3175 23.9017C16.747 24.2097 16.2954 24.6992 16.0344 25.2927C15.7734 25.8862 15.7178 26.5498 15.8764 27.1785C16.035 27.8072 16.3988 28.365 16.9101 28.7637C17.4214 29.1623 18.0511 29.3791 18.6995 29.3795C19.1837 29.3812 19.6606 29.2615 20.0867 29.0315C20.5128 28.8015 20.8745 28.4685 21.1388 28.0628Z" fill="#F6DBA8"/>
<path d="M15.316 32.5353C15.0752 32.3778 14.7931 32.2952 14.5053 32.2979C14.2176 32.3007 13.9371 32.3887 13.6993 32.5509C13.4616 32.713 13.2773 32.942 13.1696 33.2089C13.062 33.4757 13.0359 33.7685 13.0947 34.0503C13.1534 34.332 13.2943 34.5899 13.4997 34.7915C13.705 34.9932 13.9655 35.1294 14.2482 35.183C14.531 35.2366 14.8232 35.2052 15.0881 35.0927C15.353 34.9802 15.5786 34.7917 15.7364 34.5511C15.9477 34.228 16.0221 33.8342 15.9433 33.4562C15.8645 33.0783 15.6389 32.747 15.316 32.5353Z" fill="#F6DBA8"/>
<path d="M22.11 38.1129C21.8733 38.0994 21.6379 38.1565 21.4336 38.2768C21.2293 38.3971 21.0653 38.5752 20.9622 38.7888C20.8591 39.0023 20.8217 39.2416 20.8546 39.4764C20.8876 39.7112 20.9894 39.931 21.1472 40.1079C21.305 40.2849 21.5117 40.4111 21.7412 40.4705C21.9707 40.53 22.2127 40.5201 22.4366 40.442C22.6605 40.364 22.8562 40.2213 22.999 40.0321C23.1418 39.8428 23.2253 39.6154 23.2389 39.3787C23.248 39.2215 23.2259 39.064 23.1741 38.9152C23.1222 38.7665 23.0416 38.6295 22.9368 38.5119C22.8319 38.3944 22.705 38.2986 22.5631 38.2301C22.4212 38.1617 22.2673 38.1218 22.11 38.1129Z" fill="#F6DBA8"/>
<path d="M22.1228 30.5689C21.7843 30.5484 21.4473 30.6287 21.1545 30.7998C20.8617 30.9709 20.6262 31.2251 20.478 31.5301C20.3297 31.8351 20.2753 32.1773 20.3217 32.5132C20.3681 32.8492 20.5131 33.1638 20.7384 33.4173C20.9638 33.6707 21.2592 33.8516 21.5874 33.937C21.9157 34.0224 22.2618 34.0085 22.5821 33.897C22.9024 33.7855 23.1824 33.5815 23.3866 33.3107C23.5908 33.04 23.7101 32.7147 23.7293 32.3761C23.7555 31.9235 23.601 31.4791 23.2998 31.1403C22.9986 30.8015 22.5753 30.596 22.1228 30.5689Z" fill="#F6DBA8"/>
<path d="M29.1302 32.4191C28.8731 32.5495 28.6605 32.7533 28.5193 33.0047C28.378 33.256 28.3146 33.5436 28.3369 33.831C28.3592 34.1185 28.4663 34.3928 28.6446 34.6193C28.8229 34.8459 29.0644 35.0144 29.3385 35.1037C29.6126 35.1929 29.9071 35.1988 30.1846 35.1206C30.4621 35.0424 30.7101 34.8836 30.8973 34.6644C31.0845 34.4451 31.2025 34.1753 31.2362 33.889C31.27 33.6027 31.2181 33.3128 31.087 33.056C31.0005 32.8855 30.8812 32.7338 30.736 32.6096C30.5908 32.4853 30.4224 32.3909 30.2407 32.3317C30.0589 32.2725 29.8673 32.2498 29.6767 32.2648C29.4862 32.2798 29.3004 32.3322 29.1302 32.4191Z" fill="#F6DBA8"/>
<path d="M61.2836 13.6292C64.105 13.6292 66.081 15.18 66.081 18.0588H69.7766C69.7766 13.0083 66.0523 10.5753 61.2279 10.5753C55.3016 10.5753 51.8592 13.7932 51.8592 20.5936C51.8592 27.5628 55.3016 30.6103 61.2279 30.6103C66.1096 30.6103 69.7766 28.2411 69.7766 23.189H66.2211C66.2211 26.0104 64.2738 27.5628 61.2852 27.5628C57.362 27.5628 55.5532 25.3894 55.5532 20.8754V20.3118C55.5564 15.8854 57.389 13.6292 61.2836 13.6292Z" fill="#F6DBA8"/>
<path d="M79.548 10.9193L72.0136 30.2775H75.7394L77.2903 26.0725H86.1446L87.7369 30.2775H91.6315L84.0923 10.9193H79.548ZM78.4192 23.0202L80.3951 17.7133C80.79 16.6704 81.4953 14.4126 81.637 14.0177H81.7772C81.9189 14.4126 82.6242 16.6974 83.0191 17.7133L84.9935 23.0186L78.4192 23.0202Z" fill="#F6DBA8"/>
<path d="M111.779 16.7882C111.779 13.2057 109.719 10.9193 105.458 10.9193H95.2426V30.2775H98.8554V22.7941H104.864L108.527 30.2775H112.477L108.337 22.2352C110.622 21.3324 111.779 19.4138 111.779 16.7882ZM105.175 19.7513H98.8554V13.9954H105.175C107.122 13.9954 108.138 15.0399 108.138 16.7882C108.138 18.624 107.038 19.7513 105.175 19.7513Z" fill="#F6DBA8"/>
<path d="M124.45 10.9193H116.715V30.2775H124.447C130.288 30.2775 133.841 27.23 133.841 20.5984C133.841 13.9668 130.291 10.9193 124.45 10.9193ZM130.151 20.8802C130.122 25.114 128.119 27.2014 124.45 27.2014H120.331V13.9954H124.45C128.113 13.9954 130.151 16.0844 130.151 20.3166V20.8802Z" fill="#F6DBA8"/>
<path d="M143.306 10.9193L135.768 30.2775H139.492L141.045 26.0725H149.905L151.485 30.2775H155.379L147.845 10.9193H143.306ZM142.177 23.0202L144.149 17.7133C144.544 16.6704 145.25 14.4126 145.391 14.0177H145.535C145.675 14.4126 146.382 16.6974 146.777 17.7133L148.751 23.0186L142.177 23.0202Z" fill="#F6DBA8"/>
<path d="M171.892 22.4326C171.892 22.7989 171.948 23.786 171.948 23.9564L171.808 24.0121C171.724 23.9007 171.158 22.9119 170.853 22.4613L162.444 10.9193H158.997V30.2775H162.468V18.6798C162.468 18.2021 162.411 17.2691 162.411 17.1273L162.552 17.043C162.637 17.156 163.06 17.9744 163.508 18.624L171.974 30.2775H175.359V10.9193H171.889V22.4326H171.892Z" fill="#F6DBA8"/>
<path d="M189.748 10.5817C183.681 10.5817 180.013 13.798 180.013 20.5984C180.013 27.3988 183.675 30.6151 189.748 30.6151C195.82 30.6151 199.511 27.3988 199.511 20.5984C199.511 13.798 195.814 10.5817 189.748 10.5817ZM195.814 20.9089C195.814 25.3385 193.698 27.5676 189.748 27.5676C185.826 27.5676 183.71 25.3385 183.71 20.9089V20.3166C183.71 15.8854 185.855 13.6292 189.748 13.6292C193.671 13.6292 195.814 15.8854 195.814 20.3166V20.9089Z" fill="#F6DBA8"/>
</svg>
