<svg width="166" height="37" viewBox="0 0 166 37" fill="none" xmlns="http://www.w3.org/2000/svg">
<path d="M51.7647 6.14063C49.8341 6.14063 47.9735 6.3832 47.2157 6.58827C46.1129 6.89837 45.8378 7.38103 45.6302 8.38135L41.2538 28.5754C41.1837 28.9881 41.1162 29.3332 41.1162 29.6783C41.1162 30.6786 41.7714 31.3313 42.8393 31.3313C44.0122 31.3313 44.4948 30.5736 44.7349 29.4007L45.9753 23.6463C46.8356 23.7488 47.9735 23.8539 49.594 23.8539C56.7288 23.8539 61.1727 19.9951 61.1727 14.1707C61.1727 9.06908 57.6216 6.14063 51.7647 6.14063ZM49.4214 20.5453C48.3186 20.5453 47.4558 20.5103 46.6655 20.4078L48.9738 9.68928C49.6965 9.58675 50.7669 9.4467 51.8697 9.4467C55.6609 9.4467 57.5916 11.2398 57.5916 14.2032C57.5891 17.9945 54.8307 20.5453 49.4214 20.5453Z" fill="#F6DBA8"/>
<path d="M164.039 24.6792C163.453 24.6792 163.073 25.0243 162.351 25.817C161.075 27.1274 160.282 27.8502 159.285 27.8502C158.389 27.8502 157.907 27.1274 157.907 25.9546C157.907 25.2994 158.044 24.5066 158.217 23.6463L159.492 17.6494H163.318C164.524 17.6494 165.249 16.9591 165.249 15.7187C165.249 15.0285 164.801 14.5133 163.769 14.5133H160.18L160.8 11.7224C160.87 11.3098 160.938 10.9297 160.938 10.5846C160.938 9.61926 160.282 8.92903 159.215 8.92903C158.077 8.92903 157.562 9.68678 157.319 10.8597L156.526 14.5133H154.906C153.665 14.5133 152.943 15.2036 152.943 16.444C152.943 17.1342 153.425 17.6494 154.458 17.6494H155.871L154.596 23.5763C154.458 24.2315 154.285 25.2994 154.285 26.4022C154.285 29.1931 155.733 31.2263 158.834 31.2263C160.628 31.2263 162.211 30.331 163.418 29.2606C164.591 28.2278 165.452 26.9524 165.452 26.1246C165.452 25.3344 164.831 24.6792 164.039 24.6792Z" fill="#F6DBA8"/>
<path d="M84.7779 8.17378C84.7779 7.17345 84.0877 6.51824 83.0198 6.51824C81.882 6.51824 81.3668 7.27599 81.1242 8.44887L76.8178 28.4704C76.7153 28.883 76.6453 29.2281 76.6453 29.5732C76.6453 30.5736 77.3355 31.2263 78.3683 31.2263C79.5412 31.2263 80.0564 30.4685 80.299 29.2956L84.6054 9.27664C84.6754 8.8615 84.7779 8.51889 84.7779 8.17378Z" fill="#F6DBA8"/>
<path d="M146.29 14.1682C140.776 14.1682 137.02 19.6475 137.02 24.8517C137.02 24.9492 137.022 25.0468 137.025 25.1418C136.16 26.4547 135.054 27.8152 134.296 27.8152C133.746 27.8152 133.539 27.2975 133.539 26.5047C133.539 25.5394 133.814 23.9189 134.124 22.5059L136.985 9.27163C137.055 8.85899 137.122 8.51388 137.122 8.16877C137.122 7.16845 136.467 6.51323 135.399 6.51323C134.226 6.51323 133.746 7.27098 133.504 8.44386L131.953 15.6112C131.125 14.7509 129.918 14.1632 128.092 14.1632C124.431 14.1632 120.747 16.9816 119.312 21.3055C117.731 25.3919 116.318 27.8102 115.203 27.8102C114.79 27.8102 114.548 27.465 114.548 26.8798C114.548 25.1568 115.513 20.9529 115.926 18.9198C116.063 18.162 116.133 17.8519 116.133 17.4043C116.133 15.8888 113.617 14.0957 110.344 14.0957C106.557 14.0957 103.129 16.494 101.411 20.0551C98.8575 24.5666 96.5142 27.8102 95.3538 27.8102C94.8362 27.8102 94.6636 27.1549 94.5261 26.5347L93.6683 21.7857L98.94 17.4793C99.4227 17.0667 100.043 16.479 100.043 15.7212C100.043 14.7909 99.4227 14.1707 98.4924 14.1707C97.8021 14.1707 97.2169 14.5834 96.6317 15.066L88.7067 21.6131L91.36 9.27663C91.4301 8.864 91.5326 8.51888 91.5326 8.17377C91.5326 7.17345 90.8424 6.51823 89.7745 6.51823C88.6367 6.51823 88.1215 7.27598 87.8789 8.44886L83.5725 28.4704C83.47 28.883 83.4 29.2281 83.4 29.5732C83.4 30.5736 84.0902 31.2263 85.123 31.2263C86.2959 31.2263 86.8111 30.4685 87.0536 29.2956L87.6063 26.7123L90.8449 24.0939L91.6376 28.0902C91.9477 29.6758 92.7755 31.2263 94.9112 31.2263C97.0369 31.2263 98.7099 29.2856 100.385 26.6623C100.893 29.4107 102.849 31.2263 105.562 31.2263C108.286 31.2263 110.146 29.6057 111.352 27.435V27.5051C111.352 29.7458 112.489 31.2263 114.488 31.2263C116.296 31.2263 117.796 30.1359 119.137 27.8202C119.897 29.8383 121.597 31.2263 123.963 31.2263C126.754 31.2263 128.752 29.5382 130.028 27.195V27.4025C130.028 29.8833 131.268 31.2288 133.301 31.2288C135.097 31.2288 136.622 30.1859 137.925 28.4904C138.915 30.1859 140.691 31.2288 143.089 31.2288C148.604 31.2288 152.36 25.7495 152.36 20.5103C152.357 16.8216 150.117 14.1682 146.29 14.1682ZM111.934 21.1655C110.934 25.4719 108.798 27.9202 106.385 27.9202C104.764 27.9202 103.869 26.6798 103.869 24.8192C103.869 21.1655 106.522 17.2367 110.071 17.2367C111.139 17.2367 111.967 17.5468 112.689 17.9945L111.934 21.1655ZM131.128 19.3399C130.025 24.4065 127.509 27.9202 124.753 27.9202C123.238 27.9202 122.34 26.7473 122.34 24.8192C122.34 21.133 124.891 17.3067 128.302 17.3067C129.612 17.3067 130.61 17.7544 131.336 18.3396L131.128 19.3399ZM143.499 27.9202C141.501 27.9202 140.674 26.4722 140.674 24.6466C140.674 21.303 142.982 17.4793 145.878 17.4793C147.876 17.4793 148.704 18.9273 148.704 20.7529C148.704 24.129 146.395 27.9202 143.499 27.9202Z" fill="#F6DBA8"/>
<path d="M69.753 14.1682C64.2387 14.1682 60.4825 19.6475 60.4825 24.8517C60.4825 28.5729 62.7232 31.2263 66.547 31.2263C72.0613 31.2263 75.8175 25.747 75.8175 20.5078C75.8175 16.8216 73.5768 14.1682 69.753 14.1682ZM66.9621 27.9202C64.964 27.9202 64.1362 26.4722 64.1362 24.6466C64.1362 21.3031 66.4445 17.4793 69.3404 17.4793C71.3385 17.4793 72.1663 18.9273 72.1663 20.7529C72.1638 24.129 69.8556 27.9202 66.9621 27.9202Z" fill="#F6DBA8"/>
<path d="M17.1334 8.27631C20.6457 8.27631 23.493 6.62035 23.493 4.57761C23.493 2.53487 20.6457 0.878906 17.1334 0.878906C13.6211 0.878906 10.7739 2.53487 10.7739 4.57761C10.7739 6.62035 13.6211 8.27631 17.1334 8.27631Z" fill="#F6DBA8"/>
<path d="M17.1334 36.1454C20.6457 36.1454 23.493 34.4894 23.493 32.4467C23.493 30.4039 20.6457 28.748 17.1334 28.748C13.6211 28.748 10.7739 30.4039 10.7739 32.4467C10.7739 34.4894 13.6211 36.1454 17.1334 36.1454Z" fill="#F6DBA8"/>
<path d="M8.27095 13.3962C10.0271 10.3545 10.0157 7.06025 8.24549 6.03819C6.47529 5.01613 3.61662 6.65333 1.86047 9.69497C0.104324 12.7366 0.115722 16.0309 1.88593 17.053C3.65613 18.075 6.51481 16.4378 8.27095 13.3962Z" fill="#F6DBA8"/>
<path d="M32.4037 27.3291C34.1598 24.2874 34.1494 20.9937 32.3804 19.9723C30.6114 18.951 27.7537 20.5887 25.9975 23.6304C24.2414 26.672 24.2518 29.9657 26.0208 30.9871C27.7898 32.0085 30.6475 30.3707 32.4037 27.3291Z" fill="#F6DBA8"/>
<path d="M8.24637 30.9862C10.0166 29.9642 10.028 26.6699 8.27183 23.6282C6.51569 20.5866 3.65701 18.9494 1.88681 19.9715C0.116602 20.9935 0.105203 24.2878 1.86135 27.3294C3.61749 30.3711 6.47617 32.0083 8.24637 30.9862Z" fill="#F6DBA8"/>
<path d="M32.3819 17.0538C34.1509 16.0324 34.1613 12.7387 32.4051 9.69705C30.649 6.6554 27.7913 5.01764 26.0223 6.03901C24.2533 7.06038 24.2429 10.3541 25.999 13.3957C27.7551 16.4374 30.6128 18.0751 32.3819 17.0538Z" fill="#F6DBA8"/>
</svg>
