<svg width="74" height="22" viewBox="0 0 74 22" fill="none" xmlns="http://www.w3.org/2000/svg">
<path d="M9.7219e-07 21.9955L0 0.00433213L6.70854 0.00433184L6.70854 21.9955H9.7219e-07Z" fill="white"/>
<path d="M32.4425 4.89115C33.6645 6.69937 34.3167 8.82526 34.3167 11H28.7341C28.7341 9.91698 28.4093 8.85829 27.8008 7.9578C27.1923 7.05731 26.3274 6.35546 25.3154 5.94101C24.3035 5.52656 23.19 5.41812 22.1157 5.62941C21.0414 5.84069 20.0546 6.36221 19.2801 7.12802C18.5056 7.89382 17.9782 8.86951 17.7645 9.93171C17.5508 10.9939 17.6605 12.0949 18.0796 13.0955C18.4988 14.096 19.2086 14.9513 20.1193 15.5529C21.0301 16.1546 22.1008 16.4758 23.1961 16.4758V16.4876H34.3166V21.9956H23.1961C20.9967 21.9956 18.8466 21.3507 17.0178 20.1425C15.1891 18.9343 13.7637 17.217 12.922 15.2078C12.0803 13.1986 11.8601 10.9878 12.2892 8.85485C12.7183 6.72191 13.7774 4.76267 15.3326 3.22491C16.8879 1.68714 18.8694 0.639913 21.0266 0.215645C23.1838 -0.208624 25.4197 0.00912638 27.4518 0.841359C29.4838 1.67359 31.2206 3.08293 32.4425 4.89115Z" fill="white"/>
<path d="M39.6834 21.9956V0.00444547L46.392 0.00444518V21.9956H39.6834Z" fill="white"/>
<path d="M56.7012 20.1462C58.5299 21.3549 60.68 22 62.8794 22V16.478C61.7841 16.478 60.7134 16.1567 59.8027 15.5548C58.8919 14.9528 58.1821 14.0973 57.763 13.0963C57.3438 12.0954 57.2341 10.9939 57.4478 9.9313C57.6615 8.86868 58.1889 7.8926 58.9634 7.12649C59.7379 6.36038 60.7247 5.83866 61.799 5.62729C62.8733 5.41592 63.9868 5.5244 64.9987 5.93902C66.0107 6.35363 66.8756 7.05576 67.4841 7.9566C68.0927 8.85745 68.4175 9.91656 68.4175 11H68.4294V21.9998H74V11C74 8.82441 73.3478 6.69767 72.1259 4.88873C70.9039 3.07979 69.1671 1.66989 67.1351 0.83733C65.1031 0.00476608 62.8671 -0.213071 60.7099 0.211367C58.5527 0.635804 56.5712 1.68345 55.016 3.22183C53.4607 4.76021 52.4016 6.72022 51.9725 8.85401C51.5434 10.9878 51.7636 13.1995 52.6053 15.2095C53.447 17.2195 54.8724 18.9375 56.7012 20.1462Z" fill="white"/>
</svg>
