<svg width="630" height="301" viewBox="0 0 630 301" fill="none" xmlns="http://www.w3.org/2000/svg">
<rect x="1" y="1.60864" width="628" height="298" fill="#05060B" stroke="#F6DBA8" stroke-width="2"/>
<path d="M58.6 192.812L51.1 212.612H48.37L40.84 192.812H43.42L48.46 206.492L49.72 210.422L50.98 206.522L56.02 192.812H58.6ZM63.4431 194.732C62.9031 194.732 62.4631 194.572 62.1231 194.252C61.8031 193.912 61.6431 193.472 61.6431 192.932C61.6431 192.392 61.8031 191.962 62.1231 191.642C62.4631 191.302 62.9031 191.132 63.4431 191.132C63.9831 191.132 64.4131 191.302 64.7331 191.642C65.0731 191.962 65.2431 192.392 65.2431 192.932C65.2431 193.472 65.0731 193.912 64.7331 194.252C64.4131 194.572 63.9831 194.732 63.4431 194.732ZM64.6431 197.612V212.612H62.2431V197.612H64.6431ZM70.2119 212.612V197.612H72.1619L72.4919 200.072C72.9119 199.152 73.5219 198.462 74.3219 198.002C75.1419 197.542 76.1319 197.312 77.2919 197.312C77.5519 197.312 77.8319 197.332 78.1319 197.372C78.4519 197.412 78.7219 197.492 78.9419 197.612L78.5219 199.802C78.3019 199.722 78.0619 199.662 77.8019 199.622C77.5419 199.582 77.1719 199.562 76.6919 199.562C76.0719 199.562 75.4419 199.742 74.8019 200.102C74.1819 200.462 73.6619 201.012 73.2419 201.752C72.8219 202.472 72.6119 203.392 72.6119 204.512V212.612H70.2119ZM85.0898 193.352V208.472C85.0898 209.212 85.2998 209.762 85.7198 210.122C86.1398 210.482 86.6798 210.662 87.3398 210.662C87.9198 210.662 88.4198 210.562 88.8398 210.362C89.2598 210.162 89.6398 209.892 89.9798 209.552L90.8198 211.562C90.3598 211.982 89.8098 212.312 89.1698 212.552C88.5498 212.792 87.8298 212.912 87.0098 212.912C86.2498 212.912 85.5398 212.782 84.8798 212.522C84.2198 212.242 83.6898 211.812 83.2898 211.232C82.9098 210.632 82.7098 209.852 82.6898 208.892V194.012L85.0898 193.352ZM90.5498 197.612V199.682H79.6898V197.612H90.5498ZM99.5481 212.912C98.5881 212.912 97.6781 212.732 96.8181 212.372C95.9781 212.012 95.2881 211.432 94.7481 210.632C94.2281 209.812 93.9681 208.752 93.9681 207.452V197.612H96.3681V206.822C96.3681 208.342 96.6981 209.392 97.3581 209.972C98.0181 210.532 98.9481 210.812 100.148 210.812C100.708 210.812 101.258 210.722 101.798 210.542C102.338 210.342 102.818 210.042 103.238 209.642C103.678 209.222 104.018 208.692 104.258 208.052C104.518 207.412 104.648 206.652 104.648 205.772V197.612H107.048V212.612H104.948L104.798 210.332C104.278 211.232 103.568 211.892 102.668 212.312C101.788 212.712 100.748 212.912 99.5481 212.912ZM121.394 202.922C121.394 201.802 121.094 200.942 120.494 200.342C119.894 199.722 119.044 199.412 117.944 199.412C116.904 199.412 116.024 199.642 115.304 200.102C114.584 200.542 114.054 201.262 113.714 202.262L111.764 201.062C112.164 199.942 112.904 199.042 113.984 198.362C115.064 197.662 116.404 197.312 118.004 197.312C119.084 197.312 120.064 197.502 120.944 197.882C121.824 198.242 122.514 198.802 123.014 199.562C123.534 200.302 123.794 201.262 123.794 202.442V209.702C123.794 210.422 124.174 210.782 124.934 210.782C125.314 210.782 125.684 210.732 126.044 210.632L125.924 212.522C125.524 212.722 125.004 212.822 124.364 212.822C123.784 212.822 123.264 212.712 122.804 212.492C122.344 212.272 121.984 211.942 121.724 211.502C121.464 211.042 121.334 210.472 121.334 209.792V209.492L121.934 209.582C121.694 210.362 121.284 211.002 120.704 211.502C120.124 211.982 119.474 212.342 118.754 212.582C118.034 212.802 117.324 212.912 116.624 212.912C115.744 212.912 114.924 212.762 114.164 212.462C113.404 212.162 112.794 211.712 112.334 211.112C111.894 210.492 111.674 209.732 111.674 208.832C111.674 207.712 112.044 206.792 112.784 206.072C113.544 205.332 114.594 204.832 115.934 204.572L121.874 203.402V205.382L117.044 206.372C116.064 206.572 115.334 206.852 114.854 207.212C114.374 207.572 114.134 208.072 114.134 208.712C114.134 209.332 114.374 209.842 114.854 210.242C115.354 210.622 116.054 210.812 116.954 210.812C117.534 210.812 118.084 210.742 118.604 210.602C119.144 210.442 119.624 210.212 120.044 209.912C120.464 209.592 120.794 209.202 121.034 208.742C121.274 208.262 121.394 207.702 121.394 207.062V202.922ZM131.906 190.712V208.802C131.906 209.562 132.046 210.092 132.326 210.392C132.606 210.672 133.056 210.812 133.676 210.812C134.076 210.812 134.406 210.782 134.666 210.722C134.926 210.662 135.276 210.552 135.716 210.392L135.326 212.492C135.006 212.632 134.656 212.732 134.276 212.792C133.896 212.872 133.506 212.912 133.106 212.912C131.886 212.912 130.976 212.582 130.376 211.922C129.796 211.262 129.506 210.252 129.506 208.892V190.712H131.906ZM155.916 192.812C157.936 192.812 159.556 193.332 160.776 194.372C161.996 195.412 162.606 196.822 162.606 198.602C162.606 200.382 161.986 201.772 160.746 202.772C159.526 203.752 157.906 204.242 155.886 204.242L155.676 204.392H150.816V212.612H148.416V192.812H155.916ZM155.886 202.142C157.306 202.142 158.356 201.852 159.036 201.272C159.736 200.672 160.086 199.782 160.086 198.602C160.086 197.422 159.736 196.542 159.036 195.962C158.356 195.362 157.306 195.062 155.886 195.062H150.816V202.142H155.886ZM157.266 202.622L163.806 212.612H160.956L155.256 203.942L157.266 202.622ZM173.689 212.912C172.269 212.912 170.999 212.602 169.879 211.982C168.779 211.362 167.919 210.472 167.299 209.312C166.679 208.132 166.369 206.732 166.369 205.112C166.369 203.492 166.679 202.102 167.299 200.942C167.919 199.762 168.769 198.862 169.849 198.242C170.929 197.622 172.159 197.312 173.539 197.312C174.939 197.312 176.129 197.612 177.109 198.212C178.109 198.812 178.869 199.632 179.389 200.672C179.909 201.692 180.169 202.842 180.169 204.122C180.169 204.462 180.159 204.772 180.139 205.052C180.119 205.332 180.089 205.582 180.049 205.802H167.929V203.672H178.999L177.769 203.912C177.769 202.472 177.369 201.362 176.569 200.582C175.789 199.802 174.759 199.412 173.479 199.412C172.499 199.412 171.649 199.642 170.929 200.102C170.229 200.542 169.679 201.192 169.279 202.052C168.899 202.892 168.709 203.912 168.709 205.112C168.709 206.292 168.909 207.312 169.309 208.172C169.709 209.032 170.269 209.692 170.989 210.152C171.729 210.592 172.609 210.812 173.629 210.812C174.729 210.812 175.619 210.602 176.299 210.182C176.999 209.762 177.559 209.192 177.979 208.472L179.869 209.582C179.489 210.262 178.999 210.852 178.399 211.352C177.819 211.852 177.129 212.242 176.329 212.522C175.549 212.782 174.669 212.912 173.689 212.912ZM193.493 202.922C193.493 201.802 193.193 200.942 192.593 200.342C191.993 199.722 191.143 199.412 190.043 199.412C189.003 199.412 188.123 199.642 187.403 200.102C186.683 200.542 186.153 201.262 185.813 202.262L183.863 201.062C184.263 199.942 185.003 199.042 186.083 198.362C187.163 197.662 188.503 197.312 190.103 197.312C191.183 197.312 192.163 197.502 193.043 197.882C193.923 198.242 194.613 198.802 195.113 199.562C195.633 200.302 195.893 201.262 195.893 202.442V209.702C195.893 210.422 196.273 210.782 197.033 210.782C197.413 210.782 197.783 210.732 198.143 210.632L198.023 212.522C197.623 212.722 197.103 212.822 196.463 212.822C195.883 212.822 195.363 212.712 194.903 212.492C194.443 212.272 194.083 211.942 193.823 211.502C193.563 211.042 193.433 210.472 193.433 209.792V209.492L194.033 209.582C193.793 210.362 193.383 211.002 192.803 211.502C192.223 211.982 191.573 212.342 190.853 212.582C190.133 212.802 189.423 212.912 188.723 212.912C187.843 212.912 187.023 212.762 186.263 212.462C185.503 212.162 184.893 211.712 184.433 211.112C183.993 210.492 183.773 209.732 183.773 208.832C183.773 207.712 184.143 206.792 184.883 206.072C185.643 205.332 186.693 204.832 188.033 204.572L193.973 203.402V205.382L189.143 206.372C188.163 206.572 187.433 206.852 186.953 207.212C186.473 207.572 186.233 208.072 186.233 208.712C186.233 209.332 186.473 209.842 186.953 210.242C187.453 210.622 188.153 210.812 189.053 210.812C189.633 210.812 190.183 210.742 190.703 210.602C191.243 210.442 191.723 210.212 192.143 209.912C192.563 209.592 192.893 209.202 193.133 208.742C193.373 208.262 193.493 207.702 193.493 207.062V202.922ZM204.006 190.712V208.802C204.006 209.562 204.146 210.092 204.426 210.392C204.706 210.672 205.156 210.812 205.776 210.812C206.176 210.812 206.506 210.782 206.766 210.722C207.026 210.662 207.376 210.552 207.816 210.392L207.426 212.492C207.106 212.632 206.756 212.732 206.376 212.792C205.996 212.872 205.606 212.912 205.206 212.912C203.986 212.912 203.076 212.582 202.476 211.922C201.896 211.262 201.606 210.252 201.606 208.892V190.712H204.006ZM212.095 194.732C211.555 194.732 211.115 194.572 210.775 194.252C210.455 193.912 210.295 193.472 210.295 192.932C210.295 192.392 210.455 191.962 210.775 191.642C211.115 191.302 211.555 191.132 212.095 191.132C212.635 191.132 213.065 191.302 213.385 191.642C213.725 191.962 213.895 192.392 213.895 192.932C213.895 193.472 213.725 193.912 213.385 194.252C213.065 194.572 212.635 194.732 212.095 194.732ZM213.295 197.612V212.612H210.895V197.612H213.295ZM222.404 193.352V208.472C222.404 209.212 222.614 209.762 223.034 210.122C223.454 210.482 223.994 210.662 224.654 210.662C225.234 210.662 225.734 210.562 226.154 210.362C226.574 210.162 226.954 209.892 227.294 209.552L228.134 211.562C227.674 211.982 227.124 212.312 226.484 212.552C225.864 212.792 225.144 212.912 224.324 212.912C223.564 212.912 222.854 212.782 222.194 212.522C221.534 212.242 221.004 211.812 220.604 211.232C220.224 210.632 220.024 209.852 220.004 208.892V194.012L222.404 193.352ZM227.864 197.612V199.682H217.004V197.612H227.864ZM243.763 197.612L236.713 215.132C236.333 216.112 235.913 216.882 235.453 217.442C235.013 218.022 234.513 218.432 233.953 218.672C233.413 218.932 232.783 219.062 232.063 219.062C231.383 219.062 230.753 218.962 230.173 218.762C229.613 218.582 229.113 218.332 228.673 218.012L229.333 215.912C229.733 216.272 230.153 216.532 230.593 216.692C231.053 216.872 231.503 216.962 231.943 216.962C232.463 216.962 232.953 216.802 233.413 216.482C233.873 216.162 234.293 215.512 234.673 214.532L235.453 212.582L233.953 209.012L229.183 197.612H231.913L235.663 207.392L236.593 210.062L237.673 207.092L241.183 197.612H243.763ZM245.875 209.012C246.355 209.012 246.755 209.142 247.075 209.402C247.415 209.642 247.675 209.982 247.855 210.422C248.035 210.842 248.125 211.342 248.125 211.922C248.125 212.582 248.005 213.232 247.765 213.872C247.545 214.512 247.195 215.102 246.715 215.642C246.235 216.182 245.615 216.632 244.855 216.992L243.595 215.822C244.135 215.642 244.605 215.392 245.005 215.072C245.425 214.752 245.765 214.392 246.025 213.992C246.285 213.592 246.455 213.182 246.535 212.762L246.415 212.702C246.335 212.762 246.235 212.812 246.115 212.852C245.995 212.892 245.815 212.912 245.575 212.912C245.335 212.912 245.085 212.842 244.825 212.702C244.585 212.562 244.375 212.362 244.195 212.102C244.015 211.822 243.925 211.462 243.925 211.022C243.925 210.662 244.015 210.332 244.195 210.032C244.375 209.712 244.605 209.462 244.885 209.282C245.185 209.102 245.515 209.012 245.875 209.012ZM277.897 212.612H275.347L273.247 207.122H264.277L262.177 212.612H259.657L267.367 192.812H270.217L277.897 212.612ZM265.147 204.872H272.377L268.747 195.122L265.147 204.872ZM286.638 212.912C285.678 212.912 284.768 212.732 283.908 212.372C283.068 212.012 282.378 211.432 281.838 210.632C281.318 209.812 281.058 208.752 281.058 207.452V197.612H283.458V206.822C283.458 208.342 283.788 209.392 284.448 209.972C285.108 210.532 286.038 210.812 287.238 210.812C287.798 210.812 288.348 210.722 288.888 210.542C289.428 210.342 289.908 210.042 290.328 209.642C290.768 209.222 291.108 208.692 291.348 208.052C291.608 207.412 291.738 206.652 291.738 205.772V197.612H294.138V212.612H292.038L291.888 210.332C291.368 211.232 290.658 211.892 289.758 212.312C288.878 212.712 287.838 212.912 286.638 212.912ZM312.354 194.852L312.894 196.982C312.874 196.982 312.844 196.982 312.804 196.982C312.764 196.982 312.724 196.982 312.684 196.982C311.704 196.982 310.944 197.182 310.404 197.582C309.884 197.962 309.624 198.582 309.624 199.442L308.154 198.692C308.154 197.912 308.334 197.232 308.694 196.652C309.054 196.072 309.544 195.632 310.164 195.332C310.784 195.012 311.464 194.852 312.204 194.852C312.224 194.852 312.244 194.852 312.264 194.852C312.304 194.852 312.334 194.852 312.354 194.852ZM307.794 210.692C309.214 210.692 310.324 211.022 311.124 211.682C311.924 212.322 312.324 213.182 312.324 214.262C312.324 215.242 311.994 216.092 311.334 216.812C310.694 217.532 309.824 218.082 308.724 218.462C307.644 218.862 306.424 219.062 305.064 219.062C302.704 219.062 300.934 218.662 299.754 217.862C298.594 217.062 298.014 216.102 298.014 214.982C298.014 214.182 298.274 213.462 298.794 212.822C299.334 212.202 300.234 211.852 301.494 211.772L301.284 212.222C300.604 212.042 300.024 211.742 299.544 211.322C299.084 210.882 298.854 210.252 298.854 209.432C298.854 208.612 299.154 207.912 299.754 207.332C300.374 206.732 301.284 206.362 302.484 206.222L304.074 207.032H303.774C302.794 207.132 302.094 207.382 301.674 207.782C301.274 208.162 301.074 208.582 301.074 209.042C301.074 209.602 301.274 210.022 301.674 210.302C302.094 210.562 302.674 210.692 303.414 210.692H307.794ZM305.034 217.052C306.194 217.052 307.144 216.932 307.884 216.692C308.644 216.452 309.204 216.142 309.564 215.762C309.924 215.382 310.104 214.972 310.104 214.532C310.104 213.992 309.884 213.562 309.444 213.242C309.024 212.922 308.254 212.762 307.134 212.762H302.514C301.874 212.762 301.334 212.922 300.894 213.242C300.454 213.582 300.234 214.042 300.234 214.622C300.234 215.362 300.654 215.952 301.494 216.392C302.354 216.832 303.534 217.052 305.034 217.052ZM304.824 197.312C306.024 197.312 307.084 197.532 308.004 197.972C308.944 198.392 309.674 198.982 310.194 199.742C310.714 200.502 310.974 201.382 310.974 202.382C310.974 203.362 310.714 204.242 310.194 205.022C309.674 205.782 308.944 206.382 308.004 206.822C307.084 207.242 306.024 207.452 304.824 207.452C302.844 207.452 301.324 206.982 300.264 206.042C299.204 205.082 298.674 203.862 298.674 202.382C298.674 201.382 298.934 200.502 299.454 199.742C299.994 198.982 300.724 198.392 301.644 197.972C302.564 197.532 303.624 197.312 304.824 197.312ZM304.824 199.262C303.784 199.262 302.914 199.552 302.214 200.132C301.514 200.692 301.164 201.442 301.164 202.382C301.164 203.302 301.514 204.052 302.214 204.632C302.914 205.212 303.784 205.502 304.824 205.502C305.864 205.502 306.734 205.212 307.434 204.632C308.134 204.052 308.484 203.302 308.484 202.382C308.484 201.442 308.134 200.692 307.434 200.132C306.734 199.552 305.864 199.262 304.824 199.262ZM315.69 212.612V197.612H317.79L317.94 199.952C318.48 199.032 319.18 198.362 320.04 197.942C320.92 197.522 321.82 197.312 322.74 197.312C323.8 197.312 324.8 197.552 325.74 198.032C326.68 198.512 327.4 199.252 327.9 200.252C328.22 199.572 328.67 199.022 329.25 198.602C329.83 198.162 330.46 197.842 331.14 197.642C331.84 197.422 332.5 197.312 333.12 197.312C334.08 197.312 334.99 197.512 335.85 197.912C336.73 198.312 337.45 198.932 338.01 199.772C338.57 200.612 338.85 201.692 338.85 203.012V212.612H336.45V203.252C336.45 201.892 336.11 200.912 335.43 200.312C334.75 199.712 333.91 199.412 332.91 199.412C332.13 199.412 331.4 199.602 330.72 199.982C330.04 200.362 329.49 200.922 329.07 201.662C328.67 202.402 328.47 203.312 328.47 204.392V212.612H326.07V203.252C326.07 201.892 325.73 200.912 325.05 200.312C324.37 199.712 323.53 199.412 322.53 199.412C321.87 199.412 321.19 199.592 320.49 199.952C319.81 200.292 319.24 200.842 318.78 201.602C318.32 202.362 318.09 203.362 318.09 204.602V212.612H315.69ZM350.554 212.912C349.134 212.912 347.864 212.602 346.744 211.982C345.644 211.362 344.784 210.472 344.164 209.312C343.544 208.132 343.234 206.732 343.234 205.112C343.234 203.492 343.544 202.102 344.164 200.942C344.784 199.762 345.634 198.862 346.714 198.242C347.794 197.622 349.024 197.312 350.404 197.312C351.804 197.312 352.994 197.612 353.974 198.212C354.974 198.812 355.734 199.632 356.254 200.672C356.774 201.692 357.034 202.842 357.034 204.122C357.034 204.462 357.024 204.772 357.004 205.052C356.984 205.332 356.954 205.582 356.914 205.802H344.794V203.672H355.864L354.634 203.912C354.634 202.472 354.234 201.362 353.434 200.582C352.654 199.802 351.624 199.412 350.344 199.412C349.364 199.412 348.514 199.642 347.794 200.102C347.094 200.542 346.544 201.192 346.144 202.052C345.764 202.892 345.574 203.912 345.574 205.112C345.574 206.292 345.774 207.312 346.174 208.172C346.574 209.032 347.134 209.692 347.854 210.152C348.594 210.592 349.474 210.812 350.494 210.812C351.594 210.812 352.484 210.602 353.164 210.182C353.864 209.762 354.424 209.192 354.844 208.472L356.734 209.582C356.354 210.262 355.864 210.852 355.264 211.352C354.684 211.852 353.994 212.242 353.194 212.522C352.414 212.782 351.534 212.912 350.554 212.912ZM361.599 212.612V197.612H363.699L363.909 200.972L363.519 200.642C363.839 199.842 364.269 199.202 364.809 198.722C365.349 198.222 365.969 197.862 366.669 197.642C367.389 197.422 368.129 197.312 368.889 197.312C369.969 197.312 370.949 197.522 371.829 197.942C372.709 198.342 373.409 198.962 373.929 199.802C374.469 200.642 374.739 201.712 374.739 203.012V212.612H372.339V203.852C372.339 202.192 371.979 201.042 371.259 200.402C370.559 199.742 369.689 199.412 368.649 199.412C367.929 199.412 367.209 199.582 366.489 199.922C365.769 200.262 365.169 200.812 364.689 201.572C364.229 202.332 363.999 203.352 363.999 204.632V212.612H361.599ZM383.508 193.352V208.472C383.508 209.212 383.718 209.762 384.138 210.122C384.558 210.482 385.098 210.662 385.758 210.662C386.338 210.662 386.838 210.562 387.258 210.362C387.678 210.162 388.058 209.892 388.398 209.552L389.238 211.562C388.778 211.982 388.228 212.312 387.588 212.552C386.968 212.792 386.248 212.912 385.428 212.912C384.668 212.912 383.958 212.782 383.298 212.522C382.638 212.242 382.108 211.812 381.708 211.232C381.328 210.632 381.128 209.852 381.108 208.892V194.012L383.508 193.352ZM388.968 197.612V199.682H378.108V197.612H388.968ZM398.806 212.912C397.386 212.912 396.116 212.602 394.996 211.982C393.896 211.362 393.036 210.472 392.416 209.312C391.796 208.132 391.486 206.732 391.486 205.112C391.486 203.492 391.796 202.102 392.416 200.942C393.036 199.762 393.886 198.862 394.966 198.242C396.046 197.622 397.276 197.312 398.656 197.312C400.056 197.312 401.246 197.612 402.226 198.212C403.226 198.812 403.986 199.632 404.506 200.672C405.026 201.692 405.286 202.842 405.286 204.122C405.286 204.462 405.276 204.772 405.256 205.052C405.236 205.332 405.206 205.582 405.166 205.802H393.046V203.672H404.116L402.886 203.912C402.886 202.472 402.486 201.362 401.686 200.582C400.906 199.802 399.876 199.412 398.596 199.412C397.616 199.412 396.766 199.642 396.046 200.102C395.346 200.542 394.796 201.192 394.396 202.052C394.016 202.892 393.826 203.912 393.826 205.112C393.826 206.292 394.026 207.312 394.426 208.172C394.826 209.032 395.386 209.692 396.106 210.152C396.846 210.592 397.726 210.812 398.746 210.812C399.846 210.812 400.736 210.602 401.416 210.182C402.116 209.762 402.676 209.192 403.096 208.472L404.986 209.582C404.606 210.262 404.116 210.852 403.516 211.352C402.936 211.852 402.246 212.242 401.446 212.522C400.666 212.782 399.786 212.912 398.806 212.912ZM415.701 212.912C414.461 212.912 413.321 212.602 412.281 211.982C411.241 211.362 410.411 210.472 409.791 209.312C409.171 208.132 408.861 206.732 408.861 205.112C408.861 203.452 409.191 202.042 409.851 200.882C410.511 199.722 411.381 198.842 412.461 198.242C413.541 197.622 414.701 197.312 415.941 197.312C417.181 197.312 418.251 197.632 419.151 198.272C420.071 198.912 420.681 199.762 420.981 200.822L420.681 201.032V190.712H423.081V212.612H420.981L420.771 208.982L421.101 208.802C420.961 209.682 420.621 210.432 420.081 211.052C419.561 211.652 418.911 212.112 418.131 212.432C417.371 212.752 416.561 212.912 415.701 212.912ZM415.941 210.812C416.901 210.812 417.731 210.572 418.431 210.092C419.151 209.612 419.701 208.932 420.081 208.052C420.481 207.152 420.681 206.102 420.681 204.902C420.681 203.762 420.481 202.782 420.081 201.962C419.701 201.142 419.161 200.512 418.461 200.072C417.781 199.632 416.981 199.412 416.061 199.412C414.541 199.412 413.361 199.932 412.521 200.972C411.681 202.012 411.261 203.392 411.261 205.112C411.261 206.832 411.671 208.212 412.491 209.252C413.311 210.292 414.461 210.812 415.941 210.812ZM50.74 234.812C52.76 234.812 54.38 235.332 55.6 236.372C56.82 237.412 57.43 238.822 57.43 240.602C57.43 242.382 56.81 243.772 55.57 244.772C54.35 245.752 52.73 246.242 50.71 246.242L50.5 246.392H45.64V254.612H43.24V234.812H50.74ZM50.71 244.142C52.13 244.142 53.18 243.852 53.86 243.272C54.56 242.672 54.91 241.782 54.91 240.602C54.91 239.422 54.56 238.542 53.86 237.962C53.18 237.362 52.13 237.062 50.71 237.062H45.64V244.142H50.71ZM52.09 244.622L58.63 254.612H55.78L50.08 245.942L52.09 244.622ZM68.5131 254.912C67.0931 254.912 65.8231 254.602 64.7031 253.982C63.6031 253.362 62.7431 252.472 62.1231 251.312C61.5031 250.132 61.1931 248.732 61.1931 247.112C61.1931 245.492 61.5031 244.102 62.1231 242.942C62.7431 241.762 63.5931 240.862 64.6731 240.242C65.7531 239.622 66.9831 239.312 68.3631 239.312C69.7631 239.312 70.9531 239.612 71.9331 240.212C72.9331 240.812 73.6931 241.632 74.2131 242.672C74.7331 243.692 74.9931 244.842 74.9931 246.122C74.9931 246.462 74.9831 246.772 74.9631 247.052C74.9431 247.332 74.9131 247.582 74.8731 247.802H62.7531V245.672H73.8231L72.5931 245.912C72.5931 244.472 72.1931 243.362 71.3931 242.582C70.6131 241.802 69.5831 241.412 68.3031 241.412C67.3231 241.412 66.4731 241.642 65.7531 242.102C65.0531 242.542 64.5031 243.192 64.1031 244.052C63.7231 244.892 63.5331 245.912 63.5331 247.112C63.5331 248.292 63.7331 249.312 64.1331 250.172C64.5331 251.032 65.0931 251.692 65.8131 252.152C66.5531 252.592 67.4331 252.812 68.4531 252.812C69.5531 252.812 70.4431 252.602 71.1231 252.182C71.8231 251.762 72.3831 251.192 72.8031 250.472L74.6931 251.582C74.3131 252.262 73.8231 252.852 73.2231 253.352C72.6431 253.852 71.9531 254.242 71.1531 254.522C70.3731 254.782 69.4931 254.912 68.5131 254.912ZM88.3176 244.922C88.3176 243.802 88.0176 242.942 87.4176 242.342C86.8176 241.722 85.9676 241.412 84.8676 241.412C83.8276 241.412 82.9476 241.642 82.2276 242.102C81.5076 242.542 80.9776 243.262 80.6376 244.262L78.6876 243.062C79.0876 241.942 79.8276 241.042 80.9076 240.362C81.9876 239.662 83.3276 239.312 84.9276 239.312C86.0076 239.312 86.9876 239.502 87.8676 239.882C88.7476 240.242 89.4376 240.802 89.9376 241.562C90.4576 242.302 90.7176 243.262 90.7176 244.442V251.702C90.7176 252.422 91.0976 252.782 91.8576 252.782C92.2376 252.782 92.6076 252.732 92.9676 252.632L92.8476 254.522C92.4476 254.722 91.9276 254.822 91.2876 254.822C90.7076 254.822 90.1876 254.712 89.7276 254.492C89.2676 254.272 88.9076 253.942 88.6476 253.502C88.3876 253.042 88.2576 252.472 88.2576 251.792V251.492L88.8576 251.582C88.6176 252.362 88.2076 253.002 87.6276 253.502C87.0476 253.982 86.3976 254.342 85.6776 254.582C84.9576 254.802 84.2476 254.912 83.5476 254.912C82.6676 254.912 81.8476 254.762 81.0876 254.462C80.3276 254.162 79.7176 253.712 79.2576 253.112C78.8176 252.492 78.5976 251.732 78.5976 250.832C78.5976 249.712 78.9676 248.792 79.7076 248.072C80.4676 247.332 81.5176 246.832 82.8576 246.572L88.7976 245.402V247.382L83.9676 248.372C82.9876 248.572 82.2576 248.852 81.7776 249.212C81.2976 249.572 81.0576 250.072 81.0576 250.712C81.0576 251.332 81.2976 251.842 81.7776 252.242C82.2776 252.622 82.9776 252.812 83.8776 252.812C84.4576 252.812 85.0076 252.742 85.5276 252.602C86.0676 252.442 86.5476 252.212 86.9676 251.912C87.3876 251.592 87.7176 251.202 87.9576 250.742C88.1976 250.262 88.3176 249.702 88.3176 249.062V244.922ZM98.8298 232.712V250.802C98.8298 251.562 98.9698 252.092 99.2498 252.392C99.5298 252.672 99.9798 252.812 100.6 252.812C101 252.812 101.33 252.782 101.59 252.722C101.85 252.662 102.2 252.552 102.64 252.392L102.25 254.492C101.93 254.632 101.58 254.732 101.2 254.792C100.82 254.872 100.43 254.912 100.03 254.912C98.8098 254.912 97.8998 254.582 97.2998 253.922C96.7198 253.262 96.4298 252.252 96.4298 250.892V232.712H98.8298ZM106.92 236.732C106.38 236.732 105.94 236.572 105.6 236.252C105.28 235.912 105.12 235.472 105.12 234.932C105.12 234.392 105.28 233.962 105.6 233.642C105.94 233.302 106.38 233.132 106.92 233.132C107.46 233.132 107.89 233.302 108.21 233.642C108.55 233.962 108.72 234.392 108.72 234.932C108.72 235.472 108.55 235.912 108.21 236.252C107.89 236.572 107.46 236.732 106.92 236.732ZM108.12 239.612V254.612H105.72V239.612H108.12ZM117.228 235.352V250.472C117.228 251.212 117.438 251.762 117.858 252.122C118.278 252.482 118.818 252.662 119.478 252.662C120.058 252.662 120.558 252.562 120.978 252.362C121.398 252.162 121.778 251.892 122.118 251.552L122.958 253.562C122.498 253.982 121.948 254.312 121.308 254.552C120.688 254.792 119.968 254.912 119.148 254.912C118.388 254.912 117.678 254.782 117.018 254.522C116.358 254.242 115.828 253.812 115.428 253.232C115.048 252.632 114.848 251.852 114.828 250.892V236.012L117.228 235.352ZM122.688 239.612V241.682H111.828V239.612H122.688ZM138.587 239.612L131.537 257.132C131.157 258.112 130.737 258.882 130.277 259.442C129.837 260.022 129.337 260.432 128.777 260.672C128.237 260.932 127.607 261.062 126.887 261.062C126.207 261.062 125.577 260.962 124.997 260.762C124.437 260.582 123.937 260.332 123.497 260.012L124.157 257.912C124.557 258.272 124.977 258.532 125.417 258.692C125.877 258.872 126.327 258.962 126.767 258.962C127.287 258.962 127.777 258.802 128.237 258.482C128.697 258.162 129.117 257.512 129.497 256.532L130.277 254.582L128.777 251.012L124.007 239.612H126.737L130.487 249.392L131.417 252.062L132.497 249.092L136.007 239.612H138.587ZM156.138 254.912C154.818 254.912 153.688 254.682 152.748 254.222C151.808 253.762 151.088 253.132 150.588 252.332C150.088 251.532 149.838 250.612 149.838 249.572C149.838 248.932 149.918 248.332 150.078 247.772C150.258 247.192 150.538 246.642 150.918 246.122C151.298 245.602 151.808 245.112 152.448 244.652C153.108 244.192 153.918 243.762 154.878 243.362L156.138 242.732C156.898 242.312 157.528 241.922 158.028 241.562C158.528 241.182 158.898 240.772 159.138 240.332C159.398 239.892 159.528 239.372 159.528 238.772C159.528 238.072 159.308 237.532 158.868 237.152C158.448 236.752 157.868 236.552 157.128 236.552C156.268 236.552 155.628 236.792 155.208 237.272C154.808 237.732 154.608 238.272 154.608 238.892C154.608 239.272 154.658 239.642 154.758 240.002C154.858 240.342 155.068 240.772 155.388 241.292C155.728 241.812 156.228 242.502 156.888 243.362C157.548 244.222 158.438 245.352 159.558 246.752C160.698 248.152 161.638 249.282 162.378 250.142C163.118 250.982 163.748 251.622 164.268 252.062C164.788 252.482 165.268 252.762 165.708 252.902C166.168 253.042 166.668 253.112 167.208 253.112L166.608 254.912C166.028 254.912 165.478 254.842 164.958 254.702C164.458 254.562 163.898 254.262 163.278 253.802C162.678 253.342 161.948 252.652 161.088 251.732C160.248 250.812 159.198 249.582 157.938 248.042C156.858 246.702 155.958 245.572 155.238 244.652C154.518 243.732 153.948 242.952 153.528 242.312C153.108 241.672 152.808 241.092 152.628 240.572C152.448 240.032 152.358 239.482 152.358 238.922C152.358 238.202 152.528 237.502 152.868 236.822C153.228 236.142 153.768 235.592 154.488 235.172C155.208 234.732 156.138 234.512 157.278 234.512C158.138 234.512 158.888 234.672 159.528 234.992C160.168 235.312 160.668 235.772 161.028 236.372C161.408 236.972 161.598 237.682 161.598 238.502C161.598 239.202 161.478 239.872 161.238 240.512C161.018 241.132 160.588 241.752 159.948 242.372C159.328 242.972 158.398 243.602 157.158 244.262L156.138 244.652C155.098 245.132 154.288 245.602 153.708 246.062C153.128 246.502 152.718 246.982 152.478 247.502C152.238 248.022 152.118 248.642 152.118 249.362C152.118 250.102 152.308 250.742 152.688 251.282C153.068 251.822 153.578 252.242 154.218 252.542C154.858 252.822 155.578 252.962 156.378 252.962C157.478 252.962 158.408 252.762 159.168 252.362C159.928 251.962 160.628 251.392 161.268 250.652L161.658 250.292C162.178 249.472 162.578 248.542 162.858 247.502C163.158 246.462 163.258 245.302 163.158 244.022L165.198 244.202C165.278 245.482 165.138 246.742 164.778 247.982C164.438 249.222 163.888 250.342 163.128 251.342L162.678 251.972C161.918 252.872 160.998 253.592 159.918 254.132C158.838 254.652 157.578 254.912 156.138 254.912ZM199.694 234.812V254.612H197.414V242.162L197.684 236.942H197.654L191.144 254.612H189.104L182.594 236.942H182.564L182.834 242.162V254.612H180.554V234.812H184.244L188.594 246.842L190.094 251.792H190.154L191.684 246.872L196.004 234.812H199.694ZM206.91 236.732C206.37 236.732 205.93 236.572 205.59 236.252C205.27 235.912 205.11 235.472 205.11 234.932C205.11 234.392 205.27 233.962 205.59 233.642C205.93 233.302 206.37 233.132 206.91 233.132C207.45 233.132 207.88 233.302 208.2 233.642C208.54 233.962 208.71 234.392 208.71 234.932C208.71 235.472 208.54 235.912 208.2 236.252C207.88 236.572 207.45 236.732 206.91 236.732ZM208.11 239.612V254.612H205.71V239.612H208.11ZM215.119 239.612L219.589 245.882L219.739 246.092L225.889 254.612H222.949L218.299 248.102L218.029 247.772L212.119 239.612H215.119ZM225.799 239.612L219.859 247.622H219.709L214.549 254.612H211.759L218.299 246.002H218.479L222.979 239.612H225.799ZM235.359 254.912C233.939 254.912 232.669 254.602 231.549 253.982C230.449 253.362 229.589 252.472 228.969 251.312C228.349 250.132 228.039 248.732 228.039 247.112C228.039 245.492 228.349 244.102 228.969 242.942C229.589 241.762 230.439 240.862 231.519 240.242C232.599 239.622 233.829 239.312 235.209 239.312C236.609 239.312 237.799 239.612 238.779 240.212C239.779 240.812 240.539 241.632 241.059 242.672C241.579 243.692 241.839 244.842 241.839 246.122C241.839 246.462 241.829 246.772 241.809 247.052C241.789 247.332 241.759 247.582 241.719 247.802H229.599V245.672H240.669L239.439 245.912C239.439 244.472 239.039 243.362 238.239 242.582C237.459 241.802 236.429 241.412 235.149 241.412C234.169 241.412 233.319 241.642 232.599 242.102C231.899 242.542 231.349 243.192 230.949 244.052C230.569 244.892 230.379 245.912 230.379 247.112C230.379 248.292 230.579 249.312 230.979 250.172C231.379 251.032 231.939 251.692 232.659 252.152C233.399 252.592 234.279 252.812 235.299 252.812C236.399 252.812 237.289 252.602 237.969 252.182C238.669 251.762 239.229 251.192 239.649 250.472L241.539 251.582C241.159 252.262 240.669 252.852 240.069 253.352C239.489 253.852 238.799 254.242 237.999 254.522C237.219 254.782 236.339 254.912 235.359 254.912ZM252.253 254.912C251.013 254.912 249.873 254.602 248.833 253.982C247.793 253.362 246.963 252.472 246.343 251.312C245.723 250.132 245.413 248.732 245.413 247.112C245.413 245.452 245.743 244.042 246.403 242.882C247.063 241.722 247.933 240.842 249.013 240.242C250.093 239.622 251.253 239.312 252.493 239.312C253.733 239.312 254.803 239.632 255.703 240.272C256.623 240.912 257.233 241.762 257.533 242.822L257.233 243.032V232.712H259.633V254.612H257.533L257.323 250.982L257.653 250.802C257.513 251.682 257.173 252.432 256.633 253.052C256.113 253.652 255.463 254.112 254.683 254.432C253.923 254.752 253.113 254.912 252.253 254.912ZM252.493 252.812C253.453 252.812 254.283 252.572 254.983 252.092C255.703 251.612 256.253 250.932 256.633 250.052C257.033 249.152 257.233 248.102 257.233 246.902C257.233 245.762 257.033 244.782 256.633 243.962C256.253 243.142 255.713 242.512 255.013 242.072C254.333 241.632 253.533 241.412 252.613 241.412C251.093 241.412 249.913 241.932 249.073 242.972C248.233 244.012 247.813 245.392 247.813 247.112C247.813 248.832 248.223 250.212 249.043 251.252C249.863 252.292 251.013 252.812 252.493 252.812ZM283.386 234.812C285.406 234.812 287.026 235.332 288.246 236.372C289.466 237.412 290.076 238.822 290.076 240.602C290.076 242.382 289.456 243.772 288.216 244.772C286.996 245.752 285.376 246.242 283.356 246.242L283.146 246.392H278.286V254.612H275.886V234.812H283.386ZM283.356 244.142C284.776 244.142 285.826 243.852 286.506 243.272C287.206 242.672 287.556 241.782 287.556 240.602C287.556 239.422 287.206 238.542 286.506 237.962C285.826 237.362 284.776 237.062 283.356 237.062H278.286V244.142H283.356ZM284.736 244.622L291.276 254.612H288.426L282.726 245.942L284.736 244.622ZM301.16 254.912C299.74 254.912 298.47 254.602 297.35 253.982C296.25 253.362 295.39 252.472 294.77 251.312C294.15 250.132 293.84 248.732 293.84 247.112C293.84 245.492 294.15 244.102 294.77 242.942C295.39 241.762 296.24 240.862 297.32 240.242C298.4 239.622 299.63 239.312 301.01 239.312C302.41 239.312 303.6 239.612 304.58 240.212C305.58 240.812 306.34 241.632 306.86 242.672C307.38 243.692 307.64 244.842 307.64 246.122C307.64 246.462 307.63 246.772 307.61 247.052C307.59 247.332 307.56 247.582 307.52 247.802H295.4V245.672H306.47L305.24 245.912C305.24 244.472 304.84 243.362 304.04 242.582C303.26 241.802 302.23 241.412 300.95 241.412C299.97 241.412 299.12 241.642 298.4 242.102C297.7 242.542 297.15 243.192 296.75 244.052C296.37 244.892 296.18 245.912 296.18 247.112C296.18 248.292 296.38 249.312 296.78 250.172C297.18 251.032 297.74 251.692 298.46 252.152C299.2 252.592 300.08 252.812 301.1 252.812C302.2 252.812 303.09 252.602 303.77 252.182C304.47 251.762 305.03 251.192 305.45 250.472L307.34 251.582C306.96 252.262 306.47 252.852 305.87 253.352C305.29 253.852 304.6 254.242 303.8 254.522C303.02 254.782 302.14 254.912 301.16 254.912ZM320.964 244.922C320.964 243.802 320.664 242.942 320.064 242.342C319.464 241.722 318.614 241.412 317.514 241.412C316.474 241.412 315.594 241.642 314.874 242.102C314.154 242.542 313.624 243.262 313.284 244.262L311.334 243.062C311.734 241.942 312.474 241.042 313.554 240.362C314.634 239.662 315.974 239.312 317.574 239.312C318.654 239.312 319.634 239.502 320.514 239.882C321.394 240.242 322.084 240.802 322.584 241.562C323.104 242.302 323.364 243.262 323.364 244.442V251.702C323.364 252.422 323.744 252.782 324.504 252.782C324.884 252.782 325.254 252.732 325.614 252.632L325.494 254.522C325.094 254.722 324.574 254.822 323.934 254.822C323.354 254.822 322.834 254.712 322.374 254.492C321.914 254.272 321.554 253.942 321.294 253.502C321.034 253.042 320.904 252.472 320.904 251.792V251.492L321.504 251.582C321.264 252.362 320.854 253.002 320.274 253.502C319.694 253.982 319.044 254.342 318.324 254.582C317.604 254.802 316.894 254.912 316.194 254.912C315.314 254.912 314.494 254.762 313.734 254.462C312.974 254.162 312.364 253.712 311.904 253.112C311.464 252.492 311.244 251.732 311.244 250.832C311.244 249.712 311.614 248.792 312.354 248.072C313.114 247.332 314.164 246.832 315.504 246.572L321.444 245.402V247.382L316.614 248.372C315.634 248.572 314.904 248.852 314.424 249.212C313.944 249.572 313.704 250.072 313.704 250.712C313.704 251.332 313.944 251.842 314.424 252.242C314.924 252.622 315.624 252.812 316.524 252.812C317.104 252.812 317.654 252.742 318.174 252.602C318.714 252.442 319.194 252.212 319.614 251.912C320.034 251.592 320.364 251.202 320.604 250.742C320.844 250.262 320.964 249.702 320.964 249.062V244.922ZM331.476 232.712V250.802C331.476 251.562 331.616 252.092 331.896 252.392C332.176 252.672 332.626 252.812 333.246 252.812C333.646 252.812 333.976 252.782 334.236 252.722C334.496 252.662 334.846 252.552 335.286 252.392L334.896 254.492C334.576 254.632 334.226 254.732 333.846 254.792C333.466 254.872 333.076 254.912 332.676 254.912C331.456 254.912 330.546 254.582 329.946 253.922C329.366 253.262 329.076 252.252 329.076 250.892V232.712H331.476ZM339.566 236.732C339.026 236.732 338.586 236.572 338.246 236.252C337.926 235.912 337.766 235.472 337.766 234.932C337.766 234.392 337.926 233.962 338.246 233.642C338.586 233.302 339.026 233.132 339.566 233.132C340.106 233.132 340.536 233.302 340.856 233.642C341.196 233.962 341.366 234.392 341.366 234.932C341.366 235.472 341.196 235.912 340.856 236.252C340.536 236.572 340.106 236.732 339.566 236.732ZM340.766 239.612V254.612H338.366V239.612H340.766ZM349.875 235.352V250.472C349.875 251.212 350.085 251.762 350.505 252.122C350.925 252.482 351.465 252.662 352.125 252.662C352.705 252.662 353.205 252.562 353.625 252.362C354.045 252.162 354.425 251.892 354.765 251.552L355.605 253.562C355.145 253.982 354.595 254.312 353.955 254.552C353.335 254.792 352.615 254.912 351.795 254.912C351.035 254.912 350.325 254.782 349.665 254.522C349.005 254.242 348.475 253.812 348.075 253.232C347.695 252.632 347.495 251.852 347.475 250.892V236.012L349.875 235.352ZM355.335 239.612V241.682H344.475V239.612H355.335ZM371.233 239.612L364.183 257.132C363.803 258.112 363.383 258.882 362.923 259.442C362.483 260.022 361.983 260.432 361.423 260.672C360.883 260.932 360.253 261.062 359.533 261.062C358.853 261.062 358.223 260.962 357.643 260.762C357.083 260.582 356.583 260.332 356.143 260.012L356.803 257.912C357.203 258.272 357.623 258.532 358.063 258.692C358.523 258.872 358.973 258.962 359.413 258.962C359.933 258.962 360.423 258.802 360.883 258.482C361.343 258.162 361.763 257.512 362.143 256.532L362.923 254.582L361.423 251.012L356.653 239.612H359.383L363.133 249.392L364.063 252.062L365.143 249.092L368.653 239.612H371.233Z" fill="#F6DBA8"/>
</svg>
