<svg width="147" height="48" viewBox="0 0 147 48" fill="none" xmlns="http://www.w3.org/2000/svg">
<path fill-rule="evenodd" clip-rule="evenodd" d="M51.731 46.8951H63.7259L71.2238 0.823239H59.2276L51.731 46.8951ZM30.2048 32.5118L41.6401 0.823239H54.5495L35.4658 46.8963H22.9681L12.547 6.86936C5.78116 2.80616 0 1.60334 0 1.60334L0.000333088 1.60217C0.000111164 1.60213 0 1.6021 0 1.6021L0.221831 0.821998H19.1268C24.3287 0.821998 24.8167 4.97023 24.8167 4.97023L28.8528 25.6893C28.8528 25.6893 28.8526 25.6886 28.8522 25.6874L28.8528 25.6905L28.8516 25.688L30.2048 32.5118ZM147 46.8951H135.986L134.581 40.0516H119.333L116.832 46.8951H104.328L122.218 4.25546C122.218 4.25546 123.302 0.822007 127.755 0.822007H137.397L147 46.8951ZM129.09 13.3567L122.787 30.5979H132.635L129.09 13.3567ZM106.978 2.0088L105.266 11.9025C100.133 9.07412 88.4514 8.40493 88.4502 13.6143C88.4502 15.6838 91.0933 17.107 94.279 18.8225C99.1104 21.4241 105.19 24.6976 105.19 31.9165C105.19 43.4518 92.8412 47.69 84.6556 47.69C76.4725 47.69 71.1165 45.0884 71.1165 45.0884L72.8998 34.7437C77.8109 38.6861 92.6921 39.8063 92.6921 33.5544C92.6921 30.9273 89.7626 29.378 86.3657 27.5815C81.6787 25.1026 76.1016 22.1531 76.1016 15.2521C76.1016 2.60158 90.2372 0 96.1896 0C101.696 0 106.978 2.0088 106.978 2.0088Z" fill="#F5DAA6"/>
</svg>
