<svg width="1290" height="392" viewBox="0 0 1290 392" fill="none" xmlns="http://www.w3.org/2000/svg">
<path d="M1.83423 388.493L0.539478 197.302L0.188817 101.68L0 6.08398H7.09414L6.93229 101.68L6.58163 197.302L5.25991 388.493H1.83423Z" fill="#FAEED7"/>
<path d="M20.9315 388.493C20.7258 387.509 20.6532 386.502 20.7157 385.499V376.544V364.594L20.3921 340.749L20.0684 292.951L19.4749 197.302L19.2322 101.68V6.08398H26.0296V101.68L25.7329 197.302L25.1125 292.898L24.7888 340.749L24.627 364.648V376.598V385.553C24.6405 386.544 24.5225 387.533 24.2763 388.493H20.9315Z" fill="#FAEED7"/>
<path d="M40.0295 388.493C39.3821 387.495 39.7058 386.497 39.6249 385.499V382.505V376.544L39.49 364.594L39.2203 340.749L38.9505 292.952L38.3841 197.356C38.1683 165.473 38.1952 133.617 38.2492 101.734V6.13818H44.9117V101.734C44.9117 133.617 44.9117 165.473 44.7769 197.356L44.2104 292.952L44.0486 340.749L43.8598 364.648L43.7249 376.598V382.559V385.553C43.7249 386.551 43.9677 387.549 43.3203 388.547L40.0295 388.493Z" fill="#FAEED7"/>
<path d="M59.1266 388.493C58.9154 388.312 58.7512 388.083 58.6479 387.824C58.5445 387.566 58.5052 387.287 58.5331 387.01V382.505V376.544L58.3983 364.594L58.0746 340.749L57.8318 292.952L57.2923 197.356L57.1035 149.531V101.734L57.3463 6.13818H63.7391L63.9819 101.734V149.531L63.82 197.356L63.2805 292.952L63.2536 340.749L63.0647 364.648L62.9299 376.598V382.559V387.064C62.9578 387.34 62.9185 387.62 62.8151 387.878C62.7118 388.137 62.5476 388.366 62.3365 388.547L59.1266 388.493Z" fill="#FAEED7"/>
<path d="M78.2241 388.493C77.959 388.352 77.7412 388.136 77.5974 387.873C77.4536 387.609 77.3901 387.309 77.4149 387.01V385.499V382.505V376.544L77.253 364.594L76.9293 340.749L76.6866 292.952L76.201 197.356L76.0122 149.531L76.228 101.734L76.6596 6.13818H82.7827L83.1873 101.734L83.4031 149.531L83.2412 197.356L82.7287 292.952L82.5129 340.749L82.3241 364.648L82.1623 376.598V382.559V385.553V387.064C82.187 387.363 82.1236 387.663 81.9797 387.927C81.8359 388.19 81.6181 388.406 81.353 388.547L78.2241 388.493Z" fill="#FAEED7"/>
<path d="M97.3216 388.493C96.4045 387.981 96.2696 387.495 96.2966 387.01V385.499V382.505V376.544L96.1078 364.594L95.7571 340.749L95.5683 292.952L95.1097 197.356C95.1097 181.415 94.867 165.473 94.9209 149.531L95.2176 101.734L95.838 6.13818H101.664L102.285 101.734L102.501 149.478C102.501 165.419 102.501 181.361 102.312 197.302L101.88 292.898L101.745 340.749L101.583 364.648L101.395 376.598V382.559V385.553V387.064C101.395 387.549 101.395 388.035 100.37 388.547L97.3216 388.493Z" fill="#FAEED7"/>
<path d="M116.446 388.493C115.313 387.981 115.151 387.495 115.178 387.01V385.499V382.505L115.044 376.544L114.855 364.594L114.585 340.749L114.369 292.952L113.911 197.356V149.531L114.099 101.734C114.261 69.8865 114.594 38.0213 115.097 6.13818H120.573C121.077 38.0213 121.409 69.8865 121.571 101.734L121.76 149.531V197.356L121.301 292.952L121.005 340.749L120.816 364.648L120.6 376.598V382.559V385.553V387.064C120.6 387.549 120.6 388.035 119.332 388.547L116.446 388.493Z" fill="#FAEED7"/>
<path d="M596.905 390.489L405.687 389.842V387.144L596.905 386.497V390.489Z" fill="#FAEED7"/>
<path d="M596.905 374.872L405.687 373.927V370.933L596.905 369.989V374.872Z" fill="#FAEED7"/>
<path d="M596.905 359.227L501.31 358.364L405.687 357.932V354.803L501.31 354.398L596.905 353.508V359.227Z" fill="#FAEED7"/>
<path d="M596.905 343.609C580.964 343.285 565.022 343.069 549.108 342.88L501.31 342.341C469.427 342.341 437.57 341.855 405.687 341.909V338.699C437.57 338.699 469.427 338.403 501.31 338.268L549.108 337.728C565.022 337.566 580.955 337.324 596.905 337V343.609Z" fill="#FAEED7"/>
<path d="M596.905 327.991L573.006 327.397L549.108 326.993L501.31 326.264L453.485 325.941C437.57 325.779 421.629 325.779 405.687 325.941V322.677C421.62 322.677 437.552 322.677 453.485 322.677L501.31 322.353L549.108 321.625L573.006 321.247L596.905 320.654V327.991Z" fill="#FAEED7"/>
<path d="M596.905 312.373L573.006 311.564L549.108 310.971L501.31 310.134L453.485 309.676C437.57 309.676 421.629 309.676 405.687 309.676V306.709C421.629 306.709 437.57 306.709 453.485 306.709L501.31 306.25L549.108 305.414L573.006 304.793L596.905 304.011V312.373Z" fill="#FAEED7"/>
<path d="M596.905 296.728C580.964 295.946 565.022 295.46 549.108 294.975L501.31 293.923C485.368 293.761 469.427 293.437 453.485 293.41C437.543 293.383 421.629 293.41 405.687 293.41V290.713C421.629 290.929 437.57 290.875 453.485 290.713C469.4 290.551 485.368 290.362 501.31 290.2L549.108 289.148C565.022 288.663 580.964 288.177 596.905 287.368V296.728Z" fill="#FAEED7"/>
<path d="M405.687 389.842C367.212 390.611 329.412 379.661 297.306 358.444C281.289 347.849 266.911 334.962 254.633 320.195C248.587 312.748 243.054 304.898 238.072 296.701C233.149 288.456 228.814 279.876 225.097 271.022C210.379 235.324 206.582 196.063 214.188 158.207C221.794 120.351 240.46 85.6021 267.824 58.3595C288.218 37.9507 312.882 22.3162 340.042 12.5812C367.202 2.84611 396.182 -0.747448 424.897 2.05906C453.612 4.86557 481.348 14.0024 506.109 28.812C530.87 43.6216 552.041 63.7358 568.097 87.7071C573.42 95.687 578.188 104.024 582.366 112.658C590.678 130.008 596.36 148.499 599.225 167.523C600.623 177.028 601.389 186.616 601.518 196.223H594.505C594.642 158.807 583.659 122.193 562.951 91.0293C542.242 59.8657 512.741 35.5573 478.193 21.1895C443.572 6.83901 405.484 3.0293 368.706 10.2381C341.158 15.6184 315.187 27.1741 292.748 44.0364C285.312 49.6398 278.264 55.7409 271.654 62.2977C245.265 88.8274 227.321 122.575 220.082 159.287C212.843 196 216.634 234.033 230.977 268.594C234.553 277.158 238.726 285.459 243.466 293.437C248.293 301.375 253.646 308.98 259.489 316.203C265.403 323.367 271.783 330.134 278.586 336.461C285.477 342.706 292.786 348.474 300.462 353.724C308.245 358.9 316.354 363.567 324.739 367.696C333.129 371.759 341.801 375.212 350.688 378.027C359.606 380.802 368.698 382.982 377.904 384.555C387.145 386.035 396.469 386.936 405.822 387.252L405.687 389.842Z" fill="#FAEED7"/>
<path d="M405.688 373.819C396.959 373.877 388.236 373.355 379.577 372.255C370.908 371.075 362.335 369.272 353.925 366.86C337.065 361.935 321.03 354.536 306.343 344.903C299.017 340.054 292.024 334.719 285.411 328.935C278.879 323.052 272.742 316.745 267.042 310.053C261.444 303.234 256.342 296.022 251.775 288.474C247.327 280.88 243.416 272.984 240.068 264.845C229.998 240.321 225.482 213.872 226.846 187.396C228.21 160.921 235.42 135.076 247.957 111.717C260.494 88.358 278.048 68.0649 299.358 52.2948C320.668 36.5248 345.206 25.6689 371.209 20.5068C397.212 15.3447 424.036 16.0044 449.754 22.4386C475.472 28.8728 499.447 40.9217 519.956 57.7203C540.465 74.5189 557 95.6503 568.374 119.597C579.748 143.544 585.678 169.713 585.739 196.223H578.105C578.175 170.644 572.573 145.367 561.7 122.212C550.828 99.0581 534.957 78.6028 515.229 62.3194C495.502 46.0359 472.409 34.3295 447.614 28.043C422.819 21.7565 396.938 21.0465 371.835 25.9639C363.466 27.6063 355.227 29.851 347.181 32.6804C339.116 35.5442 331.265 38.9785 323.687 42.9575C316.185 47.009 308.974 51.5786 302.108 56.6332C295.293 61.7678 288.832 67.355 282.768 73.3571C258.586 97.6958 242.163 128.658 235.576 162.329C228.989 196 232.533 230.868 245.759 262.525C252.417 278.173 261.223 292.817 271.924 306.034C277.289 312.639 283.092 318.875 289.295 324.7C295.588 330.442 302.257 335.759 309.256 340.615C337.708 360.026 371.248 370.627 405.688 371.095V373.819Z" fill="#FAEED7"/>
<path d="M405.687 357.77C397.752 357.842 389.822 357.374 381.95 356.367C374.054 355.319 366.246 353.688 358.591 351.485C350.947 349.237 343.474 346.442 336.23 343.123C328.983 339.757 321.98 335.89 315.271 331.551C301.847 322.781 289.786 312.084 279.476 299.803C274.379 293.607 269.719 287.064 265.531 280.22C261.433 273.289 257.828 266.078 254.741 258.641C245.667 236.298 241.643 212.226 242.956 188.147C244.269 164.068 250.888 140.576 262.339 119.353C273.79 98.1304 289.789 79.7002 309.193 65.3814C328.597 51.0626 350.925 41.209 374.581 36.5256C398.237 31.8422 422.636 32.4447 446.031 38.29C469.427 44.1353 491.242 55.0789 509.916 70.338C528.589 85.5971 543.659 104.794 554.049 126.557C564.438 148.319 569.889 172.109 570.012 196.223H561.704C561.804 173.034 556.76 150.111 546.935 129.106C537.109 108.1 522.748 89.5352 504.885 74.7476C487.023 59.9599 466.103 49.3177 443.632 43.5874C421.162 37.8571 397.7 37.1814 374.937 41.609C367.341 43.0929 359.86 45.112 352.549 47.6511C345.241 50.2394 338.128 53.3494 331.266 56.9571C317.537 64.2154 304.98 73.4996 294.015 84.4975C272.075 106.616 257.193 134.748 251.253 165.331C245.313 195.914 248.583 227.571 260.649 256.294C272.714 284.956 292.712 309.578 318.292 327.263C344.1 344.909 374.534 354.563 405.795 355.019L405.687 357.77Z" fill="#FAEED7"/>
<path d="M405.688 341.721C391.369 341.712 377.116 339.78 363.312 335.975C349.538 331.835 336.396 325.827 324.254 318.118C312.239 310.093 301.352 300.495 291.885 289.58C282.776 278.363 275.319 265.901 269.739 252.572C264.464 239.118 261.051 225.006 259.597 210.627C259.041 203.447 258.969 196.238 259.381 189.048L259.705 183.653C259.705 182.763 259.705 181.873 259.894 180.956L260.325 178.259L262.025 167.604C265.063 153.5 270.037 139.884 276.807 127.143C283.834 114.624 292.506 103.102 302.594 92.8863C312.923 82.9427 324.459 74.3338 336.931 67.2611C349.617 60.518 363.167 55.5445 377.203 52.4793L387.858 50.78L390.555 50.3484C391.446 50.3484 392.336 50.2135 393.253 50.1596L398.648 49.8359C420.284 48.4113 441.96 51.9639 462.009 60.2209C475.356 65.8115 487.886 73.179 499.26 82.1237C510.455 91.4447 520.353 102.222 528.689 114.169C536.745 126.279 543.099 139.44 547.571 153.281C551.75 167.299 554.027 181.815 554.341 196.439H545.359C545.27 182.699 543.365 169.031 539.694 155.789C535.648 142.633 529.841 130.084 522.431 118.484C514.681 106.974 505.438 96.5434 494.945 87.4645C473.489 69.567 447.203 58.4423 419.418 55.5004C412.503 54.8847 405.557 54.7135 398.621 54.9879L393.415 55.2037C392.552 55.2037 391.661 55.2037 390.717 55.3386L388.02 55.7162L377.689 57.1998C364.133 60.0227 351.021 64.6685 338.712 71.0104C326.402 77.6218 315.094 85.9502 305.129 95.7455C295.465 105.79 287.191 117.084 280.529 129.328C274.179 141.728 269.568 154.943 266.826 168.602L265.343 178.906L264.965 181.603C264.965 182.467 264.965 183.357 264.965 184.301L264.749 189.507C264.461 196.434 264.632 203.372 265.262 210.277C266.887 224.045 270.371 237.528 275.62 250.36C276.995 253.543 278.614 256.591 280.097 259.72C280.88 261.257 281.5 262.876 282.417 264.359L285.114 268.783C286.817 271.789 288.672 274.706 290.671 277.523L296.821 285.885C305.647 296.605 315.861 306.102 327.194 314.126C338.763 321.9 351.341 328.054 364.58 332.415C377.967 336.475 391.838 338.725 405.823 339.104L405.688 341.721Z" fill="#FAEED7"/>
<path d="M405.687 325.671C392.929 325.651 380.23 323.937 367.924 320.573C355.667 316.878 343.97 311.533 333.155 304.685C322.485 297.539 312.815 289.003 304.4 279.303C296.204 269.347 289.515 258.241 284.548 246.341C279.892 234.35 276.889 221.782 275.619 208.982C274.657 196.217 275.401 183.382 277.831 170.814C280.66 158.31 285.198 146.257 291.318 134.992C297.603 123.914 305.331 113.719 314.3 104.674C323.45 95.8819 333.609 88.2039 344.564 81.7999C355.826 75.7853 367.861 71.3471 380.332 68.6096C392.903 66.1392 405.749 65.3591 418.527 66.2899C444.334 68.5504 468.895 78.3955 489.118 94.5855C499.103 102.816 507.948 112.341 515.417 122.908C522.639 133.708 528.356 145.442 532.411 157.785C536.177 170.265 538.254 183.192 538.588 196.223H528.931C528.915 184.091 527.273 172.016 524.049 160.321C520.532 148.669 515.441 137.552 508.916 127.278C495.477 106.619 476.216 90.4085 453.566 80.6939C442.219 75.9915 430.287 72.8518 418.095 71.361C405.79 70.1774 393.381 70.6309 381.195 72.7096C369.014 75.123 357.218 79.1791 346.129 84.767C335.115 90.563 325.017 97.9525 316.161 106.697C307.606 115.699 300.295 125.805 294.42 136.746C288.8 147.821 284.742 159.622 282.363 171.812C280.271 183.951 279.799 196.314 280.96 208.577C282.442 220.788 285.582 232.739 290.293 244.102C291.507 246.799 292.99 249.497 294.231 252.41C294.932 253.758 295.499 255.107 296.308 256.51L298.682 260.421C300.172 263.1 301.811 265.694 303.591 268.19L308.986 275.634C316.824 285.156 325.895 293.592 335.96 300.72C346.224 307.595 357.377 313.039 369.111 316.904C380.991 320.517 393.302 322.522 405.714 322.866L405.687 325.671Z" fill="#FAEED7"/>
<path d="M405.687 309.568C394.525 309.565 383.414 308.077 372.644 305.144C361.912 301.921 351.674 297.238 342.218 291.225C332.863 284.977 324.382 277.512 316.997 269.026C309.709 260.37 303.779 250.656 299.41 240.218C295.377 229.693 292.8 218.667 291.749 207.444C290.98 196.249 291.705 185.001 293.907 173.997C296.373 163.098 300.321 152.588 305.641 142.761C311.162 133.117 317.948 124.254 325.818 116.408C333.856 108.753 342.732 102.029 352.279 96.3659C362.084 91.0401 372.577 87.0917 383.461 84.6323C394.446 82.4301 405.677 81.7044 416.854 82.4744C428.068 83.5055 439.087 86.0742 449.601 90.108C460.075 94.3878 469.92 100.068 478.867 106.994C487.674 114.19 495.484 122.526 502.092 131.783C508.485 141.246 513.558 151.537 517.17 162.371C520.546 173.354 522.433 184.739 522.781 196.223H512.504C512.552 185.694 511.182 175.205 508.431 165.041C505.438 154.901 501.073 145.218 495.456 136.26C489.561 127.4 482.523 119.355 474.525 112.334C466.325 105.53 457.254 99.851 447.551 95.4488C437.609 91.2917 427.145 88.5146 416.45 87.1948C405.707 86.1014 394.865 86.4552 384.216 88.2468C373.557 90.2864 363.228 93.7807 353.52 98.6317C343.8 103.596 334.91 110.038 327.166 117.729C319.734 125.669 313.384 134.558 308.284 144.164C303.425 153.852 299.922 164.163 297.873 174.806C296.05 185.424 295.66 196.238 296.713 206.959C298.05 217.601 300.836 228.011 304.994 237.898C309.283 247.693 314.716 256.946 321.178 265.465C327.989 273.78 335.881 281.146 344.645 287.368C353.605 293.395 363.342 298.177 373.588 301.583C383.964 304.731 394.714 306.482 405.552 306.789L405.687 309.568Z" fill="#FAEED7"/>
<path d="M405.687 293.464C396.085 293.716 386.495 292.608 377.203 290.173C367.931 287.413 359.081 283.392 350.903 278.224C342.85 272.828 335.587 266.337 329.324 258.937C323.243 251.36 318.233 242.983 314.435 234.04C310.876 225.023 308.641 215.538 307.799 205.88C307.294 196.257 308.102 186.611 310.2 177.206C312.447 167.935 315.95 159.014 320.612 150.691C325.386 142.526 331.148 134.979 337.767 128.222C344.579 121.67 352.171 115.981 360.371 111.282C377.147 101.958 396.242 97.6335 415.398 98.8202C425.025 99.6019 434.5 101.698 443.559 105.051C452.565 108.729 461.031 113.611 468.725 119.563C476.351 125.707 483.127 132.837 488.875 140.765C494.454 148.906 498.892 157.773 502.065 167.118C505.043 176.55 506.739 186.339 507.109 196.223H496.104C496.213 187.297 495.124 178.398 492.867 169.762C490.402 161.136 486.772 152.887 482.077 145.242C477.139 137.651 471.206 130.757 464.436 124.742C450.448 112.751 433.265 105.101 414.993 102.731C405.771 101.657 396.446 101.811 387.264 103.19C368.629 106.276 351.442 115.158 338.145 128.572C331.637 135.338 326.124 142.994 321.772 151.311C317.745 159.715 314.878 168.625 313.248 177.8C311.891 186.93 311.746 196.199 312.816 205.367C313.113 207.66 313.571 209.899 313.949 212.165C314.192 213.271 314.3 214.43 314.596 215.509L315.514 218.827C316.05 221.043 316.699 223.231 317.456 225.382L319.883 231.802C323.521 240.172 328.246 248.026 333.937 255.161C339.826 262.154 346.578 268.372 354.032 273.665C361.626 278.822 369.895 282.907 378.606 285.803C387.412 288.606 396.54 290.273 405.768 290.767L405.687 293.464Z" fill="#FAEED7"/>
<path d="M691.881 388.493L690.586 197.302L690.235 101.68L690.047 6.08398H697.168L696.979 101.68L696.628 197.302L695.306 388.493H691.881Z" fill="#FAEED7"/>
<path d="M710.978 388.493C710.773 387.509 710.7 386.502 710.763 385.499V376.544V364.594L710.574 340.695L710.25 292.897L709.414 197.302V101.679V6.08398H716.292V101.679L716.076 197.302L715.456 292.897L714.809 340.749L714.647 364.648V376.598V382.559V385.553C714.709 386.556 714.637 387.563 714.431 388.547L710.978 388.493Z" fill="#FAEED7"/>
<path d="M730.076 388.493C729.428 387.495 729.779 386.497 729.671 385.499V382.505V376.544V364.594L729.455 340.695L729.186 292.898L728.619 197.302C728.295 165.419 728.295 133.563 728.295 101.68V6.08398H734.958V101.68C734.958 133.563 734.958 165.419 734.823 197.302L734.257 292.898L733.987 340.695L733.798 364.594L733.663 376.544V382.505V385.499C733.663 386.497 733.906 387.495 733.259 388.493H730.076Z" fill="#FAEED7"/>
<path d="M749.173 388.493C748.962 388.312 748.798 388.082 748.695 387.824C748.591 387.566 748.552 387.286 748.58 387.009V382.505V376.544L748.445 364.594L748.229 340.695L747.986 292.897L747.447 197.302L747.177 149.477V101.679L747.42 6.08398H753.813L754.056 101.679V149.477L753.894 197.302L753.354 292.897L753.327 340.749L753.112 364.648L752.977 376.598V382.559V387.063C753.005 387.34 752.965 387.62 752.862 387.878C752.759 388.136 752.594 388.366 752.383 388.547L749.173 388.493Z" fill="#FAEED7"/>
<path d="M768.271 388.493C768.006 388.352 767.788 388.136 767.644 387.872C767.5 387.609 767.437 387.309 767.462 387.009V382.505V376.544L767.3 364.594L767.138 340.695L766.895 292.897L766.41 197.302L766.059 149.477L766.248 101.679L766.679 6.08398H772.802L773.207 101.679L773.423 149.477L773.261 197.302L772.749 292.897L772.56 340.749L772.398 364.648L772.209 376.598V382.559V385.553V387.063C772.218 387.363 772.145 387.66 771.998 387.922C771.85 388.183 771.634 388.4 771.373 388.547L768.271 388.493Z" fill="#FAEED7"/>
<path d="M787.395 388.493C786.451 387.981 786.316 387.495 786.343 387.009V385.499V382.505V376.544L786.154 364.594L785.993 340.695L785.804 292.897L785.345 197.302C785.345 181.36 785.102 165.419 785.183 149.477L785.48 101.679L786.073 6.08398H791.927L792.52 101.679L792.817 149.477C792.817 165.419 792.817 181.36 792.655 197.302L792.196 292.897L791.792 340.749L791.63 364.648L791.441 376.598V382.559V385.553V387.063C791.441 387.549 791.441 388.034 790.416 388.547L787.395 388.493Z" fill="#FAEED7"/>
<path d="M806.52 388.493C805.387 387.981 805.225 387.495 805.252 387.01V385.499V382.505V376.544L805.036 364.594L804.632 340.749L804.416 292.952L803.957 197.356V149.531L804.146 101.734C804.308 69.8865 804.641 38.0213 805.144 6.13818H810.701C811.204 38.0213 811.537 69.8865 811.699 101.734L811.915 149.478V197.302L811.456 292.898L811.051 340.749L810.863 364.648L810.647 376.598V382.559V385.553V387.064C810.647 387.549 810.647 388.035 809.379 388.547L806.52 388.493Z" fill="#FAEED7"/>
<path d="M1286.03 387.414L1286.68 196.223H1289.38L1290 387.414H1286.03Z" fill="#FAEED7"/>
<path d="M1269.53 387.414L1270.47 196.223H1273.44L1274.38 387.414H1269.53Z" fill="#FAEED7"/>
<path d="M1253.05 387.414L1253.91 291.819L1254.31 196.223H1257.47L1257.87 291.819L1258.76 387.414H1253.05Z" fill="#FAEED7"/>
<path d="M1236.54 387.414C1236.86 371.464 1237.1 355.531 1237.27 339.616L1237.81 291.819C1237.94 259.962 1238.29 228.079 1238.24 196.223H1241.45C1241.45 228.079 1241.74 259.962 1241.88 291.819L1242.42 339.616C1242.58 355.567 1242.82 371.5 1243.15 387.414H1236.54Z" fill="#FAEED7"/>
<path d="M1220.03 387.414L1220.62 363.515L1221.03 339.616L1221.76 291.819L1222.08 244.021C1222.24 228.088 1222.29 212.156 1222.21 196.223H1225.34C1225.34 212.138 1225.39 228.07 1225.48 244.021L1225.8 291.819L1226.53 339.616L1226.91 363.515L1227.53 387.414H1220.03Z" fill="#FAEED7"/>
<path d="M1203.55 387.414L1204.33 363.515L1204.92 339.616L1205.76 291.819L1206.22 244.021C1206.22 228.079 1206.22 212.138 1206.22 196.223H1209.21C1209.21 212.138 1209.21 228.079 1209.21 244.021L1209.67 291.819L1210.51 339.616L1211.1 363.515L1211.88 387.414H1203.55Z" fill="#FAEED7"/>
<path d="M1187.04 387.414C1187.82 371.473 1188.34 355.558 1188.82 339.616L1189.85 291.819C1190.01 275.877 1190.33 259.962 1190.39 244.021C1190.44 228.079 1190.39 212.138 1190.39 196.223H1193.08C1192.89 212.138 1192.92 228.079 1193.08 244.021C1193.24 259.962 1193.46 275.877 1193.62 291.819L1194.65 339.616C1195.13 355.558 1195.65 371.473 1196.43 387.414H1187.04Z" fill="#FAEED7"/>
<path d="M1286.66 196.223C1286.35 186.86 1285.45 177.526 1283.96 168.278C1282.43 159.101 1280.3 150.036 1277.56 141.143C1274.74 132.255 1271.28 123.583 1267.21 115.194C1263.09 106.807 1258.43 98.6974 1253.26 90.9172C1248 83.2522 1242.23 75.9443 1236 69.0413C1229.66 62.2465 1222.89 55.8759 1215.71 49.9708C1208.51 44.1221 1200.91 38.769 1192.97 33.9483C1185 29.1944 1176.7 25.012 1168.13 21.4324C1133.55 7.06014 1095.49 3.25351 1058.75 10.493C1022.01 17.7324 988.242 35.6934 961.701 62.109C955.149 68.7321 949.04 75.7784 943.412 83.2026C937.885 90.6975 932.883 98.5657 928.442 106.751C924.049 114.988 920.262 123.534 917.113 132.322C914.014 141.127 911.545 150.141 909.722 159.296C904.238 186.753 904.929 215.086 911.744 242.243C918.56 269.4 931.33 294.701 949.13 316.314C966.93 337.927 989.313 355.311 1014.66 367.207C1040.01 379.103 1067.68 385.213 1095.68 385.095V392C1086.07 391.902 1076.48 391.154 1066.98 389.761C1057.49 388.306 1048.11 386.17 1038.93 383.368C1029.76 380.533 1020.8 377.035 1012.14 372.902C1003.5 368.727 995.157 363.969 987.164 358.66C946.826 331.691 917.963 290.682 906.187 243.609C894.412 196.537 900.567 146.768 923.455 103.982C946.343 61.1971 984.328 28.455 1030.02 12.1253C1075.71 -4.20435 1125.85 -2.95407 1170.67 15.633C1188.42 23.0477 1204.98 33.0462 1219.81 45.3043C1227.15 51.4717 1234.07 58.1221 1240.53 65.211C1246.89 72.3881 1252.75 79.9849 1258.09 87.95C1279.22 120.049 1290.12 157.801 1289.35 196.223H1286.66Z" fill="#FAEED7"/>
<path d="M1270.47 196.223C1269.98 161.778 1259.38 128.236 1239.99 99.7646C1235.13 92.7685 1229.81 86.1087 1224.05 79.8309C1218.23 73.6348 1212 67.8316 1205.41 62.4597C1192.2 51.7337 1177.54 42.9252 1161.87 36.295C1130.22 23.0782 1095.37 19.5448 1061.71 26.1419C1028.05 32.7391 997.105 49.1703 972.787 73.3572C966.791 79.4276 961.205 85.8885 956.063 92.6975C951.015 99.568 946.445 106.778 942.387 114.277C934.378 129.361 928.651 145.551 925.394 162.317C920.467 187.419 921.169 213.301 927.45 238.098C933.731 262.896 945.434 285.991 961.717 305.72C977.999 325.45 998.455 341.322 1021.61 352.193C1044.77 363.064 1070.05 368.663 1095.63 368.587V376.22C1069.11 376.16 1042.93 370.226 1018.97 358.846C995.018 347.466 973.881 330.922 957.08 310.402C940.279 289.882 928.231 265.896 921.801 240.167C915.372 214.437 914.721 187.603 919.895 161.592C925.069 135.582 935.939 111.039 951.725 89.7286C967.511 68.418 987.821 50.8681 1011.2 38.3396C1034.57 25.811 1060.43 18.6148 1086.92 17.2679C1113.4 15.921 1139.86 20.4569 1164.38 30.5496C1180.73 37.1637 1195.96 46.2621 1209.54 57.5235C1223.02 68.8528 1234.78 82.0932 1244.44 96.8245C1249.21 104.19 1253.47 111.878 1257.17 119.833C1260.83 127.801 1263.9 136.023 1266.37 144.433C1268.8 152.839 1270.6 161.413 1271.77 170.086C1272.87 178.745 1273.39 187.468 1273.33 196.196L1270.47 196.223Z" fill="#FAEED7"/>
<path d="M1254.48 196.223C1254.01 164.985 1244.36 134.574 1226.75 108.774C1209.07 83.2121 1184.47 63.2242 1155.83 51.1578C1127.11 39.1092 1095.47 35.8458 1064.89 41.7801C1034.32 47.7144 1006.19 62.5799 984.062 84.4975C978.587 89.9993 973.512 95.8856 968.876 102.111C964.293 108.364 960.147 114.925 956.468 121.748C952.88 128.617 949.78 135.728 947.189 143.031C938.782 166.743 936.206 192.13 939.677 217.048C943.149 241.966 952.566 265.682 967.133 286.193C981.701 306.705 1000.99 323.409 1023.37 334.896C1045.76 346.382 1070.58 352.312 1095.73 352.187V360.495C1071.61 360.385 1047.8 354.941 1026.02 344.553C1004.25 334.166 985.035 319.091 969.766 300.409C954.497 281.727 943.548 259.9 937.703 236.49C931.858 213.081 931.261 188.669 935.956 165.002C940.651 141.335 950.521 118.999 964.86 99.5938C979.198 80.1883 997.65 64.1935 1018.89 52.7547C1040.14 41.3159 1063.65 34.7162 1087.74 33.4282C1111.84 32.1402 1135.92 36.1957 1158.26 45.3044C1173.14 51.3728 1187 59.6975 1199.34 69.9856C1205.43 75.1881 1211.17 80.7837 1216.52 86.7363C1221.78 92.7564 1226.64 99.1182 1231.06 105.78C1235.4 112.493 1239.26 119.495 1242.63 126.739C1245.94 133.995 1248.72 141.477 1250.97 149.127C1253.18 156.772 1254.82 164.571 1255.88 172.459C1256.88 180.34 1257.35 188.279 1257.28 196.223H1254.48Z" fill="#FAEED7"/>
<path d="M1238.43 196.223C1238.04 182.23 1235.79 168.351 1231.74 154.953C1227.36 141.72 1221.21 129.143 1213.45 117.567C1205.42 106.24 1195.92 96.0264 1185.21 87.1948L1176.84 81.0448C1173.99 79.0356 1171.03 77.1894 1167.97 75.5151L1163.55 72.8177C1162.09 71.9276 1160.47 71.2802 1158.93 70.498C1155.8 69.0144 1152.76 67.396 1149.57 66.0473C1130.37 57.8467 1109.54 54.1557 1088.69 55.2577L1083.51 55.4735C1082.62 55.4735 1081.76 55.4735 1080.82 55.6084L1078.25 55.986L1067.92 57.4696C1054.35 60.1932 1041.21 64.7485 1028.87 71.0105C1016.59 77.6654 1005.26 85.9295 995.175 95.5837C985.371 105.551 977.042 116.869 970.44 129.193C964.094 141.604 959.483 154.828 956.738 168.494L955.254 178.906L954.876 181.604C954.876 182.467 954.876 183.33 954.741 184.301L954.526 189.507C954.224 196.452 954.395 203.409 955.038 210.331C956.669 224.112 960.172 237.606 965.45 250.441C971.013 263.116 978.272 274.976 987.029 285.696C996.024 296.176 1006.38 305.403 1017.83 313.128C1029.42 320.56 1041.97 326.368 1055.14 330.392C1068.37 334.077 1082.03 335.982 1095.76 336.056V345.038C1081.14 344.729 1066.62 342.461 1052.6 338.295C1024.74 329.47 1000.12 312.583 981.85 289.769C972.891 278.399 965.514 265.868 959.92 252.518C954.666 239.068 951.263 224.967 949.805 210.6C949.243 203.42 949.18 196.21 949.616 189.021L949.913 183.627C949.913 182.736 949.913 181.819 950.102 180.929L950.534 178.232L952.26 167.604C955.308 153.555 960.282 139.993 967.042 127.305C974.116 114.858 982.715 103.341 992.64 93.0212C1002.85 82.9425 1014.36 74.2704 1026.87 67.2341C1039.62 60.4855 1053.23 55.5122 1067.33 52.4524L1077.99 50.7531L1080.68 50.3215C1081.57 50.3215 1082.49 50.3215 1083.38 50.1327L1088.77 49.836C1095.96 49.4 1103.17 49.4631 1110.35 50.0248C1124.66 51.5158 1138.7 54.946 1152.08 60.2209C1165.43 65.8151 1177.9 73.3204 1189.09 82.5014C1200 91.9742 1209.6 102.86 1217.63 114.87C1225.29 126.986 1231.28 140.09 1235.4 153.82C1239.21 167.633 1241.14 181.895 1241.15 196.223H1238.43Z" fill="#FAEED7"/>
<path d="M1222.38 196.223C1222.05 183.817 1220.08 171.51 1216.52 159.619C1212.65 147.882 1207.2 136.722 1200.34 126.442C1193.21 116.376 1184.78 107.305 1175.25 99.4676L1167.81 94.0728C1165.25 92.3116 1162.61 90.6908 1159.88 89.2175L1155.94 86.8169C1154.59 86.0622 1153.2 85.3779 1151.79 84.7669C1149.09 83.4451 1146.39 82.0695 1143.5 80.8017C1132.14 76.1063 1120.19 72.9757 1107.98 71.4957C1095.7 70.3212 1083.32 70.7838 1071.16 72.8714C1058.98 75.2782 1047.18 79.3347 1036.09 84.9287C1025.19 90.8323 1015.11 98.1517 1006.13 106.697C997.4 115.551 990.02 125.639 984.224 136.638C978.622 147.721 974.565 159.519 972.166 171.704C970.106 183.883 969.67 196.283 970.872 208.577C972.367 220.797 975.516 232.757 980.232 244.129C985.212 255.334 991.672 265.821 999.437 275.311C1007.45 284.567 1016.65 292.729 1026.79 299.587C1037.08 306.107 1048.2 311.198 1059.86 314.719C1071.55 317.92 1083.61 319.553 1095.73 319.575V329.231C1082.72 328.842 1069.82 326.71 1057.38 322.892C1045.03 318.849 1033.29 313.131 1022.5 305.899C1011.93 298.438 1002.41 289.603 994.177 279.626C986.212 269.462 979.661 258.264 974.702 246.341C970.064 234.357 967.079 221.798 965.828 209.009C964.886 196.232 965.657 183.386 968.12 170.814C970.899 158.344 975.363 146.31 981.392 135.046C987.77 124.047 995.43 113.842 1004.21 104.647C1013.26 95.7197 1023.46 88.0366 1034.53 81.7997C1045.8 75.7686 1057.84 71.3123 1070.32 68.5555C1082.93 66.0517 1095.81 65.2443 1108.63 66.1549C1121.44 67.412 1134.01 70.4067 1146.01 75.0562C1157.83 80.0753 1168.86 86.7805 1178.76 94.963C1188.46 103.388 1197 113.067 1204.14 123.744C1210.99 134.548 1216.34 146.237 1220.03 158.487C1223.4 170.792 1225.1 183.492 1225.1 196.25L1222.38 196.223Z" fill="#FAEED7"/>
<path d="M1206.33 196.223C1206.02 185.384 1204.27 174.635 1201.12 164.259C1197.71 154.005 1192.91 144.267 1186.85 135.316C1180.63 126.544 1173.26 118.643 1164.95 111.822C1156.42 105.369 1147.17 99.9374 1137.38 95.6375C1127.51 91.4416 1117.11 88.6015 1106.47 87.1947C1095.74 86.1148 1084.92 86.4686 1074.29 88.2466C1063.65 90.2916 1053.33 93.7953 1043.65 98.6586C1034.04 103.759 1025.15 110.108 1017.21 117.54C1009.48 125.319 1003.01 134.256 998.034 144.029C993.176 153.736 989.673 164.065 987.623 174.725C985.842 185.421 985.497 196.307 986.598 207.094C987.941 217.755 990.736 228.183 994.906 238.087C999.295 247.796 1004.98 256.87 1011.79 265.061C1018.8 273.073 1026.84 280.113 1035.72 285.992C1044.68 291.605 1054.36 295.979 1064.5 298.994C1074.69 301.697 1085.19 303.039 1095.73 302.986V313.29C1084.26 312.936 1072.89 311.059 1061.91 307.706C1040.06 300.697 1020.79 287.356 1006.53 269.376C999.606 260.429 993.925 250.584 989.646 240.11C985.613 229.594 983.036 218.577 981.985 207.363C981.238 196.185 981.973 184.956 984.17 173.97C986.64 163.089 990.588 152.598 995.904 142.788C1001.57 133.261 1008.29 124.395 1015.92 116.353C1023.78 108.483 1032.65 101.69 1042.3 96.15C1052.14 90.8546 1062.66 86.9339 1073.56 84.4973C1095.68 79.7031 1118.73 81.5806 1139.78 89.8921C1150.21 94.249 1159.91 100.16 1168.56 107.425C1177.07 114.801 1184.54 123.283 1190.79 132.646C1196.79 142.115 1201.46 152.362 1204.68 163.099C1207.64 173.864 1209.14 184.978 1209.13 196.142L1206.33 196.223Z" fill="#FAEED7"/>
<path d="M1190.3 196.223C1189.8 186.987 1188.13 177.852 1185.34 169.033C1182.43 160.328 1178.35 152.06 1173.2 144.46C1167.92 137.009 1161.7 130.265 1154.7 124.392C1147.56 118.683 1139.7 113.948 1131.31 110.311L1124.92 107.884C1122.77 107.123 1120.58 106.484 1118.36 105.968L1115.05 105.051C1113.94 104.728 1112.81 104.62 1111.68 104.404C1109.44 104.026 1107.17 103.568 1104.9 103.244C1095.74 102.188 1086.47 102.333 1077.34 103.676C1068.16 105.298 1059.25 108.176 1050.85 112.226C1033.94 120.727 1020.17 134.375 1011.52 151.204C1007.35 159.58 1004.39 168.508 1002.73 177.719C1001.35 186.892 1001.19 196.208 1002.27 205.421C1004.61 223.702 1012.26 240.894 1024.28 254.864C1030.3 261.628 1037.18 267.569 1044.75 272.532C1052.41 277.229 1060.66 280.859 1069.3 283.322C1077.93 285.574 1086.82 286.672 1095.73 286.586V297.591C1085.82 297.226 1075.99 295.539 1066.52 292.574C1057.17 289.391 1048.31 284.944 1040.17 279.357C1032.22 273.618 1025.08 266.841 1018.94 259.207C1013.03 251.48 1008.21 242.986 1004.59 233.96C1001.25 224.926 999.149 215.479 998.358 205.88C997.867 196.286 998.665 186.669 1000.73 177.287C1002.95 168.06 1006.37 159.164 1010.9 150.826C1015.54 142.624 1021.19 135.031 1027.71 128.222C1034.47 121.601 1042.03 115.839 1050.2 111.067C1058.53 106.401 1067.46 102.907 1076.74 100.682C1086.15 98.6347 1095.78 97.8635 1105.39 98.3888C1115.06 99.1909 1124.56 101.408 1133.58 104.97C1142.52 108.759 1150.9 113.76 1158.48 119.833C1165.87 126.103 1172.36 133.365 1177.76 141.412C1182.92 149.591 1186.93 158.44 1189.68 167.712C1192.13 177.012 1193.24 186.61 1193 196.223H1190.3Z" fill="#FAEED7"/>
</svg>
