<svg width="1508" height="610" viewBox="0 0 1508 610" fill="none" xmlns="http://www.w3.org/2000/svg">
<g filter="url(#filter0_d)">
<path d="M110.834 493.493L109.539 302.302L109.189 206.68L109 111.084H116.094L115.932 206.68L115.582 302.302L114.26 493.493H110.834Z" fill="#FAEED7"/>
<path d="M129.932 493.493C129.726 492.509 129.653 491.502 129.716 490.499V481.544V469.594L129.392 445.749L129.068 397.951L128.475 302.302L128.232 206.68V111.084H135.03V206.68L134.733 302.302L134.112 397.898L133.789 445.749L133.627 469.648V481.598V490.553C133.64 491.544 133.523 492.533 133.276 493.493H129.932Z" fill="#FAEED7"/>
<path d="M149.029 493.493C148.382 492.495 148.706 491.497 148.625 490.499V487.505V481.544L148.49 469.594L148.22 445.749L147.951 397.952L147.384 302.356C147.168 270.473 147.195 238.617 147.249 206.734V111.138H153.912V206.734C153.912 238.617 153.912 270.473 153.777 302.356L153.21 397.952L153.049 445.749L152.86 469.648L152.725 481.598V487.559V490.553C152.725 491.551 152.968 492.549 152.32 493.547L149.029 493.493Z" fill="#FAEED7"/>
<path d="M168.127 493.493C167.915 493.312 167.751 493.083 167.648 492.824C167.545 492.566 167.505 492.287 167.533 492.01V487.505V481.544L167.398 469.594L167.075 445.749L166.832 397.952L166.292 302.356L166.104 254.531V206.734L166.346 111.138H172.739L172.982 206.734V254.531L172.82 302.356L172.281 397.952L172.254 445.749L172.065 469.648L171.93 481.598V487.559V492.064C171.958 492.34 171.918 492.62 171.815 492.878C171.712 493.137 171.548 493.366 171.336 493.547L168.127 493.493Z" fill="#FAEED7"/>
<path d="M187.224 493.493C186.959 493.352 186.741 493.136 186.597 492.873C186.454 492.609 186.39 492.309 186.415 492.01V490.499V487.505V481.544L186.253 469.594L185.929 445.749L185.687 397.952L185.201 302.356L185.012 254.531L185.228 206.734L185.66 111.138H191.783L192.187 206.734L192.403 254.531L192.241 302.356L191.729 397.952L191.513 445.749L191.324 469.648L191.162 481.598V487.559V490.553V492.064C191.187 492.363 191.124 492.663 190.98 492.927C190.836 493.19 190.618 493.406 190.353 493.547L187.224 493.493Z" fill="#FAEED7"/>
<path d="M206.322 493.493C205.404 492.981 205.27 492.495 205.297 492.01V490.499V487.505V481.544L205.108 469.594L204.757 445.749L204.568 397.952L204.11 302.356C204.11 286.415 203.867 270.473 203.921 254.531L204.218 206.734L204.838 111.138H210.664L211.285 206.734L211.501 254.478C211.501 270.419 211.501 286.361 211.312 302.302L210.88 397.898L210.745 445.749L210.583 469.648L210.395 481.598V487.559V490.553V492.064C210.395 492.549 210.395 493.035 209.37 493.547L206.322 493.493Z" fill="#FAEED7"/>
<path d="M225.446 493.493C224.313 492.981 224.151 492.495 224.178 492.01V490.499V487.505L224.044 481.544L223.855 469.594L223.585 445.749L223.369 397.952L222.911 302.356V254.531L223.099 206.734C223.261 174.887 223.594 143.021 224.097 111.138H229.573C230.077 143.021 230.409 174.887 230.571 206.734L230.76 254.531V302.356L230.301 397.952L230.005 445.749L229.816 469.648L229.6 481.598V487.559V490.553V492.064C229.6 492.549 229.6 493.035 228.332 493.547L225.446 493.493Z" fill="#FAEED7"/>
<path d="M705.905 495.489L514.687 494.842V492.144L705.905 491.497V495.489Z" fill="#FAEED7"/>
<path d="M705.905 479.872L514.687 478.927V475.933L705.905 474.989V479.872Z" fill="#FAEED7"/>
<path d="M705.905 464.227L610.31 463.364L514.687 462.932V459.803L610.31 459.398L705.905 458.508V464.227Z" fill="#FAEED7"/>
<path d="M705.905 448.609C689.964 448.285 674.022 448.069 658.108 447.88L610.31 447.341C578.427 447.341 546.57 446.855 514.687 446.909V443.699C546.57 443.699 578.427 443.403 610.31 443.268L658.108 442.728C674.022 442.566 689.955 442.324 705.905 442V448.609Z" fill="#FAEED7"/>
<path d="M705.905 432.991L682.006 432.397L658.108 431.993L610.31 431.264L562.485 430.941C546.57 430.779 530.629 430.779 514.687 430.941V427.677C530.62 427.677 546.552 427.677 562.485 427.677L610.31 427.353L658.108 426.625L682.006 426.247L705.905 425.654V432.991Z" fill="#FAEED7"/>
<path d="M705.905 417.373L682.006 416.564L658.108 415.971L610.31 415.134L562.485 414.676C546.57 414.676 530.629 414.676 514.687 414.676V411.709C530.629 411.709 546.57 411.709 562.485 411.709L610.31 411.25L658.108 410.414L682.006 409.793L705.905 409.011V417.373Z" fill="#FAEED7"/>
<path d="M705.905 401.728C689.964 400.946 674.022 400.46 658.108 399.975L610.31 398.923C594.368 398.761 578.427 398.437 562.485 398.41C546.543 398.383 530.629 398.41 514.687 398.41V395.713C530.629 395.929 546.57 395.875 562.485 395.713C578.4 395.551 594.368 395.362 610.31 395.2L658.108 394.148C674.022 393.663 689.964 393.177 705.905 392.368V401.728Z" fill="#FAEED7"/>
<path d="M514.687 494.842C476.212 495.611 438.412 484.661 406.306 463.444C390.289 452.849 375.911 439.962 363.633 425.195C357.587 417.748 352.054 409.898 347.072 401.701C342.149 393.456 337.814 384.876 334.097 376.022C319.379 340.324 315.582 301.063 323.188 263.207C330.794 225.351 349.46 190.602 376.824 163.36C397.218 142.951 421.882 127.316 449.042 117.581C476.202 107.846 505.182 104.253 533.897 107.059C562.612 109.866 590.348 119.002 615.109 133.812C639.87 148.622 661.041 168.736 677.097 192.707C682.42 200.687 687.188 209.024 691.366 217.658C699.678 235.008 705.36 253.499 708.225 272.523C709.623 282.028 710.389 291.616 710.518 301.223H703.505C703.642 263.807 692.659 227.193 671.951 196.029C651.242 164.866 621.741 140.557 587.193 126.189C552.572 111.839 514.484 108.029 477.706 115.238C450.158 120.618 424.187 132.174 401.748 149.036C394.312 154.64 387.264 160.741 380.654 167.298C354.265 193.827 336.321 227.575 329.082 264.287C321.843 301 325.634 339.033 339.977 373.594C343.553 382.158 347.726 390.459 352.466 398.437C357.293 406.375 362.646 413.98 368.489 421.203C374.403 428.367 380.783 435.134 387.586 441.461C394.477 447.706 401.786 453.474 409.462 458.724C417.245 463.9 425.354 468.567 433.739 472.696C442.129 476.759 450.801 480.212 459.688 483.027C468.606 485.802 477.698 487.982 486.904 489.555C496.145 491.035 505.469 491.936 514.822 492.252L514.687 494.842Z" fill="#FAEED7"/>
<path d="M514.688 478.819C505.959 478.877 497.236 478.355 488.577 477.255C479.908 476.075 471.335 474.272 462.925 471.86C446.065 466.935 430.03 459.536 415.343 449.903C408.017 445.054 401.024 439.719 394.411 433.935C387.879 428.052 381.742 421.745 376.042 415.053C370.444 408.234 365.342 401.022 360.775 393.474C356.327 385.88 352.416 377.984 349.068 369.845C338.998 345.321 334.482 318.872 335.846 292.396C337.21 265.921 344.42 240.076 356.957 216.717C369.494 193.358 387.048 173.065 408.358 157.295C429.668 141.525 454.206 130.669 480.209 125.507C506.212 120.345 533.036 121.004 558.754 127.439C584.472 133.873 608.447 145.922 628.956 162.72C649.465 179.519 666 200.65 677.374 224.597C688.748 248.544 694.678 274.713 694.739 301.223H687.105C687.175 275.644 681.573 250.367 670.7 227.212C659.828 204.058 643.957 183.603 624.229 167.319C604.502 151.036 581.409 139.329 556.614 133.043C531.819 126.757 505.938 126.046 480.835 130.964C472.466 132.606 464.227 134.851 456.181 137.68C448.116 140.544 440.265 143.979 432.687 147.957C425.185 152.009 417.974 156.579 411.108 161.633C404.293 166.768 397.832 172.355 391.768 178.357C367.586 202.696 351.163 233.658 344.576 267.329C337.989 301 341.533 335.868 354.759 367.525C361.417 383.173 370.223 397.817 380.924 411.034C386.289 417.639 392.092 423.875 398.295 429.7C404.588 435.442 411.257 440.759 418.256 445.615C446.708 465.026 480.248 475.627 514.688 476.095V478.819Z" fill="#FAEED7"/>
<path d="M514.687 462.77C506.752 462.842 498.822 462.374 490.95 461.367C483.054 460.319 475.246 458.688 467.591 456.485C459.947 454.237 452.474 451.442 445.23 448.123C437.983 444.757 430.98 440.89 424.271 436.551C410.847 427.781 398.786 417.084 388.476 404.803C383.379 398.607 378.719 392.064 374.531 385.22C370.433 378.289 366.828 371.078 363.741 363.641C354.667 341.298 350.643 317.226 351.956 293.147C353.269 269.068 359.888 245.576 371.339 224.353C382.79 203.13 398.789 184.7 418.193 170.381C437.597 156.063 459.925 146.209 483.581 141.526C507.237 136.842 531.636 137.445 555.031 143.29C578.427 149.135 600.242 160.079 618.916 175.338C637.589 190.597 652.659 209.794 663.049 231.557C673.438 253.319 678.889 277.109 679.012 301.223H670.704C670.804 278.034 665.76 255.111 655.935 234.106C646.109 213.1 631.748 194.535 613.885 179.748C596.023 164.96 575.103 154.318 552.632 148.587C530.162 142.857 506.7 142.181 483.937 146.609C476.341 148.093 468.86 150.112 461.549 152.651C454.241 155.239 447.128 158.349 440.266 161.957C426.537 169.215 413.98 178.5 403.015 189.497C381.075 211.616 366.193 239.748 360.253 270.331C354.313 300.914 357.583 332.571 369.649 361.294C381.714 389.956 401.712 414.578 427.292 432.263C453.1 449.909 483.534 459.563 514.795 460.019L514.687 462.77Z" fill="#FAEED7"/>
<path d="M514.688 446.721C500.369 446.712 486.116 444.78 472.312 440.975C458.538 436.835 445.396 430.827 433.254 423.118C421.239 415.093 410.352 405.495 400.885 394.58C391.776 383.363 384.319 370.901 378.739 357.572C373.464 344.118 370.051 330.006 368.597 315.627C368.041 308.447 367.969 301.238 368.381 294.048L368.705 288.653C368.705 287.763 368.705 286.873 368.894 285.956L369.325 283.259L371.025 272.604C374.063 258.5 379.037 244.884 385.807 232.143C392.834 219.624 401.506 208.102 411.594 197.886C421.923 187.943 433.459 179.334 445.931 172.261C458.617 165.518 472.167 160.545 486.203 157.479L496.858 155.78L499.555 155.348C500.446 155.348 501.336 155.214 502.253 155.16L507.648 154.836C529.284 153.411 550.96 156.964 571.009 165.221C584.356 170.812 596.886 178.179 608.26 187.124C619.455 196.445 629.353 207.222 637.689 219.169C645.745 231.279 652.099 244.44 656.571 258.281C660.75 272.299 663.027 286.815 663.341 301.439H654.359C654.27 287.699 652.365 274.031 648.694 260.789C644.648 247.633 638.841 235.084 631.431 223.484C623.681 211.974 614.438 201.543 603.945 192.464C582.489 174.567 556.203 163.442 528.418 160.5C521.503 159.885 514.557 159.713 507.621 159.988L502.415 160.204C501.552 160.204 500.661 160.204 499.717 160.339L497.02 160.716L486.689 162.2C473.133 165.023 460.021 169.668 447.712 176.01C435.402 182.622 424.094 190.95 414.129 200.745C404.465 210.79 396.191 222.084 389.529 234.328C383.179 246.728 378.568 259.943 375.826 273.602L374.343 283.906L373.965 286.603C373.965 287.467 373.965 288.357 373.965 289.301L373.749 294.507C373.461 301.434 373.632 308.372 374.262 315.277C375.887 329.045 379.371 342.528 384.62 355.36C385.995 358.543 387.614 361.591 389.097 364.72C389.88 366.257 390.5 367.876 391.417 369.359L394.114 373.783C395.817 376.789 397.672 379.706 399.671 382.523L405.821 390.885C414.647 401.605 424.861 411.102 436.194 419.126C447.763 426.9 460.341 433.054 473.58 437.415C486.967 441.475 500.838 443.725 514.823 444.104L514.688 446.721Z" fill="#FAEED7"/>
<path d="M514.687 430.671C501.929 430.651 489.23 428.937 476.924 425.573C464.667 421.878 452.97 416.533 442.155 409.685C431.485 402.539 421.815 394.003 413.4 384.303C405.204 374.347 398.515 363.241 393.548 351.341C388.892 339.35 385.889 326.782 384.619 313.982C383.657 301.217 384.401 288.382 386.831 275.814C389.66 263.31 394.198 251.257 400.318 239.992C406.603 228.914 414.331 218.719 423.3 209.674C432.45 200.882 442.609 193.204 453.564 186.8C464.826 180.785 476.861 176.347 489.332 173.61C501.903 171.139 514.749 170.359 527.527 171.29C553.334 173.55 577.895 183.395 598.118 199.585C608.103 207.816 616.948 217.341 624.417 227.908C631.639 238.708 637.356 250.442 641.411 262.785C645.177 275.265 647.254 288.192 647.588 301.223H637.931C637.915 289.091 636.273 277.016 633.049 265.321C629.532 253.669 624.441 242.552 617.916 232.278C604.477 211.619 585.216 195.408 562.566 185.694C551.219 180.991 539.287 177.852 527.095 176.361C514.79 175.177 502.381 175.631 490.195 177.71C478.014 180.123 466.218 184.179 455.129 189.767C444.115 195.563 434.017 202.953 425.161 211.697C416.606 220.699 409.295 230.805 403.42 241.746C397.8 252.821 393.742 264.622 391.363 276.812C389.271 288.951 388.799 301.314 389.96 313.577C391.442 325.788 394.582 337.739 399.293 349.102C400.507 351.799 401.99 354.497 403.231 357.41C403.932 358.758 404.499 360.107 405.308 361.51L407.682 365.421C409.172 368.1 410.811 370.694 412.591 373.19L417.986 380.634C425.824 390.156 434.895 398.592 444.96 405.72C455.224 412.595 466.377 418.039 478.111 421.904C489.991 425.517 502.302 427.522 514.714 427.866L514.687 430.671Z" fill="#FAEED7"/>
<path d="M514.687 414.568C503.525 414.565 492.414 413.077 481.644 410.144C470.912 406.921 460.674 402.238 451.218 396.225C441.863 389.977 433.382 382.512 425.997 374.026C418.709 365.37 412.779 355.656 408.41 345.218C404.377 334.693 401.8 323.667 400.749 312.444C399.98 301.249 400.705 290.001 402.907 278.997C405.373 268.098 409.321 257.588 414.641 247.761C420.162 238.117 426.948 229.254 434.818 221.408C442.856 213.753 451.732 207.029 461.279 201.366C471.084 196.04 481.577 192.092 492.461 189.632C503.446 187.43 514.677 186.704 525.854 187.474C537.068 188.506 548.087 191.074 558.601 195.108C569.075 199.388 578.92 205.068 587.867 211.994C596.674 219.19 604.484 227.526 611.092 236.783C617.485 246.246 622.558 256.537 626.17 267.371C629.546 278.354 631.433 289.739 631.781 301.223H621.504C621.552 290.694 620.182 280.205 617.431 270.041C614.438 259.901 610.073 250.218 604.456 241.26C598.561 232.4 591.523 224.355 583.525 217.334C575.325 210.53 566.254 204.851 556.551 200.449C546.609 196.292 536.145 193.515 525.45 192.195C514.707 191.101 503.865 191.455 493.216 193.247C482.557 195.286 472.228 198.781 462.52 203.632C452.8 208.596 443.91 215.038 436.166 222.729C428.734 230.669 422.384 239.558 417.284 249.164C412.425 258.852 408.922 269.163 406.873 279.806C405.05 290.424 404.66 301.238 405.713 311.959C407.05 322.601 409.836 333.011 413.994 342.898C418.283 352.693 423.716 361.946 430.178 370.465C436.989 378.78 444.881 386.146 453.645 392.368C462.605 398.395 472.342 403.177 482.588 406.583C492.964 409.731 503.714 411.482 514.552 411.789L514.687 414.568Z" fill="#FAEED7"/>
<path d="M514.687 398.464C505.085 398.716 495.495 397.608 486.203 395.173C476.931 392.413 468.081 388.392 459.903 383.224C451.85 377.828 444.587 371.337 438.324 363.937C432.243 356.36 427.233 347.983 423.435 339.04C419.876 330.023 417.641 320.538 416.799 310.88C416.294 301.257 417.102 291.611 419.2 282.206C421.447 272.935 424.95 264.014 429.612 255.691C434.386 247.526 440.148 239.979 446.767 233.222C453.579 226.67 461.171 220.981 469.371 216.282C486.147 206.958 505.242 202.633 524.398 203.82C534.025 204.602 543.5 206.698 552.559 210.051C561.565 213.729 570.031 218.611 577.725 224.563C585.351 230.707 592.127 237.837 597.875 245.765C603.454 253.906 607.892 262.773 611.065 272.118C614.043 281.55 615.739 291.339 616.109 301.223H605.104C605.213 292.297 604.124 283.398 601.867 274.762C599.402 266.136 595.772 257.887 591.077 250.242C586.139 242.651 580.206 235.757 573.436 229.742C559.448 217.751 542.265 210.101 523.993 207.731C514.771 206.657 505.446 206.811 496.264 208.19C477.629 211.276 460.442 220.158 447.145 233.572C440.637 240.338 435.124 247.994 430.772 256.311C426.745 264.715 423.878 273.625 422.248 282.8C420.891 291.93 420.746 301.199 421.816 310.367C422.113 312.66 422.571 314.899 422.949 317.165C423.192 318.271 423.3 319.43 423.596 320.509L424.514 323.827C425.05 326.043 425.699 328.231 426.456 330.382L428.883 336.802C432.521 345.172 437.246 353.026 442.937 360.161C448.826 367.154 455.578 373.372 463.032 378.665C470.626 383.822 478.895 387.907 487.606 390.803C496.412 393.606 505.54 395.273 514.768 395.767L514.687 398.464Z" fill="#FAEED7"/>
<path d="M800.881 493.493L799.586 302.302L799.235 206.68L799.047 111.084H806.168L805.979 206.68L805.628 302.302L804.306 493.493H800.881Z" fill="#FAEED7"/>
<path d="M819.978 493.493C819.773 492.509 819.7 491.502 819.763 490.499V481.544V469.594L819.574 445.695L819.25 397.897L818.414 302.302V206.679V111.084H825.292V206.679L825.076 302.302L824.456 397.897L823.809 445.749L823.647 469.648V481.598V487.559V490.553C823.709 491.556 823.637 492.563 823.431 493.547L819.978 493.493Z" fill="#FAEED7"/>
<path d="M839.076 493.493C838.428 492.495 838.779 491.497 838.671 490.499V487.505V481.544V469.594L838.455 445.695L838.186 397.898L837.619 302.302C837.295 270.419 837.295 238.563 837.295 206.68V111.084H843.958V206.68C843.958 238.563 843.958 270.419 843.823 302.302L843.257 397.898L842.987 445.695L842.798 469.594L842.663 481.544V487.505V490.499C842.663 491.497 842.906 492.495 842.259 493.493H839.076Z" fill="#FAEED7"/>
<path d="M858.173 493.493C857.962 493.312 857.798 493.082 857.695 492.824C857.591 492.566 857.552 492.286 857.58 492.009V487.505V481.544L857.445 469.594L857.229 445.695L856.986 397.897L856.447 302.302L856.177 254.477V206.679L856.42 111.084H862.813L863.056 206.679V254.477L862.894 302.302L862.354 397.897L862.327 445.749L862.112 469.648L861.977 481.598V487.559V492.063C862.005 492.34 861.965 492.62 861.862 492.878C861.759 493.136 861.594 493.366 861.383 493.547L858.173 493.493Z" fill="#FAEED7"/>
<path d="M877.271 493.493C877.006 493.352 876.788 493.136 876.644 492.872C876.5 492.609 876.437 492.309 876.462 492.009V487.505V481.544L876.3 469.594L876.138 445.695L875.895 397.897L875.41 302.302L875.059 254.477L875.248 206.679L875.679 111.084H881.802L882.207 206.679L882.423 254.477L882.261 302.302L881.749 397.897L881.56 445.749L881.398 469.648L881.209 481.598V487.559V490.553V492.063C881.218 492.363 881.145 492.66 880.998 492.922C880.85 493.183 880.634 493.4 880.373 493.547L877.271 493.493Z" fill="#FAEED7"/>
<path d="M896.395 493.493C895.451 492.981 895.316 492.495 895.343 492.009V490.499V487.505V481.544L895.154 469.594L894.993 445.695L894.804 397.897L894.345 302.302C894.345 286.36 894.102 270.419 894.183 254.477L894.48 206.679L895.073 111.084H900.927L901.52 206.679L901.817 254.477C901.817 270.419 901.817 286.36 901.655 302.302L901.196 397.897L900.792 445.749L900.63 469.648L900.441 481.598V487.559V490.553V492.063C900.441 492.549 900.441 493.034 899.416 493.547L896.395 493.493Z" fill="#FAEED7"/>
<path d="M915.52 493.493C914.387 492.981 914.225 492.495 914.252 492.01V490.499V487.505V481.544L914.036 469.594L913.632 445.749L913.416 397.952L912.957 302.356V254.531L913.146 206.734C913.308 174.887 913.641 143.021 914.144 111.138H919.701C920.204 143.021 920.537 174.887 920.699 206.734L920.915 254.478V302.302L920.456 397.898L920.051 445.749L919.863 469.648L919.647 481.598V487.559V490.553V492.064C919.647 492.549 919.647 493.035 918.379 493.547L915.52 493.493Z" fill="#FAEED7"/>
<path d="M1395.03 492.414L1395.68 301.223H1398.38L1399 492.414H1395.03Z" fill="#FAEED7"/>
<path d="M1378.53 492.414L1379.47 301.223H1382.44L1383.38 492.414H1378.53Z" fill="#FAEED7"/>
<path d="M1362.05 492.414L1362.91 396.819L1363.31 301.223H1366.47L1366.87 396.819L1367.76 492.414H1362.05Z" fill="#FAEED7"/>
<path d="M1345.54 492.414C1345.86 476.464 1346.1 460.531 1346.27 444.616L1346.81 396.819C1346.94 364.962 1347.29 333.079 1347.24 301.223H1350.45C1350.45 333.079 1350.74 364.962 1350.88 396.819L1351.42 444.616C1351.58 460.567 1351.82 476.5 1352.15 492.414H1345.54Z" fill="#FAEED7"/>
<path d="M1329.03 492.414L1329.62 468.515L1330.03 444.616L1330.76 396.819L1331.08 349.021C1331.24 333.088 1331.29 317.156 1331.21 301.223H1334.34C1334.34 317.138 1334.39 333.07 1334.48 349.021L1334.8 396.819L1335.53 444.616L1335.91 468.515L1336.53 492.414H1329.03Z" fill="#FAEED7"/>
<path d="M1312.55 492.414L1313.33 468.515L1313.92 444.616L1314.76 396.819L1315.22 349.021C1315.22 333.079 1315.22 317.138 1315.22 301.223H1318.21C1318.21 317.138 1318.21 333.079 1318.21 349.021L1318.67 396.819L1319.51 444.616L1320.1 468.515L1320.88 492.414H1312.55Z" fill="#FAEED7"/>
<path d="M1296.04 492.414C1296.82 476.473 1297.34 460.558 1297.82 444.616L1298.85 396.819C1299.01 380.877 1299.33 364.962 1299.39 349.021C1299.44 333.079 1299.39 317.138 1299.39 301.223H1302.08C1301.89 317.138 1301.92 333.079 1302.08 349.021C1302.24 364.962 1302.46 380.877 1302.62 396.819L1303.65 444.616C1304.13 460.558 1304.65 476.473 1305.43 492.414H1296.04Z" fill="#FAEED7"/>
<path d="M1395.66 301.223C1395.35 291.86 1394.45 282.526 1392.96 273.278C1391.43 264.101 1389.3 255.036 1386.56 246.143C1383.74 237.255 1380.28 228.583 1376.21 220.194C1372.09 211.807 1367.43 203.697 1362.26 195.917C1357 188.252 1351.23 180.944 1345 174.041C1338.66 167.246 1331.89 160.876 1324.71 154.971C1317.51 149.122 1309.91 143.769 1301.97 138.948C1294 134.194 1285.7 130.012 1277.13 126.432C1242.55 112.06 1204.49 108.254 1167.75 115.493C1131.01 122.732 1097.24 140.693 1070.7 167.109C1064.15 173.732 1058.04 180.778 1052.41 188.203C1046.89 195.697 1041.88 203.566 1037.44 211.751C1033.05 219.988 1029.26 228.534 1026.11 237.322C1023.01 246.127 1020.54 255.141 1018.72 264.296C1013.24 291.753 1013.93 320.086 1020.74 347.243C1027.56 374.4 1040.33 399.701 1058.13 421.314C1075.93 442.927 1098.31 460.311 1123.66 472.207C1149.01 484.103 1176.68 490.213 1204.68 490.095V497C1195.07 496.902 1185.48 496.154 1175.98 494.761C1166.49 493.306 1157.11 491.17 1147.93 488.368C1138.76 485.533 1129.8 482.035 1121.14 477.902C1112.5 473.727 1104.16 468.969 1096.16 463.66C1055.83 436.691 1026.96 395.682 1015.19 348.609C1003.41 301.537 1009.57 251.768 1032.46 208.982C1055.34 166.197 1093.33 133.455 1139.02 117.125C1184.71 100.796 1234.85 102.046 1279.67 120.633C1297.42 128.048 1313.98 138.046 1328.81 150.304C1336.15 156.472 1343.07 163.122 1349.53 170.211C1355.89 177.388 1361.75 184.985 1367.09 192.95C1388.22 225.049 1399.12 262.801 1398.35 301.223H1395.66Z" fill="#FAEED7"/>
<path d="M1379.47 301.223C1378.98 266.778 1368.38 233.236 1348.99 204.765C1344.13 197.768 1338.81 191.109 1333.05 184.831C1327.23 178.635 1321 172.832 1314.41 167.46C1301.2 156.734 1286.54 147.925 1270.87 141.295C1239.22 128.078 1204.37 124.545 1170.71 131.142C1137.05 137.739 1106.11 154.17 1081.79 178.357C1075.79 184.428 1070.2 190.888 1065.06 197.697C1060.01 204.568 1055.45 211.778 1051.39 219.277C1043.38 234.361 1037.65 250.551 1034.39 267.317C1029.47 292.419 1030.17 318.301 1036.45 343.098C1042.73 367.896 1054.43 390.991 1070.72 410.72C1087 430.45 1107.46 446.322 1130.61 457.193C1153.77 468.064 1179.05 473.663 1204.63 473.587V481.22C1178.11 481.16 1151.93 475.226 1127.97 463.846C1104.02 452.466 1082.88 435.922 1066.08 415.402C1049.28 394.882 1037.23 370.896 1030.8 345.167C1024.37 319.437 1023.72 292.603 1028.89 266.592C1034.07 240.582 1044.94 216.039 1060.72 194.729C1076.51 173.418 1096.82 155.868 1120.2 143.34C1143.57 130.811 1169.43 123.615 1195.92 122.268C1222.4 120.921 1248.86 125.457 1273.38 135.55C1289.73 142.164 1304.96 151.262 1318.54 162.524C1332.02 173.853 1343.78 187.093 1353.44 201.824C1358.21 209.19 1362.47 216.878 1366.17 224.833C1369.83 232.801 1372.9 241.023 1375.37 249.433C1377.8 257.839 1379.6 266.413 1380.77 275.086C1381.87 283.745 1382.39 292.468 1382.33 301.196L1379.47 301.223Z" fill="#FAEED7"/>
<path d="M1363.48 301.223C1363.01 269.985 1353.36 239.574 1335.75 213.774C1318.07 188.212 1293.47 168.224 1264.83 156.158C1236.11 144.109 1204.47 140.846 1173.89 146.78C1143.32 152.714 1115.19 167.58 1093.06 189.498C1087.59 194.999 1082.51 200.886 1077.88 207.111C1073.29 213.364 1069.15 219.925 1065.47 226.748C1061.88 233.617 1058.78 240.728 1056.19 248.031C1047.78 271.743 1045.21 297.13 1048.68 322.048C1052.15 346.966 1061.57 370.682 1076.13 391.193C1090.7 411.705 1109.99 428.409 1132.37 439.896C1154.76 451.382 1179.58 457.312 1204.73 457.187V465.495C1180.61 465.385 1156.8 459.941 1135.02 449.553C1113.25 439.166 1094.04 424.091 1078.77 405.409C1063.5 386.727 1052.55 364.9 1046.7 341.49C1040.86 318.081 1040.26 293.669 1044.96 270.002C1049.65 246.335 1059.52 223.999 1073.86 204.594C1088.2 185.188 1106.65 169.193 1127.89 157.755C1149.14 146.316 1172.65 139.716 1196.74 138.428C1220.84 137.14 1244.92 141.196 1267.26 150.304C1282.14 156.373 1296 164.697 1308.34 174.986C1314.43 180.188 1320.17 185.784 1325.52 191.736C1330.78 197.756 1335.64 204.118 1340.06 210.78C1344.4 217.493 1348.26 224.495 1351.63 231.739C1354.94 238.995 1357.72 246.477 1359.97 254.127C1362.18 261.772 1363.82 269.571 1364.88 277.459C1365.88 285.34 1366.35 293.279 1366.28 301.223H1363.48Z" fill="#FAEED7"/>
<path d="M1347.43 301.223C1347.04 287.23 1344.79 273.351 1340.74 259.953C1336.36 246.72 1330.21 234.143 1322.45 222.567C1314.42 211.24 1304.92 201.026 1294.21 192.195L1285.84 186.045C1282.99 184.036 1280.03 182.189 1276.97 180.515L1272.55 177.818C1271.09 176.928 1269.47 176.28 1267.93 175.498C1264.8 174.014 1261.76 172.396 1258.57 171.047C1239.37 162.847 1218.54 159.156 1197.69 160.258L1192.51 160.474C1191.62 160.474 1190.76 160.474 1189.82 160.608L1187.25 160.986L1176.92 162.47C1163.35 165.193 1150.21 169.748 1137.87 176.01C1125.59 182.665 1114.26 190.929 1104.18 200.584C1094.37 210.551 1086.04 221.869 1079.44 234.193C1073.09 246.604 1068.48 259.828 1065.74 273.494L1064.25 283.906L1063.88 286.604C1063.88 287.467 1063.88 288.33 1063.74 289.301L1063.53 294.507C1063.22 301.452 1063.4 308.409 1064.04 315.331C1065.67 329.112 1069.17 342.606 1074.45 355.441C1080.01 368.116 1087.27 379.976 1096.03 390.696C1105.02 401.176 1115.38 410.403 1126.83 418.128C1138.42 425.56 1150.97 431.368 1164.14 435.392C1177.37 439.077 1191.03 440.982 1204.76 441.056V450.038C1190.14 449.729 1175.62 447.461 1161.6 443.295C1133.74 434.47 1109.12 417.583 1090.85 394.769C1081.89 383.399 1074.51 370.868 1068.92 357.518C1063.67 344.068 1060.26 329.967 1058.81 315.6C1058.24 308.42 1058.18 301.21 1058.62 294.021L1058.91 288.627C1058.91 287.736 1058.91 286.819 1059.1 285.929L1059.53 283.232L1061.26 272.604C1064.31 258.555 1069.28 244.993 1076.04 232.305C1083.12 219.858 1091.72 208.341 1101.64 198.021C1111.85 187.943 1123.36 179.27 1135.87 172.234C1148.62 165.486 1162.23 160.512 1176.33 157.452L1186.99 155.753L1189.68 155.322C1190.57 155.322 1191.49 155.322 1192.38 155.133L1197.77 154.836C1204.96 154.4 1212.17 154.463 1219.35 155.025C1233.66 156.516 1247.7 159.946 1261.08 165.221C1274.43 170.815 1286.9 178.32 1298.09 187.501C1309 196.974 1318.6 207.86 1326.63 219.87C1334.29 231.986 1340.28 245.09 1344.4 258.82C1348.21 272.633 1350.14 286.895 1350.15 301.223H1347.43Z" fill="#FAEED7"/>
<path d="M1331.38 301.223C1331.05 288.817 1329.08 276.51 1325.52 264.619C1321.65 252.882 1316.2 241.722 1309.34 231.442C1302.21 221.376 1293.78 212.305 1284.25 204.468L1276.81 199.073C1274.25 197.312 1271.61 195.691 1268.88 194.218L1264.94 191.817C1263.59 191.062 1262.2 190.378 1260.79 189.767C1258.09 188.445 1255.39 187.069 1252.5 185.802C1241.14 181.106 1229.19 177.976 1216.98 176.496C1204.7 175.321 1192.32 175.784 1180.16 177.871C1167.98 180.278 1156.18 184.335 1145.09 189.929C1134.19 195.832 1124.11 203.152 1115.13 211.697C1106.4 220.551 1099.02 230.639 1093.22 241.638C1087.62 252.721 1083.57 264.519 1081.17 276.704C1079.11 288.883 1078.67 301.283 1079.87 313.577C1081.37 325.797 1084.52 337.757 1089.23 349.129C1094.21 360.334 1100.67 370.821 1108.44 380.311C1116.45 389.567 1125.65 397.729 1135.79 404.587C1146.08 411.107 1157.2 416.198 1168.86 419.719C1180.55 422.92 1192.61 424.553 1204.73 424.575V434.231C1191.72 433.842 1178.82 431.71 1166.38 427.892C1154.03 423.849 1142.29 418.131 1131.5 410.899C1120.93 403.438 1111.41 394.603 1103.18 384.626C1095.21 374.462 1088.66 363.264 1083.7 351.341C1079.06 339.357 1076.08 326.798 1074.83 314.009C1073.89 301.232 1074.66 288.386 1077.12 275.814C1079.9 263.344 1084.36 251.31 1090.39 240.046C1096.77 229.047 1104.43 218.842 1113.21 209.647C1122.26 200.72 1132.46 193.037 1143.53 186.8C1154.8 180.769 1166.84 176.312 1179.32 173.556C1191.93 171.052 1204.81 170.244 1217.63 171.155C1230.44 172.412 1243.01 175.407 1255.01 180.056C1266.83 185.075 1277.86 191.781 1287.76 199.963C1297.46 208.388 1306 218.067 1313.14 228.744C1319.99 239.548 1325.34 251.237 1329.03 263.487C1332.4 275.792 1334.1 288.492 1334.1 301.25L1331.38 301.223Z" fill="#FAEED7"/>
<path d="M1315.33 301.223C1315.02 290.384 1313.27 279.635 1310.12 269.259C1306.71 259.005 1301.91 249.267 1295.85 240.316C1289.63 231.544 1282.26 223.643 1273.95 216.822C1265.42 210.369 1256.17 204.937 1246.38 200.638C1236.51 196.442 1226.11 193.602 1215.47 192.195C1204.74 191.115 1193.92 191.469 1183.29 193.247C1172.65 195.292 1162.33 198.795 1152.65 203.659C1143.04 208.759 1134.15 215.108 1126.21 222.54C1118.48 230.319 1112.01 239.256 1107.03 249.029C1102.18 258.736 1098.67 269.065 1096.62 279.725C1094.84 290.421 1094.5 301.307 1095.6 312.094C1096.94 322.755 1099.74 333.183 1103.91 343.087C1108.3 352.796 1113.98 361.87 1120.79 370.061C1127.8 378.073 1135.84 385.113 1144.72 390.992C1153.68 396.605 1163.36 400.979 1173.5 403.994C1183.69 406.697 1194.19 408.039 1204.73 407.986V418.29C1193.26 417.936 1181.89 416.059 1170.91 412.706C1149.06 405.697 1129.79 392.356 1115.53 374.376C1108.61 365.429 1102.93 355.584 1098.65 345.11C1094.61 334.594 1092.04 323.577 1090.98 312.363C1090.24 301.185 1090.97 289.956 1093.17 278.97C1095.64 268.089 1099.59 257.598 1104.9 247.788C1110.57 238.261 1117.29 229.395 1124.92 221.353C1132.78 213.483 1141.65 206.69 1151.3 201.15C1161.14 195.855 1171.66 191.934 1182.56 189.497C1204.68 184.703 1227.73 186.581 1248.78 194.892C1259.21 199.249 1268.91 205.16 1277.56 212.425C1286.07 219.801 1293.54 228.283 1299.79 237.646C1305.79 247.115 1310.46 257.362 1313.68 268.099C1316.64 278.864 1318.14 289.978 1318.13 301.142L1315.33 301.223Z" fill="#FAEED7"/>
<path d="M1299.3 301.223C1298.8 291.987 1297.13 282.852 1294.34 274.033C1291.43 265.328 1287.35 257.06 1282.2 249.46C1276.92 242.009 1270.7 235.265 1263.7 229.392C1256.56 223.683 1248.7 218.948 1240.31 215.311L1233.92 212.884C1231.77 212.123 1229.58 211.484 1227.36 210.968L1224.05 210.051C1222.94 209.728 1221.81 209.62 1220.68 209.404C1218.44 209.026 1216.17 208.568 1213.9 208.244C1204.74 207.188 1195.47 207.333 1186.34 208.676C1177.16 210.298 1168.25 213.176 1159.85 217.226C1142.94 225.727 1129.17 239.375 1120.52 256.204C1116.35 264.58 1113.39 273.508 1111.73 282.719C1110.35 291.892 1110.19 301.208 1111.27 310.421C1113.61 328.702 1121.26 345.894 1133.28 359.864C1139.3 366.628 1146.18 372.569 1153.75 377.532C1161.41 382.229 1169.66 385.859 1178.3 388.322C1186.93 390.574 1195.82 391.672 1204.73 391.586V402.591C1194.82 402.226 1184.99 400.539 1175.52 397.574C1166.17 394.391 1157.31 389.944 1149.17 384.357C1141.22 378.618 1134.08 371.841 1127.94 364.207C1122.03 356.48 1117.21 347.986 1113.59 338.96C1110.25 329.926 1108.15 320.479 1107.36 310.88C1106.87 301.286 1107.67 291.669 1109.73 282.287C1111.95 273.06 1115.37 264.164 1119.9 255.826C1124.54 247.624 1130.19 240.031 1136.71 233.222C1143.47 226.601 1151.03 220.839 1159.2 216.067C1167.53 211.401 1176.46 207.907 1185.74 205.682C1195.15 203.635 1204.78 202.864 1214.39 203.389C1224.06 204.191 1233.56 206.408 1242.58 209.97C1251.52 213.759 1259.9 218.76 1267.48 224.833C1274.87 231.103 1281.36 238.365 1286.76 246.412C1291.92 254.591 1295.93 263.44 1298.68 272.712C1301.13 282.012 1302.24 291.61 1302 301.223H1299.3Z" fill="#FAEED7"/>
</g>
<defs>
<filter id="filter0_d" x="0" y="0.724609" width="1508" height="609.275" filterUnits="userSpaceOnUse" color-interpolation-filters="sRGB">
<feFlood flood-opacity="0" result="BackgroundImageFix"/>
<feColorMatrix in="SourceAlpha" type="matrix" values="0 0 0 0 0 0 0 0 0 0 0 0 0 0 0 0 0 0 127 0" result="hardAlpha"/>
<feMorphology radius="19" operator="dilate" in="SourceAlpha" result="effect1_dropShadow"/>
<feOffset dy="4"/>
<feGaussianBlur stdDeviation="45"/>
<feComposite in2="hardAlpha" operator="out"/>
<feColorMatrix type="matrix" values="0 0 0 0 0.792157 0 0 0 0 0.635294 0 0 0 0 0.164706 0 0 0 0.85 0"/>
<feBlend mode="normal" in2="BackgroundImageFix" result="effect1_dropShadow"/>
<feBlend mode="normal" in="SourceGraphic" in2="effect1_dropShadow" result="shape"/>
</filter>
</defs>
</svg>
