<svg width="13" height="14" viewBox="0 0 13 14" fill="none" xmlns="http://www.w3.org/2000/svg">
<path fill-rule="evenodd" clip-rule="evenodd" d="M1.52504 12.3302H11.475C11.6635 12.3302 11.8443 12.405 11.9776 12.5383C12.1108 12.6716 12.1857 12.8524 12.1857 13.0409C12.1857 13.2294 12.1108 13.4101 11.9776 13.5434C11.8443 13.6767 11.6635 13.7516 11.475 13.7516H1.52504C1.33655 13.7516 1.15578 13.6767 1.02249 13.5434C0.88921 13.4101 0.814331 13.2294 0.814331 13.0409C0.814331 12.8524 0.88921 12.6716 1.02249 12.5383C1.15578 12.405 1.33655 12.3302 1.52504 12.3302ZM7.21074 8.19026L9.51558 5.88613L10.5205 6.89107L6.50003 10.9116L2.47953 6.89107L3.48448 5.88613L5.78932 8.19026V0.248047H7.21074V8.19026Z" fill="white"/>
</svg>
