<svg width="301" height="140" viewBox="0 0 301 140" fill="none" xmlns="http://www.w3.org/2000/svg">
<g clip-path="url(#clip0_1318_1281)">
<path d="M223.982 52.9707C225.052 52.9707 225.963 53.1906 226.75 53.6305C227.536 54.0703 228.133 54.6986 228.511 55.5155C228.919 56.3323 229.108 57.2748 229.108 58.3744V58.8143C229.108 58.94 229.108 59.1285 229.077 59.317C229.045 59.5369 229.014 59.7254 228.982 59.8825C228.951 60.0396 228.919 60.3223 228.856 60.6679C228.794 61.0449 228.731 61.3905 228.668 61.7047C228.605 62.0188 228.479 62.5215 228.385 63.1498C228.259 63.7782 228.133 64.4065 228.039 64.972C227.913 65.569 227.756 66.3544 227.567 67.3597C227.378 68.3651 227.158 69.339 226.97 70.3129H222.567C222.882 68.7421 223.228 66.8885 223.668 64.7835C224.265 61.7047 224.643 60.2595 224.643 59.5369C224.643 57.8089 223.794 56.9293 222.096 56.9293C220.932 56.9293 219.895 57.3377 219.045 58.1231C218.196 58.9085 217.599 59.9767 217.285 61.2962L215.461 70.4072H211.09L214.486 53.4734H218.322L217.913 55.5469C218.7 54.7615 219.612 54.1331 220.649 53.6933C221.718 53.222 222.819 52.9707 223.982 52.9707Z" fill="#F6DBA8"/>
<path d="M81.2514 50.3625C79.9936 50.3625 79.3018 51.0536 79.1131 52.2789L78.8301 53.6613H83.1695L82.4463 57.3685H78.1068L75.4969 70.3752H71.126L73.7359 57.3685H70.9688L71.7234 53.6613H74.4592L74.7736 52.0904C75.0881 50.4253 75.7799 49.1372 76.8805 48.2261C77.9811 47.2836 79.3961 46.8438 81.157 46.8438H84.5217L83.7984 50.3939H81.2514V50.3625Z" fill="#F6DBA8"/>
<path d="M99.0197 53.4416H102.825L99.46 70.4069H95.6236L95.9066 68.9617C95.9066 68.9617 95.718 69.0874 95.718 69.1188C94.0514 70.3126 92.2275 70.8781 90.215 70.8781C88.7371 70.8781 87.4164 70.564 86.2529 69.9042C85.0895 69.2444 84.209 68.3333 83.5801 67.2023C82.9512 66.0399 82.6367 64.7518 82.6367 63.338C82.6367 61.9557 82.8883 60.6361 83.4229 59.348C83.9574 58.0599 84.6807 56.9603 85.5926 56.0492C86.5045 55.1382 87.6051 54.3841 88.8629 53.85C90.1521 53.2845 91.5043 53.0332 92.9193 53.0332C95.2148 53.0332 97.0387 53.85 98.3908 55.4837C98.3908 55.5152 98.548 55.6408 98.548 55.6722L99.0197 53.4416ZM91.0326 66.7311C92.5734 66.7311 93.8941 66.1341 95.0576 64.9717C96.2211 63.7779 96.7871 62.4269 96.7871 60.8561C96.7871 59.725 96.4098 58.814 95.6865 58.1542C94.9633 57.463 93.9885 57.1488 92.7936 57.1488C92.0389 57.1488 91.3156 57.3059 90.6238 57.6201C89.932 57.9343 89.3031 58.3741 88.8 58.9082C88.2969 59.4423 87.8881 60.0706 87.5736 60.7932C87.2592 61.5158 87.1334 62.2698 87.1334 63.0238C87.1334 64.1549 87.4793 65.066 88.2025 65.7257C88.8943 66.3855 89.8377 66.7311 91.0326 66.7311Z" fill="#F6DBA8"/>
<path d="M109.679 70.8776C107.887 70.8776 106.409 70.4378 105.245 69.5267C104.082 68.6156 103.516 67.4217 103.516 65.9137C103.516 65.5681 103.547 65.2225 103.61 64.877H107.824C107.792 65.0655 107.792 65.2225 107.792 65.3482C107.792 65.7566 107.918 66.1022 108.138 66.385C108.358 66.6677 108.673 66.8876 109.05 67.0447C109.427 67.2018 109.868 67.2647 110.371 67.2647C111.157 67.2647 111.88 67.0761 112.478 66.6991C113.075 66.3221 113.389 65.788 113.389 65.1283C113.389 64.877 113.327 64.657 113.169 64.4685C113.012 64.28 112.761 64.1229 112.446 63.9973C112.1 63.8716 111.817 63.7774 111.534 63.7145C111.251 63.6517 110.842 63.5574 110.339 63.4632C109.805 63.3689 109.396 63.3061 109.113 63.2433C108.83 63.1804 108.453 63.0862 107.981 62.9291C107.509 62.772 107.132 62.6149 106.88 62.4578C106.597 62.2693 106.346 62.0494 106.063 61.7981C105.78 61.5153 105.56 61.2011 105.434 60.7927C105.308 60.3843 105.245 59.9445 105.245 59.4732C105.245 57.4939 105.968 55.9545 107.415 54.8235C108.861 53.6925 110.717 53.127 112.949 53.127C113.861 53.127 114.679 53.2526 115.402 53.4725C116.157 53.7239 116.754 54.038 117.257 54.4465C117.76 54.8549 118.138 55.3576 118.421 55.9231C118.704 56.4886 118.829 57.1169 118.829 57.7767C118.829 58.0594 118.798 58.3736 118.735 58.6878H114.647C114.679 58.5307 114.679 58.3736 114.679 58.2794C114.679 57.7453 114.49 57.3054 114.081 57.0227C113.672 56.7399 113.106 56.5828 112.352 56.5828C111.817 56.5828 111.314 56.6771 110.905 56.8342C110.465 56.9913 110.151 57.2426 109.899 57.5253C109.647 57.8395 109.522 58.1537 109.522 58.5307C109.522 58.7506 109.585 58.9391 109.71 59.0962C109.836 59.2533 109.962 59.4104 110.119 59.5046C110.276 59.5989 110.496 59.6931 110.811 59.7874C111.125 59.8816 111.408 59.9445 111.629 60.0073C111.849 60.0701 112.163 60.133 112.603 60.1958C113.138 60.2901 113.547 60.3529 113.83 60.4157C114.113 60.4786 114.521 60.6042 114.993 60.7299C115.465 60.8556 115.842 61.0126 116.125 61.2011C116.408 61.3897 116.691 61.6096 116.974 61.8923C117.257 62.1751 117.477 62.4893 117.603 62.8977C117.729 63.3061 117.792 63.7459 117.792 64.2172C117.792 66.2907 117.037 67.9244 115.496 69.0868C113.955 70.2807 112.006 70.8776 109.679 70.8776Z" fill="#F6DBA8"/>
<path d="M136.027 48.4453V52.8437H129.896V70.4059H125.147V52.8437H119.047V48.4453H136.027Z" fill="#F6DBA8"/>
<path d="M156.656 48.4453V52.8437H150.525V70.4059H145.745V52.8437H139.645V48.4453H156.656Z" fill="#F6DBA8"/>
<path d="M164.517 70.8783C162.977 70.8783 161.624 70.5327 160.429 69.8729C159.235 69.2132 158.323 68.3021 157.662 67.1397C157.002 65.9772 156.688 64.6891 156.688 63.2753C156.688 61.4217 157.159 59.6938 158.071 58.1229C159.014 56.5521 160.272 55.2954 161.876 54.3843C163.48 53.4732 165.272 53.002 167.19 53.002C169.486 53.002 171.372 53.7245 172.819 55.1383C174.265 56.5835 174.989 58.3743 174.989 60.5735C174.989 62.4271 174.517 64.155 173.605 65.7259C172.662 67.2967 171.404 68.5534 169.769 69.4645C168.165 70.407 166.404 70.8783 164.517 70.8783ZM164.926 66.7626C166.53 66.7626 167.851 66.1657 168.951 65.0033C170.052 63.8094 170.586 62.4271 170.586 60.8248C170.586 59.6938 170.24 58.7827 169.549 58.1229C168.857 57.4632 167.945 57.1176 166.781 57.1176C165.712 57.1176 164.737 57.4003 163.888 57.9344C163.008 58.4999 162.348 59.2225 161.845 60.1336C161.341 61.0447 161.121 62.0187 161.121 63.0554C161.121 64.1864 161.467 65.0975 162.159 65.7573C162.819 66.4171 163.763 66.7626 164.926 66.7626Z" fill="#F6DBA8"/>
<path d="M194.203 53.4405L186.593 61.6717L191.404 70.4057H186.687L182.096 61.9859L180.398 70.4057H176.027L180.65 47.377H185.021L182.379 60.5721L188.857 53.4405H194.203Z" fill="#F6DBA8"/>
<path d="M137.854 92.0212C125.904 92.0212 116.188 82.3133 116.156 70.4062H120.936C120.967 79.7057 128.546 87.2772 137.854 87.2772C147.161 87.2772 154.74 79.7057 154.771 70.4062H159.551C159.519 82.3133 149.771 92.0212 137.854 92.0212Z" fill="#F6DBA8"/>
<path d="M204.578 65.0975C204.295 65.4431 203.981 65.7573 203.603 66.0086C203.163 66.3228 202.691 66.5427 202.157 66.7312C201.622 66.9197 201.088 66.9826 200.522 66.9826C199.327 66.9826 198.415 66.6684 197.754 66.0715C197.094 65.4431 196.78 64.5635 196.78 63.4324C196.78 63.3696 196.78 63.3068 196.811 63.2125H209.924C210.207 62.2072 210.364 61.2961 210.333 60.5106C210.333 58.4057 209.641 56.6149 208.226 55.1697C206.811 53.7245 205.018 53.002 202.817 53.002C200.899 53.002 199.138 53.4732 197.566 54.4157C195.994 55.3582 194.767 56.6149 193.918 58.1858C193.038 59.7566 192.629 61.4846 192.629 63.3382C192.629 65.506 193.321 67.2967 194.673 68.7105C196.056 70.1557 197.817 70.8469 199.956 70.8469C202 70.8469 203.823 70.3128 205.459 69.276C207.031 68.2707 208.289 66.8569 209.263 65.0661H204.578V65.0975ZM199.578 57.6831C200.459 57.0548 201.434 56.772 202.503 56.772C203.603 56.772 204.484 57.0548 205.113 57.6203C205.742 58.1858 206.119 59.034 206.213 60.1022H197.503C198.037 59.0969 198.729 58.28 199.578 57.6831Z" fill="#F6DBA8"/>
</g>
<defs>
<clipPath id="clip0_1318_1281">
<rect width="161" height="47" fill="white" transform="translate(69.5547 45.9316)"/>
</clipPath>
</defs>
</svg>
