<svg width="410" height="190" viewBox="0 0 410 190" fill="none" xmlns="http://www.w3.org/2000/svg">
<path d="M90.2285 100.059H109.95C109.851 92.5292 108.855 85.0995 106.962 78.1719C101.583 79.2763 95.906 79.8787 90.2285 79.9791V100.059Z" fill="#F6DBA8"/>
<path d="M73.8935 134.997C72.5987 131.985 71.503 128.873 70.6066 125.66C64.1323 127.166 57.8572 129.375 52.0801 132.287C54.1718 133.993 56.8611 134.997 59.7497 134.997H73.8935Z" fill="#F6DBA8"/>
<path d="M108.157 76.0617C116.524 74.1541 124.492 70.9413 131.763 66.7244V49.6562C120.408 49.6562 109.95 53.3711 101.483 59.6963C104.272 64.9172 106.464 70.3388 108.157 76.0617Z" fill="#F6DBA8"/>
<path d="M88.5352 101.766H68.7139C68.8135 109.396 69.8095 116.725 71.702 123.653C77.0807 122.549 82.7581 121.946 88.4356 121.846V101.766H88.5352Z" fill="#F6DBA8"/>
<path d="M67.0206 101.766H47V122.247C47 125.761 48.3945 128.874 50.5858 131.183C56.6617 128.071 63.2356 125.661 70.0087 124.055C68.2158 116.926 67.1202 109.496 67.0206 101.766Z" fill="#F6DBA8"/>
<path d="M47 49.6562V66.8248C49.7889 68.4312 52.7771 69.9372 55.8648 71.3429C58.1557 72.3469 60.6459 73.2505 63.0364 74.0537C65.2277 74.7565 67.419 75.4593 69.7099 75.9613C70.0087 76.0617 70.3075 76.0617 70.6063 76.1621C72.2996 70.4392 74.4909 64.9172 77.2799 59.6963C68.7139 53.3711 58.3549 49.6562 47 49.6562Z" fill="#F6DBA8"/>
<path d="M67.0206 100.059C67.1202 92.3286 68.1162 84.8989 70.1083 77.7705C69.8095 77.6701 69.6103 77.6701 69.3115 77.5697C67.0206 77.0677 64.7297 76.3648 62.5384 75.662C60.0482 74.8588 57.5581 73.8548 55.1676 72.8508C52.3787 71.646 49.5897 70.2404 47 68.7344V100.059H67.0206Z" fill="#F6DBA8"/>
<path d="M88.5343 100.059V79.9791C82.8568 79.8787 77.2789 79.2763 71.8006 78.1719C69.9082 85.1999 68.9121 92.5292 68.8125 100.16H88.5343V100.059Z" fill="#F6DBA8"/>
<path d="M90.2285 71.3456V78.1729C95.8064 78.0725 101.285 77.5705 106.564 76.4661C104.87 70.944 102.779 65.7232 100.189 60.7031C96.3044 63.8156 93.0175 67.3296 90.2285 71.3456Z" fill="#F6DBA8"/>
<path d="M111.643 100.059H131.664V68.7344C124.492 72.8508 116.723 75.8628 108.556 77.7705C110.548 84.8989 111.544 92.3286 111.643 100.059Z" fill="#F6DBA8"/>
<path d="M90.2285 121.846C96.0056 121.946 101.583 122.549 106.962 123.653C108.855 116.625 109.851 109.296 109.95 101.766H90.2285V121.846Z" fill="#F6DBA8"/>
<path d="M88.5354 123.551C82.9575 123.651 77.4792 124.153 72.2002 125.258C73.1962 128.571 74.3915 131.784 75.6864 134.996H88.5354V123.551Z" fill="#F6DBA8"/>
<path d="M88.5354 78.2733V71.3456C85.7464 67.3296 82.3599 63.8156 78.5749 60.7031C75.9852 65.7232 73.7939 70.944 72.2002 76.4661C77.5789 77.5705 82.9575 78.1729 88.5354 78.2733Z" fill="#F6DBA8"/>
<path d="M131.664 101.766H111.643C111.544 109.496 110.548 116.926 108.556 124.055C115.428 125.661 121.903 128.071 127.979 131.183C130.27 128.874 131.564 125.761 131.564 122.247V101.766H131.664Z" fill="#F6DBA8"/>
<path d="M90.2285 123.551V134.996H103.078C104.372 131.884 105.568 128.571 106.564 125.258C101.185 124.254 95.8064 123.651 90.2285 123.551Z" fill="#F6DBA8"/>
<path d="M126.685 132.388C120.808 129.477 114.632 127.268 108.158 125.762C107.262 128.975 106.166 132.087 104.871 135.099H119.015C121.904 134.999 124.593 133.995 126.685 132.388Z" fill="#F6DBA8"/>
<path d="M155.171 71.1435H149.493V57.8906H155.171C155.967 57.8906 156.665 57.991 157.262 58.1918C158.159 58.493 158.956 59.0954 159.553 59.8986C160.051 60.6014 160.35 61.3042 160.45 62.0071C160.549 62.7099 160.748 63.5131 160.748 64.2159C160.748 66.0231 160.35 67.5291 159.653 68.7339C158.657 70.3403 157.163 71.1435 155.171 71.1435ZM157.163 61.3042C156.764 60.6014 155.868 60.1998 154.673 60.1998H152.083V68.9347H154.673C155.967 68.9347 156.864 68.3323 157.362 67.0271C157.661 66.3243 157.76 65.5211 157.76 64.5171C157.86 63.0111 157.661 62.0071 157.163 61.3042Z" fill="#F6DBA8"/>
<path d="M170.908 68.2328C170.808 68.8352 170.509 69.4376 170.011 70.04C169.214 71.044 168.019 71.4456 166.525 71.4456C165.33 71.4456 164.234 71.044 163.238 70.2408C162.242 69.4376 161.844 68.1324 161.844 66.3252C161.844 64.6183 162.242 63.3131 163.139 62.4095C164.035 61.5059 165.131 61.0039 166.525 61.0039C167.322 61.0039 168.119 61.2047 168.716 61.5059C169.414 61.8071 169.912 62.3091 170.31 62.9115C170.709 63.5139 170.908 64.2167 171.007 64.9195C171.107 65.4215 171.107 66.024 171.107 66.8272H164.433C164.433 67.8312 164.732 68.534 165.33 68.9356C165.728 69.1364 166.127 69.3372 166.625 69.3372C167.123 69.3372 167.621 69.2368 167.92 68.9356C168.119 68.7348 168.218 68.534 168.418 68.2328H170.908ZM168.318 65.2207C168.318 64.5179 168.119 64.0159 167.72 63.7147C167.322 63.3131 166.924 63.2127 166.326 63.2127C165.728 63.2127 165.23 63.4135 164.931 63.8151C164.633 64.2167 164.433 64.7187 164.334 65.3211H168.318V65.2207Z" fill="#F6DBA8"/>
<path d="M180.87 62.4095C181.667 63.2127 182.065 64.5179 182.065 66.1244C182.065 67.8312 181.667 69.1364 180.87 70.04C180.073 70.9436 179.077 71.4456 177.882 71.4456C177.085 71.4456 176.487 71.2448 175.989 70.8432C175.69 70.6424 175.391 70.3412 175.192 69.9396V75.06H172.702V61.3051H175.192V62.7107C175.491 62.3091 175.79 61.9075 176.089 61.7067C176.686 61.3051 177.284 61.0039 178.081 61.0039C179.176 61.1043 180.073 61.5059 180.87 62.4095ZM179.475 66.2248C179.475 65.4215 179.276 64.8191 178.977 64.2167C178.678 63.6143 178.081 63.3131 177.284 63.3131C176.388 63.3131 175.69 63.7147 175.391 64.6183C175.192 65.1203 175.093 65.7228 175.093 66.4256C175.093 67.53 175.391 68.3332 175.989 68.8352C176.388 69.1364 176.786 69.2368 177.284 69.2368C177.981 69.2368 178.579 68.9356 178.878 68.4336C179.276 67.9316 179.475 67.1284 179.475 66.2248Z" fill="#F6DBA8"/>
<path d="M184.256 62.4068C184.953 61.5032 186.049 61.1016 187.742 61.1016C188.838 61.1016 189.734 61.3024 190.631 61.704C191.427 62.1056 191.925 62.9088 191.925 64.1136V68.6316C191.925 68.9328 191.925 69.3344 191.925 69.736C191.925 70.0373 192.025 70.3385 192.125 70.4389C192.224 70.5393 192.324 70.6397 192.523 70.7401V71.1417H189.734C189.634 70.9409 189.634 70.7401 189.535 70.5393C189.535 70.3385 189.435 70.1377 189.435 69.9369C189.037 70.3385 188.638 70.6397 188.24 70.9409C187.642 71.2421 187.045 71.4429 186.348 71.4429C185.451 71.4429 184.754 71.1417 184.156 70.6397C183.559 70.1377 183.26 69.4348 183.26 68.4308C183.26 67.226 183.758 66.3224 184.654 65.8204C185.152 65.5192 185.949 65.3184 186.945 65.218L187.842 65.1176C188.34 65.0172 188.638 65.0172 188.838 64.9168C189.236 64.716 189.336 64.5152 189.336 64.214C189.336 63.8124 189.236 63.5112 188.937 63.4108C188.638 63.21 188.24 63.21 187.742 63.21C187.144 63.21 186.746 63.3104 186.447 63.6116C186.248 63.8124 186.148 64.1136 186.049 64.5152H183.559C183.658 63.6116 183.857 62.9088 184.256 62.4068ZM186.148 69.3344C186.348 69.5352 186.646 69.6356 187.045 69.6356C187.642 69.6356 188.14 69.4348 188.539 69.1336C189.037 68.8324 189.236 68.23 189.236 67.3264V66.3224C189.037 66.4228 188.937 66.5232 188.738 66.5232C188.539 66.6236 188.34 66.6236 188.041 66.724L187.443 66.8244C186.945 66.9248 186.547 67.0252 186.248 67.226C185.849 67.4268 185.65 67.8284 185.65 68.3304C185.849 68.8324 185.949 69.1336 186.148 69.3344Z" fill="#F6DBA8"/>
<path d="M198.997 63.712C198.001 63.712 197.304 64.0132 196.905 64.716C196.706 65.1176 196.606 65.72 196.606 66.4228V71.1417H194.017V61.3024H196.407V63.0092C196.806 62.3064 197.104 61.9048 197.403 61.704C197.901 61.3024 198.499 61.1016 199.296 61.1016H199.395C199.395 61.1016 199.495 61.1016 199.594 61.1016V63.712C199.395 63.712 199.296 63.712 199.196 63.712C199.196 63.712 199.096 63.712 198.997 63.712Z" fill="#F6DBA8"/>
<path d="M205.771 69.3339V71.2415H204.576C203.381 71.2415 202.584 71.0407 202.086 70.6391C201.787 70.3379 201.687 69.9363 201.687 69.2335V63.2094H200.293V61.4022H201.687V58.6914H204.178V61.4022H205.771V63.2094H204.178V68.4303C204.178 68.8319 204.277 69.1331 204.377 69.2335C204.476 69.3339 204.775 69.3339 205.273 69.3339C205.373 69.3339 205.472 69.3339 205.472 69.3339C205.572 69.3339 205.672 69.3339 205.771 69.3339Z" fill="#F6DBA8"/>
<path d="M212.842 64.0159C212.642 63.5139 212.244 63.3131 211.547 63.3131C210.849 63.3131 210.351 63.5139 210.053 64.0159C209.953 64.3171 209.853 64.7187 209.853 65.2207V71.1444H207.363V61.3051H209.853V62.7107C210.152 62.2087 210.451 61.8071 210.75 61.6063C211.248 61.2047 211.846 61.0039 212.642 61.0039C213.34 61.0039 214.037 61.2047 214.435 61.5059C214.834 61.8071 215.132 62.2087 215.232 62.7107C215.531 62.1083 216.029 61.7067 216.527 61.4055C217.025 61.1043 217.623 61.0039 218.32 61.0039C218.718 61.0039 219.216 61.1043 219.615 61.3051C220.013 61.5059 220.412 61.8071 220.71 62.2087C221.009 62.5099 221.208 63.0119 221.308 63.5139C221.408 63.8151 221.408 64.3171 221.408 64.9195V71.1444H218.818V64.9195C218.818 64.5179 218.718 64.2167 218.619 64.0159C218.419 63.5139 218.021 63.3131 217.324 63.3131C216.627 63.3131 216.129 63.6143 215.83 64.2167C215.73 64.5179 215.63 64.9195 215.63 65.3211V71.1444H213.041V65.3211C213.041 64.7187 212.941 64.3171 212.842 64.0159Z" fill="#F6DBA8"/>
<path d="M232.066 68.2328C231.966 68.8352 231.668 69.4376 231.17 70.04C230.373 71.044 229.177 71.4456 227.683 71.4456C226.488 71.4456 225.392 71.044 224.396 70.2408C223.4 69.4376 223.002 68.1324 223.002 66.3252C223.002 64.6183 223.4 63.3131 224.297 62.4095C225.193 61.5059 226.289 61.0039 227.683 61.0039C228.48 61.0039 229.277 61.2047 229.875 61.5059C230.572 61.8071 231.07 62.3091 231.468 62.9115C231.867 63.5139 232.066 64.2167 232.166 64.9195C232.265 65.4215 232.265 66.024 232.265 66.8272H225.592C225.592 67.8312 225.89 68.534 226.488 68.9356C226.887 69.1364 227.285 69.3372 227.783 69.3372C228.281 69.3372 228.779 69.2368 229.078 68.9356C229.277 68.7348 229.377 68.534 229.576 68.2328H232.066ZM229.576 65.2207C229.576 64.5179 229.377 64.0159 228.978 63.7147C228.58 63.3131 228.181 63.2127 227.584 63.2127C226.986 63.2127 226.488 63.4135 226.189 63.8151C225.89 64.2167 225.691 64.7187 225.592 65.3211H229.576V65.2207Z" fill="#F6DBA8"/>
<path d="M238.54 63.2127C237.643 63.2127 237.046 63.6143 236.747 64.3171C236.548 64.7187 236.448 65.2207 236.448 65.8232V71.1444H233.858V61.3051H236.349V62.7107C236.647 62.2087 236.946 61.8071 237.245 61.6063C237.743 61.2047 238.44 61.0039 239.237 61.0039C240.233 61.0039 241.03 61.3051 241.727 61.8071C242.325 62.3091 242.723 63.2127 242.723 64.4175V71.044H240.133V65.0199C240.133 64.5179 240.034 64.1163 239.934 63.8151C239.735 63.5139 239.237 63.2127 238.54 63.2127Z" fill="#F6DBA8"/>
<path d="M249.596 69.3339V71.2415H248.401C247.206 71.2415 246.409 71.0407 245.911 70.6391C245.612 70.3379 245.513 69.9363 245.513 69.2335V63.2094H244.118V61.4022H245.513V58.6914H248.003V61.4022H249.596V63.2094H248.003V68.4303C248.003 68.8319 248.102 69.1331 248.202 69.2335C248.302 69.3339 248.6 69.3339 249.098 69.3339C249.198 69.3339 249.298 69.3339 249.298 69.3339C249.397 69.3339 249.497 69.3339 249.596 69.3339Z" fill="#F6DBA8"/>
<path d="M153.775 76.2645V78.3729C153.676 78.3729 153.377 78.3729 153.078 78.3729C152.779 78.3729 152.48 78.4733 152.381 78.5737C152.281 78.7745 152.181 78.8749 152.181 79.0757V79.8789H153.875V81.6861H152.181V89.6178H149.592V81.6861H148.197V79.8789H149.592V79.2765C149.592 78.2725 149.791 77.4693 150.09 77.0677C150.488 76.4653 151.385 76.1641 152.779 76.1641C152.978 76.1641 153.078 76.1641 153.178 76.1641C153.377 76.2645 153.576 76.2645 153.775 76.2645Z" fill="#F6DBA8"/>
<path d="M163.539 81.083C164.336 82.087 164.734 83.3922 164.734 84.7978C164.734 86.2034 164.336 87.5086 163.539 88.5127C162.742 89.5167 161.447 90.0187 159.754 90.0187C158.06 90.0187 156.865 89.5167 155.969 88.5127C155.172 87.5086 154.773 86.2034 154.773 84.7978C154.773 83.3922 155.172 82.1874 155.969 81.083C156.766 80.079 158.06 79.4766 159.754 79.4766C161.447 79.4766 162.642 80.079 163.539 81.083ZM159.754 81.6854C158.957 81.6854 158.459 81.9866 158.06 82.4886C157.662 82.9906 157.463 83.7938 157.463 84.7978C157.463 85.8018 157.662 86.5046 158.06 87.107C158.459 87.609 159.056 87.9102 159.754 87.9102C160.451 87.9102 161.049 87.609 161.447 87.107C161.845 86.605 162.045 85.8018 162.045 84.7978C162.045 83.7938 161.845 83.091 161.447 82.4886C161.049 81.9866 160.451 81.6854 159.754 81.6854Z" fill="#F6DBA8"/>
<path d="M171.507 82.1886C170.511 82.1886 169.813 82.4898 169.415 83.1926C169.216 83.5942 169.116 84.1966 169.116 84.8994V89.6182H166.526V79.7789H168.917V81.4857C169.315 80.7829 169.614 80.3813 169.913 80.1805C170.411 79.7789 171.009 79.5781 171.805 79.5781H171.905C171.905 79.5781 172.005 79.5781 172.104 79.5781V82.1886C171.905 82.1886 171.805 82.1886 171.706 82.1886C171.706 82.1886 171.606 82.1886 171.507 82.1886Z" fill="#F6DBA8"/>
<path d="M188.239 83.8894H181.864V87.3031H189.135V89.7127H179.075V76.3594H188.737V78.6686H181.765V81.4798H188.139V83.8894H188.239Z" fill="#F6DBA8"/>
<path d="M199.794 89.7143H196.606L194.913 86.8027L193.22 89.7143H190.132L193.419 84.6943L190.231 79.875H193.319L194.913 82.6862L196.507 79.875H199.594L196.407 84.6943L199.794 89.7143Z" fill="#F6DBA8"/>
<path d="M205.77 87.8066V89.7142H204.575C203.38 89.7142 202.583 89.5134 202.085 89.1118C201.786 88.8106 201.686 88.409 201.686 87.7062V81.6821H200.292V79.8749H201.686V77.1641H204.177V79.8749H205.77V81.7825H204.177V87.0034C204.177 87.405 204.276 87.7062 204.376 87.8066C204.475 87.907 204.774 87.907 205.272 87.907C205.372 87.907 205.471 87.907 205.471 87.907C205.571 87.8066 205.671 87.8066 205.77 87.8066Z" fill="#F6DBA8"/>
<path d="M215.73 86.807C215.63 87.4094 215.332 88.0118 214.834 88.6142C214.037 89.6182 212.842 90.0198 211.347 90.0198C210.152 90.0198 209.057 89.6182 208.06 88.815C207.064 88.0118 206.666 86.7066 206.666 84.8994C206.666 83.1926 207.064 81.8873 207.961 80.9837C208.857 80.0801 209.953 79.5781 211.347 79.5781C212.144 79.5781 212.941 79.7789 213.539 80.0801C214.236 80.3813 214.734 80.8833 215.132 81.4857C215.531 82.0882 215.73 82.791 215.83 83.4938C215.929 83.9958 215.929 84.5982 215.929 85.4014H209.256C209.256 86.4054 209.555 87.1082 210.152 87.5098C210.551 87.7106 210.949 87.9114 211.447 87.9114C211.945 87.9114 212.443 87.811 212.742 87.5098C212.941 87.309 213.041 87.1082 213.24 86.807H215.73ZM213.24 83.795C213.24 83.0922 213.041 82.5902 212.642 82.289C212.244 81.8873 211.845 81.7869 211.248 81.7869C210.65 81.7869 210.152 81.9877 209.853 82.3894C209.555 82.791 209.355 83.293 209.256 83.8954H213.24V83.795Z" fill="#F6DBA8"/>
<path d="M222.504 82.1886C221.508 82.1886 220.81 82.4898 220.412 83.1926C220.213 83.5942 220.113 84.1966 220.113 84.8994V89.6182H217.523V79.7789H219.914V81.4857C220.312 80.7829 220.611 80.3813 220.91 80.1805C221.408 79.7789 222.006 79.5781 222.802 79.5781H222.902C222.902 79.5781 223.002 79.5781 223.101 79.5781V82.1886C222.902 82.1886 222.802 82.1886 222.703 82.1886C222.703 82.1886 222.603 82.1886 222.504 82.1886Z" fill="#F6DBA8"/>
<path d="M229.277 81.6854C228.381 81.6854 227.783 82.087 227.484 82.7898C227.285 83.1914 227.185 83.6934 227.185 84.2958V89.6171H224.596V79.7778H227.086V81.1834C227.385 80.6814 227.683 80.2798 227.982 80.079C228.48 79.6774 229.178 79.4766 229.974 79.4766C230.97 79.4766 231.767 79.7778 232.464 80.2798C233.062 80.7818 233.461 81.6854 233.461 82.8902V89.5167H230.871V83.4926C230.871 82.9906 230.771 82.589 230.672 82.2878C230.472 81.9866 230.074 81.6854 229.277 81.6854Z" fill="#F6DBA8"/>
<path d="M236.349 80.8833C237.046 79.9797 238.141 79.5781 239.835 79.5781C240.93 79.5781 241.827 79.7789 242.723 80.1805C243.62 80.5821 244.018 81.3853 244.018 82.5902V87.1082C244.018 87.4094 244.018 87.811 244.018 88.2126C244.018 88.5138 244.118 88.815 244.217 88.9154C244.317 89.0158 244.417 89.1162 244.616 89.2166V89.6182H241.827C241.727 89.4174 241.727 89.2166 241.628 89.0158C241.628 88.815 241.528 88.6142 241.528 88.4134C241.13 88.815 240.731 89.1162 240.333 89.4174C239.735 89.7186 239.138 89.9194 238.44 89.9194C237.544 89.9194 236.847 89.6182 236.249 89.1162C235.651 88.6142 235.353 87.9114 235.353 86.9074C235.353 85.7026 235.851 84.799 236.747 84.297C237.245 83.9958 238.042 83.795 238.938 83.6946L239.835 83.5942C240.333 83.4938 240.632 83.4938 240.831 83.3934C241.229 83.1926 241.329 82.9918 241.329 82.6906C241.329 82.289 241.229 81.9877 240.93 81.8873C240.632 81.6865 240.233 81.6865 239.735 81.6865C239.138 81.6865 238.739 81.7869 238.44 82.0881C238.241 82.289 238.141 82.5902 238.042 82.9918H235.552C235.651 82.1886 235.851 81.4857 236.349 80.8833ZM238.241 87.811C238.44 88.0118 238.739 88.1122 239.138 88.1122C239.735 88.1122 240.233 87.9114 240.632 87.6102C241.13 87.309 241.329 86.7066 241.329 85.803V84.799C241.13 84.8994 241.03 84.9998 240.831 84.9998C240.632 85.1002 240.432 85.1002 240.134 85.2006L239.536 85.301C239.038 85.4014 238.64 85.5018 238.341 85.7026C237.942 85.9034 237.743 86.305 237.743 86.807C237.843 87.309 237.942 87.6102 238.241 87.811Z" fill="#F6DBA8"/>
<path d="M246.21 76.3594H248.8V89.7127H246.21V76.3594Z" fill="#F6DBA8"/>
<path d="M265.733 83.8894H259.358V87.3031H266.629V89.7127H256.569V76.3594H266.231V78.6686H259.259V81.4798H265.633V83.8894H265.733Z" fill="#F6DBA8"/>
<path d="M276.988 83.3934H274.398C274.398 82.9918 274.199 82.6906 274 82.3894C273.701 81.9877 273.303 81.7869 272.705 81.7869C271.808 81.7869 271.211 82.1886 270.912 83.0922C270.713 83.5942 270.613 84.1966 270.613 84.8994C270.613 85.6022 270.713 86.2046 270.912 86.6062C271.211 87.4094 271.808 87.811 272.605 87.811C273.203 87.811 273.601 87.6102 273.9 87.309C274.199 87.0078 274.299 86.6062 274.398 86.0038H276.988C276.888 86.807 276.689 87.5098 276.191 88.2126C275.394 89.317 274.199 89.9194 272.605 89.9194C271.012 89.9194 269.916 89.4174 269.119 88.5138C268.422 87.6102 268.023 86.305 268.023 84.8994C268.023 83.1926 268.422 81.8873 269.219 80.9837C270.016 80.0801 271.211 79.5781 272.605 79.5781C273.801 79.5781 274.797 79.8793 275.593 80.3813C276.39 80.9837 276.888 81.9877 276.988 83.3934Z" fill="#F6DBA8"/>
<path d="M286.948 81.083C287.745 82.087 288.143 83.3922 288.143 84.7978C288.143 86.2034 287.745 87.5086 286.948 88.5127C286.151 89.5167 284.856 90.0187 283.163 90.0187C281.47 90.0187 280.274 89.5167 279.378 88.5127C278.581 87.5086 278.183 86.2034 278.183 84.7978C278.183 83.3922 278.581 82.1874 279.378 81.083C280.175 80.079 281.47 79.4766 283.163 79.4766C284.856 79.4766 286.151 80.079 286.948 81.083ZM283.163 81.6854C282.366 81.6854 281.868 81.9866 281.47 82.4886C281.071 82.9906 280.872 83.7938 280.872 84.7978C280.872 85.8018 281.071 86.5046 281.47 87.107C281.868 87.609 282.466 87.9102 283.163 87.9102C283.86 87.9102 284.458 87.609 284.856 87.107C285.255 86.605 285.454 85.8018 285.454 84.7978C285.454 83.7938 285.255 83.091 284.856 82.4886C284.458 81.9866 283.96 81.6854 283.163 81.6854Z" fill="#F6DBA8"/>
<path d="M294.617 81.6854C293.721 81.6854 293.123 82.087 292.824 82.7898C292.625 83.1914 292.525 83.6934 292.525 84.2958V89.6171H290.035V79.7778H292.525V81.1834C292.824 80.6814 293.123 80.2798 293.422 80.079C293.92 79.6774 294.617 79.4766 295.414 79.4766C296.41 79.4766 297.207 79.7778 297.904 80.2798C298.502 80.7818 298.9 81.6854 298.9 82.8902V89.5167H296.31V83.4926C296.31 82.9906 296.211 82.589 296.111 82.2878C295.812 81.9866 295.314 81.6854 294.617 81.6854Z" fill="#F6DBA8"/>
<path d="M309.357 81.083C310.154 82.087 310.552 83.3922 310.552 84.7978C310.552 86.2034 310.154 87.5086 309.357 88.5127C308.56 89.5167 307.265 90.0187 305.572 90.0187C303.879 90.0187 302.683 89.5167 301.787 88.5127C300.99 87.5086 300.592 86.2034 300.592 84.7978C300.592 83.3922 300.99 82.1874 301.787 81.083C302.584 80.079 303.879 79.4766 305.572 79.4766C307.265 79.4766 308.56 80.079 309.357 81.083ZM305.572 81.6854C304.775 81.6854 304.277 81.9866 303.879 82.4886C303.48 82.9906 303.281 83.7938 303.281 84.7978C303.281 85.8018 303.48 86.5046 303.879 87.107C304.277 87.609 304.875 87.9102 305.572 87.9102C306.269 87.9102 306.867 87.609 307.265 87.107C307.664 86.605 307.863 85.8018 307.863 84.7978C307.863 83.7938 307.664 83.091 307.265 82.4886C306.867 81.9866 306.369 81.6854 305.572 81.6854Z" fill="#F6DBA8"/>
<path d="M317.924 82.4886C317.724 81.9866 317.326 81.7858 316.629 81.7858C315.932 81.7858 315.433 81.9866 315.135 82.4886C315.035 82.7898 314.935 83.1914 314.935 83.6934V89.6171H312.346V79.7778H314.836V81.1834C315.135 80.6814 315.433 80.2798 315.732 80.079C316.23 79.6774 316.828 79.4766 317.625 79.4766C318.322 79.4766 319.019 79.6774 319.418 79.9786C319.816 80.2798 320.115 80.6814 320.214 81.1834C320.513 80.581 321.011 80.1794 321.509 79.8782C322.007 79.577 322.605 79.4766 323.302 79.4766C323.701 79.4766 324.199 79.577 324.597 79.7778C324.996 79.9786 325.394 80.2798 325.693 80.6814C325.992 80.9826 326.191 81.4846 326.29 81.9866C326.39 82.2878 326.39 82.7898 326.39 83.3922V89.6171H323.8V83.3922C323.8 82.9906 323.701 82.6894 323.601 82.4886C323.402 81.9866 323.003 81.7858 322.306 81.7858C321.609 81.7858 321.111 82.087 320.812 82.6894C320.713 82.9906 320.613 83.3922 320.613 83.7938V89.6171H318.023V83.7938C318.123 83.1914 318.023 82.7898 317.924 82.4886Z" fill="#F6DBA8"/>
<path d="M331.373 76.2656V78.6752H328.783V76.2656H331.373ZM331.373 79.7797V89.619H328.783V79.7797H331.373Z" fill="#F6DBA8"/>
<path d="M342.33 83.3934H339.74C339.74 82.9918 339.541 82.6906 339.342 82.3894C339.043 81.9877 338.644 81.7869 338.047 81.7869C337.15 81.7869 336.553 82.1886 336.254 83.0922C336.055 83.5942 335.955 84.1966 335.955 84.8994C335.955 85.6022 336.055 86.2046 336.254 86.6062C336.553 87.4094 337.15 87.811 337.947 87.811C338.545 87.811 338.943 87.6102 339.242 87.309C339.541 87.0078 339.64 86.6062 339.74 86.0038H342.33C342.23 86.807 342.031 87.5098 341.533 88.2126C340.736 89.317 339.541 89.9194 337.947 89.9194C336.353 89.9194 335.258 89.4174 334.461 88.5138C333.764 87.6102 333.365 86.305 333.365 84.8994C333.365 83.1926 333.764 81.8873 334.561 80.9837C335.357 80.0801 336.553 79.5781 337.947 79.5781C339.142 79.5781 340.138 79.8793 340.935 80.3813C341.732 80.9837 342.13 81.9877 342.33 83.3934Z" fill="#F6DBA8"/>
<path d="M149.593 99.3521C150.29 98.4485 151.386 98.0469 153.079 98.0469C154.175 98.0469 155.071 98.2477 155.967 98.6493C156.764 99.0509 157.262 99.8541 157.262 101.059V105.577C157.262 105.878 157.262 106.28 157.262 106.681C157.262 106.983 157.362 107.284 157.462 107.384C157.561 107.485 157.661 107.585 157.86 107.685V108.087H155.071C154.971 107.886 154.971 107.685 154.872 107.485C154.872 107.284 154.772 107.083 154.772 106.882C154.374 107.284 153.975 107.585 153.577 107.886C152.979 108.187 152.382 108.388 151.684 108.388C150.788 108.388 150.091 108.087 149.493 107.585C148.895 107.083 148.597 106.38 148.597 105.376C148.597 104.171 149.095 103.268 149.991 102.766C150.489 102.465 151.286 102.264 152.282 102.163L153.179 102.063C153.677 101.963 153.975 101.963 154.175 101.862C154.573 101.661 154.673 101.461 154.673 101.159C154.673 100.758 154.573 100.456 154.274 100.356C153.975 100.155 153.577 100.155 153.079 100.155C152.481 100.155 152.083 100.256 151.784 100.557C151.585 100.758 151.485 101.059 151.386 101.461H148.895C148.995 100.657 149.194 99.9545 149.593 99.3521ZM151.485 106.28C151.684 106.481 151.983 106.581 152.382 106.581C152.979 106.581 153.477 106.38 153.876 106.079C154.374 105.778 154.573 105.175 154.573 104.272V103.268C154.374 103.368 154.274 103.469 154.075 103.469C153.876 103.569 153.677 103.569 153.378 103.669L152.78 103.77C152.282 103.87 151.884 103.971 151.585 104.171C151.186 104.372 150.987 104.774 150.987 105.276C151.186 105.778 151.286 106.079 151.485 106.28Z" fill="#F6DBA8"/>
<path d="M164.036 100.256C163.139 100.256 162.542 100.657 162.243 101.36C162.044 101.762 161.944 102.264 161.944 102.866V108.187H159.354V98.3481H161.845V99.7537C162.143 99.2517 162.442 98.8501 162.741 98.6493C163.239 98.2477 163.936 98.0469 164.733 98.0469C165.729 98.0469 166.526 98.3481 167.223 98.8501C167.821 99.3521 168.219 100.256 168.219 101.461V108.087H165.63V102.063C165.63 101.561 165.53 101.159 165.43 100.858C165.231 100.456 164.733 100.256 164.036 100.256Z" fill="#F6DBA8"/>
<path d="M179.575 94.8359V108.089H177.085V106.683C176.686 107.286 176.288 107.687 175.79 107.988C175.292 108.29 174.794 108.39 174.096 108.39C173.001 108.39 172.005 107.888 171.208 106.984C170.411 106.081 170.013 104.876 170.013 103.37C170.013 101.663 170.411 100.358 171.208 99.354C172.005 98.35 173.001 97.9484 174.296 97.9484C174.893 97.9484 175.391 98.0488 175.889 98.35C176.387 98.6512 176.686 98.9524 176.985 99.4544V94.8359H179.575ZM172.702 103.27C172.702 104.173 172.901 104.876 173.2 105.478C173.598 105.98 174.096 106.282 174.794 106.282C175.491 106.282 176.089 105.98 176.487 105.478C176.885 104.976 177.085 104.274 177.085 103.37C177.085 102.165 176.786 101.262 176.188 100.76C175.79 100.458 175.391 100.258 174.893 100.258C174.096 100.258 173.598 100.559 173.2 101.161C172.802 101.764 172.702 102.466 172.702 103.27Z" fill="#F6DBA8"/>
<path d="M186.944 94.8359H189.733V108.189H186.944V94.8359Z" fill="#F6DBA8"/>
<path d="M196.706 100.256C195.809 100.256 195.212 100.657 194.913 101.36C194.714 101.762 194.614 102.264 194.614 102.866V108.187H192.024V98.3481H194.515V99.7537C194.813 99.2517 195.112 98.8501 195.411 98.6493C195.909 98.2477 196.606 98.0469 197.403 98.0469C198.399 98.0469 199.196 98.3481 199.893 98.8501C200.491 99.3521 200.889 100.256 200.889 101.461V108.087H198.299V102.063C198.299 101.561 198.2 101.159 198.1 100.858C197.901 100.456 197.403 100.256 196.706 100.256Z" fill="#F6DBA8"/>
<path d="M207.762 106.385V108.292H206.567C205.372 108.292 204.575 108.092 204.077 107.69C203.778 107.389 203.679 106.987 203.679 106.284V100.26H202.284V98.453H203.679V95.7422H206.169V98.453H207.762V100.26H206.169V105.481C206.169 105.883 206.268 106.184 206.368 106.284C206.468 106.385 206.766 106.385 207.264 106.385C207.364 106.385 207.464 106.385 207.464 106.385C207.563 106.385 207.663 106.385 207.762 106.385Z" fill="#F6DBA8"/>
<path d="M217.722 105.276C217.623 105.878 217.324 106.481 216.826 107.083C216.029 108.087 214.834 108.489 213.34 108.489C212.144 108.489 211.049 108.087 210.053 107.284C209.057 106.481 208.658 105.175 208.658 103.368C208.658 101.661 209.057 100.356 209.953 99.4525C210.85 98.5489 211.945 98.0469 213.34 98.0469C214.136 98.0469 214.933 98.2477 215.531 98.5489C216.228 98.8501 216.726 99.3521 217.125 99.9545C217.523 100.557 217.722 101.26 217.822 101.963C217.921 102.465 217.921 103.067 217.921 103.87H211.248C211.248 104.874 211.547 105.577 212.144 105.979C212.543 106.179 212.941 106.38 213.439 106.38C213.937 106.38 214.435 106.28 214.734 105.979C214.933 105.778 215.033 105.577 215.232 105.276H217.722ZM215.232 102.264C215.232 101.561 215.033 101.059 214.634 100.758C214.236 100.356 213.838 100.256 213.24 100.256C212.642 100.256 212.144 100.456 211.846 100.858C211.547 101.26 211.348 101.762 211.248 102.364H215.232V102.264Z" fill="#F6DBA8"/>
<path d="M224.496 100.657C223.5 100.657 222.803 100.959 222.404 101.661C222.205 102.063 222.105 102.665 222.105 103.368V108.087H219.516V98.2477H221.906V99.9545C222.305 99.2517 222.603 98.8501 222.902 98.6493C223.4 98.2477 223.998 98.0469 224.795 98.0469H224.894C224.894 98.0469 224.994 98.0469 225.094 98.0469V100.657C224.894 100.657 224.795 100.657 224.695 100.657C224.695 100.657 224.595 100.657 224.496 100.657Z" fill="#F6DBA8"/>
<path d="M231.369 100.256C230.472 100.256 229.875 100.657 229.576 101.36C229.377 101.762 229.277 102.264 229.277 102.866V108.187H226.688V98.3481H229.178V99.7537C229.476 99.2517 229.775 98.8501 230.074 98.6493C230.572 98.2477 231.269 98.0469 232.066 98.0469C233.062 98.0469 233.859 98.3481 234.556 98.8501C235.154 99.3521 235.552 100.256 235.552 101.461V108.087H232.963V102.063C232.963 101.561 232.863 101.159 232.763 100.858C232.564 100.456 232.066 100.256 231.369 100.256Z" fill="#F6DBA8"/>
<path d="M238.34 99.3521C239.037 98.4485 240.133 98.0469 241.826 98.0469C242.922 98.0469 243.818 98.2477 244.715 98.6493C245.511 99.0509 246.009 99.8541 246.009 101.059V105.577C246.009 105.878 246.009 106.28 246.009 106.681C246.009 106.983 246.109 107.284 246.209 107.384C246.308 107.485 246.408 107.585 246.607 107.685V108.087H243.818C243.718 107.886 243.718 107.685 243.619 107.485C243.619 107.284 243.519 107.083 243.519 106.882C243.121 107.284 242.722 107.585 242.324 107.886C241.726 108.187 241.129 108.388 240.431 108.388C239.535 108.388 238.838 108.087 238.24 107.585C237.643 107.083 237.344 106.38 237.344 105.376C237.344 104.171 237.842 103.268 238.738 102.766C239.236 102.465 240.033 102.264 241.029 102.163L241.926 102.063C242.424 101.963 242.722 101.963 242.922 101.862C243.32 101.661 243.42 101.461 243.42 101.159C243.42 100.758 243.32 100.456 243.021 100.356C242.722 100.155 242.324 100.155 241.826 100.155C241.228 100.155 240.83 100.256 240.531 100.557C240.332 100.758 240.232 101.059 240.133 101.461H237.643C237.643 100.657 237.941 99.9545 238.34 99.3521ZM240.232 106.28C240.431 106.481 240.73 106.581 241.129 106.581C241.726 106.581 242.224 106.38 242.623 106.079C243.121 105.778 243.32 105.175 243.32 104.272V103.268C243.121 103.368 243.021 103.469 242.822 103.469C242.623 103.569 242.424 103.569 242.125 103.669L241.527 103.77C241.029 103.87 240.631 103.971 240.332 104.171C239.933 104.372 239.734 104.774 239.734 105.276C239.834 105.778 239.933 106.079 240.232 106.28Z" fill="#F6DBA8"/>
<path d="M252.684 106.385V108.292H251.489C250.294 108.292 249.497 108.092 248.999 107.69C248.7 107.389 248.601 106.987 248.601 106.284V100.26H247.206V98.453H248.601V95.7422H251.091V98.453H252.684V100.26H251.091V105.481C251.091 105.883 251.19 106.184 251.29 106.284C251.389 106.385 251.688 106.385 252.186 106.385C252.286 106.385 252.385 106.385 252.385 106.385C252.485 106.385 252.585 106.385 252.684 106.385Z" fill="#F6DBA8"/>
<path d="M256.867 94.7344V97.144H254.277V94.7344H256.867ZM256.867 98.3488V108.188H254.277V98.3488H256.867Z" fill="#F6DBA8"/>
<path d="M267.525 99.5556C268.322 100.56 268.72 101.865 268.72 103.27C268.72 104.676 268.322 105.981 267.525 106.985C266.728 107.989 265.433 108.491 263.74 108.491C262.047 108.491 260.851 107.989 259.955 106.985C259.158 105.981 258.76 104.676 258.76 103.27C258.76 101.865 259.158 100.66 259.955 99.5556C260.752 98.5516 262.047 97.9492 263.74 97.9492C265.433 98.0496 266.728 98.5516 267.525 99.5556ZM263.74 100.158C262.943 100.158 262.445 100.459 262.047 100.961C261.648 101.463 261.449 102.266 261.449 103.27C261.449 104.274 261.648 104.977 262.047 105.58C262.445 106.082 263.043 106.383 263.74 106.383C264.437 106.383 265.035 106.082 265.433 105.58C265.832 105.078 266.031 104.274 266.031 103.27C266.031 102.266 265.832 101.564 265.433 100.961C265.035 100.459 264.537 100.158 263.74 100.158Z" fill="#F6DBA8"/>
<path d="M275.195 100.256C274.299 100.256 273.701 100.657 273.402 101.36C273.203 101.762 273.103 102.264 273.103 102.866V108.187H270.514V98.3481H273.004V99.7537C273.303 99.2517 273.601 98.8501 273.9 98.6493C274.398 98.2477 275.096 98.0469 275.892 98.0469C276.888 98.0469 277.685 98.3481 278.382 98.8501C278.98 99.3521 279.379 100.256 279.379 101.461V108.087H276.789V102.063C276.789 101.561 276.689 101.159 276.59 100.858C276.39 100.456 275.892 100.256 275.195 100.256Z" fill="#F6DBA8"/>
<path d="M282.167 99.3521C282.864 98.4485 283.96 98.0469 285.653 98.0469C286.749 98.0469 287.645 98.2477 288.542 98.6493C289.338 99.0509 289.837 99.8541 289.837 101.059V105.577C289.837 105.878 289.837 106.28 289.837 106.681C289.837 106.983 289.936 107.284 290.036 107.384C290.135 107.485 290.235 107.585 290.434 107.685V108.087H287.645C287.546 107.886 287.546 107.685 287.446 107.485C287.446 107.284 287.346 107.083 287.346 106.882C286.948 107.284 286.55 107.585 286.151 107.886C285.554 108.187 284.956 108.388 284.259 108.388C283.362 108.388 282.665 108.087 282.067 107.585C281.47 107.083 281.171 106.38 281.171 105.376C281.171 104.171 281.669 103.268 282.565 102.766C283.063 102.465 283.86 102.264 284.757 102.163L285.653 102.063C286.151 101.963 286.45 101.963 286.649 101.862C287.048 101.661 287.147 101.461 287.147 101.159C287.147 100.758 287.048 100.456 286.749 100.356C286.45 100.155 286.052 100.155 285.554 100.155C284.956 100.155 284.557 100.256 284.259 100.557C284.059 100.758 283.96 101.059 283.86 101.461H281.37C281.47 100.657 281.769 99.9545 282.167 99.3521ZM284.059 106.28C284.259 106.481 284.557 106.581 284.956 106.581C285.554 106.581 286.052 106.38 286.45 106.079C286.948 105.778 287.147 105.175 287.147 104.272V103.268C286.948 103.368 286.848 103.469 286.649 103.469C286.45 103.569 286.251 103.569 285.952 103.669L285.354 103.77C284.856 103.87 284.458 103.971 284.159 104.171C283.761 104.372 283.561 104.774 283.561 105.276C283.661 105.778 283.86 106.079 284.059 106.28Z" fill="#F6DBA8"/>
<path d="M292.029 94.8359H294.619V108.189H292.029V94.8359Z" fill="#F6DBA8"/>
<path d="M308.064 102.968H305.176V108.189H302.486V94.8359H308.961C309.857 94.8359 310.554 94.9363 311.052 95.1371C311.55 95.3379 311.949 95.6391 312.347 96.0407C312.646 96.342 312.845 96.7436 313.044 97.1452C313.244 97.5468 313.343 98.0488 313.343 98.5508C313.343 99.1532 313.144 99.7556 312.845 100.458C312.546 101.061 312.048 101.462 311.252 101.764C311.849 101.964 312.248 102.366 312.546 102.768C312.845 103.27 312.945 103.872 312.945 104.876V105.88C312.945 106.482 312.945 106.884 313.044 107.085C313.144 107.386 313.244 107.687 313.542 107.888V108.189H310.455C310.355 107.888 310.355 107.687 310.255 107.486C310.156 107.085 310.156 106.683 310.156 106.382V105.177C310.156 104.374 309.957 103.772 309.658 103.47C309.359 103.069 308.861 102.968 308.064 102.968ZM309.658 100.559C310.256 100.258 310.455 99.856 310.455 99.0528C310.455 98.2496 310.156 97.7476 309.658 97.4464C309.359 97.2456 308.861 97.2456 308.363 97.2456H305.176V100.86H308.263C308.961 100.76 309.359 100.659 309.658 100.559Z" fill="#F6DBA8"/>
<path d="M323.8 105.276C323.701 105.878 323.402 106.481 322.904 107.083C322.107 108.087 320.912 108.489 319.418 108.489C318.223 108.489 317.127 108.087 316.131 107.284C315.135 106.481 314.736 105.175 314.736 103.368C314.736 101.661 315.135 100.356 316.031 99.4525C316.928 98.5489 318.023 98.0469 319.418 98.0469C320.215 98.0469 321.011 98.2477 321.609 98.5489C322.306 98.8501 322.804 99.3521 323.203 99.9545C323.601 100.557 323.8 101.26 323.9 101.963C324 102.465 324 103.067 324 103.87H317.326C317.326 104.874 317.625 105.577 318.223 105.979C318.621 106.179 319.019 106.38 319.517 106.38C320.015 106.38 320.513 106.28 320.812 105.979C321.011 105.778 321.111 105.577 321.31 105.276H323.8ZM321.31 102.264C321.31 101.561 321.111 101.059 320.713 100.758C320.314 100.356 319.916 100.256 319.318 100.256C318.721 100.256 318.223 100.456 317.924 100.858C317.625 101.26 317.426 101.762 317.326 102.364H321.31V102.264Z" fill="#F6DBA8"/>
<path d="M325.693 94.8359H328.283V108.189H325.693V94.8359Z" fill="#F6DBA8"/>
<path d="M331.174 99.3521C331.871 98.4485 332.967 98.0469 334.66 98.0469C335.756 98.0469 336.652 98.2477 337.548 98.6493C338.345 99.0509 338.843 99.8541 338.843 101.059V105.577C338.843 105.878 338.843 106.28 338.843 106.681C338.843 106.983 338.943 107.284 339.043 107.384C339.142 107.485 339.242 107.585 339.441 107.685V108.087H336.652C336.552 107.886 336.552 107.685 336.453 107.485C336.453 107.284 336.353 107.083 336.353 106.882C335.955 107.284 335.556 107.585 335.158 107.886C334.56 108.187 333.963 108.388 333.265 108.388C332.369 108.388 331.672 108.087 331.074 107.585C330.477 107.083 330.178 106.38 330.178 105.376C330.178 104.171 330.676 103.268 331.572 102.766C332.07 102.465 332.867 102.264 333.863 102.163L334.76 102.063C335.258 101.963 335.556 101.963 335.756 101.862C336.154 101.661 336.254 101.461 336.254 101.159C336.254 100.758 336.154 100.456 335.855 100.356C335.556 100.155 335.158 100.155 334.66 100.155C334.062 100.155 333.664 100.256 333.365 100.557C333.166 100.758 333.066 101.059 332.967 101.461H330.477C330.477 100.657 330.676 99.9545 331.174 99.3521ZM333.066 106.28C333.266 106.481 333.564 106.581 333.963 106.581C334.56 106.581 335.058 106.38 335.457 106.079C335.955 105.778 336.154 105.175 336.154 104.272V103.268C335.955 103.368 335.855 103.469 335.656 103.469C335.457 103.569 335.258 103.569 334.959 103.669L334.361 103.77C333.863 103.87 333.465 103.971 333.166 104.171C332.767 104.372 332.568 104.774 332.568 105.276C332.668 105.778 332.767 106.079 333.066 106.28Z" fill="#F6DBA8"/>
<path d="M345.414 106.385V108.292H344.219C343.023 108.292 342.226 108.092 341.728 107.69C341.43 107.389 341.33 106.987 341.33 106.284V100.26H339.936V98.453H341.33V95.7422H343.82V98.453H345.414V100.26H343.82V105.481C343.82 105.883 343.92 106.184 344.019 106.284C344.119 106.385 344.418 106.385 344.916 106.385C345.015 106.385 345.115 106.385 345.115 106.385C345.314 106.385 345.414 106.385 345.414 106.385Z" fill="#F6DBA8"/>
<path d="M349.697 94.7344V97.144H347.107V94.7344H349.697ZM349.697 98.3488V108.188H347.107V98.3488H349.697Z" fill="#F6DBA8"/>
<path d="M360.357 99.5556C361.154 100.56 361.552 101.865 361.552 103.27C361.552 104.676 361.154 105.981 360.357 106.985C359.56 107.989 358.265 108.491 356.572 108.491C354.879 108.491 353.684 107.989 352.787 106.985C351.99 105.981 351.592 104.676 351.592 103.27C351.592 101.865 351.99 100.66 352.787 99.5556C353.584 98.5516 354.879 97.9492 356.572 97.9492C358.265 98.0496 359.56 98.5516 360.357 99.5556ZM356.572 100.158C355.775 100.158 355.277 100.459 354.879 100.961C354.48 101.463 354.281 102.266 354.281 103.27C354.281 104.274 354.48 104.977 354.879 105.58C355.277 106.082 355.875 106.383 356.572 106.383C357.269 106.383 357.867 106.082 358.265 105.58C358.664 105.078 358.863 104.274 358.863 103.27C358.863 102.266 358.664 101.564 358.265 100.961C357.867 100.459 357.369 100.158 356.572 100.158Z" fill="#F6DBA8"/>
<path d="M368.027 100.256C367.131 100.256 366.533 100.657 366.234 101.36C366.035 101.762 365.935 102.264 365.935 102.866V108.187H363.346V98.3481H365.836V99.7537C366.135 99.2517 366.433 98.8501 366.732 98.6493C367.23 98.2477 367.928 98.0469 368.724 98.0469C369.72 98.0469 370.517 98.3481 371.215 98.8501C371.812 99.3521 372.211 100.256 372.211 101.461V108.087H369.621V102.063C369.621 101.561 369.521 101.159 369.422 100.858C369.222 100.456 368.724 100.256 368.027 100.256Z" fill="#F6DBA8"/>
<path d="M381.373 98.7513C382.17 99.2533 382.568 100.056 382.668 101.261H380.078C380.078 100.96 379.978 100.659 379.779 100.458C379.48 100.157 378.982 99.9561 378.385 99.9561C377.787 99.9561 377.389 100.056 377.189 100.257C376.99 100.458 376.791 100.659 376.791 100.86C376.791 101.161 376.891 101.362 377.189 101.462C377.488 101.562 378.285 101.864 379.879 102.165C380.875 102.366 381.672 102.767 382.17 103.269C382.668 103.771 382.966 104.374 382.966 105.077C382.966 106.081 382.568 106.884 381.871 107.486C381.174 108.089 380.078 108.39 378.484 108.39C376.99 108.39 375.795 108.089 375.098 107.386C374.4 106.683 374.002 105.88 374.002 104.876H376.592C376.691 105.378 376.791 105.679 376.99 105.88C377.289 106.181 377.887 106.382 378.783 106.382C379.281 106.382 379.679 106.281 379.978 106.181C380.277 105.98 380.377 105.779 380.377 105.478C380.377 105.177 380.277 104.976 379.978 104.775C379.779 104.675 378.883 104.374 377.289 103.972C376.193 103.671 375.396 103.37 374.998 102.968C374.5 102.567 374.301 101.964 374.301 101.161C374.301 100.257 374.699 99.4541 375.396 98.8517C376.094 98.1489 377.09 97.8477 378.385 97.8477C379.58 98.0485 380.576 98.2493 381.373 98.7513Z" fill="#F6DBA8"/>
<path d="M157.362 118.028C158.159 119.032 158.557 120.338 158.557 121.743C158.557 123.149 158.159 124.454 157.362 125.458C156.565 126.462 155.27 126.964 153.577 126.964C151.884 126.964 150.688 126.462 149.792 125.458C148.995 124.454 148.597 123.149 148.597 121.743C148.597 120.338 148.995 119.133 149.792 118.028C150.589 117.024 151.884 116.422 153.577 116.422C155.27 116.522 156.565 117.024 157.362 118.028ZM153.677 118.731C152.88 118.731 152.382 119.032 151.983 119.534C151.585 120.036 151.386 120.84 151.386 121.844C151.386 122.848 151.585 123.55 151.983 124.153C152.382 124.655 152.979 124.956 153.677 124.956C154.374 124.956 154.971 124.655 155.37 124.153C155.768 123.651 155.967 122.848 155.967 121.844C155.967 120.84 155.768 120.137 155.37 119.534C154.971 118.932 154.374 118.731 153.677 118.731Z" fill="#F6DBA8"/>
<path d="M165.032 113.311V115.42C164.932 115.42 164.634 115.42 164.335 115.42C164.036 115.42 163.737 115.52 163.638 115.621C163.538 115.821 163.438 115.922 163.438 116.123V116.926H165.132V118.733H163.438V126.665H160.849V118.733H159.454V116.926H160.849V116.323C160.849 115.319 161.048 114.516 161.347 114.115C161.745 113.512 162.641 113.211 164.036 113.211C164.235 113.211 164.335 113.211 164.434 113.211C164.634 113.211 164.833 113.211 165.032 113.311Z" fill="#F6DBA8"/>
<path d="M174.394 126.662H171.805V113.309H175.789L178.179 123.75L180.57 113.309H184.554V126.662H181.964V117.626C181.964 117.325 181.964 117.023 181.964 116.521C181.964 116.019 181.964 115.718 181.964 115.417L179.474 126.562H176.785L174.295 115.417C174.295 115.718 174.295 116.019 174.295 116.521C174.295 117.023 174.295 117.325 174.295 117.626V126.662H174.394Z" fill="#F6DBA8"/>
<path d="M195.113 118.028C195.91 119.032 196.308 120.338 196.308 121.743C196.308 123.149 195.91 124.454 195.113 125.458C194.316 126.462 193.021 126.964 191.328 126.964C189.635 126.964 188.439 126.462 187.543 125.458C186.746 124.454 186.348 123.149 186.348 121.743C186.348 120.338 186.746 119.133 187.543 118.028C188.34 117.024 189.635 116.422 191.328 116.422C193.021 116.522 194.316 117.024 195.113 118.028ZM191.328 118.731C190.531 118.731 190.033 119.032 189.635 119.534C189.236 120.036 189.037 120.84 189.037 121.844C189.037 122.848 189.236 123.55 189.635 124.153C190.033 124.655 190.631 124.956 191.328 124.956C192.025 124.956 192.623 124.655 193.021 124.153C193.42 123.651 193.619 122.848 193.619 121.844C193.619 120.84 193.42 120.137 193.021 119.534C192.623 118.932 192.125 118.731 191.328 118.731Z" fill="#F6DBA8"/>
<path d="M204.874 117.325C205.67 117.827 206.069 118.631 206.169 119.836H203.579C203.579 119.534 203.479 119.233 203.28 119.032C202.981 118.731 202.483 118.53 201.886 118.53C201.288 118.53 200.889 118.631 200.69 118.831C200.491 119.032 200.292 119.233 200.292 119.434C200.292 119.735 200.391 119.936 200.69 120.036C200.989 120.137 201.786 120.438 203.38 120.739C204.376 120.94 205.172 121.342 205.67 121.844C206.169 122.346 206.467 122.948 206.467 123.651C206.467 124.655 206.069 125.458 205.372 126.06C204.674 126.663 203.579 126.964 201.985 126.964C200.491 126.964 199.296 126.663 198.599 125.96C197.901 125.257 197.503 124.454 197.503 123.45H200.093C200.192 123.952 200.292 124.253 200.491 124.454C200.79 124.755 201.387 124.956 202.284 124.956C202.782 124.956 203.18 124.856 203.479 124.755C203.778 124.554 203.878 124.354 203.878 124.052C203.878 123.751 203.778 123.55 203.479 123.35C203.28 123.249 202.384 122.948 200.79 122.546C199.694 122.245 198.897 121.944 198.499 121.542C198.001 121.141 197.802 120.538 197.802 119.735C197.802 118.832 198.2 118.028 198.897 117.426C199.595 116.723 200.591 116.422 201.886 116.422C203.18 116.522 204.176 116.823 204.874 117.325Z" fill="#F6DBA8"/>
<path d="M216.827 120.339H214.237C214.237 119.937 214.038 119.636 213.839 119.335C213.54 118.933 213.141 118.732 212.544 118.732C211.647 118.732 211.05 119.134 210.751 120.037C210.552 120.539 210.452 121.142 210.452 121.845C210.452 122.548 210.552 123.15 210.751 123.552C211.05 124.355 211.647 124.756 212.444 124.756C213.042 124.756 213.44 124.556 213.739 124.254C214.038 123.953 214.137 123.552 214.237 122.949H216.827C216.727 123.752 216.528 124.455 216.03 125.158C215.233 126.262 214.038 126.865 212.444 126.865C210.85 126.865 209.755 126.363 208.958 125.459C208.261 124.556 207.862 123.25 207.862 121.845C207.862 120.138 208.261 118.833 209.058 117.929C209.854 117.025 211.05 116.523 212.444 116.523C213.639 116.523 214.635 116.825 215.432 117.327C216.229 117.929 216.727 118.933 216.827 120.339Z" fill="#F6DBA8"/>
<path d="M226.687 118.028C227.484 119.032 227.882 120.338 227.882 121.743C227.882 123.149 227.484 124.454 226.687 125.458C225.89 126.462 224.595 126.964 222.902 126.964C221.209 126.964 220.014 126.462 219.117 125.458C218.32 124.454 217.922 123.149 217.922 121.743C217.922 120.338 218.32 119.133 219.117 118.028C219.914 117.024 221.209 116.422 222.902 116.422C224.695 116.522 225.89 117.024 226.687 118.028ZM223.002 118.731C222.205 118.731 221.707 119.032 221.308 119.534C220.91 120.036 220.711 120.84 220.711 121.844C220.711 122.848 220.91 123.55 221.308 124.153C221.707 124.655 222.304 124.956 223.002 124.956C223.699 124.956 224.297 124.655 224.695 124.153C225.093 123.651 225.293 122.848 225.293 121.844C225.293 120.84 225.093 120.137 224.695 119.534C224.297 118.932 223.699 118.731 223.002 118.731Z" fill="#F6DBA8"/>
<path d="M237.246 126.664L235.752 119.535L234.158 126.664H231.469L228.68 116.824H231.469L232.963 123.852L234.357 116.824H236.947L238.441 123.953L239.935 116.824H242.624L239.835 126.664H237.246Z" fill="#F6DBA8"/>
</svg>
