<svg width="226" height="62" viewBox="0 0 226 62" fill="none" xmlns="http://www.w3.org/2000/svg">
<g clip-path="url(#clip0_903_460)">
<path d="M31.9059 10.365H39.1495V0.193359C39.1495 0.193359 31.5168 0.193359 31.3372 0.193359C14.4555 0.518614 0.806396 14.0315 0.806396 30.7081C0.806396 47.5327 14.7548 61.1934 31.9059 61.2229H39.1495V51.0513H31.9059C28.763 51.0513 25.6501 50.3121 22.8365 48.952C20.0228 47.5918 17.5385 45.6107 15.5929 43.1861C13.6473 40.7615 12.3303 37.9229 11.6718 34.8773C11.0133 31.8613 11.0731 28.727 11.8514 25.7406C13.0187 30.0872 15.6228 33.9311 19.2446 36.6514C22.8664 39.3717 27.3263 40.8797 31.9059 40.8797H39.1495V30.7081H31.9059C26.2188 30.7081 21.5793 26.125 21.5793 20.5365C21.6092 14.9481 26.2188 10.365 31.9059 10.365Z" fill="#F6DBA8"/>
<path d="M59.8933 34.8182V26.5686C59.8933 20.7436 63.4852 17.4023 70.16 17.4023C72.9737 17.4023 75.3084 18.1711 77.1342 19.6496C78.9601 21.1576 79.888 23.3752 79.888 26.3912V26.746H74.0812V26.3912C74.0812 23.7596 72.1954 22.5768 69.7709 22.5768C67.0172 22.5768 65.6403 23.7892 65.6403 26.1842V35.2322C65.6403 37.6273 67.0172 38.8396 69.7709 38.8396C72.2553 38.8396 74.0812 37.7455 74.0812 35.0252V34.6704H79.888V35.0252C79.888 38.0412 78.9601 40.318 77.1342 41.7964C75.3084 43.3044 72.9737 44.0141 70.16 44.0141C63.5151 43.9845 59.8933 40.6433 59.8933 34.8182Z" fill="#F6DBA8"/>
<path d="M95.0931 36.5937V31.1826C95.0931 29.6155 93.8958 28.5214 91.8305 28.5214C89.6455 28.5214 88.538 29.6746 88.538 31.1826V36.6232C88.538 38.1312 89.6455 39.2548 91.8305 39.2548C93.8958 39.2253 95.0931 38.1017 95.0931 36.5937ZM83.24 30.9165C83.24 26.7178 86.323 23.8496 91.8305 23.8496C97.338 23.8496 100.361 26.7178 100.361 30.9165V36.7711C100.361 40.9698 97.3081 43.8675 91.8305 43.8675C86.323 43.8675 83.24 40.9403 83.24 36.7711V30.9165Z" fill="#F6DBA8"/>
<path d="M109.759 24.291H104.491V43.4515H109.759V24.291Z" fill="#F6DBA8"/>
<path d="M114.759 43.4536V24.2931H117.782L119.218 26.0673C119.967 25.3576 120.865 24.7662 121.823 24.4114C122.81 24.027 123.828 23.8496 124.906 23.8496C129.186 23.8496 131.7 26.6586 131.7 31.3305V43.4536H126.432V31.5966C126.432 29.5563 125.325 28.4919 123.708 28.4919C122.331 28.4919 121.104 29.1128 120.027 30.3251V43.4536H114.759Z" fill="#F6DBA8"/>
<path d="M137.687 41.916C136.13 40.615 135.322 38.9296 135.262 36.8598H140.381C140.71 38.4861 142.057 39.314 144.422 39.314C146.008 39.314 146.996 38.8113 146.996 37.9538C146.996 37.2737 146.427 36.8007 145.29 36.505L140.501 35.2927C137.328 34.4943 135.741 32.7793 135.741 30.1181C135.741 26.2151 138.645 23.8496 143.643 23.8496C148.433 23.8496 151.665 26.4516 151.815 30.5321H146.726C146.307 29.1424 145.17 28.4623 143.314 28.4623C141.668 28.4623 140.86 28.9354 140.86 29.852C140.86 30.3547 141.369 30.7687 142.416 31.0052L147.535 32.2767C150.588 33.0454 152.114 34.8196 152.114 37.5694C152.114 41.5316 148.941 43.8971 143.943 43.8971C141.369 43.8971 139.303 43.2466 137.687 41.916Z" fill="#F6DBA8"/>
<path d="M162.261 29.0238H167.08C168.517 29.0238 169.744 28.0184 169.744 25.9782C169.744 23.938 168.517 22.8735 167.08 22.8735H162.261V29.0238ZM156.484 43.4532V17.9355H168.158C172.797 17.9355 175.581 21.0402 175.581 25.9486C175.581 30.857 172.797 33.9322 168.158 33.9322H162.261V43.4532H156.484Z" fill="#F6DBA8"/>
<path d="M188.93 37.6581V35.5588H185.099C183.363 35.5588 182.495 36.1797 182.495 37.4512C182.495 38.5748 183.303 39.3435 184.919 39.3435C186.536 39.3435 187.883 38.7817 188.93 37.6581ZM191.145 43.4536L189.708 41.6795C188.122 43.1579 186.146 43.8971 183.812 43.8971C181.956 43.8971 180.399 43.3944 179.142 42.4187C177.885 41.3838 177.257 39.9645 177.257 38.1608C177.257 34.1986 179.891 31.9218 185.129 31.9218H188.96V30.8574C188.96 29.2902 188.032 28.5214 186.146 28.5214C184.261 28.5214 183.333 29.1424 183.333 30.4138H178.155C178.155 26.4516 180.908 23.8496 186.146 23.8496C191.385 23.8496 194.258 26.4516 194.258 30.473V43.4536H191.145Z" fill="#F6DBA8"/>
<path d="M204.255 24.291H198.987V43.4515H204.255V24.291Z" fill="#F6DBA8"/>
<path d="M220.538 37.3894V30.3225C219.311 29.1102 218.024 28.4893 216.706 28.4893C216.347 28.4893 215.988 28.5484 215.629 28.6962C215.27 28.8441 215 29.0215 214.731 29.2876C214.462 29.5537 214.282 29.8494 214.132 30.1747C213.983 30.4999 213.923 30.8547 213.953 31.2096V36.4432C213.953 36.798 214.013 37.1529 214.132 37.4781C214.282 37.8034 214.462 38.099 214.731 38.3652C215 38.6313 215.3 38.8087 215.629 38.9565C215.958 39.1044 216.317 39.1635 216.706 39.1635C218.024 39.2227 219.311 38.6017 220.538 37.3894ZM222.813 43.451L221.376 41.6768C220.628 42.3865 219.73 42.9779 218.742 43.3623C217.754 43.7466 216.706 43.9241 215.659 43.9241C211.648 43.9241 208.715 41.529 208.715 36.8867V30.8843C208.715 28.578 209.373 26.8334 210.69 25.6802C211.977 24.4679 213.653 23.9061 215.659 23.9061C217.664 23.9061 219.311 24.4088 220.568 25.4733V17.7559H225.836V43.451H222.813Z" fill="#F6DBA8"/>
</g>
<defs>
<clipPath id="clip0_903_460">
<rect width="225" height="61" fill="white" transform="translate(0.806396 0.193359)"/>
</clipPath>
</defs>
</svg>
