<svg width="410" height="190" viewBox="0 0 410 190" fill="none" xmlns="http://www.w3.org/2000/svg">
<g clip-path="url(#clip0_922_903)">
<path d="M117.449 73.0053H125.24V62C125.24 62 117.031 62 116.838 62C98.6803 62.3519 84 76.9724 84 95.016C84 113.22 99.0023 128 117.449 128.032H125.24V117.027H117.449C114.069 117.027 110.721 116.227 107.695 114.755C104.668 113.284 101.996 111.14 99.9037 108.517C97.8111 105.893 96.3946 102.822 95.6863 99.5269C94.978 96.2637 95.0424 92.8725 95.8795 89.6413C97.135 94.3442 99.9359 98.5032 103.831 101.446C107.727 104.39 112.524 106.021 117.449 106.021H125.24V95.016H117.449C111.332 95.016 106.342 90.0572 106.342 84.0107C106.375 77.9641 111.332 73.0053 117.449 73.0053Z" fill="#F6DBA8"/>
<path d="M147.551 99.4606V90.5348C147.551 84.2323 151.414 80.6172 158.593 80.6172C161.619 80.6172 164.131 81.449 166.094 83.0486C168.058 84.6802 169.056 87.0796 169.056 90.3428V90.7267H162.811V90.3428C162.811 87.4955 160.782 86.2158 158.175 86.2158C155.213 86.2158 153.732 87.5275 153.732 90.1189V99.9085C153.732 102.5 155.213 103.812 158.175 103.812C160.847 103.812 162.811 102.628 162.811 99.6846V99.3007H169.056V99.6846C169.056 102.948 168.058 105.411 166.094 107.011C164.131 108.642 161.619 109.41 158.593 109.41C151.446 109.378 147.551 105.763 147.551 99.4606Z" fill="#F6DBA8"/>
<path d="M185.411 101.382V95.5278C185.411 93.8322 184.123 92.6485 181.902 92.6485C179.552 92.6485 178.36 93.8962 178.36 95.5278V101.414C178.36 103.046 179.552 104.262 181.902 104.262C184.123 104.23 185.411 103.014 185.411 101.382ZM172.662 95.2399C172.662 90.697 175.978 87.5938 181.902 87.5938C187.825 87.5938 191.077 90.697 191.077 95.2399V101.574C191.077 106.117 187.793 109.252 181.902 109.252C175.978 109.252 172.662 106.085 172.662 101.574V95.2399Z" fill="#F6DBA8"/>
<path d="M201.184 88.0703H195.518V108.801H201.184V88.0703Z" fill="#F6DBA8"/>
<path d="M206.562 108.805V88.0736H209.814L211.359 89.9932C212.164 89.2254 213.13 88.5855 214.16 88.2016C215.223 87.7857 216.317 87.5938 217.476 87.5938C222.08 87.5938 224.784 90.633 224.784 95.6878V108.805H219.118V95.9757C219.118 93.7683 217.927 92.6165 216.188 92.6165C214.707 92.6165 213.388 93.2884 212.229 94.6V108.805H206.562Z" fill="#F6DBA8"/>
<path d="M231.223 107.141C229.549 105.733 228.68 103.91 228.615 101.67H234.12C234.474 103.43 235.923 104.326 238.466 104.326C240.173 104.326 241.235 103.782 241.235 102.854C241.235 102.118 240.623 101.606 239.4 101.286L234.249 99.9747C230.837 99.111 229.13 97.2554 229.13 94.3761C229.13 90.1531 232.253 87.5938 237.629 87.5938C242.78 87.5938 246.257 90.4091 246.418 94.824H240.945C240.495 93.3204 239.271 92.5845 237.275 92.5845C235.505 92.5845 234.635 93.0964 234.635 94.0882C234.635 94.632 235.183 95.0799 236.31 95.3359L241.815 96.7115C245.098 97.5433 246.74 99.4629 246.74 102.438C246.74 106.725 243.328 109.284 237.951 109.284C235.183 109.284 232.961 108.581 231.223 107.141Z" fill="#F6DBA8"/>
<path d="M257.653 93.1924H262.836C264.381 93.1924 265.701 92.1047 265.701 89.8972C265.701 87.6897 264.381 86.538 262.836 86.538H257.653V93.1924ZM251.439 108.805V81.1953H263.995C268.985 81.1953 271.979 84.5545 271.979 89.8652C271.979 95.1759 268.985 98.5031 263.995 98.5031H257.653V108.805H251.439Z" fill="#F6DBA8"/>
<path d="M286.337 102.534V100.263H282.216C280.349 100.263 279.415 100.935 279.415 102.31C279.415 103.526 280.284 104.358 282.023 104.358C283.761 104.358 285.21 103.75 286.337 102.534ZM288.719 108.805L287.174 106.885C285.468 108.485 283.343 109.284 280.832 109.284C278.836 109.284 277.162 108.741 275.809 107.685C274.457 106.565 273.781 105.03 273.781 103.078C273.781 98.791 276.614 96.3276 282.248 96.3276H286.369V95.1759C286.369 93.4803 285.371 92.6485 283.343 92.6485C281.315 92.6485 280.317 93.3204 280.317 94.696H274.747C274.747 90.4091 277.709 87.5938 283.343 87.5938C288.977 87.5938 292.067 90.4091 292.067 94.76V108.805H288.719Z" fill="#F6DBA8"/>
<path d="M302.82 88.0703H297.154V108.801H302.82V88.0703Z" fill="#F6DBA8"/>
<path d="M320.334 102.243V94.5967C319.014 93.285 317.629 92.6132 316.213 92.6132C315.827 92.6132 315.44 92.6772 315.054 92.8371C314.668 92.9971 314.378 93.189 314.088 93.477C313.798 93.7649 313.605 94.0848 313.444 94.4367C313.283 94.7887 313.219 95.1726 313.251 95.5565V101.219C313.251 101.603 313.315 101.987 313.444 102.339C313.605 102.691 313.798 103.011 314.088 103.299C314.378 103.587 314.7 103.778 315.054 103.938C315.408 104.098 315.794 104.162 316.213 104.162C317.629 104.226 319.014 103.555 320.334 102.243ZM322.78 108.801L321.235 106.882C320.43 107.65 319.464 108.289 318.402 108.705C317.34 109.121 316.213 109.313 315.086 109.313C310.772 109.313 307.617 106.722 307.617 101.699V95.2046C307.617 92.7092 308.325 90.8216 309.742 89.5739C311.126 88.2622 312.929 87.6544 315.086 87.6544C317.243 87.6544 319.014 88.1983 320.366 89.35V81H326.032V108.801H322.78Z" fill="#F6DBA8"/>
</g>
<defs>
<clipPath id="clip0_922_903">
<rect width="242" height="66" fill="white" transform="translate(84 62)"/>
</clipPath>
</defs>
</svg>
