<svg width="410" height="190" viewBox="0 0 410 190" fill="none" xmlns="http://www.w3.org/2000/svg">
<g clip-path="url(#clip0_922_776)">
<path d="M105.065 61.0471C105.065 57.7206 102.911 56.3441 101.891 56C100.871 56.2294 98.7168 57.7206 98.7168 61.0471C98.7168 64.3735 100.871 65.4059 101.891 65.4059C102.911 65.2912 105.065 64.3735 105.065 61.0471Z" fill="#F6DBA8"/>
<path d="M90.6678 60.7037C89.9876 60.0154 88.854 60.0154 88.1737 60.7037C87.4935 61.3919 87.4935 62.539 88.1737 63.2272L100.077 75.2713V85.7096L81.1449 66.439C80.4647 65.7507 79.331 65.7507 78.6508 66.439C77.9706 67.1272 77.9706 68.2743 78.6508 68.9625L100.077 90.6419V132.28C100.077 133.198 100.871 134.001 101.778 134.001C102.685 134.001 103.478 133.198 103.478 132.28V90.8713L125.132 68.9625C125.812 68.2743 125.812 67.1272 125.132 66.439C124.452 65.7507 123.318 65.7507 122.638 66.439L103.592 85.939V75.2713L115.496 63.2272C116.176 62.539 116.176 61.3919 115.496 60.7037C114.815 60.0154 113.682 60.0154 113.001 60.7037L101.891 72.0596L90.6678 60.7037Z" fill="#F6DBA8"/>
<path d="M122.525 85.5943C123.205 86.2825 123.205 87.4296 122.525 88.1178L114.249 96.3767V107.044L135.109 85.9384C135.789 85.2502 136.922 85.2502 137.603 85.9384C138.283 86.6267 138.283 87.7737 137.603 88.4619L114.249 111.977V122.185C114.249 123.103 113.455 123.906 112.548 123.906C111.641 123.906 110.848 123.103 110.848 122.185V95.6884C110.848 95.2296 111.074 94.7708 111.301 94.4267L120.031 85.5943C120.824 84.9061 121.844 84.9061 122.525 85.5943Z" fill="#F6DBA8"/>
<path d="M81.1449 85.5943C80.4647 86.2825 80.4647 87.4296 81.1449 88.1178L89.4208 96.4914V107.159L68.4476 85.9384C67.7674 85.2502 66.6337 85.2502 65.9535 85.9384C65.2733 86.6267 65.2733 87.7737 65.9535 88.4619L89.4208 112.206V122.3C89.4208 123.218 90.2144 124.021 91.1213 124.021C92.0283 124.021 92.8219 123.218 92.8219 122.3V95.6884C92.8219 95.2296 92.5951 94.7708 92.3684 94.4267L83.639 85.5943C82.9588 84.9061 81.8251 84.9061 81.1449 85.5943Z" fill="#F6DBA8"/>
<path d="M130.574 76.99C131.027 77.9077 131.594 80.4312 129.327 82.84C126.946 85.2488 124.792 84.3312 123.999 83.6429C123.318 82.84 122.525 80.6606 124.792 78.2518C127.173 75.9577 129.667 76.4165 130.574 76.99Z" fill="#F6DBA8"/>
<path d="M73.4366 82.7267C71.0559 80.3179 71.6227 77.7944 72.1895 76.8767C73.0965 76.3032 75.5906 75.8444 77.9713 78.1385C80.3521 80.5473 79.4451 82.7267 78.7649 83.5297C77.9713 84.3326 75.704 85.1355 73.4366 82.7267Z" fill="#F6DBA8"/>
<path fill-rule="evenodd" clip-rule="evenodd" d="M233.059 105.552C234.079 106.355 235.213 106.929 236.46 107.273C237.933 107.732 239.521 107.961 240.994 107.961C242.582 107.961 244.282 107.732 245.756 107.158C247.003 106.699 248.137 105.896 248.93 104.864C249.724 103.832 250.064 102.685 250.064 101.423C250.064 100.505 249.837 99.4727 249.157 98.7845C248.59 98.0963 247.91 97.6375 247.003 97.2933C245.983 96.8345 244.849 96.4904 243.829 96.261C242.808 95.9169 242.015 95.6875 241.448 95.458C240.994 95.2286 240.428 94.9992 240.087 94.6551C239.861 94.5404 239.747 94.311 239.634 94.0816C239.521 93.8522 239.521 93.6227 239.521 93.3933C239.521 92.4757 239.974 91.7875 240.881 91.2139C241.788 90.6404 243.035 90.411 244.509 90.411C245.529 90.411 246.549 90.5257 247.57 90.8698C248.477 91.0992 249.384 91.558 250.177 92.0169L251.651 89.0345C250.744 88.461 249.61 88.0022 248.59 87.7727C247.343 87.4286 246.096 87.3139 244.736 87.3139C243.148 87.3139 241.561 87.5433 240.087 88.1169C238.84 88.5757 237.707 89.3786 236.913 90.411C236.12 91.4433 235.779 92.5904 235.779 93.8522C235.779 94.8845 236.006 95.8022 236.686 96.6051C237.253 97.2933 237.933 97.8669 238.84 98.211C239.861 98.6698 240.994 99.0139 242.128 99.358C243.148 99.5875 243.829 99.8169 244.395 100.046C244.849 100.276 245.302 100.505 245.756 100.849C245.983 100.964 246.096 101.193 246.209 101.423C246.323 101.652 246.323 101.882 246.323 102.111C246.323 103.029 245.869 103.717 244.962 104.176C244.055 104.749 242.808 104.979 241.335 104.979C240.087 104.979 238.84 104.749 237.707 104.405C236.573 104.061 235.553 103.487 234.646 102.799L233.059 105.552ZM274.778 107.732L285.775 87.3139H281.92L273.418 103.029L271.377 87.3139H267.749L259.36 102.799L257.319 87.3139H253.465L256.186 107.732H260.267L268.543 92.8198L270.584 107.732H274.778ZM294.844 102.914H284.415L281.467 107.617H277.386L290.877 87.1992H294.731L299.833 107.617H295.978L294.844 102.914ZM294.164 99.9316L292.01 90.9845L286.342 99.9316H294.164ZM321.259 93.3933C321.259 91.4433 320.579 89.9522 319.219 88.8051C317.858 87.7727 315.931 87.1992 313.437 87.1992H305.501L301.306 107.732H305.161L306.408 101.882H311.51C313.324 101.882 315.137 101.537 316.725 100.849C318.085 100.276 319.332 99.2433 320.126 97.9816C320.806 96.4904 321.259 94.9992 321.259 93.3933ZM317.405 93.7375C317.405 95.3433 316.951 96.4904 315.931 97.2933C314.911 98.0963 313.437 98.5551 311.623 98.5551H307.088L308.675 90.411H312.983C314.457 90.411 315.478 90.6404 316.271 91.2139C316.951 91.9022 317.405 92.7051 317.405 93.7375Z" fill="#F6DBA8"/>
<path fill-rule="evenodd" clip-rule="evenodd" d="M165.377 107.617V105.782H152.907V98.211H163.564V96.3757H152.907V89.1492H164.924V87.3139H150.753V107.617H165.377ZM177.281 87.1992H168.892V107.617H177.281C179.322 107.617 181.249 107.158 183.063 106.355C184.65 105.552 186.011 104.29 186.917 102.799C187.824 101.193 188.278 99.358 188.278 97.5228C188.278 95.6875 187.824 93.8522 186.917 92.2463C186.011 90.7551 184.65 89.4933 183.063 88.6904C181.249 87.5433 179.322 87.1992 177.281 87.1992ZM181.929 104.635C180.455 105.323 178.868 105.782 177.168 105.667H171.046V89.0345H177.168C178.868 89.0345 180.455 89.3786 181.929 90.0669C183.29 90.7551 184.31 91.7875 185.104 93.0492C185.784 94.4257 186.237 95.9169 186.237 97.408C186.237 98.8992 185.897 100.39 185.104 101.767C184.31 103.029 183.176 104.061 181.929 104.635ZM191.566 87.1992H199.955C201.996 87.1992 203.923 87.658 205.737 88.461C207.324 89.2639 208.684 90.5257 209.591 92.0169C210.498 93.6227 210.952 95.458 210.952 97.2933C210.952 99.1286 210.498 100.964 209.591 102.57C208.684 104.061 207.324 105.323 205.737 106.126C203.923 107.043 201.996 107.502 199.955 107.387H191.566V87.1992ZM199.842 105.782C201.542 105.782 203.129 105.437 204.603 104.749C205.963 104.061 206.984 103.029 207.777 101.767C208.458 100.39 208.911 98.8992 208.911 97.408C208.911 95.9169 208.571 94.4257 207.777 93.0492C206.984 91.7875 205.963 90.7551 204.603 90.0669C203.129 89.3786 201.542 88.9198 199.842 89.0345H193.72V105.667H199.842V105.782ZM215.486 102.111H227.05L229.544 107.617H231.811L222.402 87.1992H220.248L210.725 107.617H212.992L215.486 102.111ZM221.268 89.3786L226.256 100.39H216.28L221.268 89.3786Z" fill="#F6DBA8"/>
<path d="M327.95 85.3651H325.002V83.6445H333.051V85.3651H330.104V92.9357H327.95V85.3651Z" fill="#F6DBA8"/>
<path d="M342.46 92.9357V87.3151L339.739 91.9034H338.832L336.111 87.4298V92.9357H334.184V83.6445H335.884L339.285 89.3798L342.686 83.6445H344.387V92.9357H342.46Z" fill="#F6DBA8"/>
</g>
<defs>
<clipPath id="clip0_922_776">
<rect width="279" height="78" fill="white" transform="translate(65.5 56)"/>
</clipPath>
</defs>
</svg>
