<svg width="960" height="164" viewBox="0 0 960 164" fill="none" xmlns="http://www.w3.org/2000/svg">
<path d="M226.133 18.0308V65H213.892V18.0308H226.133ZM235.556 65V29.4173H246.373L247.013 41.6577L245.661 40.3056C246.135 37.7437 246.966 35.6087 248.152 33.9007C249.385 32.1928 250.904 30.9118 252.706 30.0578C254.557 29.1564 256.62 28.7056 258.898 28.7056C261.365 28.7056 263.5 29.1801 265.303 30.129C267.153 31.0778 268.6 32.4774 269.644 34.3277C270.688 36.178 271.209 38.5027 271.209 41.3019V65H259.111V44.5044C259.111 42.0373 258.637 40.3293 257.688 39.3805C256.739 38.4316 255.529 37.9571 254.059 37.9571C252.92 37.9571 251.852 38.2418 250.856 38.8111C249.86 39.333 249.077 40.187 248.508 41.3731C247.938 42.5592 247.654 44.1485 247.654 46.1412V65H235.556ZM294.351 18.102V52.3326C294.351 54.0405 294.755 55.2741 295.561 56.0332C296.415 56.7448 297.578 57.1006 299.048 57.1006C300.187 57.1006 301.16 56.982 301.966 56.7448C302.82 56.4602 303.579 56.0569 304.243 55.535L305.524 63.0074C304.338 63.8614 302.844 64.5256 301.041 65C299.238 65.4744 297.388 65.7117 295.49 65.7117C292.786 65.7117 290.437 65.3321 288.445 64.573C286.5 63.8139 284.981 62.6041 283.89 60.9436C282.846 59.283 282.301 57.0769 282.253 54.3252V21.4468L294.351 18.102ZM304.955 29.4173V38.0283H276.133V29.4173H304.955ZM327.908 65.7117C323.97 65.7117 320.554 64.9763 317.66 63.5055C314.813 62.0348 312.607 59.9235 311.041 57.1718C309.476 54.4201 308.693 51.099 308.693 47.2087C308.693 43.3183 309.476 39.9972 311.041 37.2455C312.607 34.4938 314.789 32.3825 317.589 30.9118C320.435 29.441 323.685 28.7056 327.338 28.7056C331.086 28.7056 334.265 29.441 336.874 30.9118C339.531 32.3351 341.548 34.3277 342.924 36.8897C344.299 39.4042 344.987 42.2982 344.987 45.5718C344.987 46.4258 344.964 47.2798 344.916 48.1338C344.869 48.9878 344.798 49.6994 344.703 50.2688H316.521V43.7927H339.365L333.601 45.9988C333.601 43.1522 333.079 40.9698 332.035 39.4516C331.039 37.9334 329.473 37.1743 327.338 37.1743C325.82 37.1743 324.515 37.5302 323.424 38.2418C322.38 38.9535 321.574 40.0684 321.005 41.5866C320.483 43.1048 320.222 45.05 320.222 47.4221C320.222 49.7469 320.53 51.6446 321.147 53.1154C321.764 54.5387 322.641 55.5824 323.78 56.2467C324.919 56.8634 326.295 57.1718 327.908 57.1718C329.711 57.1718 331.134 56.816 332.178 56.1043C333.269 55.3927 334.075 54.3964 334.597 53.1154L344.276 56.3178C343.611 58.3579 342.449 60.0896 340.789 61.5129C339.176 62.8888 337.23 63.9325 334.953 64.6442C332.723 65.3558 330.375 65.7117 327.908 65.7117ZM351.755 65V29.4173H362.43L362.928 37.1032C363.83 34.4463 365.158 32.3825 366.914 30.9118C368.716 29.441 370.994 28.7056 373.745 28.7056C374.647 28.7056 375.406 28.7768 376.023 28.9191C376.687 29.0615 377.209 29.2512 377.588 29.4885L376.379 39.4516C375.904 39.2618 375.287 39.1195 374.528 39.0246C373.817 38.8823 372.939 38.8111 371.895 38.8111C370.472 38.8111 369.143 39.1195 367.91 39.7363C366.676 40.353 365.68 41.2782 364.921 42.5117C364.209 43.6978 363.853 45.216 363.853 47.0663V65H351.755ZM382.334 65V29.4173H393.151L393.792 41.6577L392.44 40.3056C392.914 37.7437 393.744 35.6087 394.93 33.9007C396.164 32.1928 397.682 30.9118 399.485 30.0578C401.335 29.1564 403.399 28.7056 405.676 28.7056C408.143 28.7056 410.278 29.1801 412.081 30.129C413.932 31.0778 415.379 32.4774 416.422 34.3277C417.466 36.178 417.988 38.5027 417.988 41.3019V65H405.89V44.5044C405.89 42.0373 405.415 40.3293 404.467 39.3805C403.518 38.4316 402.308 37.9571 400.837 37.9571C399.699 37.9571 398.631 38.2418 397.635 38.8111C396.638 39.333 395.856 40.187 395.286 41.3731C394.717 42.5592 394.432 44.1485 394.432 46.1412V65H382.334ZM446.32 42.4406C446.32 40.78 445.846 39.4753 444.897 38.5265C443.995 37.5302 442.762 37.032 441.196 37.032C439.631 37.032 438.279 37.4353 437.14 38.2418C436.049 39.0009 435.29 40.3768 434.863 42.3694L424.615 39.9498C425.279 36.5338 427.034 33.8058 429.881 31.7658C432.728 29.7257 436.737 28.7056 441.908 28.7056C445.371 28.7056 448.313 29.2275 450.732 30.2713C453.2 31.2676 455.074 32.7858 456.355 34.8259C457.683 36.8185 458.347 39.2856 458.347 42.2271V55.2503C458.347 57.1006 459.177 58.0258 460.838 58.0258C461.692 58.0258 462.38 57.9309 462.902 57.7411L462.19 64.6442C460.767 65.3084 459.035 65.6405 456.995 65.6405C455.145 65.6405 453.508 65.3558 452.085 64.7865C450.661 64.1697 449.546 63.2683 448.74 62.0822C447.933 60.8487 447.53 59.3068 447.53 57.4565V57.0295L448.882 56.5313C448.882 58.5714 448.265 60.2794 447.032 61.6552C445.846 63.0311 444.28 64.0511 442.335 64.7153C440.437 65.3795 438.445 65.7117 436.357 65.7117C433.937 65.7117 431.826 65.3321 430.023 64.573C428.22 63.8139 426.821 62.7227 425.825 61.2994C424.876 59.8286 424.401 58.0258 424.401 55.8908C424.401 53.3289 425.16 51.2176 426.679 49.5571C428.244 47.8491 430.688 46.663 434.009 45.9988L447.459 43.2234L447.388 49.6283L440.556 51.0516C439.132 51.3362 438.065 51.7632 437.353 52.3326C436.689 52.8544 436.357 53.661 436.357 54.7522C436.357 55.7959 436.737 56.5788 437.496 57.1006C438.255 57.6225 439.156 57.8835 440.2 57.8835C441.007 57.8835 441.766 57.7649 442.477 57.5276C443.236 57.2904 443.901 56.9346 444.47 56.4602C445.039 55.9383 445.49 55.2978 445.822 54.5387C446.154 53.7796 446.32 52.8782 446.32 51.8344V42.4406ZM481.161 18.102V52.3326C481.161 54.0405 481.564 55.2741 482.37 56.0332C483.224 56.7448 484.387 57.1006 485.858 57.1006C486.996 57.1006 487.969 56.982 488.775 56.7448C489.629 56.4602 490.388 56.0569 491.053 55.535L492.334 63.0074C491.148 63.8614 489.653 64.5256 487.85 65C486.047 65.4744 484.197 65.7117 482.299 65.7117C479.595 65.7117 477.247 65.3321 475.254 64.573C473.309 63.8139 471.791 62.6041 470.699 60.9436C469.656 59.283 469.11 57.0769 469.063 54.3252V21.4468L481.161 18.102ZM491.764 29.4173V38.0283H462.942V29.4173H491.764ZM503.402 25.2897C500.934 25.2897 499.132 24.839 497.993 23.9376C496.902 22.9887 496.356 21.5179 496.356 19.5253C496.356 17.4852 496.902 16.0145 497.993 15.1131C499.132 14.1642 500.934 13.6897 503.402 13.6897C505.821 13.6897 507.6 14.1642 508.739 15.1131C509.878 16.0145 510.447 17.4852 510.447 19.5253C510.447 21.5179 509.878 22.9887 508.739 23.9376C507.6 24.839 505.821 25.2897 503.402 25.2897ZM509.451 29.4173V65H497.352V29.4173H509.451ZM535 28.7056C538.748 28.7056 542.022 29.441 544.821 30.9118C547.668 32.3351 549.874 34.4463 551.439 37.2455C553.052 39.9972 553.859 43.3183 553.859 47.2087C553.859 51.099 553.052 54.4438 551.439 57.243C549.874 59.9947 547.668 62.1059 544.821 63.5767C542.022 65 538.748 65.7117 535 65.7117C531.347 65.7117 528.097 65 525.25 63.5767C522.404 62.1059 520.174 59.9947 518.561 57.243C516.995 54.4438 516.212 51.099 516.212 47.2087C516.212 43.3183 516.995 39.9972 518.561 37.2455C520.174 34.4463 522.404 32.3351 525.25 30.9118C528.097 29.441 531.347 28.7056 535 28.7056ZM535 37.3167C533.624 37.3167 532.438 37.6488 531.442 38.313C530.445 38.9772 529.686 40.0447 529.165 41.5154C528.643 42.9862 528.382 44.8839 528.382 47.2087C528.382 49.5334 528.643 51.4311 529.165 52.9019C529.686 54.3252 530.445 55.3927 531.442 56.1043C532.438 56.7685 533.624 57.1006 535 57.1006C536.423 57.1006 537.633 56.7685 538.63 56.1043C539.626 55.3927 540.385 54.3252 540.907 52.9019C541.429 51.4311 541.69 49.5334 541.69 47.2087C541.69 44.8839 541.429 42.9862 540.907 41.5154C540.385 40.0447 539.626 38.9772 538.63 38.313C537.633 37.6488 536.423 37.3167 535 37.3167ZM560.665 65V29.4173H571.482L572.122 41.6577L570.77 40.3056C571.245 37.7437 572.075 35.6087 573.261 33.9007C574.494 32.1928 576.013 30.9118 577.815 30.0578C579.666 29.1564 581.73 28.7056 584.007 28.7056C586.474 28.7056 588.609 29.1801 590.412 30.129C592.262 31.0778 593.709 32.4774 594.753 34.3277C595.797 36.178 596.319 38.5027 596.319 41.3019V65H584.22V44.5044C584.22 42.0373 583.746 40.3293 582.797 39.3805C581.848 38.4316 580.638 37.9571 579.168 37.9571C578.029 37.9571 576.962 38.2418 575.965 38.8111C574.969 39.333 574.186 40.187 573.617 41.3731C573.047 42.5592 572.763 44.1485 572.763 46.1412V65H560.665ZM624.651 42.4406C624.651 40.78 624.176 39.4753 623.227 38.5265C622.326 37.5302 621.092 37.032 619.527 37.032C617.961 37.032 616.609 37.4353 615.47 38.2418C614.379 39.0009 613.62 40.3768 613.193 42.3694L602.945 39.9498C603.609 36.5338 605.365 33.8058 608.211 31.7658C611.058 29.7257 615.067 28.7056 620.238 28.7056C623.702 28.7056 626.643 29.2275 629.063 30.2713C631.53 31.2676 633.404 32.7858 634.685 34.8259C636.013 36.8185 636.678 39.2856 636.678 42.2271V55.2503C636.678 57.1006 637.508 58.0258 639.168 58.0258C640.022 58.0258 640.71 57.9309 641.232 57.7411L640.521 64.6442C639.097 65.3084 637.366 65.6405 635.325 65.6405C633.475 65.6405 631.838 65.3558 630.415 64.7865C628.992 64.1697 627.877 63.2683 627.07 62.0822C626.264 60.8487 625.86 59.3068 625.86 57.4565V57.0295L627.213 56.5313C627.213 58.5714 626.596 60.2794 625.362 61.6552C624.176 63.0311 622.611 64.0511 620.665 64.7153C618.768 65.3795 616.775 65.7117 614.688 65.7117C612.268 65.7117 610.157 65.3321 608.354 64.573C606.551 63.8139 605.151 62.7227 604.155 61.2994C603.206 59.8286 602.732 58.0258 602.732 55.8908C602.732 53.3289 603.491 51.2176 605.009 49.5571C606.575 47.8491 609.018 46.663 612.339 45.9988L625.789 43.2234L625.718 49.6283L618.886 51.0516C617.463 51.3362 616.395 51.7632 615.684 52.3326C615.02 52.8544 614.688 53.661 614.688 54.7522C614.688 55.7959 615.067 56.5788 615.826 57.1006C616.585 57.6225 617.487 57.8835 618.53 57.8835C619.337 57.8835 620.096 57.7649 620.808 57.5276C621.567 57.2904 622.231 56.9346 622.8 56.4602C623.37 55.9383 623.82 55.2978 624.153 54.5387C624.485 53.7796 624.651 52.8782 624.651 51.8344V42.4406ZM657.963 14.3302V52.9019C657.963 54.4675 658.224 55.5824 658.746 56.2467C659.268 56.9109 660.146 57.243 661.379 57.243C662.091 57.243 662.684 57.1955 663.158 57.1006C663.633 57.0058 664.202 56.8634 664.866 56.6736L664.084 63.9325C663.23 64.4544 662.115 64.8814 660.739 65.2135C659.363 65.5456 658.011 65.7117 656.682 65.7117C652.887 65.7117 650.135 64.8339 648.427 63.0785C646.719 61.3231 645.865 58.4528 645.865 54.4675V14.3302H657.963ZM690.228 65V18.0308H726.807V27.4958H702.468V37.032H721.825V45.9277H702.468V55.535H727.732V65H690.228ZM734.269 65V29.4173H745.086L745.442 36.3203C746.581 33.8058 748.17 31.9081 750.21 30.6271C752.298 29.3461 754.694 28.7056 757.398 28.7056C760.055 28.7056 762.356 29.2987 764.301 30.4848C766.246 31.6709 767.693 33.4263 768.642 35.751C769.401 34.1854 770.374 32.8807 771.56 31.8369C772.794 30.7932 774.193 30.0103 775.759 29.4885C777.324 28.9666 778.937 28.7056 780.598 28.7056C782.97 28.7056 785.058 29.1801 786.861 30.129C788.663 31.0304 790.087 32.43 791.13 34.3277C792.222 36.178 792.767 38.5027 792.767 41.3019V65H780.669V44.0774C780.669 41.8001 780.218 40.2107 779.317 39.3093C778.463 38.4079 777.301 37.9571 775.83 37.9571C774.644 37.9571 773.553 38.2655 772.556 38.8823C771.607 39.4516 770.872 40.3293 770.35 41.5154C769.828 42.7015 769.567 44.196 769.567 45.9988V65H757.469V44.0774C757.469 41.8001 757.019 40.2107 756.117 39.3093C755.216 38.4079 754.053 37.9571 752.63 37.9571C751.539 37.9571 750.495 38.2418 749.499 38.8111C748.55 39.3805 747.791 40.2819 747.221 41.5154C746.652 42.7015 746.367 44.2671 746.367 46.2123V65H734.269ZM838.349 18.0308V27.4958H823.049V65H810.808V27.4958H795.436V18.0308H838.349ZM855.254 65.7117C851.317 65.7117 847.901 64.9763 845.007 63.5055C842.16 62.0348 839.954 59.9235 838.388 57.1718C836.823 54.4201 836.04 51.099 836.04 47.2087C836.04 43.3183 836.823 39.9972 838.388 37.2455C839.954 34.4938 842.136 32.3825 844.935 30.9118C847.782 29.441 851.032 28.7056 854.685 28.7056C858.433 28.7056 861.612 29.441 864.221 30.9118C866.878 32.3351 868.894 34.3277 870.27 36.8897C871.646 39.4042 872.334 42.2982 872.334 45.5718C872.334 46.4258 872.31 47.2798 872.263 48.1338C872.215 48.9878 872.144 49.6994 872.049 50.2688H843.868V43.7927H866.712L860.948 45.9988C860.948 43.1522 860.426 40.9698 859.382 39.4516C858.386 37.9334 856.82 37.1743 854.685 37.1743C853.167 37.1743 851.862 37.5302 850.771 38.2418C849.727 38.9535 848.921 40.0684 848.351 41.5866C847.829 43.1048 847.569 45.05 847.569 47.4221C847.569 49.7469 847.877 51.6446 848.494 53.1154C849.11 54.5387 849.988 55.5824 851.127 56.2467C852.265 56.8634 853.641 57.1718 855.254 57.1718C857.057 57.1718 858.481 56.816 859.524 56.1043C860.616 55.3927 861.422 54.3964 861.944 53.1154L871.622 56.3178C870.958 58.3579 869.796 60.0896 868.135 61.5129C866.522 62.8888 864.577 63.9325 862.3 64.6442C860.07 65.3558 857.721 65.7117 855.254 65.7117ZM895.968 28.7056C899.574 28.7056 902.563 29.2275 904.935 30.2713C907.355 31.2676 909.229 32.6197 910.557 34.3277C911.933 35.9882 912.787 37.7911 913.119 39.7363L901.946 43.4369C901.614 41.3968 900.997 39.8786 900.096 38.8823C899.242 37.8385 897.985 37.3167 896.324 37.3167C894.806 37.3167 893.525 37.6725 892.481 38.3841C891.485 39.0484 890.726 40.1396 890.204 41.6577C889.682 43.1285 889.421 45.0262 889.421 47.351C889.421 49.6757 889.706 51.5735 890.275 53.0442C890.844 54.4675 891.651 55.5113 892.695 56.1755C893.738 56.7923 894.972 57.1006 896.395 57.1006C897.581 57.1006 898.554 56.8871 899.313 56.4602C900.12 55.9857 900.784 55.3215 901.306 54.4675C901.827 53.6135 902.16 52.5698 902.302 51.3362L913.19 54.8233C912.858 56.9109 911.957 58.7849 910.486 60.4454C909.063 62.0585 907.165 63.3395 904.793 64.2883C902.421 65.2372 899.645 65.7117 896.466 65.7117C892.576 65.7117 889.184 65 886.29 63.5767C883.396 62.1059 881.166 59.9947 879.6 57.243C878.035 54.4438 877.252 51.099 877.252 47.2087C877.252 43.3183 878.035 39.9972 879.6 37.2455C881.166 34.4463 883.348 32.3351 886.147 30.9118C888.994 29.441 892.268 28.7056 895.968 28.7056ZM919.48 65V14.3302H931.578V35.8934C932.622 33.5212 934.116 31.742 936.062 30.5559C938.007 29.3224 940.26 28.7056 942.822 28.7056C945.289 28.7056 947.424 29.1801 949.227 30.129C951.077 31.0778 952.524 32.4774 953.568 34.3277C954.612 36.178 955.134 38.5027 955.134 41.3019V65H943.036V44.6467C943.036 42.0847 942.561 40.3293 941.612 39.3805C940.711 38.3841 939.501 37.886 937.983 37.886C936.844 37.886 935.777 38.1706 934.781 38.74C933.784 39.3093 933.001 40.2107 932.432 41.4443C931.863 42.6778 931.578 44.2909 931.578 46.2835V65H919.48ZM226.133 99.0308V146H213.892V99.0308H226.133ZM235.556 146V110.417H246.373L247.013 122.658L245.661 121.306C246.135 118.744 246.966 116.609 248.152 114.901C249.385 113.193 250.904 111.912 252.706 111.058C254.557 110.156 256.62 109.706 258.898 109.706C261.365 109.706 263.5 110.18 265.303 111.129C267.153 112.078 268.6 113.477 269.644 115.328C270.688 117.178 271.209 119.503 271.209 122.302V146H259.111V125.504C259.111 123.037 258.637 121.329 257.688 120.38C256.739 119.432 255.529 118.957 254.059 118.957C252.92 118.957 251.852 119.242 250.856 119.811C249.86 120.333 249.077 121.187 248.508 122.373C247.938 123.559 247.654 125.149 247.654 127.141V146H235.556ZM301.981 110.417H314.506L301.697 146H287.25L274.44 110.417H287.179L294.509 137.531L301.981 110.417ZM335.483 146.712C331.545 146.712 328.129 145.976 325.235 144.506C322.388 143.035 320.182 140.924 318.617 138.172C317.051 135.42 316.268 132.099 316.268 128.209C316.268 124.318 317.051 120.997 318.617 118.245C320.182 115.494 322.365 113.383 325.164 111.912C328.011 110.441 331.26 109.706 334.914 109.706C338.662 109.706 341.84 110.441 344.45 111.912C347.107 113.335 349.123 115.328 350.499 117.89C351.875 120.404 352.563 123.298 352.563 126.572C352.563 127.426 352.539 128.28 352.491 129.134C352.444 129.988 352.373 130.699 352.278 131.269H324.096V124.793H346.94L341.176 126.999C341.176 124.152 340.654 121.97 339.61 120.452C338.614 118.933 337.049 118.174 334.914 118.174C333.395 118.174 332.091 118.53 330.999 119.242C329.956 119.953 329.149 121.068 328.58 122.587C328.058 124.105 327.797 126.05 327.797 128.422C327.797 130.747 328.105 132.645 328.722 134.115C329.339 135.539 330.217 136.582 331.355 137.247C332.494 137.863 333.87 138.172 335.483 138.172C337.286 138.172 338.709 137.816 339.753 137.104C340.844 136.393 341.651 135.396 342.172 134.115L351.851 137.318C351.187 139.358 350.024 141.09 348.364 142.513C346.751 143.889 344.806 144.933 342.528 145.644C340.298 146.356 337.95 146.712 335.483 146.712ZM374.275 146.712C370.717 146.712 367.396 146.142 364.312 145.004C361.276 143.818 358.761 142.133 356.769 139.951L362.462 133.261C363.648 134.78 365.214 136.061 367.159 137.104C369.151 138.101 371.357 138.599 373.777 138.599C375.248 138.599 376.458 138.385 377.407 137.958C378.355 137.531 378.83 136.867 378.83 135.966C378.83 135.301 378.593 134.78 378.118 134.4C377.644 133.973 376.695 133.617 375.272 133.333L370.29 132.336C365.83 131.435 362.652 130.106 360.754 128.351C358.904 126.548 357.978 124.2 357.978 121.306C357.978 119.36 358.571 117.51 359.757 115.755C360.944 113.952 362.77 112.505 365.237 111.414C367.704 110.275 370.859 109.706 374.702 109.706C378.308 109.706 381.487 110.228 384.238 111.271C386.99 112.315 389.173 113.833 390.786 115.826L385.021 122.373C383.883 120.95 382.412 119.835 380.609 119.028C378.806 118.222 377.003 117.819 375.2 117.819C374.062 117.819 373.089 117.937 372.283 118.174C371.524 118.364 370.954 118.649 370.575 119.028C370.195 119.408 370.005 119.882 370.005 120.452C370.005 121.068 370.29 121.614 370.859 122.088C371.476 122.515 372.591 122.895 374.204 123.227L380.68 124.508C384.333 125.172 386.966 126.382 388.579 128.137C390.193 129.893 390.999 132.004 390.999 134.471C390.999 136.796 390.382 138.883 389.149 140.734C387.915 142.584 386.065 144.055 383.598 145.146C381.131 146.19 378.023 146.712 374.275 146.712ZM412.15 99.102V133.333C412.15 135.041 412.553 136.274 413.359 137.033C414.213 137.745 415.376 138.101 416.847 138.101C417.985 138.101 418.958 137.982 419.764 137.745C420.618 137.46 421.377 137.057 422.042 136.535L423.323 144.007C422.137 144.861 420.642 145.526 418.839 146C417.036 146.474 415.186 146.712 413.288 146.712C410.584 146.712 408.236 146.332 406.243 145.573C404.298 144.814 402.78 143.604 401.688 141.944C400.645 140.283 400.099 138.077 400.052 135.325V102.447L412.15 99.102ZM422.753 110.417V119.028H393.931V110.417H422.753ZM428.341 146V110.417H439.159L439.514 117.32C440.653 114.806 442.242 112.908 444.283 111.627C446.37 110.346 448.766 109.706 451.47 109.706C454.127 109.706 456.428 110.299 458.373 111.485C460.318 112.671 461.766 114.426 462.714 116.751C463.473 115.185 464.446 113.881 465.632 112.837C466.866 111.793 468.265 111.01 469.831 110.488C471.397 109.967 473.01 109.706 474.67 109.706C477.042 109.706 479.13 110.18 480.933 111.129C482.736 112.03 484.159 113.43 485.203 115.328C486.294 117.178 486.839 119.503 486.839 122.302V146H474.741V125.077C474.741 122.8 474.291 121.211 473.389 120.309C472.535 119.408 471.373 118.957 469.902 118.957C468.716 118.957 467.625 119.266 466.628 119.882C465.68 120.452 464.944 121.329 464.422 122.515C463.9 123.702 463.64 125.196 463.64 126.999V146H451.541V125.077C451.541 122.8 451.091 121.211 450.189 120.309C449.288 119.408 448.125 118.957 446.702 118.957C445.611 118.957 444.567 119.242 443.571 119.811C442.622 120.38 441.863 121.282 441.294 122.515C440.724 123.702 440.44 125.267 440.44 127.212V146H428.341ZM512.701 146.712C508.764 146.712 505.348 145.976 502.454 144.506C499.607 143.035 497.401 140.924 495.835 138.172C494.27 135.42 493.487 132.099 493.487 128.209C493.487 124.318 494.27 120.997 495.835 118.245C497.401 115.494 499.583 113.383 502.382 111.912C505.229 110.441 508.479 109.706 512.132 109.706C515.88 109.706 519.059 110.441 521.668 111.912C524.325 113.335 526.341 115.328 527.717 117.89C529.093 120.404 529.781 123.298 529.781 126.572C529.781 127.426 529.757 128.28 529.71 129.134C529.662 129.988 529.591 130.699 529.496 131.269H501.315V124.793H524.159L518.395 126.999C518.395 124.152 517.873 121.97 516.829 120.452C515.833 118.933 514.267 118.174 512.132 118.174C510.614 118.174 509.309 118.53 508.218 119.242C507.174 119.953 506.368 121.068 505.798 122.587C505.276 124.105 505.016 126.05 505.016 128.422C505.016 130.747 505.324 132.645 505.941 134.115C506.557 135.539 507.435 136.582 508.574 137.247C509.712 137.863 511.088 138.172 512.701 138.172C514.504 138.172 515.928 137.816 516.971 137.104C518.063 136.393 518.869 135.396 519.391 134.115L529.069 137.318C528.405 139.358 527.243 141.09 525.582 142.513C523.969 143.889 522.024 144.933 519.747 145.644C517.517 146.356 515.168 146.712 512.701 146.712ZM536.549 146V110.417H547.366L548.007 122.658L546.655 121.306C547.129 118.744 547.959 116.609 549.145 114.901C550.379 113.193 551.897 111.912 553.7 111.058C555.55 110.156 557.614 109.706 559.891 109.706C562.358 109.706 564.493 110.18 566.296 111.129C568.146 112.078 569.594 113.477 570.637 115.328C571.681 117.178 572.203 119.503 572.203 122.302V146H560.105V125.504C560.105 123.037 559.63 121.329 558.681 120.38C557.733 119.432 556.523 118.957 555.052 118.957C553.913 118.957 552.846 119.242 551.85 119.811C550.853 120.333 550.07 121.187 549.501 122.373C548.932 123.559 548.647 125.149 548.647 127.141V146H536.549ZM595.345 99.102V133.333C595.345 135.041 595.748 136.274 596.555 137.033C597.409 137.745 598.571 138.101 600.042 138.101C601.181 138.101 602.153 137.982 602.96 137.745C603.814 137.46 604.573 137.057 605.237 136.535L606.518 144.007C605.332 144.861 603.837 145.526 602.035 146C600.232 146.474 598.381 146.712 596.484 146.712C593.779 146.712 591.431 146.332 589.438 145.573C587.493 144.814 585.975 143.604 584.884 141.944C583.84 140.283 583.294 138.077 583.247 135.325V102.447L595.345 99.102ZM605.949 110.417V119.028H577.127V110.417H605.949ZM669.956 108.496H645.689V118.459H665.046V127.924H645.689V146H633.448V99.0308H669.956V108.496ZM689.632 109.706C693.38 109.706 696.654 110.441 699.453 111.912C702.299 113.335 704.505 115.446 706.071 118.245C707.684 120.997 708.491 124.318 708.491 128.209C708.491 132.099 707.684 135.444 706.071 138.243C704.505 140.995 702.299 143.106 699.453 144.577C696.654 146 693.38 146.712 689.632 146.712C685.979 146.712 682.729 146 679.882 144.577C677.036 143.106 674.806 140.995 673.193 138.243C671.627 135.444 670.844 132.099 670.844 128.209C670.844 124.318 671.627 120.997 673.193 118.245C674.806 115.446 677.036 113.335 679.882 111.912C682.729 110.441 685.979 109.706 689.632 109.706ZM689.632 118.317C688.256 118.317 687.07 118.649 686.074 119.313C685.077 119.977 684.318 121.045 683.796 122.515C683.274 123.986 683.014 125.884 683.014 128.209C683.014 130.533 683.274 132.431 683.796 133.902C684.318 135.325 685.077 136.393 686.074 137.104C687.07 137.769 688.256 138.101 689.632 138.101C691.055 138.101 692.265 137.769 693.261 137.104C694.258 136.393 695.017 135.325 695.539 133.902C696.061 132.431 696.321 130.533 696.321 128.209C696.321 125.884 696.061 123.986 695.539 122.515C695.017 121.045 694.258 119.977 693.261 119.313C692.265 118.649 691.055 118.317 689.632 118.317ZM715.297 146V110.417H725.971L726.469 118.103C727.371 115.446 728.699 113.383 730.455 111.912C732.258 110.441 734.535 109.706 737.287 109.706C738.188 109.706 738.947 109.777 739.564 109.919C740.228 110.061 740.75 110.251 741.13 110.488L739.92 120.452C739.445 120.262 738.829 120.12 738.069 120.025C737.358 119.882 736.48 119.811 735.436 119.811C734.013 119.811 732.685 120.12 731.451 120.736C730.218 121.353 729.221 122.278 728.462 123.512C727.75 124.698 727.395 126.216 727.395 128.066V146H715.297ZM757.902 146.712C755.483 146.712 753.348 146.308 751.497 145.502C749.695 144.648 748.271 143.296 747.228 141.445C746.184 139.595 745.662 137.175 745.662 134.187V110.417H757.76V131.34C757.76 133.617 758.211 135.207 759.112 136.108C760.014 137.009 761.295 137.46 762.955 137.46C763.809 137.46 764.616 137.318 765.375 137.033C766.134 136.701 766.798 136.227 767.367 135.61C767.937 134.946 768.364 134.115 768.648 133.119C768.98 132.075 769.146 130.865 769.146 129.49V110.417H781.245V146H770.427L770.072 139.31C768.933 141.825 767.344 143.699 765.304 144.933C763.263 146.119 760.796 146.712 757.902 146.712ZM789.937 146V110.417H800.754L801.11 117.32C802.248 114.806 803.838 112.908 805.878 111.627C807.965 110.346 810.361 109.706 813.066 109.706C815.722 109.706 818.023 110.299 819.969 111.485C821.914 112.671 823.361 114.426 824.31 116.751C825.069 115.185 826.041 113.881 827.227 112.837C828.461 111.793 829.861 111.01 831.426 110.488C832.992 109.967 834.605 109.706 836.265 109.706C838.638 109.706 840.725 110.18 842.528 111.129C844.331 112.03 845.754 113.43 846.798 115.328C847.889 117.178 848.435 119.503 848.435 122.302V146H836.337V125.077C836.337 122.8 835.886 121.211 834.984 120.309C834.131 119.408 832.968 118.957 831.497 118.957C830.311 118.957 829.22 119.266 828.224 119.882C827.275 120.452 826.54 121.329 826.018 122.515C825.496 123.702 825.235 125.196 825.235 126.999V146H813.137V125.077C813.137 122.8 812.686 121.211 811.785 120.309C810.883 119.408 809.721 118.957 808.297 118.957C807.206 118.957 806.163 119.242 805.166 119.811C804.217 120.38 803.458 121.282 802.889 122.515C802.32 123.702 802.035 125.267 802.035 127.212V146H789.937Z" fill="#F6DBA8"/>
<path d="M163.975 147.577L89.8504 147.577L89.8504 114.886H107.352L98.783 100.043L127.094 83.6977L163.975 147.577Z" fill="#F6DBA8"/>
<path d="M119.231 70.0782L81.9874 5.57031L44.9254 69.7636L73.2366 86.1091L81.9874 70.9523L90.9198 86.4237L119.231 70.0782Z" fill="#F6DBA8"/>
<path d="M74.124 147.577L74.124 114.886H56.6225L65.3734 99.7286L37.0622 83.3831L0 147.577L74.124 147.577Z" fill="#F6DBA8"/>
</svg>
