<svg width="170" height="63" viewBox="0 0 170 63" fill="none" xmlns="http://www.w3.org/2000/svg">
<path d="M80.4492 35.0137C77.5474 35.6833 74.8801 36.0181 72.4471 36.0181C71.5319 36.0181 70.6614 35.9735 69.8355 35.8842C69.0319 35.8172 68.1614 35.661 67.2239 35.4154C66.2864 35.1476 65.4717 34.8128 64.7798 34.411C64.1101 33.9869 63.5521 33.4065 63.1057 32.6699C62.6592 31.9333 62.436 31.0851 62.436 30.1253V19.8464C62.436 18.5741 62.7597 17.5027 63.407 16.6322C64.0766 15.7394 64.9695 15.092 66.0855 14.6903C67.2016 14.2885 68.2619 14.0095 69.2663 13.8532C70.2708 13.697 71.331 13.6188 72.4471 13.6188C75.1256 13.6188 77.6256 13.7974 79.947 14.1546V16.6657C79.0988 16.4648 77.8823 16.2862 76.2975 16.13C74.7127 15.9514 73.4515 15.8621 72.514 15.8621C67.9382 15.8621 65.6503 17.1791 65.6503 19.813V30.0584C65.6503 30.795 65.8623 31.4311 66.2864 31.9668C66.7329 32.4802 67.3244 32.8708 68.061 33.1387C68.8199 33.3842 69.5565 33.5628 70.2708 33.6744C71.0074 33.7637 71.7998 33.8083 72.648 33.8083C74.1435 33.8083 75.7394 33.6074 77.4358 33.2056V25.6053H72.3466V23.3285H80.4492V35.0137Z" fill="#F6DBA8"/>
<path d="M99.8691 24.9357V30.5606C99.8691 31.565 99.7463 32.4132 99.5008 33.1052C99.2553 33.7972 98.9428 34.3329 98.5633 34.7123C98.1839 35.0918 97.637 35.382 96.9227 35.5828C96.2308 35.7837 95.5611 35.9065 94.9138 35.9511C94.2888 35.9958 93.4518 36.0181 92.4027 36.0181C91.0634 36.0181 90.0143 35.9735 89.2554 35.8842C88.5188 35.7949 87.771 35.5828 87.0121 35.248C86.2755 34.8909 85.7398 34.3329 85.405 33.5739C85.0925 32.815 84.9363 31.8106 84.9363 30.5606V24.9357C84.9363 23.8642 85.059 22.9602 85.3046 22.2236C85.5724 21.487 85.8849 20.9179 86.2421 20.5161C86.6215 20.1143 87.1684 19.813 87.8827 19.6121C88.5969 19.3889 89.2554 19.2549 89.8581 19.2103C90.4831 19.1656 91.3313 19.1433 92.4027 19.1433C93.4741 19.1433 94.3111 19.1656 94.9138 19.2103C95.5388 19.2549 96.2084 19.3889 96.9227 19.6121C97.637 19.813 98.1727 20.1143 98.5298 20.5161C98.9093 20.9179 99.2218 21.487 99.4673 22.2236C99.7352 22.9602 99.8691 23.8642 99.8691 24.9357ZM96.7888 30.9959V24.4334C96.7888 22.9379 96.4875 22.0116 95.8848 21.6545C95.2821 21.2973 94.1214 21.1187 92.4027 21.1187C90.684 21.1187 89.5233 21.2973 88.9206 21.6545C88.3179 22.0116 88.0166 22.9379 88.0166 24.4334V30.9959C88.0166 31.7101 88.0947 32.2793 88.251 32.7034C88.4072 33.1275 88.6974 33.44 89.1215 33.6409C89.5456 33.8195 89.9808 33.9311 90.4273 33.9757C90.8737 34.0204 91.5322 34.0427 92.4027 34.0427C93.2732 34.0427 93.9317 34.0204 94.3781 33.9757C94.8245 33.9311 95.2598 33.8195 95.6839 33.6409C96.108 33.44 96.3982 33.1275 96.5544 32.7034C96.7107 32.2793 96.7888 31.7101 96.7888 30.9959Z" fill="#F6DBA8"/>
<path d="M134.434 13.9537L127.437 35.6833H123.653L118.463 17.6032L113.14 35.6833H109.356L102.56 13.9537H106.008L111.399 32.603H111.466L116.856 13.9537H120.305L125.696 32.603H125.762L131.153 13.9537H134.434Z" fill="#F6DBA8"/>
<path d="M149.299 28.2503H138.418V30.6945C138.418 31.8329 138.819 32.6476 139.623 33.1387C140.426 33.6074 141.621 33.8418 143.205 33.8418C144.746 33.8418 146.565 33.5739 148.663 33.0382V35.3485C146.654 35.7949 144.701 36.0181 142.804 36.0181C137.848 36.0181 135.371 34.3663 135.371 31.0628V24.6678C135.371 22.6812 135.94 21.2638 137.078 20.4156C138.217 19.5674 140.036 19.1433 142.536 19.1433C144.88 19.1433 146.587 19.5563 147.658 20.3821C148.752 21.1857 149.299 22.6143 149.299 24.6678V28.2503ZM146.286 26.2749V23.7303C146.286 22.7482 145.984 22.0786 145.382 21.7214C144.779 21.342 143.775 21.1522 142.368 21.1522C141.029 21.1522 140.036 21.3308 139.389 21.6879C138.741 22.0451 138.418 22.7259 138.418 23.7303V26.2749H146.286Z" fill="#F6DBA8"/>
<path d="M168.992 23.7303V30.3932C168.992 31.3753 168.846 32.2235 168.556 32.9378C168.266 33.6521 167.898 34.2101 167.451 34.6119C167.027 34.9913 166.458 35.2927 165.744 35.5159C165.03 35.7391 164.36 35.873 163.735 35.9177C163.11 35.9846 162.351 36.0181 161.458 36.0181C160.297 36.0181 159.349 35.9623 158.612 35.8507C157.876 35.7391 157.139 35.5047 156.402 35.1476C155.666 34.7904 155.119 34.2213 154.762 33.44C154.405 32.6365 154.226 31.6208 154.226 30.3932V12.2461H157.239V17.1009C157.239 17.525 157.228 18.1724 157.206 19.0429C157.206 19.8911 157.206 20.5272 157.206 20.9513C157.295 20.438 157.753 20.0138 158.579 19.679C159.427 19.3219 160.666 19.1433 162.295 19.1433C166.759 19.1433 168.992 20.6723 168.992 23.7303ZM165.911 30.8284V24.4669C165.911 23.083 165.588 22.2125 164.94 21.8553C164.293 21.4759 163.143 21.2862 161.492 21.2862C159.907 21.2862 158.802 21.4982 158.177 21.9223C157.552 22.3464 157.239 23.1946 157.239 24.4669V30.8284C157.239 32.19 157.541 33.0717 158.143 33.4735C158.768 33.853 159.896 34.0427 161.525 34.0427C163.177 34.0427 164.315 33.853 164.94 33.4735C165.588 33.0717 165.911 32.19 165.911 30.8284Z" fill="#F6DBA8"/>
<path d="M69.2391 56.9268V60.0051C69.2391 60.4588 69.1721 60.8507 69.0381 61.1807C68.904 61.5107 68.7338 61.7685 68.5276 61.9541C68.3317 62.1295 68.0687 62.2687 67.7387 62.3718C67.4087 62.4749 67.0993 62.5368 66.8106 62.5574C66.5218 62.5884 66.1712 62.6038 65.7587 62.6038C65.2225 62.6038 64.7842 62.578 64.4439 62.5265C64.1036 62.4749 63.7633 62.3666 63.4229 62.2016C63.0826 62.0366 62.83 61.7737 62.665 61.4127C62.5 61.0415 62.4175 60.5723 62.4175 60.0051V51.6211H63.8097V53.864C63.8097 54.06 63.8045 54.359 63.7942 54.7612C63.7942 55.1531 63.7942 55.447 63.7942 55.6429C63.8354 55.4058 64.0468 55.2098 64.4284 55.0551C64.8203 54.8901 65.3926 54.8076 66.1454 54.8076C68.2079 54.8076 69.2391 55.514 69.2391 56.9268ZM67.816 60.2062V57.2671C67.816 56.6278 67.6665 56.2256 67.3674 56.0606C67.0684 55.8853 66.5373 55.7976 65.7742 55.7976C65.042 55.7976 64.5315 55.8956 64.2428 56.0915C63.954 56.2875 63.8097 56.6793 63.8097 57.2671V60.2062C63.8097 60.8352 63.9489 61.2426 64.2273 61.4282C64.5161 61.6035 65.0368 61.6912 65.7896 61.6912C66.5528 61.6912 67.0787 61.6035 67.3674 61.4282C67.6665 61.2426 67.816 60.8352 67.816 60.2062Z" fill="#F6DBA8"/>
<path d="M75.4127 55.9987H74.6393C73.9999 55.9987 73.5255 56.0812 73.2162 56.2462C72.9171 56.4112 72.7676 56.7206 72.7676 57.1743V62.4491H71.3754V54.9623H72.6902V56.1843C72.6902 55.8234 72.9119 55.5037 73.3554 55.2253C73.8091 54.9469 74.268 54.8076 74.7321 54.8076H75.4127V55.9987Z" fill="#F6DBA8"/>
<path d="M82.955 59.0151H77.9277V60.1443C77.9277 60.6702 78.1133 61.0466 78.4846 61.2735C78.8558 61.4901 79.4075 61.5984 80.1397 61.5984C80.8513 61.5984 81.6917 61.4746 82.6611 61.2271V62.2945C81.733 62.5007 80.8306 62.6038 79.9541 62.6038C77.6647 62.6038 76.52 61.8407 76.52 60.3145V57.36C76.52 56.4422 76.783 55.7873 77.3089 55.3954C77.8349 55.0036 78.6753 54.8076 79.8303 54.8076C80.9131 54.8076 81.702 54.9984 82.197 55.38C82.7023 55.7512 82.955 56.4112 82.955 57.36V59.0151ZM81.5628 58.1025V56.9268C81.5628 56.4731 81.4236 56.1637 81.1452 55.9987C80.8667 55.8234 80.4027 55.7358 79.753 55.7358C79.1342 55.7358 78.6753 55.8183 78.3763 55.9832C78.0772 56.1482 77.9277 56.4628 77.9277 56.9268V58.1025H81.5628Z" fill="#F6DBA8"/>
<path d="M90.9856 62.4491H89.6399V61.7376C89.5264 62.3151 88.7736 62.6038 87.3814 62.6038C86.3502 62.6038 85.6335 62.4491 85.2313 62.1398C84.8394 61.8201 84.6435 61.1807 84.6435 60.2217C84.6435 59.3863 84.8291 58.814 85.2004 58.5046C85.5716 58.185 86.2883 58.0251 87.3505 58.0251H89.5935V56.834C89.5935 56.4215 89.4645 56.1431 89.2067 55.9987C88.9592 55.8543 88.4849 55.7822 87.7836 55.7822C87.0205 55.7822 86.1646 55.844 85.2158 55.9678V54.9469C86.2368 54.854 87.1597 54.8076 87.9847 54.8076C89.2428 54.8076 90.0575 54.9623 90.4288 55.2717C90.8 55.5708 90.9856 56.1998 90.9856 57.1589V62.4491ZM89.5935 60.9332V58.8914H87.4433C86.8039 58.8914 86.4018 58.9739 86.2368 59.1388C86.0821 59.3038 86.0047 59.6803 86.0047 60.2681C86.0047 60.794 86.0872 61.1652 86.2522 61.3818C86.4275 61.588 86.7885 61.6912 87.335 61.6912H87.6135C87.8816 61.6912 88.1033 61.686 88.2786 61.6757C88.4642 61.6654 88.6705 61.6396 88.8974 61.5984C89.1242 61.5468 89.2944 61.4695 89.4078 61.3663C89.5316 61.2529 89.5935 61.1085 89.5935 60.9332Z" fill="#F6DBA8"/>
<path d="M100.113 62.4491H98.381L94.9624 58.3499L98.118 54.9623H99.8195L96.5711 58.3499L100.113 62.4491ZM94.7922 62.4491H93.4001V51.6211H94.7922V62.4491Z" fill="#F6DBA8"/>
<path d="M109.613 62.4801C109.118 62.5626 108.598 62.6038 108.051 62.6038C107.113 62.6038 106.458 62.444 106.087 62.1243C105.715 61.7943 105.53 61.1756 105.53 60.2681V55.875H103.859V54.9623H105.53V52.642H106.937V54.9623H109.613V55.875H106.937V60.3454C106.937 60.8816 107.04 61.2426 107.247 61.4282C107.453 61.6035 107.871 61.6912 108.5 61.6912C108.665 61.6912 109.036 61.6499 109.613 61.5674V62.4801Z" fill="#F6DBA8"/>
<path d="M117.585 62.4491H116.193V57.0506C116.193 56.865 116.177 56.7103 116.146 56.5865C116.116 56.4628 116.048 56.339 115.945 56.2153C115.853 56.0812 115.688 55.9832 115.45 55.9214C115.223 55.8492 114.935 55.8131 114.584 55.8131C113.728 55.8131 113.171 55.9059 112.914 56.0915C112.656 56.2772 112.527 56.5968 112.527 57.0506V62.4491H111.135V51.6211H112.527V55.875C112.671 55.1634 113.491 54.8076 114.986 54.8076C115.976 54.8076 116.657 54.9881 117.028 55.349C117.399 55.6997 117.585 56.2359 117.585 56.9578V62.4491Z" fill="#F6DBA8"/>
<path d="M126.158 59.0151H121.131V60.1443C121.131 60.6702 121.317 61.0466 121.688 61.2735C122.059 61.4901 122.611 61.5984 123.343 61.5984C124.055 61.5984 124.895 61.4746 125.865 61.2271V62.2945C124.936 62.5007 124.034 62.6038 123.157 62.6038C120.868 62.6038 119.723 61.8407 119.723 60.3145V57.36C119.723 56.4422 119.986 55.7873 120.512 55.3954C121.038 55.0036 121.879 54.8076 123.034 54.8076C124.117 54.8076 124.905 54.9984 125.4 55.38C125.906 55.7512 126.158 56.4112 126.158 57.36V59.0151ZM124.766 58.1025V56.9268C124.766 56.4731 124.627 56.1637 124.349 55.9987C124.07 55.8234 123.606 55.7358 122.956 55.7358C122.338 55.7358 121.879 55.8183 121.58 55.9832C121.281 56.1482 121.131 56.4628 121.131 56.9268V58.1025H124.766Z" fill="#F6DBA8"/>
<path d="M133.237 62.4491H131.845V51.6211H133.237V62.4491Z" fill="#F6DBA8"/>
<path d="M137.044 53.7094H135.652V52.2553H137.044V53.7094ZM137.044 62.4491H135.652V54.9623H137.044V62.4491Z" fill="#F6DBA8"/>
<path d="M150.813 62.4491H149.42V57.0506C149.42 56.865 149.405 56.7103 149.374 56.5865C149.343 56.4628 149.276 56.339 149.173 56.2153C149.08 56.0812 148.915 55.9832 148.678 55.9214C148.451 55.8492 148.162 55.8131 147.812 55.8131C146.997 55.8131 146.471 55.9007 146.234 56.0761C146.007 56.2514 145.893 56.5762 145.893 57.0506V62.4491H144.501V57.0506C144.501 56.865 144.486 56.7103 144.455 56.5865C144.424 56.4628 144.357 56.339 144.254 56.2153C144.161 56.0812 144.001 55.9832 143.774 55.9214C143.547 55.8492 143.259 55.8131 142.908 55.8131C142.083 55.8131 141.531 55.9007 141.253 56.0761C140.985 56.2411 140.851 56.5659 140.851 57.0506V62.4491H139.459V54.9623H140.851V55.875C140.995 55.1634 141.836 54.8076 143.372 54.8076C144.62 54.8076 145.398 55.1479 145.708 55.8286C145.811 55.4779 146.1 55.2201 146.574 55.0551C147.059 54.8901 147.626 54.8076 148.276 54.8076C149.235 54.8076 149.895 54.9881 150.256 55.349C150.627 55.6997 150.813 56.2359 150.813 56.9578V62.4491Z" fill="#F6DBA8"/>
<path d="M154.612 53.7094H153.22V52.2553H154.612V53.7094ZM154.612 62.4491H153.22V54.9623H154.612V62.4491Z" fill="#F6DBA8"/>
<path d="M161.729 62.4801C161.234 62.5626 160.714 62.6038 160.167 62.6038C159.229 62.6038 158.574 62.444 158.203 62.1243C157.831 61.7943 157.646 61.1756 157.646 60.2681V55.875H155.975V54.9623H157.646V52.642H159.053V54.9623H161.729V55.875H159.053V60.3454C159.053 60.8816 159.156 61.2426 159.363 61.4282C159.569 61.6035 159.987 61.6912 160.616 61.6912C160.781 61.6912 161.152 61.6499 161.729 61.5674V62.4801Z" fill="#F6DBA8"/>
<path d="M168.804 59.8195V60.4692C168.804 61.2735 168.52 61.8304 167.953 62.1398C167.396 62.4491 166.592 62.6038 165.54 62.6038C164.736 62.6038 163.88 62.5419 162.972 62.4182V61.3509C164.21 61.5468 165.076 61.6448 165.571 61.6448C166.19 61.6448 166.654 61.588 166.963 61.4746C167.272 61.3509 167.427 61.1034 167.427 60.7321V59.9742C167.427 59.6545 167.319 59.4276 167.102 59.2935C166.886 59.1595 166.535 59.0924 166.05 59.0924H165.2C164.416 59.0924 163.823 58.9326 163.421 58.6129C163.019 58.2829 162.817 57.8343 162.817 57.2671V56.5711C162.817 55.3954 163.931 54.8076 166.159 54.8076C166.406 54.8076 167.164 54.8489 168.433 54.9314V55.9368C167.546 55.7925 166.767 55.7203 166.097 55.7203C165.354 55.7203 164.849 55.7925 164.581 55.9368C164.323 56.0812 164.194 56.3236 164.194 56.6639V57.2981C164.194 57.8034 164.653 58.056 165.571 58.056H166.437C168.015 58.056 168.804 58.6439 168.804 59.8195Z" fill="#F6DBA8"/>
<rect x="62.6294" y="43.332" width="106.891" height="1.9647" fill="#F6DBA8"/>
<path d="M53.4022 12.1604L49.479 18.9556H41.6327L37.7095 12.1604L41.6327 5.36523L49.479 5.36523L53.4022 12.1604Z" fill="#F6DBA8"/>
<path d="M37.711 4.26913L35.4762 8.13983H31.0067L28.772 4.26913L31.0067 0.398438L35.4762 0.398438L37.711 4.26913Z" fill="#F6DBA8"/>
<path d="M36.654 18.4815L34.3124 22.5373H29.6292L27.2876 18.4815L29.6292 14.4258L34.3124 14.4258L36.654 18.4815Z" fill="#F6DBA8"/>
<path d="M27.2866 25.7649L23.5647 32.2115H16.1209L12.3989 25.7649L16.1209 19.3184L23.5647 19.3184L27.2866 25.7649Z" fill="#F6DBA8"/>
<path d="M45.5114 35.6841L40.9554 43.5752H31.8435L27.2876 35.6841L31.8435 27.793L40.9554 27.793L45.5114 35.6841Z" fill="#F6DBA8"/>
<path d="M36.6539 53.149L34.1593 57.4699H29.17L26.6753 53.149L29.17 48.8281L34.1593 48.8281L36.6539 53.149Z" fill="#F6DBA8"/>
<path d="M46.8126 58.833L44.7248 62.4491H40.5492L38.4614 58.833L40.5492 55.2168L44.7248 55.2168L46.8126 58.833Z" fill="#F6DBA8"/>
<path d="M25.9956 45.298L22.2241 51.8304H14.6811L10.9097 45.298L14.6811 38.7656L22.2241 38.7656L25.9956 45.298Z" fill="#F6DBA8"/>
<path d="M11.9139 34.8907L9.00344 39.9318H3.18246L0.271973 34.8907L3.18246 29.8496L9.00344 29.8496L11.9139 34.8907Z" fill="#F6DBA8"/>
</svg>
