<svg width="25" height="26" viewBox="0 0 25 26" fill="none" xmlns="http://www.w3.org/2000/svg">
<path fill-rule="evenodd" clip-rule="evenodd" d="M3.08901e-07 2.34203C3.08901e-07 1.78855 0.219869 1.25774 0.611239 0.866368C1.00261 0.474999 1.53342 0.25513 2.0869 0.25513H22.89C23.1643 0.254682 23.436 0.308339 23.6895 0.413029C23.943 0.517718 24.1734 0.671385 24.3675 0.865231C24.5615 1.05908 24.7155 1.2893 24.8204 1.54271C24.9254 1.79611 24.9793 2.06774 24.9792 2.34203V23.1452C24.9795 23.4195 24.9257 23.6912 24.8209 23.9447C24.7161 24.1983 24.5623 24.4286 24.3684 24.6227C24.1744 24.8167 23.9441 24.9706 23.6907 25.0756C23.4372 25.1805 23.1655 25.2345 22.8912 25.2343H2.0869C1.81275 25.2343 1.54128 25.1803 1.28801 25.0754C1.03475 24.9704 0.804638 24.8166 0.610837 24.6227C0.417036 24.4288 0.26334 24.1986 0.15853 23.9453C0.0537203 23.6919 -0.000148848 23.4204 3.08901e-07 23.1463V2.34203ZM9.88722 9.77902H13.2696V11.4776C13.7579 10.5011 15.0068 9.62233 16.8837 9.62233C20.4818 9.62233 21.3345 11.5673 21.3345 15.1359V21.7463H17.6932V15.9489C17.6932 13.9165 17.205 12.7697 15.9651 12.7697C14.245 12.7697 13.5296 14.0062 13.5296 15.9489V21.7463H9.88722V9.77902ZM3.64242 21.5908H7.28484V9.62233H3.64242V21.5896V21.5908ZM7.806 5.71876C7.81287 6.03063 7.75737 6.34073 7.64277 6.63086C7.52817 6.92099 7.35677 7.18531 7.13864 7.4083C6.9205 7.63129 6.66002 7.80847 6.37248 7.92943C6.08495 8.05039 5.77614 8.1127 5.4642 8.1127C5.15226 8.1127 4.84345 8.05039 4.55592 7.92943C4.26838 7.80847 4.0079 7.63129 3.78976 7.4083C3.57163 7.18531 3.40023 6.92099 3.28563 6.63086C3.17103 6.34073 3.11553 6.03063 3.1224 5.71876C3.13588 5.10661 3.38852 4.52406 3.82623 4.09589C4.26393 3.66772 4.8519 3.42796 5.4642 3.42796C6.0765 3.42796 6.66447 3.66772 7.10217 4.09589C7.53987 4.52406 7.79252 5.10661 7.806 5.71876V5.71876Z" fill="white"/>
</svg>
