<svg width="28" height="28" viewBox="0 0 28 28" fill="none" xmlns="http://www.w3.org/2000/svg">
<path fill-rule="evenodd" clip-rule="evenodd" d="M8.89227 1.24497C10.2119 1.18197 10.6326 1.16797 13.9941 1.16797C17.3556 1.16797 17.7764 1.18314 19.0949 1.24497C20.4134 1.3068 21.3134 1.52497 22.1009 1.84114C22.9255 2.1643 23.6736 2.66947 24.2924 3.3228C24.9224 3.9633 25.4084 4.73797 25.7189 5.5943C26.0249 6.41097 26.2341 7.3443 26.2949 8.7093C26.3556 10.0801 26.3691 10.5165 26.3691 14.0013C26.3691 17.4873 26.3545 17.9236 26.2949 19.2921C26.2353 20.6571 26.0249 21.5905 25.7189 22.4071C25.4084 23.2636 24.9216 24.0395 24.2924 24.681C23.6736 25.3343 22.9255 25.8383 22.1009 26.1603C21.3134 26.4776 20.4134 26.6946 19.0971 26.7576C17.7764 26.8206 17.3556 26.8346 13.9941 26.8346C10.6326 26.8346 10.2119 26.8195 8.89227 26.7576C7.57602 26.6958 6.67602 26.4776 5.88852 26.1603C5.06268 25.8383 4.31444 25.3334 3.69589 24.681C3.06632 24.0401 2.57912 23.2645 2.26827 22.4083C1.96339 21.5916 1.75414 20.6583 1.69339 19.2933C1.63264 17.9225 1.61914 17.4861 1.61914 14.0013C1.61914 10.5153 1.63377 10.079 1.69339 8.71164C1.75302 7.3443 1.96339 6.41097 2.26827 5.5943C2.57958 4.73806 3.06715 3.9625 3.69702 3.32164C4.31469 2.66889 5.06217 2.16365 5.88739 1.84114C6.67489 1.52497 7.57489 1.30797 8.89114 1.24497H8.89227ZM18.9948 3.55497C17.6898 3.49314 17.2983 3.4803 13.9941 3.4803C10.69 3.4803 10.2985 3.49314 8.99352 3.55497C7.78639 3.61214 7.13164 3.82097 6.69514 3.99714C6.11802 4.23047 5.70514 4.50697 5.27202 4.95614C4.86144 5.37036 4.54547 5.87463 4.34727 6.43197C4.17739 6.88464 3.97602 7.56364 3.92089 8.81547C3.86127 10.1688 3.84889 10.5748 3.84889 14.0013C3.84889 17.4278 3.86127 17.8338 3.92089 19.1871C3.97602 20.439 4.17739 21.118 4.34727 21.5706C4.54527 22.1271 4.86139 22.6323 5.27202 23.0465C5.67139 23.4723 6.15852 23.8001 6.69514 24.0055C7.13164 24.1816 7.78639 24.3905 8.99352 24.4476C10.2985 24.5095 10.6889 24.5223 13.9941 24.5223C17.2994 24.5223 17.6898 24.5095 18.9948 24.4476C20.2019 24.3905 20.8566 24.1816 21.2931 24.0055C21.8703 23.7721 22.2831 23.4956 22.7163 23.0465C23.1269 22.6323 23.443 22.1271 23.641 21.5706C23.8109 21.118 24.0123 20.439 24.0674 19.1871C24.127 17.8338 24.1394 17.4278 24.1394 14.0013C24.1394 10.5748 24.127 10.1688 24.0674 8.81547C24.0123 7.56364 23.8109 6.88464 23.641 6.43197C23.416 5.83347 23.1494 5.4053 22.7163 4.95614C22.3168 4.53039 21.8306 4.20271 21.2931 3.99714C20.8566 3.82097 20.2019 3.61214 18.9948 3.55497V3.55497ZM12.4135 17.9575C13.2963 18.3385 14.2792 18.39 15.1944 18.103C16.1097 17.816 16.9005 17.2084 17.4317 16.3839C17.9629 15.5595 18.2017 14.5693 18.1072 13.5826C18.0127 12.5959 17.5908 11.6738 16.9135 10.9738C16.4818 10.5264 15.9598 10.1837 15.385 9.97064C14.8103 9.75753 14.1971 9.67922 13.5897 9.74135C12.9823 9.80348 12.3957 10.0045 11.8722 10.33C11.3487 10.6554 10.9012 11.0972 10.5621 11.6235C10.223 12.1498 10.0006 12.7475 9.91097 13.3736C9.82134 13.9997 9.86669 14.6386 10.0437 15.2444C10.2208 15.8502 10.5252 16.4077 10.935 16.8768C11.3447 17.3459 11.8497 17.715 12.4135 17.9575ZM9.49639 9.33697C10.087 8.72444 10.7883 8.23856 11.56 7.90706C12.3317 7.57556 13.1588 7.40494 13.9941 7.40494C14.8295 7.40494 15.6566 7.57556 16.4283 7.90706C17.2 8.23855 17.9012 8.72444 18.4919 9.33697C19.0825 9.9495 19.5511 10.6767 19.8707 11.477C20.1904 12.2773 20.3549 13.1351 20.3549 14.0013C20.3549 14.8675 20.1904 15.7253 19.8707 16.5256C19.5511 17.3259 19.0825 18.0531 18.4919 18.6656C17.299 19.9027 15.6811 20.5977 13.9941 20.5977C12.3072 20.5977 10.6893 19.9027 9.49639 18.6656C8.30351 17.4286 7.63336 15.7508 7.63336 14.0013C7.63336 12.2518 8.30351 10.574 9.49639 9.33697V9.33697ZM21.7656 8.3873C21.912 8.24412 22.0292 8.07193 22.1102 7.88094C22.1913 7.68995 22.2346 7.48403 22.2375 7.27539C22.2404 7.06674 22.203 6.85961 22.1273 6.66625C22.0517 6.47289 21.9394 6.29723 21.7971 6.14968C21.6548 6.00213 21.4854 5.88569 21.299 5.80724C21.1125 5.72879 20.9128 5.68994 20.7116 5.69298C20.5104 5.69602 20.3118 5.7409 20.1277 5.82495C19.9435 5.909 19.7775 6.03051 19.6394 6.1823C19.3709 6.4775 19.2239 6.86961 19.2296 7.27539C19.2353 7.68116 19.3932 8.06866 19.6699 8.35562C19.9467 8.64258 20.3203 8.8064 20.7116 8.81232C21.1029 8.81823 21.481 8.66577 21.7656 8.3873V8.3873Z" fill="white"/>
</svg>
