<svg width="213" height="48" viewBox="0 0 213 48" fill="none" xmlns="http://www.w3.org/2000/svg">
<path d="M56.46 19V5.8H66.74V8.46H59.9V11.14H65.34V13.64H59.9V16.34H67V19H56.46ZM68.8372 19V9H71.8772L71.9772 10.94C72.2972 10.2333 72.7439 9.7 73.3172 9.34C73.9039 8.98 74.5772 8.8 75.3372 8.8C76.0839 8.8 76.7305 8.96667 77.2772 9.3C77.8239 9.63333 78.2305 10.1267 78.4972 10.78C78.7105 10.34 78.9839 9.97333 79.3172 9.68C79.6639 9.38667 80.0572 9.16667 80.4972 9.02C80.9372 8.87333 81.3905 8.8 81.8572 8.8C82.5239 8.8 83.1105 8.93333 83.6172 9.2C84.1239 9.45333 84.5239 9.84667 84.8172 10.38C85.1239 10.9 85.2772 11.5533 85.2772 12.34V19H81.8772V13.12C81.8772 12.48 81.7505 12.0333 81.4972 11.78C81.2572 11.5267 80.9305 11.4 80.5172 11.4C80.1839 11.4 79.8772 11.4867 79.5972 11.66C79.3305 11.82 79.1239 12.0667 78.9772 12.4C78.8305 12.7333 78.7572 13.1533 78.7572 13.66V19H75.3572V13.12C75.3572 12.48 75.2305 12.0333 74.9772 11.78C74.7239 11.5267 74.3972 11.4 73.9972 11.4C73.6905 11.4 73.3972 11.48 73.1172 11.64C72.8505 11.8 72.6372 12.0533 72.4772 12.4C72.3172 12.7333 72.2372 13.1733 72.2372 13.72V19H68.8372ZM98.0873 5.8V8.46H93.7873V19H90.3473V8.46H86.0273V5.8H98.0873ZM102.838 19.2C101.732 19.2 100.772 18.9933 99.9583 18.58C99.1583 18.1667 98.5383 17.5733 98.0983 16.8C97.6583 16.0267 97.4383 15.0933 97.4383 14C97.4383 12.9067 97.6583 11.9733 98.0983 11.2C98.5383 10.4267 99.1516 9.83333 99.9383 9.42C100.738 9.00667 101.652 8.8 102.678 8.8C103.732 8.8 104.625 9.00667 105.358 9.42C106.105 9.82 106.672 10.38 107.058 11.1C107.445 11.8067 107.638 12.62 107.638 13.54C107.638 13.78 107.632 14.02 107.618 14.26C107.605 14.5 107.585 14.7 107.558 14.86H99.6383V13.04H106.058L104.438 13.66C104.438 12.86 104.292 12.2467 103.998 11.82C103.718 11.3933 103.278 11.18 102.678 11.18C102.252 11.18 101.885 11.28 101.578 11.48C101.285 11.68 101.058 11.9933 100.898 12.42C100.752 12.8467 100.678 13.3933 100.678 14.06C100.678 14.7133 100.765 15.2467 100.938 15.66C101.112 16.06 101.358 16.3533 101.678 16.54C101.998 16.7133 102.385 16.8 102.838 16.8C103.345 16.8 103.745 16.7 104.038 16.5C104.345 16.3 104.572 16.02 104.718 15.66L107.438 16.56C107.252 17.1333 106.925 17.62 106.458 18.02C106.005 18.4067 105.458 18.7 104.818 18.9C104.192 19.1 103.532 19.2 102.838 19.2ZM114.28 8.8C115.294 8.8 116.134 8.94667 116.8 9.24C117.48 9.52 118.007 9.9 118.38 10.38C118.767 10.8467 119.007 11.3533 119.1 11.9L115.96 12.94C115.867 12.3667 115.694 11.94 115.44 11.66C115.2 11.3667 114.847 11.22 114.38 11.22C113.954 11.22 113.594 11.32 113.3 11.52C113.02 11.7067 112.807 12.0133 112.66 12.44C112.514 12.8533 112.44 13.3867 112.44 14.04C112.44 14.6933 112.52 15.2267 112.68 15.64C112.84 16.04 113.067 16.3333 113.36 16.52C113.654 16.6933 114 16.78 114.4 16.78C114.734 16.78 115.007 16.72 115.22 16.6C115.447 16.4667 115.634 16.28 115.78 16.04C115.927 15.8 116.02 15.5067 116.06 15.16L119.12 16.14C119.027 16.7267 118.774 17.2533 118.36 17.72C117.96 18.1733 117.427 18.5333 116.76 18.8C116.094 19.0667 115.314 19.2 114.42 19.2C113.327 19.2 112.374 19 111.56 18.6C110.747 18.1867 110.12 17.5933 109.68 16.82C109.24 16.0333 109.02 15.0933 109.02 14C109.02 12.9067 109.24 11.9733 109.68 11.2C110.12 10.4133 110.734 9.82 111.52 9.42C112.32 9.00667 113.24 8.8 114.28 8.8ZM120.888 19V4.76H124.288V10.82C124.581 10.1533 125.001 9.65333 125.548 9.32C126.095 8.97333 126.728 8.8 127.448 8.8C128.141 8.8 128.741 8.93333 129.248 9.2C129.768 9.46667 130.175 9.86 130.468 10.38C130.761 10.9 130.908 11.5533 130.908 12.34V19H127.508V13.28C127.508 12.56 127.375 12.0667 127.108 11.8C126.855 11.52 126.515 11.38 126.088 11.38C125.768 11.38 125.468 11.46 125.188 11.62C124.908 11.78 124.688 12.0333 124.528 12.38C124.368 12.7267 124.288 13.18 124.288 13.74V19H120.888ZM59.9 29.8V43H56.46V29.8H59.9ZM62.5481 43V33H65.5881L65.7681 36.44L65.3881 36.06C65.5215 35.34 65.7548 34.74 66.0881 34.26C66.4348 33.78 66.8615 33.42 67.3681 33.18C67.8881 32.9267 68.4681 32.8 69.1081 32.8C69.8015 32.8 70.4015 32.9333 70.9081 33.2C71.4281 33.4667 71.8348 33.86 72.1281 34.38C72.4215 34.9 72.5681 35.5533 72.5681 36.34V43H69.1681V37.24C69.1681 36.5467 69.0348 36.0667 68.7681 35.8C68.5015 35.5333 68.1615 35.4 67.7481 35.4C67.4281 35.4 67.1281 35.48 66.8481 35.64C66.5681 35.7867 66.3481 36.0267 66.1881 36.36C66.0281 36.6933 65.9481 37.14 65.9481 37.7V43H62.5481ZM81.2161 33H84.7361L81.1361 43H77.0761L73.4761 33H77.0561L79.1161 40.62L81.2161 33ZM90.6313 43.2C89.5246 43.2 88.5646 42.9933 87.7513 42.58C86.9513 42.1667 86.3313 41.5733 85.8913 40.8C85.4513 40.0267 85.2313 39.0933 85.2313 38C85.2313 36.9067 85.4513 35.9733 85.8913 35.2C86.3313 34.4267 86.9446 33.8333 87.7313 33.42C88.5313 33.0067 89.4446 32.8 90.4713 32.8C91.5246 32.8 92.4179 33.0067 93.1513 33.42C93.8979 33.82 94.4646 34.38 94.8513 35.1C95.2379 35.8067 95.4313 36.62 95.4313 37.54C95.4313 37.78 95.4246 38.02 95.4113 38.26C95.3979 38.5 95.3779 38.7 95.3513 38.86H87.4313V37.04H93.8513L92.2313 37.66C92.2313 36.86 92.0846 36.2467 91.7913 35.82C91.5113 35.3933 91.0713 35.18 90.4713 35.18C90.0446 35.18 89.6779 35.28 89.3713 35.48C89.0779 35.68 88.8513 35.9933 88.6913 36.42C88.5446 36.8467 88.4713 37.3933 88.4713 38.06C88.4713 38.7133 88.5579 39.2467 88.7313 39.66C88.9046 40.06 89.1513 40.3533 89.4713 40.54C89.7913 40.7133 90.1779 40.8 90.6313 40.8C91.1379 40.8 91.5379 40.7 91.8313 40.5C92.1379 40.3 92.3646 40.02 92.5113 39.66L95.2313 40.56C95.0446 41.1333 94.7179 41.62 94.2513 42.02C93.7979 42.4067 93.2513 42.7 92.6113 42.9C91.9846 43.1 91.3246 43.2 90.6313 43.2ZM101.533 43.2C100.533 43.2 99.5999 43.04 98.7333 42.72C97.8799 42.3867 97.1733 41.9133 96.6133 41.3L98.2133 39.42C98.5466 39.8467 98.9866 40.2067 99.5333 40.5C100.093 40.78 100.713 40.92 101.393 40.92C101.807 40.92 102.147 40.86 102.413 40.74C102.68 40.62 102.813 40.4333 102.813 40.18C102.813 39.9933 102.747 39.8467 102.613 39.74C102.48 39.62 102.213 39.52 101.813 39.44L100.413 39.16C99.1599 38.9067 98.2666 38.5333 97.7333 38.04C97.2133 37.5333 96.9533 36.8733 96.9533 36.06C96.9533 35.5133 97.1199 34.9933 97.4533 34.5C97.7866 33.9933 98.2999 33.5867 98.9933 33.28C99.6866 32.96 100.573 32.8 101.653 32.8C102.667 32.8 103.56 32.9467 104.333 33.24C105.107 33.5333 105.72 33.96 106.173 34.52L104.553 36.36C104.233 35.96 103.82 35.6467 103.313 35.42C102.807 35.1933 102.3 35.08 101.793 35.08C101.473 35.08 101.2 35.1133 100.973 35.18C100.76 35.2333 100.6 35.3133 100.493 35.42C100.387 35.5267 100.333 35.66 100.333 35.82C100.333 35.9933 100.413 36.1467 100.573 36.28C100.747 36.4 101.06 36.5067 101.513 36.6L103.333 36.96C104.36 37.1467 105.1 37.4867 105.553 37.98C106.007 38.4733 106.233 39.0667 106.233 39.76C106.233 40.4133 106.06 41 105.713 41.52C105.367 42.04 104.847 42.4533 104.153 42.76C103.46 43.0533 102.587 43.2 101.533 43.2ZM112.177 29.82V39.44C112.177 39.92 112.291 40.2667 112.517 40.48C112.757 40.68 113.084 40.78 113.497 40.78C113.817 40.78 114.091 40.7467 114.317 40.68C114.557 40.6 114.771 40.4867 114.957 40.34L115.317 42.44C114.984 42.68 114.564 42.8667 114.057 43C113.551 43.1333 113.031 43.2 112.497 43.2C111.737 43.2 111.077 43.0933 110.517 42.88C109.971 42.6667 109.544 42.3267 109.237 41.86C108.944 41.3933 108.791 40.7733 108.777 40V30.76L112.177 29.82ZM115.157 33V35.42H107.057V33H115.157ZM116.728 43V33H119.768L119.868 34.94C120.188 34.2333 120.634 33.7 121.208 33.34C121.794 32.98 122.468 32.8 123.228 32.8C123.974 32.8 124.621 32.9667 125.168 33.3C125.714 33.6333 126.121 34.1267 126.388 34.78C126.601 34.34 126.874 33.9733 127.208 33.68C127.554 33.3867 127.948 33.1667 128.388 33.02C128.828 32.8733 129.281 32.8 129.748 32.8C130.414 32.8 131.001 32.9333 131.508 33.2C132.014 33.4533 132.414 33.8467 132.708 34.38C133.014 34.9 133.168 35.5533 133.168 36.34V43H129.768V37.12C129.768 36.48 129.641 36.0333 129.388 35.78C129.148 35.5267 128.821 35.4 128.408 35.4C128.074 35.4 127.768 35.4867 127.488 35.66C127.221 35.82 127.014 36.0667 126.868 36.4C126.721 36.7333 126.648 37.1533 126.648 37.66V43H123.248V37.12C123.248 36.48 123.121 36.0333 122.868 35.78C122.614 35.5267 122.288 35.4 121.888 35.4C121.581 35.4 121.288 35.48 121.008 35.64C120.741 35.8 120.528 36.0533 120.368 36.4C120.208 36.7333 120.128 37.1733 120.128 37.72V43H116.728ZM140.436 43.2C139.329 43.2 138.369 42.9933 137.556 42.58C136.756 42.1667 136.136 41.5733 135.696 40.8C135.256 40.0267 135.036 39.0933 135.036 38C135.036 36.9067 135.256 35.9733 135.696 35.2C136.136 34.4267 136.749 33.8333 137.536 33.42C138.336 33.0067 139.249 32.8 140.276 32.8C141.329 32.8 142.223 33.0067 142.956 33.42C143.703 33.82 144.269 34.38 144.656 35.1C145.043 35.8067 145.236 36.62 145.236 37.54C145.236 37.78 145.229 38.02 145.216 38.26C145.203 38.5 145.183 38.7 145.156 38.86H137.236V37.04H143.656L142.036 37.66C142.036 36.86 141.889 36.2467 141.596 35.82C141.316 35.3933 140.876 35.18 140.276 35.18C139.849 35.18 139.483 35.28 139.176 35.48C138.883 35.68 138.656 35.9933 138.496 36.42C138.349 36.8467 138.276 37.3933 138.276 38.06C138.276 38.7133 138.363 39.2467 138.536 39.66C138.709 40.06 138.956 40.3533 139.276 40.54C139.596 40.7133 139.983 40.8 140.436 40.8C140.943 40.8 141.343 40.7 141.636 40.5C141.943 40.3 142.169 40.02 142.316 39.66L145.036 40.56C144.849 41.1333 144.523 41.62 144.056 42.02C143.603 42.4067 143.056 42.7 142.416 42.9C141.789 43.1 141.129 43.2 140.436 43.2ZM147.138 43V33H150.178L150.358 36.44L149.978 36.06C150.111 35.34 150.345 34.74 150.678 34.26C151.025 33.78 151.451 33.42 151.958 33.18C152.478 32.9267 153.058 32.8 153.698 32.8C154.391 32.8 154.991 32.9333 155.498 33.2C156.018 33.4667 156.425 33.86 156.718 34.38C157.011 34.9 157.158 35.5533 157.158 36.34V43H153.758V37.24C153.758 36.5467 153.625 36.0667 153.358 35.8C153.091 35.5333 152.751 35.4 152.338 35.4C152.018 35.4 151.718 35.48 151.438 35.64C151.158 35.7867 150.938 36.0267 150.778 36.36C150.618 36.6933 150.538 37.14 150.538 37.7V43H147.138ZM163.662 29.82V39.44C163.662 39.92 163.775 40.2667 164.002 40.48C164.242 40.68 164.568 40.78 164.982 40.78C165.302 40.78 165.575 40.7467 165.802 40.68C166.042 40.6 166.255 40.4867 166.442 40.34L166.802 42.44C166.468 42.68 166.048 42.8667 165.542 43C165.035 43.1333 164.515 43.2 163.982 43.2C163.222 43.2 162.562 43.0933 162.002 42.88C161.455 42.6667 161.028 42.3267 160.722 41.86C160.428 41.3933 160.275 40.7733 160.262 40V30.76L163.662 29.82ZM166.642 33V35.42H158.542V33H166.642ZM186.095 29.8V43H182.655V29.8H186.095ZM177.615 29.8V43H174.175V29.8H177.615ZM184.495 35.02V37.68H175.855V35.02H184.495ZM192.1 43.2C191.42 43.2 190.82 43.0867 190.3 42.86C189.793 42.62 189.393 42.24 189.1 41.72C188.807 41.2 188.66 40.52 188.66 39.68V33H192.06V38.88C192.06 39.52 192.187 39.9667 192.44 40.22C192.693 40.4733 193.053 40.6 193.52 40.6C193.76 40.6 193.987 40.56 194.2 40.48C194.413 40.3867 194.6 40.2533 194.76 40.08C194.92 39.8933 195.04 39.66 195.12 39.38C195.213 39.0867 195.26 38.7467 195.26 38.36V33H198.66V43H195.62L195.52 41.12C195.2 41.8267 194.753 42.3533 194.18 42.7C193.607 43.0333 192.913 43.2 192.1 43.2ZM207.523 43.2C206.869 43.2 206.289 43.0533 205.783 42.76C205.289 42.4667 204.883 42.0667 204.563 41.56C204.243 41.04 204.036 40.4533 203.943 39.8L204.263 39.38L204.083 43H201.103V28.76H204.503V36.14L204.183 35.66C204.369 34.8333 204.749 34.1533 205.323 33.62C205.896 33.0733 206.669 32.8 207.643 32.8C208.416 32.8 209.103 33.0067 209.703 33.42C210.316 33.8333 210.789 34.4333 211.123 35.22C211.469 35.9933 211.643 36.9333 211.643 38.04C211.643 39.12 211.469 40.0467 211.123 40.82C210.776 41.5933 210.296 42.1867 209.683 42.6C209.069 43 208.349 43.2 207.523 43.2ZM206.343 40.7C206.929 40.7 207.389 40.4867 207.723 40.06C208.056 39.62 208.223 38.9333 208.223 38C208.223 37.0667 208.056 36.3867 207.723 35.96C207.389 35.52 206.929 35.3 206.343 35.3C205.956 35.3 205.623 35.4133 205.343 35.64C205.076 35.8533 204.869 36.16 204.723 36.56C204.576 36.96 204.503 37.4467 204.503 38.02C204.503 38.5933 204.576 39.08 204.723 39.48C204.869 39.88 205.083 40.1867 205.363 40.4C205.643 40.6 205.969 40.7 206.343 40.7Z" fill="white"/>
<path d="M46.188 43L25.3088 43L25.3088 33.7917H30.2387L27.825 29.6109L35.7996 25.0067L46.188 43Z" fill="#F6DBA8"/>
<path d="M33.5847 21.1704L23.094 3L12.6545 21.0818L20.6291 25.686L23.094 21.4166L25.6101 25.7746L33.5847 21.1704Z" fill="#F6DBA8"/>
<path d="M20.8791 43L20.8791 33.7917H15.9493L18.4142 29.5223L10.4396 24.9181L0 43L20.8791 43Z" fill="#F6DBA8"/>
</svg>
