<svg width="268" height="48" viewBox="0 0 268 48" fill="none" xmlns="http://www.w3.org/2000/svg">
<path d="M59.9 5.8V19H56.46V5.8H59.9ZM62.5481 19V9H65.5881L65.7681 12.44L65.3881 12.06C65.5215 11.34 65.7548 10.74 66.0881 10.26C66.4348 9.78 66.8615 9.42 67.3681 9.18C67.8881 8.92667 68.4681 8.8 69.1081 8.8C69.8015 8.8 70.4015 8.93333 70.9081 9.2C71.4281 9.46667 71.8348 9.86 72.1281 10.38C72.4215 10.9 72.5681 11.5533 72.5681 12.34V19H69.1681V13.24C69.1681 12.5467 69.0348 12.0667 68.7681 11.8C68.5015 11.5333 68.1615 11.4 67.7481 11.4C67.4281 11.4 67.1281 11.48 66.8481 11.64C66.5681 11.7867 66.3481 12.0267 66.1881 12.36C66.0281 12.6933 65.9481 13.14 65.9481 13.7V19H62.5481ZM79.0719 5.82V15.44C79.0719 15.92 79.1852 16.2667 79.4119 16.48C79.6519 16.68 79.9785 16.78 80.3919 16.78C80.7119 16.78 80.9852 16.7467 81.2119 16.68C81.4519 16.6 81.6652 16.4867 81.8519 16.34L82.2119 18.44C81.8785 18.68 81.4585 18.8667 80.9519 19C80.4452 19.1333 79.9252 19.2 79.3919 19.2C78.6319 19.2 77.9719 19.0933 77.4119 18.88C76.8652 18.6667 76.4385 18.3267 76.1319 17.86C75.8385 17.3933 75.6852 16.7733 75.6719 16V6.76L79.0719 5.82ZM82.0519 9V11.42H73.9519V9H82.0519ZM88.5023 19.2C87.3957 19.2 86.4357 18.9933 85.6223 18.58C84.8223 18.1667 84.2023 17.5733 83.7623 16.8C83.3223 16.0267 83.1023 15.0933 83.1023 14C83.1023 12.9067 83.3223 11.9733 83.7623 11.2C84.2023 10.4267 84.8157 9.83333 85.6023 9.42C86.4023 9.00667 87.3157 8.8 88.3423 8.8C89.3957 8.8 90.289 9.00667 91.0223 9.42C91.769 9.82 92.3357 10.38 92.7223 11.1C93.109 11.8067 93.3023 12.62 93.3023 13.54C93.3023 13.78 93.2957 14.02 93.2823 14.26C93.269 14.5 93.249 14.7 93.2223 14.86H85.3023V13.04H91.7223L90.1023 13.66C90.1023 12.86 89.9557 12.2467 89.6623 11.82C89.3823 11.3933 88.9423 11.18 88.3423 11.18C87.9157 11.18 87.549 11.28 87.2423 11.48C86.949 11.68 86.7223 11.9933 86.5623 12.42C86.4157 12.8467 86.3423 13.3933 86.3423 14.06C86.3423 14.7133 86.429 15.2467 86.6023 15.66C86.7757 16.06 87.0223 16.3533 87.3423 16.54C87.6623 16.7133 88.049 16.8 88.5023 16.8C89.009 16.8 89.409 16.7 89.7023 16.5C90.009 16.3 90.2357 16.02 90.3823 15.66L93.1023 16.56C92.9157 17.1333 92.589 17.62 92.1223 18.02C91.669 18.4067 91.1223 18.7 90.4823 18.9C89.8557 19.1 89.1957 19.2 88.5023 19.2ZM95.2044 19V9H98.2044L98.3444 11.16C98.5977 10.4133 98.971 9.83333 99.4644 9.42C99.971 9.00667 100.611 8.8 101.384 8.8C101.638 8.8 101.851 8.82 102.024 8.86C102.211 8.9 102.358 8.95333 102.464 9.02L102.124 11.82C101.991 11.7667 101.818 11.7267 101.604 11.7C101.404 11.66 101.158 11.64 100.864 11.64C100.464 11.64 100.091 11.7267 99.7444 11.9C99.3977 12.0733 99.1177 12.3333 98.9044 12.68C98.7044 13.0133 98.6044 13.44 98.6044 13.96V19H95.2044ZM103.798 19V9H106.838L107.018 12.44L106.638 12.06C106.771 11.34 107.005 10.74 107.338 10.26C107.685 9.78 108.111 9.42 108.618 9.18C109.138 8.92667 109.718 8.8 110.358 8.8C111.051 8.8 111.651 8.93333 112.158 9.2C112.678 9.46667 113.085 9.86 113.378 10.38C113.671 10.9 113.818 11.5533 113.818 12.34V19H110.418V13.24C110.418 12.5467 110.285 12.0667 110.018 11.8C109.751 11.5333 109.411 11.4 108.998 11.4C108.678 11.4 108.378 11.48 108.098 11.64C107.818 11.7867 107.598 12.0267 107.438 12.36C107.278 12.6933 107.198 13.14 107.198 13.7V19H103.798ZM119.88 19.2C119.054 19.2 118.327 19 117.7 18.6C117.087 18.1867 116.607 17.5933 116.26 16.82C115.927 16.0467 115.76 15.12 115.76 14.04C115.76 12.92 115.934 11.9733 116.28 11.2C116.64 10.4267 117.134 9.83333 117.76 9.42C118.4 9.00667 119.134 8.8 119.96 8.8C120.867 8.8 121.614 9.08 122.2 9.64C122.8 10.1867 123.18 10.8867 123.34 11.74L123.02 12.16L123.22 9H126.3V19H123.16L123.02 15.6L123.44 15.9C123.36 16.5667 123.154 17.1467 122.82 17.64C122.5 18.1333 122.087 18.52 121.58 18.8C121.087 19.0667 120.52 19.2 119.88 19.2ZM121.06 16.7C121.447 16.7 121.774 16.6 122.04 16.4C122.32 16.1867 122.534 15.8733 122.68 15.46C122.84 15.0467 122.92 14.54 122.92 13.94C122.92 13.38 122.847 12.9067 122.7 12.52C122.554 12.12 122.34 11.82 122.06 11.62C121.794 11.4067 121.467 11.3 121.08 11.3C120.494 11.3 120.027 11.52 119.68 11.96C119.347 12.3867 119.18 13.0667 119.18 14C119.18 14.9333 119.347 15.62 119.68 16.06C120.014 16.4867 120.474 16.7 121.06 16.7ZM132.92 5.82V15.44C132.92 15.92 133.033 16.2667 133.26 16.48C133.5 16.68 133.826 16.78 134.24 16.78C134.56 16.78 134.833 16.7467 135.06 16.68C135.3 16.6 135.513 16.4867 135.7 16.34L136.06 18.44C135.726 18.68 135.306 18.8667 134.8 19C134.293 19.1333 133.773 19.2 133.24 19.2C132.48 19.2 131.82 19.0933 131.26 18.88C130.713 18.6667 130.286 18.3267 129.98 17.86C129.686 17.3933 129.533 16.7733 129.52 16V6.76L132.92 5.82ZM135.9 9V11.42H127.8V9H135.9ZM139.17 7.84C138.477 7.84 137.97 7.71333 137.65 7.46C137.343 7.19333 137.19 6.78 137.19 6.22C137.19 5.64667 137.343 5.23333 137.65 4.98C137.97 4.71333 138.477 4.58 139.17 4.58C139.85 4.58 140.35 4.71333 140.67 4.98C140.99 5.23333 141.15 5.64667 141.15 6.22C141.15 6.78 140.99 7.19333 140.67 7.46C140.35 7.71333 139.85 7.84 139.17 7.84ZM140.87 9V19H137.47V9H140.87ZM148.05 8.8C149.104 8.8 150.024 9.00667 150.81 9.42C151.61 9.82 152.23 10.4133 152.67 11.2C153.124 11.9733 153.35 12.9067 153.35 14C153.35 15.0933 153.124 16.0333 152.67 16.82C152.23 17.5933 151.61 18.1867 150.81 18.6C150.024 19 149.104 19.2 148.05 19.2C147.024 19.2 146.11 19 145.31 18.6C144.51 18.1867 143.884 17.5933 143.43 16.82C142.99 16.0333 142.77 15.0933 142.77 14C142.77 12.9067 142.99 11.9733 143.43 11.2C143.884 10.4133 144.51 9.82 145.31 9.42C146.11 9.00667 147.024 8.8 148.05 8.8ZM148.05 11.22C147.664 11.22 147.33 11.3133 147.05 11.5C146.77 11.6867 146.557 11.9867 146.41 12.4C146.264 12.8133 146.19 13.3467 146.19 14C146.19 14.6533 146.264 15.1867 146.41 15.6C146.557 16 146.77 16.3 147.05 16.5C147.33 16.6867 147.664 16.78 148.05 16.78C148.45 16.78 148.79 16.6867 149.07 16.5C149.35 16.3 149.564 16 149.71 15.6C149.857 15.1867 149.93 14.6533 149.93 14C149.93 13.3467 149.857 12.8133 149.71 12.4C149.564 11.9867 149.35 11.6867 149.07 11.5C148.79 11.3133 148.45 11.22 148.05 11.22ZM155.263 19V9H158.303L158.483 12.44L158.103 12.06C158.236 11.34 158.47 10.74 158.803 10.26C159.15 9.78 159.576 9.42 160.083 9.18C160.603 8.92667 161.183 8.8 161.823 8.8C162.516 8.8 163.116 8.93333 163.623 9.2C164.143 9.46667 164.55 9.86 164.843 10.38C165.136 10.9 165.283 11.5533 165.283 12.34V19H161.883V13.24C161.883 12.5467 161.75 12.0667 161.483 11.8C161.216 11.5333 160.876 11.4 160.463 11.4C160.143 11.4 159.843 11.48 159.563 11.64C159.283 11.7867 159.063 12.0267 158.903 12.36C158.743 12.6933 158.663 13.14 158.663 13.7V19H155.263ZM171.345 19.2C170.519 19.2 169.792 19 169.165 18.6C168.552 18.1867 168.072 17.5933 167.725 16.82C167.392 16.0467 167.225 15.12 167.225 14.04C167.225 12.92 167.399 11.9733 167.745 11.2C168.105 10.4267 168.599 9.83333 169.225 9.42C169.865 9.00667 170.599 8.8 171.425 8.8C172.332 8.8 173.079 9.08 173.665 9.64C174.265 10.1867 174.645 10.8867 174.805 11.74L174.485 12.16L174.685 9H177.765V19H174.625L174.485 15.6L174.905 15.9C174.825 16.5667 174.619 17.1467 174.285 17.64C173.965 18.1333 173.552 18.52 173.045 18.8C172.552 19.0667 171.985 19.2 171.345 19.2ZM172.525 16.7C172.912 16.7 173.239 16.6 173.505 16.4C173.785 16.1867 173.999 15.8733 174.145 15.46C174.305 15.0467 174.385 14.54 174.385 13.94C174.385 13.38 174.312 12.9067 174.165 12.52C174.019 12.12 173.805 11.82 173.525 11.62C173.259 11.4067 172.932 11.3 172.545 11.3C171.959 11.3 171.492 11.52 171.145 11.96C170.812 12.3867 170.645 13.0667 170.645 14C170.645 14.9333 170.812 15.62 171.145 16.06C171.479 16.4867 171.939 16.7 172.525 16.7ZM183.604 4.76V19H180.204V4.76H183.604ZM192.026 19V5.8H202.306V8.46H195.466V11.14H200.906V13.64H195.466V16.34H202.566V19H192.026ZM204.404 19V9H207.444L207.544 10.94C207.864 10.2333 208.31 9.7 208.884 9.34C209.47 8.98 210.144 8.8 210.904 8.8C211.65 8.8 212.297 8.96667 212.844 9.3C213.39 9.63333 213.797 10.1267 214.064 10.78C214.277 10.34 214.55 9.97333 214.884 9.68C215.23 9.38667 215.624 9.16667 216.064 9.02C216.504 8.87333 216.957 8.8 217.424 8.8C218.09 8.8 218.677 8.93333 219.184 9.2C219.69 9.45333 220.09 9.84667 220.384 10.38C220.69 10.9 220.844 11.5533 220.844 12.34V19H217.444V13.12C217.444 12.48 217.317 12.0333 217.064 11.78C216.824 11.5267 216.497 11.4 216.084 11.4C215.75 11.4 215.444 11.4867 215.164 11.66C214.897 11.82 214.69 12.0667 214.544 12.4C214.397 12.7333 214.324 13.1533 214.324 13.66V19H210.924V13.12C210.924 12.48 210.797 12.0333 210.544 11.78C210.29 11.5267 209.964 11.4 209.564 11.4C209.257 11.4 208.964 11.48 208.684 11.64C208.417 11.8 208.204 12.0533 208.044 12.4C207.884 12.7333 207.804 13.1733 207.804 13.72V19H204.404ZM233.654 5.8V8.46H229.354V19H225.914V8.46H221.594V5.8H233.654ZM238.405 19.2C237.298 19.2 236.338 18.9933 235.525 18.58C234.725 18.1667 234.105 17.5733 233.665 16.8C233.225 16.0267 233.005 15.0933 233.005 14C233.005 12.9067 233.225 11.9733 233.665 11.2C234.105 10.4267 234.718 9.83333 235.505 9.42C236.305 9.00667 237.218 8.8 238.245 8.8C239.298 8.8 240.191 9.00667 240.925 9.42C241.671 9.82 242.238 10.38 242.625 11.1C243.011 11.8067 243.205 12.62 243.205 13.54C243.205 13.78 243.198 14.02 243.185 14.26C243.171 14.5 243.151 14.7 243.125 14.86H235.205V13.04H241.625L240.005 13.66C240.005 12.86 239.858 12.2467 239.565 11.82C239.285 11.3933 238.845 11.18 238.245 11.18C237.818 11.18 237.451 11.28 237.145 11.48C236.851 11.68 236.625 11.9933 236.465 12.42C236.318 12.8467 236.245 13.3933 236.245 14.06C236.245 14.7133 236.331 15.2467 236.505 15.66C236.678 16.06 236.925 16.3533 237.245 16.54C237.565 16.7133 237.951 16.8 238.405 16.8C238.911 16.8 239.311 16.7 239.605 16.5C239.911 16.3 240.138 16.02 240.285 15.66L243.005 16.56C242.818 17.1333 242.491 17.62 242.025 18.02C241.571 18.4067 241.025 18.7 240.385 18.9C239.758 19.1 239.098 19.2 238.405 19.2ZM249.847 8.8C250.86 8.8 251.7 8.94667 252.367 9.24C253.047 9.52 253.573 9.9 253.947 10.38C254.333 10.8467 254.573 11.3533 254.667 11.9L251.527 12.94C251.433 12.3667 251.26 11.94 251.007 11.66C250.767 11.3667 250.413 11.22 249.947 11.22C249.52 11.22 249.16 11.32 248.867 11.52C248.587 11.7067 248.373 12.0133 248.227 12.44C248.08 12.8533 248.007 13.3867 248.007 14.04C248.007 14.6933 248.087 15.2267 248.247 15.64C248.407 16.04 248.633 16.3333 248.927 16.52C249.22 16.6933 249.567 16.78 249.967 16.78C250.3 16.78 250.573 16.72 250.787 16.6C251.013 16.4667 251.2 16.28 251.347 16.04C251.493 15.8 251.587 15.5067 251.627 15.16L254.687 16.14C254.593 16.7267 254.34 17.2533 253.927 17.72C253.527 18.1733 252.993 18.5333 252.327 18.8C251.66 19.0667 250.88 19.2 249.987 19.2C248.893 19.2 247.94 19 247.127 18.6C246.313 18.1867 245.687 17.5933 245.247 16.82C244.807 16.0333 244.587 15.0933 244.587 14C244.587 12.9067 244.807 11.9733 245.247 11.2C245.687 10.4133 246.3 9.82 247.087 9.42C247.887 9.00667 248.807 8.8 249.847 8.8ZM256.454 19V4.76H259.854V10.82C260.148 10.1533 260.568 9.65333 261.114 9.32C261.661 8.97333 262.294 8.8 263.014 8.8C263.708 8.8 264.308 8.93333 264.814 9.2C265.334 9.46667 265.741 9.86 266.034 10.38C266.328 10.9 266.474 11.5533 266.474 12.34V19H263.074V13.28C263.074 12.56 262.941 12.0667 262.674 11.8C262.421 11.52 262.081 11.38 261.654 11.38C261.334 11.38 261.034 11.46 260.754 11.62C260.474 11.78 260.254 12.0333 260.094 12.38C259.934 12.7267 259.854 13.18 259.854 13.74V19H256.454ZM59.9 29.8V43H56.46V29.8H59.9ZM62.5481 43V33H65.5881L65.7681 36.44L65.3881 36.06C65.5215 35.34 65.7548 34.74 66.0881 34.26C66.4348 33.78 66.8615 33.42 67.3681 33.18C67.8881 32.9267 68.4681 32.8 69.1081 32.8C69.8015 32.8 70.4015 32.9333 70.9081 33.2C71.4281 33.4667 71.8348 33.86 72.1281 34.38C72.4215 34.9 72.5681 35.5533 72.5681 36.34V43H69.1681V37.24C69.1681 36.5467 69.0348 36.0667 68.7681 35.8C68.5015 35.5333 68.1615 35.4 67.7481 35.4C67.4281 35.4 67.1281 35.48 66.8481 35.64C66.5681 35.7867 66.3481 36.0267 66.1881 36.36C66.0281 36.6933 65.9481 37.14 65.9481 37.7V43H62.5481ZM81.2161 33H84.7361L81.1361 43H77.0761L73.4761 33H77.0561L79.1161 40.62L81.2161 33ZM90.6313 43.2C89.5246 43.2 88.5646 42.9933 87.7513 42.58C86.9513 42.1667 86.3313 41.5733 85.8913 40.8C85.4513 40.0267 85.2313 39.0933 85.2313 38C85.2313 36.9067 85.4513 35.9733 85.8913 35.2C86.3313 34.4267 86.9446 33.8333 87.7313 33.42C88.5313 33.0067 89.4446 32.8 90.4713 32.8C91.5246 32.8 92.4179 33.0067 93.1513 33.42C93.8979 33.82 94.4646 34.38 94.8513 35.1C95.2379 35.8067 95.4313 36.62 95.4313 37.54C95.4313 37.78 95.4246 38.02 95.4113 38.26C95.3979 38.5 95.3779 38.7 95.3513 38.86H87.4313V37.04H93.8513L92.2313 37.66C92.2313 36.86 92.0846 36.2467 91.7913 35.82C91.5113 35.3933 91.0713 35.18 90.4713 35.18C90.0446 35.18 89.6779 35.28 89.3713 35.48C89.0779 35.68 88.8513 35.9933 88.6913 36.42C88.5446 36.8467 88.4713 37.3933 88.4713 38.06C88.4713 38.7133 88.5579 39.2467 88.7313 39.66C88.9046 40.06 89.1513 40.3533 89.4713 40.54C89.7913 40.7133 90.1779 40.8 90.6313 40.8C91.1379 40.8 91.5379 40.7 91.8313 40.5C92.1379 40.3 92.3646 40.02 92.5113 39.66L95.2313 40.56C95.0446 41.1333 94.7179 41.62 94.2513 42.02C93.7979 42.4067 93.2513 42.7 92.6113 42.9C91.9846 43.1 91.3246 43.2 90.6313 43.2ZM101.533 43.2C100.533 43.2 99.5999 43.04 98.7333 42.72C97.8799 42.3867 97.1733 41.9133 96.6133 41.3L98.2133 39.42C98.5466 39.8467 98.9866 40.2067 99.5333 40.5C100.093 40.78 100.713 40.92 101.393 40.92C101.807 40.92 102.147 40.86 102.413 40.74C102.68 40.62 102.813 40.4333 102.813 40.18C102.813 39.9933 102.747 39.8467 102.613 39.74C102.48 39.62 102.213 39.52 101.813 39.44L100.413 39.16C99.1599 38.9067 98.2666 38.5333 97.7333 38.04C97.2133 37.5333 96.9533 36.8733 96.9533 36.06C96.9533 35.5133 97.1199 34.9933 97.4533 34.5C97.7866 33.9933 98.2999 33.5867 98.9933 33.28C99.6866 32.96 100.573 32.8 101.653 32.8C102.667 32.8 103.56 32.9467 104.333 33.24C105.107 33.5333 105.72 33.96 106.173 34.52L104.553 36.36C104.233 35.96 103.82 35.6467 103.313 35.42C102.807 35.1933 102.3 35.08 101.793 35.08C101.473 35.08 101.2 35.1133 100.973 35.18C100.76 35.2333 100.6 35.3133 100.493 35.42C100.387 35.5267 100.333 35.66 100.333 35.82C100.333 35.9933 100.413 36.1467 100.573 36.28C100.747 36.4 101.06 36.5067 101.513 36.6L103.333 36.96C104.36 37.1467 105.1 37.4867 105.553 37.98C106.007 38.4733 106.233 39.0667 106.233 39.76C106.233 40.4133 106.06 41 105.713 41.52C105.367 42.04 104.847 42.4533 104.153 42.76C103.46 43.0533 102.587 43.2 101.533 43.2ZM112.177 29.82V39.44C112.177 39.92 112.291 40.2667 112.517 40.48C112.757 40.68 113.084 40.78 113.497 40.78C113.817 40.78 114.091 40.7467 114.317 40.68C114.557 40.6 114.771 40.4867 114.957 40.34L115.317 42.44C114.984 42.68 114.564 42.8667 114.057 43C113.551 43.1333 113.031 43.2 112.497 43.2C111.737 43.2 111.077 43.0933 110.517 42.88C109.971 42.6667 109.544 42.3267 109.237 41.86C108.944 41.3933 108.791 40.7733 108.777 40V30.76L112.177 29.82ZM115.157 33V35.42H107.057V33H115.157ZM116.728 43V33H119.768L119.868 34.94C120.188 34.2333 120.634 33.7 121.208 33.34C121.794 32.98 122.468 32.8 123.228 32.8C123.974 32.8 124.621 32.9667 125.168 33.3C125.714 33.6333 126.121 34.1267 126.388 34.78C126.601 34.34 126.874 33.9733 127.208 33.68C127.554 33.3867 127.948 33.1667 128.388 33.02C128.828 32.8733 129.281 32.8 129.748 32.8C130.414 32.8 131.001 32.9333 131.508 33.2C132.014 33.4533 132.414 33.8467 132.708 34.38C133.014 34.9 133.168 35.5533 133.168 36.34V43H129.768V37.12C129.768 36.48 129.641 36.0333 129.388 35.78C129.148 35.5267 128.821 35.4 128.408 35.4C128.074 35.4 127.768 35.4867 127.488 35.66C127.221 35.82 127.014 36.0667 126.868 36.4C126.721 36.7333 126.648 37.1533 126.648 37.66V43H123.248V37.12C123.248 36.48 123.121 36.0333 122.868 35.78C122.614 35.5267 122.288 35.4 121.888 35.4C121.581 35.4 121.288 35.48 121.008 35.64C120.741 35.8 120.528 36.0533 120.368 36.4C120.208 36.7333 120.128 37.1733 120.128 37.72V43H116.728ZM140.436 43.2C139.329 43.2 138.369 42.9933 137.556 42.58C136.756 42.1667 136.136 41.5733 135.696 40.8C135.256 40.0267 135.036 39.0933 135.036 38C135.036 36.9067 135.256 35.9733 135.696 35.2C136.136 34.4267 136.749 33.8333 137.536 33.42C138.336 33.0067 139.249 32.8 140.276 32.8C141.329 32.8 142.223 33.0067 142.956 33.42C143.703 33.82 144.269 34.38 144.656 35.1C145.043 35.8067 145.236 36.62 145.236 37.54C145.236 37.78 145.229 38.02 145.216 38.26C145.203 38.5 145.183 38.7 145.156 38.86H137.236V37.04H143.656L142.036 37.66C142.036 36.86 141.889 36.2467 141.596 35.82C141.316 35.3933 140.876 35.18 140.276 35.18C139.849 35.18 139.483 35.28 139.176 35.48C138.883 35.68 138.656 35.9933 138.496 36.42C138.349 36.8467 138.276 37.3933 138.276 38.06C138.276 38.7133 138.363 39.2467 138.536 39.66C138.709 40.06 138.956 40.3533 139.276 40.54C139.596 40.7133 139.983 40.8 140.436 40.8C140.943 40.8 141.343 40.7 141.636 40.5C141.943 40.3 142.169 40.02 142.316 39.66L145.036 40.56C144.849 41.1333 144.523 41.62 144.056 42.02C143.603 42.4067 143.056 42.7 142.416 42.9C141.789 43.1 141.129 43.2 140.436 43.2ZM147.138 43V33H150.178L150.358 36.44L149.978 36.06C150.111 35.34 150.345 34.74 150.678 34.26C151.025 33.78 151.451 33.42 151.958 33.18C152.478 32.9267 153.058 32.8 153.698 32.8C154.391 32.8 154.991 32.9333 155.498 33.2C156.018 33.4667 156.425 33.86 156.718 34.38C157.011 34.9 157.158 35.5533 157.158 36.34V43H153.758V37.24C153.758 36.5467 153.625 36.0667 153.358 35.8C153.091 35.5333 152.751 35.4 152.338 35.4C152.018 35.4 151.718 35.48 151.438 35.64C151.158 35.7867 150.938 36.0267 150.778 36.36C150.618 36.6933 150.538 37.14 150.538 37.7V43H147.138ZM163.662 29.82V39.44C163.662 39.92 163.775 40.2667 164.002 40.48C164.242 40.68 164.568 40.78 164.982 40.78C165.302 40.78 165.575 40.7467 165.802 40.68C166.042 40.6 166.255 40.4867 166.442 40.34L166.802 42.44C166.468 42.68 166.048 42.8667 165.542 43C165.035 43.1333 164.515 43.2 163.982 43.2C163.222 43.2 162.562 43.0933 162.002 42.88C161.455 42.6667 161.028 42.3267 160.722 41.86C160.428 41.3933 160.275 40.7733 160.262 40V30.76L163.662 29.82ZM166.642 33V35.42H158.542V33H166.642ZM184.435 32.46H177.615V35.26H183.055V37.92H177.615V43H174.175V29.8H184.435V32.46ZM189.964 32.8C191.018 32.8 191.938 33.0067 192.724 33.42C193.524 33.82 194.144 34.4133 194.584 35.2C195.038 35.9733 195.264 36.9067 195.264 38C195.264 39.0933 195.038 40.0333 194.584 40.82C194.144 41.5933 193.524 42.1867 192.724 42.6C191.938 43 191.018 43.2 189.964 43.2C188.938 43.2 188.024 43 187.224 42.6C186.424 42.1867 185.798 41.5933 185.344 40.82C184.904 40.0333 184.684 39.0933 184.684 38C184.684 36.9067 184.904 35.9733 185.344 35.2C185.798 34.4133 186.424 33.82 187.224 33.42C188.024 33.0067 188.938 32.8 189.964 32.8ZM189.964 35.22C189.578 35.22 189.244 35.3133 188.964 35.5C188.684 35.6867 188.471 35.9867 188.324 36.4C188.178 36.8133 188.104 37.3467 188.104 38C188.104 38.6533 188.178 39.1867 188.324 39.6C188.471 40 188.684 40.3 188.964 40.5C189.244 40.6867 189.578 40.78 189.964 40.78C190.364 40.78 190.704 40.6867 190.984 40.5C191.264 40.3 191.478 40 191.624 39.6C191.771 39.1867 191.844 38.6533 191.844 38C191.844 37.3467 191.771 36.8133 191.624 36.4C191.478 35.9867 191.264 35.6867 190.984 35.5C190.704 35.3133 190.364 35.22 189.964 35.22ZM197.177 43V33H200.177L200.317 35.16C200.57 34.4133 200.944 33.8333 201.437 33.42C201.944 33.0067 202.584 32.8 203.357 32.8C203.61 32.8 203.824 32.82 203.997 32.86C204.184 32.9 204.33 32.9533 204.437 33.02L204.097 35.82C203.964 35.7667 203.79 35.7267 203.577 35.7C203.377 35.66 203.13 35.64 202.837 35.64C202.437 35.64 202.064 35.7267 201.717 35.9C201.37 36.0733 201.09 36.3333 200.877 36.68C200.677 37.0133 200.577 37.44 200.577 37.96V43H197.177ZM209.151 43.2C208.471 43.2 207.871 43.0867 207.351 42.86C206.844 42.62 206.444 42.24 206.151 41.72C205.857 41.2 205.711 40.52 205.711 39.68V33H209.111V38.88C209.111 39.52 209.237 39.9667 209.491 40.22C209.744 40.4733 210.104 40.6 210.571 40.6C210.811 40.6 211.037 40.56 211.251 40.48C211.464 40.3867 211.651 40.2533 211.811 40.08C211.971 39.8933 212.091 39.66 212.171 39.38C212.264 39.0867 212.311 38.7467 212.311 38.36V33H215.711V43H212.671L212.571 41.12C212.251 41.8267 211.804 42.3533 211.231 42.7C210.657 43.0333 209.964 43.2 209.151 43.2ZM218.154 43V33H221.194L221.294 34.94C221.614 34.2333 222.06 33.7 222.634 33.34C223.22 32.98 223.894 32.8 224.654 32.8C225.4 32.8 226.047 32.9667 226.594 33.3C227.14 33.6333 227.547 34.1267 227.814 34.78C228.027 34.34 228.3 33.9733 228.634 33.68C228.98 33.3867 229.374 33.1667 229.814 33.02C230.254 32.8733 230.707 32.8 231.174 32.8C231.84 32.8 232.427 32.9333 232.934 33.2C233.44 33.4533 233.84 33.8467 234.134 34.38C234.44 34.9 234.594 35.5533 234.594 36.34V43H231.194V37.12C231.194 36.48 231.067 36.0333 230.814 35.78C230.574 35.5267 230.247 35.4 229.834 35.4C229.5 35.4 229.194 35.4867 228.914 35.66C228.647 35.82 228.44 36.0667 228.294 36.4C228.147 36.7333 228.074 37.1533 228.074 37.66V43H224.674V37.12C224.674 36.48 224.547 36.0333 224.294 35.78C224.04 35.5267 223.714 35.4 223.314 35.4C223.007 35.4 222.714 35.48 222.434 35.64C222.167 35.8 221.954 36.0533 221.794 36.4C221.634 36.7333 221.554 37.1733 221.554 37.72V43H218.154Z" fill="white"/>
<path d="M46.188 43L25.3088 43L25.3088 33.7917H30.2387L27.825 29.6109L35.7996 25.0067L46.188 43Z" fill="#F6DBA8"/>
<path d="M33.5847 21.1704L23.094 3L12.6545 21.0818L20.6291 25.686L23.094 21.4166L25.6101 25.7746L33.5847 21.1704Z" fill="#F6DBA8"/>
<path d="M20.8791 43L20.8791 33.7917H15.9493L18.4142 29.5223L10.4396 24.9181L0 43L20.8791 43Z" fill="#F6DBA8"/>
</svg>
