<svg width="357" height="48" viewBox="0 0 357 48" fill="none" xmlns="http://www.w3.org/2000/svg">
<path d="M59.9 5.8V19H56.46V5.8H59.9ZM62.5481 19V9H65.5881L65.7681 12.44L65.3881 12.06C65.5215 11.34 65.7548 10.74 66.0881 10.26C66.4348 9.78 66.8615 9.42 67.3681 9.18C67.8881 8.92667 68.4681 8.8 69.1081 8.8C69.8015 8.8 70.4015 8.93333 70.9081 9.2C71.4281 9.46667 71.8348 9.86 72.1281 10.38C72.4215 10.9 72.5681 11.5533 72.5681 12.34V19H69.1681V13.24C69.1681 12.5467 69.0348 12.0667 68.7681 11.8C68.5015 11.5333 68.1615 11.4 67.7481 11.4C67.4281 11.4 67.1281 11.48 66.8481 11.64C66.5681 11.7867 66.3481 12.0267 66.1881 12.36C66.0281 12.6933 65.9481 13.14 65.9481 13.7V19H62.5481ZM79.0719 5.82V15.44C79.0719 15.92 79.1852 16.2667 79.4119 16.48C79.6519 16.68 79.9785 16.78 80.3919 16.78C80.7119 16.78 80.9852 16.7467 81.2119 16.68C81.4519 16.6 81.6652 16.4867 81.8519 16.34L82.2119 18.44C81.8785 18.68 81.4585 18.8667 80.9519 19C80.4452 19.1333 79.9252 19.2 79.3919 19.2C78.6319 19.2 77.9719 19.0933 77.4119 18.88C76.8652 18.6667 76.4385 18.3267 76.1319 17.86C75.8385 17.3933 75.6852 16.7733 75.6719 16V6.76L79.0719 5.82ZM82.0519 9V11.42H73.9519V9H82.0519ZM88.5023 19.2C87.3957 19.2 86.4357 18.9933 85.6223 18.58C84.8223 18.1667 84.2023 17.5733 83.7623 16.8C83.3223 16.0267 83.1023 15.0933 83.1023 14C83.1023 12.9067 83.3223 11.9733 83.7623 11.2C84.2023 10.4267 84.8157 9.83333 85.6023 9.42C86.4023 9.00667 87.3157 8.8 88.3423 8.8C89.3957 8.8 90.289 9.00667 91.0223 9.42C91.769 9.82 92.3357 10.38 92.7223 11.1C93.109 11.8067 93.3023 12.62 93.3023 13.54C93.3023 13.78 93.2957 14.02 93.2823 14.26C93.269 14.5 93.249 14.7 93.2223 14.86H85.3023V13.04H91.7223L90.1023 13.66C90.1023 12.86 89.9557 12.2467 89.6623 11.82C89.3823 11.3933 88.9423 11.18 88.3423 11.18C87.9157 11.18 87.549 11.28 87.2423 11.48C86.949 11.68 86.7223 11.9933 86.5623 12.42C86.4157 12.8467 86.3423 13.3933 86.3423 14.06C86.3423 14.7133 86.429 15.2467 86.6023 15.66C86.7757 16.06 87.0223 16.3533 87.3423 16.54C87.6623 16.7133 88.049 16.8 88.5023 16.8C89.009 16.8 89.409 16.7 89.7023 16.5C90.009 16.3 90.2357 16.02 90.3823 15.66L93.1023 16.56C92.9157 17.1333 92.589 17.62 92.1223 18.02C91.669 18.4067 91.1223 18.7 90.4823 18.9C89.8557 19.1 89.1957 19.2 88.5023 19.2ZM95.2044 19V9H98.2044L98.3444 11.16C98.5977 10.4133 98.971 9.83333 99.4644 9.42C99.971 9.00667 100.611 8.8 101.384 8.8C101.638 8.8 101.851 8.82 102.024 8.86C102.211 8.9 102.358 8.95333 102.464 9.02L102.124 11.82C101.991 11.7667 101.818 11.7267 101.604 11.7C101.404 11.66 101.158 11.64 100.864 11.64C100.464 11.64 100.091 11.7267 99.7444 11.9C99.3977 12.0733 99.1177 12.3333 98.9044 12.68C98.7044 13.0133 98.6044 13.44 98.6044 13.96V19H95.2044ZM103.798 19V9H106.838L107.018 12.44L106.638 12.06C106.771 11.34 107.005 10.74 107.338 10.26C107.685 9.78 108.111 9.42 108.618 9.18C109.138 8.92667 109.718 8.8 110.358 8.8C111.051 8.8 111.651 8.93333 112.158 9.2C112.678 9.46667 113.085 9.86 113.378 10.38C113.671 10.9 113.818 11.5533 113.818 12.34V19H110.418V13.24C110.418 12.5467 110.285 12.0667 110.018 11.8C109.751 11.5333 109.411 11.4 108.998 11.4C108.678 11.4 108.378 11.48 108.098 11.64C107.818 11.7867 107.598 12.0267 107.438 12.36C107.278 12.6933 107.198 13.14 107.198 13.7V19H103.798ZM119.88 19.2C119.054 19.2 118.327 19 117.7 18.6C117.087 18.1867 116.607 17.5933 116.26 16.82C115.927 16.0467 115.76 15.12 115.76 14.04C115.76 12.92 115.934 11.9733 116.28 11.2C116.64 10.4267 117.134 9.83333 117.76 9.42C118.4 9.00667 119.134 8.8 119.96 8.8C120.867 8.8 121.614 9.08 122.2 9.64C122.8 10.1867 123.18 10.8867 123.34 11.74L123.02 12.16L123.22 9H126.3V19H123.16L123.02 15.6L123.44 15.9C123.36 16.5667 123.154 17.1467 122.82 17.64C122.5 18.1333 122.087 18.52 121.58 18.8C121.087 19.0667 120.52 19.2 119.88 19.2ZM121.06 16.7C121.447 16.7 121.774 16.6 122.04 16.4C122.32 16.1867 122.534 15.8733 122.68 15.46C122.84 15.0467 122.92 14.54 122.92 13.94C122.92 13.38 122.847 12.9067 122.7 12.52C122.554 12.12 122.34 11.82 122.06 11.62C121.794 11.4067 121.467 11.3 121.08 11.3C120.494 11.3 120.027 11.52 119.68 11.96C119.347 12.3867 119.18 13.0667 119.18 14C119.18 14.9333 119.347 15.62 119.68 16.06C120.014 16.4867 120.474 16.7 121.06 16.7ZM132.92 5.82V15.44C132.92 15.92 133.033 16.2667 133.26 16.48C133.5 16.68 133.826 16.78 134.24 16.78C134.56 16.78 134.833 16.7467 135.06 16.68C135.3 16.6 135.513 16.4867 135.7 16.34L136.06 18.44C135.726 18.68 135.306 18.8667 134.8 19C134.293 19.1333 133.773 19.2 133.24 19.2C132.48 19.2 131.82 19.0933 131.26 18.88C130.713 18.6667 130.286 18.3267 129.98 17.86C129.686 17.3933 129.533 16.7733 129.52 16V6.76L132.92 5.82ZM135.9 9V11.42H127.8V9H135.9ZM139.17 7.84C138.477 7.84 137.97 7.71333 137.65 7.46C137.343 7.19333 137.19 6.78 137.19 6.22C137.19 5.64667 137.343 5.23333 137.65 4.98C137.97 4.71333 138.477 4.58 139.17 4.58C139.85 4.58 140.35 4.71333 140.67 4.98C140.99 5.23333 141.15 5.64667 141.15 6.22C141.15 6.78 140.99 7.19333 140.67 7.46C140.35 7.71333 139.85 7.84 139.17 7.84ZM140.87 9V19H137.47V9H140.87ZM148.05 8.8C149.104 8.8 150.024 9.00667 150.81 9.42C151.61 9.82 152.23 10.4133 152.67 11.2C153.124 11.9733 153.35 12.9067 153.35 14C153.35 15.0933 153.124 16.0333 152.67 16.82C152.23 17.5933 151.61 18.1867 150.81 18.6C150.024 19 149.104 19.2 148.05 19.2C147.024 19.2 146.11 19 145.31 18.6C144.51 18.1867 143.884 17.5933 143.43 16.82C142.99 16.0333 142.77 15.0933 142.77 14C142.77 12.9067 142.99 11.9733 143.43 11.2C143.884 10.4133 144.51 9.82 145.31 9.42C146.11 9.00667 147.024 8.8 148.05 8.8ZM148.05 11.22C147.664 11.22 147.33 11.3133 147.05 11.5C146.77 11.6867 146.557 11.9867 146.41 12.4C146.264 12.8133 146.19 13.3467 146.19 14C146.19 14.6533 146.264 15.1867 146.41 15.6C146.557 16 146.77 16.3 147.05 16.5C147.33 16.6867 147.664 16.78 148.05 16.78C148.45 16.78 148.79 16.6867 149.07 16.5C149.35 16.3 149.564 16 149.71 15.6C149.857 15.1867 149.93 14.6533 149.93 14C149.93 13.3467 149.857 12.8133 149.71 12.4C149.564 11.9867 149.35 11.6867 149.07 11.5C148.79 11.3133 148.45 11.22 148.05 11.22ZM155.263 19V9H158.303L158.483 12.44L158.103 12.06C158.236 11.34 158.47 10.74 158.803 10.26C159.15 9.78 159.576 9.42 160.083 9.18C160.603 8.92667 161.183 8.8 161.823 8.8C162.516 8.8 163.116 8.93333 163.623 9.2C164.143 9.46667 164.55 9.86 164.843 10.38C165.136 10.9 165.283 11.5533 165.283 12.34V19H161.883V13.24C161.883 12.5467 161.75 12.0667 161.483 11.8C161.216 11.5333 160.876 11.4 160.463 11.4C160.143 11.4 159.843 11.48 159.563 11.64C159.283 11.7867 159.063 12.0267 158.903 12.36C158.743 12.6933 158.663 13.14 158.663 13.7V19H155.263ZM171.345 19.2C170.519 19.2 169.792 19 169.165 18.6C168.552 18.1867 168.072 17.5933 167.725 16.82C167.392 16.0467 167.225 15.12 167.225 14.04C167.225 12.92 167.399 11.9733 167.745 11.2C168.105 10.4267 168.599 9.83333 169.225 9.42C169.865 9.00667 170.599 8.8 171.425 8.8C172.332 8.8 173.079 9.08 173.665 9.64C174.265 10.1867 174.645 10.8867 174.805 11.74L174.485 12.16L174.685 9H177.765V19H174.625L174.485 15.6L174.905 15.9C174.825 16.5667 174.619 17.1467 174.285 17.64C173.965 18.1333 173.552 18.52 173.045 18.8C172.552 19.0667 171.985 19.2 171.345 19.2ZM172.525 16.7C172.912 16.7 173.239 16.6 173.505 16.4C173.785 16.1867 173.999 15.8733 174.145 15.46C174.305 15.0467 174.385 14.54 174.385 13.94C174.385 13.38 174.312 12.9067 174.165 12.52C174.019 12.12 173.805 11.82 173.525 11.62C173.259 11.4067 172.932 11.3 172.545 11.3C171.959 11.3 171.492 11.52 171.145 11.96C170.812 12.3867 170.645 13.0667 170.645 14C170.645 14.9333 170.812 15.62 171.145 16.06C171.479 16.4867 171.939 16.7 172.525 16.7ZM183.604 4.76V19H180.204V4.76H183.604ZM192.026 19V5.8H202.306V8.46H195.466V11.14H200.906V13.64H195.466V16.34H202.566V19H192.026ZM204.404 19V9H207.444L207.544 10.94C207.864 10.2333 208.31 9.7 208.884 9.34C209.47 8.98 210.144 8.8 210.904 8.8C211.65 8.8 212.297 8.96667 212.844 9.3C213.39 9.63333 213.797 10.1267 214.064 10.78C214.277 10.34 214.55 9.97333 214.884 9.68C215.23 9.38667 215.624 9.16667 216.064 9.02C216.504 8.87333 216.957 8.8 217.424 8.8C218.09 8.8 218.677 8.93333 219.184 9.2C219.69 9.45333 220.09 9.84667 220.384 10.38C220.69 10.9 220.844 11.5533 220.844 12.34V19H217.444V13.12C217.444 12.48 217.317 12.0333 217.064 11.78C216.824 11.5267 216.497 11.4 216.084 11.4C215.75 11.4 215.444 11.4867 215.164 11.66C214.897 11.82 214.69 12.0667 214.544 12.4C214.397 12.7333 214.324 13.1533 214.324 13.66V19H210.924V13.12C210.924 12.48 210.797 12.0333 210.544 11.78C210.29 11.5267 209.964 11.4 209.564 11.4C209.257 11.4 208.964 11.48 208.684 11.64C208.417 11.8 208.204 12.0533 208.044 12.4C207.884 12.7333 207.804 13.1733 207.804 13.72V19H204.404ZM233.654 5.8V8.46H229.354V19H225.914V8.46H221.594V5.8H233.654ZM238.405 19.2C237.298 19.2 236.338 18.9933 235.525 18.58C234.725 18.1667 234.105 17.5733 233.665 16.8C233.225 16.0267 233.005 15.0933 233.005 14C233.005 12.9067 233.225 11.9733 233.665 11.2C234.105 10.4267 234.718 9.83333 235.505 9.42C236.305 9.00667 237.218 8.8 238.245 8.8C239.298 8.8 240.191 9.00667 240.925 9.42C241.671 9.82 242.238 10.38 242.625 11.1C243.011 11.8067 243.205 12.62 243.205 13.54C243.205 13.78 243.198 14.02 243.185 14.26C243.171 14.5 243.151 14.7 243.125 14.86H235.205V13.04H241.625L240.005 13.66C240.005 12.86 239.858 12.2467 239.565 11.82C239.285 11.3933 238.845 11.18 238.245 11.18C237.818 11.18 237.451 11.28 237.145 11.48C236.851 11.68 236.625 11.9933 236.465 12.42C236.318 12.8467 236.245 13.3933 236.245 14.06C236.245 14.7133 236.331 15.2467 236.505 15.66C236.678 16.06 236.925 16.3533 237.245 16.54C237.565 16.7133 237.951 16.8 238.405 16.8C238.911 16.8 239.311 16.7 239.605 16.5C239.911 16.3 240.138 16.02 240.285 15.66L243.005 16.56C242.818 17.1333 242.491 17.62 242.025 18.02C241.571 18.4067 241.025 18.7 240.385 18.9C239.758 19.1 239.098 19.2 238.405 19.2ZM249.847 8.8C250.86 8.8 251.7 8.94667 252.367 9.24C253.047 9.52 253.573 9.9 253.947 10.38C254.333 10.8467 254.573 11.3533 254.667 11.9L251.527 12.94C251.433 12.3667 251.26 11.94 251.007 11.66C250.767 11.3667 250.413 11.22 249.947 11.22C249.52 11.22 249.16 11.32 248.867 11.52C248.587 11.7067 248.373 12.0133 248.227 12.44C248.08 12.8533 248.007 13.3867 248.007 14.04C248.007 14.6933 248.087 15.2267 248.247 15.64C248.407 16.04 248.633 16.3333 248.927 16.52C249.22 16.6933 249.567 16.78 249.967 16.78C250.3 16.78 250.573 16.72 250.787 16.6C251.013 16.4667 251.2 16.28 251.347 16.04C251.493 15.8 251.587 15.5067 251.627 15.16L254.687 16.14C254.593 16.7267 254.34 17.2533 253.927 17.72C253.527 18.1733 252.993 18.5333 252.327 18.8C251.66 19.0667 250.88 19.2 249.987 19.2C248.893 19.2 247.94 19 247.127 18.6C246.313 18.1867 245.687 17.5933 245.247 16.82C244.807 16.0333 244.587 15.0933 244.587 14C244.587 12.9067 244.807 11.9733 245.247 11.2C245.687 10.4133 246.3 9.82 247.087 9.42C247.887 9.00667 248.807 8.8 249.847 8.8ZM256.454 19V4.76H259.854V10.82C260.148 10.1533 260.568 9.65333 261.114 9.32C261.661 8.97333 262.294 8.8 263.014 8.8C263.708 8.8 264.308 8.93333 264.814 9.2C265.334 9.46667 265.741 9.86 266.034 10.38C266.328 10.9 266.474 11.5533 266.474 12.34V19H263.074V13.28C263.074 12.56 262.941 12.0667 262.674 11.8C262.421 11.52 262.081 11.38 261.654 11.38C261.334 11.38 261.034 11.46 260.754 11.62C260.474 11.78 260.254 12.0333 260.094 12.38C259.934 12.7267 259.854 13.18 259.854 13.74V19H256.454ZM59.9 29.8V43H56.46V29.8H59.9ZM62.5481 43V33H65.5881L65.7681 36.44L65.3881 36.06C65.5215 35.34 65.7548 34.74 66.0881 34.26C66.4348 33.78 66.8615 33.42 67.3681 33.18C67.8881 32.9267 68.4681 32.8 69.1081 32.8C69.8015 32.8 70.4015 32.9333 70.9081 33.2C71.4281 33.4667 71.8348 33.86 72.1281 34.38C72.4215 34.9 72.5681 35.5533 72.5681 36.34V43H69.1681V37.24C69.1681 36.5467 69.0348 36.0667 68.7681 35.8C68.5015 35.5333 68.1615 35.4 67.7481 35.4C67.4281 35.4 67.1281 35.48 66.8481 35.64C66.5681 35.7867 66.3481 36.0267 66.1881 36.36C66.0281 36.6933 65.9481 37.14 65.9481 37.7V43H62.5481ZM81.2161 33H84.7361L81.1361 43H77.0761L73.4761 33H77.0561L79.1161 40.62L81.2161 33ZM90.6313 43.2C89.5246 43.2 88.5646 42.9933 87.7513 42.58C86.9513 42.1667 86.3313 41.5733 85.8913 40.8C85.4513 40.0267 85.2313 39.0933 85.2313 38C85.2313 36.9067 85.4513 35.9733 85.8913 35.2C86.3313 34.4267 86.9446 33.8333 87.7313 33.42C88.5313 33.0067 89.4446 32.8 90.4713 32.8C91.5246 32.8 92.4179 33.0067 93.1513 33.42C93.8979 33.82 94.4646 34.38 94.8513 35.1C95.2379 35.8067 95.4313 36.62 95.4313 37.54C95.4313 37.78 95.4246 38.02 95.4113 38.26C95.3979 38.5 95.3779 38.7 95.3513 38.86H87.4313V37.04H93.8513L92.2313 37.66C92.2313 36.86 92.0846 36.2467 91.7913 35.82C91.5113 35.3933 91.0713 35.18 90.4713 35.18C90.0446 35.18 89.6779 35.28 89.3713 35.48C89.0779 35.68 88.8513 35.9933 88.6913 36.42C88.5446 36.8467 88.4713 37.3933 88.4713 38.06C88.4713 38.7133 88.5579 39.2467 88.7313 39.66C88.9046 40.06 89.1513 40.3533 89.4713 40.54C89.7913 40.7133 90.1779 40.8 90.6313 40.8C91.1379 40.8 91.5379 40.7 91.8313 40.5C92.1379 40.3 92.3646 40.02 92.5113 39.66L95.2313 40.56C95.0446 41.1333 94.7179 41.62 94.2513 42.02C93.7979 42.4067 93.2513 42.7 92.6113 42.9C91.9846 43.1 91.3246 43.2 90.6313 43.2ZM101.533 43.2C100.533 43.2 99.5999 43.04 98.7333 42.72C97.8799 42.3867 97.1733 41.9133 96.6133 41.3L98.2133 39.42C98.5466 39.8467 98.9866 40.2067 99.5333 40.5C100.093 40.78 100.713 40.92 101.393 40.92C101.807 40.92 102.147 40.86 102.413 40.74C102.68 40.62 102.813 40.4333 102.813 40.18C102.813 39.9933 102.747 39.8467 102.613 39.74C102.48 39.62 102.213 39.52 101.813 39.44L100.413 39.16C99.1599 38.9067 98.2666 38.5333 97.7333 38.04C97.2133 37.5333 96.9533 36.8733 96.9533 36.06C96.9533 35.5133 97.1199 34.9933 97.4533 34.5C97.7866 33.9933 98.2999 33.5867 98.9933 33.28C99.6866 32.96 100.573 32.8 101.653 32.8C102.667 32.8 103.56 32.9467 104.333 33.24C105.107 33.5333 105.72 33.96 106.173 34.52L104.553 36.36C104.233 35.96 103.82 35.6467 103.313 35.42C102.807 35.1933 102.3 35.08 101.793 35.08C101.473 35.08 101.2 35.1133 100.973 35.18C100.76 35.2333 100.6 35.3133 100.493 35.42C100.387 35.5267 100.333 35.66 100.333 35.82C100.333 35.9933 100.413 36.1467 100.573 36.28C100.747 36.4 101.06 36.5067 101.513 36.6L103.333 36.96C104.36 37.1467 105.1 37.4867 105.553 37.98C106.007 38.4733 106.233 39.0667 106.233 39.76C106.233 40.4133 106.06 41 105.713 41.52C105.367 42.04 104.847 42.4533 104.153 42.76C103.46 43.0533 102.587 43.2 101.533 43.2ZM112.177 29.82V39.44C112.177 39.92 112.291 40.2667 112.517 40.48C112.757 40.68 113.084 40.78 113.497 40.78C113.817 40.78 114.091 40.7467 114.317 40.68C114.557 40.6 114.771 40.4867 114.957 40.34L115.317 42.44C114.984 42.68 114.564 42.8667 114.057 43C113.551 43.1333 113.031 43.2 112.497 43.2C111.737 43.2 111.077 43.0933 110.517 42.88C109.971 42.6667 109.544 42.3267 109.237 41.86C108.944 41.3933 108.791 40.7733 108.777 40V30.76L112.177 29.82ZM115.157 33V35.42H107.057V33H115.157ZM116.728 43V33H119.768L119.868 34.94C120.188 34.2333 120.634 33.7 121.208 33.34C121.794 32.98 122.468 32.8 123.228 32.8C123.974 32.8 124.621 32.9667 125.168 33.3C125.714 33.6333 126.121 34.1267 126.388 34.78C126.601 34.34 126.874 33.9733 127.208 33.68C127.554 33.3867 127.948 33.1667 128.388 33.02C128.828 32.8733 129.281 32.8 129.748 32.8C130.414 32.8 131.001 32.9333 131.508 33.2C132.014 33.4533 132.414 33.8467 132.708 34.38C133.014 34.9 133.168 35.5533 133.168 36.34V43H129.768V37.12C129.768 36.48 129.641 36.0333 129.388 35.78C129.148 35.5267 128.821 35.4 128.408 35.4C128.074 35.4 127.768 35.4867 127.488 35.66C127.221 35.82 127.014 36.0667 126.868 36.4C126.721 36.7333 126.648 37.1533 126.648 37.66V43H123.248V37.12C123.248 36.48 123.121 36.0333 122.868 35.78C122.614 35.5267 122.288 35.4 121.888 35.4C121.581 35.4 121.288 35.48 121.008 35.64C120.741 35.8 120.528 36.0533 120.368 36.4C120.208 36.7333 120.128 37.1733 120.128 37.72V43H116.728ZM140.436 43.2C139.329 43.2 138.369 42.9933 137.556 42.58C136.756 42.1667 136.136 41.5733 135.696 40.8C135.256 40.0267 135.036 39.0933 135.036 38C135.036 36.9067 135.256 35.9733 135.696 35.2C136.136 34.4267 136.749 33.8333 137.536 33.42C138.336 33.0067 139.249 32.8 140.276 32.8C141.329 32.8 142.223 33.0067 142.956 33.42C143.703 33.82 144.269 34.38 144.656 35.1C145.043 35.8067 145.236 36.62 145.236 37.54C145.236 37.78 145.229 38.02 145.216 38.26C145.203 38.5 145.183 38.7 145.156 38.86H137.236V37.04H143.656L142.036 37.66C142.036 36.86 141.889 36.2467 141.596 35.82C141.316 35.3933 140.876 35.18 140.276 35.18C139.849 35.18 139.483 35.28 139.176 35.48C138.883 35.68 138.656 35.9933 138.496 36.42C138.349 36.8467 138.276 37.3933 138.276 38.06C138.276 38.7133 138.363 39.2467 138.536 39.66C138.709 40.06 138.956 40.3533 139.276 40.54C139.596 40.7133 139.983 40.8 140.436 40.8C140.943 40.8 141.343 40.7 141.636 40.5C141.943 40.3 142.169 40.02 142.316 39.66L145.036 40.56C144.849 41.1333 144.523 41.62 144.056 42.02C143.603 42.4067 143.056 42.7 142.416 42.9C141.789 43.1 141.129 43.2 140.436 43.2ZM147.138 43V33H150.178L150.358 36.44L149.978 36.06C150.111 35.34 150.345 34.74 150.678 34.26C151.025 33.78 151.451 33.42 151.958 33.18C152.478 32.9267 153.058 32.8 153.698 32.8C154.391 32.8 154.991 32.9333 155.498 33.2C156.018 33.4667 156.425 33.86 156.718 34.38C157.011 34.9 157.158 35.5533 157.158 36.34V43H153.758V37.24C153.758 36.5467 153.625 36.0667 153.358 35.8C153.091 35.5333 152.751 35.4 152.338 35.4C152.018 35.4 151.718 35.48 151.438 35.64C151.158 35.7867 150.938 36.0267 150.778 36.36C150.618 36.6933 150.538 37.14 150.538 37.7V43H147.138ZM163.662 29.82V39.44C163.662 39.92 163.775 40.2667 164.002 40.48C164.242 40.68 164.568 40.78 164.982 40.78C165.302 40.78 165.575 40.7467 165.802 40.68C166.042 40.6 166.255 40.4867 166.442 40.34L166.802 42.44C166.468 42.68 166.048 42.8667 165.542 43C165.035 43.1333 164.515 43.2 163.982 43.2C163.222 43.2 162.562 43.0933 162.002 42.88C161.455 42.6667 161.028 42.3267 160.722 41.86C160.428 41.3933 160.275 40.7733 160.262 40V30.76L163.662 29.82ZM166.642 33V35.42H158.542V33H166.642ZM185.726 43H182.186L181.266 40.02H176.746L175.806 43H172.346L176.986 29.8H181.106L185.726 43ZM177.386 37.68H180.626L179.006 32.34L177.386 37.68ZM191.182 43.2C190.182 43.2 189.248 43.04 188.382 42.72C187.528 42.3867 186.822 41.9133 186.262 41.3L187.862 39.42C188.195 39.8467 188.635 40.2067 189.182 40.5C189.742 40.78 190.362 40.92 191.042 40.92C191.455 40.92 191.795 40.86 192.062 40.74C192.328 40.62 192.462 40.4333 192.462 40.18C192.462 39.9933 192.395 39.8467 192.262 39.74C192.128 39.62 191.862 39.52 191.462 39.44L190.062 39.16C188.808 38.9067 187.915 38.5333 187.382 38.04C186.862 37.5333 186.602 36.8733 186.602 36.06C186.602 35.5133 186.768 34.9933 187.102 34.5C187.435 33.9933 187.948 33.5867 188.642 33.28C189.335 32.96 190.222 32.8 191.302 32.8C192.315 32.8 193.208 32.9467 193.982 33.24C194.755 33.5333 195.368 33.96 195.822 34.52L194.202 36.36C193.882 35.96 193.468 35.6467 192.962 35.42C192.455 35.1933 191.948 35.08 191.442 35.08C191.122 35.08 190.848 35.1133 190.622 35.18C190.408 35.2333 190.248 35.3133 190.142 35.42C190.035 35.5267 189.982 35.66 189.982 35.82C189.982 35.9933 190.062 36.1467 190.222 36.28C190.395 36.4 190.708 36.5067 191.162 36.6L192.982 36.96C194.008 37.1467 194.748 37.4867 195.202 37.98C195.655 38.4733 195.882 39.0667 195.882 39.76C195.882 40.4133 195.708 41 195.362 41.52C195.015 42.04 194.495 42.4533 193.802 42.76C193.108 43.0533 192.235 43.2 191.182 43.2ZM201.846 43.2C200.846 43.2 199.912 43.04 199.046 42.72C198.192 42.3867 197.486 41.9133 196.926 41.3L198.526 39.42C198.859 39.8467 199.299 40.2067 199.846 40.5C200.406 40.78 201.026 40.92 201.706 40.92C202.119 40.92 202.459 40.86 202.726 40.74C202.992 40.62 203.126 40.4333 203.126 40.18C203.126 39.9933 203.059 39.8467 202.926 39.74C202.792 39.62 202.526 39.52 202.126 39.44L200.726 39.16C199.472 38.9067 198.579 38.5333 198.046 38.04C197.526 37.5333 197.266 36.8733 197.266 36.06C197.266 35.5133 197.432 34.9933 197.766 34.5C198.099 33.9933 198.612 33.5867 199.306 33.28C199.999 32.96 200.886 32.8 201.966 32.8C202.979 32.8 203.872 32.9467 204.646 33.24C205.419 33.5333 206.032 33.96 206.486 34.52L204.866 36.36C204.546 35.96 204.132 35.6467 203.626 35.42C203.119 35.1933 202.612 35.08 202.106 35.08C201.786 35.08 201.512 35.1133 201.286 35.18C201.072 35.2333 200.912 35.3133 200.806 35.42C200.699 35.5267 200.646 35.66 200.646 35.82C200.646 35.9933 200.726 36.1467 200.886 36.28C201.059 36.4 201.372 36.5067 201.826 36.6L203.646 36.96C204.672 37.1467 205.412 37.4867 205.866 37.98C206.319 38.4733 206.546 39.0667 206.546 39.76C206.546 40.4133 206.372 41 206.026 41.52C205.679 42.04 205.159 42.4533 204.466 42.76C203.772 43.0533 202.899 43.2 201.846 43.2ZM213.011 32.8C214.065 32.8 214.985 33.0067 215.771 33.42C216.571 33.82 217.191 34.4133 217.631 35.2C218.085 35.9733 218.311 36.9067 218.311 38C218.311 39.0933 218.085 40.0333 217.631 40.82C217.191 41.5933 216.571 42.1867 215.771 42.6C214.985 43 214.065 43.2 213.011 43.2C211.985 43.2 211.071 43 210.271 42.6C209.471 42.1867 208.845 41.5933 208.391 40.82C207.951 40.0333 207.731 39.0933 207.731 38C207.731 36.9067 207.951 35.9733 208.391 35.2C208.845 34.4133 209.471 33.82 210.271 33.42C211.071 33.0067 211.985 32.8 213.011 32.8ZM213.011 35.22C212.625 35.22 212.291 35.3133 212.011 35.5C211.731 35.6867 211.518 35.9867 211.371 36.4C211.225 36.8133 211.151 37.3467 211.151 38C211.151 38.6533 211.225 39.1867 211.371 39.6C211.518 40 211.731 40.3 212.011 40.5C212.291 40.6867 212.625 40.78 213.011 40.78C213.411 40.78 213.751 40.6867 214.031 40.5C214.311 40.3 214.525 40 214.671 39.6C214.818 39.1867 214.891 38.6533 214.891 38C214.891 37.3467 214.818 36.8133 214.671 36.4C214.525 35.9867 214.311 35.6867 214.031 35.5C213.751 35.3133 213.411 35.22 213.011 35.22ZM224.964 32.8C225.977 32.8 226.817 32.9467 227.484 33.24C228.164 33.52 228.691 33.9 229.064 34.38C229.451 34.8467 229.691 35.3533 229.784 35.9L226.644 36.94C226.551 36.3667 226.377 35.94 226.124 35.66C225.884 35.3667 225.531 35.22 225.064 35.22C224.637 35.22 224.277 35.32 223.984 35.52C223.704 35.7067 223.491 36.0133 223.344 36.44C223.197 36.8533 223.124 37.3867 223.124 38.04C223.124 38.6933 223.204 39.2267 223.364 39.64C223.524 40.04 223.751 40.3333 224.044 40.52C224.337 40.6933 224.684 40.78 225.084 40.78C225.417 40.78 225.691 40.72 225.904 40.6C226.131 40.4667 226.317 40.28 226.464 40.04C226.611 39.8 226.704 39.5067 226.744 39.16L229.804 40.14C229.711 40.7267 229.457 41.2533 229.044 41.72C228.644 42.1733 228.111 42.5333 227.444 42.8C226.777 43.0667 225.997 43.2 225.104 43.2C224.011 43.2 223.057 43 222.244 42.6C221.431 42.1867 220.804 41.5933 220.364 40.82C219.924 40.0333 219.704 39.0933 219.704 38C219.704 36.9067 219.924 35.9733 220.364 35.2C220.804 34.4133 221.417 33.82 222.204 33.42C223.004 33.0067 223.924 32.8 224.964 32.8ZM233.272 31.84C232.578 31.84 232.072 31.7133 231.752 31.46C231.445 31.1933 231.292 30.78 231.292 30.22C231.292 29.6467 231.445 29.2333 231.752 28.98C232.072 28.7133 232.578 28.58 233.272 28.58C233.952 28.58 234.452 28.7133 234.772 28.98C235.092 29.2333 235.252 29.6467 235.252 30.22C235.252 30.78 235.092 31.1933 234.772 31.46C234.452 31.7133 233.952 31.84 233.272 31.84ZM234.972 33V43H231.572V33H234.972ZM241.072 43.2C240.245 43.2 239.519 43 238.892 42.6C238.279 42.1867 237.799 41.5933 237.452 40.82C237.119 40.0467 236.952 39.12 236.952 38.04C236.952 36.92 237.125 35.9733 237.472 35.2C237.832 34.4267 238.325 33.8333 238.952 33.42C239.592 33.0067 240.325 32.8 241.152 32.8C242.059 32.8 242.805 33.08 243.392 33.64C243.992 34.1867 244.372 34.8867 244.532 35.74L244.212 36.16L244.412 33H247.492V43H244.352L244.212 39.6L244.632 39.9C244.552 40.5667 244.345 41.1467 244.012 41.64C243.692 42.1333 243.279 42.52 242.772 42.8C242.279 43.0667 241.712 43.2 241.072 43.2ZM242.252 40.7C242.639 40.7 242.965 40.6 243.232 40.4C243.512 40.1867 243.725 39.8733 243.872 39.46C244.032 39.0467 244.112 38.54 244.112 37.94C244.112 37.38 244.039 36.9067 243.892 36.52C243.745 36.12 243.532 35.82 243.252 35.62C242.985 35.4067 242.659 35.3 242.272 35.3C241.685 35.3 241.219 35.52 240.872 35.96C240.539 36.3867 240.372 37.0667 240.372 38C240.372 38.9333 240.539 39.62 240.872 40.06C241.205 40.4867 241.665 40.7 242.252 40.7ZM254.111 29.82V39.44C254.111 39.92 254.224 40.2667 254.451 40.48C254.691 40.68 255.018 40.78 255.431 40.78C255.751 40.78 256.024 40.7467 256.251 40.68C256.491 40.6 256.704 40.4867 256.891 40.34L257.251 42.44C256.918 42.68 256.498 42.8667 255.991 43C255.484 43.1333 254.964 43.2 254.431 43.2C253.671 43.2 253.011 43.0933 252.451 42.88C251.904 42.6667 251.478 42.3267 251.171 41.86C250.878 41.3933 250.724 40.7733 250.711 40V30.76L254.111 29.82ZM257.091 33V35.42H248.991V33H257.091ZM260.361 31.84C259.668 31.84 259.161 31.7133 258.841 31.46C258.535 31.1933 258.381 30.78 258.381 30.22C258.381 29.6467 258.535 29.2333 258.841 28.98C259.161 28.7133 259.668 28.58 260.361 28.58C261.041 28.58 261.541 28.7133 261.861 28.98C262.181 29.2333 262.341 29.6467 262.341 30.22C262.341 30.78 262.181 31.1933 261.861 31.46C261.541 31.7133 261.041 31.84 260.361 31.84ZM262.061 33V43H258.661V33H262.061ZM269.242 32.8C270.295 32.8 271.215 33.0067 272.002 33.42C272.802 33.82 273.422 34.4133 273.862 35.2C274.315 35.9733 274.542 36.9067 274.542 38C274.542 39.0933 274.315 40.0333 273.862 40.82C273.422 41.5933 272.802 42.1867 272.002 42.6C271.215 43 270.295 43.2 269.242 43.2C268.215 43.2 267.302 43 266.502 42.6C265.702 42.1867 265.075 41.5933 264.622 40.82C264.182 40.0333 263.962 39.0933 263.962 38C263.962 36.9067 264.182 35.9733 264.622 35.2C265.075 34.4133 265.702 33.82 266.502 33.42C267.302 33.0067 268.215 32.8 269.242 32.8ZM269.242 35.22C268.855 35.22 268.522 35.3133 268.242 35.5C267.962 35.6867 267.748 35.9867 267.602 36.4C267.455 36.8133 267.382 37.3467 267.382 38C267.382 38.6533 267.455 39.1867 267.602 39.6C267.748 40 267.962 40.3 268.242 40.5C268.522 40.6867 268.855 40.78 269.242 40.78C269.642 40.78 269.982 40.6867 270.262 40.5C270.542 40.3 270.755 40 270.902 39.6C271.048 39.1867 271.122 38.6533 271.122 38C271.122 37.3467 271.048 36.8133 270.902 36.4C270.755 35.9867 270.542 35.6867 270.262 35.5C269.982 35.3133 269.642 35.22 269.242 35.22ZM276.454 43V33H279.494L279.674 36.44L279.294 36.06C279.428 35.34 279.661 34.74 279.994 34.26C280.341 33.78 280.768 33.42 281.274 33.18C281.794 32.9267 282.374 32.8 283.014 32.8C283.708 32.8 284.308 32.9333 284.814 33.2C285.334 33.4667 285.741 33.86 286.034 34.38C286.328 34.9 286.474 35.5533 286.474 36.34V43H283.074V37.24C283.074 36.5467 282.941 36.0667 282.674 35.8C282.408 35.5333 282.068 35.4 281.654 35.4C281.334 35.4 281.034 35.48 280.754 35.64C280.474 35.7867 280.254 36.0267 280.094 36.36C279.934 36.6933 279.854 37.14 279.854 37.7V43H276.454ZM305.079 32.46H298.259V35.26H303.699V37.92H298.259V43H294.819V29.8H305.079V32.46ZM310.609 32.8C311.662 32.8 312.582 33.0067 313.369 33.42C314.169 33.82 314.789 34.4133 315.229 35.2C315.682 35.9733 315.909 36.9067 315.909 38C315.909 39.0933 315.682 40.0333 315.229 40.82C314.789 41.5933 314.169 42.1867 313.369 42.6C312.582 43 311.662 43.2 310.609 43.2C309.582 43.2 308.669 43 307.869 42.6C307.069 42.1867 306.442 41.5933 305.989 40.82C305.549 40.0333 305.329 39.0933 305.329 38C305.329 36.9067 305.549 35.9733 305.989 35.2C306.442 34.4133 307.069 33.82 307.869 33.42C308.669 33.0067 309.582 32.8 310.609 32.8ZM310.609 35.22C310.222 35.22 309.889 35.3133 309.609 35.5C309.329 35.6867 309.116 35.9867 308.969 36.4C308.822 36.8133 308.749 37.3467 308.749 38C308.749 38.6533 308.822 39.1867 308.969 39.6C309.116 40 309.329 40.3 309.609 40.5C309.889 40.6867 310.222 40.78 310.609 40.78C311.009 40.78 311.349 40.6867 311.629 40.5C311.909 40.3 312.122 40 312.269 39.6C312.416 39.1867 312.489 38.6533 312.489 38C312.489 37.3467 312.416 36.8133 312.269 36.4C312.122 35.9867 311.909 35.6867 311.629 35.5C311.349 35.3133 311.009 35.22 310.609 35.22ZM317.822 43V33H320.822L320.962 35.16C321.215 34.4133 321.588 33.8333 322.082 33.42C322.588 33.0067 323.228 32.8 324.002 32.8C324.255 32.8 324.468 32.82 324.642 32.86C324.828 32.9 324.975 32.9533 325.082 33.02L324.742 35.82C324.608 35.7667 324.435 35.7267 324.222 35.7C324.022 35.66 323.775 35.64 323.482 35.64C323.082 35.64 322.708 35.7267 322.362 35.9C322.015 36.0733 321.735 36.3333 321.522 36.68C321.322 37.0133 321.222 37.44 321.222 37.96V43H317.822ZM329.795 43.2C329.115 43.2 328.515 43.0867 327.995 42.86C327.489 42.62 327.089 42.24 326.795 41.72C326.502 41.2 326.355 40.52 326.355 39.68V33H329.755V38.88C329.755 39.52 329.882 39.9667 330.135 40.22C330.389 40.4733 330.749 40.6 331.215 40.6C331.455 40.6 331.682 40.56 331.895 40.48C332.109 40.3867 332.295 40.2533 332.455 40.08C332.615 39.8933 332.735 39.66 332.815 39.38C332.909 39.0867 332.955 38.7467 332.955 38.36V33H336.355V43H333.315L333.215 41.12C332.895 41.8267 332.449 42.3533 331.875 42.7C331.302 43.0333 330.609 43.2 329.795 43.2ZM338.798 43V33H341.838L341.938 34.94C342.258 34.2333 342.705 33.7 343.278 33.34C343.865 32.98 344.538 32.8 345.298 32.8C346.045 32.8 346.691 32.9667 347.238 33.3C347.785 33.6333 348.191 34.1267 348.458 34.78C348.671 34.34 348.945 33.9733 349.278 33.68C349.625 33.3867 350.018 33.1667 350.458 33.02C350.898 32.8733 351.351 32.8 351.818 32.8C352.485 32.8 353.071 32.9333 353.578 33.2C354.085 33.4533 354.485 33.8467 354.778 34.38C355.085 34.9 355.238 35.5533 355.238 36.34V43H351.838V37.12C351.838 36.48 351.711 36.0333 351.458 35.78C351.218 35.5267 350.891 35.4 350.478 35.4C350.145 35.4 349.838 35.4867 349.558 35.66C349.291 35.82 349.085 36.0667 348.938 36.4C348.791 36.7333 348.718 37.1533 348.718 37.66V43H345.318V37.12C345.318 36.48 345.191 36.0333 344.938 35.78C344.685 35.5267 344.358 35.4 343.958 35.4C343.651 35.4 343.358 35.48 343.078 35.64C342.811 35.8 342.598 36.0533 342.438 36.4C342.278 36.7333 342.198 37.1733 342.198 37.72V43H338.798Z" fill="white"/>
<path d="M46.188 43L25.3088 43L25.3088 33.7917H30.2387L27.825 29.6109L35.7996 25.0067L46.188 43Z" fill="#F6DBA8"/>
<path d="M33.5847 21.1704L23.094 3L12.6545 21.0818L20.6291 25.686L23.094 21.4166L25.6101 25.7746L33.5847 21.1704Z" fill="#F6DBA8"/>
<path d="M20.8791 43L20.8791 33.7917H15.9493L18.4142 29.5223L10.4396 24.9181L0 43L20.8791 43Z" fill="#F6DBA8"/>
</svg>
