<svg width="280" height="79" viewBox="0 0 280 79" fill="none" xmlns="http://www.w3.org/2000/svg">
<g clip-path="url(#clip0_905_552)">
<path d="M40.2944 5.91425C40.2944 2.58778 38.1404 1.21131 37.1201 0.867188C36.0998 1.0966 33.9458 2.58778 33.9458 5.91425C33.9458 9.24072 36.0998 10.2731 37.1201 10.2731C38.1404 10.1584 40.2944 9.24072 40.2944 5.91425Z" fill="#F6DBA8"/>
<path d="M25.8969 5.57086C25.2166 4.88263 24.083 4.88263 23.4027 5.57086C22.7225 6.2591 22.7225 7.40616 23.4027 8.09439L35.3064 20.1385V30.5767L16.3739 11.3062C15.6937 10.6179 14.56 10.6179 13.8798 11.3062C13.1996 11.9944 13.1996 13.1415 13.8798 13.8297L35.3064 35.5091V77.1473C35.3064 78.065 36.1 78.8679 37.007 78.8679C37.9139 78.8679 38.7075 78.065 38.7075 77.1473V35.7385L60.3609 13.8297C61.0411 13.1415 61.0411 11.9944 60.3609 11.3062C59.6807 10.6179 58.547 10.6179 57.8668 11.3062L38.8209 30.8062V20.1385L50.7246 8.09439C51.4048 7.40616 51.4048 6.2591 50.7246 5.57086C50.0443 4.88263 48.9107 4.88263 48.2305 5.57086L37.1203 16.9267L25.8969 5.57086Z" fill="#F6DBA8"/>
<path d="M57.7536 30.4615C58.4338 31.1497 58.4338 32.2968 57.7536 32.985L49.4777 41.2438V51.9115L70.3375 30.8056C71.0177 30.1174 72.1514 30.1174 72.8316 30.8056C73.5119 31.4938 73.5119 32.6409 72.8316 33.3291L49.4777 56.8438V67.0527C49.4777 67.9703 48.6841 68.7733 47.7772 68.7733C46.8702 68.7733 46.0767 67.9703 46.0767 67.0527V40.5556C46.0767 40.0968 46.3034 39.638 46.5301 39.2938L55.2595 30.4615C56.0531 29.7733 57.0734 29.7733 57.7536 30.4615Z" fill="#F6DBA8"/>
<path d="M16.3739 30.4615C15.6937 31.1497 15.6937 32.2968 16.3739 32.985L24.6498 41.3585V52.0262L3.67663 30.8056C2.99642 30.1174 1.86273 30.1174 1.18252 30.8056C0.50231 31.4938 0.50231 32.6409 1.18252 33.3291L24.6498 57.0733V67.1674C24.6498 68.085 25.4434 68.888 26.3503 68.888C27.2573 68.888 28.0509 68.085 28.0509 67.1674V40.5556C28.0509 40.0968 27.8241 39.638 27.5974 39.2938L18.868 30.4615C18.1878 29.7733 17.0541 29.7733 16.3739 30.4615Z" fill="#F6DBA8"/>
<path d="M65.803 21.8572C66.2564 22.7748 66.8233 25.2984 64.5559 27.7072C62.1752 30.116 60.0212 29.1984 59.2276 28.5101C58.5474 27.7072 57.7538 25.5278 60.0212 23.119C62.4019 20.8248 64.896 21.2837 65.803 21.8572Z" fill="#F6DBA8"/>
<path d="M8.66559 27.5939C6.28486 25.1851 6.8517 22.6616 7.41854 21.7439C8.32549 21.1704 10.8196 20.7116 13.2003 23.0057C15.5811 25.4145 14.6741 27.5939 13.9939 28.3969C13.2003 29.1998 10.933 30.0027 8.66559 27.5939Z" fill="#F6DBA8"/>
<path fill-rule="evenodd" clip-rule="evenodd" d="M168.288 50.4193C169.308 51.2223 170.442 51.7958 171.689 52.1399C173.162 52.5988 174.75 52.8282 176.223 52.8282C177.811 52.8282 179.511 52.5988 180.985 52.0252C182.232 51.5664 183.366 50.7635 184.159 49.7311C184.953 48.6988 185.293 47.5517 185.293 46.2899C185.293 45.3723 185.066 44.3399 184.386 43.6517C183.819 42.9635 183.139 42.5046 182.232 42.1605C181.212 41.7017 180.078 41.3576 179.058 41.1282C178.037 40.7841 177.244 40.5546 176.677 40.3252C176.223 40.0958 175.657 39.8664 175.316 39.5223C175.09 39.4076 174.976 39.1782 174.863 38.9488C174.75 38.7193 174.75 38.4899 174.75 38.2605C174.75 37.3429 175.203 36.6546 176.11 36.0811C177.017 35.5076 178.264 35.2782 179.738 35.2782C180.758 35.2782 181.778 35.3929 182.799 35.737C183.706 35.9664 184.613 36.4252 185.406 36.8841L186.88 33.9017C185.973 33.3282 184.839 32.8693 183.819 32.6399C182.572 32.2958 181.325 32.1811 179.965 32.1811C178.377 32.1811 176.79 32.4105 175.316 32.9841C174.069 33.4429 172.936 34.2458 172.142 35.2782C171.349 36.3105 171.008 37.4576 171.008 38.7193C171.008 39.7517 171.235 40.6693 171.915 41.4723C172.482 42.1605 173.162 42.7341 174.069 43.0782C175.09 43.537 176.223 43.8811 177.357 44.2252C178.377 44.4546 179.058 44.6841 179.624 44.9135C180.078 45.1429 180.531 45.3723 180.985 45.7164C181.212 45.8311 181.325 46.0605 181.438 46.2899C181.552 46.5193 181.552 46.7488 181.552 46.9782C181.552 47.8958 181.098 48.5841 180.191 49.0429C179.284 49.6164 178.037 49.8458 176.564 49.8458C175.316 49.8458 174.069 49.6164 172.936 49.2723C171.802 48.9282 170.782 48.3546 169.875 47.6664L168.288 50.4193ZM210.007 52.5988L221.004 32.1811H217.149L208.647 47.8958L206.606 32.1811H202.978L194.589 47.6664L192.548 32.1811H188.694L191.415 52.5988H195.496L203.772 37.687L205.813 52.5988H210.007ZM230.073 47.7811H219.644L216.696 52.4841H212.615L226.106 32.0664H229.96L235.062 52.4841H231.207L230.073 47.7811ZM229.393 44.7988L227.239 35.8517L221.571 44.7988H229.393ZM256.488 38.2605C256.488 36.3105 255.808 34.8193 254.448 33.6723C253.087 32.6399 251.16 32.0664 248.666 32.0664H240.73L236.535 52.5988H240.39L241.637 46.7488H246.739C248.553 46.7488 250.366 46.4046 251.954 45.7164C253.314 45.1429 254.561 44.1105 255.355 42.8488C256.035 41.3576 256.488 39.8664 256.488 38.2605ZM252.634 38.6046C252.634 40.2105 252.18 41.3576 251.16 42.1605C250.14 42.9635 248.666 43.4223 246.852 43.4223H242.317L243.904 35.2782H248.212C249.686 35.2782 250.707 35.5076 251.5 36.0811C252.18 36.7693 252.634 37.5723 252.634 38.6046Z" fill="#F6DBA8"/>
<path fill-rule="evenodd" clip-rule="evenodd" d="M100.606 52.4841V50.6488H88.1359V43.0782H98.7926V41.2429H88.1359V34.0164H100.153V32.1811H85.9819V52.4841H100.606ZM112.51 32.0664H104.121V52.4841H112.51C114.551 52.4841 116.478 52.0252 118.292 51.2223C119.879 50.4194 121.24 49.1576 122.147 47.6664C123.053 46.0605 123.507 44.2252 123.507 42.3899C123.507 40.5546 123.053 38.7193 122.147 37.1135C121.24 35.6223 119.879 34.3605 118.292 33.5576C116.478 32.4105 114.551 32.0664 112.51 32.0664ZM117.158 49.5017C115.684 50.1899 114.097 50.6488 112.397 50.5341H106.275V33.9017H112.397C114.097 33.9017 115.684 34.2458 117.158 34.9341C118.519 35.6223 119.539 36.6546 120.333 37.9164C121.013 39.2929 121.466 40.7841 121.466 42.2752C121.466 43.7664 121.126 45.2576 120.333 46.6341C119.539 47.8958 118.405 48.9282 117.158 49.5017ZM126.795 32.0664H135.184C137.225 32.0664 139.152 32.5252 140.966 33.3282C142.553 34.1311 143.913 35.3929 144.82 36.8841C145.727 38.4899 146.181 40.3252 146.181 42.1605C146.181 43.9958 145.727 45.8311 144.82 47.437C143.913 48.9282 142.553 50.1899 140.966 50.9929C139.152 51.9105 137.225 52.3694 135.184 52.2546H126.795V32.0664ZM135.071 50.6488C136.771 50.6488 138.358 50.3046 139.832 49.6164C141.192 48.9282 142.213 47.8958 143.006 46.6341C143.687 45.2576 144.14 43.7664 144.14 42.2752C144.14 40.7841 143.8 39.2929 143.006 37.9164C142.213 36.6546 141.192 35.6223 139.832 34.9341C138.358 34.2458 136.771 33.787 135.071 33.9017H128.949V50.5341H135.071V50.6488ZM150.715 46.9782H162.279L164.773 52.4841H167.04L157.631 32.0664H155.477L145.954 52.4841H148.221L150.715 46.9782ZM156.497 34.2458L161.485 45.2576H151.509L156.497 34.2458Z" fill="#F6DBA8"/>
<path d="M263.178 30.2323H260.23V28.5117H268.279V30.2323H265.332V37.8029H263.178V30.2323Z" fill="#F6DBA8"/>
<path d="M277.689 37.8029V32.1823L274.968 36.7705H274.061L271.34 32.297V37.8029H269.413V28.5117H271.113L274.514 34.247L277.915 28.5117H279.616V37.8029H277.689Z" fill="#F6DBA8"/>
</g>
<defs>
<clipPath id="clip0_905_552">
<rect width="279" height="78" fill="white" transform="translate(0.729004 0.867188)"/>
</clipPath>
</defs>
</svg>
