<svg width="301" height="140" viewBox="0 0 301 140" fill="none" xmlns="http://www.w3.org/2000/svg">
<path d="M112.178 70.2567V79.889C112.175 80.4897 112.016 81.0792 111.716 81.5998C111.417 82.1205 110.987 82.5545 110.469 82.8595L102.126 87.6656C101.609 87.9737 101.018 88.1363 100.417 88.1363C99.815 88.1363 99.2245 87.9737 98.7078 87.6656L90.3638 82.8595C89.8462 82.5545 89.4167 82.1205 89.1172 81.5998C88.8177 81.0792 88.6584 80.4897 88.6549 79.889V77.1856L92.927 74.7057V79.4051L100.403 83.7439L107.879 79.4051V70.7473L100.403 66.4084L82.8876 76.5548C82.366 76.8486 81.7774 77.0031 81.1787 77.0031C80.58 77.0031 79.9915 76.8486 79.4699 76.5548L71.1258 71.7286C70.6163 71.419 70.195 70.9834 69.9027 70.4636C69.6104 69.944 69.4569 69.3577 69.457 68.7615V59.1291C69.4605 58.5284 69.6198 57.939 69.9194 57.4183C70.2188 56.8976 70.6484 56.4636 71.1658 56.1586L79.5099 51.3525C80.0278 51.0475 80.6177 50.8867 81.2187 50.8867C81.8198 50.8867 82.4097 51.0475 82.9276 51.3525L91.2717 56.1586C91.7891 56.4636 92.2187 56.8976 92.5181 57.4183C92.8177 57.939 92.977 58.5284 92.9805 59.1291V61.8325L88.6817 64.2957V59.6231L81.2054 55.2842L73.7291 59.6231V68.2708L81.2054 72.6097L98.7211 62.4634C99.2427 62.1695 99.8313 62.0151 100.43 62.0151C101.029 62.0151 101.617 62.1695 102.139 62.4634L110.483 67.2895C110.997 67.5959 111.424 68.0301 111.721 68.55C112.018 69.07 112.176 69.6579 112.178 70.2567Z" fill="#F6DBA8"/>
<path d="M127.048 83.3915V75.8852C127.862 76.9098 129.341 77.4839 131.053 77.4839C135.425 77.4839 138.379 74.3799 138.379 69.6473C138.379 64.9145 135.666 61.8105 131.417 61.8105C129.458 61.8105 127.949 62.5348 127.045 63.7097V62.0408H122.859V83.3814L127.048 83.3915ZM130.536 73.8659C128.273 73.8659 126.798 72.1772 126.798 69.6473C126.798 67.1174 128.273 65.3984 130.536 65.3984C132.735 65.3984 134.244 67.0673 134.244 69.6473C134.244 72.2272 132.745 73.8659 130.536 73.8659Z" fill="#F6DBA8"/>
<path d="M147.889 77.4839C152.562 77.4839 155.899 74.1664 155.899 69.6473C155.899 65.1281 152.562 61.8105 147.889 61.8105C143.216 61.8105 139.879 65.1248 139.879 69.6473C139.879 74.1696 143.216 77.4839 147.889 77.4839ZM147.889 73.8659C145.63 73.8659 144.091 72.1471 144.091 69.6473C144.091 67.1474 145.633 65.3984 147.889 65.3984C150.145 65.3984 151.687 67.114 151.687 69.6473C151.687 72.1804 150.152 73.8659 147.889 73.8659Z" fill="#F6DBA8"/>
<path d="M162.634 77.2418V55.4473H158.445V77.2418H162.634Z" fill="#F6DBA8"/>
<path d="M175.229 62.0508L172.065 71.8467L168.871 62.0508H164.582L170.096 77.1201L167.866 83.3914H171.872L174.024 77.1869L179.541 62.0574L175.229 62.0508Z" fill="#F6DBA8"/>
<path d="M191.305 63.5594C190.46 62.5047 188.969 61.8105 187.116 61.8105C182.684 61.8105 180.004 64.9145 180.004 69.6473C180.004 74.3799 182.674 77.4839 187.176 77.4839C188.955 77.4839 190.551 76.8164 191.335 75.7049V77.7075C191.335 79.1227 190.401 80.1173 189.136 80.1173H182.143V83.4048H189.8C193.234 83.4048 195.524 81.3255 195.524 78.1581V62.0508H191.305V63.5594ZM187.84 73.8659C185.608 73.8659 184.133 72.1971 184.133 69.6473C184.133 67.0973 185.608 65.3984 187.84 65.3984C190.073 65.3984 191.575 67.0673 191.575 69.6473C191.575 72.2272 190.1 73.8659 187.84 73.8659Z" fill="#F6DBA8"/>
<path d="M206.088 77.4839C210.761 77.4839 214.099 74.1664 214.099 69.6473C214.099 65.1281 210.761 61.8105 206.088 61.8105C201.416 61.8105 198.078 65.1248 198.078 69.6473C198.078 74.1696 201.416 77.4839 206.088 77.4839ZM206.088 73.8659C203.826 73.8659 202.29 72.1471 202.29 69.6473C202.29 67.1474 203.826 65.3984 206.088 65.3984C208.352 65.3984 209.887 67.114 209.887 69.6473C209.887 72.1804 208.348 73.8659 206.088 73.8659Z" fill="#F6DBA8"/>
<path d="M220.613 77.2436V68.9229C220.613 66.9638 221.908 65.5487 223.747 65.5487C225.496 65.5487 226.671 66.8837 226.671 68.7127V77.2436H230.889V67.7781C230.889 64.2804 228.661 61.8105 225.216 61.8105C223.136 61.8105 221.451 62.685 220.607 64.1469V62.0508H216.395V77.2436H220.613Z" fill="#F6DBA8"/>
</svg>
