<svg width="235" height="51" viewBox="0 0 235 51" fill="none" xmlns="http://www.w3.org/2000/svg">
<g clip-path="url(#clip0_905_568)">
<path d="M91.7191 16.2464C93.1546 17.1072 94.3694 18.2907 95.1423 19.9046C96.0257 21.5185 96.4674 23.4553 96.4674 25.6071C96.4674 27.759 96.0257 29.5882 95.0319 31.2021C94.1484 32.816 92.8233 33.9996 91.1668 34.7526C89.5105 35.6135 87.5226 36.0439 85.4246 36.0439C84.2098 36.0439 83.1054 35.8286 82.0012 35.3984C80.8968 35.0756 79.903 34.4298 79.1299 33.6769V44.8667H72.7251V15.3856H78.2465L78.7988 17.7527C81.2282 15.816 83.8785 14.8477 86.6392 14.8477C88.5164 14.8477 90.2833 15.278 91.7191 16.2464ZM88.1853 29.5882C89.2895 28.6199 89.8416 27.3286 89.8416 25.7147C89.8416 24.1009 89.2895 22.8098 88.2957 21.7337C87.3019 20.6578 85.9767 20.2274 84.5412 20.2274C83.3264 20.2274 82.222 20.4426 81.3385 20.9806C80.4551 21.4109 79.7926 22.1641 79.2405 23.1326V27.9741C79.5717 28.9427 80.2344 29.6957 81.0074 30.2338C81.8909 30.7717 82.8847 31.0944 84.0995 31.0944C85.7557 31.0944 87.0809 30.5566 88.1853 29.5882Z" fill="#F6DBA8"/>
<path d="M100.221 20.0101C101.215 18.5038 102.54 17.2126 104.307 16.3519C106.074 15.4911 108.062 14.9531 110.27 14.9531C112.479 14.9531 114.467 15.3835 116.233 16.3519C117.89 17.2126 119.215 18.5038 120.209 20.1177C121.203 21.7316 121.645 23.4532 121.645 25.4975C121.645 27.5418 121.203 29.2633 120.209 30.8772C119.215 32.491 118 33.7821 116.233 34.643C114.577 35.5037 112.479 36.0418 110.27 36.0418C108.062 36.0418 106.074 35.6113 104.307 34.7507C102.54 33.8898 101.215 32.7064 100.221 31.0923C99.3377 29.4784 98.7856 27.6492 98.7856 25.4975C98.7856 23.4532 99.3377 21.624 100.221 20.0101ZM106.737 29.3708C107.62 30.4467 108.835 30.8772 110.27 30.8772C111.706 30.8772 112.921 30.3393 113.804 29.3708C114.688 28.4024 115.129 27.0037 115.129 25.4975C115.129 23.8836 114.688 22.5924 113.804 21.624C112.81 20.5481 111.706 20.0101 110.16 20.0101C108.724 20.0101 107.62 20.5481 106.626 21.5164C105.743 22.5924 105.301 23.8836 105.301 25.4975C105.301 27.0037 105.743 28.295 106.737 29.3708Z" fill="#F6DBA8"/>
<path d="M132.026 0.105469V35.5043H125.622V0.105469H132.026Z" fill="#F6DBA8"/>
<path d="M158.307 15.9219L145.276 44.9725H139.093L143.951 34.5359L134.675 15.9219H141.964L147.264 27.5421L152.565 15.9219H158.307Z" fill="#F6DBA8"/>
<path d="M182.822 15.9215V35.5037C182.822 37.3329 182.27 39.0544 181.166 40.5608C180.062 42.067 178.626 43.2507 176.749 44.1113C174.871 44.9722 172.884 45.4024 170.675 45.4024C169.019 45.4024 167.583 45.1873 166.368 44.8646C165.153 44.4341 164.16 44.0037 163.387 43.5735C162.503 43.0354 161.62 42.3898 160.626 41.5292L164.381 37.2252C165.264 38.0861 166.258 38.7316 167.141 39.1621C168.025 39.5923 169.239 39.9151 170.565 39.9151C172.221 39.9151 173.546 39.4848 174.651 38.7316C175.755 37.9784 176.307 36.795 176.307 35.3962V32.5987C175.644 33.567 174.761 34.4279 173.436 35.0735C172.111 35.719 170.565 36.0418 168.798 36.0418C167.031 36.0418 165.264 35.6113 163.718 34.643C162.172 33.7821 160.957 32.4911 159.963 30.8772C159.08 29.2633 158.528 27.5418 158.528 25.6051C158.528 23.6683 158.97 21.8392 159.963 20.2253C160.957 18.6114 162.172 17.3202 163.828 16.3519C165.374 15.3835 167.031 14.9531 168.798 14.9531C170.454 14.9531 171.89 15.1683 173.215 15.5987C174.54 16.0291 175.534 16.6747 176.196 17.4278L176.859 15.9215H182.822ZM176.307 27.9722V23.1304C175.865 22.162 175.203 21.4088 174.209 20.8708C173.215 20.3329 172.111 20.0101 170.785 20.0101C169.239 20.0101 167.914 20.5481 166.81 21.5164C165.706 22.4848 165.153 23.7759 165.153 25.3898C165.153 26.8962 165.706 28.295 166.81 29.3708C167.914 30.4467 169.239 30.9848 170.785 30.9848C173.325 30.8772 175.203 29.9089 176.307 27.9722Z" fill="#F6DBA8"/>
<path d="M188.125 20.0122C189.118 18.3983 190.443 17.2147 192.21 16.2464C193.977 15.3856 195.965 14.8477 198.174 14.8477C200.382 14.8477 202.37 15.278 204.137 16.2464C205.793 17.1072 207.118 18.3983 208.112 20.0122C208.996 21.6261 209.548 23.3477 209.548 25.392C209.548 27.4363 209.106 29.1578 208.112 30.7717C207.229 32.3855 205.904 33.6769 204.137 34.5375C202.48 35.3984 200.382 35.9363 198.174 35.9363C195.965 35.9363 193.977 35.5058 192.21 34.6452C190.443 33.7843 189.118 32.6009 188.125 30.987C187.131 29.3729 186.689 27.5439 186.689 25.2843C186.689 23.4553 187.131 21.6261 188.125 20.0122ZM194.53 29.3729C195.413 30.4489 196.628 30.8793 198.063 30.8793C199.499 30.8793 200.713 30.3412 201.597 29.3729C202.48 28.4046 202.922 27.0058 202.922 25.4996C202.922 23.8855 202.48 22.5945 201.597 21.6261C200.713 20.6578 199.499 20.1198 198.063 20.1198C196.628 20.1198 195.523 20.6578 194.53 21.6261C193.536 22.5945 193.094 23.9932 193.094 25.4996C193.204 27.0058 193.646 28.2969 194.53 29.3729Z" fill="#F6DBA8"/>
<path d="M232.187 16.5671C233.512 17.643 234.063 19.0417 234.172 20.7633V35.5037H227.658V23.1304C227.548 21.1936 226.554 20.2253 224.676 20.2253C223.241 20.2253 222.026 20.8708 221.143 22.2696C220.259 23.6683 219.818 25.3898 219.818 27.4341V35.5037H213.413V15.9215H219.265L219.707 19.0417C220.48 17.7506 221.474 16.7823 222.799 16.0291C224.124 15.2759 225.67 14.9531 227.437 14.9531C229.314 14.9531 230.971 15.4911 232.187 16.5671Z" fill="#F6DBA8"/>
<path d="M45.338 15.6002C44.2336 14.9546 42.7981 14.9546 41.5835 15.6002L32.9698 20.5496L27.1171 23.7775L18.5037 28.7268C17.3994 29.3723 15.9638 29.3723 14.7491 28.7268L7.90243 24.8533C6.79813 24.2077 6.02513 23.0243 6.02513 21.7331V14.0939C6.02513 12.8027 6.68771 11.6192 7.90243 10.9736L14.6386 7.2078C15.7429 6.56223 17.1785 6.56223 18.3932 7.2078L25.1295 10.9736C26.2337 11.6192 27.0067 12.8027 27.0067 14.0939V19.0432L32.8595 15.7078V10.7584C32.8595 9.46728 32.197 8.28374 30.9822 7.63817L18.5037 0.536912C17.3994 -0.108658 15.9638 -0.108658 14.7491 0.536912L2.04966 7.63817C0.83494 8.28374 0.172363 9.46728 0.172363 10.7584V25.0686C0.172363 26.3597 0.83494 27.5433 2.04966 28.1889L14.7491 35.2901C15.8533 35.9357 17.2889 35.9357 18.5037 35.2901L27.1171 30.4483L32.9698 27.1129L41.5835 22.2711C42.6877 21.6255 44.1232 21.6255 45.338 22.2711L52.0742 26.0369C53.1784 26.6825 53.9515 27.8661 53.9515 29.1572V36.7963C53.9515 38.0876 53.289 39.2711 52.0742 39.9166L45.338 43.7901C44.2336 44.4357 42.7981 44.4357 41.5835 43.7901L34.8473 40.0243C33.7429 39.3787 32.9698 38.1951 32.9698 36.904V31.9547L27.1171 35.2901V40.2394C27.1171 41.5305 27.7798 42.7141 28.9944 43.3597L41.6939 50.4609C42.7981 51.1065 44.2336 51.1065 45.4484 50.4609L58.1479 43.3597C59.2521 42.7141 60.0252 41.5305 60.0252 40.2394V25.9292C60.0252 24.6381 59.3625 23.4547 58.1479 22.8092L45.338 15.6002Z" fill="#F6DBA8"/>
</g>
<defs>
<clipPath id="clip0_905_568">
<rect width="234" height="51" fill="white" transform="translate(0.172363)"/>
</clipPath>
</defs>
</svg>
