<svg width="301" height="139" viewBox="0 0 301 139" fill="none" xmlns="http://www.w3.org/2000/svg">
<path d="M80.0651 53.9805L77.4936 55.3315V66.8097L78.8979 67.5485V58.8071L83.7185 61.3408L83.7231 61.3388L84.6591 61.83L85.4406 61.422V60.7321L78.8979 57.2981V56.103L80.0651 55.4898L86.8408 59.0516V62.2216L83.5881 63.9216L83.4782 63.8713C83.2802 63.7811 83.0751 63.7351 82.869 63.7351C82.095 63.7351 81.465 64.3258 81.465 65.0515C81.465 65.7773 82.095 66.3683 82.869 66.3683C83.5872 66.3683 84.1843 65.8599 84.2578 65.186L84.2702 65.0725L87.5531 63.3568L90.5975 64.9572V72.0382L87.5497 73.6387L75.1623 67.1254V55.3324L72.5908 53.9805L64.4113 58.2802V62.2039L60.6543 64.1762V72.8006L64.4113 74.7756V78.7063L72.5908 83.006L75.1623 81.6543V70.1514L73.758 69.4135V78.1796L67.997 75.1565L67.2153 75.5645V76.2547L73.758 79.689V80.8829L72.5908 81.4966L65.8153 77.9349V74.7642L69.068 73.0651L69.1773 73.1152C69.3762 73.2054 69.5807 73.2514 69.7865 73.2514C70.5608 73.2514 71.1908 72.6609 71.1908 71.9349C71.1908 71.2086 70.5608 70.6185 69.7865 70.6185C69.069 70.6185 68.4725 71.1266 68.398 71.8008L68.3862 71.914L65.1028 73.6299L62.0583 72.0292V64.9482L65.1065 63.3481L77.4936 69.8604V81.6543L80.0651 83.006L88.2448 78.7063V74.7826L92.0019 72.8105V64.1858L88.2448 62.2114V58.2802L80.0651 53.9805ZM65.8153 59.0516L72.5908 55.4898L73.758 56.1033V57.2975L65.8153 61.4665V59.0516ZM66.5437 62.5941L73.758 58.8066V66.3869L66.5437 62.5941ZM78.8979 70.599L86.1128 74.3926L78.8979 78.1802V70.599ZM78.8979 80.8829V79.6893L86.8408 75.5196V77.9349L80.0651 81.4966L78.8979 80.8829Z" fill="#F6DBA8"/>
<path fill-rule="evenodd" clip-rule="evenodd" d="M186.632 75.0521C187.618 75.0521 188.423 74.7705 189.045 74.2061C189.666 73.642 189.978 72.9477 189.978 72.123C189.978 71.2986 189.666 70.6046 189.045 70.04C188.423 69.4762 187.618 69.194 186.632 69.194H181.703V75.0521H186.632ZM181.703 66.2646H186.28C187.078 66.2646 187.747 66.0206 188.287 65.5324C188.827 65.0442 189.098 64.4748 189.098 63.8235C189.098 63.1727 188.827 62.6033 188.287 62.1151C187.747 61.6266 187.078 61.3826 186.28 61.3826H181.703V66.2646ZM190.682 67.5667C191.339 67.8486 191.926 68.2172 192.442 68.673C192.888 69.0635 193.293 69.5844 193.657 70.2352C194.021 70.8863 194.203 71.6786 194.203 72.6113C194.203 73.3925 194.027 74.1358 193.675 74.8405C193.323 75.5459 192.824 76.1645 192.179 76.6957C191.533 77.2277 190.77 77.6561 189.889 77.9815C189.009 78.3068 188.041 78.4697 186.984 78.4697H177.477V57.9653H186.632C187.595 57.9653 188.487 58.1174 189.309 58.4211C190.13 58.7252 190.84 59.137 191.439 59.6576C192.038 60.1785 192.501 60.7809 192.83 61.4637C193.159 62.1475 193.323 62.8797 193.323 63.6609C193.323 64.3557 193.182 64.9522 192.9 65.451C192.619 65.9506 192.313 66.3516 191.985 66.6553C191.586 67.0245 191.151 67.328 190.682 67.5667ZM128.423 69.4339L125.447 78.3334H121.946L116.694 63.4467H120.721L123.872 72.9933L127.198 63.4467H129.649L132.975 72.9933L136.126 63.4467H140.153L134.901 78.3334H131.399L128.423 69.4339ZM141.728 78.3335V63.4468H145.755V78.3335H141.728ZM211.948 70.8901C211.948 71.9471 211.731 72.9347 211.3 73.851C210.867 74.7682 210.284 75.5719 209.549 76.2621C208.814 76.9529 207.962 77.4977 206.993 77.8963C206.024 78.2958 204.991 78.4952 203.895 78.4952C202.797 78.4952 201.764 78.2958 200.795 77.8963C199.827 77.4977 198.975 76.9529 198.24 76.2621C197.505 75.5719 196.921 74.7682 196.489 73.851C196.057 72.9347 195.841 71.9471 195.841 70.8901C195.841 69.8329 196.057 68.8459 196.489 67.929C196.921 67.0123 197.505 66.2086 198.24 65.5179C198.975 64.8277 199.827 64.2829 200.795 63.8834C201.764 63.4844 202.797 63.2845 203.895 63.2845C204.991 63.2845 206.024 63.4844 206.993 63.8834C207.962 64.2829 208.814 64.8277 209.549 65.5179C210.284 66.2086 210.867 67.0123 211.3 67.929C211.731 68.8459 211.948 69.8329 211.948 70.8901ZM199.868 70.8901C199.868 72.1196 200.253 73.1016 201.023 73.835C201.794 74.5686 202.75 74.9352 203.895 74.9352C205.038 74.9352 205.995 74.5686 206.766 73.835C207.536 73.1016 207.921 72.1196 207.921 70.8901C207.921 69.6601 207.536 68.679 206.766 67.945C205.995 67.2117 205.038 66.8448 203.895 66.8448C202.75 66.8448 201.794 67.2117 201.023 67.945C200.253 68.679 199.868 69.6601 199.868 70.8901ZM221.57 63.2847C221.756 63.2847 221.92 63.2961 222.06 63.3171C222.2 63.339 222.328 63.3606 222.445 63.3816C222.562 63.4035 222.678 63.4251 222.795 63.4469V67.33C222.678 67.309 222.55 67.2871 222.41 67.2655C222.293 67.2439 222.147 67.2226 221.972 67.2007C221.798 67.1794 221.605 67.1686 221.395 67.1686C220.414 67.1686 219.615 67.4651 218.996 68.0584C218.378 68.652 218.068 69.4338 218.068 70.4041V78.3333H214.042V63.4469H217.018L217.718 65.0648C217.998 64.7409 218.336 64.4497 218.734 64.1908C219.06 63.9538 219.463 63.7434 219.942 63.5596C220.42 63.3766 220.962 63.2847 221.57 63.2847ZM114.768 61.6828C115.014 62.2358 115.169 62.825 115.242 63.4469H111.174C111.047 62.9154 110.788 62.4716 110.392 62.1196C109.808 61.6022 108.991 61.3431 107.941 61.3431C106.89 61.3431 106.073 61.5806 105.49 62.0548C104.906 62.5296 104.615 63.0476 104.615 63.6085C104.615 64.2126 104.895 64.6763 105.455 65C106.015 65.3239 106.715 65.6148 107.556 65.8737C108.396 66.1328 109.312 66.4028 110.304 66.6826C111.296 66.9637 112.212 67.3413 113.052 67.8155C113.893 68.2903 114.593 68.9107 115.154 69.6765C115.714 70.4425 115.994 71.4403 115.994 72.6701C115.994 73.4034 115.801 74.1158 115.416 74.8056C115.031 75.4967 114.488 76.1162 113.788 76.6669C113.088 77.2164 112.241 77.6591 111.249 77.9939C110.257 78.3283 109.154 78.4949 107.941 78.4949C106.703 78.4949 105.601 78.3335 104.632 78.0096C103.663 77.686 102.84 77.2281 102.164 76.6342C101.486 76.0412 100.967 75.3397 100.606 74.5305C100.243 73.7218 100.063 72.8317 100.063 71.8608H104.264C104.264 72.7669 104.591 73.5064 105.245 74.0778C105.898 74.6495 106.797 74.9352 107.941 74.9352C109.178 74.9352 110.099 74.6927 110.707 74.2071C111.314 73.7218 111.617 73.1554 111.617 72.5081C111.617 71.8824 111.337 71.3971 110.777 71.0516C110.217 70.7069 109.516 70.3996 108.676 70.1294C107.836 69.8601 106.919 69.5954 105.928 69.3368C104.935 69.0777 104.019 68.7216 103.179 68.2687C102.339 67.8155 101.638 67.2281 101.078 66.5046C100.518 65.7821 100.238 64.8275 100.238 63.6406C100.238 62.8641 100.418 62.1196 100.781 61.4079C101.142 60.6955 101.656 60.0757 102.321 59.5469C102.987 59.0184 103.791 58.592 104.737 58.2684C105.682 57.945 106.75 57.7831 107.941 57.7831C109.038 57.7831 110.036 57.945 110.934 58.2684C111.833 58.592 112.609 59.0455 113.263 59.6277C113.916 60.2102 114.418 60.8957 114.768 61.6828ZM174.378 71.8123C174.786 72.3624 174.99 73.0803 174.99 73.9643C174.99 74.5687 174.85 75.1456 174.57 75.6957C174.29 76.2458 173.893 76.7264 173.38 77.1359C172.866 77.5462 172.242 77.8751 171.507 78.1231C170.771 78.3709 169.948 78.4949 169.038 78.4949C166.937 78.4949 165.344 78.0534 164.259 77.1685C163.646 76.6689 163.186 76.0733 162.866 75.3881L166.237 73.6412C166.331 74.1376 166.587 74.5579 167.007 74.9031C167.427 75.248 167.988 75.4205 168.688 75.4205C169.388 75.4205 169.942 75.2539 170.351 74.9191C170.759 74.5847 170.964 74.2129 170.964 73.8026C170.964 73.4577 170.759 73.1877 170.351 72.9934C169.942 72.7993 169.435 72.6213 168.828 72.4599C168.221 72.2977 167.562 72.131 166.85 71.958C166.137 71.7855 165.478 71.5322 164.872 71.1975C164.264 70.863 163.756 70.432 163.348 69.9029C162.94 69.3744 162.736 68.679 162.736 67.8155C162.736 67.2114 162.87 66.6345 163.138 66.0841C163.407 65.534 163.797 65.0542 164.311 64.6442C164.824 64.2342 165.432 63.905 166.132 63.6572C166.833 63.4092 167.625 63.2846 168.513 63.2846C170.45 63.2846 171.938 63.7168 172.977 64.5794C173.52 65.0303 173.943 65.5416 174.253 66.1103L170.964 67.8152C170.87 67.4918 170.619 67.1682 170.211 66.8449C169.803 66.5209 169.295 66.359 168.688 66.359C168.081 66.359 167.608 66.4996 167.27 66.7801C166.931 67.0605 166.762 67.4058 166.762 67.8155C166.762 68.1607 166.966 68.4304 167.375 68.6247C167.783 68.8185 168.291 68.9968 168.898 69.1588C169.505 69.3204 170.164 69.4935 170.876 69.6765C171.588 69.86 172.248 70.1244 172.855 70.4694C173.462 70.8146 173.969 71.262 174.378 71.8123ZM160.197 71.8123C160.605 72.3624 160.81 73.0803 160.81 73.9643C160.81 74.5687 160.67 75.1456 160.39 75.6957C160.11 76.2458 159.713 76.7264 159.199 77.1359C158.686 77.5462 158.062 77.8751 157.326 78.1231C156.591 78.3709 155.768 78.4949 154.858 78.4949C152.757 78.4949 151.164 78.0534 150.078 77.1685C149.466 76.6689 149.005 76.0733 148.686 75.3881L152.057 73.6412C152.15 74.1376 152.407 74.5579 152.827 74.9031C153.247 75.248 153.807 75.4205 154.508 75.4205C155.208 75.4205 155.762 75.2539 156.171 74.9191C156.579 74.5847 156.783 74.2129 156.783 73.8026C156.783 73.4577 156.579 73.1877 156.171 72.9934C155.762 72.7993 155.254 72.6213 154.648 72.4599C154.04 72.2977 153.381 72.131 152.669 71.958C151.957 71.7855 151.298 71.5322 150.691 71.1975C150.084 70.863 149.576 70.432 149.168 69.9029C148.759 69.3744 148.556 68.679 148.556 67.8155C148.556 67.2114 148.689 66.6345 148.958 66.0841C149.226 65.534 149.617 65.0542 150.131 64.6442C150.644 64.2342 151.252 63.905 151.952 63.6572C152.652 63.4092 153.445 63.2846 154.333 63.2846C156.27 63.2846 157.758 63.7168 158.797 64.5794C159.339 65.0303 159.763 65.5416 160.073 66.1103L156.783 67.8152C156.69 67.4918 156.439 67.1682 156.031 66.8449C155.622 66.5209 155.114 66.359 154.508 66.359C153.9 66.359 153.428 66.4996 153.09 66.7801C152.751 67.0605 152.582 67.4058 152.582 67.8155C152.582 68.1607 152.786 68.4304 153.195 68.6247C153.602 68.8185 154.11 68.9968 154.718 69.1588C155.324 69.3204 155.984 69.4935 156.696 69.6765C157.408 69.86 158.067 70.1244 158.674 70.4694C159.281 70.8146 159.789 71.262 160.197 71.8123ZM236.807 63.4468H239.783V77.3626C239.783 79.3044 239.112 80.8683 237.769 82.0551C236.427 83.2414 234.531 83.8353 232.08 83.8353C230.586 83.8353 229.378 83.5866 228.456 83.0908C227.534 82.5941 226.805 82.0333 226.268 81.4076C226.062 81.1671 225.882 80.9115 225.711 80.6488L228.929 78.981C229.092 79.2609 229.314 79.5089 229.594 79.7252C229.851 79.8971 230.177 80.0593 230.574 80.2105C230.971 80.3611 231.473 80.437 232.08 80.437C233.224 80.437 234.123 80.151 234.776 79.5796C235.429 79.0079 235.756 78.2687 235.756 77.3626V76.2297C235.429 76.5323 235.056 76.802 234.636 77.0386C234.262 77.2549 233.819 77.4434 233.306 77.6054C232.792 77.7673 232.208 77.8482 231.555 77.8482C230.551 77.8482 229.599 77.6649 228.701 77.2978C227.802 76.9312 227.02 76.424 226.355 75.7768C225.69 75.1295 225.165 74.3637 224.78 73.4789C224.394 72.5944 224.202 71.6241 224.202 70.5665C224.202 69.5098 224.394 68.5389 224.78 67.6537C225.165 66.7692 225.69 66.0029 226.355 65.3559C227.02 64.7089 227.802 64.202 228.701 63.8349C229.599 63.4684 230.551 63.2848 231.555 63.2848C232.255 63.2848 232.885 63.3712 233.446 63.5437C234.006 63.7167 234.484 63.8997 234.881 64.0937C235.324 64.3319 235.733 64.6007 236.106 64.9027L236.807 63.4468ZM143.741 61.5047C143.134 61.5047 142.603 61.2942 142.148 60.8737C141.693 60.4529 141.465 59.9626 141.465 59.4015C141.465 58.8406 141.693 58.3491 142.148 57.9286C142.603 57.5081 143.134 57.2977 143.741 57.2977C144.348 57.2977 144.879 57.5081 145.334 57.9286C145.79 58.3491 146.017 58.8406 146.017 59.4015C146.017 59.9626 145.79 60.4529 145.334 60.8737C144.879 61.2942 144.348 61.5047 143.741 61.5047ZM235.617 72.0227C235.826 71.5698 235.932 71.0839 235.932 70.5665C235.932 70.0482 235.826 69.5629 235.617 69.1103C235.406 68.6571 235.126 68.2637 234.776 67.9286C234.426 67.5945 234.017 67.3301 233.55 67.136C233.084 66.9417 232.593 66.8448 232.08 66.8448C231.543 66.8448 231.041 66.9417 230.574 67.136C230.107 67.3301 229.699 67.5945 229.349 67.9286C228.999 68.2637 228.724 68.6571 228.526 69.1103C228.328 69.5629 228.229 70.0482 228.229 70.5665C228.229 71.0839 228.328 71.5698 228.526 72.0227C228.724 72.4759 228.999 72.8693 229.349 73.204C229.699 73.5384 230.107 73.8028 230.574 73.9969C231.041 74.1913 231.543 74.2882 232.08 74.2882C232.593 74.2882 233.084 74.1913 233.55 73.9969C234.017 73.8028 234.426 73.5384 234.776 73.204C235.126 72.8693 235.406 72.4759 235.617 72.0227Z" fill="#F6DBA8"/>
</svg>
