<svg width="301" height="139" viewBox="0 0 301 139" fill="none" xmlns="http://www.w3.org/2000/svg">
<path d="M59.8664 56.7144C61.2223 56.7144 62.3612 55.5824 62.3612 54.2349C62.3612 52.8873 61.2223 51.7553 59.8664 51.7553C58.5105 51.7553 57.3716 52.8873 57.3716 54.2349C57.3716 55.5824 58.5105 56.7144 59.8664 56.7144ZM58.5105 74.2329C58.5105 74.6103 58.8359 74.9337 59.2156 74.9337C59.5952 74.9337 59.9206 74.6103 59.9206 74.2329C59.9206 73.8556 59.5952 73.5322 59.2156 73.5322C58.8359 73.5322 58.5105 73.8556 58.5105 74.2329ZM63.5001 59.8408C64.0967 59.8408 64.5306 59.3557 64.5306 58.8166C64.5306 58.2237 64.0425 57.7925 63.5001 57.7925C62.9035 57.7925 62.4697 58.2776 62.4697 58.8166C62.4697 59.3557 62.9035 59.8408 63.5001 59.8408ZM55.3107 69.166C56.6665 69.166 57.8055 68.0341 57.8055 66.6865C57.8055 65.3389 56.6665 64.2069 55.3107 64.2069C53.9548 64.2069 52.8159 65.3389 52.8159 66.6865C52.8701 68.0341 53.9548 69.166 55.3107 69.166ZM51.7312 63.3445C52.3277 63.3445 52.7616 62.8594 52.7616 62.3203C52.7616 61.7274 52.2735 61.2962 51.7312 61.2962C51.1346 61.2962 50.7007 61.7813 50.7007 62.3203C50.7007 62.9133 51.1346 63.3445 51.7312 63.3445ZM51.3515 65.6084C51.3515 65.2311 51.0261 64.9077 50.6465 64.9077C50.2668 64.9077 49.9414 65.2311 49.9414 65.6084C49.9414 65.9857 50.2668 66.3092 50.6465 66.3092C51.0261 66.3092 51.3515 65.9857 51.3515 65.6084ZM54.6598 59.7869C55.6361 59.7869 56.3954 59.0322 56.3954 58.062C56.3954 57.0917 55.6361 56.3371 54.6598 56.3371C53.6836 56.3371 52.9243 57.0917 52.9243 58.062C52.9243 59.0322 53.6836 59.7869 54.6598 59.7869ZM75.7572 50.2999C76.1368 50.2999 76.4623 49.9765 76.4623 49.5992C76.4623 49.2219 76.1368 48.8984 75.7572 48.8984C75.3776 48.8984 75.0521 49.2219 75.0521 49.5992C75.0521 49.9765 75.3776 50.2999 75.7572 50.2999ZM56.775 73.9634C56.775 72.2924 55.4191 70.9448 53.7378 70.9448C52.0566 70.9448 50.7007 72.2924 50.7007 73.9634C50.7007 75.6344 52.0566 76.982 53.7378 76.982C55.4191 76.982 56.775 75.6344 56.775 73.9634ZM87.2008 61.2423C88.5566 61.2423 89.6956 60.1103 89.6956 58.7627C89.6956 57.4151 88.5566 56.2832 87.2008 56.2832C85.8449 56.2832 84.706 57.4151 84.706 58.7627C84.706 60.1103 85.7907 61.2423 87.2008 61.2423ZM81.6146 78.2757C81.6146 79.2459 82.3739 80.0006 83.3501 80.0006C84.3263 80.0006 85.0856 79.2459 85.0856 78.2757C85.0856 77.3054 84.3263 76.5508 83.3501 76.5508C82.3739 76.5508 81.6146 77.3054 81.6146 78.2757ZM83.3501 55.3129C84.3263 55.3129 85.0856 54.5583 85.0856 53.588C85.0856 52.6178 84.3263 51.8631 83.3501 51.8631C82.3739 51.8631 81.6146 52.6178 81.6146 53.588C81.6146 54.5583 82.3739 55.3129 83.3501 55.3129ZM79.4994 59.7869C80.4756 59.7869 81.2349 59.0322 81.2349 58.062C81.2349 57.0917 80.4756 56.3371 79.4994 56.3371C78.5232 56.3371 77.7639 57.0917 77.7639 58.062C77.7639 59.0322 78.5232 59.7869 79.4994 59.7869ZM85.7364 65.8779C85.7364 67.5489 87.0923 68.8965 88.7736 68.8965C90.4549 68.8965 91.8107 67.5489 91.8107 65.8779C91.8107 64.2069 90.4549 62.8594 88.7736 62.8594C87.0923 62.8594 85.7364 64.2069 85.7364 65.8779ZM84.0009 65.6084C84.0009 65.2311 83.6755 64.9077 83.2958 64.9077C82.9162 64.9077 82.5908 65.2311 82.5908 65.6084C82.5908 65.9857 82.9162 66.3092 83.2958 66.3092C83.6755 66.3092 84.0009 65.9857 84.0009 65.6084ZM79.0113 51.6475C79.6079 51.6475 80.0418 51.1624 80.0418 50.6233C80.0418 50.0843 79.5536 49.5992 79.0113 49.5992C78.4147 49.5992 77.9808 50.0843 77.9808 50.6233C77.9808 51.1624 78.4689 51.6475 79.0113 51.6475ZM82.2654 63.3445C82.862 63.3445 83.2958 62.8594 83.2958 62.3203C83.2958 61.7274 82.8077 61.2962 82.2654 61.2962C81.723 61.2962 81.2349 61.7813 81.2349 62.3203C81.2349 62.9133 81.723 63.3445 82.2654 63.3445ZM60.8968 61.5657C60.8968 60.5954 60.1376 59.8408 59.1613 59.8408C58.1851 59.8408 57.4258 60.5954 57.4258 61.5657C57.4258 62.5359 58.1851 63.2906 59.1613 63.2906C60.1376 63.2906 60.8968 62.5359 60.8968 61.5657ZM79.0113 80.0006C78.4147 80.0006 77.9808 80.4857 77.9808 81.0247C77.9808 81.6177 78.4689 82.0489 79.0113 82.0489C79.6079 82.0489 80.0418 81.5638 80.0418 81.0247C80.0418 80.4857 79.6079 80.0006 79.0113 80.0006ZM75.486 84.1511C73.8047 84.1511 72.4489 85.4987 72.4489 87.1697C72.4489 88.8407 73.8047 90.1883 75.486 90.1883C77.1673 90.1883 78.5232 88.8407 78.5232 87.1697C78.5232 85.4987 77.1673 84.1511 75.486 84.1511ZM82.645 83.127C81.2892 83.127 80.1502 84.2589 80.1502 85.6065C80.1502 86.9541 81.2892 88.086 82.645 88.086C84.0009 88.086 85.1398 86.9541 85.1398 85.6065C85.1398 84.2589 84.0009 83.127 82.645 83.127ZM75.0521 82.0489C75.0521 82.4262 75.3776 82.7496 75.7572 82.7496C76.1368 82.7496 76.4623 82.4262 76.4623 82.0489C76.4623 81.6716 76.1368 81.3482 75.7572 81.3482C75.3776 81.4021 75.0521 81.6716 75.0521 82.0489ZM91.865 73.5322C91.4853 73.5322 91.1599 73.8556 91.1599 74.2329C91.1599 74.6103 91.4853 74.9337 91.865 74.9337C92.2446 74.9337 92.57 74.6103 92.57 74.2329C92.57 73.8556 92.1904 73.5322 91.865 73.5322ZM90.7803 76.4969C90.1837 76.4969 89.7498 76.982 89.7498 77.521C89.7498 78.114 90.2379 78.5452 90.7803 78.5452C91.3768 78.5452 91.8107 78.0601 91.8107 77.521C91.8107 76.9281 91.3768 76.4969 90.7803 76.4969ZM74.3471 56.7144C75.703 56.7144 76.8419 55.5824 76.8419 54.2349C76.8419 52.8873 75.703 51.7553 74.3471 51.7553C72.9912 51.7553 71.8523 52.8873 71.8523 54.2349C71.8523 55.5824 72.9912 56.7144 74.3471 56.7144ZM87.2008 70.6753C85.8449 70.6753 84.706 71.8073 84.706 73.1549C84.706 74.5024 85.8449 75.6344 87.2008 75.6344C88.5566 75.6344 89.6956 74.5024 89.6956 73.1549C89.6413 71.8073 88.5566 70.6753 87.2008 70.6753ZM55.3107 78.5991C53.9548 78.5991 52.8159 79.7311 52.8159 81.0786C52.8159 82.4262 53.9548 83.5582 55.3107 83.5582C56.6665 83.5582 57.8055 82.4262 57.8055 81.0786C57.8055 79.7311 56.7208 78.5991 55.3107 78.5991ZM87.8516 80.0545C86.8753 80.0545 86.1161 80.8091 86.1161 81.7794C86.1161 82.7496 86.8753 83.5043 87.8516 83.5043C88.8278 83.5043 89.5871 82.7496 89.5871 81.7794C89.5871 80.8091 88.8278 80.0545 87.8516 80.0545ZM60.246 76.4969C59.6494 76.4969 59.2156 76.982 59.2156 77.521C59.2156 78.114 59.7037 78.5452 60.246 78.5452C60.7884 78.5452 61.2765 78.0601 61.2765 77.521C61.2765 76.9281 60.7884 76.4969 60.246 76.4969ZM63.012 80.0545C62.0358 80.0545 61.2765 80.8091 61.2765 81.7794C61.2765 82.7496 62.0358 83.5043 63.012 83.5043C63.9882 83.5043 64.7475 82.7496 64.7475 81.7794C64.7475 80.8091 63.9882 80.0545 63.012 80.0545ZM63.5001 88.1939C62.9035 88.1939 62.4697 88.679 62.4697 89.218C62.4697 89.757 62.9578 90.2422 63.5001 90.2422C64.0967 90.2422 64.5306 89.757 64.5306 89.218C64.5306 88.679 64.0425 88.1939 63.5001 88.1939ZM59.1613 84.5284C58.1851 84.5284 57.4258 85.2831 57.4258 86.2533C57.4258 87.2236 58.1851 87.9782 59.1613 87.9782C60.1376 87.9782 60.8968 87.2236 60.8968 86.2533C60.8968 85.2831 60.1376 84.5284 59.1613 84.5284ZM66.1034 57.7925C66.1034 58.1698 66.4288 58.4932 66.8084 58.4932C67.1881 58.4932 67.5135 58.1698 67.5135 57.7925C67.5135 57.4151 67.1881 57.0917 66.8084 57.0917C66.3746 57.0917 66.1034 57.4151 66.1034 57.7925ZM70.0625 52.6178C70.0625 50.9468 68.7067 49.5992 67.0254 49.5992C65.3441 49.5992 63.9882 50.9468 63.9882 52.6178C63.9882 54.2888 65.3441 55.6363 67.0254 55.6363C68.7067 55.6902 70.0625 54.3427 70.0625 52.6178ZM66.7542 89.5414C66.3746 89.5414 66.0492 89.8649 66.0492 90.2422C66.0492 90.6195 66.3746 90.9429 66.7542 90.9429C67.1339 90.9429 67.4593 90.6195 67.4593 90.2422C67.4593 89.8649 67.1339 89.5414 66.7542 89.5414ZM68.1643 83.127C66.8084 83.127 65.6695 84.2589 65.6695 85.6065C65.6695 86.9541 66.8084 88.086 68.1643 88.086C69.5202 88.086 70.6591 86.9541 70.6591 85.6065C70.6591 84.2589 69.5202 83.127 68.1643 83.127Z" fill="#F6DBA8"/>
<path d="M104.289 75.8749V62.0874H108.906L111.572 69.9719C111.677 70.3057 111.907 71.0566 112.138 71.8909C112.369 71.0357 112.579 70.2848 112.705 69.9302L115.286 62.0874H119.966V75.8749H116.546V70.5977C116.546 69.5756 116.609 68.0321 116.713 66.572C116.252 67.9904 115.79 69.4922 115.454 70.4517L113.586 75.8749H110.648L108.696 70.3682C108.361 69.4296 107.941 68.1155 107.563 66.8431C107.647 68.1781 107.71 69.5548 107.71 70.4725V75.8749H104.289ZM131.656 71.7449H125.444C125.528 73.1424 125.927 73.7473 127.291 73.7473C128.13 73.7473 128.634 73.5179 128.781 72.767L131.656 73.2676C131.111 75.0823 129.809 76.1669 127.186 76.1669C123.912 76.1669 122.023 74.4774 122.023 71.1192C122.023 68.4075 123.24 65.8419 127.039 65.8419C130.124 65.8419 131.656 67.5315 131.656 70.6811V71.7449ZM126.913 68.1572C126.116 68.1572 125.654 68.5327 125.486 69.7633H128.214V69.7425C128.214 68.5953 127.774 68.1572 126.913 68.1572ZM132.706 68.5744V66.1339H133.944L134.133 63.464H137.176V66.1339H139.862V68.5744H137.176V72.7044C137.176 73.1842 137.323 73.4762 137.743 73.4762C138.267 73.4762 138.372 72.8921 138.414 72.3081L140.807 73.1424C140.387 74.7903 139.736 76.0835 137.344 76.0835C134.741 76.0835 133.902 74.4357 133.902 72.7044V68.5744H132.706ZM150.86 75.9792C148.614 76.3338 147.732 75.4369 147.46 74.7068C146.956 75.416 146.2 76.1669 144.668 76.1669C142.884 76.1669 141.352 75.1657 141.352 73.3093C141.352 71.0566 143.598 70.0345 147.019 70.0136V69.7216C147.019 68.6161 146.746 68.2198 145.949 68.2198C145.193 68.2198 144.836 68.5744 144.941 69.513L141.688 68.9081C141.478 67.2186 142.989 65.8419 146.179 65.8419C149.181 65.8419 150.293 67.0726 150.293 69.7633V72.0578C150.293 73.1216 150.335 73.6639 151.447 73.4136L150.86 75.9792ZM147.019 72.621V71.8492C145.739 71.8701 144.647 72.0995 144.647 73.059C144.647 73.6013 145.004 73.8516 145.55 73.8516C146.179 73.8516 146.935 73.5179 147.019 72.621ZM155.33 75.8749L151.678 66.1339H155.204L156.547 70.1179C156.715 70.6603 156.862 71.2443 156.946 71.7241C157.03 71.2443 157.135 70.6603 157.303 70.0971L158.436 66.1339H161.941L158.268 75.8749H155.33ZM172.183 71.7449H165.97C166.054 73.1424 166.453 73.7473 167.817 73.7473C168.657 73.7473 169.16 73.5179 169.307 72.767L172.183 73.2676C171.637 75.0823 170.336 76.1669 167.712 76.1669C164.438 76.1669 162.549 74.4774 162.549 71.1192C162.549 68.4075 163.767 65.8419 167.565 65.8419C170.65 65.8419 172.183 67.5315 172.183 70.6811V71.7449ZM167.439 68.1572C166.642 68.1572 166.18 68.5327 166.012 69.7633H168.741V69.7425C168.741 68.5953 168.3 68.1572 167.439 68.1572ZM173.903 75.8749V66.1339H176.947V67.8026C177.408 66.7597 178.227 65.8419 179.549 65.8419C181.102 65.8419 181.585 66.864 181.585 66.864L179.633 69.6591C179.633 69.6591 179.381 68.9707 178.668 68.9707C177.912 68.9707 177.513 69.9511 177.177 70.9731V75.8749H173.903ZM182.026 73.2676L185.111 72.7878C185.027 73.2885 185.404 73.7473 186.433 73.7473C187.041 73.7473 187.524 73.5596 187.524 73.1633C187.524 71.9118 182.235 72.6627 182.235 68.9916C182.235 67.0934 183.642 65.8419 186.412 65.8419C188.93 65.8419 190.903 66.864 190.567 68.6787L187.293 69.2419C187.419 68.783 187.146 68.2615 186.37 68.2615C185.74 68.2615 185.551 68.5744 185.551 68.8456C185.551 70.3057 190.882 69.367 190.882 72.9756C190.882 75.2074 188.867 76.1669 186.307 76.1669C183.872 76.1669 181.816 75.2492 182.026 73.2676ZM201.711 71.7449H195.499C195.583 73.1424 195.982 73.7473 197.346 73.7473C198.186 73.7473 198.689 73.5179 198.836 72.767L201.711 73.2676C201.166 75.0823 199.865 76.1669 197.241 76.1669C193.967 76.1669 192.078 74.4774 192.078 71.1192C192.078 68.4075 193.296 65.8419 197.094 65.8419C200.179 65.8419 201.711 67.5315 201.711 70.6811V71.7449ZM196.968 68.1572C196.171 68.1572 195.709 68.5327 195.541 69.7633H198.27V69.7425C198.27 68.5953 197.829 68.1572 196.968 68.1572ZM202.593 65.091V62.0874H214.388V65.091H210.253V75.8749H206.727V65.091H202.593ZM224.713 75.9792C222.468 76.3338 221.586 75.4369 221.313 74.7068C220.81 75.416 220.054 76.1669 218.522 76.1669C216.738 76.1669 215.206 75.1657 215.206 73.3093C215.206 71.0566 217.452 70.0345 220.873 70.0136V69.7216C220.873 68.6161 220.6 68.2198 219.802 68.2198C219.047 68.2198 218.69 68.5744 218.795 69.513L215.542 68.9081C215.332 67.2186 216.843 65.8419 220.033 65.8419C223.034 65.8419 224.147 67.0726 224.147 69.7633V72.0578C224.147 73.1216 224.189 73.6639 225.301 73.4136L224.713 75.9792ZM220.873 72.621V71.8492C219.593 71.8701 218.501 72.0995 218.501 73.059C218.501 73.6013 218.858 73.8516 219.404 73.8516C220.033 73.8516 220.789 73.5179 220.873 72.621ZM226.644 75.8749V60.8984H229.918V75.8749H226.644ZM238.187 75.8749L235.585 71.8701H235.375V75.8749H232.101V60.8984H235.375V69.4087H235.669L237.998 66.1339H242.112L238.565 70.7437L242.112 75.8749H238.187ZM242.678 73.2676L245.764 72.7878C245.68 73.2885 246.057 73.7473 247.086 73.7473C247.694 73.7473 248.177 73.5596 248.177 73.1633C248.177 71.9118 242.888 72.6627 242.888 68.9916C242.888 67.0934 244.294 65.8419 247.065 65.8419C249.583 65.8419 251.556 66.864 251.22 68.6787L247.946 69.2419C248.072 68.783 247.799 68.2615 247.023 68.2615C246.393 68.2615 246.204 68.5744 246.204 68.8456C246.204 70.3057 251.535 69.367 251.535 72.9756C251.535 75.2074 249.52 76.1669 246.96 76.1669C244.525 76.1669 242.469 75.2492 242.678 73.2676Z" fill="#F6DBA8"/>
</svg>
