<svg width="220" height="49" viewBox="0 0 220 49" fill="none" xmlns="http://www.w3.org/2000/svg">
<path fill-rule="evenodd" clip-rule="evenodd" d="M7.54716 12.2732H48.9806L28.2639 48.8227L7.54716 12.2732ZM28.2639 36.5957L38.6222 18.4525V18.321H17.9055L28.2639 36.5957Z" fill="#F6DBA8"/>
<path d="M4.13808 6.22549L0.729004 0.177734H55.7988L52.2586 6.22549H4.13808Z" fill="#F6DBA8"/>
<path d="M68.8749 9.37485H75.8113L84.592 32.0286L93.6534 9.37485H99.957L87.8798 39.6444H81.5448L68.8749 9.37485Z" fill="#F6DBA8"/>
<path d="M184.453 39.6444H191.389L178.719 9.37485L172.385 9.37485L160.307 39.6444H166.611L175.672 16.9907L184.453 39.6444Z" fill="#F6DBA8"/>
<path d="M129.226 9.37485H106.301V39.6442H129.226V33.5351H112.41V27.5645H129.226V21.4554H112.41V15.484H129.226V9.37485Z" fill="#F6DBA8"/>
<path d="M135.57 39.6442V9.37503H141.679V33.5351H156.844V39.6442H135.57Z" fill="#F6DBA8"/>
<path d="M206.746 8.18813C213.498 8.18813 217.301 11.3608 218.562 16.2215L213.051 17.1977C212.339 15.1029 210.59 13.0082 206.807 13.0082C203.35 13.0082 200.746 14.7165 200.767 17.1164C200.746 19.2315 202.231 20.3907 205.668 21.2043L210.631 22.3432C216.366 23.6651 219.172 26.3904 219.172 30.8036C219.172 36.4575 213.946 40.4641 206.4 40.4641C199.384 40.4641 194.787 37.3524 193.771 31.8205L199.648 30.9257C200.38 33.9967 202.719 35.5627 206.36 35.5627C210.346 35.5627 212.929 33.6713 212.929 31.2511C212.929 29.2987 211.525 27.9564 208.515 27.2852L203.228 26.126C197.37 24.8244 194.686 21.8754 194.686 17.4418C194.686 11.9099 199.689 8.18813 206.746 8.18813Z" fill="#F6DBA8"/>
</svg>
