<svg width="112" height="24" viewBox="0 0 112 24" fill="none" xmlns="http://www.w3.org/2000/svg">
<path d="M35.0285 3.5605C33.722 3.5605 32.463 3.72465 31.9503 3.86341C31.204 4.07325 31.0178 4.39986 30.8774 5.07676L27.9159 18.7417C27.8686 19.0209 27.8229 19.2544 27.8229 19.488C27.8229 20.1649 28.2662 20.6065 28.9888 20.6065C29.7825 20.6065 30.1091 20.0938 30.2716 19.3001L31.1109 15.4062C31.693 15.4756 32.463 15.5467 33.5596 15.5467C38.3876 15.5467 41.3947 12.9356 41.3947 8.99431C41.3947 5.54212 38.9917 3.5605 35.0285 3.5605ZM33.4428 13.3079C32.6965 13.3079 32.1127 13.2842 31.578 13.2148L33.1399 5.9618C33.629 5.89242 34.3533 5.79765 35.0995 5.79765C37.665 5.79765 38.9714 7.011 38.9714 9.01631C38.9697 11.5818 37.1032 13.3079 33.4428 13.3079Z" fill="white"/>
<path d="M111.002 16.1051C110.606 16.1051 110.349 16.3387 109.86 16.8751C108.997 17.7619 108.46 18.2509 107.785 18.2509C107.179 18.2509 106.853 17.7619 106.853 16.9682C106.853 16.5248 106.946 15.9884 107.062 15.4062L107.925 11.3482H110.515C111.33 11.3482 111.821 10.8812 111.821 10.0418C111.821 9.57475 111.518 9.22615 110.819 9.22615H108.391L108.811 7.3376C108.858 7.05838 108.904 6.80116 108.904 6.56763C108.904 5.91442 108.46 5.44736 107.738 5.44736C106.968 5.44736 106.619 5.96011 106.455 6.75378L105.918 9.22615H104.822C103.983 9.22615 103.493 9.69321 103.493 10.5326C103.493 10.9996 103.82 11.3482 104.519 11.3482H105.475L104.612 15.3589C104.519 15.8022 104.402 16.5248 104.402 17.2711C104.402 19.1597 105.382 20.5355 107.48 20.5355C108.694 20.5355 109.765 19.9296 110.582 19.2053C111.376 18.5064 111.958 17.6434 111.958 17.0833C111.958 16.5485 111.538 16.1051 111.002 16.1051Z" fill="white"/>
<path d="M57.3679 4.93629C57.3679 4.25939 56.9008 3.81602 56.1782 3.81602C55.4082 3.81602 55.0596 4.32877 54.8955 5.12244L51.9814 18.6706C51.912 18.9498 51.8647 19.1833 51.8647 19.4169C51.8647 20.0938 52.3317 20.5354 53.0306 20.5354C53.8243 20.5354 54.1729 20.0227 54.337 19.229L57.2511 5.68257C57.2985 5.40166 57.3679 5.16982 57.3679 4.93629Z" fill="white"/>
<path d="M98.9921 8.99261C95.2607 8.99261 92.7189 12.7003 92.7189 16.2219C92.7189 16.2879 92.7206 16.3539 92.7223 16.4182C92.1368 17.3066 91.3888 18.2272 90.8761 18.2272C90.5038 18.2272 90.3633 17.8769 90.3633 17.3405C90.3633 16.6873 90.5495 15.5907 90.7593 14.6346L92.6952 5.67919C92.7426 5.39996 92.7883 5.16644 92.7883 4.9329C92.7883 4.256 92.3449 3.81264 91.6224 3.81264C90.8287 3.81264 90.5038 4.32539 90.3396 5.11905L89.2904 9.96904C88.7303 9.3869 87.9129 8.98923 86.6776 8.98923C84.2001 8.98923 81.7075 10.8964 80.7361 13.8223C79.6666 16.5874 78.7105 18.2238 77.9557 18.2238C77.6765 18.2238 77.5124 17.9903 77.5124 17.5943C77.5124 16.4284 78.1656 13.5837 78.4448 12.2079C78.5379 11.6951 78.5853 11.4853 78.5853 11.1824C78.5853 10.1569 76.8829 8.94354 74.6677 8.94354C72.1057 8.94354 69.7856 10.5664 68.623 12.9762C66.8952 16.029 65.3096 18.2238 64.5244 18.2238C64.1741 18.2238 64.0573 17.7805 63.9642 17.3608L63.3838 14.1472L66.951 11.2331C67.2777 10.9539 67.6973 10.5562 67.6973 10.0435C67.6973 9.41398 67.2777 8.9943 66.6481 8.9943C66.1811 8.9943 65.7851 9.27352 65.3891 9.60013L60.0264 14.0304L61.8218 5.68257C61.8692 5.40335 61.9386 5.16982 61.9386 4.93629C61.9386 4.25939 61.4715 3.81602 60.749 3.81602C59.979 3.81602 59.6304 4.32877 59.4662 5.12244L56.5522 18.6706C56.4828 18.9498 56.4354 19.1833 56.4354 19.4169C56.4354 20.0938 56.9025 20.5354 57.6014 20.5354C58.395 20.5354 58.7436 20.0227 58.9078 19.229L59.2818 17.4809L61.4732 15.7092L62.0097 18.4134C62.2195 19.4863 62.7797 20.5354 64.2248 20.5354C65.6633 20.5354 66.7954 19.2223 67.9292 17.4471C68.2727 19.3069 69.596 20.5354 71.4321 20.5354C73.275 20.5354 74.534 19.4389 75.3497 17.97V18.0174C75.3497 19.5336 76.1197 20.5354 77.4718 20.5354C78.6953 20.5354 79.7106 19.7976 80.6177 18.2306C81.1321 19.5962 82.2828 20.5354 83.8837 20.5354C85.7722 20.5354 87.1244 19.3932 87.9874 17.8075V17.948C87.9874 19.6267 88.8268 20.5371 90.2026 20.5371C91.4176 20.5371 92.4499 19.8315 93.3315 18.6841C94.0017 19.8315 95.2032 20.5371 96.826 20.5371C100.557 20.5371 103.099 16.8294 103.099 13.2842C103.097 10.7881 101.581 8.99261 98.9921 8.99261ZM75.744 13.7275C75.0671 16.6416 73.6219 18.2983 71.9889 18.2983C70.8923 18.2983 70.2865 17.4589 70.2865 16.1999C70.2865 13.7275 72.0819 11.069 74.4833 11.069C75.2058 11.069 75.766 11.2788 76.255 11.5818L75.744 13.7275ZM88.732 12.4922C87.9857 15.9207 86.2833 18.2983 84.4184 18.2983C83.3929 18.2983 82.7854 17.5046 82.7854 16.1999C82.7854 13.7055 84.5115 11.1164 86.8197 11.1164C87.7065 11.1164 88.3817 11.4193 88.8725 11.8153L88.732 12.4922ZM97.1036 18.2983C95.7514 18.2983 95.1913 17.3185 95.1913 16.0831C95.1913 13.8206 96.7533 11.2331 98.7129 11.2331C100.065 11.2331 100.625 12.213 100.625 13.4483C100.625 15.7328 99.0632 18.2983 97.1036 18.2983Z" fill="white"/>
<path d="M47.2008 8.99262C43.4694 8.99262 40.9276 12.7003 40.9276 16.2219C40.9276 18.74 42.4439 20.5355 45.0313 20.5355C48.7628 20.5355 51.3045 16.8277 51.3045 13.2825C51.3045 10.7881 49.7883 8.99262 47.2008 8.99262ZM45.3123 18.2983C43.9602 18.2983 43.4 17.3185 43.4 16.0831C43.4 13.8206 44.962 11.2332 46.9216 11.2332C48.2737 11.2332 48.8338 12.213 48.8338 13.4483C48.8321 15.7329 47.2702 18.2983 45.3123 18.2983Z" fill="white"/>
<path d="M11.5942 5.00567C13.9709 5.00567 15.8976 3.88512 15.8976 2.50284C15.8976 1.12056 13.9709 0 11.5942 0C9.2175 0 7.29081 1.12056 7.29081 2.50284C7.29081 3.88512 9.2175 5.00567 11.5942 5.00567Z" fill="white"/>
<path d="M11.5942 23.8641C13.9709 23.8641 15.8976 22.7436 15.8976 21.3613C15.8976 19.979 13.9709 18.8584 11.5942 18.8584C9.2175 18.8584 7.29081 19.979 7.29081 21.3613C7.29081 22.7436 9.2175 23.8641 11.5942 23.8641Z" fill="white"/>
<path d="M5.59713 8.47019C6.78548 6.41197 6.77777 4.18279 5.5799 3.49119C4.38204 2.79958 2.44764 3.90744 1.25929 5.96566C0.0709386 8.02388 0.0786513 10.2531 1.27651 10.9447C2.47438 11.6363 4.40878 10.5284 5.59713 8.47019Z" fill="white"/>
<path d="M21.9272 17.8983C23.1156 15.8401 23.1085 13.6113 21.9115 12.9201C20.7144 12.229 18.7807 13.3372 17.5923 15.3955C16.404 17.4537 16.411 19.6825 17.6081 20.3736C18.8052 21.0647 20.7389 19.9565 21.9272 17.8983Z" fill="white"/>
<path d="M5.5805 20.373C6.77836 19.6814 6.78607 17.4522 5.59773 15.394C4.40938 13.3358 2.47497 12.2279 1.27711 12.9195C0.0792463 13.6112 0.0715334 15.8403 1.25988 17.8986C2.44823 19.9568 4.38264 21.0646 5.5805 20.373Z" fill="white"/>
<path d="M21.9125 10.9452C23.1096 10.2541 23.1166 8.02528 21.9283 5.96706C20.7399 3.90884 18.8062 2.8006 17.6091 3.49174C16.4121 4.18288 16.405 6.41167 17.5933 8.46989C18.7817 10.5281 20.7154 11.6364 21.9125 10.9452Z" fill="white"/>
</svg>
