<svg width="134" height="27" viewBox="0 0 134 27" fill="none" xmlns="http://www.w3.org/2000/svg">
<path d="M7.94693 13.2987C7.91721 13.8165 8.09425 14.3249 8.43917 14.7122C8.78408 15.0995 9.26866 15.3341 9.78642 15.3644H9.89312C10.2744 15.3639 10.6473 15.2519 10.9657 15.042C11.284 14.8321 11.534 14.5336 11.6846 14.1833C11.8353 13.833 11.8801 13.4463 11.8136 13.0708C11.747 12.6954 11.5719 12.3476 11.31 12.0705C11.048 11.7934 10.7107 11.599 10.3396 11.5114C9.96844 11.4238 9.57979 11.4468 9.22158 11.5775C8.86337 11.7082 8.55127 11.941 8.32381 12.247C8.09635 12.5531 7.96348 12.919 7.9416 13.2997L7.94693 13.2987Z" fill="white"/>
<path d="M0.665827 12.8036C0.541344 12.7966 0.417589 12.8267 0.310203 12.8901C0.202816 12.9534 0.116618 13.0472 0.0625005 13.1595C0.00838344 13.2718 -0.0112231 13.3976 0.00615861 13.5211C0.0235403 13.6446 0.0771302 13.7601 0.160156 13.8531C0.243181 13.9461 0.351916 14.0124 0.472618 14.0437C0.59332 14.0749 0.720572 14.0697 0.838293 14.0286C0.956013 13.9875 1.05892 13.9125 1.134 13.813C1.20909 13.7134 1.25298 13.5939 1.26014 13.4694C1.26504 13.3866 1.25353 13.3037 1.22628 13.2253C1.19904 13.147 1.15658 13.0748 1.10135 13.013C1.04613 12.9511 0.979223 12.9008 0.904482 12.8648C0.82974 12.8289 0.748635 12.8081 0.665827 12.8036Z" fill="white"/>
<path d="M7.82316 1.96622C7.93403 1.90929 8.02558 1.82083 8.08628 1.71197C8.14699 1.60312 8.17413 1.47875 8.1643 1.3545C8.15447 1.23026 8.1081 1.1117 8.03104 1.01375C7.95397 0.915795 7.84965 0.842832 7.73121 0.804042C7.61276 0.765251 7.48549 0.762368 7.36541 0.795753C7.24533 0.829139 7.13782 0.897301 7.05639 0.991661C6.97497 1.08602 6.92328 1.20236 6.90783 1.32603C6.89238 1.4497 6.91387 1.57518 6.96958 1.68667C7.00702 1.7613 7.05887 1.82777 7.12213 1.88227C7.18539 1.93676 7.25881 1.97819 7.33816 2.00418C7.41751 2.03017 7.50122 2.04019 7.58446 2.03368C7.6677 2.02716 7.74883 2.00424 7.82316 1.96622Z" fill="white"/>
<path d="M9.80455 5.42112C9.97674 5.33426 10.1193 5.19831 10.2142 5.03044C10.3092 4.86257 10.3522 4.67032 10.3379 4.478C10.3235 4.28568 10.2525 4.10193 10.1338 3.94996C10.0151 3.798 9.85393 3.68465 9.67078 3.62425C9.48764 3.56385 9.29069 3.5591 9.10485 3.61061C8.919 3.66212 8.7526 3.76758 8.62668 3.91365C8.50076 4.05971 8.42098 4.23984 8.39742 4.43124C8.37385 4.62265 8.40757 4.81674 8.4943 4.98899C8.55192 5.10343 8.63153 5.20539 8.72858 5.28905C8.82562 5.37271 8.9382 5.43643 9.05988 5.47656C9.18156 5.51669 9.30996 5.53245 9.43774 5.52294C9.56551 5.51342 9.69016 5.47883 9.80455 5.42112Z" fill="white"/>
<path d="M3.13696 7.7973C3.26977 7.88463 3.42551 7.93061 3.58446 7.92942C3.7434 7.92822 3.89843 7.87991 4.02991 7.79058C4.16139 7.70126 4.26342 7.57494 4.32309 7.42761C4.38276 7.28028 4.39739 7.11856 4.36513 6.96292C4.33286 6.80727 4.25516 6.6647 4.14184 6.55323C4.02852 6.44176 3.88469 6.36641 3.72853 6.33671C3.57238 6.30701 3.41092 6.3243 3.26459 6.38638C3.11827 6.44847 2.99365 6.55256 2.9065 6.6855C2.78977 6.86354 2.74849 7.08062 2.7917 7.28908C2.83491 7.49754 2.95909 7.68032 3.13696 7.7973Z" fill="white"/>
<path d="M4.32452 12.4483C4.13199 12.4374 3.94056 12.4839 3.77442 12.5818C3.60829 12.6797 3.47492 12.8247 3.39115 12.9984C3.30739 13.1721 3.27701 13.3667 3.30384 13.5576C3.33067 13.7486 3.41351 13.9273 3.54189 14.0712C3.67027 14.2151 3.83843 14.3177 4.02511 14.366C4.2118 14.4144 4.40862 14.4063 4.5907 14.3428C4.77278 14.2793 4.93195 14.1632 5.04809 14.0093C5.16423 13.8554 5.23213 13.6704 5.24319 13.4779C5.25776 13.2196 5.16919 12.9661 4.99693 12.773C4.82468 12.5799 4.58283 12.4631 4.32452 12.4483Z" fill="white"/>
<path d="M3.24366 19.0049C3.10187 19.0766 2.9845 19.1887 2.9064 19.327C2.8283 19.4654 2.79297 19.6238 2.80488 19.7822C2.81679 19.9406 2.87541 20.092 2.97331 20.2171C3.07122 20.3422 3.20402 20.4355 3.35494 20.4852C3.50585 20.5348 3.6681 20.5386 3.82118 20.4961C3.97425 20.4535 4.11128 20.3666 4.21493 20.2462C4.31859 20.1258 4.38423 19.9774 4.40354 19.8197C4.42286 19.662 4.39499 19.5021 4.32345 19.3602C4.27592 19.266 4.21027 19.182 4.13027 19.1131C4.05026 19.0442 3.95747 18.9918 3.85719 18.9588C3.75691 18.9258 3.65111 18.9129 3.54584 18.9208C3.44056 18.9287 3.33788 18.9573 3.24366 19.0049Z" fill="white"/>
<path d="M7.03466 10.4327C7.22457 10.5572 7.44711 10.6226 7.67416 10.6205C7.9012 10.6185 8.12255 10.5492 8.31022 10.4214C8.49788 10.2936 8.64344 10.113 8.72848 9.90249C8.81351 9.69197 8.83422 9.46095 8.78797 9.23866C8.74172 9.01636 8.63059 8.81277 8.46865 8.65363C8.3067 8.49449 8.1012 8.38694 7.87813 8.34459C7.65506 8.30223 7.42444 8.32697 7.21543 8.41568C7.00642 8.50438 6.82841 8.65307 6.7039 8.84294C6.62107 8.969 6.56391 9.11015 6.53571 9.25833C6.5075 9.4065 6.5088 9.55878 6.53952 9.70645C6.57024 9.85413 6.62979 9.99429 6.71476 10.1189C6.79972 10.2435 6.90843 10.3502 7.03466 10.4327Z" fill="white"/>
<path d="M19.0617 5.3443C19.2234 5.44977 19.4127 5.50493 19.6058 5.50282C19.7988 5.50071 19.9869 5.44141 20.1463 5.33242C20.3056 5.22344 20.4291 5.06966 20.501 4.89052C20.573 4.71138 20.5902 4.51493 20.5506 4.32599C20.5109 4.13706 20.4161 3.96413 20.2782 3.82906C20.1402 3.69398 19.9654 3.60284 19.7756 3.56713C19.5859 3.53143 19.3899 3.55278 19.2123 3.62848C19.0347 3.70418 18.8835 3.83083 18.7779 3.99243C18.7076 4.09976 18.6591 4.21993 18.6353 4.34603C18.6115 4.47213 18.6128 4.60168 18.6392 4.72727C18.6656 4.85286 18.7165 4.97201 18.789 5.07789C18.8615 5.18377 18.9542 5.27431 19.0617 5.3443Z" fill="white"/>
<path d="M21.0634 1.90007C21.1679 1.96858 21.2904 2.00454 21.4153 2.00342C21.5403 2.0023 21.6621 1.96413 21.7654 1.89376C21.8687 1.82338 21.9487 1.72396 21.9955 1.60806C22.0422 1.49217 22.0535 1.36502 22.028 1.24269C22.0024 1.12036 21.9412 1.00836 21.852 0.920853C21.7628 0.833346 21.6496 0.774267 21.5268 0.751092C21.404 0.727917 21.2771 0.741686 21.1621 0.790658C21.0472 0.83963 20.9493 0.921603 20.8809 1.02621C20.7894 1.16632 20.7571 1.33704 20.7913 1.50089C20.8256 1.66474 20.9234 1.80831 21.0634 1.90007Z" fill="white"/>
<path d="M19.2154 11.44C18.9593 11.4253 18.7028 11.4611 18.4606 11.5455C18.2184 11.6299 17.9952 11.7612 17.8038 11.9319C17.4171 12.2766 17.1831 12.7607 17.1534 13.2779C17.1237 13.795 17.3006 14.3028 17.6453 14.6895C17.99 15.0762 18.4741 15.3101 18.9913 15.3398C19.0286 15.3398 19.0671 15.3398 19.1044 15.3398C19.4811 15.3396 19.8498 15.2305 20.1658 15.0255C20.4819 14.8205 20.732 14.5285 20.8858 14.1846C21.0396 13.8407 21.0907 13.4597 21.0329 13.0874C20.975 12.7151 20.8107 12.3676 20.5598 12.0866C20.3898 11.8949 20.1834 11.7391 19.9526 11.6281C19.7218 11.5171 19.4712 11.4531 19.2154 11.44Z" fill="white"/>
<path d="M10.4458 10.2972C10.6079 10.6211 10.8572 10.8932 11.1656 11.0831C11.474 11.2729 11.8293 11.3729 12.1914 11.3717C12.5253 11.3718 12.8536 11.2863 13.145 11.1234C13.4365 10.9605 13.6813 10.7256 13.8561 10.4412C14.031 10.1568 14.13 9.83226 14.1438 9.49867C14.1576 9.16508 14.0857 8.83353 13.9349 8.53565C13.7716 8.21329 13.5219 7.94273 13.2136 7.75428C12.9053 7.56583 12.5506 7.46694 12.1893 7.46866C11.8564 7.46923 11.5292 7.55483 11.2388 7.71734C10.9483 7.87984 10.7041 8.11387 10.5295 8.39722C10.3548 8.68057 10.2555 9.00384 10.2408 9.33636C10.2262 9.66889 10.2968 9.99964 10.4458 10.2972Z" fill="white"/>
<path d="M25.7571 7.79516C25.8989 7.72359 26.0163 7.61159 26.0945 7.47331C26.1727 7.33502 26.2081 7.17667 26.1963 7.01825C26.1845 6.85983 26.126 6.70847 26.0282 6.58328C25.9304 6.4581 25.7977 6.36471 25.6469 6.31492C25.496 6.26513 25.3338 6.26118 25.1807 6.30357C25.0276 6.34595 24.8905 6.43277 24.7868 6.55304C24.683 6.67332 24.6172 6.82166 24.5977 6.97932C24.5782 7.13697 24.6059 7.29686 24.6773 7.43879C24.7733 7.62915 24.9409 7.7736 25.1434 7.84042C25.3459 7.90724 25.5666 7.89096 25.7571 7.79516Z" fill="white"/>
<path d="M20.8052 8.41721C20.6024 8.51935 20.4344 8.67934 20.3225 8.87693C20.2107 9.07452 20.1599 9.30086 20.1766 9.5273C20.1934 9.75375 20.2769 9.97015 20.4167 10.1491C20.5564 10.3281 20.7461 10.4616 20.9617 10.5328C21.1773 10.604 21.4092 10.6096 21.6281 10.549C21.8469 10.4884 22.0428 10.3643 22.1911 10.1923C22.3394 10.0203 22.4333 9.80823 22.4611 9.58287C22.4888 9.3575 22.4491 9.12897 22.347 8.92617C22.2793 8.79141 22.1856 8.67134 22.0715 8.57281C21.9573 8.47428 21.8248 8.39923 21.6816 8.35195C21.5384 8.30468 21.3873 8.28611 21.2369 8.29731C21.0865 8.30851 20.9398 8.34925 20.8052 8.41721Z" fill="white"/>
<path d="M14.4267 1.60558C14.5854 1.61462 14.7432 1.57639 14.8801 1.49574C15.0171 1.41508 15.127 1.29562 15.1961 1.15247C15.2651 1.00932 15.2902 0.848902 15.268 0.691519C15.2459 0.534136 15.1776 0.386855 15.0717 0.268306C14.9659 0.149758 14.8272 0.0652683 14.6733 0.0255254C14.5194 -0.0142175 14.3572 -0.00742812 14.2072 0.0450348C14.0572 0.0974976 13.9261 0.193277 13.8305 0.320257C13.7349 0.447236 13.6792 0.599711 13.6702 0.758394C13.6583 0.971034 13.7313 1.17971 13.8731 1.33857C14.015 1.49743 14.2141 1.59347 14.4267 1.60558Z" fill="white"/>
<path d="M14.4182 6.66202C14.6448 6.67473 14.8702 6.61996 15.0657 6.50464C15.2612 6.38932 15.4182 6.21863 15.5167 6.01413C15.6153 5.80963 15.651 5.58051 15.6193 5.35573C15.5877 5.13094 15.4901 4.92058 15.339 4.75123C15.1878 4.58188 14.9898 4.46114 14.7701 4.40428C14.5503 4.34741 14.3186 4.35697 14.1043 4.43175C13.8899 4.50652 13.7026 4.64316 13.5659 4.82439C13.4292 5.00562 13.3493 5.2233 13.3363 5.44993C13.3191 5.75412 13.4234 6.05268 13.6263 6.27997C13.8292 6.50726 14.114 6.64469 14.4182 6.66202Z" fill="white"/>
<path d="M8.19768 18.3818C8.40045 18.2796 8.56835 18.1195 8.68015 17.9218C8.79194 17.7242 8.8426 17.4978 8.82573 17.2713C8.80885 17.0449 8.7252 16.8285 8.58534 16.6496C8.44549 16.4707 8.25572 16.3372 8.04003 16.2662C7.82434 16.1951 7.59243 16.1897 7.37362 16.2504C7.15481 16.3112 6.95894 16.4355 6.81078 16.6076C6.66261 16.7797 6.56881 16.9918 6.54124 17.2172C6.51367 17.4427 6.55357 17.6712 6.65588 17.8739C6.79303 18.1457 7.0325 18.3518 7.32162 18.4471C7.61075 18.5423 7.92586 18.5188 8.19768 18.3818Z" fill="white"/>
<path d="M15.1598 8.33719C14.9216 8.70057 14.8115 9.13298 14.8468 9.56599C14.8821 9.999 15.0608 10.4079 15.3546 10.7279C15.6484 11.0479 16.0406 11.2608 16.469 11.3329C16.8974 11.405 17.3376 11.3321 17.72 11.1258C18.1023 10.9196 18.405 10.5917 18.58 10.1941C18.7551 9.79644 18.7925 9.3518 18.6864 8.93051C18.5803 8.50922 18.3367 8.13535 17.9942 7.86806C17.6517 7.60078 17.2299 7.45535 16.7954 7.45479C16.471 7.45457 16.1516 7.53511 15.866 7.68916C15.5805 7.84321 15.3377 8.06591 15.1598 8.33719Z" fill="white"/>
<path d="M18.5549 16.5028C18.3985 16.1926 18.1621 15.9298 17.8702 15.7414C17.5782 15.553 17.2413 15.4459 16.8942 15.4312C16.5471 15.4165 16.2023 15.4946 15.8955 15.6576C15.5887 15.8206 15.3309 16.0625 15.1487 16.3583C14.9666 16.6542 14.8667 16.9933 14.8593 17.3406C14.8519 17.688 14.9374 18.031 15.1068 18.3343C15.2763 18.6376 15.5236 18.8902 15.8232 19.0661C16.1229 19.2419 16.464 19.3346 16.8114 19.3346C17.1171 19.3325 17.4181 19.2595 17.6906 19.1212C18.1517 18.8878 18.5015 18.4812 18.6635 17.9905C18.8255 17.4998 18.7864 16.9648 18.5549 16.5028Z" fill="white"/>
<path d="M21.9671 16.3663C21.7773 16.2416 21.5548 16.1761 21.3277 16.178C21.1007 16.1798 20.8793 16.249 20.6915 16.3766C20.5037 16.5043 20.358 16.6848 20.2729 16.8953C20.1877 17.1058 20.1668 17.3368 20.2129 17.5591C20.259 17.7815 20.37 17.9851 20.5319 18.1444C20.6938 18.3036 20.8992 18.4113 21.1223 18.4538C21.3453 18.4963 21.576 18.4717 21.785 18.3831C21.9941 18.2945 22.1722 18.1459 22.2968 17.9561C22.4634 17.7014 22.5222 17.391 22.4604 17.0931C22.3986 16.7951 22.2212 16.5337 21.9671 16.3663Z" fill="white"/>
<path d="M25.7058 13.4331C25.7167 13.2406 25.6702 13.0492 25.5723 12.883C25.4744 12.7169 25.3295 12.5835 25.1558 12.4997C24.9821 12.416 24.7874 12.3856 24.5965 12.4124C24.4055 12.4393 24.2268 12.5221 24.0829 12.6505C23.939 12.7789 23.8364 12.947 23.7881 13.1337C23.7397 13.3204 23.7478 13.5172 23.8113 13.6993C23.8748 13.8814 23.9909 14.0405 24.1448 14.1567C24.2988 14.2728 24.4837 14.3407 24.6762 14.3518C24.9345 14.3664 25.1881 14.2778 25.3811 14.1055C25.5742 13.9333 25.691 13.6914 25.7058 13.4331Z" fill="white"/>
<path d="M28.4074 12.7385C28.2827 12.7313 28.1587 12.7613 28.051 12.8246C27.9433 12.8879 27.8568 12.9818 27.8024 13.0943C27.7481 13.2067 27.7283 13.3328 27.7456 13.4566C27.7629 13.5803 27.8165 13.6961 27.8996 13.7894C27.9827 13.8826 28.0916 13.9492 28.2125 13.9805C28.3335 14.0119 28.461 14.0067 28.579 13.9656C28.6969 13.9245 28.8001 13.8493 28.8753 13.7496C28.9506 13.6499 28.9946 13.5301 29.0018 13.4054C29.0111 13.2382 28.9538 13.0741 28.8424 12.9492C28.731 12.8242 28.5746 12.7484 28.4074 12.7385Z" fill="white"/>
<path d="M25.8638 19.0017C25.7308 18.9147 25.5751 18.869 25.4162 18.8704C25.2574 18.8719 25.1025 18.9204 24.9712 19.0098C24.8399 19.0993 24.7381 19.2256 24.6786 19.373C24.6191 19.5203 24.6046 19.6819 24.6369 19.8375C24.6693 19.993 24.7471 20.1355 24.8604 20.2468C24.9737 20.3582 25.1175 20.4335 25.2736 20.4631C25.4296 20.4928 25.591 20.4755 25.7373 20.4135C25.8835 20.3514 26.0081 20.2474 26.0953 20.1146C26.1532 20.0263 26.1931 19.9275 26.2129 19.8238C26.2326 19.7201 26.2316 19.6135 26.2101 19.5102C26.1886 19.4068 26.147 19.3087 26.0875 19.2215C26.0281 19.1342 25.9521 19.0595 25.8638 19.0017Z" fill="white"/>
<path d="M7.9384 24.8989C7.83396 24.8304 7.71155 24.7944 7.58664 24.7954C7.46172 24.7964 7.33992 24.8345 7.23663 24.9047C7.13334 24.975 7.0532 25.0743 7.00634 25.1901C6.95948 25.3059 6.948 25.433 6.97336 25.5553C6.99871 25.6776 7.05977 25.7896 7.1488 25.8773C7.23783 25.9649 7.35085 26.0241 7.47355 26.0475C7.59626 26.0709 7.72314 26.0574 7.83817 26.0087C7.9532 25.96 8.0512 25.8783 8.11979 25.7739C8.16535 25.7045 8.1968 25.6269 8.21234 25.5454C8.22788 25.4638 8.22721 25.3801 8.21036 25.2988C8.19352 25.2176 8.16083 25.1404 8.11417 25.0718C8.0675 25.0032 8.00777 24.9445 7.9384 24.8989Z" fill="white"/>
<path d="M21.1776 24.8328C21.066 24.889 20.9736 24.9771 20.9121 25.0858C20.8506 25.1946 20.8227 25.3191 20.8319 25.4437C20.8412 25.5683 20.8872 25.6873 20.9641 25.7858C21.0411 25.8842 21.1455 25.9577 21.2641 25.9968C21.3828 26.0359 21.5104 26.0389 21.6308 26.0055C21.7512 25.9721 21.8589 25.9037 21.9405 25.809C22.022 25.7144 22.0736 25.5976 22.0888 25.4736C22.104 25.3496 22.0821 25.2239 22.0258 25.1123C21.9886 25.0382 21.937 24.9721 21.8742 24.9179C21.8114 24.8637 21.7385 24.8225 21.6597 24.7965C21.5809 24.7705 21.4977 24.7604 21.415 24.7666C21.3323 24.7728 21.2516 24.7953 21.1776 24.8328Z" fill="white"/>
<path d="M13.841 18.4586C14.0791 18.0952 14.1892 17.6627 14.1539 17.2297C14.1186 16.7966 13.9398 16.3877 13.6459 16.0677C13.352 15.7477 12.9598 15.5348 12.5313 15.4628C12.1029 15.3908 11.6626 15.4638 11.2803 15.6702C10.8979 15.8766 10.5953 16.2046 10.4204 16.6023C10.2455 17.0001 10.2082 17.4448 10.3145 17.8661C10.4208 18.2874 10.6646 18.6612 11.0072 18.9283C11.3499 19.1955 11.7718 19.3407 12.2063 19.341C12.5308 19.3421 12.8504 19.2619 13.1359 19.1078C13.4215 18.9537 13.6638 18.7305 13.841 18.4586Z" fill="white"/>
<path d="M9.939 21.4558C9.77762 21.3502 9.58857 21.2948 9.39574 21.2967C9.20291 21.2986 9.01495 21.3575 8.85563 21.4662C8.69632 21.5748 8.57279 21.7283 8.50066 21.9071C8.42854 22.086 8.41105 22.2822 8.45042 22.471C8.48978 22.6597 8.58423 22.8326 8.72183 22.9677C8.85942 23.1028 9.03399 23.1941 9.22345 23.23C9.41292 23.266 9.60878 23.2449 9.78628 23.1695C9.96378 23.0942 10.1149 22.9678 10.2207 22.8066C10.3623 22.5901 10.4122 22.3262 10.3594 22.0729C10.3065 21.8196 10.1554 21.5977 9.939 21.4558Z" fill="white"/>
<path d="M14.4918 25.1934C14.3332 25.1844 14.1755 25.2226 14.0385 25.3032C13.9016 25.3839 13.7917 25.5033 13.7226 25.6463C13.6536 25.7894 13.6285 25.9498 13.6505 26.1071C13.6726 26.2645 13.7408 26.4117 13.8466 26.5303C13.9523 26.6489 14.0909 26.7335 14.2447 26.7733C14.3985 26.8132 14.5606 26.8065 14.7107 26.7542C14.8607 26.7019 14.9919 26.6063 15.0876 26.4795C15.1833 26.3527 15.2392 26.2003 15.2483 26.0417C15.2544 25.9363 15.2396 25.8308 15.2049 25.7311C15.1701 25.6314 15.1161 25.5396 15.0458 25.4608C14.9756 25.382 14.8905 25.3179 14.7954 25.272C14.7004 25.2261 14.5972 25.1994 14.4918 25.1934Z" fill="white"/>
<path d="M14.5004 20.1381C14.2735 20.1243 14.0477 20.1781 13.8515 20.2928C13.6552 20.4074 13.4975 20.5778 13.3981 20.7822C13.2988 20.9866 13.2623 21.2158 13.2934 21.441C13.3245 21.6661 13.4217 21.8769 13.5727 22.0468C13.7237 22.2166 13.9217 22.3379 14.1416 22.3951C14.3616 22.4523 14.5935 22.443 14.8082 22.3683C15.0228 22.2936 15.2104 22.1568 15.3473 21.9754C15.4841 21.7939 15.5641 21.576 15.5769 21.3491C15.5944 21.0458 15.4909 20.748 15.2891 20.5209C15.0873 20.2939 14.8036 20.1562 14.5004 20.1381Z" fill="white"/>
<path d="M19.1962 21.3779C19.0239 21.4653 18.8814 21.6019 18.7868 21.7703C18.6921 21.9387 18.6496 22.1314 18.6645 22.3241C18.6795 22.5167 18.7513 22.7005 18.8707 22.8523C18.9902 23.0041 19.1521 23.1171 19.3358 23.1769C19.5195 23.2367 19.7168 23.2406 19.9027 23.1882C20.0887 23.1358 20.2549 23.0294 20.3804 22.8825C20.5058 22.7356 20.5849 22.5547 20.6075 22.3629C20.6301 22.171 20.5953 21.9768 20.5075 21.8047C20.4495 21.6905 20.3696 21.5888 20.2722 21.5055C20.1749 21.4222 20.0621 21.359 19.9403 21.3193C19.8185 21.2797 19.6901 21.2644 19.5624 21.2745C19.4347 21.2845 19.3103 21.3197 19.1962 21.3779Z" fill="white"/>
<path d="M40.7429 8.78639C42.6336 8.78639 43.9577 9.82563 43.9577 11.7547H46.4342C46.4342 8.37027 43.9385 6.73991 40.7055 6.73991C36.7342 6.73991 34.4274 8.89629 34.4274 13.4534C34.4274 18.1236 36.7342 20.1658 40.7055 20.1658C43.9769 20.1658 46.4342 18.5781 46.4342 15.1926H44.0516C44.0516 17.0833 42.7467 18.1236 40.7439 18.1236C38.1149 18.1236 36.9028 16.6671 36.9028 13.6422V13.2645C36.9049 10.2983 38.133 8.78639 40.7429 8.78639Z" fill="white"/>
<path d="M52.9823 6.97038L47.9333 19.9428H50.43L51.4693 17.1249H57.4028L58.4698 19.9428H61.0796L56.0274 6.97038H52.9823ZM52.2258 15.0795L53.5499 11.5232C53.8145 10.8243 54.2872 9.31135 54.3821 9.04674H54.476C54.571 9.31135 55.0437 10.8425 55.3083 11.5232L56.6313 15.0784L52.2258 15.0795Z" fill="white"/>
<path d="M74.5812 10.9033C74.5812 8.50257 73.2005 6.97038 70.3453 6.97038H63.4995V19.9428H65.9205V14.928H69.9473L72.4014 19.9428H75.0486L72.2744 14.5534C73.8055 13.9485 74.5812 12.6627 74.5812 10.9033ZM70.1554 12.889H65.9205V9.0318H70.1554C71.4603 9.0318 72.141 9.73174 72.141 10.9033C72.141 12.1335 71.4037 12.889 70.1554 12.889Z" fill="white"/>
<path d="M83.0723 6.97038H77.8889V19.9428H83.0702C86.9839 19.9428 89.3654 17.9006 89.3654 13.4566C89.3654 9.01259 86.986 6.97038 83.0723 6.97038ZM86.8921 13.6454C86.8729 16.4826 85.5306 17.8814 83.0723 17.8814H80.312V9.0318H83.0723C85.5264 9.0318 86.8921 10.4317 86.8921 13.2677V13.6454Z" fill="white"/>
<path d="M95.7075 6.97038L90.6564 19.9428H93.1521L94.1924 17.1249H100.13L101.189 19.9428H103.798L98.7495 6.97038H95.7075ZM94.951 15.0795L96.273 11.5232C96.5377 10.8243 97.0103 9.31135 97.1053 9.04674H97.2013C97.2952 9.31135 97.769 10.8425 98.0336 11.5232L99.3566 15.0784L94.951 15.0795Z" fill="white"/>
<path d="M114.864 14.6858C114.864 14.9312 114.902 15.5927 114.902 15.7069L114.808 15.7442C114.751 15.6695 114.372 15.0069 114.167 14.705L108.533 6.97038H106.223V19.9428H108.549V12.1709C108.549 11.8508 108.51 11.2255 108.51 11.1306L108.605 11.074C108.662 11.1498 108.946 11.6982 109.245 12.1335L114.919 19.9428H117.187V6.97038H114.862V14.6858H114.864Z" fill="white"/>
<path d="M126.829 6.74418C122.764 6.74418 120.306 8.89949 120.306 13.4566C120.306 18.0137 122.76 20.169 126.829 20.169C130.899 20.169 133.372 18.0137 133.372 13.4566C133.372 8.89949 130.895 6.74418 126.829 6.74418ZM130.895 13.6646C130.895 16.633 129.477 18.1268 126.829 18.1268C124.201 18.1268 122.783 16.633 122.783 13.6646V13.2677C122.783 10.2983 124.221 8.78639 126.829 8.78639C129.458 8.78639 130.895 10.2983 130.895 13.2677V13.6646Z" fill="white"/>
</svg>
