<svg width="12" height="14" viewBox="0 0 12 14" fill="none" xmlns="http://www.w3.org/2000/svg">
<path fill-rule="evenodd" clip-rule="evenodd" d="M0.710712 12.2774H10.6607C10.8492 12.2774 11.0299 12.3523 11.1632 12.4856C11.2965 12.6189 11.3714 12.7996 11.3714 12.9881C11.3714 13.1766 11.2965 13.3574 11.1632 13.4907C11.0299 13.624 10.8492 13.6988 10.6607 13.6988H0.710712C0.52222 13.6988 0.341447 13.624 0.208163 13.4907C0.0748785 13.3574 0 13.1766 0 12.9881C0 12.7996 0.0748785 12.6189 0.208163 12.4856C0.341447 12.3523 0.52222 12.2774 0.710712 12.2774ZM6.39641 8.13752L8.70125 5.83339L9.7062 6.83834L5.6857 10.8588L1.6652 6.83834L2.67015 5.83339L4.97499 8.13752V0.195312H6.39641V8.13752Z" fill="#05060B"/>
</svg>
