<svg width="28" height="29" viewBox="0 0 28 29" fill="none" xmlns="http://www.w3.org/2000/svg">
<path d="M25.7387 8.99492C25.5992 8.4755 25.3258 8.00181 24.9457 7.62127C24.5656 7.24073 24.0923 6.96669 23.573 6.82656C21.6617 6.3125 14 6.3125 14 6.3125C14 6.3125 6.33828 6.3125 4.42695 6.82383C3.90748 6.9635 3.4339 7.23739 3.05377 7.618C2.67364 7.99861 2.40034 8.47254 2.26133 8.99219C1.75 10.9062 1.75 14.8984 1.75 14.8984C1.75 14.8984 1.75 18.8906 2.26133 20.802C2.54297 21.8574 3.37422 22.6887 4.42695 22.9703C6.33828 23.4844 14 23.4844 14 23.4844C14 23.4844 21.6617 23.4844 23.573 22.9703C24.6285 22.6887 25.457 21.8574 25.7387 20.802C26.25 18.8906 26.25 14.8984 26.25 14.8984C26.25 14.8984 26.25 10.9062 25.7387 8.99492ZM11.5664 18.5625V11.2344L17.9102 14.8711L11.5664 18.5625Z" fill="white"/>
</svg>
