<svg width="290" height="74" viewBox="0 0 290 74" fill="none" xmlns="http://www.w3.org/2000/svg">
<path d="M31.7778 42.343H46.2757C46.2024 36.8461 45.4702 31.4224 44.079 26.3652C40.1251 27.1715 35.9515 27.6112 31.7778 27.6845V42.343Z" fill="#F6DBA8"/>
<path d="M19.77 67.8494C18.8181 65.6506 18.0127 63.3786 17.3537 61.0332C12.5943 62.1326 7.98134 63.745 3.7345 65.8705C5.27215 67.1165 7.24912 67.8494 9.37255 67.8494H19.77Z" fill="#F6DBA8"/>
<path d="M44.9577 24.8268C51.1083 23.4342 56.966 21.0888 62.3112 18.0105V5.55078C53.9639 5.55078 46.2757 8.26261 40.0519 12.8801C42.1021 16.6913 43.7129 20.6491 44.9577 24.8268Z" fill="#F6DBA8"/>
<path d="M30.5333 43.5898H15.9623C16.0355 49.1601 16.7677 54.5104 18.1589 59.5676C22.1129 58.7614 26.2865 58.3217 30.4601 58.2484V43.5898H30.5333Z" fill="#F6DBA8"/>
<path d="M14.7175 43.5898H0V58.5416C0 61.1068 1.0251 63.3789 2.63597 65.0646C7.10248 62.7925 11.9351 61.0335 16.9141 59.8608C15.5962 54.657 14.7907 49.2334 14.7175 43.5898Z" fill="#F6DBA8"/>
<path d="M0 5.55078V18.0838C2.0502 19.2565 4.24684 20.3559 6.5167 21.382C8.2008 22.1149 10.0313 22.7746 11.7886 23.3609C13.3995 23.874 15.0104 24.387 16.6945 24.7535C16.9141 24.8268 17.1338 24.8268 17.3535 24.9001C18.5982 20.7224 20.2091 16.6913 22.2593 12.8801C15.9623 8.26261 8.34724 5.55078 0 5.55078Z" fill="#F6DBA8"/>
<path d="M14.7175 42.3439C14.7907 36.7003 15.5229 31.2767 16.9874 26.0729C16.7677 25.9996 16.6213 25.9996 16.4016 25.9263C14.7175 25.5599 13.0334 25.0468 11.4225 24.5338C9.592 23.9474 7.76147 23.2145 6.00416 22.4816C3.95396 21.6021 1.90376 20.576 0 19.4766V42.3439H14.7175Z" fill="#F6DBA8"/>
<path d="M30.5326 42.343V27.6845C26.359 27.6112 22.2586 27.1715 18.2314 26.3652C16.8402 31.4957 16.108 36.8461 16.0348 42.4163H30.5326V42.343Z" fill="#F6DBA8"/>
<path d="M31.7778 21.3823V26.3662C35.8782 26.2929 39.9054 25.9265 43.7861 25.1202C42.5414 21.0891 41.0037 17.2779 39.1 13.6133C36.2443 15.8854 33.828 18.4506 31.7778 21.3823Z" fill="#F6DBA8"/>
<path d="M47.5205 42.3439H62.238V19.4766C56.966 22.4816 51.2548 24.6803 45.2506 26.0729C46.715 31.2767 47.4473 36.7003 47.5205 42.3439Z" fill="#F6DBA8"/>
<path d="M31.7778 58.2484C36.0247 58.3217 40.1251 58.7614 44.079 59.5676C45.4702 54.4372 46.2024 49.0868 46.2757 43.5898H31.7778V58.2484Z" fill="#F6DBA8"/>
<path d="M30.5332 59.4941C26.4328 59.5674 22.4056 59.9339 18.5249 60.7401C19.2571 63.1588 20.1358 65.5041 21.0877 67.8495H30.5332V59.4941Z" fill="#F6DBA8"/>
<path d="M30.5332 26.4395V21.3823C28.483 18.4506 25.9935 15.8854 23.2111 13.6133C21.3073 17.2779 19.6964 21.0891 18.5249 25.1202C22.4789 25.9265 26.4328 26.3662 30.5332 26.4395Z" fill="#F6DBA8"/>
<path d="M62.238 43.5898H47.5205C47.4473 49.2334 46.715 54.657 45.2506 59.8608C50.3029 61.0335 55.0623 62.7925 59.5288 65.0646C61.2129 63.3789 62.1648 61.1068 62.1648 58.5416V43.5898H62.238Z" fill="#F6DBA8"/>
<path d="M31.7778 59.4941V67.8495H41.2234C42.1753 65.5774 43.0539 63.1588 43.7861 60.7401C39.8322 60.0072 35.8782 59.5674 31.7778 59.4941Z" fill="#F6DBA8"/>
<path d="M58.5776 65.9447C54.2575 63.8192 49.7178 62.2068 44.9584 61.1074C44.2994 63.4528 43.494 65.7249 42.5421 67.9236H52.9396C55.063 67.8503 57.04 67.1174 58.5776 65.9447Z" fill="#F6DBA8"/>
<path d="M79.5186 21.2352H75.345V11.5605H79.5186C80.1044 11.5605 80.6169 11.6338 81.0562 11.7804C81.7152 12.0003 82.301 12.4401 82.7403 13.0264C83.1064 13.5394 83.3261 14.0525 83.3993 14.5655C83.4725 15.0786 83.619 15.6649 83.619 16.178C83.619 17.4972 83.3261 18.5966 82.8135 19.4762C82.0813 20.6488 80.983 21.2352 79.5186 21.2352ZM80.983 14.0525C80.6901 13.5394 80.0311 13.2463 79.1525 13.2463H77.2487V19.6227H79.1525C80.1044 19.6227 80.7634 19.183 81.1295 18.2302C81.3491 17.7171 81.4223 17.1308 81.4223 16.3979C81.4956 15.2985 81.3491 14.5655 80.983 14.0525Z" fill="#F6DBA8"/>
<path d="M91.0872 19.1111C91.014 19.5508 90.7943 19.9906 90.4282 20.4303C89.8424 21.1633 88.9638 21.4564 87.8655 21.4564C86.9868 21.4564 86.1814 21.1633 85.4492 20.5769C84.717 19.9906 84.4241 19.0378 84.4241 17.7185C84.4241 16.4725 84.717 15.5197 85.3759 14.8601C86.0349 14.2004 86.8404 13.834 87.8655 13.834C88.4512 13.834 89.037 13.9806 89.4763 14.2004C89.9889 14.4203 90.355 14.7868 90.6479 15.2265C90.9408 15.6663 91.0872 16.1793 91.1604 16.6924C91.2337 17.0589 91.2337 17.4986 91.2337 18.085H86.3278C86.3278 18.8179 86.5475 19.3309 86.9868 19.6241C87.2797 19.7707 87.5726 19.9173 87.9387 19.9173C88.3048 19.9173 88.6709 19.844 88.8906 19.6241C89.037 19.4775 89.1102 19.3309 89.2567 19.1111H91.0872ZM89.1835 16.9123C89.1835 16.3992 89.037 16.0328 88.7441 15.8129C88.4512 15.5197 88.1584 15.4464 87.719 15.4464C87.2797 15.4464 86.9136 15.593 86.6939 15.8862C86.4743 16.1794 86.3278 16.5458 86.2546 16.9856H89.1835V16.9123Z" fill="#F6DBA8"/>
<path d="M98.4098 14.8601C98.9956 15.4464 99.2885 16.3992 99.2885 17.5719C99.2885 18.8179 98.9956 19.7707 98.4098 20.4303C97.824 21.09 97.0918 21.4564 96.2131 21.4564C95.6274 21.4564 95.1881 21.3098 94.8219 21.0167C94.6023 20.8701 94.3826 20.6502 94.2362 20.357V24.095H92.4056V14.0539H94.2362V15.08C94.4558 14.7868 94.6755 14.4936 94.8952 14.347C95.3345 14.0539 95.7738 13.834 96.3596 13.834C97.165 13.9073 97.824 14.2004 98.4098 14.8601ZM97.3847 17.6452C97.3847 17.0589 97.2383 16.6191 97.0186 16.1794C96.7989 15.7396 96.3596 15.5197 95.7738 15.5197C95.1148 15.5197 94.6023 15.8129 94.3826 16.4725C94.2362 16.839 94.163 17.2787 94.163 17.7918C94.163 18.598 94.3826 19.1844 94.8219 19.5508C95.1148 19.7707 95.4077 19.844 95.7738 19.844C96.2864 19.844 96.7257 19.6241 96.9454 19.2576C97.2382 18.8912 97.3847 18.3048 97.3847 17.6452Z" fill="#F6DBA8"/>
<path d="M100.899 14.8591C101.412 14.1994 102.217 13.9062 103.462 13.9062C104.268 13.9062 104.927 14.0528 105.585 14.346C106.171 14.6392 106.537 15.2255 106.537 16.105V19.4032C106.537 19.6231 106.537 19.9163 106.537 20.2094C106.537 20.4293 106.611 20.6492 106.684 20.7225C106.757 20.7958 106.83 20.8691 106.977 20.9424V21.2355H104.927C104.853 21.0889 104.853 20.9423 104.78 20.7958C104.78 20.6492 104.707 20.5026 104.707 20.356C104.414 20.6492 104.121 20.8691 103.828 21.0889C103.389 21.3088 102.95 21.4554 102.437 21.4554C101.778 21.4554 101.265 21.2355 100.826 20.8691C100.387 20.5026 100.167 19.9895 100.167 19.2566C100.167 18.3771 100.533 17.7175 101.192 17.351C101.558 17.1311 102.144 16.9845 102.876 16.9113L103.535 16.838C103.901 16.7647 104.121 16.7647 104.268 16.6914C104.56 16.5448 104.634 16.3982 104.634 16.1783C104.634 15.8852 104.56 15.6653 104.341 15.592C104.121 15.4454 103.828 15.4454 103.462 15.4454C103.023 15.4454 102.73 15.5187 102.51 15.7386C102.364 15.8852 102.291 16.105 102.217 16.3982H100.387C100.46 15.7386 100.606 15.2255 100.899 14.8591ZM102.291 19.9163C102.437 20.0628 102.657 20.1361 102.95 20.1361C103.389 20.1361 103.755 19.9895 104.048 19.7697C104.414 19.5498 104.56 19.11 104.56 18.4504V17.7175C104.414 17.7908 104.341 17.8641 104.194 17.8641C104.048 17.9373 103.901 17.9373 103.682 18.0106L103.242 18.0839C102.876 18.1572 102.583 18.2305 102.364 18.3771C102.071 18.5237 101.924 18.8169 101.924 19.1833C102.071 19.5498 102.144 19.7697 102.291 19.9163Z" fill="#F6DBA8"/>
<path d="M111.736 15.8119C111.003 15.8119 110.491 16.0317 110.198 16.5448C110.051 16.838 109.978 17.2777 109.978 17.7908V21.2355H108.074V14.0528H109.832V15.2988C110.125 14.7858 110.344 14.4926 110.564 14.346C110.93 14.0528 111.369 13.9062 111.955 13.9062H112.028C112.028 13.9062 112.102 13.9062 112.175 13.9062V15.8119C112.028 15.8119 111.955 15.8119 111.882 15.8119C111.882 15.8119 111.809 15.8119 111.736 15.8119Z" fill="#F6DBA8"/>
<path d="M116.715 19.9155V21.3081H115.837C114.958 21.3081 114.372 21.1615 114.006 20.8683C113.787 20.6484 113.713 20.3553 113.713 19.8422V15.4447H112.688V14.1254H113.713V12.1465H115.544V14.1254H116.715V15.4447H115.544V19.2559C115.544 19.549 115.617 19.7689 115.69 19.8422C115.764 19.9155 115.983 19.9155 116.349 19.9155C116.423 19.9155 116.496 19.9155 116.496 19.9155C116.569 19.9155 116.642 19.9155 116.715 19.9155Z" fill="#F6DBA8"/>
<path d="M121.913 16.0328C121.767 15.6663 121.474 15.5197 120.961 15.5197C120.449 15.5197 120.083 15.6663 119.863 16.0328C119.79 16.2526 119.717 16.5458 119.717 16.9123V21.2365H117.886V14.0539H119.717V15.08C119.936 14.7135 120.156 14.4203 120.376 14.2737C120.742 13.9806 121.181 13.834 121.767 13.834C122.279 13.834 122.792 13.9806 123.085 14.2004C123.378 14.4203 123.597 14.7135 123.671 15.08C123.89 14.6402 124.256 14.347 124.622 14.1272C124.989 13.9073 125.428 13.834 125.94 13.834C126.233 13.834 126.599 13.9073 126.892 14.0539C127.185 14.2004 127.478 14.4203 127.698 14.7135C127.917 14.9334 128.064 15.2998 128.137 15.6663C128.21 15.8862 128.21 16.2526 128.21 16.6924V21.2365H126.307V16.6924C126.307 16.3992 126.233 16.1794 126.16 16.0328C126.014 15.6663 125.721 15.5197 125.208 15.5197C124.696 15.5197 124.33 15.7396 124.11 16.1794C124.037 16.3992 123.963 16.6924 123.963 16.9856V21.2365H122.06V16.9856C122.06 16.5458 121.987 16.2526 121.913 16.0328Z" fill="#F6DBA8"/>
<path d="M136.045 19.1111C135.972 19.5508 135.752 19.9906 135.386 20.4303C134.801 21.1633 133.922 21.4564 132.824 21.4564C131.945 21.4564 131.14 21.1633 130.407 20.5769C129.675 19.9906 129.382 19.0378 129.382 17.7185C129.382 16.4725 129.675 15.5197 130.334 14.8601C130.993 14.2004 131.799 13.834 132.824 13.834C133.409 13.834 133.995 13.9806 134.434 14.2004C134.947 14.4203 135.313 14.7868 135.606 15.2265C135.899 15.6663 136.045 16.1793 136.119 16.6924C136.192 17.0589 136.192 17.4986 136.192 18.085H131.286C131.286 18.8179 131.506 19.3309 131.945 19.6241C132.238 19.7707 132.531 19.9173 132.897 19.9173C133.263 19.9173 133.629 19.844 133.849 19.6241C133.995 19.4775 134.068 19.3309 134.215 19.1111H136.045ZM134.215 16.9123C134.215 16.3992 134.068 16.0328 133.775 15.8129C133.483 15.5197 133.19 15.4464 132.75 15.4464C132.311 15.4464 131.945 15.593 131.725 15.8862C131.506 16.1794 131.359 16.5458 131.286 16.9856H134.215V16.9123Z" fill="#F6DBA8"/>
<path d="M140.804 15.4464C140.145 15.4464 139.706 15.7396 139.486 16.2526C139.34 16.5458 139.267 16.9123 139.267 17.352V21.2365H137.363V14.0539H139.193V15.08C139.413 14.7135 139.633 14.4203 139.852 14.2737C140.219 13.9806 140.731 13.834 141.317 13.834C142.049 13.834 142.635 14.0539 143.147 14.4203C143.587 14.7868 143.88 15.4464 143.88 16.3259V21.1633H141.976V16.7657C141.976 16.3992 141.903 16.1061 141.829 15.8862C141.683 15.6663 141.317 15.4464 140.804 15.4464Z" fill="#F6DBA8"/>
<path d="M148.932 19.9155V21.3081H148.054C147.175 21.3081 146.589 21.1615 146.223 20.8683C146.003 20.6484 145.93 20.3553 145.93 19.8422V15.4447H144.905V14.1254H145.93V12.1465H147.761V14.1254H148.932V15.4447H147.761V19.2559C147.761 19.549 147.834 19.7689 147.907 19.8422C147.98 19.9155 148.2 19.9155 148.566 19.9155C148.639 19.9155 148.713 19.9155 148.713 19.9155C148.786 19.9155 148.859 19.9155 148.932 19.9155Z" fill="#F6DBA8"/>
<path d="M78.4927 24.9737V26.5128C78.4195 26.5128 78.1999 26.5128 77.9802 26.5128C77.7605 26.5128 77.5409 26.5861 77.4676 26.6594C77.3944 26.806 77.3212 26.8793 77.3212 27.0259V27.6122H78.566V28.9315H77.3212V34.7216H75.4174V28.9315H74.3923V27.6122H75.4174V27.1725C75.4174 26.4395 75.5639 25.8532 75.7835 25.56C76.0764 25.1203 76.7354 24.9004 77.7605 24.9004C77.907 24.9004 77.9802 24.9004 78.0534 24.9004C78.1999 24.9737 78.3463 24.9737 78.4927 24.9737Z" fill="#F6DBA8"/>
<path d="M85.6696 28.491C86.2553 29.224 86.5482 30.1768 86.5482 31.2029C86.5482 32.229 86.2553 33.1818 85.6696 33.9147C85.0838 34.6476 84.1319 35.0141 82.8871 35.0141C81.6424 35.0141 80.7637 34.6476 80.1047 33.9147C79.519 33.1818 79.2261 32.229 79.2261 31.2029C79.2261 30.1768 79.519 29.2973 80.1047 28.491C80.6905 27.7581 81.6424 27.3184 82.8871 27.3184C84.1319 27.3184 85.0106 27.7581 85.6696 28.491ZM82.8871 28.9308C82.3014 28.9308 81.9353 29.1507 81.6424 29.5171C81.3495 29.8836 81.2031 30.4699 81.2031 31.2029C81.2031 31.9358 81.3495 32.4488 81.6424 32.8886C81.9353 33.2551 82.3746 33.4749 82.8871 33.4749C83.3997 33.4749 83.839 33.2551 84.1319 32.8886C84.4248 32.5221 84.5712 31.9358 84.5712 31.2029C84.5712 30.4699 84.4248 29.9569 84.1319 29.5171C83.839 29.1507 83.3997 28.9308 82.8871 28.9308Z" fill="#F6DBA8"/>
<path d="M91.527 29.2982C90.7948 29.2982 90.2823 29.5181 89.9894 30.0311C89.8429 30.3243 89.7697 30.764 89.7697 31.2771V34.7218H87.866V27.5392H89.6233V28.7851C89.9162 28.2721 90.1358 27.9789 90.3555 27.8323C90.7216 27.5392 91.1609 27.3926 91.7467 27.3926H91.8199C91.8199 27.3926 91.8931 27.3926 91.9664 27.3926V29.2982C91.8199 29.2982 91.7467 29.2982 91.6735 29.2982C91.6735 29.2982 91.6003 29.2982 91.527 29.2982Z" fill="#F6DBA8"/>
<path d="M103.827 30.5419H99.1413V33.0338H104.486V34.7929H97.0911V25.0449H104.194V26.7307H99.068V28.7829H103.754V30.5419H103.827Z" fill="#F6DBA8"/>
<path d="M112.322 34.794H109.979L108.734 32.6685L107.489 34.794H105.219L107.636 31.1294L105.292 27.6113H107.562L108.734 29.6635L109.905 27.6113H112.175L109.832 31.1294L112.322 34.794Z" fill="#F6DBA8"/>
<path d="M116.715 33.4018V34.7944H115.837C114.958 34.7944 114.372 34.6478 114.006 34.3546C113.787 34.1348 113.713 33.8416 113.713 33.3285V28.931H112.688V27.6117H113.713V25.6328H115.544V27.6117H116.715V29.0043H115.544V32.8155C115.544 33.1087 115.617 33.3285 115.69 33.4018C115.764 33.4751 115.983 33.4751 116.349 33.4751C116.423 33.4751 116.496 33.4751 116.496 33.4751C116.569 33.4018 116.642 33.4018 116.715 33.4018Z" fill="#F6DBA8"/>
<path d="M124.037 32.6697C123.964 33.1094 123.744 33.5492 123.378 33.9889C122.792 34.7218 121.913 35.015 120.815 35.015C119.936 35.015 119.131 34.7218 118.399 34.1355C117.667 33.5492 117.374 32.5964 117.374 31.2771C117.374 30.0311 117.667 29.0783 118.326 28.4187C118.985 27.759 119.79 27.3926 120.815 27.3926C121.401 27.3926 121.987 27.5392 122.426 27.759C122.938 27.9789 123.305 28.3454 123.597 28.7851C123.89 29.2249 124.037 29.7379 124.11 30.251C124.183 30.6175 124.183 31.0572 124.183 31.6436H119.277C119.277 32.3765 119.497 32.8895 119.936 33.1827C120.229 33.3293 120.522 33.4759 120.888 33.4759C121.254 33.4759 121.621 33.4026 121.84 33.1827C121.987 33.0361 122.06 32.8895 122.206 32.6697H124.037ZM122.206 30.4709C122.206 29.9578 122.06 29.5914 121.767 29.3715C121.474 29.0783 121.181 29.005 120.742 29.005C120.303 29.005 119.936 29.1516 119.717 29.4448C119.497 29.7379 119.351 30.1044 119.277 30.5442H122.206V30.4709Z" fill="#F6DBA8"/>
<path d="M129.016 29.2982C128.284 29.2982 127.771 29.5181 127.479 30.0311C127.332 30.3243 127.259 30.764 127.259 31.2771V34.7218H125.355V27.5392H127.112V28.7851C127.405 28.2721 127.625 27.9789 127.845 27.8323C128.211 27.5392 128.65 27.3926 129.236 27.3926H129.309C129.309 27.3926 129.382 27.3926 129.456 27.3926V29.2982C129.309 29.2982 129.236 29.2982 129.163 29.2982C129.163 29.2982 129.089 29.2982 129.016 29.2982Z" fill="#F6DBA8"/>
<path d="M133.995 28.9308C133.336 28.9308 132.897 29.224 132.677 29.737C132.531 30.0302 132.458 30.3967 132.458 30.8364V34.7209H130.554V27.5382H132.384V28.5643C132.604 28.1979 132.824 27.9047 133.043 27.7581C133.41 27.4649 133.922 27.3184 134.508 27.3184C135.24 27.3184 135.826 27.5382 136.338 27.9047C136.778 28.2712 137.071 28.9308 137.071 29.8103V34.6476H135.167V30.2501C135.167 29.8836 135.094 29.5904 135.02 29.3706C134.874 29.1507 134.581 28.9308 133.995 28.9308Z" fill="#F6DBA8"/>
<path d="M139.194 28.3454C139.706 27.6857 140.512 27.3926 141.756 27.3926C142.562 27.3926 143.221 27.5392 143.88 27.8323C144.539 28.1255 144.832 28.7118 144.832 29.5914V32.8895C144.832 33.1094 144.832 33.4026 144.832 33.6958C144.832 33.9156 144.905 34.1355 144.978 34.2088C145.051 34.2821 145.124 34.3554 145.271 34.4287V34.7218H143.221C143.147 34.5753 143.147 34.4287 143.074 34.2821C143.074 34.1355 143.001 33.9889 143.001 33.8423C142.708 34.1355 142.415 34.3554 142.122 34.5753C141.683 34.7951 141.244 34.9417 140.731 34.9417C140.072 34.9417 139.56 34.7218 139.12 34.3554C138.681 33.9889 138.461 33.4759 138.461 32.7429C138.461 31.8634 138.827 31.2038 139.486 30.8373C139.853 30.6175 140.438 30.4709 141.097 30.3976L141.756 30.3243C142.122 30.251 142.342 30.251 142.488 30.1777C142.781 30.0311 142.855 29.8845 142.855 29.6647C142.855 29.3715 142.781 29.1516 142.562 29.0783C142.342 28.9317 142.049 28.9317 141.683 28.9317C141.244 28.9317 140.951 29.005 140.731 29.2249C140.585 29.3715 140.512 29.5914 140.438 29.8845H138.608C138.681 29.2982 138.827 28.7851 139.194 28.3454ZM140.585 33.4026C140.731 33.5492 140.951 33.6225 141.244 33.6225C141.683 33.6225 142.049 33.4759 142.342 33.256C142.708 33.0361 142.855 32.5964 142.855 31.9367V31.2038C142.708 31.2771 142.635 31.3504 142.488 31.3504C142.342 31.4237 142.196 31.4237 141.976 31.497L141.537 31.5703C141.17 31.6436 140.878 31.7168 140.658 31.8634C140.365 32.01 140.219 32.3032 140.219 32.6697C140.292 33.0361 140.365 33.256 140.585 33.4026Z" fill="#F6DBA8"/>
<path d="M146.443 25.0449H148.347V34.7929H146.443V25.0449Z" fill="#F6DBA8"/>
<path d="M160.795 30.5419H156.109V33.0338H161.454V34.7929H154.058V25.0449H161.161V26.7307H156.035V28.7829H160.722V30.5419H160.795Z" fill="#F6DBA8"/>
<path d="M169.068 30.1777H167.165C167.165 29.8845 167.018 29.6647 166.872 29.4448C166.652 29.1516 166.359 29.005 165.92 29.005C165.261 29.005 164.821 29.2982 164.602 29.9578C164.455 30.3243 164.382 30.764 164.382 31.2771C164.382 31.7901 164.455 32.2299 164.602 32.5231C164.821 33.1094 165.261 33.4026 165.847 33.4026C166.286 33.4026 166.579 33.256 166.798 33.0361C167.018 32.8162 167.091 32.5231 167.165 32.0833H169.068C168.995 32.6697 168.849 33.1827 168.483 33.6958C167.897 34.502 167.018 34.9417 165.847 34.9417C164.675 34.9417 163.87 34.5753 163.284 33.9156C162.771 33.256 162.478 32.3032 162.478 31.2771C162.478 30.0311 162.771 29.0783 163.357 28.4187C163.943 27.759 164.821 27.3926 165.847 27.3926C166.725 27.3926 167.457 27.6125 168.043 27.9789C168.629 28.4187 168.995 29.1516 169.068 30.1777Z" fill="#F6DBA8"/>
<path d="M176.39 28.491C176.976 29.224 177.269 30.1768 177.269 31.2029C177.269 32.229 176.976 33.1818 176.39 33.9147C175.804 34.6476 174.852 35.0141 173.608 35.0141C172.363 35.0141 171.484 34.6476 170.825 33.9147C170.239 33.1818 169.947 32.229 169.947 31.2029C169.947 30.1768 170.239 29.2973 170.825 28.491C171.411 27.7581 172.363 27.3184 173.608 27.3184C174.852 27.3184 175.804 27.7581 176.39 28.491ZM173.608 28.9308C173.022 28.9308 172.656 29.1507 172.363 29.5171C172.07 29.8836 171.924 30.4699 171.924 31.2029C171.924 31.9358 172.07 32.4488 172.363 32.8886C172.656 33.2551 173.095 33.4749 173.608 33.4749C174.12 33.4749 174.559 33.2551 174.852 32.8886C175.145 32.5221 175.292 31.9358 175.292 31.2029C175.292 30.4699 175.145 29.9569 174.852 29.5171C174.559 29.1507 174.193 28.9308 173.608 28.9308Z" fill="#F6DBA8"/>
<path d="M182.028 28.9308C181.369 28.9308 180.93 29.224 180.71 29.737C180.564 30.0302 180.49 30.3967 180.49 30.8364V34.7209H178.66V27.5382H180.49V28.5643C180.71 28.1979 180.93 27.9047 181.149 27.7581C181.515 27.4649 182.028 27.3184 182.614 27.3184C183.346 27.3184 183.932 27.5382 184.444 27.9047C184.884 28.2712 185.177 28.9308 185.177 29.8103V34.6476H183.273V30.2501C183.273 29.8836 183.2 29.5904 183.126 29.3706C182.907 29.1507 182.541 28.9308 182.028 28.9308Z" fill="#F6DBA8"/>
<path d="M192.865 28.491C193.451 29.224 193.744 30.1768 193.744 31.2029C193.744 32.229 193.451 33.1818 192.865 33.9147C192.279 34.6476 191.327 35.0141 190.082 35.0141C188.838 35.0141 187.959 34.6476 187.3 33.9147C186.714 33.1818 186.421 32.229 186.421 31.2029C186.421 30.1768 186.714 29.2973 187.3 28.491C187.886 27.7581 188.838 27.3184 190.082 27.3184C191.327 27.3184 192.279 27.7581 192.865 28.491ZM190.082 28.9308C189.497 28.9308 189.131 29.1507 188.838 29.5171C188.545 29.8836 188.398 30.4699 188.398 31.2029C188.398 31.9358 188.545 32.4488 188.838 32.8886C189.131 33.2551 189.57 33.4749 190.082 33.4749C190.595 33.4749 191.034 33.2551 191.327 32.8886C191.62 32.5221 191.767 31.9358 191.767 31.2029C191.767 30.4699 191.62 29.9569 191.327 29.5171C191.034 29.1507 190.668 28.9308 190.082 28.9308Z" fill="#F6DBA8"/>
<path d="M199.163 29.5171C199.016 29.1507 198.723 29.0041 198.211 29.0041C197.698 29.0041 197.332 29.1507 197.112 29.5171C197.039 29.737 196.966 30.0302 196.966 30.3967V34.7209H195.062V27.5382H196.893V28.5643C197.112 28.1979 197.332 27.9047 197.552 27.7581C197.918 27.4649 198.357 27.3184 198.943 27.3184C199.455 27.3184 199.968 27.4649 200.261 27.6848C200.554 27.9047 200.773 28.1979 200.847 28.5643C201.066 28.1246 201.432 27.8314 201.799 27.6115C202.165 27.3917 202.604 27.3184 203.116 27.3184C203.409 27.3184 203.776 27.3917 204.068 27.5382C204.361 27.6848 204.654 27.9047 204.874 28.1979C205.093 28.4177 205.24 28.7842 205.313 29.1507C205.386 29.3706 205.386 29.737 205.386 30.1768V34.7209H203.483V30.1768C203.483 29.8836 203.409 29.6637 203.336 29.5171C203.19 29.1507 202.897 29.0041 202.384 29.0041C201.872 29.0041 201.506 29.224 201.286 29.6637C201.213 29.8836 201.14 30.1768 201.14 30.4699V34.7209H199.236V30.4699C199.309 30.0302 199.236 29.737 199.163 29.5171Z" fill="#F6DBA8"/>
<path d="M209.048 24.9746V26.7336H207.144V24.9746H209.048ZM209.048 27.5399V34.7225H207.144V27.5399H209.048Z" fill="#F6DBA8"/>
<path d="M217.102 30.1777H215.198C215.198 29.8845 215.051 29.6647 214.905 29.4448C214.685 29.1516 214.392 29.005 213.953 29.005C213.294 29.005 212.855 29.2982 212.635 29.9578C212.489 30.3243 212.415 30.764 212.415 31.2771C212.415 31.7901 212.489 32.2299 212.635 32.5231C212.855 33.1094 213.294 33.4026 213.88 33.4026C214.319 33.4026 214.612 33.256 214.832 33.0361C215.051 32.8162 215.125 32.5231 215.198 32.0833H217.102C217.028 32.6697 216.882 33.1827 216.516 33.6958C215.93 34.502 215.051 34.9417 213.88 34.9417C212.708 34.9417 211.903 34.5753 211.317 33.9156C210.805 33.256 210.512 32.3032 210.512 31.2771C210.512 30.0311 210.805 29.0783 211.39 28.4187C211.976 27.759 212.855 27.3926 213.88 27.3926C214.759 27.3926 215.491 27.6125 216.077 27.9789C216.662 28.4187 216.955 29.1516 217.102 30.1777Z" fill="#F6DBA8"/>
<path d="M75.4179 41.8298C75.9304 41.1701 76.7359 40.877 77.9806 40.877C78.7861 40.877 79.4451 41.0235 80.1041 41.3167C80.6898 41.6099 81.0559 42.1962 81.0559 43.0757V46.3739C81.0559 46.5938 81.0559 46.887 81.0559 47.1801C81.0559 47.4 81.1292 47.6199 81.2024 47.6932C81.2756 47.7665 81.3488 47.8398 81.4953 47.9131V48.2062H79.4451C79.3718 48.0596 79.3718 47.9131 79.2986 47.7665C79.2986 47.6199 79.2254 47.4733 79.2254 47.3267C78.9325 47.6199 78.6396 47.8398 78.3467 48.0596C77.9074 48.2795 77.4681 48.4261 76.9555 48.4261C76.2965 48.4261 75.784 48.2062 75.3447 47.8398C74.9053 47.4733 74.6857 46.9602 74.6857 46.2273C74.6857 45.3478 75.0518 44.6882 75.7108 44.3217C76.0769 44.1018 76.6626 43.9552 77.3949 43.882L78.0539 43.8087C78.42 43.7354 78.6396 43.7354 78.7861 43.6621C79.079 43.5155 79.1522 43.3689 79.1522 43.149C79.1522 42.8559 79.079 42.636 78.8593 42.5627C78.6396 42.4161 78.3467 42.4161 77.9806 42.4161C77.5413 42.4161 77.2484 42.4894 77.0288 42.7093C76.8823 42.8559 76.8091 43.0757 76.7359 43.3689H74.9053C74.9786 42.7826 75.125 42.2695 75.4179 41.8298ZM76.8091 46.887C76.9555 47.0335 77.1752 47.1068 77.4681 47.1068C77.9074 47.1068 78.2735 46.9602 78.5664 46.7404C78.9325 46.5205 79.079 46.0807 79.079 45.4211V44.6882C78.9325 44.7615 78.8593 44.8348 78.7128 44.8348C78.5664 44.9081 78.42 44.9081 78.2003 44.9813L77.761 45.0546C77.3949 45.1279 77.102 45.2012 76.8823 45.3478C76.5894 45.4944 76.443 45.7876 76.443 46.154C76.5894 46.5205 76.6626 46.7404 76.8091 46.887Z" fill="#F6DBA8"/>
<path d="M86.0353 42.4894C85.3763 42.4894 84.937 42.7826 84.7173 43.2956C84.5708 43.5888 84.4976 43.9552 84.4976 44.395V48.2795H82.5939V41.0968H84.4244V42.1229C84.6441 41.7565 84.8637 41.4633 85.0834 41.3167C85.4495 41.0235 85.9621 40.877 86.5478 40.877C87.28 40.877 87.8658 41.0968 88.3784 41.4633C88.8177 41.8298 89.1106 42.4894 89.1106 43.3689V48.2062H87.2068V43.8087C87.2068 43.4422 87.1336 43.149 87.0604 42.9291C86.9139 42.636 86.5478 42.4894 86.0353 42.4894Z" fill="#F6DBA8"/>
<path d="M97.458 38.5312V48.2059H95.6274V47.1798C95.3345 47.6195 95.0417 47.9127 94.6756 48.1326C94.3094 48.3525 93.9433 48.4258 93.4308 48.4258C92.6254 48.4258 91.8931 48.0593 91.3074 47.3997C90.7216 46.74 90.4287 45.8605 90.4287 44.7611C90.4287 43.5152 90.7216 42.5623 91.3074 41.8294C91.8931 41.0965 92.6254 40.8033 93.5772 40.8033C94.0166 40.8033 94.3827 40.8766 94.7488 41.0965C95.1149 41.3164 95.3345 41.5362 95.5542 41.9027V38.5312H97.458ZM92.4057 44.6878C92.4057 45.3475 92.5521 45.8605 92.7718 46.3003C93.0647 46.6667 93.4308 46.8866 93.9433 46.8866C94.4559 46.8866 94.8952 46.6667 95.1881 46.3003C95.481 45.9338 95.6274 45.4208 95.6274 44.7611C95.6274 43.8816 95.4078 43.222 94.9684 42.8555C94.6755 42.6356 94.3827 42.4891 94.0166 42.4891C93.4308 42.4891 93.0647 42.7089 92.7718 43.1487C92.4789 43.5884 92.4057 44.1015 92.4057 44.6878Z" fill="#F6DBA8"/>
<path d="M102.876 38.5312H104.926V48.2792H102.876V38.5312Z" fill="#F6DBA8"/>
<path d="M110.052 42.4894C109.393 42.4894 108.953 42.7826 108.734 43.2956C108.587 43.5888 108.514 43.9552 108.514 44.395V48.2795H106.61V41.0968H108.441V42.1229C108.66 41.7565 108.88 41.4633 109.1 41.3167C109.466 41.0235 109.978 40.877 110.564 40.877C111.296 40.877 111.882 41.0968 112.395 41.4633C112.834 41.8298 113.127 42.4894 113.127 43.3689V48.2062H111.223V43.8087C111.223 43.4422 111.15 43.149 111.077 42.9291C110.93 42.636 110.564 42.4894 110.052 42.4894Z" fill="#F6DBA8"/>
<path d="M118.18 46.9604V48.353H117.301C116.422 48.353 115.837 48.2064 115.47 47.9132C115.251 47.6934 115.178 47.4002 115.178 46.8871V42.4896H114.152V41.1703H115.178V39.1914H117.008V41.1703H118.18V42.4896H117.008V46.3008C117.008 46.594 117.081 46.8138 117.155 46.8871C117.228 46.9604 117.447 46.9604 117.814 46.9604C117.887 46.9604 117.96 46.9604 117.96 46.9604C118.033 46.9604 118.106 46.9604 118.18 46.9604Z" fill="#F6DBA8"/>
<path d="M125.501 46.154C125.428 46.5938 125.208 47.0335 124.842 47.4733C124.256 48.2062 123.378 48.4994 122.279 48.4994C121.401 48.4994 120.595 48.2062 119.863 47.6199C119.131 47.0335 118.838 46.0807 118.838 44.7615C118.838 43.5155 119.131 42.5627 119.79 41.903C120.449 41.2434 121.254 40.877 122.279 40.877C122.865 40.877 123.451 41.0235 123.89 41.2434C124.403 41.4633 124.769 41.8298 125.062 42.2695C125.355 42.7093 125.501 43.2223 125.574 43.7354C125.647 44.1018 125.647 44.5416 125.647 45.1279H120.742C120.742 45.8609 120.961 46.3739 121.401 46.6671C121.694 46.8137 121.986 46.9602 122.353 46.9602C122.719 46.9602 123.085 46.887 123.304 46.6671C123.451 46.5205 123.524 46.3739 123.671 46.154H125.501ZM123.671 43.9552C123.671 43.4422 123.524 43.0757 123.231 42.8559C122.938 42.5627 122.645 42.4894 122.206 42.4894C121.767 42.4894 121.401 42.636 121.181 42.9291C120.961 43.2223 120.815 43.5888 120.742 44.0285H123.671V43.9552Z" fill="#F6DBA8"/>
<path d="M130.481 42.7826C129.748 42.7826 129.236 43.0024 128.943 43.5155C128.796 43.8087 128.723 44.2484 128.723 44.7615V48.2062H126.819V41.0235H128.577V42.2695C128.87 41.7565 129.089 41.4633 129.309 41.3167C129.675 41.0235 130.114 40.877 130.7 40.877H130.773C130.773 40.877 130.847 40.877 130.92 40.877V42.7826C130.773 42.7826 130.7 42.7826 130.627 42.7826C130.627 42.7826 130.554 42.7826 130.481 42.7826Z" fill="#F6DBA8"/>
<path d="M135.533 42.4894C134.874 42.4894 134.435 42.7826 134.215 43.2956C134.069 43.5888 133.995 43.9552 133.995 44.395V48.2795H132.092V41.0968H133.922V42.1229C134.142 41.7565 134.361 41.4633 134.581 41.3167C134.947 41.0235 135.46 40.877 136.046 40.877C136.778 40.877 137.363 41.0968 137.876 41.4633C138.315 41.8298 138.608 42.4894 138.608 43.3689V48.2062H136.704V43.8087C136.704 43.4422 136.631 43.149 136.558 42.9291C136.412 42.636 136.046 42.4894 135.533 42.4894Z" fill="#F6DBA8"/>
<path d="M140.658 41.8298C141.17 41.1701 141.976 40.877 143.22 40.877C144.026 40.877 144.685 41.0235 145.344 41.3167C145.93 41.6099 146.296 42.1962 146.296 43.0757V46.3739C146.296 46.5938 146.296 46.887 146.296 47.1801C146.296 47.4 146.369 47.6199 146.442 47.6932C146.515 47.7665 146.589 47.8398 146.735 47.9131V48.2062H144.685C144.612 48.0596 144.612 47.9131 144.538 47.7665C144.538 47.6199 144.465 47.4733 144.465 47.3267C144.172 47.6199 143.879 47.8398 143.587 48.0596C143.147 48.2795 142.708 48.4261 142.195 48.4261C141.536 48.4261 141.024 48.2062 140.585 47.8398C140.145 47.4733 139.926 46.9602 139.926 46.2273C139.926 45.3478 140.292 44.6882 140.951 44.3217C141.317 44.1018 141.903 43.9552 142.635 43.882L143.294 43.8087C143.66 43.7354 143.879 43.7354 144.026 43.6621C144.319 43.5155 144.392 43.3689 144.392 43.149C144.392 42.8559 144.319 42.636 144.099 42.5627C143.879 42.4161 143.587 42.4161 143.22 42.4161C142.781 42.4161 142.488 42.4894 142.269 42.7093C142.122 42.8559 142.049 43.0757 141.976 43.3689H140.145C140.145 42.7826 140.365 42.2695 140.658 41.8298ZM142.049 46.887C142.195 47.0335 142.415 47.1068 142.708 47.1068C143.147 47.1068 143.513 46.9602 143.806 46.7404C144.172 46.5205 144.319 46.0807 144.319 45.4211V44.6882C144.172 44.7615 144.099 44.8348 143.953 44.8348C143.806 44.9081 143.66 44.9081 143.44 44.9813L143.001 45.0546C142.635 45.1279 142.342 45.2012 142.122 45.3478C141.829 45.4944 141.683 45.7876 141.683 46.154C141.756 46.5205 141.829 46.7404 142.049 46.887Z" fill="#F6DBA8"/>
<path d="M151.203 46.9604V48.353H150.324C149.445 48.353 148.86 48.2064 148.493 47.9132C148.274 47.6934 148.201 47.4002 148.201 46.8871V42.4896H147.175V41.1703H148.201V39.1914H150.031V41.1703H151.203V42.4896H150.031V46.3008C150.031 46.594 150.104 46.8138 150.177 46.8871C150.251 46.9604 150.47 46.9604 150.836 46.9604C150.91 46.9604 150.983 46.9604 150.983 46.9604C151.056 46.9604 151.129 46.9604 151.203 46.9604Z" fill="#F6DBA8"/>
<path d="M154.277 38.459V40.218H152.373V38.459H154.277ZM154.277 41.0975V48.2802H152.373V41.0975H154.277Z" fill="#F6DBA8"/>
<path d="M162.112 41.9774C162.698 42.7103 162.991 43.6631 162.991 44.6892C162.991 45.7153 162.698 46.6681 162.112 47.401C161.526 48.134 160.575 48.5004 159.33 48.5004C158.085 48.5004 157.206 48.134 156.547 47.401C155.962 46.6681 155.669 45.7153 155.669 44.6892C155.669 43.6631 155.962 42.7836 156.547 41.9774C157.133 41.2444 158.085 40.8047 159.33 40.8047C160.575 40.878 161.526 41.2444 162.112 41.9774ZM159.33 42.4171C158.744 42.4171 158.378 42.637 158.085 43.0035C157.792 43.3699 157.646 43.9563 157.646 44.6892C157.646 45.4221 157.792 45.9352 158.085 46.3749C158.378 46.7414 158.817 46.9613 159.33 46.9613C159.842 46.9613 160.282 46.7414 160.575 46.3749C160.867 46.0085 161.014 45.4221 161.014 44.6892C161.014 43.9563 160.867 43.4432 160.575 43.0035C160.282 42.637 159.916 42.4171 159.33 42.4171Z" fill="#F6DBA8"/>
<path d="M167.751 42.4894C167.092 42.4894 166.652 42.7826 166.433 43.2956C166.286 43.5888 166.213 43.9552 166.213 44.395V48.2795H164.309V41.0968H166.14V42.1229C166.36 41.7565 166.579 41.4633 166.799 41.3167C167.165 41.0235 167.678 40.877 168.263 40.877C168.996 40.877 169.581 41.0968 170.094 41.4633C170.533 41.8298 170.826 42.4894 170.826 43.3689V48.2062H168.922V43.8087C168.922 43.4422 168.849 43.149 168.776 42.9291C168.629 42.636 168.263 42.4894 167.751 42.4894Z" fill="#F6DBA8"/>
<path d="M172.876 41.8298C173.388 41.1701 174.194 40.877 175.438 40.877C176.244 40.877 176.903 41.0235 177.562 41.3167C178.148 41.6099 178.514 42.1962 178.514 43.0757V46.3739C178.514 46.5938 178.514 46.887 178.514 47.1801C178.514 47.4 178.587 47.6199 178.66 47.6932C178.733 47.7665 178.807 47.8398 178.953 47.9131V48.2062H176.903C176.83 48.0596 176.83 47.9131 176.756 47.7665C176.756 47.6199 176.683 47.4733 176.683 47.3267C176.39 47.6199 176.097 47.8398 175.805 48.0596C175.365 48.2795 174.926 48.4261 174.413 48.4261C173.754 48.4261 173.242 48.2062 172.802 47.8398C172.363 47.4733 172.143 46.9602 172.143 46.2273C172.143 45.3478 172.51 44.6882 173.169 44.3217C173.535 44.1018 174.12 43.9552 174.779 43.882L175.438 43.8087C175.805 43.7354 176.024 43.7354 176.171 43.6621C176.463 43.5155 176.537 43.3689 176.537 43.149C176.537 42.8559 176.463 42.636 176.244 42.5627C176.024 42.4161 175.731 42.4161 175.365 42.4161C174.926 42.4161 174.633 42.4894 174.413 42.7093C174.267 42.8559 174.194 43.0757 174.12 43.3689H172.29C172.363 42.7826 172.583 42.2695 172.876 41.8298ZM174.267 46.887C174.413 47.0335 174.633 47.1068 174.926 47.1068C175.365 47.1068 175.731 46.9602 176.024 46.7404C176.39 46.5205 176.537 46.0807 176.537 45.4211V44.6882C176.39 44.7615 176.317 44.8348 176.171 44.8348C176.024 44.9081 175.878 44.9081 175.658 44.9813L175.219 45.0546C174.853 45.1279 174.56 45.2012 174.34 45.3478C174.047 45.4944 173.901 45.7876 173.901 46.154C173.974 46.5205 174.12 46.7404 174.267 46.887Z" fill="#F6DBA8"/>
<path d="M180.125 38.5312H182.029V48.2792H180.125V38.5312Z" fill="#F6DBA8"/>
<path d="M191.914 44.468H189.79V48.2792H187.813V38.5312H192.573C193.231 38.5312 193.744 38.6045 194.11 38.7511C194.476 38.8977 194.769 39.1176 195.062 39.4108C195.282 39.6306 195.428 39.9238 195.575 40.217C195.721 40.5102 195.794 40.8766 195.794 41.2431C195.794 41.6828 195.648 42.1226 195.428 42.6356C195.208 43.0754 194.842 43.3686 194.257 43.5884C194.696 43.735 194.989 44.0282 195.208 44.3214C195.428 44.6878 195.501 45.1276 195.501 45.8605V46.5934C195.501 47.0332 195.501 47.3264 195.575 47.473C195.648 47.6928 195.721 47.9127 195.941 48.0593V48.2792H193.671C193.598 48.0593 193.598 47.9127 193.524 47.7661C193.451 47.473 193.451 47.1798 193.451 46.9599V46.0804C193.451 45.4941 193.305 45.0543 193.085 44.8344C192.865 44.5412 192.499 44.468 191.914 44.468ZM193.085 42.7089C193.524 42.4891 193.671 42.1959 193.671 41.6095C193.671 41.0232 193.451 40.6567 193.085 40.4369C192.865 40.2903 192.499 40.2903 192.133 40.2903H189.79V42.9288H192.06C192.572 42.8555 192.865 42.7822 193.085 42.7089Z" fill="#F6DBA8"/>
<path d="M203.482 46.154C203.409 46.5938 203.189 47.0335 202.823 47.4733C202.237 48.2062 201.359 48.4994 200.26 48.4994C199.382 48.4994 198.576 48.2062 197.844 47.6199C197.112 47.0335 196.819 46.0807 196.819 44.7615C196.819 43.5155 197.112 42.5627 197.771 41.903C198.43 41.2434 199.235 40.877 200.26 40.877C200.846 40.877 201.432 41.0235 201.871 41.2434C202.384 41.4633 202.75 41.8298 203.043 42.2695C203.336 42.7093 203.482 43.2223 203.555 43.7354C203.629 44.1018 203.629 44.5416 203.629 45.1279H198.723C198.723 45.8609 198.942 46.3739 199.382 46.6671C199.675 46.8137 199.968 46.9602 200.334 46.9602C200.7 46.9602 201.066 46.887 201.285 46.6671C201.432 46.5205 201.505 46.3739 201.652 46.154H203.482ZM201.652 43.9552C201.652 43.4422 201.505 43.0757 201.212 42.8559C200.919 42.5627 200.626 42.4894 200.187 42.4894C199.748 42.4894 199.382 42.636 199.162 42.9291C198.942 43.2223 198.796 43.5888 198.723 44.0285H201.652V43.9552Z" fill="#F6DBA8"/>
<path d="M204.873 38.5312H206.777V48.2792H204.873V38.5312Z" fill="#F6DBA8"/>
<path d="M208.901 41.8298C209.413 41.1701 210.219 40.877 211.463 40.877C212.269 40.877 212.928 41.0235 213.587 41.3167C214.172 41.6099 214.539 42.1962 214.539 43.0757V46.3739C214.539 46.5938 214.539 46.887 214.539 47.1801C214.539 47.4 214.612 47.6199 214.685 47.6932C214.758 47.7665 214.831 47.8398 214.978 47.9131V48.2062H212.928C212.854 48.0596 212.855 47.9131 212.781 47.7665C212.781 47.6199 212.708 47.4733 212.708 47.3267C212.415 47.6199 212.122 47.8398 211.829 48.0596C211.39 48.2795 210.951 48.4261 210.438 48.4261C209.779 48.4261 209.267 48.2062 208.827 47.8398C208.388 47.4733 208.168 46.9602 208.168 46.2273C208.168 45.3478 208.534 44.6882 209.193 44.3217C209.56 44.1018 210.145 43.9552 210.878 43.882L211.537 43.8087C211.903 43.7354 212.122 43.7354 212.269 43.6621C212.562 43.5155 212.635 43.3689 212.635 43.149C212.635 42.8559 212.562 42.636 212.342 42.5627C212.122 42.4161 211.829 42.4161 211.463 42.4161C211.024 42.4161 210.731 42.4894 210.511 42.7093C210.365 42.8559 210.292 43.0757 210.219 43.3689H208.388C208.388 42.7826 208.534 42.2695 208.901 41.8298ZM210.292 46.887C210.438 47.0335 210.658 47.1068 210.951 47.1068C211.39 47.1068 211.756 46.9602 212.049 46.7404C212.415 46.5205 212.562 46.0807 212.562 45.4211V44.6882C212.415 44.7615 212.342 44.8348 212.196 44.8348C212.049 44.9081 211.903 44.9081 211.683 44.9813L211.244 45.0546C210.878 45.1279 210.585 45.2012 210.365 45.3478C210.072 45.4944 209.926 45.7876 209.926 46.154C209.999 46.5205 210.072 46.7404 210.292 46.887Z" fill="#F6DBA8"/>
<path d="M219.371 46.9604V48.353H218.492C217.614 48.353 217.028 48.2064 216.662 47.9132C216.442 47.6934 216.369 47.4002 216.369 46.8871V42.4896H215.344V41.1703H216.369V39.1914H218.2V41.1703H219.371V42.4896H218.2V46.3008C218.2 46.594 218.273 46.8138 218.346 46.8871C218.419 46.9604 218.639 46.9604 219.005 46.9604C219.078 46.9604 219.151 46.9604 219.151 46.9604C219.298 46.9604 219.371 46.9604 219.371 46.9604Z" fill="#F6DBA8"/>
<path d="M222.52 38.459V40.218H220.616V38.459H222.52ZM222.52 41.0975V48.2802H220.616V41.0975H222.52Z" fill="#F6DBA8"/>
<path d="M230.355 41.9774C230.941 42.7103 231.233 43.6631 231.233 44.6892C231.233 45.7153 230.941 46.6681 230.355 47.401C229.769 48.134 228.817 48.5004 227.572 48.5004C226.328 48.5004 225.449 48.134 224.79 47.401C224.204 46.6681 223.911 45.7153 223.911 44.6892C223.911 43.6631 224.204 42.7836 224.79 41.9774C225.376 41.2444 226.328 40.8047 227.572 40.8047C228.817 40.878 229.769 41.2444 230.355 41.9774ZM227.572 42.4171C226.987 42.4171 226.62 42.637 226.328 43.0035C226.035 43.3699 225.888 43.9563 225.888 44.6892C225.888 45.4221 226.035 45.9352 226.328 46.3749C226.62 46.7414 227.06 46.9613 227.572 46.9613C228.085 46.9613 228.524 46.7414 228.817 46.3749C229.11 46.0085 229.256 45.4221 229.256 44.6892C229.256 43.9563 229.11 43.4432 228.817 43.0035C228.524 42.637 228.158 42.4171 227.572 42.4171Z" fill="#F6DBA8"/>
<path d="M235.993 42.4894C235.334 42.4894 234.894 42.7826 234.675 43.2956C234.528 43.5888 234.455 43.9552 234.455 44.395V48.2795H232.551V41.0968H234.382V42.1229C234.601 41.7565 234.821 41.4633 235.041 41.3167C235.407 41.0235 235.919 40.877 236.505 40.877C237.237 40.877 237.823 41.0968 238.336 41.4633C238.775 41.8298 239.068 42.4894 239.068 43.3689V48.2062H237.164V43.8087C237.164 43.4422 237.091 43.149 237.018 42.9291C236.871 42.636 236.505 42.4894 235.993 42.4894Z" fill="#F6DBA8"/>
<path d="M245.805 41.3901C246.39 41.7566 246.683 42.3429 246.756 43.2224H244.853C244.853 43.0025 244.779 42.7827 244.633 42.6361C244.413 42.4162 244.047 42.2696 243.608 42.2696C243.169 42.2696 242.876 42.3429 242.729 42.4895C242.583 42.6361 242.436 42.7827 242.436 42.9293C242.436 43.1491 242.51 43.2957 242.729 43.369C242.949 43.4423 243.535 43.6622 244.706 43.8821C245.438 44.0286 246.024 44.3218 246.39 44.6883C246.756 45.0547 246.976 45.4945 246.976 46.0075C246.976 46.7405 246.683 47.3268 246.171 47.7666C245.658 48.2063 244.853 48.4262 243.681 48.4262C242.583 48.4262 241.704 48.2063 241.192 47.6933C240.679 47.1802 240.386 46.5939 240.386 45.861H242.29C242.363 46.2274 242.436 46.4473 242.583 46.5939C242.802 46.8138 243.242 46.9604 243.901 46.9604C244.267 46.9604 244.56 46.8871 244.779 46.8138C244.999 46.6672 245.072 46.5206 245.072 46.3007C245.072 46.0808 244.999 45.9343 244.779 45.7877C244.633 45.7144 243.974 45.4945 242.802 45.2013C241.997 44.9814 241.411 44.7616 241.118 44.4684C240.752 44.1752 240.606 43.7355 240.606 43.1491C240.606 42.4895 240.899 41.9032 241.411 41.4634C241.924 40.9503 242.656 40.7305 243.608 40.7305C244.487 40.8771 245.219 41.0236 245.805 41.3901Z" fill="#F6DBA8"/>
<path d="M81.1292 55.4637C81.7149 56.1966 82.0078 57.1494 82.0078 58.1755C82.0078 59.2016 81.7149 60.1544 81.1292 60.8874C80.5434 61.6203 79.5915 61.9867 78.3467 61.9867C77.102 61.9867 76.2233 61.6203 75.5643 60.8874C74.9786 60.1544 74.6857 59.2016 74.6857 58.1755C74.6857 57.1494 74.9786 56.2699 75.5643 55.4637C76.1501 54.7308 77.102 54.291 78.3467 54.291C79.5915 54.3643 80.5434 54.7308 81.1292 55.4637ZM78.42 55.9767C77.8342 55.9767 77.4681 56.1966 77.1752 56.5631C76.8823 56.9296 76.7359 57.5159 76.7359 58.2488C76.7359 58.9817 76.8823 59.4948 77.1752 59.9346C77.4681 60.301 77.9074 60.5209 78.42 60.5209C78.9325 60.5209 79.3718 60.301 79.6647 59.9346C79.9576 59.5681 80.1041 58.9817 80.1041 58.2488C80.1041 57.5159 79.9576 57.0028 79.6647 56.5631C79.3718 56.1233 78.9325 55.9767 78.42 55.9767Z" fill="#F6DBA8"/>
<path d="M86.7676 52.0186V53.5578C86.6944 53.5578 86.4748 53.5578 86.2551 53.5578C86.0354 53.5578 85.8158 53.631 85.7425 53.7043C85.6693 53.8509 85.5961 53.9242 85.5961 54.0708V54.6571H86.8409V55.9764H85.5961V61.7665H83.6923V55.9764H82.6672V54.6571H83.6923V54.2174C83.6923 53.4845 83.8388 52.8981 84.0584 52.6049C84.3513 52.1652 85.0103 51.9453 86.0354 51.9453C86.1819 51.9453 86.2551 51.9453 86.3283 51.9453C86.4748 51.9453 86.6212 51.9453 86.7676 52.0186Z" fill="#F6DBA8"/>
<path d="M93.6501 61.7655H91.7463V52.0176H94.6752L96.4325 59.64L98.1898 52.0176H101.119V61.7655H99.2149V55.1692C99.2149 54.9493 99.2149 54.7294 99.2149 54.3629C99.2149 53.9965 99.2149 53.7766 99.2149 53.5567L97.3844 61.6922H95.4074L93.5769 53.5567C93.5769 53.7766 93.5769 53.9965 93.5769 54.3629C93.5769 54.7294 93.5769 54.9493 93.5769 55.1692V61.7655H93.6501Z" fill="#F6DBA8"/>
<path d="M108.881 55.4637C109.467 56.1966 109.759 57.1494 109.759 58.1755C109.759 59.2016 109.467 60.1544 108.881 60.8874C108.295 61.6203 107.343 61.9867 106.098 61.9867C104.854 61.9867 103.975 61.6203 103.316 60.8874C102.73 60.1544 102.437 59.2016 102.437 58.1755C102.437 57.1494 102.73 56.2699 103.316 55.4637C103.902 54.7308 104.854 54.291 106.098 54.291C107.343 54.3643 108.295 54.7308 108.881 55.4637ZM106.098 55.9767C105.513 55.9767 105.146 56.1966 104.854 56.5631C104.561 56.9296 104.414 57.5159 104.414 58.2488C104.414 58.9817 104.561 59.4948 104.854 59.9346C105.146 60.301 105.586 60.5209 106.098 60.5209C106.611 60.5209 107.05 60.301 107.343 59.9346C107.636 59.5681 107.782 58.9817 107.782 58.2488C107.782 57.5159 107.636 57.0028 107.343 56.5631C107.05 56.1233 106.684 55.9767 106.098 55.9767Z" fill="#F6DBA8"/>
<path d="M116.056 54.9507C116.641 55.3171 116.934 55.9035 117.007 56.783H115.104C115.104 56.5631 115.03 56.3432 114.884 56.1966C114.664 55.9767 114.298 55.8302 113.859 55.8302C113.42 55.8302 113.127 55.9035 112.98 56.05C112.834 56.1966 112.687 56.3432 112.687 56.4898C112.687 56.7097 112.761 56.8563 112.98 56.9296C113.2 57.0028 113.786 57.2227 114.957 57.4426C115.689 57.5892 116.275 57.8824 116.641 58.2488C117.007 58.6153 117.227 59.055 117.227 59.5681C117.227 60.301 116.934 60.8874 116.422 61.3271C115.909 61.7669 115.104 61.9867 113.932 61.9867C112.834 61.9867 111.955 61.7669 111.443 61.2538C110.93 60.7408 110.637 60.1544 110.637 59.4215H112.541C112.614 59.788 112.687 60.0078 112.834 60.1544C113.054 60.3743 113.493 60.5209 114.152 60.5209C114.518 60.5209 114.811 60.4476 115.03 60.3743C115.25 60.2277 115.323 60.0811 115.323 59.8613C115.323 59.6414 115.25 59.4948 115.03 59.3482C114.884 59.2749 114.225 59.055 113.053 58.7619C112.248 58.542 111.662 58.3221 111.369 58.0289C111.003 57.7358 110.857 57.296 110.857 56.7097C110.857 56.05 111.15 55.4637 111.662 55.0239C112.175 54.5109 112.907 54.291 113.859 54.291C114.811 54.3643 115.543 54.5842 116.056 54.9507Z" fill="#F6DBA8"/>
<path d="M124.843 57.1484H122.939C122.939 56.8552 122.793 56.6354 122.646 56.4155C122.426 56.1223 122.134 55.9757 121.694 55.9757C121.035 55.9757 120.596 56.2689 120.376 56.9285C120.23 57.295 120.157 57.7347 120.157 58.2478C120.157 58.7608 120.23 59.2006 120.376 59.4938C120.596 60.0801 121.035 60.3733 121.621 60.3733C122.06 60.3733 122.353 60.2267 122.573 60.0068C122.793 59.7869 122.866 59.4938 122.939 59.054H124.843C124.77 59.6404 124.623 60.1534 124.257 60.6665C123.671 61.4727 122.793 61.9124 121.621 61.9124C120.449 61.9124 119.644 61.546 119.058 60.8863C118.546 60.2267 118.253 59.2739 118.253 58.2478C118.253 57.0018 118.546 56.049 119.131 55.3894C119.717 54.7297 120.596 54.3633 121.621 54.3633C122.5 54.3633 123.232 54.5832 123.818 54.9496C124.403 55.3894 124.77 56.1223 124.843 57.1484Z" fill="#F6DBA8"/>
<path d="M132.091 55.4637C132.677 56.1966 132.97 57.1494 132.97 58.1755C132.97 59.2016 132.677 60.1544 132.091 60.8874C131.505 61.6203 130.554 61.9867 129.309 61.9867C128.064 61.9867 127.185 61.6203 126.526 60.8874C125.941 60.1544 125.648 59.2016 125.648 58.1755C125.648 57.1494 125.941 56.2699 126.526 55.4637C127.112 54.7308 128.064 54.291 129.309 54.291C130.627 54.3643 131.505 54.7308 132.091 55.4637ZM129.382 55.9767C128.796 55.9767 128.43 56.1966 128.137 56.5631C127.844 56.9296 127.698 57.5159 127.698 58.2488C127.698 58.9817 127.844 59.4948 128.137 59.9346C128.43 60.301 128.869 60.5209 129.382 60.5209C129.895 60.5209 130.334 60.301 130.627 59.9346C130.92 59.5681 131.066 58.9817 131.066 58.2488C131.066 57.5159 130.92 57.0028 130.627 56.5631C130.334 56.1233 129.895 55.9767 129.382 55.9767Z" fill="#F6DBA8"/>
<path d="M139.853 61.7667L138.755 56.5629L137.583 61.7667H135.606L133.556 54.584H135.606L136.704 59.7145L137.73 54.584H139.633L140.732 59.7878L141.83 54.584H143.807L141.757 61.7667H139.853Z" fill="#F6DBA8"/>
</svg>
